<svg width="311" height="79" viewBox="0 0 311 79" fill="none" xmlns="http://www.w3.org/2000/svg">
<g filter="url(#filter0_b_3841_33013)">
<path d="M29 79L36.7942 60.25H21.2058L29 79Z" fill="#3D423E" fill-opacity="0.8"/>
</g>
<g filter="url(#filter1_b_3841_33013)">
<rect width="311" height="62" rx="12" fill="#3D423E" fill-opacity="0.8"/>
<path d="M20.3501 27.2822C19.2655 27.2822 18.3275 27.0277 17.5361 26.5186C16.7448 26.0094 16.1333 25.2873 15.7017 24.3521C15.2756 23.4168 15.0625 22.3073 15.0625 21.0234V21.0068C15.0625 19.7174 15.2756 18.6051 15.7017 17.6699C16.1333 16.7347 16.742 16.0125 17.5278 15.5034C18.3192 14.9943 19.2572 14.7397 20.3418 14.7397C21.1829 14.7397 21.9466 14.9058 22.6328 15.2378C23.3245 15.5643 23.8945 16.0208 24.3428 16.6074C24.791 17.1885 25.0732 17.8608 25.1895 18.6245L25.1812 18.6411H23.6787L23.6704 18.6245C23.5376 18.1099 23.3135 17.6672 22.998 17.2964C22.6826 16.9201 22.298 16.6296 21.8442 16.4248C21.396 16.2201 20.8952 16.1177 20.3418 16.1177C19.5781 16.1177 18.9141 16.3169 18.3496 16.7153C17.7907 17.1138 17.359 17.6782 17.0547 18.4087C16.7503 19.1392 16.5981 20.0052 16.5981 21.0068V21.0234C16.5981 22.0195 16.7503 22.8828 17.0547 23.6133C17.359 24.3438 17.7907 24.9082 18.3496 25.3066C18.9141 25.7051 19.5809 25.9043 20.3501 25.9043C20.909 25.9043 21.4154 25.8158 21.8691 25.6387C22.3229 25.4561 22.7048 25.1987 23.0146 24.8667C23.3245 24.5291 23.5404 24.1307 23.6621 23.6714L23.6787 23.6548H25.1895V23.6714C25.0566 24.4019 24.7689 25.0382 24.3262 25.5806C23.8835 26.1174 23.3218 26.5352 22.6411 26.834C21.966 27.1328 21.2023 27.2822 20.3501 27.2822ZM29.9707 27.1577C29.4062 27.1577 28.8971 27.0498 28.4434 26.834C27.9951 26.6182 27.6382 26.311 27.3726 25.9126C27.1125 25.5142 26.9824 25.0438 26.9824 24.5015V24.4849C26.9824 23.9536 27.1097 23.4998 27.3643 23.1235C27.6188 22.7417 27.9896 22.4429 28.4766 22.2271C28.9635 22.0112 29.5529 21.884 30.2446 21.8452L33.5317 21.646V22.7998L30.4189 22.999C29.7383 23.0378 29.2402 23.1789 28.9248 23.4224C28.6149 23.6659 28.46 24.009 28.46 24.4517V24.4683C28.46 24.922 28.6315 25.2762 28.9746 25.5308C29.3177 25.7798 29.7493 25.9043 30.2695 25.9043C30.762 25.9043 31.1992 25.8075 31.5811 25.6138C31.9629 25.4146 32.2617 25.1462 32.4775 24.8086C32.6989 24.471 32.8096 24.0892 32.8096 23.6631V20.874C32.8096 20.3206 32.6408 19.9001 32.3032 19.6123C31.9712 19.319 31.4704 19.1724 30.8008 19.1724C30.264 19.1724 29.8241 19.2692 29.481 19.4629C29.1379 19.651 28.9082 19.9194 28.792 20.2681L28.7837 20.293H27.3394L27.3477 20.2432C27.4251 19.7728 27.6188 19.3633 27.9287 19.0146C28.2441 18.6605 28.6509 18.3866 29.1489 18.1929C29.647 17.9937 30.2142 17.894 30.8506 17.894C31.5811 17.894 32.1981 18.013 32.7017 18.251C33.2108 18.4889 33.5954 18.832 33.8555 19.2803C34.1211 19.723 34.2539 20.2542 34.2539 20.874V27H32.8096V25.6802H32.6768C32.4886 25.9956 32.259 26.264 31.9878 26.4854C31.7222 26.7067 31.4206 26.8755 31.083 26.9917C30.7454 27.1024 30.3747 27.1577 29.9707 27.1577ZM40.0728 27.0664C39.1541 27.0664 38.4873 26.881 38.0723 26.5103C37.6628 26.1395 37.458 25.528 37.458 24.6758V19.2471H36.0469V18.0518H37.458V15.7358H38.9521V18.0518H40.9111V19.2471H38.9521V24.3105C38.9521 24.8363 39.0518 25.2153 39.251 25.4478C39.4502 25.6746 39.7822 25.7881 40.2471 25.7881C40.3743 25.7881 40.4823 25.7853 40.5708 25.7798C40.6649 25.7743 40.7783 25.766 40.9111 25.7549V26.9834C40.7728 27.0055 40.6344 27.0249 40.4961 27.0415C40.3577 27.0581 40.2166 27.0664 40.0728 27.0664ZM46.6055 27.1577C45.7533 27.1577 45.02 26.9696 44.4058 26.5933C43.797 26.217 43.3267 25.6857 42.9946 24.9995C42.6681 24.3078 42.5049 23.4943 42.5049 22.5591V22.5508C42.5049 21.6266 42.6681 20.8159 42.9946 20.1187C43.3267 19.4214 43.7943 18.8763 44.3975 18.4834C45.0007 18.0905 45.7062 17.894 46.5142 17.894C47.3276 17.894 48.0249 18.0822 48.606 18.4585C49.1925 18.8348 49.6408 19.3605 49.9507 20.0356C50.2661 20.7052 50.4238 21.4855 50.4238 22.3765V22.9409H43.252V21.7871H49.6851L48.9712 22.8413V22.2686C48.9712 21.5658 48.866 20.9875 48.6558 20.5337C48.4455 20.0799 48.1549 19.7424 47.7842 19.521C47.4134 19.2941 46.9873 19.1807 46.5059 19.1807C46.0244 19.1807 45.5928 19.2996 45.2109 19.5376C44.8346 19.77 44.5358 20.1159 44.3145 20.5752C44.0931 21.0345 43.9824 21.599 43.9824 22.2686V22.8413C43.9824 23.4777 44.0903 24.0228 44.3062 24.4766C44.522 24.9248 44.8291 25.2707 45.2275 25.5142C45.626 25.7521 46.0964 25.8711 46.6387 25.8711C47.0426 25.8711 47.394 25.8158 47.6929 25.7051C47.9917 25.5944 48.238 25.4533 48.4316 25.2817C48.6253 25.1102 48.7609 24.9359 48.8384 24.7588L48.8716 24.6841H50.3159L50.2993 24.7505C50.2218 25.0549 50.0835 25.3509 49.8843 25.6387C49.6906 25.9209 49.4388 26.1782 49.1289 26.4106C48.819 26.6375 48.451 26.8201 48.0249 26.9585C47.6043 27.0913 47.1312 27.1577 46.6055 27.1577ZM56.3506 30.1543C55.6312 30.1543 55.0031 30.0519 54.4663 29.8472C53.9295 29.6479 53.5007 29.363 53.1797 28.9922C52.8643 28.627 52.6678 28.2008 52.5903 27.7139L52.6069 27.7056H54.1011L54.1094 27.7139C54.1868 28.0514 54.4193 28.3281 54.8066 28.5439C55.194 28.7653 55.7087 28.876 56.3506 28.876C57.153 28.876 57.7783 28.6934 58.2266 28.3281C58.6803 27.9684 58.9072 27.4593 58.9072 26.8008V24.9912H58.7744C58.5863 25.3177 58.3511 25.5972 58.0688 25.8296C57.7866 26.062 57.4684 26.2391 57.1143 26.3608C56.7601 26.4771 56.3783 26.5352 55.9688 26.5352C55.1995 26.5352 54.5327 26.3525 53.9683 25.9873C53.4093 25.6165 52.9777 25.1074 52.6733 24.46C52.369 23.8125 52.2168 23.071 52.2168 22.2354V22.2188C52.2168 21.3831 52.369 20.6416 52.6733 19.9941C52.9832 19.3411 53.4204 18.8293 53.9849 18.4585C54.5493 18.0822 55.2217 17.894 56.002 17.894C56.4225 17.894 56.8099 17.9604 57.1641 18.0933C57.5182 18.2261 57.8309 18.4142 58.1021 18.6577C58.3787 18.9012 58.6084 19.1917 58.791 19.5293H58.8906V18.0518H60.335V26.8755C60.335 27.5396 60.1717 28.1178 59.8452 28.6104C59.5243 29.1029 59.0649 29.4819 58.4673 29.7476C57.8696 30.0187 57.1641 30.1543 56.3506 30.1543ZM56.2842 25.2568C56.8376 25.2568 57.3107 25.1296 57.7036 24.875C58.1021 24.6149 58.4064 24.258 58.6167 23.8042C58.8325 23.3504 58.9404 22.8275 58.9404 22.2354V22.2188C58.9404 21.6266 58.8325 21.1009 58.6167 20.6416C58.4064 20.1823 58.1021 19.8226 57.7036 19.5625C57.3107 19.3024 56.8376 19.1724 56.2842 19.1724C55.7308 19.1724 55.2604 19.3024 54.873 19.5625C54.4912 19.8226 54.1979 20.1823 53.9932 20.6416C53.7939 21.1009 53.6943 21.6266 53.6943 22.2188V22.2354C53.6943 22.8275 53.7939 23.3504 53.9932 23.8042C54.1979 24.258 54.4912 24.6149 54.873 24.875C55.2604 25.1296 55.7308 25.2568 56.2842 25.2568ZM66.7017 27.1577C65.855 27.1577 65.1217 26.9723 64.502 26.6016C63.8877 26.2253 63.4118 25.6912 63.0742 24.9995C62.7422 24.3078 62.5762 23.486 62.5762 22.5342V22.5176C62.5762 21.5602 62.7422 20.7357 63.0742 20.0439C63.4118 19.3522 63.8877 18.821 64.502 18.4502C65.1217 18.0794 65.855 17.894 66.7017 17.894C67.5539 17.894 68.2871 18.0794 68.9014 18.4502C69.5156 18.821 69.9888 19.3522 70.3208 20.0439C70.6584 20.7357 70.8271 21.5602 70.8271 22.5176V22.5342C70.8271 23.486 70.6584 24.3078 70.3208 24.9995C69.9888 25.6912 69.5156 26.2253 68.9014 26.6016C68.2871 26.9723 67.5539 27.1577 66.7017 27.1577ZM66.7017 25.8794C67.2661 25.8794 67.7448 25.7466 68.1377 25.481C68.5306 25.2153 68.8294 24.8335 69.0342 24.3354C69.2445 23.8374 69.3496 23.237 69.3496 22.5342V22.5176C69.3496 21.8092 69.2445 21.2061 69.0342 20.708C68.8294 20.21 68.5306 19.8309 68.1377 19.5708C67.7448 19.3052 67.2661 19.1724 66.7017 19.1724C66.1372 19.1724 65.6585 19.3052 65.2656 19.5708C64.8727 19.8309 64.5711 20.21 64.3608 20.708C64.1561 21.2061 64.0537 21.8092 64.0537 22.5176V22.5342C64.0537 23.237 64.1561 23.8374 64.3608 24.3354C64.5711 24.8335 64.8727 25.2153 65.2656 25.481C65.6585 25.7466 66.1372 25.8794 66.7017 25.8794ZM73.0684 27V18.0518H74.5127V19.3799H74.6455C74.8171 18.9095 75.1076 18.5443 75.5171 18.2842C75.9266 18.0241 76.4329 17.894 77.0361 17.894C77.1745 17.894 77.3101 17.9023 77.4429 17.9189C77.5812 17.93 77.6864 17.9411 77.7583 17.9521V19.355C77.6089 19.3273 77.4622 19.3079 77.3184 19.2969C77.18 19.2803 77.0306 19.272 76.8701 19.272C76.4108 19.272 76.0041 19.3633 75.6499 19.5459C75.2957 19.7285 75.0163 19.9831 74.8115 20.3096C74.6123 20.6361 74.5127 21.0179 74.5127 21.4551V27H73.0684ZM79.5762 27V18.0518H81.0205V27H79.5762ZM80.3066 16.3252C80.0355 16.3252 79.8003 16.2284 79.6011 16.0347C79.4074 15.8354 79.3105 15.6003 79.3105 15.3291C79.3105 15.0524 79.4074 14.8172 79.6011 14.6235C79.8003 14.4299 80.0355 14.333 80.3066 14.333C80.5833 14.333 80.8185 14.4299 81.0122 14.6235C81.2059 14.8172 81.3027 15.0524 81.3027 15.3291C81.3027 15.6003 81.2059 15.8354 81.0122 16.0347C80.8185 16.2284 80.5833 16.3252 80.3066 16.3252ZM83.5356 27V25.9541L88.6987 19.3799V19.2471H83.5439V18.0518H90.4004V19.1226L85.2622 25.6719V25.8047H90.4253V27H83.5356ZM96.3105 27.1577C95.4583 27.1577 94.7251 26.9696 94.1108 26.5933C93.5021 26.217 93.0317 25.6857 92.6997 24.9995C92.3732 24.3078 92.21 23.4943 92.21 22.5591V22.5508C92.21 21.6266 92.3732 20.8159 92.6997 20.1187C93.0317 19.4214 93.4993 18.8763 94.1025 18.4834C94.7057 18.0905 95.4113 17.894 96.2192 17.894C97.0327 17.894 97.73 18.0822 98.311 18.4585C98.8976 18.8348 99.3459 19.3605 99.6558 20.0356C99.9712 20.7052 100.129 21.4855 100.129 22.3765V22.9409H92.957V21.7871H99.3901L98.6763 22.8413V22.2686C98.6763 21.5658 98.5711 20.9875 98.3608 20.5337C98.1506 20.0799 97.86 19.7424 97.4893 19.521C97.1185 19.2941 96.6924 19.1807 96.2109 19.1807C95.7295 19.1807 95.2979 19.2996 94.916 19.5376C94.5397 19.77 94.2409 20.1159 94.0195 20.5752C93.7982 21.0345 93.6875 21.599 93.6875 22.2686V22.8413C93.6875 23.4777 93.7954 24.0228 94.0112 24.4766C94.2271 24.9248 94.5342 25.2707 94.9326 25.5142C95.3311 25.7521 95.8014 25.8711 96.3438 25.8711C96.7477 25.8711 97.0991 25.8158 97.3979 25.7051C97.6968 25.5944 97.943 25.4533 98.1367 25.2817C98.3304 25.1102 98.466 24.9359 98.5435 24.7588L98.5767 24.6841H100.021L100.004 24.7505C99.9269 25.0549 99.7886 25.3509 99.5894 25.6387C99.3957 25.9209 99.1439 26.1782 98.834 26.4106C98.5241 26.6375 98.1561 26.8201 97.73 26.9585C97.3094 27.0913 96.8363 27.1577 96.3105 27.1577ZM107.915 30.1377C107.821 30.1377 107.716 30.1322 107.6 30.1211C107.483 30.1156 107.375 30.1045 107.276 30.0879V28.9009C107.364 28.9175 107.461 28.9285 107.566 28.9341C107.672 28.9396 107.774 28.9424 107.874 28.9424C108.283 28.9424 108.618 28.8372 108.878 28.627C109.144 28.4167 109.357 28.0542 109.517 27.5396L109.683 27.0083L106.371 18.0518H107.915L110.671 26.3193L110.098 25.4146H110.779L110.206 26.3193L112.954 18.0518H114.473L110.978 27.5479C110.735 28.2174 110.477 28.7404 110.206 29.1167C109.935 29.493 109.617 29.7559 109.251 29.9053C108.892 30.0602 108.446 30.1377 107.915 30.1377ZM119.727 27.1577C118.88 27.1577 118.147 26.9723 117.527 26.6016C116.913 26.2253 116.437 25.6912 116.1 24.9995C115.768 24.3078 115.602 23.486 115.602 22.5342V22.5176C115.602 21.5602 115.768 20.7357 116.1 20.0439C116.437 19.3522 116.913 18.821 117.527 18.4502C118.147 18.0794 118.88 17.894 119.727 17.894C120.579 17.894 121.312 18.0794 121.927 18.4502C122.541 18.821 123.014 19.3522 123.346 20.0439C123.684 20.7357 123.853 21.5602 123.853 22.5176V22.5342C123.853 23.486 123.684 24.3078 123.346 24.9995C123.014 25.6912 122.541 26.2253 121.927 26.6016C121.312 26.9723 120.579 27.1577 119.727 27.1577ZM119.727 25.8794C120.292 25.8794 120.77 25.7466 121.163 25.481C121.556 25.2153 121.855 24.8335 122.06 24.3354C122.27 23.8374 122.375 23.237 122.375 22.5342V22.5176C122.375 21.8092 122.27 21.2061 122.06 20.708C121.855 20.21 121.556 19.8309 121.163 19.5708C120.77 19.3052 120.292 19.1724 119.727 19.1724C119.163 19.1724 118.684 19.3052 118.291 19.5708C117.898 19.8309 117.597 20.21 117.386 20.708C117.181 21.2061 117.079 21.8092 117.079 22.5176V22.5342C117.079 23.237 117.181 23.8374 117.386 24.3354C117.597 24.8335 117.898 25.2153 118.291 25.481C118.684 25.7466 119.163 25.8794 119.727 25.8794ZM129.09 27.1577C128.415 27.1577 127.848 27.0304 127.389 26.7759C126.929 26.5158 126.583 26.1395 126.351 25.647C126.124 25.1489 126.011 24.5485 126.011 23.8457V18.0518H127.455V23.4971C127.455 24.2995 127.61 24.8971 127.92 25.29C128.235 25.6829 128.75 25.8794 129.464 25.8794C129.857 25.8794 130.203 25.8213 130.501 25.7051C130.806 25.5889 131.06 25.4229 131.265 25.207C131.47 24.9857 131.622 24.7201 131.722 24.4102C131.827 24.0947 131.879 23.7406 131.879 23.3477V18.0518H133.324V27H131.879V25.6636H131.747C131.603 25.979 131.406 26.2502 131.157 26.4771C130.908 26.6984 130.609 26.8672 130.261 26.9834C129.918 27.0996 129.528 27.1577 129.09 27.1577ZM136.021 27V18.0518H137.466V19.3799H137.599C137.77 18.9095 138.061 18.5443 138.47 18.2842C138.88 18.0241 139.386 17.894 139.989 17.894C140.128 17.894 140.263 17.9023 140.396 17.9189C140.534 17.93 140.639 17.9411 140.711 17.9521V19.355C140.562 19.3273 140.415 19.3079 140.271 19.2969C140.133 19.2803 139.984 19.272 139.823 19.272C139.364 19.272 138.957 19.3633 138.603 19.5459C138.249 19.7285 137.969 19.9831 137.765 20.3096C137.565 20.6361 137.466 21.0179 137.466 21.4551V27H136.021ZM147.36 27V14.499H148.805V19.3965H148.938C149.164 18.9206 149.491 18.5526 149.917 18.2925C150.343 18.0269 150.885 17.894 151.544 17.894C152.214 17.894 152.781 18.0241 153.246 18.2842C153.71 18.5387 154.065 18.9123 154.308 19.4048C154.552 19.8973 154.673 20.4977 154.673 21.2061V27H153.229V21.5547C153.229 20.7467 153.057 20.1491 152.714 19.7617C152.377 19.3688 151.851 19.1724 151.137 19.1724C150.661 19.1724 150.249 19.2747 149.9 19.4795C149.552 19.6842 149.281 19.9748 149.087 20.3511C148.899 20.7274 148.805 21.1784 148.805 21.7041V27H147.36ZM159.745 27.1577C159.181 27.1577 158.672 27.0498 158.218 26.834C157.77 26.6182 157.413 26.311 157.147 25.9126C156.887 25.5142 156.757 25.0438 156.757 24.5015V24.4849C156.757 23.9536 156.884 23.4998 157.139 23.1235C157.393 22.7417 157.764 22.4429 158.251 22.2271C158.738 22.0112 159.327 21.884 160.019 21.8452L163.306 21.646V22.7998L160.193 22.999C159.513 23.0378 159.015 23.1789 158.699 23.4224C158.389 23.6659 158.234 24.009 158.234 24.4517V24.4683C158.234 24.922 158.406 25.2762 158.749 25.5308C159.092 25.7798 159.524 25.9043 160.044 25.9043C160.536 25.9043 160.974 25.8075 161.355 25.6138C161.737 25.4146 162.036 25.1462 162.252 24.8086C162.473 24.471 162.584 24.0892 162.584 23.6631V20.874C162.584 20.3206 162.415 19.9001 162.078 19.6123C161.746 19.319 161.245 19.1724 160.575 19.1724C160.038 19.1724 159.598 19.2692 159.255 19.4629C158.912 19.651 158.683 19.9194 158.566 20.2681L158.558 20.293H157.114L157.122 20.2432C157.2 19.7728 157.393 19.3633 157.703 19.0146C158.019 18.6605 158.425 18.3866 158.923 18.1929C159.421 17.9937 159.989 17.894 160.625 17.894C161.355 17.894 161.972 18.013 162.476 18.251C162.985 18.4889 163.37 18.832 163.63 19.2803C163.896 19.723 164.028 20.2542 164.028 20.874V27H162.584V25.6802H162.451C162.263 25.9956 162.033 26.264 161.762 26.4854C161.497 26.7067 161.195 26.8755 160.857 26.9917C160.52 27.1024 160.149 27.1577 159.745 27.1577ZM171.117 27.1577C170.702 27.1577 170.318 27.0941 169.963 26.9668C169.609 26.8395 169.294 26.6597 169.017 26.4272C168.74 26.1893 168.511 25.9043 168.328 25.5723H168.195V27H166.751V14.499H168.195V19.4629H168.328C168.494 19.1419 168.715 18.8652 168.992 18.6328C169.274 18.4004 169.595 18.2205 169.955 18.0933C170.32 17.9604 170.708 17.894 171.117 17.894C171.875 17.894 172.534 18.085 173.093 18.4668C173.657 18.8486 174.094 19.3854 174.404 20.0771C174.714 20.7689 174.869 21.5824 174.869 22.5176V22.5342C174.869 23.4639 174.714 24.2773 174.404 24.9746C174.094 25.6663 173.657 26.2031 173.093 26.585C172.534 26.9668 171.875 27.1577 171.117 27.1577ZM170.785 25.8794C171.333 25.8794 171.801 25.7466 172.188 25.481C172.575 25.2098 172.871 24.8252 173.076 24.3271C173.286 23.8236 173.392 23.2259 173.392 22.5342V22.5176C173.392 21.8203 173.286 21.2227 173.076 20.7246C172.871 20.2266 172.575 19.8447 172.188 19.5791C171.801 19.3079 171.333 19.1724 170.785 19.1724C170.243 19.1724 169.775 19.3079 169.382 19.5791C168.989 19.8503 168.688 20.2349 168.478 20.7329C168.267 21.231 168.162 21.8258 168.162 22.5176V22.5342C168.162 23.2204 168.267 23.8153 168.478 24.3188C168.688 24.8169 168.989 25.2015 169.382 25.4727C169.775 25.7438 170.243 25.8794 170.785 25.8794ZM177.144 27V18.0518H178.588V27H177.144ZM177.874 16.3252C177.603 16.3252 177.368 16.2284 177.168 16.0347C176.975 15.8354 176.878 15.6003 176.878 15.3291C176.878 15.0524 176.975 14.8172 177.168 14.6235C177.368 14.4299 177.603 14.333 177.874 14.333C178.151 14.333 178.386 14.4299 178.58 14.6235C178.773 14.8172 178.87 15.0524 178.87 15.3291C178.87 15.6003 178.773 15.8354 178.58 16.0347C178.386 16.2284 178.151 16.3252 177.874 16.3252ZM184.49 27.0664C183.571 27.0664 182.904 26.881 182.489 26.5103C182.08 26.1395 181.875 25.528 181.875 24.6758V19.2471H180.464V18.0518H181.875V15.7358H183.369V18.0518H185.328V19.2471H183.369V24.3105C183.369 24.8363 183.469 25.2153 183.668 25.4478C183.867 25.6746 184.199 25.7881 184.664 25.7881C184.791 25.7881 184.899 25.7853 184.988 25.7798C185.082 25.7743 185.195 25.766 185.328 25.7549V26.9834C185.19 27.0055 185.051 27.0249 184.913 27.0415C184.775 27.0581 184.634 27.0664 184.49 27.0664ZM190.392 27.1577C189.728 27.1577 189.141 27.0581 188.632 26.8589C188.123 26.6541 187.713 26.3691 187.403 26.0039C187.099 25.6387 186.919 25.2098 186.864 24.7173H188.341C188.463 25.0881 188.701 25.3869 189.055 25.6138C189.409 25.8407 189.871 25.9541 190.441 25.9541C190.845 25.9541 191.2 25.896 191.504 25.7798C191.814 25.658 192.057 25.4948 192.234 25.29C192.411 25.0798 192.5 24.839 192.5 24.5679V24.5513C192.5 24.2469 192.378 23.9896 192.135 23.7793C191.891 23.5635 191.493 23.3892 190.939 23.2563L189.553 22.9243C188.994 22.7915 188.535 22.62 188.175 22.4097C187.816 22.1938 187.55 21.931 187.378 21.6211C187.207 21.3057 187.121 20.9349 187.121 20.5088V20.5005C187.121 20.0024 187.265 19.557 187.553 19.1641C187.846 18.7712 188.244 18.4613 188.748 18.2344C189.252 18.0075 189.819 17.894 190.45 17.894C191.075 17.894 191.628 17.9937 192.11 18.1929C192.597 18.3866 192.987 18.6632 193.28 19.0229C193.579 19.3826 193.762 19.806 193.828 20.293H192.409C192.315 19.9388 192.099 19.651 191.761 19.4297C191.424 19.2083 190.984 19.0977 190.441 19.0977C190.087 19.0977 189.772 19.1558 189.495 19.272C189.218 19.3826 189 19.5376 188.839 19.7368C188.679 19.936 188.599 20.1685 188.599 20.4341V20.4507C188.599 20.6499 188.651 20.827 188.756 20.9819C188.861 21.1369 189.025 21.2725 189.246 21.3887C189.467 21.5049 189.752 21.6073 190.101 21.6958L191.479 22.0278C192.32 22.2326 192.945 22.5259 193.355 22.9077C193.77 23.2896 193.978 23.8014 193.978 24.4434V24.46C193.978 24.9912 193.82 25.4616 193.504 25.8711C193.189 26.2751 192.76 26.5905 192.218 26.8174C191.681 27.0443 191.072 27.1577 190.392 27.1577ZM205.449 27.1577C205.034 27.1577 204.65 27.0941 204.295 26.9668C203.941 26.8395 203.626 26.6597 203.349 26.4272C203.072 26.1893 202.843 25.9043 202.66 25.5723H202.527V27H201.083V14.499H202.527V19.4629H202.66C202.826 19.1419 203.048 18.8652 203.324 18.6328C203.606 18.4004 203.927 18.2205 204.287 18.0933C204.652 17.9604 205.04 17.894 205.449 17.894C206.207 17.894 206.866 18.085 207.425 18.4668C207.989 18.8486 208.426 19.3854 208.736 20.0771C209.046 20.7689 209.201 21.5824 209.201 22.5176V22.5342C209.201 23.4639 209.046 24.2773 208.736 24.9746C208.426 25.6663 207.989 26.2031 207.425 26.585C206.866 26.9668 206.207 27.1577 205.449 27.1577ZM205.117 25.8794C205.665 25.8794 206.133 25.7466 206.52 25.481C206.907 25.2098 207.203 24.8252 207.408 24.3271C207.618 23.8236 207.724 23.2259 207.724 22.5342V22.5176C207.724 21.8203 207.618 21.2227 207.408 20.7246C207.203 20.2266 206.907 19.8447 206.52 19.5791C206.133 19.3079 205.665 19.1724 205.117 19.1724C204.575 19.1724 204.107 19.3079 203.714 19.5791C203.321 19.8503 203.02 20.2349 202.81 20.7329C202.599 21.231 202.494 21.8258 202.494 22.5176V22.5342C202.494 23.2204 202.599 23.8153 202.81 24.3188C203.02 24.8169 203.321 25.2015 203.714 25.4727C204.107 25.7438 204.575 25.8794 205.117 25.8794ZM213.899 27.1577C213.335 27.1577 212.826 27.0498 212.372 26.834C211.924 26.6182 211.567 26.311 211.301 25.9126C211.041 25.5142 210.911 25.0438 210.911 24.5015V24.4849C210.911 23.9536 211.038 23.4998 211.293 23.1235C211.548 22.7417 211.918 22.4429 212.405 22.2271C212.892 22.0112 213.482 21.884 214.173 21.8452L217.46 21.646V22.7998L214.348 22.999C213.667 23.0378 213.169 23.1789 212.854 23.4224C212.544 23.6659 212.389 24.009 212.389 24.4517V24.4683C212.389 24.922 212.56 25.2762 212.903 25.5308C213.246 25.7798 213.678 25.9043 214.198 25.9043C214.691 25.9043 215.128 25.8075 215.51 25.6138C215.892 25.4146 216.19 25.1462 216.406 24.8086C216.628 24.471 216.738 24.0892 216.738 23.6631V20.874C216.738 20.3206 216.569 19.9001 216.232 19.6123C215.9 19.319 215.399 19.1724 214.729 19.1724C214.193 19.1724 213.753 19.2692 213.41 19.4629C213.067 19.651 212.837 19.9194 212.721 20.2681L212.712 20.293H211.268L211.276 20.2432C211.354 19.7728 211.548 19.3633 211.857 19.0146C212.173 18.6605 212.58 18.3866 213.078 18.1929C213.576 17.9937 214.143 17.894 214.779 17.894C215.51 17.894 216.127 18.013 216.63 18.251C217.139 18.4889 217.524 18.832 217.784 19.2803C218.05 19.723 218.183 20.2542 218.183 20.874V27H216.738V25.6802H216.605C216.417 25.9956 216.188 26.264 215.917 26.4854C215.651 26.7067 215.349 26.8755 215.012 26.9917C214.674 27.1024 214.303 27.1577 213.899 27.1577ZM223.894 27.1577C223.229 27.1577 222.643 27.0581 222.134 26.8589C221.625 26.6541 221.215 26.3691 220.905 26.0039C220.601 25.6387 220.421 25.2098 220.366 24.7173H221.843C221.965 25.0881 222.203 25.3869 222.557 25.6138C222.911 25.8407 223.373 25.9541 223.943 25.9541C224.347 25.9541 224.701 25.896 225.006 25.7798C225.316 25.658 225.559 25.4948 225.736 25.29C225.913 25.0798 226.002 24.839 226.002 24.5679V24.5513C226.002 24.2469 225.88 23.9896 225.637 23.7793C225.393 23.5635 224.995 23.3892 224.441 23.2563L223.055 22.9243C222.496 22.7915 222.037 22.62 221.677 22.4097C221.318 22.1938 221.052 21.931 220.88 21.6211C220.709 21.3057 220.623 20.9349 220.623 20.5088V20.5005C220.623 20.0024 220.767 19.557 221.055 19.1641C221.348 18.7712 221.746 18.4613 222.25 18.2344C222.754 18.0075 223.321 17.894 223.952 17.894C224.577 17.894 225.13 17.9937 225.612 18.1929C226.099 18.3866 226.489 18.6632 226.782 19.0229C227.081 19.3826 227.264 19.806 227.33 20.293H225.911C225.817 19.9388 225.601 19.651 225.263 19.4297C224.926 19.2083 224.486 19.0977 223.943 19.0977C223.589 19.0977 223.274 19.1558 222.997 19.272C222.72 19.3826 222.502 19.5376 222.341 19.7368C222.181 19.936 222.101 20.1685 222.101 20.4341V20.4507C222.101 20.6499 222.153 20.827 222.258 20.9819C222.363 21.1369 222.527 21.2725 222.748 21.3887C222.969 21.5049 223.254 21.6073 223.603 21.6958L224.981 22.0278C225.822 22.2326 226.447 22.5259 226.857 22.9077C227.272 23.2896 227.479 23.8014 227.479 24.4434V24.46C227.479 24.9912 227.322 25.4616 227.006 25.8711C226.691 26.2751 226.262 26.5905 225.72 26.8174C225.183 27.0443 224.574 27.1577 223.894 27.1577ZM233.373 27.1577C232.521 27.1577 231.788 26.9696 231.173 26.5933C230.565 26.217 230.094 25.6857 229.762 24.9995C229.436 24.3078 229.272 23.4943 229.272 22.5591V22.5508C229.272 21.6266 229.436 20.8159 229.762 20.1187C230.094 19.4214 230.562 18.8763 231.165 18.4834C231.768 18.0905 232.474 17.894 233.282 17.894C234.095 17.894 234.792 18.0822 235.374 18.4585C235.96 18.8348 236.408 19.3605 236.718 20.0356C237.034 20.7052 237.191 21.4855 237.191 22.3765V22.9409H230.02V21.7871H236.453L235.739 22.8413V22.2686C235.739 21.5658 235.634 20.9875 235.423 20.5337C235.213 20.0799 234.923 19.7424 234.552 19.521C234.181 19.2941 233.755 19.1807 233.273 19.1807C232.792 19.1807 232.36 19.2996 231.979 19.5376C231.602 19.77 231.303 20.1159 231.082 20.5752C230.861 21.0345 230.75 21.599 230.75 22.2686V22.8413C230.75 23.4777 230.858 24.0228 231.074 24.4766C231.29 24.9248 231.597 25.2707 231.995 25.5142C232.394 25.7521 232.864 25.8711 233.406 25.8711C233.81 25.8711 234.162 25.8158 234.46 25.7051C234.759 25.5944 235.006 25.4533 235.199 25.2817C235.393 25.1102 235.528 24.9359 235.606 24.7588L235.639 24.6841H237.083L237.067 24.7505C236.989 25.0549 236.851 25.3509 236.652 25.6387C236.458 25.9209 236.206 26.1782 235.896 26.4106C235.587 26.6375 235.219 26.8201 234.792 26.9585C234.372 27.0913 233.899 27.1577 233.373 27.1577ZM242.736 27.1577C241.984 27.1577 241.325 26.9668 240.761 26.585C240.196 26.2031 239.759 25.6663 239.449 24.9746C239.139 24.2773 238.984 23.4639 238.984 22.5342V22.5176C238.984 21.5824 239.139 20.7689 239.449 20.0771C239.759 19.3854 240.194 18.8486 240.752 18.4668C241.317 18.085 241.978 17.894 242.736 17.894C243.146 17.894 243.53 17.9604 243.89 18.0933C244.255 18.2205 244.579 18.4004 244.861 18.6328C245.144 18.8652 245.365 19.1419 245.525 19.4629H245.658V14.499H247.103V27H245.658V25.5723H245.525C245.343 25.9043 245.113 26.1893 244.836 26.4272C244.56 26.6597 244.244 26.8395 243.89 26.9668C243.536 27.0941 243.151 27.1577 242.736 27.1577ZM243.068 25.8794C243.611 25.8794 244.078 25.7438 244.471 25.4727C244.864 25.2015 245.166 24.8169 245.376 24.3188C245.586 23.8153 245.691 23.2204 245.691 22.5342V22.5176C245.691 21.8258 245.586 21.231 245.376 20.7329C245.166 20.2349 244.864 19.8503 244.471 19.5791C244.078 19.3079 243.611 19.1724 243.068 19.1724C242.526 19.1724 242.058 19.3079 241.666 19.5791C241.278 19.8447 240.979 20.2266 240.769 20.7246C240.564 21.2227 240.462 21.8203 240.462 22.5176V22.5342C240.462 23.2259 240.564 23.8236 240.769 24.3271C240.979 24.8252 241.278 25.2098 241.666 25.481C242.058 25.7466 242.526 25.8794 243.068 25.8794ZM258.333 27.1577C257.487 27.1577 256.754 26.9723 256.134 26.6016C255.52 26.2253 255.044 25.6912 254.706 24.9995C254.374 24.3078 254.208 23.486 254.208 22.5342V22.5176C254.208 21.5602 254.374 20.7357 254.706 20.0439C255.044 19.3522 255.52 18.821 256.134 18.4502C256.754 18.0794 257.487 17.894 258.333 17.894C259.186 17.894 259.919 18.0794 260.533 18.4502C261.147 18.821 261.621 19.3522 261.953 20.0439C262.29 20.7357 262.459 21.5602 262.459 22.5176V22.5342C262.459 23.486 262.29 24.3078 261.953 24.9995C261.621 25.6912 261.147 26.2253 260.533 26.6016C259.919 26.9723 259.186 27.1577 258.333 27.1577ZM258.333 25.8794C258.898 25.8794 259.377 25.7466 259.77 25.481C260.162 25.2153 260.461 24.8335 260.666 24.3354C260.876 23.8374 260.981 23.237 260.981 22.5342V22.5176C260.981 21.8092 260.876 21.2061 260.666 20.708C260.461 20.21 260.162 19.8309 259.77 19.5708C259.377 19.3052 258.898 19.1724 258.333 19.1724C257.769 19.1724 257.29 19.3052 256.897 19.5708C256.505 19.8309 256.203 20.21 255.993 20.708C255.788 21.2061 255.686 21.8092 255.686 22.5176V22.5342C255.686 23.237 255.788 23.8374 255.993 24.3354C256.203 24.8335 256.505 25.2153 256.897 25.481C257.29 25.7466 257.769 25.8794 258.333 25.8794ZM264.7 27V18.0518H266.145V19.3965H266.277C266.504 18.9206 266.831 18.5526 267.257 18.2925C267.683 18.0269 268.225 17.894 268.884 17.894C269.891 17.894 270.663 18.1818 271.2 18.7573C271.742 19.3273 272.013 20.1436 272.013 21.2061V27H270.569V21.5547C270.569 20.7467 270.397 20.1491 270.054 19.7617C269.717 19.3688 269.191 19.1724 268.477 19.1724C268.001 19.1724 267.589 19.2747 267.24 19.4795C266.892 19.6842 266.62 19.9748 266.427 20.3511C266.239 20.7274 266.145 21.1784 266.145 21.7041V27H264.7ZM18.5239 47.0664C17.6053 47.0664 16.9385 46.881 16.5234 46.5103C16.1139 46.1395 15.9092 45.528 15.9092 44.6758V39.2471H14.498V38.0518H15.9092V35.7358H17.4033V38.0518H19.3623V39.2471H17.4033V44.3105C17.4033 44.8363 17.5029 45.2153 17.7021 45.4478C17.9014 45.6746 18.2334 45.7881 18.6982 45.7881C18.8255 45.7881 18.9334 45.7853 19.022 45.7798C19.116 45.7743 19.2295 45.766 19.3623 45.7549V46.9834C19.224 47.0055 19.0856 47.0249 18.9473 47.0415C18.8089 47.0581 18.6678 47.0664 18.5239 47.0664ZM21.6035 47V34.499H23.0479V39.3965H23.1807C23.4076 38.9206 23.734 38.5526 24.1602 38.2925C24.5863 38.0269 25.1286 37.894 25.7871 37.894C26.4567 37.894 27.0239 38.0241 27.4888 38.2842C27.9536 38.5387 28.3078 38.9123 28.5513 39.4048C28.7948 39.8973 28.9165 40.4977 28.9165 41.2061V47H27.4722V41.5547C27.4722 40.7467 27.3006 40.1491 26.9575 39.7617C26.62 39.3688 26.0942 39.1724 25.3804 39.1724C24.9045 39.1724 24.4922 39.2747 24.1436 39.4795C23.7949 39.6842 23.5238 39.9748 23.3301 40.3511C23.1419 40.7274 23.0479 41.1784 23.0479 41.7041V47H21.6035ZM35.1836 47.1577C34.3314 47.1577 33.5981 46.9696 32.9839 46.5933C32.3752 46.217 31.9048 45.6857 31.5728 44.9995C31.2463 44.3078 31.083 43.4943 31.083 42.5591V42.5508C31.083 41.6266 31.2463 40.8159 31.5728 40.1187C31.9048 39.4214 32.3724 38.8763 32.9756 38.4834C33.5788 38.0905 34.2843 37.894 35.0923 37.894C35.9058 37.894 36.603 38.0822 37.1841 38.4585C37.7707 38.8348 38.2189 39.3605 38.5288 40.0356C38.8442 40.7052 39.002 41.4855 39.002 42.3765V42.9409H31.8301V41.7871H38.2632L37.5493 42.8413V42.2686C37.5493 41.5658 37.4442 40.9875 37.2339 40.5337C37.0236 40.0799 36.7331 39.7424 36.3623 39.521C35.9915 39.2941 35.5654 39.1807 35.084 39.1807C34.6025 39.1807 34.1709 39.2996 33.7891 39.5376C33.4128 39.77 33.1139 40.1159 32.8926 40.5752C32.6712 41.0345 32.5605 41.599 32.5605 42.2686V42.8413C32.5605 43.4777 32.6685 44.0228 32.8843 44.4766C33.1001 44.9248 33.4072 45.2707 33.8057 45.5142C34.2041 45.7521 34.6745 45.8711 35.2168 45.8711C35.6208 45.8711 35.9722 45.8158 36.271 45.7051C36.5698 45.5944 36.8161 45.4533 37.0098 45.2817C37.2035 45.1102 37.339 44.9359 37.4165 44.7588L37.4497 44.6841H38.894L38.8774 44.7505C38.8 45.0549 38.6616 45.3509 38.4624 45.6387C38.2687 45.9209 38.0169 46.1782 37.707 46.4106C37.3971 46.6375 37.0291 46.8201 36.603 46.9585C36.1825 47.0913 35.7093 47.1577 35.1836 47.1577ZM49.6851 47.1577C48.8494 47.1577 48.1245 46.9668 47.5103 46.585C46.896 46.2031 46.4201 45.6636 46.0825 44.9663C45.745 44.269 45.5762 43.4473 45.5762 42.501V42.4844C45.5762 41.5547 45.7422 40.7467 46.0742 40.0605C46.4118 39.3743 46.8877 38.8431 47.502 38.4668C48.1162 38.085 48.8411 37.894 49.6768 37.894C50.4017 37.894 51.027 38.0213 51.5527 38.2759C52.0785 38.5304 52.499 38.8735 52.8145 39.3052C53.1299 39.7313 53.3319 40.21 53.4204 40.7412L53.4287 40.791H51.9927L51.9844 40.7661C51.8737 40.3234 51.6219 39.9471 51.229 39.6372C50.8361 39.3273 50.3187 39.1724 49.6768 39.1724C49.14 39.1724 48.6751 39.3079 48.2822 39.5791C47.8893 39.8503 47.585 40.2349 47.3691 40.7329C47.1589 41.2254 47.0537 41.8092 47.0537 42.4844V42.501C47.0537 43.1872 47.1616 43.7848 47.3774 44.2939C47.5933 44.7975 47.8976 45.1877 48.2905 45.4644C48.6834 45.741 49.1455 45.8794 49.6768 45.8794C50.2799 45.8794 50.7725 45.7493 51.1543 45.4893C51.5361 45.2292 51.8101 44.8501 51.9761 44.3521L51.9927 44.3022L53.4204 44.2939L53.4038 44.3853C53.2821 44.922 53.0662 45.4007 52.7563 45.8213C52.4465 46.2363 52.0369 46.5628 51.5278 46.8008C51.0187 47.0387 50.4045 47.1577 49.6851 47.1577ZM59.2144 47.1577C58.3677 47.1577 57.6344 46.9723 57.0146 46.6016C56.4004 46.2253 55.9245 45.6912 55.5869 44.9995C55.2549 44.3078 55.0889 43.486 55.0889 42.5342V42.5176C55.0889 41.5602 55.2549 40.7357 55.5869 40.0439C55.9245 39.3522 56.4004 38.821 57.0146 38.4502C57.6344 38.0794 58.3677 37.894 59.2144 37.894C60.0666 37.894 60.7998 38.0794 61.4141 38.4502C62.0283 38.821 62.5015 39.3522 62.8335 40.0439C63.1711 40.7357 63.3398 41.5602 63.3398 42.5176V42.5342C63.3398 43.486 63.1711 44.3078 62.8335 44.9995C62.5015 45.6912 62.0283 46.2253 61.4141 46.6016C60.7998 46.9723 60.0666 47.1577 59.2144 47.1577ZM59.2144 45.8794C59.7788 45.8794 60.2575 45.7466 60.6504 45.481C61.0433 45.2153 61.3421 44.8335 61.5469 44.3354C61.7572 43.8374 61.8623 43.237 61.8623 42.5342V42.5176C61.8623 41.8092 61.7572 41.2061 61.5469 40.708C61.3421 40.21 61.0433 39.8309 60.6504 39.5708C60.2575 39.3052 59.7788 39.1724 59.2144 39.1724C58.6499 39.1724 58.1712 39.3052 57.7783 39.5708C57.3854 39.8309 57.0838 40.21 56.8735 40.708C56.6688 41.2061 56.5664 41.8092 56.5664 42.5176V42.5342C56.5664 43.237 56.6688 43.8374 56.8735 44.3354C57.0838 44.8335 57.3854 45.2153 57.7783 45.481C58.1712 45.7466 58.6499 45.8794 59.2144 45.8794ZM65.6641 47V34.499H67.1084V47H65.6641ZM73.5581 47.1577C72.7114 47.1577 71.9782 46.9723 71.3584 46.6016C70.7441 46.2253 70.2682 45.6912 69.9307 44.9995C69.5986 44.3078 69.4326 43.486 69.4326 42.5342V42.5176C69.4326 41.5602 69.5986 40.7357 69.9307 40.0439C70.2682 39.3522 70.7441 38.821 71.3584 38.4502C71.9782 38.0794 72.7114 37.894 73.5581 37.894C74.4103 37.894 75.1436 38.0794 75.7578 38.4502C76.3721 38.821 76.8452 39.3522 77.1772 40.0439C77.5148 40.7357 77.6836 41.5602 77.6836 42.5176V42.5342C77.6836 43.486 77.5148 44.3078 77.1772 44.9995C76.8452 45.6912 76.3721 46.2253 75.7578 46.6016C75.1436 46.9723 74.4103 47.1577 73.5581 47.1577ZM73.5581 45.8794C74.1226 45.8794 74.6012 45.7466 74.9941 45.481C75.387 45.2153 75.6859 44.8335 75.8906 44.3354C76.1009 43.8374 76.2061 43.237 76.2061 42.5342V42.5176C76.2061 41.8092 76.1009 41.2061 75.8906 40.708C75.6859 40.21 75.387 39.8309 74.9941 39.5708C74.6012 39.3052 74.1226 39.1724 73.5581 39.1724C72.9937 39.1724 72.515 39.3052 72.1221 39.5708C71.7292 39.8309 71.4276 40.21 71.2173 40.708C71.0125 41.2061 70.9102 41.8092 70.9102 42.5176V42.5342C70.9102 43.237 71.0125 43.8374 71.2173 44.3354C71.4276 44.8335 71.7292 45.2153 72.1221 45.481C72.515 45.7466 72.9937 45.8794 73.5581 45.8794ZM79.9248 47V38.0518H81.3691V39.3799H81.502C81.6735 38.9095 81.964 38.5443 82.3735 38.2842C82.783 38.0241 83.2894 37.894 83.8926 37.894C84.0309 37.894 84.1665 37.9023 84.2993 37.9189C84.4377 37.93 84.5428 37.9411 84.6147 37.9521V39.355C84.4653 39.3273 84.3187 39.3079 84.1748 39.2969C84.0365 39.2803 83.887 39.272 83.7266 39.272C83.2673 39.272 82.8605 39.3633 82.5063 39.5459C82.1522 39.7285 81.8727 39.9831 81.668 40.3096C81.4688 40.6361 81.3691 41.0179 81.3691 41.4551V47H79.9248ZM94.8579 47.1577C94.0112 47.1577 93.278 46.9723 92.6582 46.6016C92.0439 46.2253 91.568 45.6912 91.2305 44.9995C90.8984 44.3078 90.7324 43.486 90.7324 42.5342V42.5176C90.7324 41.5602 90.8984 40.7357 91.2305 40.0439C91.568 39.3522 92.0439 38.821 92.6582 38.4502C93.278 38.0794 94.0112 37.894 94.8579 37.894C95.7101 37.894 96.4434 38.0794 97.0576 38.4502C97.6719 38.821 98.145 39.3522 98.4771 40.0439C98.8146 40.7357 98.9834 41.5602 98.9834 42.5176V42.5342C98.9834 43.486 98.8146 44.3078 98.4771 44.9995C98.145 45.6912 97.6719 46.2253 97.0576 46.6016C96.4434 46.9723 95.7101 47.1577 94.8579 47.1577ZM94.8579 45.8794C95.4224 45.8794 95.901 45.7466 96.2939 45.481C96.6868 45.2153 96.9857 44.8335 97.1904 44.3354C97.4007 43.8374 97.5059 43.237 97.5059 42.5342V42.5176C97.5059 41.8092 97.4007 41.2061 97.1904 40.708C96.9857 40.21 96.6868 39.8309 96.2939 39.5708C95.901 39.3052 95.4224 39.1724 94.8579 39.1724C94.2935 39.1724 93.8148 39.3052 93.4219 39.5708C93.029 39.8309 92.7274 40.21 92.5171 40.708C92.3123 41.2061 92.21 41.8092 92.21 42.5176V42.5342C92.21 43.237 92.3123 43.8374 92.5171 44.3354C92.7274 44.8335 93.029 45.2153 93.4219 45.481C93.8148 45.7466 94.2935 45.8794 94.8579 45.8794ZM101.822 47V39.2471H100.336V38.0518H101.822V37.0557C101.822 36.458 101.919 35.9655 102.113 35.5781C102.312 35.1852 102.605 34.8947 102.993 34.7065C103.38 34.5129 103.856 34.416 104.42 34.416C104.597 34.416 104.764 34.4243 104.918 34.4409C105.079 34.452 105.234 34.4714 105.383 34.499V35.6528C105.295 35.6362 105.192 35.6252 105.076 35.6196C104.96 35.6141 104.838 35.6113 104.711 35.6113C104.196 35.6113 103.826 35.7358 103.599 35.9849C103.377 36.2339 103.267 36.6047 103.267 37.0972V38.0518H105.3V39.2471H103.267V47H101.822ZM112.929 50.1377C112.835 50.1377 112.729 50.1322 112.613 50.1211C112.497 50.1156 112.389 50.1045 112.29 50.0879V48.9009C112.378 48.9175 112.475 48.9285 112.58 48.9341C112.685 48.9396 112.788 48.9424 112.887 48.9424C113.297 48.9424 113.632 48.8372 113.892 48.627C114.157 48.4167 114.37 48.0542 114.531 47.5396L114.697 47.0083L111.385 38.0518H112.929L115.685 46.3193L115.112 45.4146H115.792L115.22 46.3193L117.967 38.0518H119.486L115.992 47.5479C115.748 48.2174 115.491 48.7404 115.22 49.1167C114.949 49.493 114.63 49.7559 114.265 49.9053C113.905 50.0602 113.46 50.1377 112.929 50.1377ZM124.741 47.1577C123.894 47.1577 123.161 46.9723 122.541 46.6016C121.927 46.2253 121.451 45.6912 121.113 44.9995C120.781 44.3078 120.615 43.486 120.615 42.5342V42.5176C120.615 41.5602 120.781 40.7357 121.113 40.0439C121.451 39.3522 121.927 38.821 122.541 38.4502C123.161 38.0794 123.894 37.894 124.741 37.894C125.593 37.894 126.326 38.0794 126.94 38.4502C127.555 38.821 128.028 39.3522 128.36 40.0439C128.697 40.7357 128.866 41.5602 128.866 42.5176V42.5342C128.866 43.486 128.697 44.3078 128.36 44.9995C128.028 45.6912 127.555 46.2253 126.94 46.6016C126.326 46.9723 125.593 47.1577 124.741 47.1577ZM124.741 45.8794C125.305 45.8794 125.784 45.7466 126.177 45.481C126.57 45.2153 126.868 44.8335 127.073 44.3354C127.284 43.8374 127.389 43.237 127.389 42.5342V42.5176C127.389 41.8092 127.284 41.2061 127.073 40.708C126.868 40.21 126.57 39.8309 126.177 39.5708C125.784 39.3052 125.305 39.1724 124.741 39.1724C124.176 39.1724 123.698 39.3052 123.305 39.5708C122.912 39.8309 122.61 40.21 122.4 40.708C122.195 41.2061 122.093 41.8092 122.093 42.5176V42.5342C122.093 43.237 122.195 43.8374 122.4 44.3354C122.61 44.8335 122.912 45.2153 123.305 45.481C123.698 45.7466 124.176 45.8794 124.741 45.8794ZM134.104 47.1577C133.429 47.1577 132.862 47.0304 132.402 46.7759C131.943 46.5158 131.597 46.1395 131.365 45.647C131.138 45.1489 131.024 44.5485 131.024 43.8457V38.0518H132.469V43.4971C132.469 44.2995 132.624 44.8971 132.934 45.29C133.249 45.6829 133.764 45.8794 134.478 45.8794C134.87 45.8794 135.216 45.8213 135.515 45.7051C135.819 45.5889 136.074 45.4229 136.279 45.207C136.484 44.9857 136.636 44.7201 136.735 44.4102C136.84 44.0947 136.893 43.7406 136.893 43.3477V38.0518H138.337V47H136.893V45.6636H136.76C136.616 45.979 136.42 46.2502 136.171 46.4771C135.922 46.6984 135.623 46.8672 135.274 46.9834C134.931 47.0996 134.541 47.1577 134.104 47.1577ZM141.035 47V38.0518H142.479V39.3799H142.612C142.784 38.9095 143.074 38.5443 143.484 38.2842C143.893 38.0241 144.4 37.894 145.003 37.894C145.141 37.894 145.277 37.9023 145.41 37.9189C145.548 37.93 145.653 37.9411 145.725 37.9521V39.355C145.576 39.3273 145.429 39.3079 145.285 39.2969C145.147 39.2803 144.997 39.272 144.837 39.272C144.378 39.272 143.971 39.3633 143.617 39.5459C143.263 39.7285 142.983 39.9831 142.778 40.3096C142.579 40.6361 142.479 41.0179 142.479 41.4551V47H141.035ZM155.952 47.1577C155.116 47.1577 154.391 46.9668 153.777 46.585C153.163 46.2031 152.687 45.6636 152.349 44.9663C152.012 44.269 151.843 43.4473 151.843 42.501V42.4844C151.843 41.5547 152.009 40.7467 152.341 40.0605C152.678 39.3743 153.154 38.8431 153.769 38.4668C154.383 38.085 155.108 37.894 155.943 37.894C156.668 37.894 157.294 38.0213 157.819 38.2759C158.345 38.5304 158.766 38.8735 159.081 39.3052C159.396 39.7313 159.598 40.21 159.687 40.7412L159.695 40.791H158.259L158.251 40.7661C158.14 40.3234 157.889 39.9471 157.496 39.6372C157.103 39.3273 156.585 39.1724 155.943 39.1724C155.407 39.1724 154.942 39.3079 154.549 39.5791C154.156 39.8503 153.852 40.2349 153.636 40.7329C153.425 41.2254 153.32 41.8092 153.32 42.4844V42.501C153.32 43.1872 153.428 43.7848 153.644 44.2939C153.86 44.7975 154.164 45.1877 154.557 45.4644C154.95 45.741 155.412 45.8794 155.943 45.8794C156.547 45.8794 157.039 45.7493 157.421 45.4893C157.803 45.2292 158.077 44.8501 158.243 44.3521L158.259 44.3022L159.687 44.2939L159.67 44.3853C159.549 44.922 159.333 45.4007 159.023 45.8213C158.713 46.2363 158.304 46.5628 157.794 46.8008C157.285 47.0387 156.671 47.1577 155.952 47.1577ZM161.887 47V34.499H163.331V39.3965H163.464C163.691 38.9206 164.017 38.5526 164.443 38.2925C164.869 38.0269 165.412 37.894 166.07 37.894C166.74 37.894 167.307 38.0241 167.772 38.2842C168.237 38.5387 168.591 38.9123 168.834 39.4048C169.078 39.8973 169.2 40.4977 169.2 41.2061V47H167.755V41.5547C167.755 40.7467 167.584 40.1491 167.241 39.7617C166.903 39.3688 166.377 39.1724 165.664 39.1724C165.188 39.1724 164.775 39.2747 164.427 39.4795C164.078 39.6842 163.807 39.9748 163.613 40.3511C163.425 40.7274 163.331 41.1784 163.331 41.7041V47H161.887ZM175.492 47.1577C174.645 47.1577 173.912 46.9723 173.292 46.6016C172.678 46.2253 172.202 45.6912 171.864 44.9995C171.532 44.3078 171.366 43.486 171.366 42.5342V42.5176C171.366 41.5602 171.532 40.7357 171.864 40.0439C172.202 39.3522 172.678 38.821 173.292 38.4502C173.912 38.0794 174.645 37.894 175.492 37.894C176.344 37.894 177.077 38.0794 177.691 38.4502C178.306 38.821 178.779 39.3522 179.111 40.0439C179.448 40.7357 179.617 41.5602 179.617 42.5176V42.5342C179.617 43.486 179.448 44.3078 179.111 44.9995C178.779 45.6912 178.306 46.2253 177.691 46.6016C177.077 46.9723 176.344 47.1577 175.492 47.1577ZM175.492 45.8794C176.056 45.8794 176.535 45.7466 176.928 45.481C177.321 45.2153 177.619 44.8335 177.824 44.3354C178.035 43.8374 178.14 43.237 178.14 42.5342V42.5176C178.14 41.8092 178.035 41.2061 177.824 40.708C177.619 40.21 177.321 39.8309 176.928 39.5708C176.535 39.3052 176.056 39.1724 175.492 39.1724C174.927 39.1724 174.449 39.3052 174.056 39.5708C173.663 39.8309 173.361 40.21 173.151 40.708C172.946 41.2061 172.844 41.8092 172.844 42.5176V42.5342C172.844 43.237 172.946 43.8374 173.151 44.3354C173.361 44.8335 173.663 45.2153 174.056 45.481C174.449 45.7466 174.927 45.8794 175.492 45.8794ZM181.892 47V38.0518H183.336V47H181.892ZM182.622 36.3252C182.351 36.3252 182.116 36.2284 181.917 36.0347C181.723 35.8354 181.626 35.6003 181.626 35.3291C181.626 35.0524 181.723 34.8172 181.917 34.6235C182.116 34.4299 182.351 34.333 182.622 34.333C182.899 34.333 183.134 34.4299 183.328 34.6235C183.521 34.8172 183.618 35.0524 183.618 35.3291C183.618 35.6003 183.521 35.8354 183.328 36.0347C183.134 36.2284 182.899 36.3252 182.622 36.3252ZM189.719 47.1577C188.884 47.1577 188.159 46.9668 187.544 46.585C186.93 46.2031 186.454 45.6636 186.117 44.9663C185.779 44.269 185.61 43.4473 185.61 42.501V42.4844C185.61 41.5547 185.776 40.7467 186.108 40.0605C186.446 39.3743 186.922 38.8431 187.536 38.4668C188.15 38.085 188.875 37.894 189.711 37.894C190.436 37.894 191.061 38.0213 191.587 38.2759C192.113 38.5304 192.533 38.8735 192.849 39.3052C193.164 39.7313 193.366 40.21 193.455 40.7412L193.463 40.791H192.027L192.019 40.7661C191.908 40.3234 191.656 39.9471 191.263 39.6372C190.87 39.3273 190.353 39.1724 189.711 39.1724C189.174 39.1724 188.709 39.3079 188.316 39.5791C187.924 39.8503 187.619 40.2349 187.403 40.7329C187.193 41.2254 187.088 41.8092 187.088 42.4844V42.501C187.088 43.1872 187.196 43.7848 187.412 44.2939C187.627 44.7975 187.932 45.1877 188.325 45.4644C188.718 45.741 189.18 45.8794 189.711 45.8794C190.314 45.8794 190.807 45.7493 191.188 45.4893C191.57 45.2292 191.844 44.8501 192.01 44.3521L192.027 44.3022L193.455 44.2939L193.438 44.3853C193.316 44.922 193.1 45.4007 192.791 45.8213C192.481 46.2363 192.071 46.5628 191.562 46.8008C191.053 47.0387 190.439 47.1577 189.719 47.1577ZM199.224 47.1577C198.371 47.1577 197.638 46.9696 197.024 46.5933C196.415 46.217 195.945 45.6857 195.613 44.9995C195.286 44.3078 195.123 43.4943 195.123 42.5591V42.5508C195.123 41.6266 195.286 40.8159 195.613 40.1187C195.945 39.4214 196.412 38.8763 197.016 38.4834C197.619 38.0905 198.324 37.894 199.132 37.894C199.946 37.894 200.643 38.0822 201.224 38.4585C201.811 38.8348 202.259 39.3605 202.569 40.0356C202.884 40.7052 203.042 41.4855 203.042 42.3765V42.9409H195.87V41.7871H202.303L201.589 42.8413V42.2686C201.589 41.5658 201.484 40.9875 201.274 40.5337C201.064 40.0799 200.773 39.7424 200.402 39.521C200.032 39.2941 199.605 39.1807 199.124 39.1807C198.643 39.1807 198.211 39.2996 197.829 39.5376C197.453 39.77 197.154 40.1159 196.933 40.5752C196.711 41.0345 196.601 41.599 196.601 42.2686V42.8413C196.601 43.4777 196.708 44.0228 196.924 44.4766C197.14 44.9248 197.447 45.2707 197.846 45.5142C198.244 45.7521 198.715 45.8711 199.257 45.8711C199.661 45.8711 200.012 45.8158 200.311 45.7051C200.61 45.5944 200.856 45.4533 201.05 45.2817C201.243 45.1102 201.379 44.9359 201.457 44.7588L201.49 44.6841H202.934L202.917 44.7505C202.84 45.0549 202.702 45.3509 202.502 45.6387C202.309 45.9209 202.057 46.1782 201.747 46.4106C201.437 46.6375 201.069 46.8201 200.643 46.9585C200.222 47.0913 199.749 47.1577 199.224 47.1577ZM206.462 47.083C206.169 47.083 205.914 46.9779 205.698 46.7676C205.488 46.5518 205.383 46.2972 205.383 46.0039C205.383 45.7051 205.488 45.4505 205.698 45.2402C205.914 45.0299 206.169 44.9248 206.462 44.9248C206.761 44.9248 207.015 45.0299 207.226 45.2402C207.436 45.4505 207.541 45.7051 207.541 46.0039C207.541 46.2972 207.436 46.5518 207.226 46.7676C207.015 46.9779 206.761 47.083 206.462 47.083Z" fill="#FDFCFB"/>
</g>
<defs>
<filter id="filter0_b_3841_33013" x="-0.794189" y="38.25" width="59.5884" height="62.75" filterUnits="userSpaceOnUse" color-interpolation-filters="sRGB">
<feFlood flood-opacity="0" result="BackgroundImageFix"/>
<feGaussianBlur in="BackgroundImageFix" stdDeviation="11"/>
<feComposite in2="SourceAlpha" operator="in" result="effect1_backgroundBlur_3841_33013"/>
<feBlend mode="normal" in="SourceGraphic" in2="effect1_backgroundBlur_3841_33013" result="shape"/>
</filter>
<filter id="filter1_b_3841_33013" x="-22" y="-22" width="355" height="106" filterUnits="userSpaceOnUse" color-interpolation-filters="sRGB">
<feFlood flood-opacity="0" result="BackgroundImageFix"/>
<feGaussianBlur in="BackgroundImageFix" stdDeviation="11"/>
<feComposite in2="SourceAlpha" operator="in" result="effect1_backgroundBlur_3841_33013"/>
<feBlend mode="normal" in="SourceGraphic" in2="effect1_backgroundBlur_3841_33013" result="shape"/>
</filter>
</defs>
</svg>
