<svg width="300" height="68" viewBox="0 0 300 68" fill="none" xmlns="http://www.w3.org/2000/svg">
<g filter="url(#filter0_b_1750_33969)">
<path d="M37 68L25.7417 49.25H48.2583L37 68Z" fill="#FDFCFB" fill-opacity="0.8"/>
</g>
<g filter="url(#filter1_b_1750_33969)">
<rect width="300" height="52" rx="12" fill="#FDFCFB" fill-opacity="0.8"/>
<path d="M21.9189 15.4565C22.6826 15.4565 23.3771 15.6447 24.0024 16.021C24.6333 16.3918 25.1341 16.8926 25.5049 17.5234C25.8757 18.1488 26.061 18.8433 26.061 19.6069C26.061 19.6567 26.061 19.701 26.061 19.7397C26.061 19.7785 26.0583 19.8145 26.0527 19.8477C26.0417 19.9915 25.978 20.1077 25.8618 20.1963C25.7511 20.2793 25.6322 20.3208 25.5049 20.3208C25.3721 20.3208 25.2503 20.2793 25.1396 20.1963C25.0345 20.1077 24.9792 19.9694 24.9736 19.7812C24.9736 19.7425 24.9736 19.7093 24.9736 19.6816C24.9736 19.654 24.9736 19.6291 24.9736 19.6069C24.9736 19.0425 24.8353 18.5306 24.5586 18.0713C24.2874 17.6064 23.9194 17.2357 23.4546 16.959C22.9953 16.6823 22.4834 16.5439 21.9189 16.5439C21.3545 16.5439 20.8398 16.6823 20.375 16.959C19.9102 17.2357 19.5394 17.6064 19.2627 18.0713C18.9915 18.5306 18.856 19.0425 18.856 19.6069C18.856 19.9777 18.9168 20.3319 19.0386 20.6694C19.1659 21.0015 19.3402 21.3003 19.5615 21.5659C19.6777 21.7043 19.7248 21.8426 19.7026 21.981C19.686 22.1193 19.6252 22.2355 19.52 22.3296C19.4149 22.4181 19.2931 22.4624 19.1548 22.4624C19.0773 22.4624 18.9971 22.443 18.9141 22.4043C18.8366 22.3656 18.7619 22.3047 18.6899 22.2217C18.4022 21.862 18.1753 21.4608 18.0093 21.0181C17.8488 20.5698 17.7686 20.0994 17.7686 19.6069C17.7686 19.0314 17.8765 18.4946 18.0923 17.9966C18.3081 17.493 18.6042 17.0531 18.9805 16.6768C19.3623 16.2949 19.805 15.9961 20.3086 15.7803C20.8122 15.5645 21.349 15.4565 21.9189 15.4565ZM29.6885 33.6934C28.3105 34.1969 27.0073 34.2523 25.7788 33.8594C24.5558 33.472 23.4186 32.6419 22.3672 31.3691L19.5864 28.0073C19.4924 27.8856 19.4066 27.7583 19.3291 27.6255C19.2516 27.4871 19.1935 27.3571 19.1548 27.2354C18.9943 26.8092 19.0137 26.4274 19.2129 26.0898C19.4176 25.7523 19.7082 25.5143 20.0845 25.376C20.3667 25.2764 20.6462 25.2681 20.9229 25.3511C21.1995 25.4285 21.4596 25.5946 21.7031 25.8491L22.6743 26.9116C22.702 26.9393 22.7297 26.9476 22.7573 26.9365C22.7961 26.9255 22.8071 26.895 22.7905 26.8452L20.4248 20.3374C20.2477 19.8449 20.2505 19.3966 20.4331 18.9927C20.6213 18.5832 20.9505 18.2926 21.4209 18.1211C21.8802 17.9551 22.3118 17.9689 22.7158 18.1626C23.1198 18.3507 23.4103 18.6938 23.5874 19.1919L24.5337 21.7817C24.6942 21.6655 24.8685 21.5715 25.0566 21.4995C25.3942 21.3778 25.7179 21.3639 26.0278 21.458C26.3433 21.5465 26.6061 21.7292 26.8164 22.0059C27.0212 21.8454 27.237 21.7236 27.4639 21.6406C27.7848 21.5244 28.0892 21.5078 28.377 21.5908C28.6647 21.6683 28.9054 21.8343 29.0991 22.0889C29.8296 21.8343 30.4881 21.8869 31.0747 22.2466C31.6613 22.6007 32.1178 23.2261 32.4443 24.1226L33.0586 25.8242C33.5013 27.0417 33.6507 28.1733 33.5068 29.2192C33.3685 30.2596 32.9728 31.1672 32.3198 31.9419C31.6668 32.7111 30.7897 33.2949 29.6885 33.6934ZM29.3315 32.606C30.2557 32.2739 30.9779 31.7952 31.498 31.1699C32.0238 30.5446 32.3309 29.8003 32.4194 28.937C32.5135 28.0737 32.3696 27.1191 31.9878 26.0732L31.4648 24.6538C31.2435 24.034 30.9751 23.5885 30.6597 23.3174C30.3442 23.0407 30.015 22.966 29.6719 23.0933L29.9956 23.9897C30.0454 24.1336 30.0371 24.2692 29.9707 24.3965C29.9043 24.5182 29.8075 24.6012 29.6802 24.6455C29.5474 24.6953 29.4146 24.6953 29.2817 24.6455C29.1489 24.5902 29.0549 24.4906 28.9995 24.3467L28.5596 23.1348C28.4876 22.93 28.3742 22.7889 28.2192 22.7114C28.0643 22.6284 27.89 22.6229 27.6963 22.6948C27.5303 22.7557 27.3892 22.847 27.2729 22.9688L27.8042 24.4463C27.8595 24.5902 27.854 24.7257 27.7876 24.853C27.7212 24.9748 27.6243 25.0578 27.4971 25.1021C27.3643 25.1519 27.2287 25.1519 27.0903 25.1021C26.9575 25.0467 26.8662 24.9499 26.8164 24.8115L26.1523 22.9937C26.0804 22.7889 25.967 22.6478 25.812 22.5703C25.6571 22.4873 25.4827 22.4818 25.2891 22.5537C25.1286 22.6146 24.9875 22.7059 24.8657 22.8276L25.6211 24.9111C25.6709 25.0439 25.6626 25.174 25.5962 25.3013C25.5353 25.4285 25.4385 25.5171 25.3057 25.5669C25.1673 25.6167 25.0317 25.6139 24.8989 25.5586C24.7661 25.5033 24.6748 25.4064 24.625 25.2681L22.5249 19.499C22.464 19.333 22.3644 19.2168 22.2261 19.1504C22.0933 19.0785 21.9466 19.0701 21.7861 19.1255C21.6257 19.1864 21.5122 19.2887 21.4458 19.4326C21.3794 19.571 21.3766 19.7231 21.4375 19.8892L24.3843 27.9741C24.4451 28.1567 24.4451 28.3255 24.3843 28.4805C24.3234 28.6299 24.2127 28.735 24.0522 28.7959C23.9084 28.8457 23.7645 28.8568 23.6206 28.8291C23.4767 28.7959 23.3273 28.6963 23.1724 28.5303L21.2466 26.5464C21.0252 26.3084 20.7956 26.231 20.5576 26.314C20.4027 26.3748 20.2948 26.4717 20.2339 26.6045C20.1785 26.7373 20.1758 26.8701 20.2256 27.0029C20.2699 27.1191 20.3335 27.2298 20.4165 27.335L23.1973 30.6802C24.1602 31.8423 25.1507 32.5534 26.1689 32.8135C27.1872 33.0736 28.2414 33.0044 29.3315 32.606ZM44.4639 32V21.3667H40.604V20.022H49.8179V21.3667H45.958V32H44.4639ZM52.6567 32.1577C52.0923 32.1577 51.5832 32.0498 51.1294 31.834C50.6812 31.6182 50.3242 31.311 50.0586 30.9126C49.7985 30.5142 49.6685 30.0438 49.6685 29.5015V29.4849C49.6685 28.9536 49.7957 28.4998 50.0503 28.1235C50.3049 27.7417 50.6756 27.4429 51.1626 27.2271C51.6496 27.0112 52.2389 26.884 52.9307 26.8452L56.2178 26.646V27.7998L53.105 27.999C52.4243 28.0378 51.9263 28.1789 51.6108 28.4224C51.3009 28.6659 51.146 29.009 51.146 29.4517V29.4683C51.146 29.922 51.3175 30.2762 51.6606 30.5308C52.0037 30.7798 52.4354 30.9043 52.9556 30.9043C53.4481 30.9043 53.8853 30.8075 54.2671 30.6138C54.6489 30.4146 54.9478 30.1462 55.1636 29.8086C55.3849 29.471 55.4956 29.0892 55.4956 28.6631V25.874C55.4956 25.3206 55.3268 24.9001 54.9893 24.6123C54.6572 24.319 54.1564 24.1724 53.4868 24.1724C52.95 24.1724 52.5101 24.2692 52.167 24.4629C51.8239 24.651 51.5942 24.9194 51.478 25.2681L51.4697 25.293H50.0254L50.0337 25.2432C50.1112 24.7728 50.3049 24.3633 50.6147 24.0146C50.9302 23.6605 51.3369 23.3866 51.835 23.1929C52.333 22.9937 52.9002 22.894 53.5366 22.894C54.2671 22.894 54.8841 23.013 55.3877 23.251C55.8968 23.4889 56.2814 23.832 56.5415 24.2803C56.8071 24.723 56.9399 25.2542 56.9399 25.874V32H55.4956V30.6802H55.3628C55.1746 30.9956 54.945 31.264 54.6738 31.4854C54.4082 31.7067 54.1066 31.8755 53.769 31.9917C53.4315 32.1024 53.0607 32.1577 52.6567 32.1577ZM59.5796 34.9883V23.0518H61.0239V24.4795H61.1567C61.3394 24.1475 61.569 23.8652 61.8457 23.6328C62.1224 23.3949 62.4378 23.2122 62.792 23.085C63.1462 22.9577 63.5308 22.894 63.9458 22.894C64.7039 22.894 65.3625 23.0877 65.9214 23.4751C66.4858 23.8569 66.923 24.3937 67.2329 25.0854C67.5428 25.7772 67.6978 26.5879 67.6978 27.5176V27.5342C67.6978 28.4694 67.5428 29.2829 67.2329 29.9746C66.923 30.6663 66.4858 31.2031 65.9214 31.585C65.3625 31.9668 64.7039 32.1577 63.9458 32.1577C63.5363 32.1577 63.1489 32.0941 62.7837 31.9668C62.424 31.834 62.103 31.6514 61.8208 31.4189C61.5441 31.1865 61.3228 30.9098 61.1567 30.5889H61.0239V34.9883H59.5796ZM63.6138 30.8794C64.1616 30.8794 64.6292 30.7466 65.0166 30.481C65.404 30.2098 65.7 29.8252 65.9048 29.3271C66.1151 28.8236 66.2202 28.2259 66.2202 27.5342V27.5176C66.2202 26.8203 66.1151 26.2227 65.9048 25.7246C65.7 25.2266 65.404 24.8447 65.0166 24.5791C64.6292 24.3079 64.1616 24.1724 63.6138 24.1724C63.0715 24.1724 62.6038 24.3079 62.2109 24.5791C61.818 24.8503 61.5164 25.2349 61.3062 25.7329C61.0959 26.231 60.9907 26.8258 60.9907 27.5176V27.5342C60.9907 28.2204 61.0959 28.8153 61.3062 29.3188C61.5164 29.8169 61.818 30.2015 62.2109 30.4727C62.6038 30.7438 63.0715 30.8794 63.6138 30.8794ZM77.916 32.0664C76.9974 32.0664 76.3306 31.881 75.9155 31.5103C75.506 31.1395 75.3013 30.528 75.3013 29.6758V24.2471H73.8901V23.0518H75.3013V20.7358H76.7954V23.0518H78.7544V24.2471H76.7954V29.3105C76.7954 29.8363 76.895 30.2153 77.0942 30.4478C77.2935 30.6746 77.6255 30.7881 78.0903 30.7881C78.2176 30.7881 78.3255 30.7853 78.4141 30.7798C78.5081 30.7743 78.6216 30.766 78.7544 30.7549V31.9834C78.616 32.0055 78.4777 32.0249 78.3394 32.0415C78.201 32.0581 78.0599 32.0664 77.916 32.0664ZM84.4736 32.1577C83.627 32.1577 82.8937 31.9723 82.2739 31.6016C81.6597 31.2253 81.1838 30.6912 80.8462 29.9995C80.5142 29.3078 80.3481 28.486 80.3481 27.5342V27.5176C80.3481 26.5602 80.5142 25.7357 80.8462 25.0439C81.1838 24.3522 81.6597 23.821 82.2739 23.4502C82.8937 23.0794 83.627 22.894 84.4736 22.894C85.3258 22.894 86.0591 23.0794 86.6733 23.4502C87.2876 23.821 87.7607 24.3522 88.0928 25.0439C88.4303 25.7357 88.5991 26.5602 88.5991 27.5176V27.5342C88.5991 28.486 88.4303 29.3078 88.0928 29.9995C87.7607 30.6912 87.2876 31.2253 86.6733 31.6016C86.0591 31.9723 85.3258 32.1577 84.4736 32.1577ZM84.4736 30.8794C85.0381 30.8794 85.5168 30.7466 85.9097 30.481C86.3026 30.2153 86.6014 29.8335 86.8062 29.3354C87.0164 28.8374 87.1216 28.237 87.1216 27.5342V27.5176C87.1216 26.8092 87.0164 26.2061 86.8062 25.708C86.6014 25.21 86.3026 24.8309 85.9097 24.5708C85.5168 24.3052 85.0381 24.1724 84.4736 24.1724C83.9092 24.1724 83.4305 24.3052 83.0376 24.5708C82.6447 24.8309 82.3431 25.21 82.1328 25.708C81.9281 26.2061 81.8257 26.8092 81.8257 27.5176V27.5342C81.8257 28.237 81.9281 28.8374 82.1328 29.3354C82.3431 29.8335 82.6447 30.2153 83.0376 30.481C83.4305 30.7466 83.9092 30.8794 84.4736 30.8794ZM99.3071 35.1543C98.5877 35.1543 97.9596 35.0519 97.4229 34.8472C96.8861 34.6479 96.4572 34.363 96.1362 33.9922C95.8208 33.627 95.6243 33.2008 95.5469 32.7139L95.5635 32.7056H97.0576L97.0659 32.7139C97.1434 33.0514 97.3758 33.3281 97.7632 33.5439C98.1506 33.7653 98.6652 33.876 99.3071 33.876C100.11 33.876 100.735 33.6934 101.183 33.3281C101.637 32.9684 101.864 32.4593 101.864 31.8008V29.9912H101.731C101.543 30.3177 101.308 30.5972 101.025 30.8296C100.743 31.062 100.425 31.2391 100.071 31.3608C99.7166 31.4771 99.3348 31.5352 98.9253 31.5352C98.1561 31.5352 97.4893 31.3525 96.9248 30.9873C96.3659 30.6165 95.9342 30.1074 95.6299 29.46C95.3255 28.8125 95.1733 28.071 95.1733 27.2354V27.2188C95.1733 26.3831 95.3255 25.6416 95.6299 24.9941C95.9398 24.3411 96.377 23.8293 96.9414 23.4585C97.5059 23.0822 98.1782 22.894 98.9585 22.894C99.3791 22.894 99.7664 22.9604 100.121 23.0933C100.475 23.2261 100.787 23.4142 101.059 23.6577C101.335 23.9012 101.565 24.1917 101.748 24.5293H101.847V23.0518H103.292V31.8755C103.292 32.5396 103.128 33.1178 102.802 33.6104C102.481 34.1029 102.021 34.4819 101.424 34.7476C100.826 35.0187 100.121 35.1543 99.3071 35.1543ZM99.2407 30.2568C99.7941 30.2568 100.267 30.1296 100.66 29.875C101.059 29.6149 101.363 29.258 101.573 28.8042C101.789 28.3504 101.897 27.8275 101.897 27.2354V27.2188C101.897 26.6266 101.789 26.1009 101.573 25.6416C101.363 25.1823 101.059 24.8226 100.66 24.5625C100.267 24.3024 99.7941 24.1724 99.2407 24.1724C98.6873 24.1724 98.217 24.3024 97.8296 24.5625C97.4478 24.8226 97.1545 25.1823 96.9497 25.6416C96.7505 26.1009 96.6509 26.6266 96.6509 27.2188V27.2354C96.6509 27.8275 96.7505 28.3504 96.9497 28.8042C97.1545 29.258 97.4478 29.6149 97.8296 29.875C98.217 30.1296 98.6873 30.2568 99.2407 30.2568ZM109.658 32.1577C108.812 32.1577 108.078 31.9723 107.458 31.6016C106.844 31.2253 106.368 30.6912 106.031 29.9995C105.699 29.3078 105.533 28.486 105.533 27.5342V27.5176C105.533 26.5602 105.699 25.7357 106.031 25.0439C106.368 24.3522 106.844 23.821 107.458 23.4502C108.078 23.0794 108.812 22.894 109.658 22.894C110.51 22.894 111.244 23.0794 111.858 23.4502C112.472 23.821 112.945 24.3522 113.277 25.0439C113.615 25.7357 113.784 26.5602 113.784 27.5176V27.5342C113.784 28.486 113.615 29.3078 113.277 29.9995C112.945 30.6912 112.472 31.2253 111.858 31.6016C111.244 31.9723 110.51 32.1577 109.658 32.1577ZM109.658 30.8794C110.223 30.8794 110.701 30.7466 111.094 30.481C111.487 30.2153 111.786 29.8335 111.991 29.3354C112.201 28.8374 112.306 28.237 112.306 27.5342V27.5176C112.306 26.8092 112.201 26.2061 111.991 25.708C111.786 25.21 111.487 24.8309 111.094 24.5708C110.701 24.3052 110.223 24.1724 109.658 24.1724C109.094 24.1724 108.615 24.3052 108.222 24.5708C107.829 24.8309 107.528 25.21 107.317 25.708C107.113 26.2061 107.01 26.8092 107.01 27.5176V27.5342C107.01 28.237 107.113 28.8374 107.317 29.3354C107.528 29.8335 107.829 30.2153 108.222 30.481C108.615 30.7466 109.094 30.8794 109.658 30.8794ZM123.985 32.0664C123.067 32.0664 122.4 31.881 121.985 31.5103C121.575 31.1395 121.371 30.528 121.371 29.6758V24.2471H119.959V23.0518H121.371V20.7358H122.865V23.0518H124.824V24.2471H122.865V29.3105C122.865 29.8363 122.964 30.2153 123.164 30.4478C123.363 30.6746 123.695 30.7881 124.16 30.7881C124.287 30.7881 124.395 30.7853 124.483 30.7798C124.577 30.7743 124.691 30.766 124.824 30.7549V31.9834C124.685 32.0055 124.547 32.0249 124.409 32.0415C124.27 32.0581 124.129 32.0664 123.985 32.0664ZM130.543 32.1577C129.696 32.1577 128.963 31.9723 128.343 31.6016C127.729 31.2253 127.253 30.6912 126.916 29.9995C126.583 29.3078 126.417 28.486 126.417 27.5342V27.5176C126.417 26.5602 126.583 25.7357 126.916 25.0439C127.253 24.3522 127.729 23.821 128.343 23.4502C128.963 23.0794 129.696 22.894 130.543 22.894C131.395 22.894 132.128 23.0794 132.743 23.4502C133.357 23.821 133.83 24.3522 134.162 25.0439C134.5 25.7357 134.668 26.5602 134.668 27.5176V27.5342C134.668 28.486 134.5 29.3078 134.162 29.9995C133.83 30.6912 133.357 31.2253 132.743 31.6016C132.128 31.9723 131.395 32.1577 130.543 32.1577ZM130.543 30.8794C131.107 30.8794 131.586 30.7466 131.979 30.481C132.372 30.2153 132.671 29.8335 132.875 29.3354C133.086 28.8374 133.191 28.237 133.191 27.5342V27.5176C133.191 26.8092 133.086 26.2061 132.875 25.708C132.671 25.21 132.372 24.8309 131.979 24.5708C131.586 24.3052 131.107 24.1724 130.543 24.1724C129.979 24.1724 129.5 24.3052 129.107 24.5708C128.714 24.8309 128.412 25.21 128.202 25.708C127.997 26.2061 127.895 26.8092 127.895 27.5176V27.5342C127.895 28.237 127.997 28.8374 128.202 29.3354C128.412 29.8335 128.714 30.2153 129.107 30.481C129.5 30.7466 129.979 30.8794 130.543 30.8794ZM141.874 32V20.022H143.368V25.2017H149.942V20.022H151.436V32H149.942V26.5464H143.368V32H141.874ZM156.765 32.1577C156.201 32.1577 155.692 32.0498 155.238 31.834C154.79 31.6182 154.433 31.311 154.167 30.9126C153.907 30.5142 153.777 30.0438 153.777 29.5015V29.4849C153.777 28.9536 153.904 28.4998 154.159 28.1235C154.413 27.7417 154.784 27.4429 155.271 27.2271C155.758 27.0112 156.347 26.884 157.039 26.8452L160.326 26.646V27.7998L157.213 27.999C156.533 28.0378 156.035 28.1789 155.719 28.4224C155.409 28.6659 155.254 29.009 155.254 29.4517V29.4683C155.254 29.922 155.426 30.2762 155.769 30.5308C156.112 30.7798 156.544 30.9043 157.064 30.9043C157.556 30.9043 157.994 30.8075 158.375 30.6138C158.757 30.4146 159.056 30.1462 159.272 29.8086C159.493 29.471 159.604 29.0892 159.604 28.6631V25.874C159.604 25.3206 159.435 24.9001 159.098 24.6123C158.766 24.319 158.265 24.1724 157.595 24.1724C157.058 24.1724 156.618 24.2692 156.275 24.4629C155.932 24.651 155.703 24.9194 155.586 25.2681L155.578 25.293H154.134L154.142 25.2432C154.22 24.7728 154.413 24.3633 154.723 24.0146C155.039 23.6605 155.445 23.3866 155.943 23.1929C156.441 22.9937 157.009 22.894 157.645 22.894C158.375 22.894 158.993 23.013 159.496 23.251C160.005 23.4889 160.39 23.832 160.65 24.2803C160.916 24.723 161.048 25.2542 161.048 25.874V32H159.604V30.6802H159.471C159.283 30.9956 159.053 31.264 158.782 31.4854C158.517 31.7067 158.215 31.8755 157.877 31.9917C157.54 32.1024 157.169 32.1577 156.765 32.1577ZM168.137 32.1577C167.722 32.1577 167.338 32.0941 166.983 31.9668C166.629 31.8395 166.314 31.6597 166.037 31.4272C165.76 31.1893 165.531 30.9043 165.348 30.5723H165.215V32H163.771V19.499H165.215V24.4629H165.348C165.514 24.1419 165.736 23.8652 166.012 23.6328C166.294 23.4004 166.615 23.2205 166.975 23.0933C167.34 22.9604 167.728 22.894 168.137 22.894C168.895 22.894 169.554 23.085 170.113 23.4668C170.677 23.8486 171.114 24.3854 171.424 25.0771C171.734 25.7689 171.889 26.5824 171.889 27.5176V27.5342C171.889 28.4639 171.734 29.2773 171.424 29.9746C171.114 30.6663 170.677 31.2031 170.113 31.585C169.554 31.9668 168.895 32.1577 168.137 32.1577ZM167.805 30.8794C168.353 30.8794 168.821 30.7466 169.208 30.481C169.595 30.2098 169.891 29.8252 170.096 29.3271C170.306 28.8236 170.412 28.2259 170.412 27.5342V27.5176C170.412 26.8203 170.306 26.2227 170.096 25.7246C169.891 25.2266 169.595 24.8447 169.208 24.5791C168.821 24.3079 168.353 24.1724 167.805 24.1724C167.263 24.1724 166.795 24.3079 166.402 24.5791C166.009 24.8503 165.708 25.2349 165.498 25.7329C165.287 26.231 165.182 26.8258 165.182 27.5176V27.5342C165.182 28.2204 165.287 28.8153 165.498 29.3188C165.708 29.8169 166.009 30.2015 166.402 30.4727C166.795 30.7438 167.263 30.8794 167.805 30.8794ZM174.164 32V23.0518H175.608V32H174.164ZM174.894 21.3252C174.623 21.3252 174.388 21.2284 174.188 21.0347C173.995 20.8354 173.898 20.6003 173.898 20.3291C173.898 20.0524 173.995 19.8172 174.188 19.6235C174.388 19.4299 174.623 19.333 174.894 19.333C175.171 19.333 175.406 19.4299 175.6 19.6235C175.793 19.8172 175.89 20.0524 175.89 20.3291C175.89 20.6003 175.793 20.8354 175.6 21.0347C175.406 21.2284 175.171 21.3252 174.894 21.3252ZM181.51 32.0664C180.591 32.0664 179.924 31.881 179.509 31.5103C179.1 31.1395 178.895 30.528 178.895 29.6758V24.2471H177.484V23.0518H178.895V20.7358H180.389V23.0518H182.348V24.2471H180.389V29.3105C180.389 29.8363 180.489 30.2153 180.688 30.4478C180.887 30.6746 181.219 30.7881 181.684 30.7881C181.811 30.7881 181.919 30.7853 182.008 30.7798C182.102 30.7743 182.215 30.766 182.348 30.7549V31.9834C182.21 32.0055 182.071 32.0249 181.933 32.0415C181.795 32.0581 181.654 32.0664 181.51 32.0664ZM189.47 32V20.022H193.579C194.763 20.022 195.776 20.2599 196.617 20.7358C197.464 21.2062 198.111 21.8869 198.56 22.7778C199.008 23.6688 199.232 24.7424 199.232 25.9985V26.0151C199.232 27.2713 199.008 28.3477 198.56 29.2441C198.111 30.1351 197.467 30.8185 196.625 31.2944C195.784 31.7648 194.769 32 193.579 32H189.47ZM190.964 30.6553H193.479C194.37 30.6553 195.131 30.4727 195.762 30.1074C196.393 29.7422 196.875 29.2137 197.207 28.522C197.539 27.8302 197.705 27.0002 197.705 26.0317V26.0151C197.705 25.0412 197.536 24.2083 197.198 23.5166C196.866 22.8193 196.385 22.2881 195.754 21.9229C195.123 21.5521 194.365 21.3667 193.479 21.3667H190.964V30.6553ZM205.292 32.1577C204.439 32.1577 203.706 31.9696 203.092 31.5933C202.483 31.217 202.013 30.6857 201.681 29.9995C201.354 29.3078 201.191 28.4943 201.191 27.5591V27.5508C201.191 26.6266 201.354 25.8159 201.681 25.1187C202.013 24.4214 202.48 23.8763 203.083 23.4834C203.687 23.0905 204.392 22.894 205.2 22.894C206.014 22.894 206.711 23.0822 207.292 23.4585C207.879 23.8348 208.327 24.3605 208.637 25.0356C208.952 25.7052 209.11 26.4855 209.11 27.3765V27.9409H201.938V26.7871H208.371L207.657 27.8413V27.2686C207.657 26.5658 207.552 25.9875 207.342 25.5337C207.132 25.0799 206.841 24.7424 206.47 24.521C206.099 24.2941 205.673 24.1807 205.192 24.1807C204.71 24.1807 204.279 24.2996 203.897 24.5376C203.521 24.77 203.222 25.1159 203 25.5752C202.779 26.0345 202.668 26.599 202.668 27.2686V27.8413C202.668 28.4777 202.776 29.0228 202.992 29.4766C203.208 29.9248 203.515 30.2707 203.914 30.5142C204.312 30.7521 204.782 30.8711 205.325 30.8711C205.729 30.8711 206.08 30.8158 206.379 30.7051C206.678 30.5944 206.924 30.4533 207.118 30.2817C207.311 30.1102 207.447 29.9359 207.524 29.7588L207.558 29.6841H209.002L208.985 29.7505C208.908 30.0549 208.77 30.3509 208.57 30.6387C208.377 30.9209 208.125 31.1782 207.815 31.4106C207.505 31.6375 207.137 31.8201 206.711 31.9585C206.29 32.0913 205.817 32.1577 205.292 32.1577ZM214.53 32.0664C213.612 32.0664 212.945 31.881 212.53 31.5103C212.12 31.1395 211.916 30.528 211.916 29.6758V24.2471H210.504V23.0518H211.916V20.7358H213.41V23.0518H215.369V24.2471H213.41V29.3105C213.41 29.8363 213.509 30.2153 213.708 30.4478C213.908 30.6746 214.24 30.7881 214.705 30.7881C214.832 30.7881 214.94 30.7853 215.028 30.7798C215.122 30.7743 215.236 30.766 215.369 30.7549V31.9834C215.23 32.0055 215.092 32.0249 214.954 32.0415C214.815 32.0581 214.674 32.0664 214.53 32.0664ZM219.984 32.1577C219.419 32.1577 218.91 32.0498 218.457 31.834C218.008 31.6182 217.651 31.311 217.386 30.9126C217.126 30.5142 216.996 30.0438 216.996 29.5015V29.4849C216.996 28.9536 217.123 28.4998 217.377 28.1235C217.632 27.7417 218.003 27.4429 218.49 27.2271C218.977 27.0112 219.566 26.884 220.258 26.8452L223.545 26.646V27.7998L220.432 27.999C219.751 28.0378 219.253 28.1789 218.938 28.4224C218.628 28.6659 218.473 29.009 218.473 29.4517V29.4683C218.473 29.922 218.645 30.2762 218.988 30.5308C219.331 30.7798 219.763 30.9043 220.283 30.9043C220.775 30.9043 221.212 30.8075 221.594 30.6138C221.976 30.4146 222.275 30.1462 222.491 29.8086C222.712 29.471 222.823 29.0892 222.823 28.6631V25.874C222.823 25.3206 222.654 24.9001 222.316 24.6123C221.984 24.319 221.484 24.1724 220.814 24.1724C220.277 24.1724 219.837 24.2692 219.494 24.4629C219.151 24.651 218.921 24.9194 218.805 25.2681L218.797 25.293H217.353L217.361 25.2432C217.438 24.7728 217.632 24.3633 217.942 24.0146C218.257 23.6605 218.664 23.3866 219.162 23.1929C219.66 22.9937 220.227 22.894 220.864 22.894C221.594 22.894 222.211 23.013 222.715 23.251C223.224 23.4889 223.609 23.832 223.869 24.2803C224.134 24.723 224.267 25.2542 224.267 25.874V32H222.823V30.6802H222.69C222.502 30.9956 222.272 31.264 222.001 31.4854C221.735 31.7067 221.434 31.8755 221.096 31.9917C220.759 32.1024 220.388 32.1577 219.984 32.1577ZM226.94 32V23.0518H228.384V32H226.94ZM227.67 21.3252C227.399 21.3252 227.164 21.2284 226.965 21.0347C226.771 20.8354 226.674 20.6003 226.674 20.3291C226.674 20.0524 226.771 19.8172 226.965 19.6235C227.164 19.4299 227.399 19.333 227.67 19.333C227.947 19.333 228.182 19.4299 228.376 19.6235C228.57 19.8172 228.667 20.0524 228.667 20.3291C228.667 20.6003 228.57 20.8354 228.376 21.0347C228.182 21.2284 227.947 21.3252 227.67 21.3252ZM231.19 32V19.499H232.634V32H231.19ZM240.188 34.9883V23.0518H241.632V24.4795H241.765C241.948 24.1475 242.177 23.8652 242.454 23.6328C242.731 23.3949 243.046 23.2122 243.4 23.085C243.755 22.9577 244.139 22.894 244.554 22.894C245.312 22.894 245.971 23.0877 246.53 23.4751C247.094 23.8569 247.531 24.3937 247.841 25.0854C248.151 25.7772 248.306 26.5879 248.306 27.5176V27.5342C248.306 28.4694 248.151 29.2829 247.841 29.9746C247.531 30.6663 247.094 31.2031 246.53 31.585C245.971 31.9668 245.312 32.1577 244.554 32.1577C244.145 32.1577 243.757 32.0941 243.392 31.9668C243.032 31.834 242.711 31.6514 242.429 31.4189C242.153 31.1865 241.931 30.9098 241.765 30.5889H241.632V34.9883H240.188ZM244.222 30.8794C244.77 30.8794 245.238 30.7466 245.625 30.481C246.012 30.2098 246.308 29.8252 246.513 29.3271C246.723 28.8236 246.829 28.2259 246.829 27.5342V27.5176C246.829 26.8203 246.723 26.2227 246.513 25.7246C246.308 25.2266 246.012 24.8447 245.625 24.5791C245.238 24.3079 244.77 24.1724 244.222 24.1724C243.68 24.1724 243.212 24.3079 242.819 24.5791C242.426 24.8503 242.125 25.2349 241.915 25.7329C241.704 26.231 241.599 26.8258 241.599 27.5176V27.5342C241.599 28.2204 241.704 28.8153 241.915 29.3188C242.125 29.8169 242.426 30.2015 242.819 30.4727C243.212 30.7438 243.68 30.8794 244.222 30.8794ZM253.021 32.1577C252.457 32.1577 251.947 32.0498 251.494 31.834C251.045 31.6182 250.688 31.311 250.423 30.9126C250.163 30.5142 250.033 30.0438 250.033 29.5015V29.4849C250.033 28.9536 250.16 28.4998 250.415 28.1235C250.669 27.7417 251.04 27.4429 251.527 27.2271C252.014 27.0112 252.603 26.884 253.295 26.8452L256.582 26.646V27.7998L253.469 27.999C252.789 28.0378 252.291 28.1789 251.975 28.4224C251.665 28.6659 251.51 29.009 251.51 29.4517V29.4683C251.51 29.922 251.682 30.2762 252.025 30.5308C252.368 30.7798 252.8 30.9043 253.32 30.9043C253.812 30.9043 254.25 30.8075 254.631 30.6138C255.013 30.4146 255.312 30.1462 255.528 29.8086C255.749 29.471 255.86 29.0892 255.86 28.6631V25.874C255.86 25.3206 255.691 24.9001 255.354 24.6123C255.021 24.319 254.521 24.1724 253.851 24.1724C253.314 24.1724 252.874 24.2692 252.531 24.4629C252.188 24.651 251.958 24.9194 251.842 25.2681L251.834 25.293H250.39L250.398 25.2432C250.475 24.7728 250.669 24.3633 250.979 24.0146C251.294 23.6605 251.701 23.3866 252.199 23.1929C252.697 22.9937 253.264 22.894 253.901 22.894C254.631 22.894 255.248 23.013 255.752 23.251C256.261 23.4889 256.646 23.832 256.906 24.2803C257.171 24.723 257.304 25.2542 257.304 25.874V32H255.86V30.6802H255.727C255.539 30.9956 255.309 31.264 255.038 31.4854C254.772 31.7067 254.471 31.8755 254.133 31.9917C253.796 32.1024 253.425 32.1577 253.021 32.1577ZM263.629 35.1543C262.91 35.1543 262.282 35.0519 261.745 34.8472C261.208 34.6479 260.779 34.363 260.458 33.9922C260.143 33.627 259.947 33.2008 259.869 32.7139L259.886 32.7056H261.38L261.388 32.7139C261.466 33.0514 261.698 33.3281 262.085 33.5439C262.473 33.7653 262.987 33.876 263.629 33.876C264.432 33.876 265.057 33.6934 265.505 33.3281C265.959 32.9684 266.186 32.4593 266.186 31.8008V29.9912H266.053C265.865 30.3177 265.63 30.5972 265.348 30.8296C265.065 31.062 264.747 31.2391 264.393 31.3608C264.039 31.4771 263.657 31.5352 263.248 31.5352C262.478 31.5352 261.812 31.3525 261.247 30.9873C260.688 30.6165 260.257 30.1074 259.952 29.46C259.648 28.8125 259.496 28.071 259.496 27.2354V27.2188C259.496 26.3831 259.648 25.6416 259.952 24.9941C260.262 24.3411 260.699 23.8293 261.264 23.4585C261.828 23.0822 262.5 22.894 263.281 22.894C263.701 22.894 264.089 22.9604 264.443 23.0933C264.797 23.2261 265.11 23.4142 265.381 23.6577C265.658 23.9012 265.887 24.1917 266.07 24.5293H266.169V23.0518H267.614V31.8755C267.614 32.5396 267.451 33.1178 267.124 33.6104C266.803 34.1029 266.344 34.4819 265.746 34.7476C265.148 35.0187 264.443 35.1543 263.629 35.1543ZM263.563 30.2568C264.116 30.2568 264.59 30.1296 264.982 29.875C265.381 29.6149 265.685 29.258 265.896 28.8042C266.111 28.3504 266.219 27.8275 266.219 27.2354V27.2188C266.219 26.6266 266.111 26.1009 265.896 25.6416C265.685 25.1823 265.381 24.8226 264.982 24.5625C264.59 24.3024 264.116 24.1724 263.563 24.1724C263.01 24.1724 262.539 24.3024 262.152 24.5625C261.77 24.8226 261.477 25.1823 261.272 25.6416C261.073 26.1009 260.973 26.6266 260.973 27.2188V27.2354C260.973 27.8275 261.073 28.3504 261.272 28.8042C261.477 29.258 261.77 29.6149 262.152 29.875C262.539 30.1296 263.01 30.2568 263.563 30.2568ZM273.956 32.1577C273.103 32.1577 272.37 31.9696 271.756 31.5933C271.147 31.217 270.677 30.6857 270.345 29.9995C270.018 29.3078 269.855 28.4943 269.855 27.5591V27.5508C269.855 26.6266 270.018 25.8159 270.345 25.1187C270.677 24.4214 271.144 23.8763 271.748 23.4834C272.351 23.0905 273.056 22.894 273.864 22.894C274.678 22.894 275.375 23.0822 275.956 23.4585C276.543 23.8348 276.991 24.3605 277.301 25.0356C277.616 25.7052 277.774 26.4855 277.774 27.3765V27.9409H270.602V26.7871H277.035L276.321 27.8413V27.2686C276.321 26.5658 276.216 25.9875 276.006 25.5337C275.796 25.0799 275.505 24.7424 275.134 24.521C274.764 24.2941 274.337 24.1807 273.856 24.1807C273.375 24.1807 272.943 24.2996 272.561 24.5376C272.185 24.77 271.886 25.1159 271.665 25.5752C271.443 26.0345 271.333 26.599 271.333 27.2686V27.8413C271.333 28.4777 271.44 29.0228 271.656 29.4766C271.872 29.9248 272.179 30.2707 272.578 30.5142C272.976 30.7521 273.446 30.8711 273.989 30.8711C274.393 30.8711 274.744 30.8158 275.043 30.7051C275.342 30.5944 275.588 30.4533 275.782 30.2817C275.975 30.1102 276.111 29.9359 276.188 29.7588L276.222 29.6841H277.666L277.649 29.7505C277.572 30.0549 277.434 30.3509 277.234 30.6387C277.041 30.9209 276.789 31.1782 276.479 31.4106C276.169 31.6375 275.801 31.8201 275.375 31.9585C274.954 32.0913 274.481 32.1577 273.956 32.1577ZM281.194 32.083C280.901 32.083 280.646 31.9779 280.43 31.7676C280.22 31.5518 280.115 31.2972 280.115 31.0039C280.115 30.7051 280.22 30.4505 280.43 30.2402C280.646 30.0299 280.901 29.9248 281.194 29.9248C281.493 29.9248 281.747 30.0299 281.958 30.2402C282.168 30.4505 282.273 30.7051 282.273 31.0039C282.273 31.2972 282.168 31.5518 281.958 31.7676C281.747 31.9779 281.493 32.083 281.194 32.083Z" fill="#3D423E"/>
</g>
<defs>
<filter id="filter0_b_1750_33969" x="3.7417" y="27.25" width="66.5166" height="62.75" filterUnits="userSpaceOnUse" color-interpolation-filters="sRGB">
<feFlood flood-opacity="0" result="BackgroundImageFix"/>
<feGaussianBlur in="BackgroundImageFix" stdDeviation="11"/>
<feComposite in2="SourceAlpha" operator="in" result="effect1_backgroundBlur_1750_33969"/>
<feBlend mode="normal" in="SourceGraphic" in2="effect1_backgroundBlur_1750_33969" result="shape"/>
</filter>
<filter id="filter1_b_1750_33969" x="-22" y="-22" width="344" height="96" filterUnits="userSpaceOnUse" color-interpolation-filters="sRGB">
<feFlood flood-opacity="0" result="BackgroundImageFix"/>
<feGaussianBlur in="BackgroundImageFix" stdDeviation="11"/>
<feComposite in2="SourceAlpha" operator="in" result="effect1_backgroundBlur_1750_33969"/>
<feBlend mode="normal" in="SourceGraphic" in2="effect1_backgroundBlur_1750_33969" result="shape"/>
</filter>
</defs>
</svg>
