<svg width="340" height="79" viewBox="0 0 340 79" fill="none" xmlns="http://www.w3.org/2000/svg">
<g filter="url(#filter0_b_3841_33475)">
<path d="M74 79L81.7942 60.25H66.2058L74 79Z" fill="#3D423E" fill-opacity="0.8"/>
</g>
<g filter="url(#filter1_b_3841_33475)">
<rect width="340" height="62" rx="12" fill="#3D423E" fill-opacity="0.8"/>
<path d="M18.2666 27V16.6821H18.1338L15.0874 18.8901V17.313L18.2749 15.022H19.7607V27H18.2666ZM31.083 27.1577C30.4189 27.1577 29.8324 27.0581 29.3232 26.8589C28.8141 26.6541 28.4046 26.3691 28.0947 26.0039C27.7904 25.6387 27.6105 25.2098 27.5552 24.7173H29.0327C29.1545 25.0881 29.3924 25.3869 29.7466 25.6138C30.1007 25.8407 30.5628 25.9541 31.1328 25.9541C31.5368 25.9541 31.891 25.896 32.1953 25.7798C32.5052 25.658 32.7487 25.4948 32.9258 25.29C33.1029 25.0798 33.1914 24.839 33.1914 24.5679V24.5513C33.1914 24.2469 33.0697 23.9896 32.8262 23.7793C32.5827 23.5635 32.1842 23.3892 31.6309 23.2563L30.2446 22.9243C29.6857 22.7915 29.2264 22.62 28.8667 22.4097C28.507 22.1938 28.2414 21.931 28.0698 21.6211C27.8983 21.3057 27.8125 20.9349 27.8125 20.5088V20.5005C27.8125 20.0024 27.9564 19.557 28.2441 19.1641C28.5374 18.7712 28.9359 18.4613 29.4395 18.2344C29.943 18.0075 30.5103 17.894 31.1411 17.894C31.7664 17.894 32.3198 17.9937 32.8013 18.1929C33.2882 18.3866 33.6784 18.6632 33.9717 19.0229C34.2705 19.3826 34.4531 19.806 34.5195 20.293H33.1001C33.006 19.9388 32.7902 19.651 32.4526 19.4297C32.1151 19.2083 31.6751 19.0977 31.1328 19.0977C30.7786 19.0977 30.4632 19.1558 30.1865 19.272C29.9098 19.3826 29.6912 19.5376 29.5308 19.7368C29.3703 19.936 29.29 20.1685 29.29 20.4341V20.4507C29.29 20.6499 29.3426 20.827 29.4478 20.9819C29.5529 21.1369 29.7161 21.2725 29.9375 21.3887C30.1589 21.5049 30.4438 21.6073 30.7925 21.6958L32.1704 22.0278C33.0116 22.2326 33.6369 22.5259 34.0464 22.9077C34.4614 23.2896 34.6689 23.8014 34.6689 24.4434V24.46C34.6689 24.9912 34.5112 25.4616 34.1958 25.8711C33.8804 26.2751 33.4515 26.5905 32.9092 26.8174C32.3724 27.0443 31.7637 27.1577 31.083 27.1577ZM40.5625 27.1577C39.7103 27.1577 38.9771 26.9696 38.3628 26.5933C37.7541 26.217 37.2837 25.6857 36.9517 24.9995C36.6252 24.3078 36.4619 23.4943 36.4619 22.5591V22.5508C36.4619 21.6266 36.6252 20.8159 36.9517 20.1187C37.2837 19.4214 37.7513 18.8763 38.3545 18.4834C38.9577 18.0905 39.6632 17.894 40.4712 17.894C41.2847 17.894 41.9819 18.0822 42.563 18.4585C43.1496 18.8348 43.5978 19.3605 43.9077 20.0356C44.2231 20.7052 44.3809 21.4855 44.3809 22.3765V22.9409H37.209V21.7871H43.6421L42.9282 22.8413V22.2686C42.9282 21.5658 42.8231 20.9875 42.6128 20.5337C42.4025 20.0799 42.112 19.7424 41.7412 19.521C41.3704 19.2941 40.9443 19.1807 40.4629 19.1807C39.9814 19.1807 39.5498 19.2996 39.168 19.5376C38.7917 19.77 38.4928 20.1159 38.2715 20.5752C38.0501 21.0345 37.9395 21.599 37.9395 22.2686V22.8413C37.9395 23.4777 38.0474 24.0228 38.2632 24.4766C38.479 24.9248 38.7861 25.2707 39.1846 25.5142C39.583 25.7521 40.0534 25.8711 40.5957 25.8711C40.9997 25.8711 41.3511 25.8158 41.6499 25.7051C41.9487 25.5944 42.195 25.4533 42.3887 25.2817C42.5824 25.1102 42.7179 24.9359 42.7954 24.7588L42.8286 24.6841H44.2729L44.2563 24.7505C44.1789 25.0549 44.0405 25.3509 43.8413 25.6387C43.6476 25.9209 43.3958 26.1782 43.0859 26.4106C42.776 26.6375 42.408 26.8201 41.9819 26.9585C41.5614 27.0913 41.0882 27.1577 40.5625 27.1577ZM49.6934 27.1577C49.0293 27.1577 48.4427 27.0581 47.9336 26.8589C47.4245 26.6541 47.015 26.3691 46.7051 26.0039C46.4007 25.6387 46.2209 25.2098 46.1655 24.7173H47.6431C47.7648 25.0881 48.0028 25.3869 48.3569 25.6138C48.7111 25.8407 49.1732 25.9541 49.7432 25.9541C50.1471 25.9541 50.5013 25.896 50.8057 25.7798C51.1156 25.658 51.359 25.4948 51.5361 25.29C51.7132 25.0798 51.8018 24.839 51.8018 24.5679V24.5513C51.8018 24.2469 51.68 23.9896 51.4365 23.7793C51.193 23.5635 50.7946 23.3892 50.2412 23.2563L48.855 22.9243C48.2961 22.7915 47.8368 22.62 47.4771 22.4097C47.1174 22.1938 46.8517 21.931 46.6802 21.6211C46.5086 21.3057 46.4229 20.9349 46.4229 20.5088V20.5005C46.4229 20.0024 46.5667 19.557 46.8545 19.1641C47.1478 18.7712 47.5462 18.4613 48.0498 18.2344C48.5534 18.0075 49.1206 17.894 49.7515 17.894C50.3768 17.894 50.9302 17.9937 51.4116 18.1929C51.8986 18.3866 52.2887 18.6632 52.582 19.0229C52.8809 19.3826 53.0635 19.806 53.1299 20.293H51.7104C51.6164 19.9388 51.4006 19.651 51.063 19.4297C50.7254 19.2083 50.2855 19.0977 49.7432 19.0977C49.389 19.0977 49.0736 19.1558 48.7969 19.272C48.5202 19.3826 48.3016 19.5376 48.1411 19.7368C47.9806 19.936 47.9004 20.1685 47.9004 20.4341V20.4507C47.9004 20.6499 47.953 20.827 48.0581 20.9819C48.1632 21.1369 48.3265 21.2725 48.5479 21.3887C48.7692 21.5049 49.0542 21.6073 49.4028 21.6958L50.7808 22.0278C51.6219 22.2326 52.2472 22.5259 52.6567 22.9077C53.0718 23.2896 53.2793 23.8014 53.2793 24.4434V24.46C53.2793 24.9912 53.1216 25.4616 52.8062 25.8711C52.4907 26.2751 52.0618 26.5905 51.5195 26.8174C50.9827 27.0443 50.374 27.1577 49.6934 27.1577ZM58.4258 27.1577C57.7617 27.1577 57.1751 27.0581 56.666 26.8589C56.1569 26.6541 55.7474 26.3691 55.4375 26.0039C55.1331 25.6387 54.9533 25.2098 54.8979 24.7173H56.3755C56.4972 25.0881 56.7352 25.3869 57.0894 25.6138C57.4435 25.8407 57.9056 25.9541 58.4756 25.9541C58.8796 25.9541 59.2337 25.896 59.5381 25.7798C59.848 25.658 60.0915 25.4948 60.2686 25.29C60.4456 25.0798 60.5342 24.839 60.5342 24.5679V24.5513C60.5342 24.2469 60.4124 23.9896 60.1689 23.7793C59.9255 23.5635 59.527 23.3892 58.9736 23.2563L57.5874 22.9243C57.0285 22.7915 56.5692 22.62 56.2095 22.4097C55.8498 22.1938 55.5841 21.931 55.4126 21.6211C55.241 21.3057 55.1553 20.9349 55.1553 20.5088V20.5005C55.1553 20.0024 55.2992 19.557 55.5869 19.1641C55.8802 18.7712 56.2786 18.4613 56.7822 18.2344C57.2858 18.0075 57.853 17.894 58.4839 17.894C59.1092 17.894 59.6626 17.9937 60.144 18.1929C60.631 18.3866 61.0212 18.6632 61.3145 19.0229C61.6133 19.3826 61.7959 19.806 61.8623 20.293H60.4429C60.3488 19.9388 60.133 19.651 59.7954 19.4297C59.4578 19.2083 59.0179 19.0977 58.4756 19.0977C58.1214 19.0977 57.806 19.1558 57.5293 19.272C57.2526 19.3826 57.034 19.5376 56.8735 19.7368C56.7131 19.936 56.6328 20.1685 56.6328 20.4341V20.4507C56.6328 20.6499 56.6854 20.827 56.7905 20.9819C56.8957 21.1369 57.0589 21.2725 57.2803 21.3887C57.5016 21.5049 57.7866 21.6073 58.1353 21.6958L59.5132 22.0278C60.3543 22.2326 60.9797 22.5259 61.3892 22.9077C61.8042 23.2896 62.0117 23.8014 62.0117 24.4434V24.46C62.0117 24.9912 61.854 25.4616 61.5386 25.8711C61.2231 26.2751 60.7943 26.5905 60.252 26.8174C59.7152 27.0443 59.1064 27.1577 58.4258 27.1577ZM64.2861 27V18.0518H65.7305V27H64.2861ZM65.0166 16.3252C64.7454 16.3252 64.5103 16.2284 64.311 16.0347C64.1174 15.8354 64.0205 15.6003 64.0205 15.3291C64.0205 15.0524 64.1174 14.8172 64.311 14.6235C64.5103 14.4299 64.7454 14.333 65.0166 14.333C65.2933 14.333 65.5285 14.4299 65.7222 14.6235C65.9159 14.8172 66.0127 15.0524 66.0127 15.3291C66.0127 15.6003 65.9159 15.8354 65.7222 16.0347C65.5285 16.2284 65.2933 16.3252 65.0166 16.3252ZM72.1304 27.1577C71.2837 27.1577 70.5505 26.9723 69.9307 26.6016C69.3164 26.2253 68.8405 25.6912 68.5029 24.9995C68.1709 24.3078 68.0049 23.486 68.0049 22.5342V22.5176C68.0049 21.5602 68.1709 20.7357 68.5029 20.0439C68.8405 19.3522 69.3164 18.821 69.9307 18.4502C70.5505 18.0794 71.2837 17.894 72.1304 17.894C72.9826 17.894 73.7158 18.0794 74.3301 18.4502C74.9443 18.821 75.4175 19.3522 75.7495 20.0439C76.0871 20.7357 76.2559 21.5602 76.2559 22.5176V22.5342C76.2559 23.486 76.0871 24.3078 75.7495 24.9995C75.4175 25.6912 74.9443 26.2253 74.3301 26.6016C73.7158 26.9723 72.9826 27.1577 72.1304 27.1577ZM72.1304 25.8794C72.6948 25.8794 73.1735 25.7466 73.5664 25.481C73.9593 25.2153 74.2581 24.8335 74.4629 24.3354C74.6732 23.8374 74.7783 23.237 74.7783 22.5342V22.5176C74.7783 21.8092 74.6732 21.2061 74.4629 20.708C74.2581 20.21 73.9593 19.8309 73.5664 19.5708C73.1735 19.3052 72.6948 19.1724 72.1304 19.1724C71.5659 19.1724 71.0872 19.3052 70.6943 19.5708C70.3014 19.8309 69.9998 20.21 69.7896 20.708C69.5848 21.2061 69.4824 21.8092 69.4824 22.5176V22.5342C69.4824 23.237 69.5848 23.8374 69.7896 24.3354C69.9998 24.8335 70.3014 25.2153 70.6943 25.481C71.0872 25.7466 71.5659 25.8794 72.1304 25.8794ZM78.4971 27V18.0518H79.9414V19.3965H80.0742C80.3011 18.9206 80.6276 18.5526 81.0537 18.2925C81.4798 18.0269 82.0221 17.894 82.6807 17.894C83.6878 17.894 84.4598 18.1818 84.9966 18.7573C85.5389 19.3273 85.8101 20.1436 85.8101 21.2061V27H84.3657V21.5547C84.3657 20.7467 84.1942 20.1491 83.8511 19.7617C83.5135 19.3688 82.9878 19.1724 82.2739 19.1724C81.798 19.1724 81.3857 19.2747 81.0371 19.4795C80.6885 19.6842 80.4173 19.9748 80.2236 20.3511C80.0355 20.7274 79.9414 21.1784 79.9414 21.7041V27H78.4971ZM96.8833 27.1577C96.0366 27.1577 95.3034 26.9723 94.6836 26.6016C94.0693 26.2253 93.5934 25.6912 93.2559 24.9995C92.9238 24.3078 92.7578 23.486 92.7578 22.5342V22.5176C92.7578 21.5602 92.9238 20.7357 93.2559 20.0439C93.5934 19.3522 94.0693 18.821 94.6836 18.4502C95.3034 18.0794 96.0366 17.894 96.8833 17.894C97.7355 17.894 98.4688 18.0794 99.083 18.4502C99.6973 18.821 100.17 19.3522 100.502 20.0439C100.84 20.7357 101.009 21.5602 101.009 22.5176V22.5342C101.009 23.486 100.84 24.3078 100.502 24.9995C100.17 25.6912 99.6973 26.2253 99.083 26.6016C98.4688 26.9723 97.7355 27.1577 96.8833 27.1577ZM96.8833 25.8794C97.4478 25.8794 97.9264 25.7466 98.3193 25.481C98.7122 25.2153 99.0111 24.8335 99.2158 24.3354C99.4261 23.8374 99.5312 23.237 99.5312 22.5342V22.5176C99.5312 21.8092 99.4261 21.2061 99.2158 20.708C99.0111 20.21 98.7122 19.8309 98.3193 19.5708C97.9264 19.3052 97.4478 19.1724 96.8833 19.1724C96.3188 19.1724 95.8402 19.3052 95.4473 19.5708C95.0544 19.8309 94.7528 20.21 94.5425 20.708C94.3377 21.2061 94.2354 21.8092 94.2354 22.5176V22.5342C94.2354 23.237 94.3377 23.8374 94.5425 24.3354C94.7528 24.8335 95.0544 25.2153 95.4473 25.481C95.8402 25.7466 96.3188 25.8794 96.8833 25.8794ZM103.848 27V19.2471H102.362V18.0518H103.848V17.0557C103.848 16.458 103.944 15.9655 104.138 15.5781C104.337 15.1852 104.631 14.8947 105.018 14.7065C105.405 14.5129 105.881 14.416 106.446 14.416C106.623 14.416 106.789 14.4243 106.944 14.4409C107.104 14.452 107.259 14.4714 107.409 14.499V15.6528C107.32 15.6362 107.218 15.6252 107.102 15.6196C106.985 15.6141 106.864 15.6113 106.736 15.6113C106.222 15.6113 105.851 15.7358 105.624 15.9849C105.403 16.2339 105.292 16.6047 105.292 17.0972V18.0518H107.326V19.2471H105.292V27H103.848ZM115.12 22.7251V21.397H118.507C119.365 21.397 120.029 21.1756 120.499 20.7329C120.969 20.2847 121.205 19.6676 121.205 18.8818V18.8652C121.205 18.0739 120.969 17.4569 120.499 17.0142C120.029 16.5715 119.365 16.3501 118.507 16.3501H115.12V15.022H118.889C119.641 15.022 120.305 15.1825 120.881 15.5034C121.456 15.8244 121.907 16.2726 122.234 16.8481C122.566 17.4237 122.732 18.0905 122.732 18.8486V18.8652C122.732 19.6234 122.566 20.293 122.234 20.874C121.907 21.4551 121.456 21.9089 120.881 22.2354C120.305 22.5618 119.641 22.7251 118.889 22.7251H115.12ZM114.373 27V15.022H115.867V27H114.373ZM128.426 27.1577C127.58 27.1577 126.846 26.9723 126.227 26.6016C125.612 26.2253 125.136 25.6912 124.799 24.9995C124.467 24.3078 124.301 23.486 124.301 22.5342V22.5176C124.301 21.5602 124.467 20.7357 124.799 20.0439C125.136 19.3522 125.612 18.821 126.227 18.4502C126.846 18.0794 127.58 17.894 128.426 17.894C129.278 17.894 130.012 18.0794 130.626 18.4502C131.24 18.821 131.713 19.3522 132.045 20.0439C132.383 20.7357 132.552 21.5602 132.552 22.5176V22.5342C132.552 23.486 132.383 24.3078 132.045 24.9995C131.713 25.6912 131.24 26.2253 130.626 26.6016C130.012 26.9723 129.278 27.1577 128.426 27.1577ZM128.426 25.8794C128.991 25.8794 129.469 25.7466 129.862 25.481C130.255 25.2153 130.554 24.8335 130.759 24.3354C130.969 23.8374 131.074 23.237 131.074 22.5342V22.5176C131.074 21.8092 130.969 21.2061 130.759 20.708C130.554 20.21 130.255 19.8309 129.862 19.5708C129.469 19.3052 128.991 19.1724 128.426 19.1724C127.862 19.1724 127.383 19.3052 126.99 19.5708C126.597 19.8309 126.296 20.21 126.085 20.708C125.881 21.2061 125.778 21.8092 125.778 22.5176V22.5342C125.778 23.237 125.881 23.8374 126.085 24.3354C126.296 24.8335 126.597 25.2153 126.99 25.481C127.383 25.7466 127.862 25.8794 128.426 25.8794ZM134.793 27V18.0518H136.237V19.4131H136.37C136.569 18.9316 136.874 18.5581 137.283 18.2925C137.698 18.0269 138.199 17.894 138.786 17.894C139.19 17.894 139.552 17.9604 139.873 18.0933C140.194 18.2261 140.471 18.4115 140.703 18.6494C140.936 18.8818 141.121 19.153 141.259 19.4629H141.392C141.553 19.1475 141.768 18.8735 142.04 18.6411C142.311 18.4032 142.623 18.2205 142.978 18.0933C143.337 17.9604 143.722 17.894 144.131 17.894C144.74 17.894 145.255 18.0075 145.675 18.2344C146.101 18.4613 146.425 18.7933 146.646 19.2305C146.868 19.6621 146.979 20.1906 146.979 20.8159V27H145.534V21.1479C145.534 20.7052 145.465 20.34 145.327 20.0522C145.194 19.759 144.989 19.5404 144.712 19.3965C144.436 19.2471 144.087 19.1724 143.667 19.1724C143.251 19.1724 142.889 19.2664 142.579 19.4546C142.269 19.6427 142.028 19.8945 141.857 20.21C141.685 20.5199 141.6 20.8657 141.6 21.2476V27H140.155V20.9238C140.155 20.5697 140.078 20.2625 139.923 20.0024C139.773 19.7368 139.558 19.5321 139.275 19.3882C138.999 19.2443 138.672 19.1724 138.296 19.1724C137.909 19.1724 137.557 19.2747 137.242 19.4795C136.932 19.6842 136.686 19.9609 136.503 20.3096C136.326 20.6527 136.237 21.0345 136.237 21.4551V27H134.793ZM153.262 27.1577C152.416 27.1577 151.682 26.9723 151.062 26.6016C150.448 26.2253 149.972 25.6912 149.635 24.9995C149.303 24.3078 149.137 23.486 149.137 22.5342V22.5176C149.137 21.5602 149.303 20.7357 149.635 20.0439C149.972 19.3522 150.448 18.821 151.062 18.4502C151.682 18.0794 152.416 17.894 153.262 17.894C154.114 17.894 154.848 18.0794 155.462 18.4502C156.076 18.821 156.549 19.3522 156.881 20.0439C157.219 20.7357 157.388 21.5602 157.388 22.5176V22.5342C157.388 23.486 157.219 24.3078 156.881 24.9995C156.549 25.6912 156.076 26.2253 155.462 26.6016C154.848 26.9723 154.114 27.1577 153.262 27.1577ZM153.262 25.8794C153.827 25.8794 154.305 25.7466 154.698 25.481C155.091 25.2153 155.39 24.8335 155.595 24.3354C155.805 23.8374 155.91 23.237 155.91 22.5342V22.5176C155.91 21.8092 155.805 21.2061 155.595 20.708C155.39 20.21 155.091 19.8309 154.698 19.5708C154.305 19.3052 153.827 19.1724 153.262 19.1724C152.698 19.1724 152.219 19.3052 151.826 19.5708C151.433 19.8309 151.132 20.21 150.921 20.708C150.717 21.2061 150.614 21.8092 150.614 22.5176V22.5342C150.614 23.237 150.717 23.8374 150.921 24.3354C151.132 24.8335 151.433 25.2153 151.826 25.481C152.219 25.7466 152.698 25.8794 153.262 25.8794ZM162.933 27.1577C162.18 27.1577 161.521 26.9668 160.957 26.585C160.393 26.2031 159.955 25.6663 159.646 24.9746C159.336 24.2773 159.181 23.4639 159.181 22.5342V22.5176C159.181 21.5824 159.336 20.7689 159.646 20.0771C159.955 19.3854 160.39 18.8486 160.949 18.4668C161.513 18.085 162.174 17.894 162.933 17.894C163.342 17.894 163.727 17.9604 164.086 18.0933C164.452 18.2205 164.775 18.4004 165.058 18.6328C165.34 18.8652 165.561 19.1419 165.722 19.4629H165.854V14.499H167.299V27H165.854V25.5723H165.722C165.539 25.9043 165.309 26.1893 165.033 26.4272C164.756 26.6597 164.441 26.8395 164.086 26.9668C163.732 27.0941 163.348 27.1577 162.933 27.1577ZM163.265 25.8794C163.807 25.8794 164.275 25.7438 164.667 25.4727C165.06 25.2015 165.362 24.8169 165.572 24.3188C165.783 23.8153 165.888 23.2204 165.888 22.5342V22.5176C165.888 21.8258 165.783 21.231 165.572 20.7329C165.362 20.2349 165.06 19.8503 164.667 19.5791C164.275 19.3079 163.807 19.1724 163.265 19.1724C162.722 19.1724 162.255 19.3079 161.862 19.5791C161.474 19.8447 161.176 20.2266 160.965 20.7246C160.761 21.2227 160.658 21.8203 160.658 22.5176V22.5342C160.658 23.2259 160.761 23.8236 160.965 24.3271C161.176 24.8252 161.474 25.2098 161.862 25.481C162.255 25.7466 162.722 25.8794 163.265 25.8794ZM173.749 27.1577C172.902 27.1577 172.169 26.9723 171.549 26.6016C170.935 26.2253 170.459 25.6912 170.121 24.9995C169.789 24.3078 169.623 23.486 169.623 22.5342V22.5176C169.623 21.5602 169.789 20.7357 170.121 20.0439C170.459 19.3522 170.935 18.821 171.549 18.4502C172.169 18.0794 172.902 17.894 173.749 17.894C174.601 17.894 175.334 18.0794 175.948 18.4502C176.562 18.821 177.036 19.3522 177.368 20.0439C177.705 20.7357 177.874 21.5602 177.874 22.5176V22.5342C177.874 23.486 177.705 24.3078 177.368 24.9995C177.036 25.6912 176.562 26.2253 175.948 26.6016C175.334 26.9723 174.601 27.1577 173.749 27.1577ZM173.749 25.8794C174.313 25.8794 174.792 25.7466 175.185 25.481C175.577 25.2153 175.876 24.8335 176.081 24.3354C176.291 23.8374 176.396 23.237 176.396 22.5342V22.5176C176.396 21.8092 176.291 21.2061 176.081 20.708C175.876 20.21 175.577 19.8309 175.185 19.5708C174.792 19.3052 174.313 19.1724 173.749 19.1724C173.184 19.1724 172.705 19.3052 172.312 19.5708C171.92 19.8309 171.618 20.21 171.408 20.708C171.203 21.2061 171.101 21.8092 171.101 22.5176V22.5342C171.101 23.237 171.203 23.8374 171.408 24.3354C171.618 24.8335 171.92 25.2153 172.312 25.481C172.705 25.7466 173.184 25.8794 173.749 25.8794ZM180.115 27V18.0518H181.56V19.3799H181.692C181.864 18.9095 182.154 18.5443 182.564 18.2842C182.973 18.0241 183.48 17.894 184.083 17.894C184.221 17.894 184.357 17.9023 184.49 17.9189C184.628 17.93 184.733 17.9411 184.805 17.9521V19.355C184.656 19.3273 184.509 19.3079 184.365 19.2969C184.227 19.2803 184.077 19.272 183.917 19.272C183.458 19.272 183.051 19.3633 182.697 19.5459C182.343 19.7285 182.063 19.9831 181.858 20.3096C181.659 20.6361 181.56 21.0179 181.56 21.4551V27H180.115ZM190.018 27.1577C189.171 27.1577 188.438 26.9723 187.818 26.6016C187.204 26.2253 186.728 25.6912 186.391 24.9995C186.059 24.3078 185.893 23.486 185.893 22.5342V22.5176C185.893 21.5602 186.059 20.7357 186.391 20.0439C186.728 19.3522 187.204 18.821 187.818 18.4502C188.438 18.0794 189.171 17.894 190.018 17.894C190.87 17.894 191.604 18.0794 192.218 18.4502C192.832 18.821 193.305 19.3522 193.637 20.0439C193.975 20.7357 194.144 21.5602 194.144 22.5176V22.5342C194.144 23.486 193.975 24.3078 193.637 24.9995C193.305 25.6912 192.832 26.2253 192.218 26.6016C191.604 26.9723 190.87 27.1577 190.018 27.1577ZM190.018 25.8794C190.583 25.8794 191.061 25.7466 191.454 25.481C191.847 25.2153 192.146 24.8335 192.351 24.3354C192.561 23.8374 192.666 23.237 192.666 22.5342V22.5176C192.666 21.8092 192.561 21.2061 192.351 20.708C192.146 20.21 191.847 19.8309 191.454 19.5708C191.061 19.3052 190.583 19.1724 190.018 19.1724C189.454 19.1724 188.975 19.3052 188.582 19.5708C188.189 19.8309 187.888 20.21 187.677 20.708C187.472 21.2061 187.37 21.8092 187.37 22.5176V22.5342C187.37 23.237 187.472 23.8374 187.677 24.3354C187.888 24.8335 188.189 25.2153 188.582 25.481C188.975 25.7466 189.454 25.8794 190.018 25.8794ZM204.827 27.1577C203.991 27.1577 203.266 26.9668 202.652 26.585C202.038 26.2031 201.562 25.6636 201.224 24.9663C200.887 24.269 200.718 23.4473 200.718 22.501V22.4844C200.718 21.5547 200.884 20.7467 201.216 20.0605C201.553 19.3743 202.029 18.8431 202.644 18.4668C203.258 18.085 203.983 17.894 204.818 17.894C205.543 17.894 206.169 18.0213 206.694 18.2759C207.22 18.5304 207.641 18.8735 207.956 19.3052C208.271 19.7313 208.473 20.21 208.562 20.7412L208.57 20.791H207.134L207.126 20.7661C207.015 20.3234 206.764 19.9471 206.371 19.6372C205.978 19.3273 205.46 19.1724 204.818 19.1724C204.282 19.1724 203.817 19.3079 203.424 19.5791C203.031 19.8503 202.727 20.2349 202.511 20.7329C202.3 21.2254 202.195 21.8092 202.195 22.4844V22.501C202.195 23.1872 202.303 23.7848 202.519 24.2939C202.735 24.7975 203.039 25.1877 203.432 25.4644C203.825 25.741 204.287 25.8794 204.818 25.8794C205.422 25.8794 205.914 25.7493 206.296 25.4893C206.678 25.2292 206.952 24.8501 207.118 24.3521L207.134 24.3022L208.562 24.2939L208.545 24.3853C208.424 24.922 208.208 25.4007 207.898 25.8213C207.588 26.2363 207.179 26.5628 206.669 26.8008C206.16 27.0387 205.546 27.1577 204.827 27.1577ZM214.356 27.1577C213.509 27.1577 212.776 26.9723 212.156 26.6016C211.542 26.2253 211.066 25.6912 210.729 24.9995C210.396 24.3078 210.23 23.486 210.23 22.5342V22.5176C210.23 21.5602 210.396 20.7357 210.729 20.0439C211.066 19.3522 211.542 18.821 212.156 18.4502C212.776 18.0794 213.509 17.894 214.356 17.894C215.208 17.894 215.941 18.0794 216.556 18.4502C217.17 18.821 217.643 19.3522 217.975 20.0439C218.313 20.7357 218.481 21.5602 218.481 22.5176V22.5342C218.481 23.486 218.313 24.3078 217.975 24.9995C217.643 25.6912 217.17 26.2253 216.556 26.6016C215.941 26.9723 215.208 27.1577 214.356 27.1577ZM214.356 25.8794C214.92 25.8794 215.399 25.7466 215.792 25.481C216.185 25.2153 216.484 24.8335 216.688 24.3354C216.899 23.8374 217.004 23.237 217.004 22.5342V22.5176C217.004 21.8092 216.899 21.2061 216.688 20.708C216.484 20.21 216.185 19.8309 215.792 19.5708C215.399 19.3052 214.92 19.1724 214.356 19.1724C213.792 19.1724 213.313 19.3052 212.92 19.5708C212.527 19.8309 212.225 20.21 212.015 20.708C211.81 21.2061 211.708 21.8092 211.708 22.5176V22.5342C211.708 23.237 211.81 23.8374 212.015 24.3354C212.225 24.8335 212.527 25.2153 212.92 25.481C213.313 25.7466 213.792 25.8794 214.356 25.8794ZM220.723 27V18.0518H222.167V19.3965H222.3C222.527 18.9206 222.853 18.5526 223.279 18.2925C223.705 18.0269 224.248 17.894 224.906 17.894C225.913 17.894 226.685 18.1818 227.222 18.7573C227.764 19.3273 228.036 20.1436 228.036 21.2061V27H226.591V21.5547C226.591 20.7467 226.42 20.1491 226.077 19.7617C225.739 19.3688 225.213 19.1724 224.5 19.1724C224.024 19.1724 223.611 19.2747 223.263 19.4795C222.914 19.6842 222.643 19.9748 222.449 20.3511C222.261 20.7274 222.167 21.1784 222.167 21.7041V27H220.723ZM233.722 27.1577C233.058 27.1577 232.471 27.0581 231.962 26.8589C231.453 26.6541 231.043 26.3691 230.733 26.0039C230.429 25.6387 230.249 25.2098 230.194 24.7173H231.671C231.793 25.0881 232.031 25.3869 232.385 25.6138C232.739 25.8407 233.201 25.9541 233.771 25.9541C234.175 25.9541 234.53 25.896 234.834 25.7798C235.144 25.658 235.387 25.4948 235.564 25.29C235.742 25.0798 235.83 24.839 235.83 24.5679V24.5513C235.83 24.2469 235.708 23.9896 235.465 23.7793C235.221 23.5635 234.823 23.3892 234.27 23.2563L232.883 22.9243C232.324 22.7915 231.865 22.62 231.505 22.4097C231.146 22.1938 230.88 21.931 230.708 21.6211C230.537 21.3057 230.451 20.9349 230.451 20.5088V20.5005C230.451 20.0024 230.595 19.557 230.883 19.1641C231.176 18.7712 231.575 18.4613 232.078 18.2344C232.582 18.0075 233.149 17.894 233.78 17.894C234.405 17.894 234.958 17.9937 235.44 18.1929C235.927 18.3866 236.317 18.6632 236.61 19.0229C236.909 19.3826 237.092 19.806 237.158 20.293H235.739C235.645 19.9388 235.429 19.651 235.091 19.4297C234.754 19.2083 234.314 19.0977 233.771 19.0977C233.417 19.0977 233.102 19.1558 232.825 19.272C232.549 19.3826 232.33 19.5376 232.169 19.7368C232.009 19.936 231.929 20.1685 231.929 20.4341V20.4507C231.929 20.6499 231.981 20.827 232.086 20.9819C232.192 21.1369 232.355 21.2725 232.576 21.3887C232.798 21.5049 233.083 21.6073 233.431 21.6958L234.809 22.0278C235.65 22.2326 236.276 22.5259 236.685 22.9077C237.1 23.2896 237.308 23.8014 237.308 24.4434V24.46C237.308 24.9912 237.15 25.4616 236.834 25.8711C236.519 26.2751 236.09 26.5905 235.548 26.8174C235.011 27.0443 234.402 27.1577 233.722 27.1577ZM239.582 27V18.0518H241.026V27H239.582ZM240.312 16.3252C240.041 16.3252 239.806 16.2284 239.607 16.0347C239.413 15.8354 239.316 15.6003 239.316 15.3291C239.316 15.0524 239.413 14.8172 239.607 14.6235C239.806 14.4299 240.041 14.333 240.312 14.333C240.589 14.333 240.824 14.4299 241.018 14.6235C241.212 14.8172 241.309 15.0524 241.309 15.3291C241.309 15.6003 241.212 15.8354 241.018 16.0347C240.824 16.2284 240.589 16.3252 240.312 16.3252ZM246.82 27.1577C246.156 27.1577 245.57 27.0581 245.061 26.8589C244.551 26.6541 244.142 26.3691 243.832 26.0039C243.528 25.6387 243.348 25.2098 243.292 24.7173H244.77C244.892 25.0881 245.13 25.3869 245.484 25.6138C245.838 25.8407 246.3 25.9541 246.87 25.9541C247.274 25.9541 247.628 25.896 247.933 25.7798C248.243 25.658 248.486 25.4948 248.663 25.29C248.84 25.0798 248.929 24.839 248.929 24.5679V24.5513C248.929 24.2469 248.807 23.9896 248.563 23.7793C248.32 23.5635 247.922 23.3892 247.368 23.2563L245.982 22.9243C245.423 22.7915 244.964 22.62 244.604 22.4097C244.244 22.1938 243.979 21.931 243.807 21.6211C243.636 21.3057 243.55 20.9349 243.55 20.5088V20.5005C243.55 20.0024 243.694 19.557 243.981 19.1641C244.275 18.7712 244.673 18.4613 245.177 18.2344C245.68 18.0075 246.248 17.894 246.878 17.894C247.504 17.894 248.057 17.9937 248.539 18.1929C249.026 18.3866 249.416 18.6632 249.709 19.0229C250.008 19.3826 250.19 19.806 250.257 20.293H248.837C248.743 19.9388 248.528 19.651 248.19 19.4297C247.852 19.2083 247.412 19.0977 246.87 19.0977C246.516 19.0977 246.201 19.1558 245.924 19.272C245.647 19.3826 245.429 19.5376 245.268 19.7368C245.108 19.936 245.027 20.1685 245.027 20.4341V20.4507C245.027 20.6499 245.08 20.827 245.185 20.9819C245.29 21.1369 245.453 21.2725 245.675 21.3887C245.896 21.5049 246.181 21.6073 246.53 21.6958L247.908 22.0278C248.749 22.2326 249.374 22.5259 249.784 22.9077C250.199 23.2896 250.406 23.8014 250.406 24.4434V24.46C250.406 24.9912 250.249 25.4616 249.933 25.8711C249.618 26.2751 249.189 26.5905 248.646 26.8174C248.11 27.0443 247.501 27.1577 246.82 27.1577ZM255.744 27.0664C254.825 27.0664 254.158 26.881 253.743 26.5103C253.334 26.1395 253.129 25.528 253.129 24.6758V19.2471H251.718V18.0518H253.129V15.7358H254.623V18.0518H256.582V19.2471H254.623V24.3105C254.623 24.8363 254.723 25.2153 254.922 25.4478C255.121 25.6746 255.453 25.7881 255.918 25.7881C256.045 25.7881 256.153 25.7853 256.242 25.7798C256.336 25.7743 256.449 25.766 256.582 25.7549V26.9834C256.444 27.0055 256.305 27.0249 256.167 27.0415C256.029 27.0581 255.888 27.0664 255.744 27.0664ZM261.646 27.1577C260.981 27.1577 260.395 27.0581 259.886 26.8589C259.377 26.6541 258.967 26.3691 258.657 26.0039C258.353 25.6387 258.173 25.2098 258.118 24.7173H259.595C259.717 25.0881 259.955 25.3869 260.309 25.6138C260.663 25.8407 261.125 25.9541 261.695 25.9541C262.099 25.9541 262.453 25.896 262.758 25.7798C263.068 25.658 263.311 25.4948 263.488 25.29C263.665 25.0798 263.754 24.839 263.754 24.5679V24.5513C263.754 24.2469 263.632 23.9896 263.389 23.7793C263.145 23.5635 262.747 23.3892 262.193 23.2563L260.807 22.9243C260.248 22.7915 259.789 22.62 259.429 22.4097C259.069 22.1938 258.804 21.931 258.632 21.6211C258.461 21.3057 258.375 20.9349 258.375 20.5088V20.5005C258.375 20.0024 258.519 19.557 258.807 19.1641C259.1 18.7712 259.498 18.4613 260.002 18.2344C260.506 18.0075 261.073 17.894 261.704 17.894C262.329 17.894 262.882 17.9937 263.364 18.1929C263.851 18.3866 264.241 18.6632 264.534 19.0229C264.833 19.3826 265.016 19.806 265.082 20.293H263.663C263.569 19.9388 263.353 19.651 263.015 19.4297C262.678 19.2083 262.238 19.0977 261.695 19.0977C261.341 19.0977 261.026 19.1558 260.749 19.272C260.472 19.3826 260.254 19.5376 260.093 19.7368C259.933 19.936 259.853 20.1685 259.853 20.4341V20.4507C259.853 20.6499 259.905 20.827 260.01 20.9819C260.115 21.1369 260.279 21.2725 260.5 21.3887C260.721 21.5049 261.006 21.6073 261.355 21.6958L262.733 22.0278C263.574 22.2326 264.199 22.5259 264.609 22.9077C265.024 23.2896 265.231 23.8014 265.231 24.4434V24.46C265.231 24.9912 265.074 25.4616 264.758 25.8711C264.443 26.2751 264.014 26.5905 263.472 26.8174C262.935 27.0443 262.326 27.1577 261.646 27.1577ZM275.931 27.1577C275.084 27.1577 274.351 26.9723 273.731 26.6016C273.117 26.2253 272.641 25.6912 272.304 24.9995C271.972 24.3078 271.806 23.486 271.806 22.5342V22.5176C271.806 21.5602 271.972 20.7357 272.304 20.0439C272.641 19.3522 273.117 18.821 273.731 18.4502C274.351 18.0794 275.084 17.894 275.931 17.894C276.783 17.894 277.517 18.0794 278.131 18.4502C278.745 18.821 279.218 19.3522 279.55 20.0439C279.888 20.7357 280.057 21.5602 280.057 22.5176V22.5342C280.057 23.486 279.888 24.3078 279.55 24.9995C279.218 25.6912 278.745 26.2253 278.131 26.6016C277.517 26.9723 276.783 27.1577 275.931 27.1577ZM275.931 25.8794C276.496 25.8794 276.974 25.7466 277.367 25.481C277.76 25.2153 278.059 24.8335 278.264 24.3354C278.474 23.8374 278.579 23.237 278.579 22.5342V22.5176C278.579 21.8092 278.474 21.2061 278.264 20.708C278.059 20.21 277.76 19.8309 277.367 19.5708C276.974 19.3052 276.496 19.1724 275.931 19.1724C275.367 19.1724 274.888 19.3052 274.495 19.5708C274.102 19.8309 273.801 20.21 273.59 20.708C273.386 21.2061 273.283 21.8092 273.283 22.5176V22.5342C273.283 23.237 273.386 23.8374 273.59 24.3354C273.801 24.8335 274.102 25.2153 274.495 25.481C274.888 25.7466 275.367 25.8794 275.931 25.8794ZM282.896 27V19.2471H281.41V18.0518H282.896V17.0557C282.896 16.458 282.992 15.9655 283.186 15.5781C283.385 15.1852 283.679 14.8947 284.066 14.7065C284.453 14.5129 284.929 14.416 285.494 14.416C285.671 14.416 285.837 14.4243 285.992 14.4409C286.152 14.452 286.307 14.4714 286.457 14.499V15.6528C286.368 15.6362 286.266 15.6252 286.149 15.6196C286.033 15.6141 285.911 15.6113 285.784 15.6113C285.27 15.6113 284.899 15.7358 284.672 15.9849C284.451 16.2339 284.34 16.6047 284.34 17.0972V18.0518H286.374V19.2471H284.34V27H282.896ZM296.16 27V16.6821H296.027L292.981 18.8901V17.313L296.168 15.022H297.654V27H296.16ZM15.5273 47V35.022H22.7988V36.3667H17.0215V40.4839H22.3257V41.812H17.0215V47H15.5273ZM28.7505 47.1577C27.9038 47.1577 27.1706 46.9723 26.5508 46.6016C25.9365 46.2253 25.4606 45.6912 25.123 44.9995C24.791 44.3078 24.625 43.486 24.625 42.5342V42.5176C24.625 41.5602 24.791 40.7357 25.123 40.0439C25.4606 39.3522 25.9365 38.821 26.5508 38.4502C27.1706 38.0794 27.9038 37.894 28.7505 37.894C29.6027 37.894 30.3359 38.0794 30.9502 38.4502C31.5645 38.821 32.0376 39.3522 32.3696 40.0439C32.7072 40.7357 32.876 41.5602 32.876 42.5176V42.5342C32.876 43.486 32.7072 44.3078 32.3696 44.9995C32.0376 45.6912 31.5645 46.2253 30.9502 46.6016C30.3359 46.9723 29.6027 47.1577 28.7505 47.1577ZM28.7505 45.8794C29.3149 45.8794 29.7936 45.7466 30.1865 45.481C30.5794 45.2153 30.8783 44.8335 31.083 44.3354C31.2933 43.8374 31.3984 43.237 31.3984 42.5342V42.5176C31.3984 41.8092 31.2933 41.2061 31.083 40.708C30.8783 40.21 30.5794 39.8309 30.1865 39.5708C29.7936 39.3052 29.3149 39.1724 28.7505 39.1724C28.186 39.1724 27.7074 39.3052 27.3145 39.5708C26.9215 39.8309 26.62 40.21 26.4097 40.708C26.2049 41.2061 26.1025 41.8092 26.1025 42.5176V42.5342C26.1025 43.237 26.2049 43.8374 26.4097 44.3354C26.62 44.8335 26.9215 45.2153 27.3145 45.481C27.7074 45.7466 28.186 45.8794 28.7505 45.8794ZM38.7778 47.1577C37.9422 47.1577 37.2173 46.9668 36.603 46.585C35.9888 46.2031 35.5129 45.6636 35.1753 44.9663C34.8377 44.269 34.6689 43.4473 34.6689 42.501V42.4844C34.6689 41.5547 34.835 40.7467 35.167 40.0605C35.5046 39.3743 35.9805 38.8431 36.5947 38.4668C37.209 38.085 37.9339 37.894 38.7695 37.894C39.4945 37.894 40.1198 38.0213 40.6455 38.2759C41.1712 38.5304 41.5918 38.8735 41.9072 39.3052C42.2227 39.7313 42.4246 40.21 42.5132 40.7412L42.5215 40.791H41.0854L41.0771 40.7661C40.9665 40.3234 40.7147 39.9471 40.3218 39.6372C39.9289 39.3273 39.4115 39.1724 38.7695 39.1724C38.2327 39.1724 37.7679 39.3079 37.375 39.5791C36.9821 39.8503 36.6777 40.2349 36.4619 40.7329C36.2516 41.2254 36.1465 41.8092 36.1465 42.4844V42.501C36.1465 43.1872 36.2544 43.7848 36.4702 44.2939C36.686 44.7975 36.9904 45.1877 37.3833 45.4644C37.7762 45.741 38.2383 45.8794 38.7695 45.8794C39.3727 45.8794 39.8652 45.7493 40.2471 45.4893C40.6289 45.2292 40.9028 44.8501 41.0688 44.3521L41.0854 44.3022L42.5132 44.2939L42.4966 44.3853C42.3748 44.922 42.159 45.4007 41.8491 45.8213C41.5392 46.2363 41.1297 46.5628 40.6206 46.8008C40.1115 47.0387 39.4972 47.1577 38.7778 47.1577ZM47.6265 47.1577C46.9513 47.1577 46.3841 47.0304 45.9248 46.7759C45.4655 46.5158 45.1196 46.1395 44.8872 45.647C44.6603 45.1489 44.5469 44.5485 44.5469 43.8457V38.0518H45.9912V43.4971C45.9912 44.2995 46.1462 44.8971 46.4561 45.29C46.7715 45.6829 47.2861 45.8794 48 45.8794C48.3929 45.8794 48.7388 45.8213 49.0376 45.7051C49.342 45.5889 49.5965 45.4229 49.8013 45.207C50.006 44.9857 50.1582 44.7201 50.2578 44.4102C50.363 44.0947 50.4155 43.7406 50.4155 43.3477V38.0518H51.8599V47H50.4155V45.6636H50.2827C50.1388 45.979 49.9424 46.2502 49.6934 46.4771C49.4443 46.6984 49.1455 46.8672 48.7969 46.9834C48.4538 47.0996 48.0636 47.1577 47.6265 47.1577ZM57.6289 47.1577C56.9648 47.1577 56.3783 47.0581 55.8691 46.8589C55.36 46.6541 54.9505 46.3691 54.6406 46.0039C54.3363 45.6387 54.1564 45.2098 54.1011 44.7173H55.5786C55.7004 45.0881 55.9383 45.3869 56.2925 45.6138C56.6466 45.8407 57.1087 45.9541 57.6787 45.9541C58.0827 45.9541 58.4368 45.896 58.7412 45.7798C59.0511 45.658 59.2946 45.4948 59.4717 45.29C59.6488 45.0798 59.7373 44.839 59.7373 44.5679V44.5513C59.7373 44.2469 59.6156 43.9896 59.3721 43.7793C59.1286 43.5635 58.7301 43.3892 58.1768 43.2563L56.7905 42.9243C56.2316 42.7915 55.7723 42.62 55.4126 42.4097C55.0529 42.1938 54.7873 41.931 54.6157 41.6211C54.4442 41.3057 54.3584 40.9349 54.3584 40.5088V40.5005C54.3584 40.0024 54.5023 39.557 54.79 39.1641C55.0833 38.7712 55.4818 38.4613 55.9854 38.2344C56.4889 38.0075 57.0562 37.894 57.687 37.894C58.3123 37.894 58.8657 37.9937 59.3472 38.1929C59.8341 38.3866 60.2243 38.6632 60.5176 39.0229C60.8164 39.3826 60.999 39.806 61.0654 40.293H59.646C59.5519 39.9388 59.3361 39.651 58.9985 39.4297C58.661 39.2083 58.221 39.0977 57.6787 39.0977C57.3245 39.0977 57.0091 39.1558 56.7324 39.272C56.4557 39.3826 56.2371 39.5376 56.0767 39.7368C55.9162 39.936 55.8359 40.1685 55.8359 40.4341V40.4507C55.8359 40.6499 55.8885 40.827 55.9937 40.9819C56.0988 41.1369 56.262 41.2725 56.4834 41.3887C56.7048 41.5049 56.9897 41.6073 57.3384 41.6958L58.7163 42.0278C59.5575 42.2326 60.1828 42.5259 60.5923 42.9077C61.0073 43.2896 61.2148 43.8014 61.2148 44.4434V44.46C61.2148 44.9912 61.0571 45.4616 60.7417 45.8711C60.4263 46.2751 59.9974 46.5905 59.4551 46.8174C58.9183 47.0443 58.3096 47.1577 57.6289 47.1577ZM72.3462 47.2822C71.4718 47.2822 70.7082 47.1411 70.0552 46.8589C69.4077 46.5711 68.8931 46.1782 68.5112 45.6802C68.1349 45.1766 67.9163 44.6011 67.8555 43.9536L67.8472 43.8623H69.3413L69.3496 43.9536C69.3883 44.3521 69.5405 44.6979 69.8062 44.9912C70.0773 45.279 70.437 45.5031 70.8853 45.6636C71.339 45.8241 71.8537 45.9043 72.4292 45.9043C72.9715 45.9043 73.453 45.8185 73.8735 45.647C74.2996 45.4699 74.6344 45.2264 74.8779 44.9165C75.1214 44.6066 75.2432 44.2497 75.2432 43.8457V43.8374C75.2432 43.3394 75.0605 42.9215 74.6953 42.584C74.3301 42.2409 73.7352 41.978 72.9106 41.7954L71.5825 41.5049C70.3817 41.2393 69.5073 40.8298 68.9595 40.2764C68.4172 39.7174 68.146 39.0036 68.146 38.1348V38.1265C68.1515 37.4624 68.3314 36.8758 68.6855 36.3667C69.0452 35.8576 69.5405 35.4591 70.1714 35.1714C70.8078 34.8836 71.5382 34.7397 72.3628 34.7397C73.1597 34.7397 73.8652 34.8836 74.4795 35.1714C75.0938 35.4536 75.5807 35.8354 75.9404 36.3169C76.3057 36.7983 76.5076 37.3379 76.5464 37.9355L76.5547 38.0518H75.0605L75.0439 37.9438C74.9886 37.5897 74.8447 37.277 74.6123 37.0059C74.3799 36.7292 74.07 36.5106 73.6826 36.3501C73.2952 36.1896 72.8415 36.1121 72.3213 36.1177C71.8232 36.1177 71.375 36.1951 70.9766 36.3501C70.5781 36.505 70.2599 36.7292 70.022 37.0225C69.7896 37.3102 69.6733 37.6644 69.6733 38.085V38.0933C69.6733 38.5692 69.8504 38.9704 70.2046 39.2969C70.5588 39.6234 71.1426 39.8752 71.9561 40.0522L73.2842 40.3511C74.1198 40.5337 74.7922 40.7716 75.3013 41.0649C75.8104 41.3582 76.1812 41.7179 76.4136 42.144C76.6515 42.5646 76.7705 43.0627 76.7705 43.6382V43.6465C76.7705 44.3936 76.5879 45.0382 76.2227 45.5806C75.8574 46.1229 75.3428 46.5435 74.6787 46.8423C74.0146 47.1356 73.2371 47.2822 72.3462 47.2822ZM82.7305 47.1577C81.8783 47.1577 81.145 46.9696 80.5308 46.5933C79.922 46.217 79.4517 45.6857 79.1196 44.9995C78.7931 44.3078 78.6299 43.4943 78.6299 42.5591V42.5508C78.6299 41.6266 78.7931 40.8159 79.1196 40.1187C79.4517 39.4214 79.9193 38.8763 80.5225 38.4834C81.1257 38.0905 81.8312 37.894 82.6392 37.894C83.4526 37.894 84.1499 38.0822 84.731 38.4585C85.3175 38.8348 85.7658 39.3605 86.0757 40.0356C86.3911 40.7052 86.5488 41.4855 86.5488 42.3765V42.9409H79.377V41.7871H85.8101L85.0962 42.8413V42.2686C85.0962 41.5658 84.991 40.9875 84.7808 40.5337C84.5705 40.0799 84.2799 39.7424 83.9092 39.521C83.5384 39.2941 83.1123 39.1807 82.6309 39.1807C82.1494 39.1807 81.7178 39.2996 81.3359 39.5376C80.9596 39.77 80.6608 40.1159 80.4395 40.5752C80.2181 41.0345 80.1074 41.599 80.1074 42.2686V42.8413C80.1074 43.4777 80.2153 44.0228 80.4312 44.4766C80.647 44.9248 80.9541 45.2707 81.3525 45.5142C81.751 45.7521 82.2214 45.8711 82.7637 45.8711C83.1676 45.8711 83.519 45.8158 83.8179 45.7051C84.1167 45.5944 84.363 45.4533 84.5566 45.2817C84.7503 45.1102 84.8859 44.9359 84.9634 44.7588L84.9966 44.6841H86.4409L86.4243 44.7505C86.3468 45.0549 86.2085 45.3509 86.0093 45.6387C85.8156 45.9209 85.5638 46.1782 85.2539 46.4106C84.944 46.6375 84.576 46.8201 84.1499 46.9585C83.7293 47.0913 83.2562 47.1577 82.7305 47.1577ZM91.8613 47.1577C91.1973 47.1577 90.6107 47.0581 90.1016 46.8589C89.5924 46.6541 89.1829 46.3691 88.873 46.0039C88.5687 45.6387 88.3888 45.2098 88.3335 44.7173H89.811C89.9328 45.0881 90.1707 45.3869 90.5249 45.6138C90.8791 45.8407 91.3411 45.9541 91.9111 45.9541C92.3151 45.9541 92.6693 45.896 92.9736 45.7798C93.2835 45.658 93.527 45.4948 93.7041 45.29C93.8812 45.0798 93.9697 44.839 93.9697 44.5679V44.5513C93.9697 44.2469 93.848 43.9896 93.6045 43.7793C93.361 43.5635 92.9626 43.3892 92.4092 43.2563L91.0229 42.9243C90.464 42.7915 90.0047 42.62 89.645 42.4097C89.2853 42.1938 89.0197 41.931 88.8481 41.6211C88.6766 41.3057 88.5908 40.9349 88.5908 40.5088V40.5005C88.5908 40.0024 88.7347 39.557 89.0225 39.1641C89.3158 38.7712 89.7142 38.4613 90.2178 38.2344C90.7214 38.0075 91.2886 37.894 91.9194 37.894C92.5448 37.894 93.0981 37.9937 93.5796 38.1929C94.0666 38.3866 94.4567 38.6632 94.75 39.0229C95.0488 39.3826 95.2314 39.806 95.2979 40.293H93.8784C93.7843 39.9388 93.5685 39.651 93.231 39.4297C92.8934 39.2083 92.4535 39.0977 91.9111 39.0977C91.557 39.0977 91.2415 39.1558 90.9648 39.272C90.6882 39.3826 90.4696 39.5376 90.3091 39.7368C90.1486 39.936 90.0684 40.1685 90.0684 40.4341V40.4507C90.0684 40.6499 90.1209 40.827 90.2261 40.9819C90.3312 41.1369 90.4945 41.2725 90.7158 41.3887C90.9372 41.5049 91.2222 41.6073 91.5708 41.6958L92.9487 42.0278C93.7899 42.2326 94.4152 42.5259 94.8247 42.9077C95.2397 43.2896 95.4473 43.8014 95.4473 44.4434V44.46C95.4473 44.9912 95.2896 45.4616 94.9741 45.8711C94.6587 46.2751 94.2298 46.5905 93.6875 46.8174C93.1507 47.0443 92.542 47.1577 91.8613 47.1577ZM100.594 47.1577C99.9297 47.1577 99.3431 47.0581 98.834 46.8589C98.3249 46.6541 97.9154 46.3691 97.6055 46.0039C97.3011 45.6387 97.1213 45.2098 97.0659 44.7173H98.5435C98.6652 45.0881 98.9032 45.3869 99.2573 45.6138C99.6115 45.8407 100.074 45.9541 100.644 45.9541C101.048 45.9541 101.402 45.896 101.706 45.7798C102.016 45.658 102.259 45.4948 102.437 45.29C102.614 45.0798 102.702 44.839 102.702 44.5679V44.5513C102.702 44.2469 102.58 43.9896 102.337 43.7793C102.093 43.5635 101.695 43.3892 101.142 43.2563L99.7554 42.9243C99.1965 42.7915 98.7371 42.62 98.3774 42.4097C98.0177 42.1938 97.7521 41.931 97.5806 41.6211C97.409 41.3057 97.3232 40.9349 97.3232 40.5088V40.5005C97.3232 40.0024 97.4671 39.557 97.7549 39.1641C98.0482 38.7712 98.4466 38.4613 98.9502 38.2344C99.4538 38.0075 100.021 37.894 100.652 37.894C101.277 37.894 101.831 37.9937 102.312 38.1929C102.799 38.3866 103.189 38.6632 103.482 39.0229C103.781 39.3826 103.964 39.806 104.03 40.293H102.611C102.517 39.9388 102.301 39.651 101.963 39.4297C101.626 39.2083 101.186 39.0977 100.644 39.0977C100.289 39.0977 99.974 39.1558 99.6973 39.272C99.4206 39.3826 99.202 39.5376 99.0415 39.7368C98.881 39.936 98.8008 40.1685 98.8008 40.4341V40.4507C98.8008 40.6499 98.8534 40.827 98.9585 40.9819C99.0636 41.1369 99.2269 41.2725 99.4482 41.3887C99.6696 41.5049 99.9546 41.6073 100.303 41.6958L101.681 42.0278C102.522 42.2326 103.148 42.5259 103.557 42.9077C103.972 43.2896 104.18 43.8014 104.18 44.4434V44.46C104.18 44.9912 104.022 45.4616 103.707 45.8711C103.391 46.2751 102.962 46.5905 102.42 46.8174C101.883 47.0443 101.274 47.1577 100.594 47.1577ZM106.454 47V38.0518H107.898V47H106.454ZM107.185 36.3252C106.913 36.3252 106.678 36.2284 106.479 36.0347C106.285 35.8354 106.188 35.6003 106.188 35.3291C106.188 35.0524 106.285 34.8172 106.479 34.6235C106.678 34.4299 106.913 34.333 107.185 34.333C107.461 34.333 107.696 34.4299 107.89 34.6235C108.084 34.8172 108.181 35.0524 108.181 35.3291C108.181 35.6003 108.084 35.8354 107.89 36.0347C107.696 36.2284 107.461 36.3252 107.185 36.3252ZM114.298 47.1577C113.452 47.1577 112.718 46.9723 112.099 46.6016C111.484 46.2253 111.008 45.6912 110.671 44.9995C110.339 44.3078 110.173 43.486 110.173 42.5342V42.5176C110.173 41.5602 110.339 40.7357 110.671 40.0439C111.008 39.3522 111.484 38.821 112.099 38.4502C112.718 38.0794 113.452 37.894 114.298 37.894C115.151 37.894 115.884 38.0794 116.498 38.4502C117.112 38.821 117.585 39.3522 117.917 40.0439C118.255 40.7357 118.424 41.5602 118.424 42.5176V42.5342C118.424 43.486 118.255 44.3078 117.917 44.9995C117.585 45.6912 117.112 46.2253 116.498 46.6016C115.884 46.9723 115.151 47.1577 114.298 47.1577ZM114.298 45.8794C114.863 45.8794 115.341 45.7466 115.734 45.481C116.127 45.2153 116.426 44.8335 116.631 44.3354C116.841 43.8374 116.946 43.237 116.946 42.5342V42.5176C116.946 41.8092 116.841 41.2061 116.631 40.708C116.426 40.21 116.127 39.8309 115.734 39.5708C115.341 39.3052 114.863 39.1724 114.298 39.1724C113.734 39.1724 113.255 39.3052 112.862 39.5708C112.469 39.8309 112.168 40.21 111.958 40.708C111.753 41.2061 111.65 41.8092 111.65 42.5176V42.5342C111.65 43.237 111.753 43.8374 111.958 44.3354C112.168 44.8335 112.469 45.2153 112.862 45.481C113.255 45.7466 113.734 45.8794 114.298 45.8794ZM120.665 47V38.0518H122.109V39.3965H122.242C122.469 38.9206 122.796 38.5526 123.222 38.2925C123.648 38.0269 124.19 37.894 124.849 37.894C125.856 37.894 126.628 38.1818 127.165 38.7573C127.707 39.3273 127.978 40.1436 127.978 41.2061V47H126.534V41.5547C126.534 40.7467 126.362 40.1491 126.019 39.7617C125.681 39.3688 125.156 39.1724 124.442 39.1724C123.966 39.1724 123.554 39.2747 123.205 39.4795C122.856 39.6842 122.585 39.9748 122.392 40.3511C122.203 40.7274 122.109 41.1784 122.109 41.7041V47H120.665ZM137.831 47.1577C137.267 47.1577 136.757 47.0498 136.304 46.834C135.855 46.6182 135.499 46.311 135.233 45.9126C134.973 45.5142 134.843 45.0438 134.843 44.5015V44.4849C134.843 43.9536 134.97 43.4998 135.225 43.1235C135.479 42.7417 135.85 42.4429 136.337 42.2271C136.824 42.0112 137.413 41.884 138.105 41.8452L141.392 41.646V42.7998L138.279 42.999C137.599 43.0378 137.101 43.1789 136.785 43.4224C136.475 43.6659 136.32 44.009 136.32 44.4517V44.4683C136.32 44.922 136.492 45.2762 136.835 45.5308C137.178 45.7798 137.61 45.9043 138.13 45.9043C138.622 45.9043 139.06 45.8075 139.441 45.6138C139.823 45.4146 140.122 45.1462 140.338 44.8086C140.559 44.471 140.67 44.0892 140.67 43.6631V40.874C140.67 40.3206 140.501 39.9001 140.164 39.6123C139.832 39.319 139.331 39.1724 138.661 39.1724C138.124 39.1724 137.684 39.2692 137.341 39.4629C136.998 39.651 136.769 39.9194 136.652 40.2681L136.644 40.293H135.2L135.208 40.2432C135.285 39.7728 135.479 39.3633 135.789 39.0146C136.104 38.6605 136.511 38.3866 137.009 38.1929C137.507 37.9937 138.075 37.894 138.711 37.894C139.441 37.894 140.058 38.013 140.562 38.251C141.071 38.4889 141.456 38.832 141.716 39.2803C141.981 39.723 142.114 40.2542 142.114 40.874V47H140.67V45.6802H140.537C140.349 45.9956 140.119 46.264 139.848 46.4854C139.583 46.7067 139.281 46.8755 138.943 46.9917C138.606 47.1024 138.235 47.1577 137.831 47.1577ZM144.754 47V38.0518H146.198V39.3965H146.331C146.558 38.9206 146.884 38.5526 147.311 38.2925C147.737 38.0269 148.279 37.894 148.938 37.894C149.945 37.894 150.717 38.1818 151.253 38.7573C151.796 39.3273 152.067 40.1436 152.067 41.2061V47H150.623V41.5547C150.623 40.7467 150.451 40.1491 150.108 39.7617C149.77 39.3688 149.245 39.1724 148.531 39.1724C148.055 39.1724 147.643 39.2747 147.294 39.4795C146.945 39.6842 146.674 39.9748 146.48 40.3511C146.292 40.7274 146.198 41.1784 146.198 41.7041V47H144.754ZM157.985 47.1577C157.233 47.1577 156.574 46.9668 156.01 46.585C155.445 46.2031 155.008 45.6663 154.698 44.9746C154.388 44.2773 154.233 43.4639 154.233 42.5342V42.5176C154.233 41.5824 154.388 40.7689 154.698 40.0771C155.008 39.3854 155.443 38.8486 156.001 38.4668C156.566 38.085 157.227 37.894 157.985 37.894C158.395 37.894 158.779 37.9604 159.139 38.0933C159.504 38.2205 159.828 38.4004 160.11 38.6328C160.393 38.8652 160.614 39.1419 160.774 39.4629H160.907V34.499H162.352V47H160.907V45.5723H160.774C160.592 45.9043 160.362 46.1893 160.085 46.4272C159.809 46.6597 159.493 46.8395 159.139 46.9668C158.785 47.0941 158.4 47.1577 157.985 47.1577ZM158.317 45.8794C158.86 45.8794 159.327 45.7438 159.72 45.4727C160.113 45.2015 160.415 44.8169 160.625 44.3188C160.835 43.8153 160.94 43.2204 160.94 42.5342V42.5176C160.94 41.8258 160.835 41.231 160.625 40.7329C160.415 40.2349 160.113 39.8503 159.72 39.5791C159.327 39.3079 158.86 39.1724 158.317 39.1724C157.775 39.1724 157.307 39.3079 156.915 39.5791C156.527 39.8447 156.228 40.2266 156.018 40.7246C155.813 41.2227 155.711 41.8203 155.711 42.5176V42.5342C155.711 43.2259 155.813 43.8236 156.018 44.3271C156.228 44.8252 156.527 45.2098 156.915 45.481C157.307 45.7466 157.775 45.8794 158.317 45.8794ZM172.827 47V36.6821H172.694L169.648 38.8901V37.313L172.835 35.022H174.321V47H172.827ZM183.502 47V45.6802H187.204C188.106 45.6802 188.79 45.5003 189.254 45.1406C189.719 44.7809 189.952 44.258 189.952 43.5718V43.5552C189.952 43.0959 189.844 42.7113 189.628 42.4014C189.412 42.0915 189.088 41.859 188.657 41.7041C188.231 41.5492 187.699 41.4717 187.063 41.4717H183.502V40.1851H186.64C187.547 40.1851 188.228 40.0246 188.682 39.7036C189.141 39.3826 189.371 38.9067 189.371 38.2759V38.2593C189.371 37.6506 189.163 37.1802 188.748 36.8481C188.339 36.5106 187.763 36.3418 187.021 36.3418H183.502V35.022H187.337C188.073 35.022 188.704 35.1437 189.229 35.3872C189.761 35.6307 190.167 35.9766 190.45 36.4248C190.737 36.8675 190.881 37.3932 190.881 38.002V38.0186C190.881 38.4336 190.787 38.8237 190.599 39.189C190.417 39.5542 190.17 39.8613 189.86 40.1104C189.55 40.3594 189.202 40.5199 188.814 40.5918V40.7246C189.362 40.791 189.835 40.9543 190.234 41.2144C190.632 41.4744 190.939 41.812 191.155 42.2271C191.377 42.6366 191.487 43.1042 191.487 43.6299V43.6465C191.487 44.3438 191.324 44.9442 190.998 45.4478C190.677 45.9458 190.215 46.3304 189.611 46.6016C189.008 46.8672 188.28 47 187.428 47H183.502ZM182.755 47V35.022H184.249V47H182.755ZM193.745 47V38.0518H195.189V39.3799H195.322C195.494 38.9095 195.784 38.5443 196.194 38.2842C196.603 38.0241 197.11 37.894 197.713 37.894C197.851 37.894 197.987 37.9023 198.12 37.9189C198.258 37.93 198.363 37.9411 198.435 37.9521V39.355C198.286 39.3273 198.139 39.3079 197.995 39.2969C197.857 39.2803 197.707 39.272 197.547 39.272C197.088 39.272 196.681 39.3633 196.327 39.5459C195.972 39.7285 195.693 39.9831 195.488 40.3096C195.289 40.6361 195.189 41.0179 195.189 41.4551V47H193.745ZM203.623 47.1577C202.771 47.1577 202.038 46.9696 201.423 46.5933C200.815 46.217 200.344 45.6857 200.012 44.9995C199.686 44.3078 199.522 43.4943 199.522 42.5591V42.5508C199.522 41.6266 199.686 40.8159 200.012 40.1187C200.344 39.4214 200.812 38.8763 201.415 38.4834C202.018 38.0905 202.724 37.894 203.532 37.894C204.345 37.894 205.042 38.0822 205.624 38.4585C206.21 38.8348 206.658 39.3605 206.968 40.0356C207.284 40.7052 207.441 41.4855 207.441 42.3765V42.9409H200.27V41.7871H206.703L205.989 42.8413V42.2686C205.989 41.5658 205.884 40.9875 205.673 40.5337C205.463 40.0799 205.173 39.7424 204.802 39.521C204.431 39.2941 204.005 39.1807 203.523 39.1807C203.042 39.1807 202.61 39.2996 202.229 39.5376C201.852 39.77 201.553 40.1159 201.332 40.5752C201.111 41.0345 201 41.599 201 42.2686V42.8413C201 43.4777 201.108 44.0228 201.324 44.4766C201.54 44.9248 201.847 45.2707 202.245 45.5142C202.644 45.7521 203.114 45.8711 203.656 45.8711C204.06 45.8711 204.412 45.8158 204.71 45.7051C205.009 45.5944 205.256 45.4533 205.449 45.2817C205.643 45.1102 205.778 44.9359 205.856 44.7588L205.889 44.6841H207.333L207.317 44.7505C207.239 45.0549 207.101 45.3509 206.902 45.6387C206.708 45.9209 206.456 46.1782 206.146 46.4106C205.837 46.6375 205.469 46.8201 205.042 46.9585C204.622 47.0913 204.149 47.1577 203.623 47.1577ZM212.14 47.1577C211.575 47.1577 211.066 47.0498 210.612 46.834C210.164 46.6182 209.807 46.311 209.542 45.9126C209.281 45.5142 209.151 45.0438 209.151 44.5015V44.4849C209.151 43.9536 209.279 43.4998 209.533 43.1235C209.788 42.7417 210.159 42.4429 210.646 42.2271C211.132 42.0112 211.722 41.884 212.414 41.8452L215.701 41.646V42.7998L212.588 42.999C211.907 43.0378 211.409 43.1789 211.094 43.4224C210.784 43.6659 210.629 44.009 210.629 44.4517V44.4683C210.629 44.922 210.8 45.2762 211.144 45.5308C211.487 45.7798 211.918 45.9043 212.438 45.9043C212.931 45.9043 213.368 45.8075 213.75 45.6138C214.132 45.4146 214.431 45.1462 214.646 44.8086C214.868 44.471 214.979 44.0892 214.979 43.6631V40.874C214.979 40.3206 214.81 39.9001 214.472 39.6123C214.14 39.319 213.639 39.1724 212.97 39.1724C212.433 39.1724 211.993 39.2692 211.65 39.4629C211.307 39.651 211.077 39.9194 210.961 40.2681L210.953 40.293H209.508L209.517 40.2432C209.594 39.7728 209.788 39.3633 210.098 39.0146C210.413 38.6605 210.82 38.3866 211.318 38.1929C211.816 37.9937 212.383 37.894 213.02 37.894C213.75 37.894 214.367 38.013 214.871 38.251C215.38 38.4889 215.764 38.832 216.024 39.2803C216.29 39.723 216.423 40.2542 216.423 40.874V47H214.979V45.6802H214.846C214.658 45.9956 214.428 46.264 214.157 46.4854C213.891 46.7067 213.59 46.8755 213.252 46.9917C212.914 47.1024 212.544 47.1577 212.14 47.1577ZM219.146 47V34.499H220.59V47H219.146ZM224.782 47L221.287 42.6172L222.35 41.6958L226.6 47H224.782ZM220.407 43.7793L220.341 41.9614H220.723L224.591 38.0518H226.342L222.092 42.1523L221.744 42.4927L220.407 43.7793ZM237.183 47.2822C236.309 47.2822 235.545 47.1411 234.892 46.8589C234.245 46.5711 233.73 46.1782 233.348 45.6802C232.972 45.1766 232.753 44.6011 232.692 43.9536L232.684 43.8623H234.178L234.187 43.9536C234.225 44.3521 234.377 44.6979 234.643 44.9912C234.914 45.279 235.274 45.5031 235.722 45.6636C236.176 45.8241 236.691 45.9043 237.266 45.9043C237.808 45.9043 238.29 45.8185 238.71 45.647C239.137 45.4699 239.471 45.2264 239.715 44.9165C239.958 44.6066 240.08 44.2497 240.08 43.8457V43.8374C240.08 43.3394 239.897 42.9215 239.532 42.584C239.167 42.2409 238.572 41.978 237.748 41.7954L236.419 41.5049C235.219 41.2393 234.344 40.8298 233.796 40.2764C233.254 39.7174 232.983 39.0036 232.983 38.1348V38.1265C232.988 37.4624 233.168 36.8758 233.522 36.3667C233.882 35.8576 234.377 35.4591 235.008 35.1714C235.645 34.8836 236.375 34.7397 237.2 34.7397C237.997 34.7397 238.702 34.8836 239.316 35.1714C239.931 35.4536 240.418 35.8354 240.777 36.3169C241.143 36.7983 241.345 37.3379 241.383 37.9355L241.392 38.0518H239.897L239.881 37.9438C239.826 37.5897 239.682 37.277 239.449 37.0059C239.217 36.7292 238.907 36.5106 238.52 36.3501C238.132 36.1896 237.678 36.1121 237.158 36.1177C236.66 36.1177 236.212 36.1951 235.813 36.3501C235.415 36.505 235.097 36.7292 234.859 37.0225C234.626 37.3102 234.51 37.6644 234.51 38.085V38.0933C234.51 38.5692 234.687 38.9704 235.042 39.2969C235.396 39.6234 235.979 39.8752 236.793 40.0522L238.121 40.3511C238.957 40.5337 239.629 40.7716 240.138 41.0649C240.647 41.3582 241.018 41.7179 241.25 42.144C241.488 42.5646 241.607 43.0627 241.607 43.6382V43.6465C241.607 44.3936 241.425 45.0382 241.06 45.5806C240.694 46.1229 240.18 46.5435 239.516 46.8423C238.852 47.1356 238.074 47.2822 237.183 47.2822ZM247.567 47.1577C246.715 47.1577 245.982 46.9696 245.368 46.5933C244.759 46.217 244.289 45.6857 243.957 44.9995C243.63 44.3078 243.467 43.4943 243.467 42.5591V42.5508C243.467 41.6266 243.63 40.8159 243.957 40.1187C244.289 39.4214 244.756 38.8763 245.359 38.4834C245.963 38.0905 246.668 37.894 247.476 37.894C248.29 37.894 248.987 38.0822 249.568 38.4585C250.154 38.8348 250.603 39.3605 250.913 40.0356C251.228 40.7052 251.386 41.4855 251.386 42.3765V42.9409H244.214V41.7871H250.647L249.933 42.8413V42.2686C249.933 41.5658 249.828 40.9875 249.618 40.5337C249.407 40.0799 249.117 39.7424 248.746 39.521C248.375 39.2941 247.949 39.1807 247.468 39.1807C246.986 39.1807 246.555 39.2996 246.173 39.5376C245.797 39.77 245.498 40.1159 245.276 40.5752C245.055 41.0345 244.944 41.599 244.944 42.2686V42.8413C244.944 43.4777 245.052 44.0228 245.268 44.4766C245.484 44.9248 245.791 45.2707 246.189 45.5142C246.588 45.7521 247.058 45.8711 247.601 45.8711C248.005 45.8711 248.356 45.8158 248.655 45.7051C248.954 45.5944 249.2 45.4533 249.394 45.2817C249.587 45.1102 249.723 44.9359 249.8 44.7588L249.833 44.6841H251.278L251.261 44.7505C251.184 45.0549 251.045 45.3509 250.846 45.6387C250.653 45.9209 250.401 46.1782 250.091 46.4106C249.781 46.6375 249.413 46.8201 248.987 46.9585C248.566 47.0913 248.093 47.1577 247.567 47.1577ZM256.698 47.1577C256.034 47.1577 255.448 47.0581 254.938 46.8589C254.429 46.6541 254.02 46.3691 253.71 46.0039C253.406 45.6387 253.226 45.2098 253.17 44.7173H254.648C254.77 45.0881 255.008 45.3869 255.362 45.6138C255.716 45.8407 256.178 45.9541 256.748 45.9541C257.152 45.9541 257.506 45.896 257.811 45.7798C258.12 45.658 258.364 45.4948 258.541 45.29C258.718 45.0798 258.807 44.839 258.807 44.5679V44.5513C258.807 44.2469 258.685 43.9896 258.441 43.7793C258.198 43.5635 257.799 43.3892 257.246 43.2563L255.86 42.9243C255.301 42.7915 254.842 42.62 254.482 42.4097C254.122 42.1938 253.857 41.931 253.685 41.6211C253.514 41.3057 253.428 40.9349 253.428 40.5088V40.5005C253.428 40.0024 253.572 39.557 253.859 39.1641C254.153 38.7712 254.551 38.4613 255.055 38.2344C255.558 38.0075 256.125 37.894 256.756 37.894C257.382 37.894 257.935 37.9937 258.417 38.1929C258.903 38.3866 259.294 38.6632 259.587 39.0229C259.886 39.3826 260.068 39.806 260.135 40.293H258.715C258.621 39.9388 258.405 39.651 258.068 39.4297C257.73 39.2083 257.29 39.0977 256.748 39.0977C256.394 39.0977 256.078 39.1558 255.802 39.272C255.525 39.3826 255.306 39.5376 255.146 39.7368C254.986 39.936 254.905 40.1685 254.905 40.4341V40.4507C254.905 40.6499 254.958 40.827 255.063 40.9819C255.168 41.1369 255.331 41.2725 255.553 41.3887C255.774 41.5049 256.059 41.6073 256.408 41.6958L257.786 42.0278C258.627 42.2326 259.252 42.5259 259.662 42.9077C260.077 43.2896 260.284 43.8014 260.284 44.4434V44.46C260.284 44.9912 260.126 45.4616 259.811 45.8711C259.496 46.2751 259.067 46.5905 258.524 46.8174C257.988 47.0443 257.379 47.1577 256.698 47.1577ZM265.431 47.1577C264.767 47.1577 264.18 47.0581 263.671 46.8589C263.162 46.6541 262.752 46.3691 262.442 46.0039C262.138 45.6387 261.958 45.2098 261.903 44.7173H263.38C263.502 45.0881 263.74 45.3869 264.094 45.6138C264.448 45.8407 264.91 45.9541 265.48 45.9541C265.884 45.9541 266.239 45.896 266.543 45.7798C266.853 45.658 267.096 45.4948 267.273 45.29C267.451 45.0798 267.539 44.839 267.539 44.5679V44.5513C267.539 44.2469 267.417 43.9896 267.174 43.7793C266.93 43.5635 266.532 43.3892 265.979 43.2563L264.592 42.9243C264.033 42.7915 263.574 42.62 263.214 42.4097C262.855 42.1938 262.589 41.931 262.417 41.6211C262.246 41.3057 262.16 40.9349 262.16 40.5088V40.5005C262.16 40.0024 262.304 39.557 262.592 39.1641C262.885 38.7712 263.284 38.4613 263.787 38.2344C264.291 38.0075 264.858 37.894 265.489 37.894C266.114 37.894 266.667 37.9937 267.149 38.1929C267.636 38.3866 268.026 38.6632 268.319 39.0229C268.618 39.3826 268.801 39.806 268.867 40.293H267.448C267.354 39.9388 267.138 39.651 266.8 39.4297C266.463 39.2083 266.023 39.0977 265.48 39.0977C265.126 39.0977 264.811 39.1558 264.534 39.272C264.257 39.3826 264.039 39.5376 263.878 39.7368C263.718 39.936 263.638 40.1685 263.638 40.4341V40.4507C263.638 40.6499 263.69 40.827 263.795 40.9819C263.901 41.1369 264.064 41.2725 264.285 41.3887C264.507 41.5049 264.792 41.6073 265.14 41.6958L266.518 42.0278C267.359 42.2326 267.985 42.5259 268.394 42.9077C268.809 43.2896 269.017 43.8014 269.017 44.4434V44.46C269.017 44.9912 268.859 45.4616 268.543 45.8711C268.228 46.2751 267.799 46.5905 267.257 46.8174C266.72 47.0443 266.111 47.1577 265.431 47.1577ZM271.291 47V38.0518H272.735V47H271.291ZM272.021 36.3252C271.75 36.3252 271.515 36.2284 271.316 36.0347C271.122 35.8354 271.025 35.6003 271.025 35.3291C271.025 35.0524 271.122 34.8172 271.316 34.6235C271.515 34.4299 271.75 34.333 272.021 34.333C272.298 34.333 272.533 34.4299 272.727 34.6235C272.921 34.8172 273.018 35.0524 273.018 35.3291C273.018 35.6003 272.921 35.8354 272.727 36.0347C272.533 36.2284 272.298 36.3252 272.021 36.3252ZM279.135 47.1577C278.289 47.1577 277.555 46.9723 276.936 46.6016C276.321 46.2253 275.845 45.6912 275.508 44.9995C275.176 44.3078 275.01 43.486 275.01 42.5342V42.5176C275.01 41.5602 275.176 40.7357 275.508 40.0439C275.845 39.3522 276.321 38.821 276.936 38.4502C277.555 38.0794 278.289 37.894 279.135 37.894C279.987 37.894 280.721 38.0794 281.335 38.4502C281.949 38.821 282.422 39.3522 282.754 40.0439C283.092 40.7357 283.261 41.5602 283.261 42.5176V42.5342C283.261 43.486 283.092 44.3078 282.754 44.9995C282.422 45.6912 281.949 46.2253 281.335 46.6016C280.721 46.9723 279.987 47.1577 279.135 47.1577ZM279.135 45.8794C279.7 45.8794 280.178 45.7466 280.571 45.481C280.964 45.2153 281.263 44.8335 281.468 44.3354C281.678 43.8374 281.783 43.237 281.783 42.5342V42.5176C281.783 41.8092 281.678 41.2061 281.468 40.708C281.263 40.21 280.964 39.8309 280.571 39.5708C280.178 39.3052 279.7 39.1724 279.135 39.1724C278.571 39.1724 278.092 39.3052 277.699 39.5708C277.306 39.8309 277.005 40.21 276.794 40.708C276.59 41.2061 276.487 41.8092 276.487 42.5176V42.5342C276.487 43.237 276.59 43.8374 276.794 44.3354C277.005 44.8335 277.306 45.2153 277.699 45.481C278.092 45.7466 278.571 45.8794 279.135 45.8794ZM285.502 47V38.0518H286.946V39.3965H287.079C287.306 38.9206 287.632 38.5526 288.059 38.2925C288.485 38.0269 289.027 37.894 289.686 37.894C290.693 37.894 291.465 38.1818 292.001 38.7573C292.544 39.3273 292.815 40.1436 292.815 41.2061V47H291.371V41.5547C291.371 40.7467 291.199 40.1491 290.856 39.7617C290.518 39.3688 289.993 39.1724 289.279 39.1724C288.803 39.1724 288.391 39.2747 288.042 39.4795C287.693 39.6842 287.422 39.9748 287.229 40.3511C287.04 40.7274 286.946 41.1784 286.946 41.7041V47H285.502ZM296.608 47.083C296.315 47.083 296.061 46.9779 295.845 46.7676C295.634 46.5518 295.529 46.2972 295.529 46.0039C295.529 45.7051 295.634 45.4505 295.845 45.2402C296.061 45.0299 296.315 44.9248 296.608 44.9248C296.907 44.9248 297.162 45.0299 297.372 45.2402C297.582 45.4505 297.688 45.7051 297.688 46.0039C297.688 46.2972 297.582 46.5518 297.372 46.7676C297.162 46.9779 296.907 47.083 296.608 47.083Z" fill="#FDFCFB"/>
</g>
<defs>
<filter id="filter0_b_3841_33475" x="44.2058" y="38.25" width="59.5884" height="62.75" filterUnits="userSpaceOnUse" color-interpolation-filters="sRGB">
<feFlood flood-opacity="0" result="BackgroundImageFix"/>
<feGaussianBlur in="BackgroundImageFix" stdDeviation="11"/>
<feComposite in2="SourceAlpha" operator="in" result="effect1_backgroundBlur_3841_33475"/>
<feBlend mode="normal" in="SourceGraphic" in2="effect1_backgroundBlur_3841_33475" result="shape"/>
</filter>
<filter id="filter1_b_3841_33475" x="-22" y="-22" width="384" height="106" filterUnits="userSpaceOnUse" color-interpolation-filters="sRGB">
<feFlood flood-opacity="0" result="BackgroundImageFix"/>
<feGaussianBlur in="BackgroundImageFix" stdDeviation="11"/>
<feComposite in2="SourceAlpha" operator="in" result="effect1_backgroundBlur_3841_33475"/>
<feBlend mode="normal" in="SourceGraphic" in2="effect1_backgroundBlur_3841_33475" result="shape"/>
</filter>
</defs>
</svg>
