<svg width="340" height="79" viewBox="0 0 340 79" fill="none" xmlns="http://www.w3.org/2000/svg">
<g filter="url(#filter0_b_3841_33025)">
<path d="M84 79L91.7942 60.25H76.2058L84 79Z" fill="#3D423E" fill-opacity="0.8"/>
</g>
<g filter="url(#filter1_b_3841_33025)">
<rect width="340" height="62" rx="12" fill="#3D423E" fill-opacity="0.8"/>
<path d="M15.5273 27V15.022H17.0215V20.2017H23.5957V15.022H25.0898V27H23.5957V21.5464H17.0215V27H15.5273ZM30.4189 27.1577C29.8545 27.1577 29.3454 27.0498 28.8916 26.834C28.4434 26.6182 28.0864 26.311 27.8208 25.9126C27.5607 25.5142 27.4307 25.0438 27.4307 24.5015V24.4849C27.4307 23.9536 27.5579 23.4998 27.8125 23.1235C28.0671 22.7417 28.4378 22.4429 28.9248 22.2271C29.4118 22.0112 30.0011 21.884 30.6929 21.8452L33.98 21.646V22.7998L30.8672 22.999C30.1865 23.0378 29.6885 23.1789 29.373 23.4224C29.0632 23.6659 28.9082 24.009 28.9082 24.4517V24.4683C28.9082 24.922 29.0798 25.2762 29.4229 25.5308C29.766 25.7798 30.1976 25.9043 30.7178 25.9043C31.2103 25.9043 31.6475 25.8075 32.0293 25.6138C32.4111 25.4146 32.71 25.1462 32.9258 24.8086C33.1471 24.471 33.2578 24.0892 33.2578 23.6631V20.874C33.2578 20.3206 33.089 19.9001 32.7515 19.6123C32.4194 19.319 31.9186 19.1724 31.249 19.1724C30.7122 19.1724 30.2723 19.2692 29.9292 19.4629C29.5861 19.651 29.3564 19.9194 29.2402 20.2681L29.2319 20.293H27.7876L27.7959 20.2432C27.8734 19.7728 28.0671 19.3633 28.377 19.0146C28.6924 18.6605 29.0991 18.3866 29.5972 18.1929C30.0952 17.9937 30.6624 17.894 31.2988 17.894C32.0293 17.894 32.6463 18.013 33.1499 18.251C33.659 18.4889 34.0436 18.832 34.3037 19.2803C34.5693 19.723 34.7021 20.2542 34.7021 20.874V27H33.2578V25.6802H33.125C32.9368 25.9956 32.7072 26.264 32.436 26.4854C32.1704 26.7067 31.8688 26.8755 31.5312 26.9917C31.1937 27.1024 30.8229 27.1577 30.4189 27.1577ZM41.791 27.1577C41.376 27.1577 40.9914 27.0941 40.6372 26.9668C40.283 26.8395 39.9676 26.6597 39.6909 26.4272C39.4142 26.1893 39.1846 25.9043 39.002 25.5723H38.8691V27H37.4248V14.499H38.8691V19.4629H39.002C39.168 19.1419 39.3893 18.8652 39.666 18.6328C39.9482 18.4004 40.2692 18.2205 40.6289 18.0933C40.9941 17.9604 41.3815 17.894 41.791 17.894C42.5492 17.894 43.2077 18.085 43.7666 18.4668C44.3311 18.8486 44.7682 19.3854 45.0781 20.0771C45.388 20.7689 45.543 21.5824 45.543 22.5176V22.5342C45.543 23.4639 45.388 24.2773 45.0781 24.9746C44.7682 25.6663 44.3311 26.2031 43.7666 26.585C43.2077 26.9668 42.5492 27.1577 41.791 27.1577ZM41.459 25.8794C42.0068 25.8794 42.4744 25.7466 42.8618 25.481C43.2492 25.2098 43.5452 24.8252 43.75 24.3271C43.9603 23.8236 44.0654 23.2259 44.0654 22.5342V22.5176C44.0654 21.8203 43.9603 21.2227 43.75 20.7246C43.5452 20.2266 43.2492 19.8447 42.8618 19.5791C42.4744 19.3079 42.0068 19.1724 41.459 19.1724C40.9167 19.1724 40.4491 19.3079 40.0562 19.5791C39.6632 19.8503 39.3617 20.2349 39.1514 20.7329C38.9411 21.231 38.8359 21.8258 38.8359 22.5176V22.5342C38.8359 23.2204 38.9411 23.8153 39.1514 24.3188C39.3617 24.8169 39.6632 25.2015 40.0562 25.4727C40.4491 25.7438 40.9167 25.8794 41.459 25.8794ZM47.8174 27V18.0518H49.2617V27H47.8174ZM48.5479 16.3252C48.2767 16.3252 48.0415 16.2284 47.8423 16.0347C47.6486 15.8354 47.5518 15.6003 47.5518 15.3291C47.5518 15.0524 47.6486 14.8172 47.8423 14.6235C48.0415 14.4299 48.2767 14.333 48.5479 14.333C48.8245 14.333 49.0597 14.4299 49.2534 14.6235C49.4471 14.8172 49.5439 15.0524 49.5439 15.3291C49.5439 15.6003 49.4471 15.8354 49.2534 16.0347C49.0597 16.2284 48.8245 16.3252 48.5479 16.3252ZM55.1636 27.0664C54.245 27.0664 53.5781 26.881 53.1631 26.5103C52.7536 26.1395 52.5488 25.528 52.5488 24.6758V19.2471H51.1377V18.0518H52.5488V15.7358H54.043V18.0518H56.002V19.2471H54.043V24.3105C54.043 24.8363 54.1426 25.2153 54.3418 25.4478C54.541 25.6746 54.873 25.7881 55.3379 25.7881C55.4652 25.7881 55.5731 25.7853 55.6616 25.7798C55.7557 25.7743 55.8691 25.766 56.002 25.7549V26.9834C55.8636 27.0055 55.7253 27.0249 55.5869 27.0415C55.4486 27.0581 55.3075 27.0664 55.1636 27.0664ZM63.1655 27.2822C62.0809 27.2822 61.1429 27.0277 60.3516 26.5186C59.5602 26.0094 58.9487 25.2873 58.5171 24.3521C58.091 23.4168 57.8779 22.3073 57.8779 21.0234V21.0068C57.8779 19.7174 58.091 18.6051 58.5171 17.6699C58.9487 16.7347 59.5575 16.0125 60.3433 15.5034C61.1346 14.9943 62.0726 14.7397 63.1572 14.7397C63.9984 14.7397 64.762 14.9058 65.4482 15.2378C66.14 15.5643 66.71 16.0208 67.1582 16.6074C67.6064 17.1885 67.8887 17.8608 68.0049 18.6245L67.9966 18.6411H66.4941L66.4858 18.6245C66.353 18.1099 66.1289 17.6672 65.8135 17.2964C65.498 16.9201 65.1134 16.6296 64.6597 16.4248C64.2114 16.2201 63.7106 16.1177 63.1572 16.1177C62.3936 16.1177 61.7295 16.3169 61.165 16.7153C60.6061 17.1138 60.1745 17.6782 59.8701 18.4087C59.5658 19.1392 59.4136 20.0052 59.4136 21.0068V21.0234C59.4136 22.0195 59.5658 22.8828 59.8701 23.6133C60.1745 24.3438 60.6061 24.9082 61.165 25.3066C61.7295 25.7051 62.3963 25.9043 63.1655 25.9043C63.7244 25.9043 64.2308 25.8158 64.6846 25.6387C65.1383 25.4561 65.5202 25.1987 65.8301 24.8667C66.14 24.5291 66.3558 24.1307 66.4775 23.6714L66.4941 23.6548H68.0049V23.6714C67.8721 24.4019 67.5843 25.0382 67.1416 25.5806C66.6989 26.1174 66.1372 26.5352 65.4565 26.834C64.7814 27.1328 64.0177 27.2822 63.1655 27.2822ZM74.0063 27.1577C73.1597 27.1577 72.4264 26.9723 71.8066 26.6016C71.1924 26.2253 70.7165 25.6912 70.3789 24.9995C70.0469 24.3078 69.8809 23.486 69.8809 22.5342V22.5176C69.8809 21.5602 70.0469 20.7357 70.3789 20.0439C70.7165 19.3522 71.1924 18.821 71.8066 18.4502C72.4264 18.0794 73.1597 17.894 74.0063 17.894C74.8586 17.894 75.5918 18.0794 76.2061 18.4502C76.8203 18.821 77.2935 19.3522 77.6255 20.0439C77.9631 20.7357 78.1318 21.5602 78.1318 22.5176V22.5342C78.1318 23.486 77.9631 24.3078 77.6255 24.9995C77.2935 25.6912 76.8203 26.2253 76.2061 26.6016C75.5918 26.9723 74.8586 27.1577 74.0063 27.1577ZM74.0063 25.8794C74.5708 25.8794 75.0495 25.7466 75.4424 25.481C75.8353 25.2153 76.1341 24.8335 76.3389 24.3354C76.5492 23.8374 76.6543 23.237 76.6543 22.5342V22.5176C76.6543 21.8092 76.5492 21.2061 76.3389 20.708C76.1341 20.21 75.8353 19.8309 75.4424 19.5708C75.0495 19.3052 74.5708 19.1724 74.0063 19.1724C73.4419 19.1724 72.9632 19.3052 72.5703 19.5708C72.1774 19.8309 71.8758 20.21 71.6655 20.708C71.4608 21.2061 71.3584 21.8092 71.3584 22.5176V22.5342C71.3584 23.237 71.4608 23.8374 71.6655 24.3354C71.8758 24.8335 72.1774 25.2153 72.5703 25.481C72.9632 25.7466 73.4419 25.8794 74.0063 25.8794ZM86.8809 27L84.374 18.0518H85.8184L87.5781 25.207H87.7109L89.7114 18.0518H91.0811L93.0815 25.207H93.2144L94.9741 18.0518H96.4102L93.9033 27H92.4507L90.4502 20.0771H90.3174L88.3252 27H86.8809ZM98.3525 27V18.0518H99.7969V27H98.3525ZM99.083 16.3252C98.8118 16.3252 98.5767 16.2284 98.3774 16.0347C98.1838 15.8354 98.0869 15.6003 98.0869 15.3291C98.0869 15.0524 98.1838 14.8172 98.3774 14.6235C98.5767 14.4299 98.8118 14.333 99.083 14.333C99.3597 14.333 99.5949 14.4299 99.7886 14.6235C99.9823 14.8172 100.079 15.0524 100.079 15.3291C100.079 15.6003 99.9823 15.8354 99.7886 16.0347C99.5949 16.2284 99.3597 16.3252 99.083 16.3252ZM102.603 27V14.499H104.047V27H102.603ZM106.902 27V14.499H108.347V27H106.902ZM115.9 27V18.0518H117.345V19.3799H117.478C117.649 18.9095 117.94 18.5443 118.349 18.2842C118.759 18.0241 119.265 17.894 119.868 17.894C120.007 17.894 120.142 17.9023 120.275 17.9189C120.413 17.93 120.518 17.9411 120.59 17.9521V19.355C120.441 19.3273 120.294 19.3079 120.15 19.2969C120.012 19.2803 119.863 19.272 119.702 19.272C119.243 19.272 118.836 19.3633 118.482 19.5459C118.128 19.7285 117.848 19.9831 117.644 20.3096C117.444 20.6361 117.345 21.0179 117.345 21.4551V27H115.9ZM125.778 27.1577C124.926 27.1577 124.193 26.9696 123.579 26.5933C122.97 26.217 122.5 25.6857 122.167 24.9995C121.841 24.3078 121.678 23.4943 121.678 22.5591V22.5508C121.678 21.6266 121.841 20.8159 122.167 20.1187C122.5 19.4214 122.967 18.8763 123.57 18.4834C124.174 18.0905 124.879 17.894 125.687 17.894C126.5 17.894 127.198 18.0822 127.779 18.4585C128.365 18.8348 128.814 19.3605 129.124 20.0356C129.439 20.7052 129.597 21.4855 129.597 22.3765V22.9409H122.425V21.7871H128.858L128.144 22.8413V22.2686C128.144 21.5658 128.039 20.9875 127.829 20.5337C127.618 20.0799 127.328 19.7424 126.957 19.521C126.586 19.2941 126.16 19.1807 125.679 19.1807C125.197 19.1807 124.766 19.2996 124.384 19.5376C124.007 19.77 123.709 20.1159 123.487 20.5752C123.266 21.0345 123.155 21.599 123.155 22.2686V22.8413C123.155 23.4777 123.263 24.0228 123.479 24.4766C123.695 24.9248 124.002 25.2707 124.4 25.5142C124.799 25.7521 125.269 25.8711 125.812 25.8711C126.215 25.8711 126.567 25.8158 126.866 25.7051C127.165 25.5944 127.411 25.4533 127.604 25.2817C127.798 25.1102 127.934 24.9359 128.011 24.7588L128.044 24.6841H129.489L129.472 24.7505C129.395 25.0549 129.256 25.3509 129.057 25.6387C128.863 25.9209 128.612 26.1782 128.302 26.4106C127.992 26.6375 127.624 26.8201 127.198 26.9585C126.777 27.0913 126.304 27.1577 125.778 27.1577ZM131.838 27V18.0518H133.282V19.4131H133.415C133.614 18.9316 133.919 18.5581 134.328 18.2925C134.743 18.0269 135.244 17.894 135.831 17.894C136.235 17.894 136.597 17.9604 136.918 18.0933C137.239 18.2261 137.516 18.4115 137.748 18.6494C137.98 18.8818 138.166 19.153 138.304 19.4629H138.437C138.597 19.1475 138.813 18.8735 139.084 18.6411C139.356 18.4032 139.668 18.2205 140.022 18.0933C140.382 17.9604 140.767 17.894 141.176 17.894C141.785 17.894 142.3 18.0075 142.72 18.2344C143.146 18.4613 143.47 18.7933 143.691 19.2305C143.913 19.6621 144.023 20.1906 144.023 20.8159V27H142.579V21.1479C142.579 20.7052 142.51 20.34 142.372 20.0522C142.239 19.759 142.034 19.5404 141.757 19.3965C141.481 19.2471 141.132 19.1724 140.711 19.1724C140.296 19.1724 139.934 19.2664 139.624 19.4546C139.314 19.6427 139.073 19.8945 138.902 20.21C138.73 20.5199 138.645 20.8657 138.645 21.2476V27H137.2V20.9238C137.2 20.5697 137.123 20.2625 136.968 20.0024C136.818 19.7368 136.603 19.5321 136.32 19.3882C136.044 19.2443 135.717 19.1724 135.341 19.1724C134.953 19.1724 134.602 19.2747 134.287 19.4795C133.977 19.6842 133.73 19.9609 133.548 20.3096C133.371 20.6527 133.282 21.0345 133.282 21.4551V27H131.838ZM146.663 27V18.0518H148.107V27H146.663ZM147.394 16.3252C147.122 16.3252 146.887 16.2284 146.688 16.0347C146.494 15.8354 146.397 15.6003 146.397 15.3291C146.397 15.0524 146.494 14.8172 146.688 14.6235C146.887 14.4299 147.122 14.333 147.394 14.333C147.67 14.333 147.905 14.4299 148.099 14.6235C148.293 14.8172 148.39 15.0524 148.39 15.3291C148.39 15.6003 148.293 15.8354 148.099 16.0347C147.905 16.2284 147.67 16.3252 147.394 16.3252ZM150.83 27V18.0518H152.274V19.3965H152.407C152.634 18.9206 152.961 18.5526 153.387 18.2925C153.813 18.0269 154.355 17.894 155.014 17.894C156.021 17.894 156.793 18.1818 157.33 18.7573C157.872 19.3273 158.143 20.1436 158.143 21.2061V27H156.699V21.5547C156.699 20.7467 156.527 20.1491 156.184 19.7617C155.847 19.3688 155.321 19.1724 154.607 19.1724C154.131 19.1724 153.719 19.2747 153.37 19.4795C153.021 19.6842 152.75 19.9748 152.557 20.3511C152.368 20.7274 152.274 21.1784 152.274 21.7041V27H150.83ZM164.062 27.1577C163.309 27.1577 162.65 26.9668 162.086 26.585C161.521 26.2031 161.084 25.6663 160.774 24.9746C160.465 24.2773 160.31 23.4639 160.31 22.5342V22.5176C160.31 21.5824 160.465 20.7689 160.774 20.0771C161.084 19.3854 161.519 18.8486 162.078 18.4668C162.642 18.085 163.303 17.894 164.062 17.894C164.471 17.894 164.856 17.9604 165.215 18.0933C165.581 18.2205 165.904 18.4004 166.187 18.6328C166.469 18.8652 166.69 19.1419 166.851 19.4629H166.983V14.499H168.428V27H166.983V25.5723H166.851C166.668 25.9043 166.438 26.1893 166.162 26.4272C165.885 26.6597 165.569 26.8395 165.215 26.9668C164.861 27.0941 164.477 27.1577 164.062 27.1577ZM164.394 25.8794C164.936 25.8794 165.403 25.7438 165.796 25.4727C166.189 25.2015 166.491 24.8169 166.701 24.3188C166.911 23.8153 167.017 23.2204 167.017 22.5342V22.5176C167.017 21.8258 166.911 21.231 166.701 20.7329C166.491 20.2349 166.189 19.8503 165.796 19.5791C165.403 19.3079 164.936 19.1724 164.394 19.1724C163.851 19.1724 163.384 19.3079 162.991 19.5791C162.603 19.8447 162.305 20.2266 162.094 20.7246C161.889 21.2227 161.787 21.8203 161.787 22.5176V22.5342C161.787 23.2259 161.889 23.8236 162.094 24.3271C162.305 24.8252 162.603 25.2098 162.991 25.481C163.384 25.7466 163.851 25.8794 164.394 25.8794ZM176.745 30.1377C176.651 30.1377 176.546 30.1322 176.43 30.1211C176.313 30.1156 176.206 30.1045 176.106 30.0879V28.9009C176.194 28.9175 176.291 28.9285 176.396 28.9341C176.502 28.9396 176.604 28.9424 176.704 28.9424C177.113 28.9424 177.448 28.8372 177.708 28.627C177.974 28.4167 178.187 28.0542 178.347 27.5396L178.513 27.0083L175.201 18.0518H176.745L179.501 26.3193L178.928 25.4146H179.609L179.036 26.3193L181.784 18.0518H183.303L179.808 27.5479C179.565 28.2174 179.307 28.7404 179.036 29.1167C178.765 29.493 178.447 29.7559 178.082 29.9053C177.722 30.0602 177.276 30.1377 176.745 30.1377ZM188.557 27.1577C187.71 27.1577 186.977 26.9723 186.357 26.6016C185.743 26.2253 185.267 25.6912 184.93 24.9995C184.598 24.3078 184.432 23.486 184.432 22.5342V22.5176C184.432 21.5602 184.598 20.7357 184.93 20.0439C185.267 19.3522 185.743 18.821 186.357 18.4502C186.977 18.0794 187.71 17.894 188.557 17.894C189.409 17.894 190.143 18.0794 190.757 18.4502C191.371 18.821 191.844 19.3522 192.176 20.0439C192.514 20.7357 192.683 21.5602 192.683 22.5176V22.5342C192.683 23.486 192.514 24.3078 192.176 24.9995C191.844 25.6912 191.371 26.2253 190.757 26.6016C190.143 26.9723 189.409 27.1577 188.557 27.1577ZM188.557 25.8794C189.122 25.8794 189.6 25.7466 189.993 25.481C190.386 25.2153 190.685 24.8335 190.89 24.3354C191.1 23.8374 191.205 23.237 191.205 22.5342V22.5176C191.205 21.8092 191.1 21.2061 190.89 20.708C190.685 20.21 190.386 19.8309 189.993 19.5708C189.6 19.3052 189.122 19.1724 188.557 19.1724C187.993 19.1724 187.514 19.3052 187.121 19.5708C186.728 19.8309 186.427 20.21 186.216 20.708C186.012 21.2061 185.909 21.8092 185.909 22.5176V22.5342C185.909 23.237 186.012 23.8374 186.216 24.3354C186.427 24.8335 186.728 25.2153 187.121 25.481C187.514 25.7466 187.993 25.8794 188.557 25.8794ZM197.92 27.1577C197.245 27.1577 196.678 27.0304 196.219 26.7759C195.759 26.5158 195.414 26.1395 195.181 25.647C194.954 25.1489 194.841 24.5485 194.841 23.8457V18.0518H196.285V23.4971C196.285 24.2995 196.44 24.8971 196.75 25.29C197.065 25.6829 197.58 25.8794 198.294 25.8794C198.687 25.8794 199.033 25.8213 199.332 25.7051C199.636 25.5889 199.89 25.4229 200.095 25.207C200.3 24.9857 200.452 24.7201 200.552 24.4102C200.657 24.0947 200.709 23.7406 200.709 23.3477V18.0518H202.154V27H200.709V25.6636H200.577C200.433 25.979 200.236 26.2502 199.987 26.4771C199.738 26.6984 199.439 26.8672 199.091 26.9834C198.748 27.0996 198.358 27.1577 197.92 27.1577ZM212.812 27.0664C211.893 27.0664 211.227 26.881 210.812 26.5103C210.402 26.1395 210.197 25.528 210.197 24.6758V19.2471H208.786V18.0518H210.197V15.7358H211.691V18.0518H213.65V19.2471H211.691V24.3105C211.691 24.8363 211.791 25.2153 211.99 25.4478C212.189 25.6746 212.521 25.7881 212.986 25.7881C213.114 25.7881 213.222 25.7853 213.31 25.7798C213.404 25.7743 213.518 25.766 213.65 25.7549V26.9834C213.512 27.0055 213.374 27.0249 213.235 27.0415C213.097 27.0581 212.956 27.0664 212.812 27.0664ZM219.37 27.1577C218.523 27.1577 217.79 26.9723 217.17 26.6016C216.556 26.2253 216.08 25.6912 215.742 24.9995C215.41 24.3078 215.244 23.486 215.244 22.5342V22.5176C215.244 21.5602 215.41 20.7357 215.742 20.0439C216.08 19.3522 216.556 18.821 217.17 18.4502C217.79 18.0794 218.523 17.894 219.37 17.894C220.222 17.894 220.955 18.0794 221.569 18.4502C222.184 18.821 222.657 19.3522 222.989 20.0439C223.326 20.7357 223.495 21.5602 223.495 22.5176V22.5342C223.495 23.486 223.326 24.3078 222.989 24.9995C222.657 25.6912 222.184 26.2253 221.569 26.6016C220.955 26.9723 220.222 27.1577 219.37 27.1577ZM219.37 25.8794C219.934 25.8794 220.413 25.7466 220.806 25.481C221.199 25.2153 221.497 24.8335 221.702 24.3354C221.912 23.8374 222.018 23.237 222.018 22.5342V22.5176C222.018 21.8092 221.912 21.2061 221.702 20.708C221.497 20.21 221.199 19.8309 220.806 19.5708C220.413 19.3052 219.934 19.1724 219.37 19.1724C218.805 19.1724 218.326 19.3052 217.934 19.5708C217.541 19.8309 217.239 20.21 217.029 20.708C216.824 21.2061 216.722 21.8092 216.722 22.5176V22.5342C216.722 23.237 216.824 23.8374 217.029 24.3354C217.239 24.8335 217.541 25.2153 217.934 25.481C218.326 25.7466 218.805 25.8794 219.37 25.8794ZM233.821 27.1577C233.069 27.1577 232.41 26.9668 231.846 26.585C231.281 26.2031 230.844 25.6663 230.534 24.9746C230.224 24.2773 230.069 23.4639 230.069 22.5342V22.5176C230.069 21.5824 230.224 20.7689 230.534 20.0771C230.844 19.3854 231.278 18.8486 231.837 18.4668C232.402 18.085 233.063 17.894 233.821 17.894C234.231 17.894 234.615 17.9604 234.975 18.0933C235.34 18.2205 235.664 18.4004 235.946 18.6328C236.229 18.8652 236.45 19.1419 236.61 19.4629H236.743V14.499H238.188V27H236.743V25.5723H236.61C236.428 25.9043 236.198 26.1893 235.921 26.4272C235.645 26.6597 235.329 26.8395 234.975 26.9668C234.621 27.0941 234.236 27.1577 233.821 27.1577ZM234.153 25.8794C234.696 25.8794 235.163 25.7438 235.556 25.4727C235.949 25.2015 236.251 24.8169 236.461 24.3188C236.671 23.8153 236.776 23.2204 236.776 22.5342V22.5176C236.776 21.8258 236.671 21.231 236.461 20.7329C236.251 20.2349 235.949 19.8503 235.556 19.5791C235.163 19.3079 234.696 19.1724 234.153 19.1724C233.611 19.1724 233.143 19.3079 232.75 19.5791C232.363 19.8447 232.064 20.2266 231.854 20.7246C231.649 21.2227 231.547 21.8203 231.547 22.5176V22.5342C231.547 23.2259 231.649 23.8236 231.854 24.3271C232.064 24.8252 232.363 25.2098 232.75 25.481C233.143 25.7466 233.611 25.8794 234.153 25.8794ZM244.637 27.1577C243.791 27.1577 243.057 26.9723 242.438 26.6016C241.823 26.2253 241.347 25.6912 241.01 24.9995C240.678 24.3078 240.512 23.486 240.512 22.5342V22.5176C240.512 21.5602 240.678 20.7357 241.01 20.0439C241.347 19.3522 241.823 18.821 242.438 18.4502C243.057 18.0794 243.791 17.894 244.637 17.894C245.489 17.894 246.223 18.0794 246.837 18.4502C247.451 18.821 247.924 19.3522 248.256 20.0439C248.594 20.7357 248.763 21.5602 248.763 22.5176V22.5342C248.763 23.486 248.594 24.3078 248.256 24.9995C247.924 25.6912 247.451 26.2253 246.837 26.6016C246.223 26.9723 245.489 27.1577 244.637 27.1577ZM244.637 25.8794C245.202 25.8794 245.68 25.7466 246.073 25.481C246.466 25.2153 246.765 24.8335 246.97 24.3354C247.18 23.8374 247.285 23.237 247.285 22.5342V22.5176C247.285 21.8092 247.18 21.2061 246.97 20.708C246.765 20.21 246.466 19.8309 246.073 19.5708C245.68 19.3052 245.202 19.1724 244.637 19.1724C244.073 19.1724 243.594 19.3052 243.201 19.5708C242.808 19.8309 242.507 20.21 242.296 20.708C242.092 21.2061 241.989 21.8092 241.989 22.5176V22.5342C241.989 23.237 242.092 23.8374 242.296 24.3354C242.507 24.8335 242.808 25.2153 243.201 25.481C243.594 25.7466 244.073 25.8794 244.637 25.8794ZM256.549 30.1377C256.455 30.1377 256.35 30.1322 256.233 30.1211C256.117 30.1156 256.009 30.1045 255.91 30.0879V28.9009C255.998 28.9175 256.095 28.9285 256.2 28.9341C256.305 28.9396 256.408 28.9424 256.507 28.9424C256.917 28.9424 257.252 28.8372 257.512 28.627C257.777 28.4167 257.99 28.0542 258.151 27.5396L258.317 27.0083L255.005 18.0518H256.549L259.305 26.3193L258.732 25.4146H259.413L258.84 26.3193L261.587 18.0518H263.106L259.612 27.5479C259.368 28.2174 259.111 28.7404 258.84 29.1167C258.569 29.493 258.25 29.7559 257.885 29.9053C257.526 30.0602 257.08 30.1377 256.549 30.1377ZM268.361 27.1577C267.514 27.1577 266.781 26.9723 266.161 26.6016C265.547 26.2253 265.071 25.6912 264.733 24.9995C264.401 24.3078 264.235 23.486 264.235 22.5342V22.5176C264.235 21.5602 264.401 20.7357 264.733 20.0439C265.071 19.3522 265.547 18.821 266.161 18.4502C266.781 18.0794 267.514 17.894 268.361 17.894C269.213 17.894 269.946 18.0794 270.561 18.4502C271.175 18.821 271.648 19.3522 271.98 20.0439C272.318 20.7357 272.486 21.5602 272.486 22.5176V22.5342C272.486 23.486 272.318 24.3078 271.98 24.9995C271.648 25.6912 271.175 26.2253 270.561 26.6016C269.946 26.9723 269.213 27.1577 268.361 27.1577ZM268.361 25.8794C268.925 25.8794 269.404 25.7466 269.797 25.481C270.19 25.2153 270.489 24.8335 270.693 24.3354C270.904 23.8374 271.009 23.237 271.009 22.5342V22.5176C271.009 21.8092 270.904 21.2061 270.693 20.708C270.489 20.21 270.19 19.8309 269.797 19.5708C269.404 19.3052 268.925 19.1724 268.361 19.1724C267.796 19.1724 267.318 19.3052 266.925 19.5708C266.532 19.8309 266.23 20.21 266.02 20.708C265.815 21.2061 265.713 21.8092 265.713 22.5176V22.5342C265.713 23.237 265.815 23.8374 266.02 24.3354C266.23 24.8335 266.532 25.2153 266.925 25.481C267.318 25.7466 267.796 25.8794 268.361 25.8794ZM277.724 27.1577C277.049 27.1577 276.482 27.0304 276.022 26.7759C275.563 26.5158 275.217 26.1395 274.985 25.647C274.758 25.1489 274.645 24.5485 274.645 23.8457V18.0518H276.089V23.4971C276.089 24.2995 276.244 24.8971 276.554 25.29C276.869 25.6829 277.384 25.8794 278.098 25.8794C278.491 25.8794 278.836 25.8213 279.135 25.7051C279.44 25.5889 279.694 25.4229 279.899 25.207C280.104 24.9857 280.256 24.7201 280.355 24.4102C280.461 24.0947 280.513 23.7406 280.513 23.3477V18.0518H281.958V27H280.513V25.6636H280.38C280.236 25.979 280.04 26.2502 279.791 26.4771C279.542 26.6984 279.243 26.8672 278.895 26.9834C278.551 27.0996 278.161 27.1577 277.724 27.1577ZM284.655 27V18.0518H286.1V19.3799H286.232C286.404 18.9095 286.694 18.5443 287.104 18.2842C287.514 18.0241 288.02 17.894 288.623 17.894C288.761 17.894 288.897 17.9023 289.03 17.9189C289.168 17.93 289.273 17.9411 289.345 17.9521V19.355C289.196 19.3273 289.049 19.3079 288.905 19.2969C288.767 19.2803 288.618 19.272 288.457 19.272C287.998 19.272 287.591 19.3633 287.237 19.5459C286.883 19.7285 286.603 19.9831 286.398 20.3096C286.199 20.6361 286.1 21.0179 286.1 21.4551V27H284.655ZM15.4277 47V34.499H16.8721V39.3965H17.0049C17.2318 38.9206 17.5583 38.5526 17.9844 38.2925C18.4105 38.0269 18.9528 37.894 19.6113 37.894C20.2809 37.894 20.8481 38.0241 21.313 38.2842C21.7778 38.5387 22.132 38.9123 22.3755 39.4048C22.619 39.8973 22.7407 40.4977 22.7407 41.2061V47H21.2964V41.5547C21.2964 40.7467 21.1248 40.1491 20.7817 39.7617C20.4442 39.3688 19.9185 39.1724 19.2046 39.1724C18.7287 39.1724 18.3164 39.2747 17.9678 39.4795C17.6191 39.6842 17.348 39.9748 17.1543 40.3511C16.9661 40.7274 16.8721 41.1784 16.8721 41.7041V47H15.4277ZM27.8125 47.1577C27.248 47.1577 26.7389 47.0498 26.2852 46.834C25.8369 46.6182 25.48 46.311 25.2144 45.9126C24.9543 45.5142 24.8242 45.0438 24.8242 44.5015V44.4849C24.8242 43.9536 24.9515 43.4998 25.2061 43.1235C25.4606 42.7417 25.8314 42.4429 26.3184 42.2271C26.8053 42.0112 27.3947 41.884 28.0864 41.8452L31.3735 41.646V42.7998L28.2607 42.999C27.5801 43.0378 27.082 43.1789 26.7666 43.4224C26.4567 43.6659 26.3018 44.009 26.3018 44.4517V44.4683C26.3018 44.922 26.4733 45.2762 26.8164 45.5308C27.1595 45.7798 27.5911 45.9043 28.1113 45.9043C28.6038 45.9043 29.041 45.8075 29.4229 45.6138C29.8047 45.4146 30.1035 45.1462 30.3193 44.8086C30.5407 44.471 30.6514 44.0892 30.6514 43.6631V40.874C30.6514 40.3206 30.4826 39.9001 30.145 39.6123C29.813 39.319 29.3122 39.1724 28.6426 39.1724C28.1058 39.1724 27.6659 39.2692 27.3228 39.4629C26.9797 39.651 26.75 39.9194 26.6338 40.2681L26.6255 40.293H25.1812L25.1895 40.2432C25.2669 39.7728 25.4606 39.3633 25.7705 39.0146C26.0859 38.6605 26.4927 38.3866 26.9907 38.1929C27.4888 37.9937 28.056 37.894 28.6924 37.894C29.4229 37.894 30.0399 38.013 30.5435 38.251C31.0526 38.4889 31.4372 38.832 31.6973 39.2803C31.9629 39.723 32.0957 40.2542 32.0957 40.874V47H30.6514V45.6802H30.5186C30.3304 45.9956 30.1007 46.264 29.8296 46.4854C29.564 46.7067 29.2624 46.8755 28.9248 46.9917C28.5872 47.1024 28.2165 47.1577 27.8125 47.1577ZM39.1846 47.1577C38.7695 47.1577 38.3849 47.0941 38.0308 46.9668C37.6766 46.8395 37.3612 46.6597 37.0845 46.4272C36.8078 46.1893 36.5781 45.9043 36.3955 45.5723H36.2627V47H34.8184V34.499H36.2627V39.4629H36.3955C36.5615 39.1419 36.7829 38.8652 37.0596 38.6328C37.3418 38.4004 37.6628 38.2205 38.0225 38.0933C38.3877 37.9604 38.7751 37.894 39.1846 37.894C39.9427 37.894 40.6012 38.085 41.1602 38.4668C41.7246 38.8486 42.1618 39.3854 42.4717 40.0771C42.7816 40.7689 42.9365 41.5824 42.9365 42.5176V42.5342C42.9365 43.4639 42.7816 44.2773 42.4717 44.9746C42.1618 45.6663 41.7246 46.2031 41.1602 46.585C40.6012 46.9668 39.9427 47.1577 39.1846 47.1577ZM38.8525 45.8794C39.4004 45.8794 39.868 45.7466 40.2554 45.481C40.6427 45.2098 40.9388 44.8252 41.1436 44.3271C41.3538 43.8236 41.459 43.2259 41.459 42.5342V42.5176C41.459 41.8203 41.3538 41.2227 41.1436 40.7246C40.9388 40.2266 40.6427 39.8447 40.2554 39.5791C39.868 39.3079 39.4004 39.1724 38.8525 39.1724C38.3102 39.1724 37.8426 39.3079 37.4497 39.5791C37.0568 39.8503 36.7552 40.2349 36.5449 40.7329C36.3346 41.231 36.2295 41.8258 36.2295 42.5176V42.5342C36.2295 43.2204 36.3346 43.8153 36.5449 44.3188C36.7552 44.8169 37.0568 45.2015 37.4497 45.4727C37.8426 45.7438 38.3102 45.8794 38.8525 45.8794ZM45.2109 47V38.0518H46.6553V47H45.2109ZM45.9414 36.3252C45.6702 36.3252 45.4351 36.2284 45.2358 36.0347C45.0422 35.8354 44.9453 35.6003 44.9453 35.3291C44.9453 35.0524 45.0422 34.8172 45.2358 34.6235C45.4351 34.4299 45.6702 34.333 45.9414 34.333C46.2181 34.333 46.4533 34.4299 46.647 34.6235C46.8407 34.8172 46.9375 35.0524 46.9375 35.3291C46.9375 35.6003 46.8407 35.8354 46.647 36.0347C46.4533 36.2284 46.2181 36.3252 45.9414 36.3252ZM52.5571 47.0664C51.6385 47.0664 50.9717 46.881 50.5566 46.5103C50.1471 46.1395 49.9424 45.528 49.9424 44.6758V39.2471H48.5312V38.0518H49.9424V35.7358H51.4365V38.0518H53.3955V39.2471H51.4365V44.3105C51.4365 44.8363 51.5361 45.2153 51.7354 45.4478C51.9346 45.6746 52.2666 45.7881 52.7314 45.7881C52.8587 45.7881 52.9666 45.7853 53.0552 45.7798C53.1493 45.7743 53.2627 45.766 53.3955 45.7549V46.9834C53.2572 47.0055 53.1188 47.0249 52.9805 47.0415C52.8421 47.0581 52.701 47.0664 52.5571 47.0664ZM62.792 47.1577C62.2275 47.1577 61.7184 47.0498 61.2646 46.834C60.8164 46.6182 60.4595 46.311 60.1938 45.9126C59.9338 45.5142 59.8037 45.0438 59.8037 44.5015V44.4849C59.8037 43.9536 59.931 43.4998 60.1855 43.1235C60.4401 42.7417 60.8109 42.4429 61.2979 42.2271C61.7848 42.0112 62.3742 41.884 63.0659 41.8452L66.353 41.646V42.7998L63.2402 42.999C62.5596 43.0378 62.0615 43.1789 61.7461 43.4224C61.4362 43.6659 61.2812 44.009 61.2812 44.4517V44.4683C61.2812 44.922 61.4528 45.2762 61.7959 45.5308C62.139 45.7798 62.5706 45.9043 63.0908 45.9043C63.5833 45.9043 64.0205 45.8075 64.4023 45.6138C64.7842 45.4146 65.083 45.1462 65.2988 44.8086C65.5202 44.471 65.6309 44.0892 65.6309 43.6631V40.874C65.6309 40.3206 65.4621 39.9001 65.1245 39.6123C64.7925 39.319 64.2917 39.1724 63.6221 39.1724C63.0853 39.1724 62.6453 39.2692 62.3022 39.4629C61.9591 39.651 61.7295 39.9194 61.6133 40.2681L61.605 40.293H60.1606L60.1689 40.2432C60.2464 39.7728 60.4401 39.3633 60.75 39.0146C61.0654 38.6605 61.4722 38.3866 61.9702 38.1929C62.4683 37.9937 63.0355 37.894 63.6719 37.894C64.4023 37.894 65.0194 38.013 65.5229 38.251C66.0321 38.4889 66.4167 38.832 66.6768 39.2803C66.9424 39.723 67.0752 40.2542 67.0752 40.874V47H65.6309V45.6802H65.498C65.3099 45.9956 65.0802 46.264 64.8091 46.4854C64.5435 46.7067 64.2419 46.8755 63.9043 46.9917C63.5667 47.1024 63.196 47.1577 62.792 47.1577ZM72.894 47.0664C71.9754 47.0664 71.3086 46.881 70.8936 46.5103C70.484 46.1395 70.2793 45.528 70.2793 44.6758V39.2471H68.8682V38.0518H70.2793V35.7358H71.7734V38.0518H73.7324V39.2471H71.7734V44.3105C71.7734 44.8363 71.873 45.2153 72.0723 45.4478C72.2715 45.6746 72.6035 45.7881 73.0684 45.7881C73.1956 45.7881 73.3035 45.7853 73.3921 45.7798C73.4862 45.7743 73.5996 45.766 73.7324 45.7549V46.9834C73.5941 47.0055 73.4557 47.0249 73.3174 47.0415C73.179 47.0581 73.0379 47.0664 72.894 47.0664ZM83.8511 47.0664C82.9325 47.0664 82.2656 46.881 81.8506 46.5103C81.4411 46.1395 81.2363 45.528 81.2363 44.6758V39.2471H79.8252V38.0518H81.2363V35.7358H82.7305V38.0518H84.6895V39.2471H82.7305V44.3105C82.7305 44.8363 82.8301 45.2153 83.0293 45.4478C83.2285 45.6746 83.5605 45.7881 84.0254 45.7881C84.1527 45.7881 84.2606 45.7853 84.3491 45.7798C84.4432 45.7743 84.5566 45.766 84.6895 45.7549V46.9834C84.5511 47.0055 84.4128 47.0249 84.2744 47.0415C84.1361 47.0581 83.995 47.0664 83.8511 47.0664ZM86.9307 47V34.499H88.375V39.3965H88.5078C88.7347 38.9206 89.0612 38.5526 89.4873 38.2925C89.9134 38.0269 90.4557 37.894 91.1143 37.894C91.7839 37.894 92.3511 38.0241 92.8159 38.2842C93.2808 38.5387 93.6349 38.9123 93.8784 39.4048C94.1219 39.8973 94.2437 40.4977 94.2437 41.2061V47H92.7993V41.5547C92.7993 40.7467 92.6278 40.1491 92.2847 39.7617C91.9471 39.3688 91.4214 39.1724 90.7075 39.1724C90.2316 39.1724 89.8193 39.2747 89.4707 39.4795C89.1221 39.6842 88.8509 39.9748 88.6572 40.3511C88.4691 40.7274 88.375 41.1784 88.375 41.7041V47H86.9307ZM100.511 47.1577C99.6585 47.1577 98.9253 46.9696 98.311 46.5933C97.7023 46.217 97.2319 45.6857 96.8999 44.9995C96.5734 44.3078 96.4102 43.4943 96.4102 42.5591V42.5508C96.4102 41.6266 96.5734 40.8159 96.8999 40.1187C97.2319 39.4214 97.6995 38.8763 98.3027 38.4834C98.9059 38.0905 99.6115 37.894 100.419 37.894C101.233 37.894 101.93 38.0822 102.511 38.4585C103.098 38.8348 103.546 39.3605 103.856 40.0356C104.171 40.7052 104.329 41.4855 104.329 42.3765V42.9409H97.1572V41.7871H103.59L102.876 42.8413V42.2686C102.876 41.5658 102.771 40.9875 102.561 40.5337C102.351 40.0799 102.06 39.7424 101.689 39.521C101.319 39.2941 100.893 39.1807 100.411 39.1807C99.9297 39.1807 99.498 39.2996 99.1162 39.5376C98.7399 39.77 98.4411 40.1159 98.2197 40.5752C97.9984 41.0345 97.8877 41.599 97.8877 42.2686V42.8413C97.8877 43.4777 97.9956 44.0228 98.2114 44.4766C98.4272 44.9248 98.7344 45.2707 99.1328 45.5142C99.5312 45.7521 100.002 45.8711 100.544 45.8711C100.948 45.8711 101.299 45.8158 101.598 45.7051C101.897 45.5944 102.143 45.4533 102.337 45.2817C102.531 45.1102 102.666 44.9359 102.744 44.7588L102.777 44.6841H104.221L104.205 44.7505C104.127 45.0549 103.989 45.3509 103.79 45.6387C103.596 45.9209 103.344 46.1782 103.034 46.4106C102.724 46.6375 102.356 46.8201 101.93 46.9585C101.51 47.0913 101.036 47.1577 100.511 47.1577ZM114.423 47.1577C113.759 47.1577 113.172 47.0581 112.663 46.8589C112.154 46.6541 111.744 46.3691 111.435 46.0039C111.13 45.6387 110.95 45.2098 110.895 44.7173H112.373C112.494 45.0881 112.732 45.3869 113.086 45.6138C113.441 45.8407 113.903 45.9541 114.473 45.9541C114.877 45.9541 115.231 45.896 115.535 45.7798C115.845 45.658 116.089 45.4948 116.266 45.29C116.443 45.0798 116.531 44.839 116.531 44.5679V44.5513C116.531 44.2469 116.41 43.9896 116.166 43.7793C115.923 43.5635 115.524 43.3892 114.971 43.2563L113.584 42.9243C113.026 42.7915 112.566 42.62 112.207 42.4097C111.847 42.1938 111.581 41.931 111.41 41.6211C111.238 41.3057 111.152 40.9349 111.152 40.5088V40.5005C111.152 40.0024 111.296 39.557 111.584 39.1641C111.877 38.7712 112.276 38.4613 112.779 38.2344C113.283 38.0075 113.85 37.894 114.481 37.894C115.106 37.894 115.66 37.9937 116.141 38.1929C116.628 38.3866 117.018 38.6632 117.312 39.0229C117.61 39.3826 117.793 39.806 117.859 40.293H116.44C116.346 39.9388 116.13 39.651 115.792 39.4297C115.455 39.2083 115.015 39.0977 114.473 39.0977C114.118 39.0977 113.803 39.1558 113.526 39.272C113.25 39.3826 113.031 39.5376 112.871 39.7368C112.71 39.936 112.63 40.1685 112.63 40.4341V40.4507C112.63 40.6499 112.682 40.827 112.788 40.9819C112.893 41.1369 113.056 41.2725 113.277 41.3887C113.499 41.5049 113.784 41.6073 114.132 41.6958L115.51 42.0278C116.351 42.2326 116.977 42.5259 117.386 42.9077C117.801 43.2896 118.009 43.8014 118.009 44.4434V44.46C118.009 44.9912 117.851 45.4616 117.536 45.8711C117.22 46.2751 116.791 46.5905 116.249 46.8174C115.712 47.0443 115.104 47.1577 114.423 47.1577ZM123.911 47.1577C123.075 47.1577 122.35 46.9668 121.736 46.585C121.122 46.2031 120.646 45.6636 120.308 44.9663C119.971 44.269 119.802 43.4473 119.802 42.501V42.4844C119.802 41.5547 119.968 40.7467 120.3 40.0605C120.637 39.3743 121.113 38.8431 121.728 38.4668C122.342 38.085 123.067 37.894 123.902 37.894C124.627 37.894 125.253 38.0213 125.778 38.2759C126.304 38.5304 126.725 38.8735 127.04 39.3052C127.355 39.7313 127.557 40.21 127.646 40.7412L127.654 40.791H126.218L126.21 40.7661C126.099 40.3234 125.847 39.9471 125.455 39.6372C125.062 39.3273 124.544 39.1724 123.902 39.1724C123.366 39.1724 122.901 39.3079 122.508 39.5791C122.115 39.8503 121.811 40.2349 121.595 40.7329C121.384 41.2254 121.279 41.8092 121.279 42.4844V42.501C121.279 43.1872 121.387 43.7848 121.603 44.2939C121.819 44.7975 122.123 45.1877 122.516 45.4644C122.909 45.741 123.371 45.8794 123.902 45.8794C124.506 45.8794 124.998 45.7493 125.38 45.4893C125.762 45.2292 126.036 44.8501 126.202 44.3521L126.218 44.3022L127.646 44.2939L127.629 44.3853C127.508 44.922 127.292 45.4007 126.982 45.8213C126.672 46.2363 126.263 46.5628 125.753 46.8008C125.244 47.0387 124.63 47.1577 123.911 47.1577ZM129.846 47V34.499H131.29V39.3965H131.423C131.65 38.9206 131.976 38.5526 132.402 38.2925C132.828 38.0269 133.371 37.894 134.029 37.894C134.699 37.894 135.266 38.0241 135.731 38.2842C136.196 38.5387 136.55 38.9123 136.793 39.4048C137.037 39.8973 137.159 40.4977 137.159 41.2061V47H135.714V41.5547C135.714 40.7467 135.543 40.1491 135.2 39.7617C134.862 39.3688 134.336 39.1724 133.623 39.1724C133.147 39.1724 132.734 39.2747 132.386 39.4795C132.037 39.6842 131.766 39.9748 131.572 40.3511C131.384 40.7274 131.29 41.1784 131.29 41.7041V47H129.846ZM143.426 47.1577C142.574 47.1577 141.84 46.9696 141.226 46.5933C140.617 46.217 140.147 45.6857 139.815 44.9995C139.488 44.3078 139.325 43.4943 139.325 42.5591V42.5508C139.325 41.6266 139.488 40.8159 139.815 40.1187C140.147 39.4214 140.615 38.8763 141.218 38.4834C141.821 38.0905 142.527 37.894 143.334 37.894C144.148 37.894 144.845 38.0822 145.426 38.4585C146.013 38.8348 146.461 39.3605 146.771 40.0356C147.086 40.7052 147.244 41.4855 147.244 42.3765V42.9409H140.072V41.7871H146.505L145.792 42.8413V42.2686C145.792 41.5658 145.686 40.9875 145.476 40.5337C145.266 40.0799 144.975 39.7424 144.604 39.521C144.234 39.2941 143.808 39.1807 143.326 39.1807C142.845 39.1807 142.413 39.2996 142.031 39.5376C141.655 39.77 141.356 40.1159 141.135 40.5752C140.913 41.0345 140.803 41.599 140.803 42.2686V42.8413C140.803 43.4777 140.911 44.0228 141.126 44.4766C141.342 44.9248 141.649 45.2707 142.048 45.5142C142.446 45.7521 142.917 45.8711 143.459 45.8711C143.863 45.8711 144.214 45.8158 144.513 45.7051C144.812 45.5944 145.058 45.4533 145.252 45.2817C145.446 45.1102 145.581 44.9359 145.659 44.7588L145.692 44.6841H147.136L147.12 44.7505C147.042 45.0549 146.904 45.3509 146.705 45.6387C146.511 45.9209 146.259 46.1782 145.949 46.4106C145.639 46.6375 145.271 46.8201 144.845 46.9585C144.425 47.0913 143.951 47.1577 143.426 47.1577ZM152.789 47.1577C152.036 47.1577 151.378 46.9668 150.813 46.585C150.249 46.2031 149.812 45.6663 149.502 44.9746C149.192 44.2773 149.037 43.4639 149.037 42.5342V42.5176C149.037 41.5824 149.192 40.7689 149.502 40.0771C149.812 39.3854 150.246 38.8486 150.805 38.4668C151.37 38.085 152.031 37.894 152.789 37.894C153.199 37.894 153.583 37.9604 153.943 38.0933C154.308 38.2205 154.632 38.4004 154.914 38.6328C155.196 38.8652 155.418 39.1419 155.578 39.4629H155.711V34.499H157.155V47H155.711V45.5723H155.578C155.396 45.9043 155.166 46.1893 154.889 46.4272C154.612 46.6597 154.297 46.8395 153.943 46.9668C153.589 47.0941 153.204 47.1577 152.789 47.1577ZM153.121 45.8794C153.663 45.8794 154.131 45.7438 154.524 45.4727C154.917 45.2015 155.218 44.8169 155.429 44.3188C155.639 43.8153 155.744 43.2204 155.744 42.5342V42.5176C155.744 41.8258 155.639 41.231 155.429 40.7329C155.218 40.2349 154.917 39.8503 154.524 39.5791C154.131 39.3079 153.663 39.1724 153.121 39.1724C152.579 39.1724 152.111 39.3079 151.718 39.5791C151.331 39.8447 151.032 40.2266 150.822 40.7246C150.617 41.2227 150.515 41.8203 150.515 42.5176V42.5342C150.515 43.2259 150.617 43.8236 150.822 44.3271C151.032 44.8252 151.331 45.2098 151.718 45.481C152.111 45.7466 152.579 45.8794 153.121 45.8794ZM162.924 47.1577C162.249 47.1577 161.682 47.0304 161.223 46.7759C160.763 46.5158 160.417 46.1395 160.185 45.647C159.958 45.1489 159.845 44.5485 159.845 43.8457V38.0518H161.289V43.4971C161.289 44.2995 161.444 44.8971 161.754 45.29C162.069 45.6829 162.584 45.8794 163.298 45.8794C163.691 45.8794 164.037 45.8213 164.335 45.7051C164.64 45.5889 164.894 45.4229 165.099 45.207C165.304 44.9857 165.456 44.7201 165.556 44.4102C165.661 44.0947 165.713 43.7406 165.713 43.3477V38.0518H167.158V47H165.713V45.6636H165.581C165.437 45.979 165.24 46.2502 164.991 46.4771C164.742 46.6984 164.443 46.8672 164.095 46.9834C163.752 47.0996 163.361 47.1577 162.924 47.1577ZM169.938 47V34.499H171.383V47H169.938ZM177.808 47.1577C176.955 47.1577 176.222 46.9696 175.608 46.5933C174.999 46.217 174.529 45.6857 174.197 44.9995C173.87 44.3078 173.707 43.4943 173.707 42.5591V42.5508C173.707 41.6266 173.87 40.8159 174.197 40.1187C174.529 39.4214 174.996 38.8763 175.6 38.4834C176.203 38.0905 176.908 37.894 177.716 37.894C178.53 37.894 179.227 38.0822 179.808 38.4585C180.395 38.8348 180.843 39.3605 181.153 40.0356C181.468 40.7052 181.626 41.4855 181.626 42.3765V42.9409H174.454V41.7871H180.887L180.173 42.8413V42.2686C180.173 41.5658 180.068 40.9875 179.858 40.5337C179.648 40.0799 179.357 39.7424 178.986 39.521C178.616 39.2941 178.189 39.1807 177.708 39.1807C177.227 39.1807 176.795 39.2996 176.413 39.5376C176.037 39.77 175.738 40.1159 175.517 40.5752C175.295 41.0345 175.185 41.599 175.185 42.2686V42.8413C175.185 43.4777 175.292 44.0228 175.508 44.4766C175.724 44.9248 176.031 45.2707 176.43 45.5142C176.828 45.7521 177.299 45.8711 177.841 45.8711C178.245 45.8711 178.596 45.8158 178.895 45.7051C179.194 45.5944 179.44 45.4533 179.634 45.2817C179.827 45.1102 179.963 44.9359 180.041 44.7588L180.074 44.6841H181.518L181.501 44.7505C181.424 45.0549 181.286 45.3509 181.086 45.6387C180.893 45.9209 180.641 46.1782 180.331 46.4106C180.021 46.6375 179.653 46.8201 179.227 46.9585C178.806 47.0913 178.333 47.1577 177.808 47.1577ZM187.171 47.1577C186.418 47.1577 185.76 46.9668 185.195 46.585C184.631 46.2031 184.194 45.6663 183.884 44.9746C183.574 44.2773 183.419 43.4639 183.419 42.5342V42.5176C183.419 41.5824 183.574 40.7689 183.884 40.0771C184.194 39.3854 184.628 38.8486 185.187 38.4668C185.751 38.085 186.413 37.894 187.171 37.894C187.58 37.894 187.965 37.9604 188.325 38.0933C188.69 38.2205 189.014 38.4004 189.296 38.6328C189.578 38.8652 189.799 39.1419 189.96 39.4629H190.093V34.499H191.537V47H190.093V45.5723H189.96C189.777 45.9043 189.548 46.1893 189.271 46.4272C188.994 46.6597 188.679 46.8395 188.325 46.9668C187.971 47.0941 187.586 47.1577 187.171 47.1577ZM187.503 45.8794C188.045 45.8794 188.513 45.7438 188.906 45.4727C189.299 45.2015 189.6 44.8169 189.811 44.3188C190.021 43.8153 190.126 43.2204 190.126 42.5342V42.5176C190.126 41.8258 190.021 41.231 189.811 40.7329C189.6 40.2349 189.299 39.8503 188.906 39.5791C188.513 39.3079 188.045 39.1724 187.503 39.1724C186.961 39.1724 186.493 39.3079 186.1 39.5791C185.713 39.8447 185.414 40.2266 185.204 40.7246C184.999 41.2227 184.896 41.8203 184.896 42.5176V42.5342C184.896 43.2259 184.999 43.8236 185.204 44.3271C185.414 44.8252 185.713 45.2098 186.1 45.481C186.493 45.7466 186.961 45.8794 187.503 45.8794ZM202.27 47.0664C201.351 47.0664 200.685 46.881 200.27 46.5103C199.86 46.1395 199.655 45.528 199.655 44.6758V39.2471H198.244V38.0518H199.655V35.7358H201.149V38.0518H203.108V39.2471H201.149V44.3105C201.149 44.8363 201.249 45.2153 201.448 45.4478C201.647 45.6746 201.979 45.7881 202.444 45.7881C202.572 45.7881 202.68 45.7853 202.768 45.7798C202.862 45.7743 202.976 45.766 203.108 45.7549V46.9834C202.97 47.0055 202.832 47.0249 202.693 47.0415C202.555 47.0581 202.414 47.0664 202.27 47.0664ZM205.3 47V38.0518H206.744V47H205.3ZM206.03 36.3252C205.759 36.3252 205.524 36.2284 205.325 36.0347C205.131 35.8354 205.034 35.6003 205.034 35.3291C205.034 35.0524 205.131 34.8172 205.325 34.6235C205.524 34.4299 205.759 34.333 206.03 34.333C206.307 34.333 206.542 34.4299 206.736 34.6235C206.93 34.8172 207.026 35.0524 207.026 35.3291C207.026 35.6003 206.93 35.8354 206.736 36.0347C206.542 36.2284 206.307 36.3252 206.03 36.3252ZM209.467 47V38.0518H210.911V39.4131H211.044C211.243 38.9316 211.548 38.5581 211.957 38.2925C212.372 38.0269 212.873 37.894 213.459 37.894C213.863 37.894 214.226 37.9604 214.547 38.0933C214.868 38.2261 215.145 38.4115 215.377 38.6494C215.609 38.8818 215.795 39.153 215.933 39.4629H216.066C216.226 39.1475 216.442 38.8735 216.713 38.6411C216.985 38.4032 217.297 38.2205 217.651 38.0933C218.011 37.9604 218.396 37.894 218.805 37.894C219.414 37.894 219.929 38.0075 220.349 38.2344C220.775 38.4613 221.099 38.7933 221.32 39.2305C221.542 39.6621 221.652 40.1906 221.652 40.8159V47H220.208V41.1479C220.208 40.7052 220.139 40.34 220 40.0522C219.868 39.759 219.663 39.5404 219.386 39.3965C219.11 39.2471 218.761 39.1724 218.34 39.1724C217.925 39.1724 217.563 39.2664 217.253 39.4546C216.943 39.6427 216.702 39.8945 216.531 40.21C216.359 40.5199 216.273 40.8657 216.273 41.2476V47H214.829V40.9238C214.829 40.5697 214.752 40.2625 214.597 40.0024C214.447 39.7368 214.231 39.5321 213.949 39.3882C213.673 39.2443 213.346 39.1724 212.97 39.1724C212.582 39.1724 212.231 39.2747 211.916 39.4795C211.606 39.6842 211.359 39.9609 211.177 40.3096C211 40.6527 210.911 41.0345 210.911 41.4551V47H209.467ZM227.911 47.1577C227.059 47.1577 226.326 46.9696 225.711 46.5933C225.103 46.217 224.632 45.6857 224.3 44.9995C223.974 44.3078 223.811 43.4943 223.811 42.5591V42.5508C223.811 41.6266 223.974 40.8159 224.3 40.1187C224.632 39.4214 225.1 38.8763 225.703 38.4834C226.306 38.0905 227.012 37.894 227.82 37.894C228.633 37.894 229.331 38.0822 229.912 38.4585C230.498 38.8348 230.946 39.3605 231.256 40.0356C231.572 40.7052 231.729 41.4855 231.729 42.3765V42.9409H224.558V41.7871H230.991L230.277 42.8413V42.2686C230.277 41.5658 230.172 40.9875 229.961 40.5337C229.751 40.0799 229.461 39.7424 229.09 39.521C228.719 39.2941 228.293 39.1807 227.812 39.1807C227.33 39.1807 226.898 39.2996 226.517 39.5376C226.14 39.77 225.841 40.1159 225.62 40.5752C225.399 41.0345 225.288 41.599 225.288 42.2686V42.8413C225.288 43.4777 225.396 44.0228 225.612 44.4766C225.828 44.9248 226.135 45.2707 226.533 45.5142C226.932 45.7521 227.402 45.8711 227.944 45.8711C228.348 45.8711 228.7 45.8158 228.999 45.7051C229.297 45.5944 229.544 45.4533 229.737 45.2817C229.931 45.1102 230.067 44.9359 230.144 44.7588L230.177 44.6841H231.622L231.605 44.7505C231.528 45.0549 231.389 45.3509 231.19 45.6387C230.996 45.9209 230.744 46.1782 230.435 46.4106C230.125 46.6375 229.757 46.8201 229.331 46.9585C228.91 47.0913 228.437 47.1577 227.911 47.1577ZM235.149 47.083C234.856 47.083 234.602 46.9779 234.386 46.7676C234.175 46.5518 234.07 46.2972 234.07 46.0039C234.07 45.7051 234.175 45.4505 234.386 45.2402C234.602 45.0299 234.856 44.9248 235.149 44.9248C235.448 44.9248 235.703 45.0299 235.913 45.2402C236.123 45.4505 236.229 45.7051 236.229 46.0039C236.229 46.2972 236.123 46.5518 235.913 46.7676C235.703 46.9779 235.448 47.083 235.149 47.083Z" fill="#FDFCFB"/>
</g>
<defs>
<filter id="filter0_b_3841_33025" x="54.2058" y="38.25" width="59.5884" height="62.75" filterUnits="userSpaceOnUse" color-interpolation-filters="sRGB">
<feFlood flood-opacity="0" result="BackgroundImageFix"/>
<feGaussianBlur in="BackgroundImageFix" stdDeviation="11"/>
<feComposite in2="SourceAlpha" operator="in" result="effect1_backgroundBlur_3841_33025"/>
<feBlend mode="normal" in="SourceGraphic" in2="effect1_backgroundBlur_3841_33025" result="shape"/>
</filter>
<filter id="filter1_b_3841_33025" x="-22" y="-22" width="384" height="106" filterUnits="userSpaceOnUse" color-interpolation-filters="sRGB">
<feFlood flood-opacity="0" result="BackgroundImageFix"/>
<feGaussianBlur in="BackgroundImageFix" stdDeviation="11"/>
<feComposite in2="SourceAlpha" operator="in" result="effect1_backgroundBlur_3841_33025"/>
<feBlend mode="normal" in="SourceGraphic" in2="effect1_backgroundBlur_3841_33025" result="shape"/>
</filter>
</defs>
</svg>
