<svg width="256" height="256" viewBox="0 0 256 256" fill="none" xmlns="http://www.w3.org/2000/svg">
<mask id="mask0_1745_33020" style="mask-type:luminance" maskUnits="userSpaceOnUse" x="0" y="0" width="256" height="256">
<path d="M0 0H256V256H0V0Z" fill="white"/>
</mask>
<g mask="url(#mask0_1745_33020)">
<path d="M155.491 146.66C161.858 153.483 173.712 155.479 182.391 154.035C196.552 151.68 210.628 144.463 215.136 130.222C218.716 118.913 221.685 95.9819 202.788 97.3787C187.993 98.4728 178.243 108.831 166.612 116.569C156.561 123.256 144.268 134.63 155.491 146.66Z" fill="#F0E8BA"/>
<path d="M101.333 63.8307C96.2588 59.4915 90.6519 57.9601 84.0763 61.6936C77.4848 65.4363 73.485 72.6345 74.2633 80.1891C74.9161 86.5271 74.6401 95.7406 78.988 100.768C87.9598 111.14 106.461 105.59 116.807 100.262C122.624 97.2658 130.473 87.7037 124.805 81.6503C122.071 78.7299 117.486 77.1422 114.213 74.8801C110.258 72.1471 106.534 68.9235 103.143 65.5157C102.547 64.9161 101.944 64.3529 101.333 63.8307Z" fill="#FED9A8"/>
<path d="M87.4102 213.884C95.0549 217.561 110.592 214.508 110.826 204.053C111.007 195.965 102.202 185.422 94.652 183.18C88.0564 181.221 76.819 181.454 77.4918 190.422C78.1564 199.269 78.3632 209.53 87.4102 213.884Z" fill="#F0A382"/>
<path d="M161.687 209.744C169.105 207.126 173.787 201.406 176.883 194.333C178.796 189.961 180.572 180.251 173.61 179.372C162.582 177.977 132.453 192.211 138.626 206.779C141.859 214.409 155.923 211.78 161.687 209.744Z" fill="#FED9A8"/>
<path d="M65.7682 136.301C51.4179 134.782 32.1344 149.598 40.395 164.738C58.3764 197.695 95.4258 139.443 65.7682 136.301Z" fill="#F0E8BA"/>
<path d="M70.3109 148.453C72.5867 148.741 74.4248 146.985 75.2163 144.996C75.992 143.047 74.4596 141.322 72.4894 141.363C70.4701 141.406 68.0581 142.733 67.286 144.644C66.4453 146.724 68.4825 148.197 70.3109 148.426C70.3559 148.432 70.3667 148.355 70.3216 148.347C68.5614 148.012 66.8149 146.679 67.5056 144.705C68.1513 142.861 70.5249 141.805 72.3282 141.609C73.1868 141.516 74.0362 141.807 74.6311 142.433C75.3648 143.205 75.2732 144.309 74.8866 145.216C74.1166 147.022 72.3604 148.535 70.3109 148.318C70.2233 148.308 70.2259 148.443 70.3109 148.453Z" fill="#3D423E"/>
<path d="M62.7932 145.141C59.1313 145.005 55.4874 144.784 51.8901 144.041C48.4505 143.331 45.252 141.947 42.3208 140.014C40.8268 139.03 39.7322 137.778 38.8024 136.259C37.9356 134.844 37.0012 133.279 36.5265 131.684C35.5896 128.533 38.8612 126.826 40.9313 125.241C41.8206 124.561 42.5185 123.77 43.0668 122.791C43.7324 121.602 44.1487 120.293 44.8383 119.115C46.2771 116.656 49.0347 115.689 51.7647 115.954C54.3769 116.207 56.9727 117.485 58.8789 119.265C60.8685 121.123 61.9658 123.653 62.4388 126.297C62.4665 126.453 62.6974 126.385 62.6744 126.231C62.2509 123.461 60.9955 120.885 58.9352 118.965C57.006 117.167 54.3779 115.999 51.7647 115.705C49.1274 115.408 46.4824 116.351 44.9151 118.549C44.0565 119.753 43.6193 121.209 42.9424 122.512C42.263 123.822 41.2676 124.713 40.0916 125.562C38.2044 126.925 35.8302 128.452 36.1533 131.112C36.3376 132.631 37.2889 134.069 38.0093 135.384C38.7517 136.738 39.5898 138.053 40.7239 139.115C41.9338 140.25 43.4749 141.057 44.9295 141.829C46.3784 142.597 47.8576 143.227 49.43 143.697C52.6965 144.676 56.1689 145.085 59.564 145.278C60.6392 145.339 61.7159 145.357 62.7932 145.344C62.9247 145.343 62.9237 145.146 62.7932 145.141Z" fill="#3D423E"/>
<path d="M43.9218 124.53C51.397 127.663 57.5507 133.084 63.4054 138.554C63.4305 138.578 63.4679 138.541 63.4433 138.516C57.8261 132.852 51.3765 127.521 43.9448 124.447C43.8931 124.426 43.8711 124.509 43.9218 124.53Z" fill="#3D423E"/>
<path d="M38.6862 130.445C42.5154 135.244 48.5319 137.667 54.1829 139.592C54.2228 139.606 54.2387 139.544 54.2003 139.53C48.5867 137.426 42.6787 135.142 38.7635 130.369C38.7184 130.314 38.6432 130.391 38.6862 130.445Z" fill="#3D423E"/>
<path d="M58.9879 141.676C60.8183 142.382 62.8146 142.805 64.7545 143.076C64.8093 143.083 64.8344 143.006 64.7781 142.99C62.8632 142.462 60.893 142.256 59.0232 141.548C58.9428 141.518 58.9085 141.646 58.9879 141.676Z" fill="#3D423E"/>
<path d="M52.2783 133.36C54.3734 134.496 56.3615 135.815 58.4423 136.975C58.4668 136.99 58.4888 136.952 58.4643 136.937C56.4234 135.71 54.4123 134.427 52.3177 133.293C52.2737 133.268 52.2348 133.336 52.2783 133.36Z" fill="#3D423E"/>
<path d="M47.6178 118.454C51.7394 120.868 55.3869 123.891 58.6621 127.357C58.6974 127.394 58.7486 127.34 58.7169 127.301C55.6787 123.686 51.7798 120.666 47.6669 118.371C47.6116 118.339 47.563 118.422 47.6178 118.454Z" fill="#3D423E"/>
<path d="M60.4642 130.842C62.3873 132.973 64.3063 135.173 66.384 137.154C66.4367 137.205 66.5069 137.13 66.4623 137.076C64.6432 134.854 62.524 132.84 60.5456 130.761C60.4939 130.707 60.4151 130.788 60.4642 130.842Z" fill="#3D423E"/>
<path d="M58.099 121.355C59.2735 122.924 60.5202 124.431 61.5826 126.082C61.6041 126.117 61.6563 126.087 61.6364 126.051C60.6805 124.336 59.359 122.866 58.1758 121.31C58.1415 121.266 58.0647 121.309 58.099 121.355Z" fill="#3D423E"/>
<path d="M55.5589 144.755C53.9471 144.14 52.2309 144.4 50.5469 144.325C48.8983 144.251 47.199 144.545 45.6097 144.964C43.1296 145.618 40.8026 147.111 39.1391 149.055C37.5037 150.965 36.6958 153.442 37.3517 155.915C37.7167 157.294 38.6168 158.373 39.37 159.55C40.1718 160.806 40.2588 162.191 40.6336 163.592C40.9229 164.669 41.4159 165.675 42.2474 166.436C43.3431 167.439 44.8673 167.75 46.2804 167.998C47.1432 168.151 47.9885 168.32 48.8292 168.571C49.655 168.817 50.4829 169.112 51.3436 169.213C52.8274 169.388 54.242 169.085 55.5937 168.471C56.9802 167.84 58.208 166.892 59.3856 165.937C60.7071 164.866 62.0721 163.811 63.1898 162.52C65.313 160.07 65.7467 156.646 66.9176 153.723C67.1782 153.072 67.4941 152.445 67.8684 151.852C67.9514 151.721 67.7435 151.6 67.6611 151.731C65.889 154.535 65.6049 157.983 64.0387 160.885C63.1892 162.46 61.8202 163.643 60.4608 164.765C59.1777 165.822 57.9059 166.899 56.4749 167.755C55.0321 168.616 53.4264 169.136 51.7353 169.037C50.8306 168.984 49.9546 168.69 49.0964 168.421C48.1897 168.137 47.2799 167.935 46.345 167.765C44.7603 167.476 43.1562 167.082 42.0401 165.839C41.1804 164.882 40.8681 163.553 40.6269 162.325C40.5051 161.704 40.4155 161.095 40.182 160.502C39.969 159.961 39.6531 159.465 39.3306 158.985C38.5825 157.872 37.8565 156.842 37.5401 155.516C36.9446 153.017 38.0879 150.573 39.7699 148.775C41.4118 147.019 43.6452 145.745 45.9727 145.167C47.5307 144.78 49.1456 144.544 50.7528 144.614C52.342 144.681 53.9691 144.424 55.5077 144.941C55.627 144.98 55.6726 144.798 55.5589 144.755Z" fill="#3D423E"/>
<path d="M42.4616 162.54C45.1091 159.108 48.7423 156.478 52.4927 154.371C56.263 152.253 60.3606 150.654 64.6168 149.851C64.6537 149.844 64.6455 149.781 64.6081 149.786C60.3206 150.362 56.1668 152.141 52.4189 154.245C48.6562 156.354 45.0221 159.039 42.4058 162.508C42.3807 162.541 42.4365 162.572 42.4616 162.54Z" fill="#3D423E"/>
<path d="M49.9541 165.011C54.9594 162.555 60.0287 159.583 63.6885 155.291C63.7192 155.254 63.6686 155.201 63.6348 155.237C59.7477 159.389 54.9738 162.415 49.9075 164.93C49.8538 164.957 49.9009 165.036 49.9541 165.011Z" fill="#3D423E"/>
<path d="M55.3077 158.124C58.4724 156.498 61.5674 154.675 64.4664 152.609C64.5002 152.585 64.47 152.53 64.4341 152.553C61.4241 154.471 58.4284 156.389 55.2857 158.086C55.2601 158.099 55.2826 158.138 55.3077 158.124Z" fill="#3D423E"/>
<path d="M52.5439 167.214C53.9637 166.66 55.3491 166.025 56.6491 165.226C56.6732 165.211 56.6517 165.174 56.6266 165.188C55.2959 165.922 53.9391 166.586 52.525 167.146C52.4835 167.162 52.5014 167.23 52.5439 167.214Z" fill="#3D423E"/>
<path d="M41.3627 156.165C44.6211 152.3 49.7513 150.684 54.516 149.615C54.5585 149.605 54.5401 149.543 54.4986 149.55C49.7129 150.44 44.4598 152.178 41.2962 156.099C41.2583 156.145 41.3228 156.212 41.3627 156.165Z" fill="#3D423E"/>
<path d="M44.9671 148.585C49.6124 146.931 54.414 146.336 59.321 146.7C59.3635 146.703 59.3732 146.632 59.3307 146.626C54.5548 145.906 49.4322 146.853 44.9517 148.528C44.9159 148.542 44.9307 148.598 44.9671 148.585Z" fill="#3D423E"/>
<path d="M59.8797 148.58C60.7966 148.427 61.7116 148.281 62.6352 148.178C62.6552 148.175 62.6557 148.144 62.6352 148.146C61.7039 148.209 60.7864 148.378 59.8669 148.534C59.8366 148.539 59.8494 148.585 59.8797 148.58Z" fill="#3D423E"/>
<path d="M67.5478 151.915C66.083 154.075 65.2274 157.019 65.2525 159.623C65.2653 160.943 65.724 162.289 66.1941 163.507C66.6927 164.799 67.3768 166.017 68.2584 167.086C69.2277 168.261 70.4964 169.047 71.8296 169.748C73.2612 170.502 74.8054 171.051 76.4213 171.209C77.7458 171.338 79.2234 171.138 80.3826 170.453C81.5228 169.778 81.7906 168.505 82.6564 167.598C83.2334 166.992 84.1258 166.935 84.9051 166.855C85.7397 166.77 86.5522 166.69 87.3448 166.394C88.6744 165.899 89.9647 165.152 90.94 164.113C92.8063 162.127 91.8478 159.053 91.0788 156.788C90.276 154.422 88.6826 152.454 86.6357 151.047C84.5472 149.61 82.0891 148.78 79.6622 148.126C78.5553 147.828 77.4325 147.584 76.302 147.398C76.2313 147.385 76.2006 147.486 76.2718 147.506C81.23 148.931 86.8492 149.944 89.829 154.658C90.576 155.841 91.0168 157.168 91.3773 158.509C91.7608 159.937 92.0736 161.61 91.4526 163.016C90.8151 164.462 89.1327 165.38 87.7621 165.993C86.9019 166.378 86.0417 166.534 85.1073 166.624C84.4177 166.691 83.7091 166.737 83.0732 167.034C82.044 167.517 81.7507 168.781 81.0728 169.592C80.1573 170.688 78.5978 170.983 77.2456 171.023C75.5283 171.075 73.8367 170.49 72.3125 169.75C70.9613 169.094 69.669 168.303 68.6486 167.189C67.6635 166.113 66.958 164.791 66.4239 163.444C65.9483 162.242 65.5413 160.921 65.4998 159.623C65.4179 157.018 66.405 154.229 67.6655 151.985C67.7091 151.906 67.5964 151.843 67.5478 151.915Z" fill="#3D423E"/>
<path d="M73.2373 149.74C73.2091 152.536 74.4477 155.305 75.7205 157.734C77.0333 160.238 78.6532 162.765 80.7611 164.678C80.7929 164.707 80.8379 164.663 80.8087 164.632C78.899 162.592 77.3051 160.245 75.9857 157.785C74.6637 155.322 73.5102 152.565 73.3392 149.74C73.3351 149.675 73.2378 149.674 73.2373 149.74Z" fill="#3D423E"/>
<path d="M77.5259 149.545C81.1862 151.467 84.6406 153.746 87.4751 156.781C87.4971 156.806 87.5304 156.77 87.5099 156.746C84.8726 153.568 81.2266 151.296 77.5735 149.464C77.5192 149.436 77.4716 149.516 77.5259 149.545Z" fill="#3D423E"/>
<path d="M89.036 159.323C89.8194 160.209 90.4517 161.184 90.6232 162.374C90.6278 162.404 90.6775 162.395 90.6759 162.366C90.6196 161.137 89.9049 160.138 89.1051 159.254C89.0631 159.207 88.994 159.276 89.036 159.323Z" fill="#3D423E"/>
<path d="M77.1915 152.842C79.3214 156.384 82.014 159.642 84.8679 162.623C84.894 162.652 84.9334 162.61 84.9094 162.581C82.2352 159.401 79.4422 156.363 77.2765 152.793C77.2437 152.739 77.1587 152.789 77.1915 152.842Z" fill="#3D423E"/>
<path d="M86.2432 164.062C86.469 164.435 86.7531 164.778 87.0654 165.082C87.1028 165.118 87.1617 165.071 87.1371 165.027C86.9298 164.649 86.6031 164.35 86.3742 163.985C86.322 163.902 86.192 163.977 86.2432 164.062Z" fill="#3D423E"/>
<path d="M69.8547 151.137C67.8118 154.839 68.0991 159.465 70.6452 162.862C70.6796 162.908 70.7558 162.867 70.7236 162.817C69.6305 161.106 68.8891 159.245 68.7048 157.211C68.5164 155.137 68.9951 153.032 69.9356 151.185C69.9633 151.131 69.8839 151.084 69.8547 151.137Z" fill="#3D423E"/>
<path d="M72.5207 165.95C73.3752 167.283 74.4417 168.5 75.7893 169.351C75.8344 169.379 75.8887 169.311 75.8467 169.277C74.6112 168.277 73.5258 167.21 72.6354 165.883C72.5883 165.812 72.4741 165.878 72.5207 165.95Z" fill="#3D423E"/>
<path d="M77.8097 167.156C78.6478 168.008 79.5377 168.91 80.5202 169.596C80.575 169.633 80.6262 169.553 80.5873 169.508C79.807 168.598 78.784 167.877 77.9208 167.045C77.8481 166.975 77.7385 167.084 77.8097 167.156Z" fill="#3D423E"/>
<path d="M80.6646 135.652C83.3818 133.303 86.2479 131.217 89.323 129.362C92.3013 127.566 95.6298 125.69 99.2363 126.277C100.672 126.511 102.133 127.2 102.676 128.629C103.107 129.761 102.915 131.083 102.731 132.244C102.546 133.407 102.283 134.559 102.211 135.737C102.137 136.917 102.461 137.988 102.943 139.055C103.447 140.171 104.118 141.212 104.442 142.402C104.864 143.952 104.224 145.363 103.317 146.6C102.839 147.251 102.294 147.851 101.795 148.484C101.365 149.032 100.994 149.622 100.603 150.198C99.6147 151.653 98.369 152.522 96.6466 152.933C93.2234 153.749 89.7218 152.077 86.6806 150.709C85.1686 150.028 83.6536 149.371 82.0777 148.851C80.342 148.278 78.5649 147.848 76.7785 147.466C76.6945 147.449 76.6607 147.569 76.7432 147.595C78.5551 148.173 80.4029 148.633 82.2093 149.232C84.0366 149.838 85.7784 150.661 87.5356 151.443C90.5313 152.775 93.8265 154.004 97.1274 153.12C98.5554 152.738 99.6787 151.943 100.558 150.768C100.989 150.194 101.36 149.574 101.778 148.989C102.295 148.266 102.908 147.618 103.443 146.91C104.299 145.779 104.961 144.538 104.85 143.084C104.761 141.901 104.141 140.816 103.612 139.782C103 138.586 102.463 137.371 102.478 136.005C102.493 134.765 102.79 133.534 102.982 132.313C103.312 130.206 103.362 127.906 101.269 126.729C98.5339 125.19 95.1255 126.115 92.4902 127.365C90.9256 128.107 89.4464 129.037 87.9723 129.943C86.5295 130.83 85.143 131.806 83.8072 132.845C82.6957 133.711 81.6302 134.629 80.5898 135.578C80.5396 135.623 80.6139 135.696 80.6646 135.652Z" fill="#3D423E"/>
<path d="M78.6621 141.955C82.198 140.832 85.8419 140.113 89.535 139.77C91.351 139.601 93.1763 139.545 94.9996 139.576C96.8192 139.607 98.6204 139.792 100.434 139.91C100.472 139.912 100.48 139.852 100.443 139.844C96.8965 139.162 93.1144 139.261 89.535 139.587C85.8312 139.924 82.1704 140.715 78.6468 141.901C78.6135 141.913 78.6278 141.965 78.6621 141.955Z" fill="#3D423E"/>
<path d="M102.091 131.759C97.6602 131.517 93.3195 133.057 89.2199 134.557C89.179 134.571 89.1953 134.636 89.2378 134.622C93.4362 133.251 97.6223 131.876 102.091 131.896C102.18 131.897 102.179 131.765 102.091 131.759Z" fill="#3D423E"/>
<path d="M78.827 139.665C81.0517 138.572 83.2814 137.532 85.6069 136.671C85.6448 136.657 85.6295 136.598 85.5906 136.611C83.2215 137.335 80.9979 138.495 78.7973 139.614C78.763 139.631 78.7933 139.682 78.827 139.665Z" fill="#3D423E"/>
<path d="M83.636 135.159C86.2944 133.817 89.0295 132.677 91.8419 131.703C91.8849 131.689 91.8675 131.623 91.8234 131.636C88.968 132.461 86.2442 133.753 83.6156 135.124C83.5925 135.136 83.613 135.17 83.636 135.159Z" fill="#3D423E"/>
<path d="M79.9957 144.494C84.7522 144.502 89.5184 144.289 94.1141 145.741C94.1469 145.751 94.1587 145.702 94.1279 145.691C89.6392 144.017 84.6938 144.395 79.9957 144.412C79.9435 144.413 79.9435 144.494 79.9957 144.494Z" fill="#3D423E"/>
<path d="M98.1294 146.407C99.2072 146.718 100.287 147.037 101.37 147.332C101.412 147.343 101.442 147.278 101.401 147.26C100.364 146.813 99.2466 146.586 98.1616 146.287C98.0848 146.266 98.0526 146.385 98.1294 146.407Z" fill="#3D423E"/>
<path d="M86.1214 148.055C88.1879 148.927 90.3828 149.634 92.61 149.941C92.6653 149.948 92.6909 149.868 92.6336 149.855C90.4268 149.354 88.2642 148.817 86.167 147.947C86.1056 147.922 86.06 148.029 86.1214 148.055Z" fill="#3D423E"/>
<path d="M102.392 140.563C102.889 140.651 103.351 140.828 103.82 141.01C103.852 141.022 103.87 140.972 103.842 140.956C103.405 140.695 102.922 140.542 102.422 140.452C102.35 140.439 102.319 140.55 102.392 140.563Z" fill="#3D423E"/>
<path d="M68.8848 137.888C66.6454 135.099 64.7586 132.07 63.4459 128.735C62.8284 127.165 62.3819 125.545 62.0425 123.894C61.6877 122.17 61.4798 120.398 61.7168 118.645C62.1792 115.227 64.8974 112.675 67.6023 110.816C68.2274 110.387 68.8782 109.993 69.5397 109.621C70.3113 109.187 71.1248 108.719 72.0173 108.616C73.6613 108.428 75.1159 109.791 76.7021 110.002C78.1495 110.195 79.5447 109.625 80.9773 109.532C81.7898 109.48 82.6034 109.668 83.1763 110.274C83.4098 110.52 83.5782 110.822 83.7871 111.088C84.0641 111.44 84.3902 111.725 84.742 112C86.0676 113.036 87.5478 113.741 88.5523 115.146C89.4493 116.401 89.7867 117.946 89.7739 119.468C89.7463 122.672 88.3383 125.822 86.6277 128.465C84.8915 131.148 82.6592 133.483 80.3439 135.667C78.9666 136.966 77.5433 138.218 76.2279 139.581C76.1532 139.658 76.2663 139.77 76.3457 139.698C78.8581 137.435 81.3935 135.134 83.6694 132.628C85.6964 130.396 87.535 127.9 88.7013 125.102C89.8011 122.466 90.5342 119.332 89.544 116.552C89.1073 115.326 88.2727 114.233 87.2375 113.449C86.5831 112.955 85.8797 112.533 85.2064 112.067C84.4624 111.552 83.9817 110.953 83.4359 110.25C82.6356 109.223 81.2681 109.242 80.0992 109.421C79.3558 109.536 78.6267 109.722 77.8781 109.805C77.0139 109.9 76.2402 109.705 75.4369 109.398C74.0222 108.858 72.6967 108.08 71.1597 108.599C69.7465 109.077 68.3928 110.01 67.1809 110.861C64.7515 112.567 62.4106 114.854 61.6815 117.824C60.934 120.868 61.8018 124.328 62.747 127.234C64.0137 131.129 66.1185 134.868 68.8536 137.919C68.8731 137.94 68.9028 137.909 68.8848 137.888Z" fill="#3D423E"/>
<path d="M80.2871 110.98C77.6196 114.449 75.5455 118.304 74.138 122.447C73.432 124.525 72.9087 126.66 72.5237 128.818C72.131 131.018 71.8284 133.298 71.8376 135.536C71.8376 135.576 71.895 135.575 71.8985 135.536C72.1095 133.297 72.2626 131.073 72.6471 128.852C73.0106 126.754 73.5308 124.685 74.1949 122.662C75.5726 118.468 77.6621 114.52 80.3353 111.009C80.3573 110.98 80.3086 110.952 80.2871 110.98Z" fill="#3D423E"/>
<path d="M85.3126 114.296C84.3925 119.703 82.3435 124.841 79.976 129.764C79.9637 129.791 80.0021 129.814 80.016 129.787C82.515 124.944 84.5001 119.71 85.4109 114.323C85.4217 114.259 85.3239 114.231 85.3126 114.296Z" fill="#3D423E"/>
<path d="M74.1022 138.086C75.6285 136.661 76.9889 135.082 77.8874 133.181C77.9012 133.152 77.8587 133.126 77.8424 133.156C76.8419 134.99 75.5425 136.578 74.052 138.036C74.0198 138.068 74.0689 138.117 74.1022 138.086Z" fill="#3D423E"/>
<path d="M67.7358 131.261C67.0426 127.646 67.1988 123.962 68.1562 120.41C69.1121 116.868 70.8795 113.686 73.0791 110.774C73.1006 110.746 73.0525 110.709 73.0299 110.736C68.3211 116.264 66.0913 124.158 67.6355 131.289C67.6503 131.355 67.7481 131.326 67.7358 131.261Z" fill="#3D423E"/>
<path d="M64.7223 118.4C64.0931 120.086 63.8949 121.908 63.9435 123.7C63.9441 123.743 64.0081 123.743 64.0101 123.7C64.071 121.908 64.1929 120.124 64.8093 118.425C64.8293 118.369 64.7423 118.347 64.7223 118.4Z" fill="#3D423E"/>
<path d="M65.5886 130.577C65.9848 131.675 66.4313 132.777 67.1071 133.737C67.1297 133.768 67.1804 133.74 67.1599 133.706C66.5578 132.701 66.0785 131.654 65.6797 130.552C65.6592 130.495 65.5676 130.52 65.5886 130.577Z" fill="#3D423E"/>
<path d="M79.0278 134.324C79.8787 133.127 80.807 131.988 81.6318 130.772C81.6477 130.75 81.6113 130.729 81.5954 130.751C80.7291 131.936 79.8316 133.099 78.9914 134.303C78.975 134.325 79.0119 134.346 79.0278 134.324Z" fill="#3D423E"/>
<path d="M75.7013 129.698C76.0535 128.772 76.4508 127.868 76.8855 126.979C76.8906 126.969 76.8763 126.961 76.8712 126.97C76.4257 127.857 76.0376 128.766 75.689 129.695C75.6859 129.703 75.6982 129.706 75.7013 129.698Z" fill="#3D423E"/>
<path d="M80.4546 117.756C80.7889 117.189 81.0511 116.589 81.2784 115.972C81.2861 115.95 81.2507 115.935 81.2405 115.956C80.9809 116.557 80.7362 117.161 80.4049 117.728C80.3865 117.759 80.4361 117.788 80.4546 117.756Z" fill="#3D423E"/>
<path d="M85.7484 150.48C91.0092 154.182 95.7821 158.333 99.7987 163.38C101.828 165.931 103.613 168.675 105.156 171.546C106.735 174.483 107.849 177.584 108.992 180.707C111.422 187.34 114.03 193.933 115.544 200.853C116.323 204.416 116.758 208.062 116.726 211.712C116.694 215.524 116.843 219.317 117.021 223.125C117.114 225.102 117.175 227.081 117.236 229.06C117.24 229.192 117.438 229.192 117.441 229.06C117.536 225.253 117.227 221.447 117.076 217.647C116.93 213.97 117.144 210.289 116.791 206.622C116.128 199.727 113.879 193.085 111.515 186.616C109.291 180.532 107.298 174.35 103.927 168.782C100.72 163.485 96.5567 158.769 91.8397 154.772C89.9412 153.162 87.9321 151.678 85.7873 150.413C85.7438 150.387 85.7085 150.451 85.7484 150.48Z" fill="#3D423E"/>
<path d="M116.997 221.544C115.455 215.819 111.958 210.574 108.665 205.724C105.306 200.776 101.617 196.07 98.0001 191.312C97.9668 191.268 97.891 191.31 97.9243 191.356C101.276 196.007 104.808 200.524 108.062 205.244C111.571 210.334 114.918 215.682 116.898 221.572C116.919 221.635 117.015 221.609 116.997 221.544Z" fill="#3D423E"/>
<path d="M114.862 216.494C113.234 214.442 111.199 213.195 108.687 212.506C106.194 211.822 103.548 211.813 101.115 210.909C96.6019 209.231 93.7214 204.859 91.7815 200.682C89.7514 196.311 88.5574 191.577 87.5503 186.882C86.9584 184.122 86.4515 181.384 85.4117 178.745C84.8802 177.395 84.2187 176.101 83.5019 174.842C83.7349 175.251 85.1792 175.681 85.6154 175.896C86.5847 176.373 87.5554 176.846 88.5272 177.318C92.6913 179.342 96.8743 181.326 101.039 183.349C104.413 184.987 107.931 186.598 109.7 190.119C110.658 192.024 110.894 194.319 111.209 196.4C111.557 198.709 111.929 200.982 112.674 203.202C113.379 205.305 114.233 207.339 114.512 209.557C114.78 211.689 114.237 213.822 114.596 215.955C114.613 216.054 114.783 216.032 114.771 215.932C114.491 213.663 115.049 211.373 114.676 209.114C114.264 206.626 113.211 204.334 112.484 201.934C111.146 197.518 111.719 192.247 108.889 188.384C106.425 185.02 101.835 183.476 98.2368 181.737C93.2355 179.319 88.2225 176.928 83.252 174.446C83.144 174.393 83.016 174.504 83.0821 174.617C84.6831 177.35 85.8561 180.237 86.5729 183.324C87.0721 185.476 87.4592 187.651 87.9727 189.8C89.0233 194.2 90.3673 198.582 92.4865 202.595C94.3589 206.137 97.0325 209.402 100.793 211.004C102.969 211.931 105.417 212.03 107.713 212.502C110.525 213.079 112.947 214.329 114.814 216.542C114.842 216.575 114.889 216.527 114.862 216.494Z" fill="#3D423E"/>
<path d="M83.8704 175.318C87.1825 179.107 90.5894 182.783 93.6327 186.799C93.6573 186.831 93.7121 186.802 93.6885 186.767C90.8336 182.624 87.3157 178.965 83.9144 175.274C83.8873 175.244 83.8443 175.288 83.8704 175.318Z" fill="#3D423E"/>
<path d="M95.2644 182.133C100.793 186.947 105.008 192.9 109.33 198.762C109.363 198.806 109.438 198.766 109.406 198.718C105.337 192.714 100.863 186.805 95.3397 182.058C95.288 182.013 95.2127 182.088 95.2644 182.133Z" fill="#3D423E"/>
<path d="M110.559 201.9C111.398 203.298 112.124 204.719 112.68 206.255C112.701 206.314 112.792 206.291 112.775 206.228C112.351 204.645 111.529 203.218 110.676 201.831C110.631 201.757 110.514 201.825 110.559 201.9Z" fill="#3D423E"/>
<path d="M106.335 188.773C107.192 190.256 108.075 191.728 108.628 193.357C108.644 193.402 108.713 193.384 108.7 193.337C108.243 191.654 107.335 190.192 106.46 188.7C106.413 188.62 106.289 188.693 106.335 188.773Z" fill="#3D423E"/>
<path d="M90.3324 187.983C94.6122 195.042 99.3984 201.811 104.889 207.984C104.918 208.018 104.965 207.97 104.937 207.937C99.6272 201.6 94.7545 194.974 90.424 187.928C90.3882 187.87 90.2965 187.924 90.3324 187.983Z" fill="#3D423E"/>
<path d="M108.956 211.434C109.491 211.745 109.959 212.14 110.448 212.516C110.472 212.534 110.503 212.494 110.481 212.474C110.021 212.06 109.531 211.677 108.997 211.364C108.952 211.338 108.912 211.408 108.956 211.434Z" fill="#3D423E"/>
<path d="M94.8373 201.908C96.5704 204.49 98.8262 206.632 101.137 208.69C101.172 208.721 101.222 208.671 101.188 208.638C98.9819 206.497 96.7107 204.386 94.9847 201.822C94.9233 201.732 94.7763 201.817 94.8373 201.908Z" fill="#3D423E"/>
<path d="M110.461 183.871C109.627 179.829 109.406 175.975 109.859 171.864C110.314 167.72 111.402 163.719 112.398 159.684C112.417 159.606 112.303 159.576 112.277 159.651C110.989 163.467 110.143 167.469 109.64 171.462C109.137 175.455 108.92 180.059 110.306 183.914C110.341 184.011 110.483 183.973 110.461 183.871Z" fill="#3D423E"/>
<path d="M109.534 175.921C109.351 172.912 107.892 170.236 106.93 167.432C105.864 164.328 105.541 160.905 107.279 158.006C108.856 155.376 111.063 153.201 112.225 150.31C112.845 148.765 113.243 147.196 113.663 145.589C113.669 145.569 113.923 144.615 113.996 144.727C114.26 145.13 114.459 145.583 114.644 146.024C114.933 146.712 115.121 147.443 115.304 148.164C115.675 149.621 115.943 151.094 116.508 152.494C117.108 153.982 117.748 155.448 118.218 156.985C119.057 159.734 119.089 162.872 117.47 165.338C115.149 168.873 109.862 170.445 109.592 175.218C109.587 175.316 109.749 175.34 109.765 175.241C110.643 169.783 117.15 168.416 118.704 163.334C119.669 160.178 118.558 156.829 117.365 153.912C116.677 152.231 116.131 150.6 115.719 148.83C115.347 147.233 114.908 145.675 114.008 144.287C113.949 144.195 113.812 144.212 113.779 144.317C113.316 145.762 113.024 147.252 112.577 148.701C112.104 150.233 111.356 151.67 110.507 153.024C109.067 155.324 106.976 157.345 106.119 159.96C105.387 162.194 105.94 164.939 106.6 167.119C107.496 170.08 109.15 172.775 109.357 175.921C109.365 176.034 109.54 176.035 109.534 175.921Z" fill="#3D423E"/>
<path d="M113.993 144.837C115.146 149.242 113.608 153.57 113.149 157.948C113.144 158.002 113.233 158.013 113.243 157.961C114.003 153.781 115.468 148.998 114.119 144.803C114.093 144.723 113.972 144.756 113.993 144.837Z" fill="#3D423E"/>
<path d="M112.897 168.349C114.592 165.402 115.66 162.151 116.267 158.814C116.273 158.784 116.228 158.771 116.221 158.801C115.501 162.1 114.54 165.38 112.872 168.334C112.862 168.351 112.887 168.365 112.897 168.349Z" fill="#3D423E"/>
<path d="M116.662 156.385C116.661 156.178 116.663 155.969 116.651 155.76C116.651 155.739 116.62 155.739 116.619 155.76C116.607 155.969 116.609 156.178 116.608 156.385C116.608 156.42 116.662 156.42 116.662 156.385Z" fill="#3D423E"/>
<path d="M116.76 164.306C117.165 163.482 117.382 162.61 117.517 161.705C117.522 161.676 117.478 161.662 117.472 161.693C117.275 162.565 117.048 163.439 116.665 164.251C116.636 164.314 116.729 164.369 116.76 164.306Z" fill="#3D423E"/>
<path d="M109.346 171.78C109.281 169.399 109.038 167.04 109.175 164.655C109.327 161.998 110.034 159.448 111.107 157.023C111.118 156.996 111.08 156.972 111.067 157C108.819 161.6 108.648 166.768 109.233 171.78C109.241 171.851 109.348 171.855 109.346 171.78Z" fill="#3D423E"/>
<path d="M107.783 159.683C108.256 157.991 109.125 156.497 109.874 154.922C109.898 154.872 109.828 154.83 109.799 154.879C108.914 156.385 108.044 157.929 107.671 159.652C107.656 159.725 107.762 159.755 107.783 159.683Z" fill="#3D423E"/>
<path d="M112.016 154.294C112.437 153.015 113.104 151.836 113.463 150.533C113.473 150.493 113.413 150.478 113.401 150.516C112.959 151.79 112.299 152.975 111.877 154.257C111.849 154.345 111.987 154.382 112.016 154.294Z" fill="#3D423E"/>
<path d="M180.859 107.48C179.398 107.388 177.405 107.726 177.332 109.552C177.301 110.36 177.839 111.123 178.363 111.683C178.999 112.363 179.861 112.825 180.786 112.943C182.438 113.154 184.365 111.816 184.408 110.077C184.447 108.441 182.201 107.527 180.861 107.508C180.793 107.505 180.784 107.616 180.85 107.624C182.098 107.799 183.941 108.53 184.142 109.952C184.257 110.762 183.651 111.525 183.07 112.007C182.405 112.559 181.549 112.787 180.698 112.679C179.265 112.498 177.728 111.141 177.571 109.672C177.383 107.908 179.605 107.604 180.868 107.653C180.98 107.657 180.968 107.488 180.859 107.48Z" fill="#3D423E"/>
<path d="M184.146 108.051C185.866 105.795 188.002 103.793 190.548 102.515C192.904 101.332 195.567 100.8 198.194 100.889C201.401 100.997 204.553 102.088 207.539 103.179C208.769 103.629 210.001 104.061 211.15 104.697C212.209 105.282 213.185 106.008 214.089 106.809C217.532 109.855 220.568 114.949 219.441 119.712C219.16 120.893 218.584 122.071 217.774 122.978C217.404 123.392 216.919 123.651 216.5 124.007C216.079 124.366 215.719 124.767 215.401 125.219C214.701 126.214 214.258 127.37 213.746 128.466C213.458 129.083 213.106 129.681 212.564 130.108C211.99 130.56 211.229 130.619 210.527 130.591C209.926 130.568 209.329 130.47 208.725 130.447C207.929 130.416 207.16 130.385 206.392 130.15C205.051 129.74 203.826 128.997 202.66 128.232C201.545 127.5 200.483 126.679 199.337 125.993C198.394 125.43 196.94 125.024 196.398 123.988C196.339 123.877 196.181 123.983 196.235 124.092C196.721 125.08 198.053 125.57 198.964 126.06C200.223 126.739 201.357 127.66 202.546 128.451C203.732 129.241 204.979 129.942 206.342 130.38C207.001 130.591 207.678 130.639 208.366 130.66C209.094 130.682 209.812 130.764 210.539 130.802C211.715 130.865 212.696 130.486 213.387 129.514C214.086 128.532 214.458 127.309 215.016 126.245C215.283 125.736 215.586 125.25 215.956 124.808C216.381 124.302 216.909 123.946 217.431 123.555C218.281 122.919 218.841 121.898 219.242 120.939C221.016 116.707 218.785 111.804 216.046 108.544C214.557 106.771 212.715 105.259 210.644 104.215C209.442 103.609 208.135 103.193 206.871 102.739C205.341 102.191 203.794 101.694 202.214 101.311C198.847 100.495 195.444 100.475 192.155 101.636C188.853 102.802 186.098 105.154 184.04 107.953C183.987 108.027 184.091 108.125 184.146 108.051Z" fill="#3D423E"/>
<path d="M185.773 110.107C191.143 109.873 196.422 111.51 201.111 114.045C203.375 115.27 205.501 116.747 207.462 118.412C209.464 120.113 211.204 122.042 212.869 124.069C212.893 124.098 212.944 124.068 212.92 124.034C210 119.843 205.772 116.449 201.323 114.004C196.594 111.405 191.2 109.765 185.77 110.049C185.732 110.051 185.735 110.109 185.773 110.107Z" fill="#3D423E"/>
<path d="M186.411 107.771C189.625 105.02 194.029 104.693 198.053 105.272C202.076 105.851 205.966 107.305 209.605 109.08C209.637 109.096 209.664 109.047 209.631 109.03C205.966 107.096 201.936 105.67 197.821 105.106C193.883 104.566 189.58 104.956 186.454 107.643C186.423 107.67 186.392 107.697 186.36 107.724C186.327 107.754 186.379 107.8 186.411 107.771Z" fill="#3D423E"/>
<path d="M212.018 112.001C213.288 112.937 214.256 114.163 215.058 115.511C215.076 115.54 215.128 115.517 215.112 115.486C214.443 114.051 213.384 112.833 212.105 111.908C212.04 111.861 211.953 111.952 212.018 112.001Z" fill="#3D423E"/>
<path d="M204.637 103.681C206.474 104.203 208.259 104.886 209.95 105.775C211.649 106.669 213.179 107.809 214.627 109.064C214.668 109.1 214.723 109.04 214.684 109.002C211.924 106.304 208.342 104.613 204.652 103.615C204.609 103.604 204.595 103.669 204.637 103.681Z" fill="#3D423E"/>
<path d="M218.023 119.66C218.085 119.872 218.251 120.026 218.328 120.23C218.344 120.268 218.396 120.249 218.388 120.21C218.347 119.994 218.182 119.837 218.126 119.627C218.108 119.56 218.003 119.594 218.023 119.66Z" fill="#3D423E"/>
<path d="M187.077 112.549C190.304 113.101 193.153 114.895 195.614 116.981C198.061 119.054 200.136 121.514 201.979 124.127C201.991 124.145 202.017 124.128 202.006 124.111C200.235 121.396 198.014 118.911 195.552 116.809C193.145 114.755 190.269 112.957 187.088 112.496C187.054 112.491 187.043 112.543 187.077 112.549Z" fill="#3D423E"/>
<path d="M204.32 126.518C204.963 126.986 205.54 127.527 206.152 128.035C206.177 128.055 206.208 128.02 206.186 127.998C205.621 127.442 205.018 126.921 204.377 126.455C204.333 126.423 204.275 126.485 204.32 126.518Z" fill="#3D423E"/>
<path d="M193.256 108.265C196.022 108.892 198.653 109.914 201.289 110.941C201.313 110.951 201.331 110.916 201.308 110.906C198.7 109.798 196.043 108.809 193.27 108.201C193.229 108.191 193.214 108.255 193.256 108.265Z" fill="#3D423E"/>
<path d="M190.967 103.339C191.653 103.075 192.354 102.858 193.061 102.658C193.085 102.652 193.073 102.617 193.049 102.623C192.333 102.788 191.634 103.015 190.947 103.278C190.908 103.293 190.928 103.355 190.967 103.339Z" fill="#3D423E"/>
<path d="M184.103 113.257C185.7 113.434 187.267 113.835 188.668 114.64C189.897 115.345 190.959 116.306 191.9 117.358C193.892 119.587 195.483 122.303 196.619 125.057C197.82 127.97 197.907 131.036 197.618 134.135C197.34 137.128 196.648 140.201 195.224 142.868C194.115 144.947 192.248 146.626 189.752 146.301C188.986 146.202 188.231 145.957 187.51 145.686C186.854 145.441 186.238 145.079 185.577 144.855C184.433 144.469 183.311 145.174 182.341 145.728C181.16 146.403 180.035 147.164 178.712 147.537C177.542 147.866 176.284 147.992 175.077 147.832C173.909 147.678 172.832 147.166 172.044 146.283C171.143 145.274 170.96 143.866 170.31 142.714C169.631 141.512 168.337 140.876 167.327 140.003C166.233 139.055 165.395 137.748 164.847 136.418C163.885 134.081 163.89 131.434 164.358 128.987C164.824 126.542 165.829 124.278 167.181 122.199C168.585 120.04 170.24 118.025 172.187 116.332C174.046 114.716 176.203 113.529 178.561 112.816C178.666 112.784 178.612 112.634 178.508 112.656C173.634 113.7 169.867 117.723 167.192 121.7C164.563 125.609 162.989 130.584 164.206 135.273C164.519 136.478 165.074 137.595 165.786 138.612C166.6 139.775 167.662 140.543 168.77 141.4C169.341 141.842 169.832 142.349 170.188 142.981C170.55 143.626 170.746 144.358 171.024 145.04C171.425 146.033 172.1 146.848 173.017 147.401C174.87 148.519 177.444 148.281 179.4 147.584C180.597 147.157 181.655 146.413 182.753 145.794C183.356 145.455 184.032 145.078 184.726 144.982C185.451 144.883 186.237 145.431 186.876 145.702C188.073 146.21 189.384 146.643 190.698 146.591C191.686 146.553 192.614 146.144 193.387 145.543C195.246 144.098 196.155 141.614 196.81 139.442C197.677 136.565 197.992 133.513 197.941 130.516C197.891 127.574 196.873 124.857 195.487 122.297C194.317 120.136 192.881 118.012 191.108 116.299C189.169 114.429 186.802 113.39 184.124 113.161C184.062 113.156 184.039 113.25 184.103 113.257Z" fill="#3D423E"/>
<path d="M181.922 115.816C183.445 120.216 183.127 125.013 182.346 129.526C181.567 134.028 180.189 138.384 179.053 142.802C179.043 142.846 179.112 142.861 179.124 142.817C180.406 138.334 181.73 133.843 182.505 129.239C183.252 124.807 183.475 120.105 181.966 115.802C181.955 115.774 181.912 115.789 181.922 115.816Z" fill="#3D423E"/>
<path d="M184.971 115.485C189.267 119.29 189.958 125.411 189.912 130.819C189.912 130.857 189.97 130.853 189.972 130.815C190.195 125.403 189.374 119.164 185.029 115.423C184.987 115.387 184.931 115.449 184.971 115.485Z" fill="#3D423E"/>
<path d="M189.73 136.324C189.594 138.703 189.095 141.034 188.607 143.361C188.603 143.38 188.631 143.386 188.636 143.367C189.169 141.041 189.657 138.71 189.785 136.321C189.788 136.284 189.732 136.288 189.73 136.324Z" fill="#3D423E"/>
<path d="M194.184 123.13C195.271 125.744 195.816 128.539 195.886 131.364C195.959 134.245 195.533 137.116 195 139.939C194.994 139.968 195.038 139.978 195.044 139.949C195.634 137.177 196.036 134.36 195.996 131.521C195.953 128.617 195.361 125.788 194.216 123.12C194.208 123.099 194.175 123.11 194.184 123.13Z" fill="#3D423E"/>
<path d="M191.367 119.136C191.6 119.379 191.772 119.648 191.905 119.958C191.912 119.975 191.94 119.968 191.933 119.949C191.815 119.627 191.636 119.349 191.401 119.099C191.379 119.075 191.345 119.112 191.367 119.136Z" fill="#3D423E"/>
<path d="M179.006 114.508C175.398 116.494 172.877 119.961 171.105 123.599C169.318 127.267 168.156 131.347 167.836 135.418C167.832 135.463 167.911 135.468 167.916 135.424C168.373 131.409 169.438 127.452 171.178 123.8C172.924 120.134 175.478 116.637 179.065 114.6C179.127 114.565 179.068 114.474 179.006 114.508Z" fill="#3D423E"/>
<path d="M167.742 138.158C167.674 138.493 167.716 138.82 167.865 139.127C167.878 139.152 167.913 139.131 167.907 139.106C167.825 138.798 167.766 138.495 167.826 138.176C167.837 138.122 167.754 138.104 167.742 138.158Z" fill="#3D423E"/>
<path d="M176.61 125.01C174.702 131.415 173.927 138.204 173.995 144.878C173.996 144.901 174.03 144.898 174.031 144.876C174.169 138.156 174.735 131.493 176.657 125.02C176.665 124.99 176.618 124.98 176.61 125.01Z" fill="#3D423E"/>
<path d="M178.366 119.645C178.26 120.135 178.151 120.625 178.071 121.12C178.064 121.163 178.125 121.177 178.138 121.135C178.271 120.651 178.378 120.161 178.487 119.671C178.505 119.593 178.384 119.566 178.366 119.645Z" fill="#3D423E"/>
<path d="M177.583 147.006C177.886 146.559 178.189 146.113 178.479 145.658C178.489 145.642 178.464 145.624 178.452 145.639C178.135 146.079 177.83 146.526 177.525 146.975C177.501 147.01 177.56 147.04 177.583 147.006Z" fill="#3D423E"/>
<path d="M183.518 83.5294C184.132 80.7789 185.101 77.6578 187.383 75.8085C189.643 73.9765 192.438 74.9877 194.853 75.8689C195.968 76.2759 197.121 76.7009 198.314 76.7946C199.727 76.9046 201.113 76.5273 202.522 76.5237C204.664 76.5186 207.117 77.9245 207.671 80.0934C207.903 80.9971 207.593 81.9125 207.339 82.7757C207.106 83.5714 206.861 84.3619 206.804 85.1944C206.663 87.245 208.34 88.5557 209.22 90.2213C210.342 92.345 209.553 94.9414 208.363 96.8522C207.774 97.8004 207.008 98.6175 206.194 99.3733C205.318 100.185 204.482 101.033 203.474 101.684C203.397 101.734 203.472 101.846 203.551 101.802C204.755 101.143 205.725 100.1 206.71 99.1613C207.688 98.2289 208.51 97.1389 209.104 95.9244C209.681 94.7432 210.011 93.4141 209.938 92.0962C209.865 90.7676 209.187 89.6765 208.416 88.6361C207.571 87.4959 206.873 86.4258 207.012 84.9477C207.121 83.7788 207.607 82.6652 207.859 81.5249C208.287 79.5875 206.882 77.9399 205.284 77.07C204.481 76.6333 203.592 76.3988 202.683 76.3542C201.369 76.2892 200.073 76.6517 198.759 76.6456C196.407 76.6348 194.251 75.2918 192.001 74.7701C190.993 74.5356 189.954 74.4977 188.952 74.7763C187.868 75.0778 186.967 75.8141 186.258 76.663C184.69 78.542 183.717 81.0979 183.394 83.5023C183.383 83.5821 183.5 83.6103 183.518 83.5294Z" fill="#3D423E"/>
<path d="M183.036 105.882C185.253 95.8829 193.124 88.2218 200.957 82.2176C200.99 82.192 200.957 82.1377 200.921 82.1623C196.765 85.0525 192.968 88.5889 189.771 92.5119C186.599 96.4051 183.974 100.903 182.96 105.865C182.951 105.913 183.025 105.93 183.036 105.882Z" fill="#3D423E"/>
<path d="M202.872 80.9973C203.888 80.2784 204.942 79.6574 206.12 79.2432C206.152 79.2319 206.137 79.1853 206.104 79.194C204.889 79.5089 203.832 80.2011 202.832 80.9364C202.796 80.9635 202.833 81.0239 202.872 80.9973Z" fill="#3D423E"/>
<path d="M205.47 87.9838C203.529 89.7451 201.524 91.4388 199.387 92.9609C197.228 94.501 194.932 95.7995 192.614 97.0805C192.587 97.0958 192.609 97.1429 192.637 97.1301C197.444 94.861 201.667 91.6533 205.553 88.0606C205.607 88.0109 205.524 87.9356 205.47 87.9838Z" fill="#3D423E"/>
<path d="M190.467 98.858C188.222 100.144 186.551 102.328 185.217 104.504C185.197 104.536 185.248 104.572 185.272 104.543C186.057 103.552 186.726 102.478 187.539 101.507C188.388 100.492 189.369 99.5993 190.511 98.9281C190.558 98.9005 190.514 98.8319 190.467 98.858Z" fill="#3D423E"/>
<path d="M193.93 100.605C195.271 100.09 196.62 99.5716 197.822 98.7739C197.845 98.7596 197.824 98.7258 197.801 98.7396C196.565 99.4728 195.243 100.012 193.909 100.539C193.868 100.555 193.889 100.621 193.93 100.605Z" fill="#3D423E"/>
<path d="M202.701 96.674C204.444 95.8963 206.039 94.7878 207.162 93.2241C207.179 93.2001 207.147 93.1678 207.128 93.1924C205.943 94.7064 204.43 95.8287 202.683 96.6172C202.648 96.633 202.666 96.6899 202.701 96.674Z" fill="#3D423E"/>
<path d="M201.076 99.402C201.387 99.2751 201.679 99.1097 201.984 98.973C202.008 98.9622 201.997 98.9269 201.974 98.9351C201.658 99.0472 201.367 99.2147 201.055 99.3365C201.015 99.3529 201.036 99.4189 201.076 99.402Z" fill="#3D423E"/>
<path d="M185.899 91.8288C188.18 87.9171 190.946 84.16 194.805 81.6825C194.835 81.6635 194.807 81.6205 194.777 81.6374C190.823 83.8672 188.074 87.9668 185.865 91.8114C185.853 91.8329 185.886 91.8498 185.899 91.8288Z" fill="#3D423E"/>
<path d="M197.67 79.4478C199.101 78.432 200.612 77.559 202.089 76.6139C202.126 76.5893 202.09 76.5335 202.051 76.5545C200.512 77.3726 198.985 78.283 197.625 79.3766C197.584 79.4099 197.625 79.48 197.67 79.4478Z" fill="#3D423E"/>
<path d="M192.223 75.9015C189.062 76.7227 186.964 79.9673 186.066 82.9256C186.057 82.9573 186.105 82.9661 186.114 82.9364C187.161 80.042 189.103 76.8845 192.264 76.0279C192.347 76.0059 192.306 75.88 192.223 75.9015Z" fill="#3D423E"/>
<path d="M185.915 85.3571C185.771 85.9782 185.602 86.589 185.425 87.2009C185.414 87.2377 185.471 87.2577 185.488 87.2239C185.769 86.6474 185.885 86.0033 186.016 85.3792C186.03 85.3146 185.93 85.2926 185.915 85.3571Z" fill="#3D423E"/>
<path d="M181.159 106.496C181.506 104.967 182.135 103.515 182.636 102.034C183.153 100.506 183.482 98.9104 183.825 97.3355C184.489 94.2799 184.977 91.2284 184.533 88.1072C184.327 86.6644 183.983 85.2436 183.637 83.829C183.339 82.6099 183.213 81.3565 182.926 80.1354C182.65 78.967 182.16 77.8969 181.387 76.9748C180.557 75.9851 179.397 75.446 178.173 75.1183C176.922 74.7824 175.621 74.6565 174.371 74.3134C173.174 73.9842 172.033 73.4712 170.893 72.9858C168.911 72.1421 166.666 71.159 164.464 71.5865C163.208 71.8302 162.215 72.5619 161.14 73.2121C160.048 73.8736 158.931 74.5203 158.188 75.5853C157.454 76.6364 157.021 77.8544 156.113 78.7863C155.295 79.6265 154.276 80.2409 153.452 81.0775C151.311 83.254 152.396 86.2328 153.95 88.3919C154.886 89.6939 156.041 90.8664 157.2 91.9698C158.191 92.9139 159.42 94.0091 160.806 94.304C160.901 94.3245 160.934 94.1755 160.838 94.155C159.587 93.8898 158.49 92.9426 157.572 92.1116C156.512 91.1531 155.523 90.0953 154.621 88.9894C153.093 87.117 151.542 84.4014 152.903 82.0257C153.521 80.9454 154.657 80.2398 155.59 79.4616C156.484 78.7156 157.066 77.8457 157.62 76.833C157.931 76.2626 158.248 75.6999 158.666 75.1987C159.147 74.6191 159.836 74.2105 160.467 73.8117C161.611 73.0852 162.805 72.2127 164.125 71.8507C166.525 71.1918 169.055 72.4057 171.213 73.3268C172.277 73.781 173.344 74.2366 174.459 74.5531C175.713 74.9089 177.021 75.0364 178.279 75.3764C179.761 75.7762 180.953 76.5965 181.788 77.8928C182.508 79.0085 182.775 80.3381 182.996 81.6248C183.487 84.4587 184.385 87.2143 184.534 90.1015C184.676 92.8929 184.011 95.7422 183.396 98.4471C183.083 99.829 182.753 101.194 182.286 102.533C181.833 103.838 181.368 105.125 181.075 106.478C181.064 106.533 181.147 106.55 181.159 106.496Z" fill="#3D423E"/>
<path d="M162.482 75.308C166.107 79.2043 169.307 83.4749 171.959 88.0916C173.278 90.3894 174.453 92.7692 175.518 95.1946C176.06 96.431 176.607 97.6819 177.04 98.9608C177.515 100.361 178.249 101.66 178.664 103.082C178.671 103.108 178.708 103.095 178.703 103.07C178.376 101.683 177.723 100.418 177.239 99.0847C176.757 97.7551 176.228 96.4454 175.663 95.1469C174.603 92.7042 173.411 90.3203 172.087 88.0097C169.434 83.3812 166.196 79.1265 162.531 75.2547C162.499 75.2209 162.45 75.2742 162.482 75.308Z" fill="#3D423E"/>
<path d="M169.611 74.6993C171.288 76.5077 172.928 78.3555 174.271 80.4317C175.678 82.6082 176.606 85.0238 176.928 87.5992C176.932 87.6279 176.977 87.6258 176.973 87.5966C176.465 82.3763 173.071 78.3596 169.63 74.6783C169.618 74.665 169.6 74.686 169.611 74.6993Z" fill="#3D423E"/>
<path d="M178.907 93.4914C179.748 96.1896 180.088 99.024 180.057 101.845C180.056 101.881 180.11 101.877 180.111 101.842C180.247 99.0102 179.854 96.164 178.982 93.4673C178.966 93.4192 178.892 93.4432 178.907 93.4914Z" fill="#3D423E"/>
<path d="M180.319 81.9918C181.149 83.7403 181.902 85.5215 182.437 87.3842C182.99 89.3119 183.201 91.2851 183.168 93.2865C183.167 93.3254 183.225 93.3203 183.228 93.2834C183.504 89.2832 182.072 85.5026 180.368 81.9606C180.351 81.9268 180.303 81.9585 180.319 81.9918Z" fill="#3D423E"/>
<path d="M177.72 76.9043C177.912 77.4485 178.201 77.9503 178.418 78.4843C178.431 78.5145 178.475 78.5002 178.467 78.469C178.302 77.9155 177.998 77.4199 177.808 76.8761C177.789 76.8198 177.701 76.848 177.72 76.9043Z" fill="#3D423E"/>
<path d="M157.682 80.3034C160.619 85.6942 164.829 90.2889 169.525 94.2068C169.554 94.2303 169.592 94.1899 169.564 94.1653C167.312 92.1168 165.085 90.0544 163.073 87.7648C161.049 85.4628 159.225 82.9499 157.735 80.2696C157.715 80.2343 157.663 80.2686 157.682 80.3034Z" fill="#3D423E"/>
<path d="M171.822 97.1923C173.384 99.1102 175 100.972 176.293 103.09C176.317 103.129 176.373 103.092 176.352 103.052C175.202 100.864 173.481 99.0237 171.917 97.1324C171.872 97.0781 171.777 97.1365 171.822 97.1923Z" fill="#3D423E"/>
<path d="M156.749 86.793C158.023 88.626 159.692 90.1405 161.37 91.5941C161.399 91.6202 161.439 91.5762 161.41 91.549C159.815 90.0094 158.124 88.5625 156.847 86.7311C156.805 86.6697 156.707 86.7321 156.749 86.793Z" fill="#3D423E"/>
<path d="M161.372 78.9534C161.847 79.6891 162.369 80.3926 162.853 81.1222C162.866 81.1417 162.896 81.1227 162.884 81.1028C162.418 80.3614 161.89 79.661 161.417 78.9263C161.398 78.8971 161.355 78.9257 161.372 78.9534Z" fill="#3D423E"/>
<path d="M168.685 89.6002C169.631 90.8188 170.571 92.0404 171.478 93.2871C171.49 93.3025 171.514 93.2871 171.503 93.2707C170.624 92.0046 169.675 90.7896 168.731 89.571C168.71 89.5434 168.663 89.5726 168.685 89.6002Z" fill="#3D423E"/>
<path d="M164.4 73.0599C165.159 74.1193 165.948 75.155 166.692 76.2256C166.715 76.2605 166.768 76.2267 166.747 76.1903C166.076 75.0742 165.239 74.0655 164.475 73.0118C164.442 72.9652 164.367 73.0134 164.4 73.0599Z" fill="#3D423E"/>
<path d="M177.694 107.043C174.622 102.667 171.004 98.3566 166.175 95.8636C163.982 94.7311 161.546 94.0506 159.073 94.0076C156.732 93.9662 154.386 94.5063 152.254 95.4612C150.171 96.3941 148.29 97.7852 146.838 99.549C145.064 101.706 144.329 104.337 143.812 107.033C143.512 108.601 143.254 110.178 142.808 111.713C142.453 112.936 141.858 114.036 141.334 115.189C140.909 116.121 140.551 117.122 140.622 118.161C140.692 119.166 141.311 119.983 142.036 120.632C143.682 122.107 145.997 122.748 148.079 123.325C149.173 123.629 150.277 123.9 151.365 124.229C151.908 124.393 152.448 124.571 152.958 124.826C153.6 125.146 154.176 125.593 154.769 125.995C155.82 126.709 157.002 127.105 158.235 127.384C159.405 127.647 160.587 127.698 161.705 127.214C162.78 126.748 163.63 125.868 164.428 125.037C164.933 124.512 165.452 124.004 166.002 123.525C166.431 123.152 166.718 122.699 167.026 122.225C167.225 121.921 167.429 121.611 167.716 121.381C167.827 121.294 167.713 121.108 167.597 121.194C167.225 121.465 166.968 121.844 166.716 122.222C166.321 122.814 165.915 123.236 165.389 123.711C164.365 124.639 163.518 125.758 162.376 126.554C161.171 127.394 159.843 127.451 158.444 127.178C157.112 126.92 155.868 126.451 154.744 125.69C154.195 125.316 153.657 124.927 153.069 124.614C152.587 124.357 152.053 124.196 151.534 124.034C150.456 123.699 149.356 123.435 148.266 123.14C146.051 122.542 143.605 121.86 141.915 120.218C140.977 119.308 140.669 118.185 140.939 116.918C141.186 115.768 141.791 114.71 142.286 113.655C143.556 110.943 143.733 107.887 144.437 105.012C145.093 102.329 146.376 100.014 148.426 98.1553C150.248 96.5031 152.512 95.3634 154.876 94.7244C159.249 93.5438 163.693 94.4925 167.51 96.8328C171.646 99.3688 174.757 103.253 177.623 107.089C177.654 107.132 177.726 107.088 177.694 107.043Z" fill="#3D423E"/>
<path d="M143.563 116.735C147.138 113.642 151.602 111.682 156.141 110.493C160.867 109.255 165.888 108.839 170.739 109.473C172.352 109.683 173.955 110.031 175.506 110.521C175.542 110.532 175.553 110.476 175.518 110.464C171.189 108.942 166.436 108.772 161.909 109.264C157.203 109.776 152.504 111.095 148.322 113.334C146.594 114.26 144.966 115.37 143.514 116.69C143.482 116.719 143.531 116.762 143.563 116.735Z" fill="#3D423E"/>
<path d="M175.727 107.808C173.319 106.101 170.47 105.12 167.639 104.374C164.687 103.596 161.661 103.107 158.646 102.654C158.618 102.65 158.607 102.692 158.636 102.697C161.539 103.197 164.438 103.702 167.29 104.445C170.201 105.204 173.148 106.207 175.647 107.921C175.713 107.966 175.791 107.853 175.727 107.808Z" fill="#3D423E"/>
<path d="M173.194 112.073C167.533 112.692 162.239 115.548 158.206 119.515C158.186 119.535 158.218 119.563 158.238 119.545C162.466 115.751 167.469 112.838 173.203 112.21C173.29 112.201 173.283 112.062 173.194 112.073Z" fill="#3D423E"/>
<path d="M153.775 123.502C154.779 122.689 155.727 121.804 156.698 120.953C156.718 120.935 156.689 120.901 156.667 120.917C155.641 121.699 154.741 122.635 153.744 123.455C153.718 123.477 153.747 123.524 153.775 123.502Z" fill="#3D423E"/>
<path d="M147.367 102.178C150.04 101.277 152.76 101.704 155.48 102.109C155.511 102.114 155.522 102.067 155.49 102.06C152.805 101.481 149.988 101.178 147.347 102.115C147.308 102.129 147.327 102.191 147.367 102.178Z" fill="#3D423E"/>
<path d="M154.257 96.5337C156.412 96.5317 158.569 96.6684 160.679 97.1282C162.863 97.6023 164.907 98.4737 166.792 99.6682C166.822 99.6882 166.847 99.6385 166.818 99.6185C163.119 97.0355 158.668 96.3725 154.25 96.4129C154.172 96.4134 154.179 96.5337 154.257 96.5337Z" fill="#3D423E"/>
<path d="M169.634 101.656C170.8 102.425 171.972 103.185 173.138 103.952C173.178 103.978 173.221 103.915 173.186 103.885C172.122 102.979 170.853 102.317 169.686 101.556C169.626 101.517 169.573 101.615 169.634 101.656Z" fill="#3D423E"/>
<path d="M144.983 110.283C147.025 108.939 149.508 108.673 151.866 108.307C151.909 108.3 151.907 108.233 151.862 108.238C149.491 108.502 146.957 108.844 144.937 110.21C144.891 110.241 144.936 110.314 144.983 110.283Z" fill="#3D423E"/>
<path d="M147.3 121.259C149.857 118.768 152.831 116.908 156.202 115.732C156.251 115.715 156.227 115.641 156.178 115.656C152.777 116.676 149.704 118.661 147.24 121.202C147.203 121.241 147.263 121.296 147.3 121.259Z" fill="#3D423E"/>
<path d="M160.259 113.654C161.135 113.428 161.984 113.133 162.806 112.755C162.835 112.741 162.822 112.693 162.79 112.705C161.949 113.029 161.1 113.332 160.227 113.559C160.164 113.575 160.195 113.671 160.259 113.654Z" fill="#3D423E"/>
<path d="M161.449 122.223C164.837 120.844 167.141 117.844 169.983 115.67C170.016 115.642 169.982 115.587 169.946 115.613C167.027 117.679 164.778 120.72 161.426 122.154C161.384 122.171 161.405 122.241 161.449 122.223Z" fill="#3D423E"/>
<path d="M175.204 112.429C175.678 112.442 176.145 112.488 176.618 112.519C176.663 112.522 176.66 112.457 176.624 112.445C176.174 112.286 175.667 112.326 175.198 112.322C175.129 112.322 175.136 112.427 175.204 112.429Z" fill="#3D423E"/>
<path d="M118.648 199.538C123.154 186.392 129.526 174.186 137.117 162.568C144.682 150.992 153.251 140.113 161.742 129.213C163.312 127.199 164.905 125.203 166.441 123.163C166.544 123.026 166.313 122.893 166.212 123.028C157.93 134.032 149.165 144.649 141.283 155.954C133.529 167.076 126.543 178.804 121.442 191.393C120.363 194.055 119.378 196.76 118.529 199.505C118.506 199.581 118.622 199.612 118.648 199.538Z" fill="#3D423E"/>
<path d="M129.472 174.786C132.178 173.019 134.777 171.17 137.622 169.621C140.625 167.986 143.759 166.602 146.944 165.366C153.07 162.989 159.421 161.308 165.724 159.482C165.788 159.464 165.761 159.368 165.696 159.384C159.209 161.005 152.755 162.874 146.518 165.3C143.561 166.45 140.669 167.764 137.866 169.251C134.941 170.804 131.929 172.542 129.422 174.72C129.385 174.751 129.433 174.812 129.472 174.786Z" fill="#3D423E"/>
<path d="M134.468 171.182C137.232 169.956 139.367 167.746 141.445 165.612C143.685 163.313 146.008 161.073 148.513 159.061C151.452 156.7 154.738 154.947 158.525 154.52C161.989 154.13 165.566 154.486 169.047 154.456C172.449 154.428 175.855 154.239 179.186 153.52C179.598 153.432 180.004 153.323 180.41 153.216C180.899 153.086 180.967 152.936 180.626 153.357C180.234 153.839 179.89 154.359 179.555 154.88C178.696 156.211 178.016 157.653 177.298 159.062C175.782 162.041 173.957 164.595 171.118 166.443C168.435 168.191 165.239 169.019 162.096 169.432C157.768 170.002 153.432 169.658 149.109 169.249C146.784 169.028 144.457 168.848 142.119 168.903C140.138 168.951 137.843 169.059 136.122 170.132C136.013 170.2 136.108 170.359 136.222 170.302C138.493 169.181 141.377 169.202 143.857 169.238C146.346 169.274 148.827 169.568 151.304 169.795C155.746 170.203 160.245 170.252 164.628 169.326C168.428 168.525 171.987 166.753 174.587 163.827C177.442 160.615 178.449 156.207 181.264 152.951C181.336 152.868 181.27 152.722 181.152 152.758C176.548 154.139 171.731 154.238 166.961 154.244C162.669 154.249 158.135 153.67 154.07 155.389C150.13 157.055 147.056 159.961 143.943 162.805C140.802 165.674 138.22 169.03 134.437 171.128C134.399 171.148 134.432 171.199 134.468 171.182Z" fill="#3D423E"/>
<path d="M170.798 157.899C172.558 157.243 174.23 156.405 175.896 155.54C177.648 154.63 179.454 153.815 181.196 152.892C181.223 152.878 181.205 152.834 181.176 152.843C179.433 153.39 177.806 154.354 176.195 155.199C174.413 156.132 172.625 157.054 170.776 157.846C170.745 157.858 170.766 157.91 170.798 157.899Z" fill="#3D423E"/>
<path d="M148.675 167.364C152.772 167.37 156.856 167.033 160.877 166.231C164.763 165.456 168.91 164.215 172.069 161.728C172.106 161.699 172.058 161.637 172.02 161.663C165.331 166.201 156.579 167.238 148.675 167.287C148.626 167.288 148.626 167.364 148.675 167.364Z" fill="#3D423E"/>
<path d="M142.199 166.248C145.96 163.598 149.976 161.48 154.308 159.93C154.343 159.917 154.329 159.864 154.294 159.875C149.923 161.229 145.86 163.526 142.179 166.215C142.159 166.229 142.179 166.263 142.199 166.248Z" fill="#3D423E"/>
<path d="M160.406 158.213C163.286 157.38 166.199 156.812 169.158 156.338C169.193 156.332 169.184 156.271 169.149 156.275C166.178 156.607 163.25 157.301 160.388 158.152C160.349 158.163 160.366 158.225 160.406 158.213Z" fill="#3D423E"/>
<path d="M153.544 157.913C154.941 157.23 156.395 156.703 157.826 156.104C157.864 156.089 157.851 156.027 157.809 156.041C156.329 156.519 154.887 157.137 153.496 157.828C153.439 157.856 153.488 157.939 153.544 157.913Z" fill="#3D423E"/>
<path d="M139.118 136.47C140.498 140.321 140.039 144.41 139.96 148.415C139.913 150.813 139.732 153.2 139.307 155.563C139.109 156.667 138.82 157.752 138.471 158.818C138.084 160 137.46 161.097 137.114 162.29C137.097 162.351 137.187 162.389 137.216 162.333C139.445 158.163 139.995 153.483 140.111 148.831C140.212 144.82 140.886 140.215 139.199 136.437C139.178 136.391 139.102 136.424 139.118 136.47Z" fill="#3D423E"/>
<path d="M139.595 155.213C139.623 152.557 137.078 150.874 135.461 149.08C133.088 146.447 132.42 142.936 132.707 139.495C132.954 136.512 133.9 133.639 134.267 130.673C134.697 127.197 133.847 123.931 133.77 120.476C133.773 120.646 134.709 121.603 134.89 121.832C135.427 122.51 135.973 123.182 136.516 123.855C137.592 125.189 138.598 126.58 139.681 127.906C141.895 130.619 144.786 133.499 145.113 137.169C145.405 140.455 143.875 143.731 143.713 147.015C143.613 149.054 143.129 150.527 141.817 152.1C140.851 153.258 139.899 154.155 139.295 155.565C139.237 155.7 139.429 155.82 139.495 155.682C140.776 153.037 143.648 151.432 143.933 148.295C144.113 146.312 144.28 144.392 144.709 142.442C145.065 140.824 145.419 139.227 145.406 137.561C145.383 134.409 143.085 131.491 141.142 129.19C138.612 126.193 136.12 123.122 133.757 119.987C133.687 119.896 133.531 119.917 133.53 120.048C133.502 123.37 134.426 126.582 134.143 129.921C133.88 133.028 132.918 136.032 132.554 139.127C132.22 141.97 132.598 144.886 134 147.408C135.474 150.061 139.436 151.949 139.43 155.213C139.429 155.32 139.594 155.32 139.595 155.213Z" fill="#3D423E"/>
<path d="M133.624 120.623C135.485 124.245 137.607 127.584 138.481 131.623C138.491 131.67 138.558 131.649 138.551 131.603C137.949 127.586 135.725 124.02 133.719 120.567C133.683 120.505 133.592 120.56 133.624 120.623Z" fill="#3D423E"/>
<path d="M141.93 132.871C143.441 136.596 143.102 140.58 143.115 144.508C143.115 144.522 143.137 144.522 143.137 144.508C143.176 140.583 143.486 136.573 141.979 132.857C141.967 132.827 141.917 132.84 141.93 132.871Z" fill="#3D423E"/>
<path d="M139.248 128.986C139.876 130.325 140.449 131.675 140.834 133.106C140.843 133.14 140.894 133.125 140.887 133.091C140.586 131.631 139.975 130.272 139.347 128.927C139.316 128.86 139.216 128.919 139.248 128.986Z" fill="#3D423E"/>
<path d="M142.454 146.383C142.337 147.896 141.935 149.319 141.457 150.751C141.446 150.783 141.499 150.806 141.512 150.774C142.107 149.374 142.462 147.901 142.549 146.383C142.552 146.321 142.458 146.322 142.454 146.383Z" fill="#3D423E"/>
<path d="M140.967 138.177C141.103 139.374 141.02 140.572 141.058 141.772C141.059 141.819 141.129 141.819 141.132 141.772C141.18 140.573 141.214 139.371 141.066 138.177C141.058 138.115 140.96 138.114 140.967 138.177Z" fill="#3D423E"/>
<path d="M134.301 124.21C137.726 132.643 133.473 142.659 138.963 150.459C138.981 150.484 139.024 150.461 139.006 150.435C133.792 142.411 138.035 132.604 134.44 124.152C134.406 124.072 134.268 124.131 134.301 124.21Z" fill="#3D423E"/>
<path d="M134.02 136.291C132.92 140.625 133.487 145.902 136.608 149.308C136.65 149.353 136.71 149.287 136.674 149.242C133.797 145.624 133.038 140.755 134.104 136.314C134.116 136.259 134.034 136.237 134.02 136.291Z" fill="#3D423E"/>
<path d="M110.832 66.5079C111.179 66.021 111.395 65.4486 111.241 64.8501C111.056 64.1322 110.294 63.7559 109.654 63.5445C107.916 62.9705 105.925 63.9817 105.413 65.7619C105.027 67.1018 105.877 68.6184 107.323 68.6322C108.68 68.645 110.138 67.6282 110.81 66.4931C110.841 66.4398 110.769 66.3886 110.731 66.4378C110.031 67.363 109.02 68.0905 107.879 68.3445C106.512 68.6486 105.574 67.6871 105.569 66.3349C105.563 64.6703 107.46 63.4405 108.986 63.6341C109.712 63.7267 110.603 64.0739 110.95 64.763C111.22 65.2996 110.977 65.9391 110.709 66.4229C110.663 66.5059 110.775 66.5883 110.832 66.5079Z" fill="#3D423E"/>
<path d="M110.15 62.9384C112.063 57.8425 115.054 53.0389 119.35 49.6203C121.231 48.1237 123.373 47.0731 125.652 46.3307C128.009 45.5621 130.514 45.129 132.996 45.2299C135.355 45.3251 137.938 46.0045 139.516 47.8738C140.504 49.0443 141.026 50.5091 141.09 52.0272C141.118 52.6974 141.124 53.3548 141.281 54.0107C141.44 54.6737 141.799 55.2932 142.153 55.8682C142.85 56.9997 143.792 58.0411 144.181 59.3324C144.535 60.5018 144.546 61.7844 144.524 62.9957C144.498 64.3484 144.333 65.6633 143.804 66.9207C143.207 68.3385 142.142 69.5176 140.992 70.5124C137.306 73.6981 132.001 74.5905 127.319 73.6868C124.88 73.2158 122.664 72.1938 120.453 71.1007C119.3 70.5314 118.157 69.9415 117.064 69.2626C116.073 68.6472 115.119 67.9949 114.035 67.5505C113.917 67.5029 113.855 67.6836 113.969 67.7348C115.401 68.3886 116.666 69.3492 118.035 70.1177C119.334 70.8473 120.682 71.4934 122.024 72.1406C124.637 73.4011 127.491 74.187 130.399 74.2649C133.26 74.3406 136.132 73.651 138.674 72.3428C141.047 71.1207 143.227 69.0414 144.164 66.5086C144.595 65.3417 144.683 64.1027 144.705 62.8703C144.726 61.7198 144.675 60.5422 144.39 59.423C144.097 58.2725 143.315 57.2977 142.662 56.3316C142.262 55.7397 141.896 55.1309 141.618 54.4715C141.269 53.6405 141.292 52.744 141.254 51.8613C141.152 49.4815 139.745 47.2528 137.618 46.1786C135.61 45.1659 133.322 44.9518 131.106 45.0865C126.528 45.364 121.986 47.1196 118.501 50.099C114.609 53.426 111.679 58.0672 110.065 62.9077C110.047 62.9625 110.13 62.9922 110.15 62.9384Z" fill="#3D423E"/>
<path d="M113.269 64.0923C115.139 62.906 117.264 62.2199 119.372 61.5968C121.624 60.9307 123.842 60.1847 126.076 59.4628C128.449 58.6963 130.845 57.9939 133.269 57.4071C135.842 56.785 138.4 56.3519 141.057 56.441C141.103 56.4425 141.108 56.3749 141.064 56.3703C138.56 56.1082 136.044 56.634 133.62 57.2013C131.066 57.7988 128.55 58.5458 126.054 59.3496C123.766 60.0874 121.493 60.8498 119.191 61.5405C117.123 62.161 115.059 62.8563 113.249 64.0611C113.231 64.0728 113.251 64.1036 113.269 64.0923Z" fill="#3D423E"/>
<path d="M115.325 66.2307C123.431 66.82 131.899 67.373 139.652 64.4254C139.68 64.4141 139.664 64.3634 139.634 64.3732C135.678 65.6639 131.635 66.3684 127.477 66.5312C123.427 66.6894 119.371 66.4094 115.331 66.1518C115.28 66.1488 115.274 66.2271 115.325 66.2307Z" fill="#3D423E"/>
<path d="M141.175 63.9704C142.074 63.7046 142.988 63.3242 143.653 62.6427C143.69 62.6043 143.642 62.5506 143.599 62.5803C142.818 63.1066 142.052 63.5562 141.151 63.848C141.077 63.8721 141.097 63.9929 141.175 63.9704Z" fill="#3D423E"/>
<path d="M118.249 68.4794C123.014 70.3866 128.421 71.2913 133.548 70.9319C133.596 70.9283 133.59 70.8469 133.543 70.8474C128.345 70.9232 123.152 70.2745 118.277 68.4021C118.227 68.3831 118.2 68.4599 118.249 68.4794Z" fill="#3D423E"/>
<path d="M136.781 70.1709C137.551 70.0819 138.31 69.894 139.045 69.6497C139.078 69.6385 139.07 69.5857 139.033 69.5939C138.276 69.7654 137.538 69.9866 136.764 70.0762C136.702 70.0839 136.72 70.1786 136.781 70.1709Z" fill="#3D423E"/>
<path d="M112.923 61.8397C116.658 57.1201 122.222 54.4198 127.396 51.6079C127.43 51.5889 127.405 51.5347 127.369 51.5526C122.14 54.1884 116.48 57.0254 112.864 61.7982C112.836 61.8361 112.895 61.876 112.923 61.8397Z" fill="#3D423E"/>
<path d="M129.979 50.757C132.4 49.4324 135.065 48.9266 137.76 48.5001C137.82 48.4903 137.799 48.4064 137.742 48.4105C135.056 48.5738 132.272 49.3177 129.919 50.6346C129.843 50.6771 129.902 50.7989 129.979 50.757Z" fill="#3D423E"/>
<path d="M119.511 51.6198C121.922 49.8929 124.655 48.7194 127.473 47.8336C127.509 47.8229 127.499 47.767 127.463 47.7768C124.608 48.556 121.855 49.8186 119.452 51.5502C119.404 51.5845 119.464 51.6536 119.511 51.6198Z" fill="#3D423E"/>
<path d="M127.655 55.3493C129.763 54.5045 131.877 53.7038 134.037 53.0018C134.081 52.9875 134.07 52.9168 134.023 52.9286C131.824 53.5056 129.715 54.4078 127.62 55.2782C127.573 55.2976 127.608 55.3683 127.655 55.3493Z" fill="#3D423E"/>
<path d="M129.178 62.5649C130.476 62.5152 131.748 62.1809 132.971 61.7606C133.008 61.7478 132.986 61.6853 132.95 61.6955C131.7 62.0242 130.486 62.4205 129.185 62.4784C129.129 62.4809 129.123 62.567 129.178 62.5649Z" fill="#3D423E"/>
<path d="M105.8 69.7469C103.719 71.8118 101.657 74.0093 100.158 76.5442C98.6514 79.0919 97.9658 82.0052 98.315 84.9492C98.4799 86.3378 98.5587 87.735 98.8362 89.1077C99.1009 90.4158 99.6129 91.6319 100.313 92.7649C101.456 94.6153 103.091 96.095 105.011 97.1072C108.854 99.1332 113.472 99.1854 117.692 98.7415C118.806 98.6247 119.907 98.4353 121.028 98.4025C122.044 98.3723 123.059 98.4343 124.072 98.485C125.738 98.5684 127.531 98.6734 129.065 97.8972C130.767 97.0365 131.455 95.2389 132.022 93.5396C132.882 90.9657 134.167 88.5491 134.825 85.9062C135.386 83.6564 135.23 81.44 134.47 79.2609C133.771 77.2549 132.519 75.2601 130.656 74.1578C130.584 74.1148 130.511 74.2177 130.581 74.2669C132.713 75.7404 134.065 78.1186 134.683 80.5967C135.396 83.4491 134.678 86.1965 133.646 88.8722C133.115 90.2505 132.518 91.6027 132.016 92.9922C131.586 94.1821 131.273 95.3735 130.516 96.4129C129.365 97.9929 127.518 98.3672 125.672 98.3667C123.691 98.3677 121.726 98.1112 119.745 98.3145C117.48 98.5464 115.26 98.8244 112.975 98.7512C108.454 98.6068 103.871 97.2137 101.055 93.4663C99.8218 91.8233 99.147 89.952 98.8603 87.9301C98.5485 85.7326 98.2418 83.4419 98.6186 81.2393C99.4117 76.6072 102.827 73.1512 105.872 69.8304C105.919 69.7792 105.852 69.6957 105.8 69.7469Z" fill="#3D423E"/>
<path d="M110.462 70.0741C110.579 72.5987 111.296 75.0435 112.146 77.4095C113.027 79.8625 114.036 82.2945 115.101 84.6748C116.116 86.9465 117.372 89.1061 118.793 91.1485C120.233 93.219 121.849 95.2414 123.69 96.9715C123.723 97.0017 123.775 96.9602 123.744 96.9254C122.143 95.0935 120.531 93.2964 119.115 91.3134C117.644 89.2551 116.372 87.0576 115.318 84.7587C114.258 82.4486 113.287 80.0673 112.395 77.688C111.478 75.2422 110.713 72.6889 110.552 70.0684C110.548 70.0188 110.46 70.0234 110.462 70.0741Z" fill="#3D423E"/>
<path d="M111.874 68.5912C114.83 71.7697 117.819 74.9185 120.236 78.5425C120.258 78.5742 120.313 78.5378 120.292 78.5051C118.007 74.7951 114.913 71.6868 111.938 68.5354C111.901 68.4955 111.836 68.5508 111.874 68.5912Z" fill="#3D423E"/>
<path d="M124.937 85.6569C125.978 87.2559 126.941 88.8872 127.681 90.6495C127.698 90.6894 127.753 90.6597 127.74 90.6218C127.124 88.8078 126.078 87.1848 125.027 85.5975C124.993 85.5464 124.903 85.6052 124.937 85.6569Z" fill="#3D423E"/>
<path d="M124.435 74.4366C127.947 77.8507 130.32 82.1284 131.467 86.8818C131.48 86.9356 131.561 86.9197 131.551 86.8654C130.703 82.0552 128.058 77.6848 124.553 74.3353C124.481 74.2667 124.362 74.3665 124.435 74.4366Z" fill="#3D423E"/>
<path d="M131.431 78.1581C132.481 79.2569 133.23 80.5374 133.311 82.0826C133.316 82.143 133.405 82.1543 133.409 82.0898C133.536 80.5057 132.631 79.1289 131.577 78.0322C131.492 77.9431 131.345 78.068 131.431 78.1581Z" fill="#3D423E"/>
<path d="M106.893 71.9553C105.71 75.2572 105.337 78.7337 105.938 82.1969C106.554 85.7517 108.133 89.0863 110.015 92.1353C110.034 92.1645 110.083 92.1425 110.065 92.1102C108.316 89.094 106.792 85.9217 106.116 82.4779C105.424 78.9544 105.807 75.3611 106.945 71.9738C106.957 71.9405 106.905 71.9215 106.893 71.9553Z" fill="#3D423E"/>
<path d="M111.842 95.1328C112.385 95.9668 113.046 96.7066 113.729 97.4265C113.761 97.4598 113.811 97.4168 113.783 97.3809C113.179 96.6078 112.505 95.8946 111.97 95.0703C111.92 94.9945 111.792 95.0554 111.842 95.1328Z" fill="#3D423E"/>
<path d="M103.015 93.588C102.127 91.094 101.491 88.5197 101.424 85.8629C101.358 83.2394 101.933 80.6646 102.829 78.2116C102.844 78.1701 102.781 78.1481 102.765 78.1885C101.766 80.6881 101.234 83.3229 101.3 86.018C101.363 88.6308 102.025 91.1913 102.927 93.631C102.949 93.6904 103.036 93.6463 103.015 93.588Z" fill="#3D423E"/>
<path d="M107.137 62.7648C106.234 60.2662 104.935 57.9407 103.965 55.4688C103.454 54.1662 103.074 52.8187 102.856 51.4352C102.678 50.3037 102.608 49.1491 102.486 48.0099C102.22 45.5063 101.978 42.9898 102.072 40.4697C102.154 38.2297 102.517 35.8709 103.915 34.0482C105.268 32.2844 107.338 31.1227 109.314 30.1939C111.423 29.2032 113.647 28.4684 115.882 27.8218C117.779 27.2734 119.957 26.4491 121.844 27.446C123.418 28.278 124.287 30.0915 125.22 31.5189C125.633 32.1523 126.074 32.7667 126.57 33.3396C127.285 34.1665 128.147 34.8551 128.89 35.6579C130.114 36.9794 131.217 38.5415 131.618 40.3248C132.027 42.1363 131.402 43.851 130.201 45.2057C130.144 45.2713 130.255 45.347 130.313 45.283C130.882 44.6405 131.358 43.957 131.642 43.1383C132.089 41.8475 131.929 40.4656 131.445 39.2107C131.071 38.2405 130.49 37.3568 129.854 36.5401C129.007 35.4537 127.973 34.5781 127.02 33.5966C125.689 32.2255 124.862 30.4873 123.719 28.9758C122.7 27.6288 121.369 26.7993 119.645 26.8403C118.632 26.8643 117.649 27.1772 116.68 27.446C115.642 27.7332 114.61 28.0409 113.586 28.3763C111.414 29.088 109.269 29.9328 107.289 31.0837C105.588 32.0729 103.969 33.3539 103.053 35.1331C102.06 37.0608 101.913 39.3807 101.903 41.5081C101.891 43.8715 102.148 46.2277 102.398 48.5742C102.519 49.7062 102.595 50.8459 102.795 51.9677C103.022 53.2405 103.417 54.4775 103.889 55.6792C104.839 58.1015 106.113 60.3799 107.022 62.8206C107.051 62.8979 107.165 62.8411 107.137 62.7648Z" fill="#3D423E"/>
<path d="M120.431 28.1273C118.714 29.9285 117.472 32.0958 116.398 34.325C115.271 36.668 114.318 39.0984 113.346 41.5089C112.252 44.2205 111.381 47.0242 110.766 49.8827C110.173 52.6393 109.712 55.6043 109.937 58.4305C109.94 58.4792 110.02 58.4735 110.021 58.4254C110.066 57.0379 110.079 55.6596 110.215 54.2761C110.354 52.8712 110.584 51.476 110.869 50.0936C111.459 47.2341 112.343 44.436 113.415 41.7224C114.331 39.4051 115.27 37.0837 116.32 34.8232C117.418 32.4588 118.714 30.1225 120.488 28.1933C120.525 28.1524 120.47 28.0863 120.431 28.1273Z" fill="#3D423E"/>
<path d="M108.497 61.5402C106.68 56.0925 107.093 50.0934 107.366 44.4476C107.368 44.4036 107.301 44.3979 107.297 44.4425C107.073 47.3281 106.934 50.2204 107.029 53.1142C107.122 55.9666 107.429 58.8727 108.421 61.5653C108.436 61.6078 108.511 61.5832 108.497 61.5402Z" fill="#3D423E"/>
<path d="M108.086 38.5604C108.253 36.0423 109.583 33.7854 110.889 31.6949C110.903 31.6719 110.87 31.6478 110.854 31.6704C109.469 33.723 108.155 36.0275 108.016 38.5552C108.014 38.5998 108.083 38.6049 108.086 38.5604Z" fill="#3D423E"/>
<path d="M103.946 38.2442C103.493 43.4271 102.962 48.9829 104.755 53.9861C104.767 54.0174 104.817 53.9994 104.81 53.9687C104.091 51.3718 103.676 48.7873 103.623 46.0901C103.572 43.4717 103.794 40.8559 103.965 38.2457C103.966 38.2334 103.948 38.2319 103.946 38.2442Z" fill="#3D423E"/>
<path d="M114.181 52.5416C116.22 46.8625 119.158 41.5152 120.793 35.6892C120.803 35.6513 120.747 35.6308 120.735 35.6687C118.899 41.4307 116.083 46.8067 114.105 52.5145C114.088 52.5636 114.163 52.5903 114.181 52.5416Z" fill="#3D423E"/>
<path d="M121.199 46.404C123.103 43.6551 124.731 40.6251 125.925 37.5003C125.941 37.4578 125.878 37.4363 125.86 37.4763C124.484 40.5467 123.03 43.5696 121.125 46.3523C121.092 46.4009 121.166 46.4511 121.199 46.404Z" fill="#3D423E"/>
<path d="M127.147 43.7763C128.03 43.0042 128.666 42.0411 129.171 40.9895C129.187 40.9536 129.129 40.9239 129.109 40.9577C128.524 41.9387 127.921 42.91 127.061 43.6759C126.997 43.7328 127.083 43.8326 127.147 43.7763Z" fill="#3D423E"/>
<path d="M122.236 31.8843C122.431 31.231 122.755 30.6447 123.101 30.06C123.114 30.0375 123.082 30.0155 123.067 30.037C122.667 30.5966 122.361 31.1987 122.168 31.8602C122.155 31.9048 122.222 31.9293 122.236 31.8843Z" fill="#3D423E"/>
<path d="M79.1766 56.35C77.1685 54.6353 75.912 52.1818 75.4277 49.6054C75.2116 48.4539 75.1497 47.2461 75.5137 46.1192C75.8352 45.1224 76.4758 44.2535 77.1705 43.4845C78.6103 41.8886 80.3905 40.6439 81.8963 39.1151C82.5808 38.4198 83.2019 37.6564 83.653 36.7885C84.1204 35.8884 84.4896 34.9356 84.9089 34.0135C85.5177 32.6731 86.2416 31.2769 87.5513 30.5027C89.1191 29.5765 91.0171 29.9692 92.7343 30.0388C94.8146 30.1243 96.904 30.1633 98.9602 30.5206C99.9448 30.6922 100.923 30.9584 101.824 31.3946C102.728 31.8314 103.722 32.668 104.168 33.5788C104.211 33.6669 104.366 33.6203 104.335 33.5235C104.008 32.5461 103.013 31.816 102.164 31.3066C101.215 30.7362 100.055 30.4817 98.9782 30.2851C96.4678 29.8284 93.8976 29.8986 91.3606 29.7403C89.4903 29.6241 87.667 29.7342 86.3374 31.2251C85.0779 32.6378 84.4717 34.5403 83.6909 36.231C81.9695 39.9553 77.7184 41.5471 75.7538 45.0819C74.7667 46.858 74.9812 48.9322 75.5106 50.8214C76.1081 52.9524 77.299 55.1207 79.0998 56.4616C79.1709 56.5154 79.2416 56.4058 79.1766 56.35Z" fill="#3D423E"/>
<path d="M86.479 33.8199C88.804 44.3272 93.1601 55.0346 102.215 61.4674C102.265 61.5027 102.316 61.5391 102.366 61.5744C102.39 61.5908 102.413 61.5554 102.391 61.538C101.208 60.576 99.9722 59.7122 98.8699 58.6498C97.9289 57.7436 97.0487 56.7713 96.2259 55.7565C94.5261 53.6599 93.0828 51.3554 91.8432 48.9613C89.3738 44.1915 87.7872 39.0167 86.5906 33.7984C86.5742 33.7267 86.4636 33.7482 86.479 33.8199Z" fill="#3D423E"/>
<path d="M97.6954 50.3671C100.014 54.4119 102.5 58.3727 104.985 62.3172C105.014 62.3612 105.088 62.3284 105.061 62.2803C102.813 58.1961 100.189 54.3228 97.8372 50.2975C97.786 50.2109 97.6447 50.2785 97.6954 50.3671Z" fill="#3D423E"/>
<path d="M90.4832 35.0765C91.0254 37.0088 92.0177 38.7629 92.9393 40.5329C92.9654 40.582 93.0402 40.5457 93.0176 40.4945C92.2092 38.681 91.1785 36.9699 90.6333 35.0473C90.6066 34.9531 90.4561 34.9808 90.4832 35.0765Z" fill="#3D423E"/>
<path d="M94.0796 32.5226C96.399 36.2203 98.384 40.0675 99.8908 44.1681C99.9057 44.2095 99.9784 44.185 99.9645 44.143C98.6728 39.9912 96.5864 36.0646 94.1728 32.4617C94.1375 32.4095 94.0458 32.4694 94.0796 32.5226Z" fill="#3D423E"/>
<path d="M99.5435 31.4653C100.066 32.648 100.706 33.7672 101.347 34.889C101.368 34.9254 101.426 34.8987 101.407 34.8598C100.846 33.6986 100.206 32.5763 99.6838 31.3967C99.6439 31.3045 99.5025 31.3726 99.5435 31.4653Z" fill="#3D423E"/>
<path d="M88.5036 30.2784C88.7412 30.7111 88.9404 31.1622 89.1661 31.6004C89.1866 31.6409 89.2598 31.6204 89.2445 31.5738C89.0934 31.0997 88.8646 30.6543 88.6214 30.2211C88.5809 30.1479 88.4627 30.2042 88.5036 30.2784Z" fill="#3D423E"/>
<path d="M81.6431 42.2503C83.1555 46.4487 86.3407 49.9011 89.2888 53.1533C89.318 53.1861 89.3676 53.1431 89.34 53.1093C86.5491 49.6799 83.3393 46.4098 81.7706 42.1884C81.7388 42.1023 81.6119 42.1653 81.6431 42.2503Z" fill="#3D423E"/>
<path d="M77.8038 48.4342C79.1099 50.4694 80.7437 52.3069 82.697 53.7426C82.7405 53.7743 82.7835 53.7083 82.7436 53.6745C80.8953 52.1113 79.24 50.3956 77.9036 48.3686C77.8663 48.3123 77.7674 48.3768 77.8038 48.4342Z" fill="#3D423E"/>
<path d="M93.529 56.8113C95.3297 57.9618 97.1099 59.1573 98.9505 60.2438C98.9884 60.2658 99.0258 60.2131 98.9894 60.188C97.2292 58.9766 95.3952 57.8655 93.5935 56.7171C93.532 56.6782 93.467 56.7714 93.529 56.8113Z" fill="#3D423E"/>
<path d="M104.844 64.9463C104.361 64.5767 103.821 64.3181 103.272 64.0616C102.517 63.7094 101.804 63.2854 101.089 62.8589C99.7173 62.0387 98.3666 61.1842 97.0047 60.347C95.7549 59.5775 94.5865 58.7071 93.3797 57.8731C92.1914 57.0513 90.9221 56.4057 89.571 55.8957C87.0094 54.9296 83.8248 54.3577 81.1568 55.2153C78.6029 56.0365 77.2036 58.4593 75.982 60.667C75.3389 61.8298 74.7204 63.0207 73.7707 63.9669C72.9617 64.7733 71.9945 65.4046 71.0888 66.0922C69.454 67.3333 67.6661 69.1683 68.2252 71.4062C68.472 72.3944 69.133 73.2489 69.7346 74.0477C70.5737 75.1633 71.3023 76.2662 71.739 77.6066C72.589 80.2132 72.2654 83.0706 73.2126 85.6501C73.8679 87.4359 75.4009 88.5275 77.1319 89.1506C78.16 89.5198 79.2398 89.7266 80.3058 89.9473C81.7717 90.2504 83.2447 90.5182 84.7367 90.6595C87.3981 90.9104 89.8997 90.5064 92.3424 89.4276C93.5743 88.8839 94.779 88.2454 95.9336 87.5537C96.909 86.969 97.9063 86.2798 98.4731 85.2676C98.5197 85.1852 98.403 85.1002 98.3497 85.1821C97.616 86.3254 96.3709 87.075 95.2148 87.7298C93.9061 88.4697 92.5529 89.1624 91.1444 89.6944C88.1215 90.8341 84.9717 90.6083 81.851 90.0436C79.5005 89.6186 76.7582 89.2551 74.8633 87.6638C72.784 85.9174 72.826 82.831 72.5183 80.3606C72.3483 78.9972 72.0657 77.6583 71.503 76.4003C71.0197 75.321 70.2686 74.4142 69.5758 73.4686C68.8862 72.5265 68.2615 71.482 68.345 70.2722C68.4325 68.9952 69.3813 67.8709 70.2829 67.045C71.1257 66.2729 72.0949 65.6503 72.9914 64.9448C73.9156 64.2173 74.6462 63.3919 75.2585 62.3894C76.7029 60.025 77.7893 57.1506 80.3755 55.7856C82.317 54.7606 84.8155 54.9526 86.8999 55.3515C89.1808 55.7867 91.3558 56.7287 93.2743 58.0256C94.136 58.6083 94.9629 59.2406 95.8302 59.8151C96.8219 60.4715 97.8587 61.0659 98.872 61.689C99.9072 62.3254 100.947 62.9542 102.004 63.5522C102.917 64.0678 103.944 64.4 104.793 65.0211C104.84 65.0554 104.89 64.9817 104.844 64.9463Z" fill="#3D423E"/>
<path d="M73.7709 74.7265C81.7812 69.628 91.2721 66.6799 100.799 67.2175C100.855 67.2211 100.86 67.1397 100.806 67.1331C96.0834 66.5642 91.1682 67.387 86.6385 68.7131C82.0766 70.0484 77.7021 72.0524 73.7387 74.6779C73.711 74.6963 73.7428 74.7445 73.7709 74.7265Z" fill="#3D423E"/>
<path d="M84.9128 64.0412C88.1359 63.2927 91.4173 63.5446 94.6552 64.0591C96.2147 64.3075 97.7645 64.6075 99.3225 64.866C100.988 65.1425 102.662 65.3151 104.273 65.8465C104.306 65.8578 104.325 65.8071 104.292 65.7948C102.821 65.2296 101.256 65.0335 99.7091 64.7872C98.0241 64.5194 96.3499 64.1917 94.6649 63.9245C91.4173 63.4094 88.1236 63.1903 84.8985 63.967C84.8509 63.9782 84.8652 64.0525 84.9128 64.0412Z" fill="#3D423E"/>
<path d="M82.8788 58.7101C85.5678 58.7382 88.1785 59.1442 90.74 59.9645C90.7907 59.9808 90.8168 59.9066 90.7682 59.8877C88.2707 58.8836 85.5617 58.5851 82.888 58.5902C82.8112 58.5908 82.801 58.709 82.8788 58.7101Z" fill="#3D423E"/>
<path d="M73.0205 68.5252C75.1442 67.9195 77.2992 67.4976 79.4758 67.132C79.5167 67.1254 79.5039 67.0655 79.4635 67.0701C77.2752 67.324 75.1115 67.8145 73.0102 68.4724C72.978 68.4827 72.9872 68.5349 73.0205 68.5252Z" fill="#3D423E"/>
<path d="M77.8383 59.6661C78.554 59.3952 79.2647 59.3179 80.0158 59.2196C80.0701 59.2129 80.0629 59.1305 80.0107 59.1264C79.2545 59.0685 78.4824 59.279 77.7865 59.5611C77.7169 59.5898 77.7681 59.6927 77.8383 59.6661Z" fill="#3D423E"/>
<path d="M103.493 68.877C100.266 69.9435 97.0413 71.0182 93.9222 72.3735C90.8175 73.7226 87.7798 75.363 85.2592 77.6481C85.228 77.6768 85.2689 77.7244 85.3012 77.6977C90.5118 73.2761 97.1586 71.1319 103.53 68.9881C103.593 68.9671 103.556 68.856 103.493 68.877Z" fill="#3D423E"/>
<path d="M83.5002 79.3772C81.3667 80.4862 79.3673 81.8604 77.6578 83.5582C77.6378 83.5782 77.6655 83.6115 77.6865 83.5915C79.4549 81.9587 81.4461 80.6398 83.5514 79.4822C83.6169 79.4463 83.5673 79.3424 83.5002 79.3772Z" fill="#3D423E"/>
<path d="M84.8515 87.1343C88.9685 84.8549 92.8326 82.0691 96.2235 78.8015C96.2532 78.7729 96.2128 78.7242 96.1816 78.7524C92.6611 81.8955 88.9286 84.73 84.8111 87.0509C84.7588 87.0806 84.7988 87.164 84.8515 87.1343Z" fill="#3D423E"/>
<path d="M98.1078 76.3913C99.3412 75.2966 100.558 74.183 101.541 72.8513C101.563 72.8216 101.518 72.7929 101.496 72.8195C100.433 74.0729 99.2454 75.1988 98.0443 76.317C97.9977 76.36 98.0601 76.4332 98.1078 76.3913Z" fill="#3D423E"/>
<path d="M80.5767 89.044C81.3897 88.8976 82.211 88.6656 82.9344 88.2576C82.9693 88.2381 82.9447 88.1864 82.9078 88.2018C82.1408 88.5213 81.3775 88.7977 80.5577 88.9472C80.4943 88.9585 80.5132 89.0553 80.5767 89.044Z" fill="#3D423E"/>
<path d="M94.2778 86.5227C95.4866 86.2611 96.4139 85.4864 97.08 84.4655C97.1025 84.4297 97.0523 84.3964 97.0267 84.4286C96.2874 85.3569 95.4457 86.1387 94.2542 86.4019C94.1769 86.4188 94.2 86.5401 94.2778 86.5227Z" fill="#3D423E"/>
<path d="M119.472 98.7462C122.78 105.225 123.347 112.406 123.397 119.563C123.45 127.123 123.172 134.696 122.848 142.249C122.189 157.58 121.008 172.885 119.598 188.164C118.743 197.424 117.765 206.673 116.885 215.931C116.878 216.012 117.001 216.01 117.009 215.931C120.512 185.573 123.18 154.979 123.59 124.41C123.706 115.712 123.805 106.557 119.581 98.6822C119.542 98.6105 119.435 98.674 119.472 98.7462Z" fill="#3D423E"/>
<path d="M117.132 215.971C126.222 201.46 141.535 193.378 155.892 185.033C155.953 184.998 155.899 184.905 155.836 184.939C148.398 188.871 141.049 193.096 134.232 198.042C127.522 202.912 121.247 208.706 116.997 215.892C116.946 215.979 117.079 216.055 117.132 215.971Z" fill="#3D423E"/>
<path d="M123.479 207.597C124.358 205.993 124.436 203.757 124.799 201.955C125.178 200.073 125.547 198.181 126.021 196.319C126.756 193.428 128.503 190.538 130.321 188.204C132.456 185.464 135.257 183.447 138.589 182.444C142.081 181.394 145.73 181.6 149.289 180.983C152.311 180.46 155.099 179.108 157.554 177.3C160.167 175.376 162.595 173.257 165.662 172.069C167.201 171.472 168.77 171.348 170.401 171.254C171.894 171.167 173.365 170.809 174.781 170.343C177.538 169.438 180.088 167.89 182.255 165.974C181.953 166.241 181.809 167.506 181.685 167.912C181.449 168.677 181.193 169.437 180.931 170.194C180.314 171.974 179.61 173.723 178.85 175.446C176.191 181.474 172.622 187.629 167.741 192.131C165.391 194.299 162.615 195.964 159.661 197.168C156.645 198.397 153.475 198.788 150.338 199.567C148.796 199.949 147.263 200.452 145.826 201.134C144.573 201.728 143.521 202.66 142.467 203.544C140.763 204.974 138.863 205.621 136.714 206.114C134.095 206.716 131.404 207.021 128.727 207.234C126.983 207.372 125.185 207.537 123.434 207.438C123.264 207.429 123.265 207.693 123.434 207.702C127.133 207.911 130.968 207.428 134.608 206.811C136.606 206.473 138.633 206.03 140.49 205.198C141.306 204.831 141.968 204.296 142.652 203.729C144.04 202.575 145.362 201.559 147.051 200.881C150.263 199.595 153.701 199.295 157.002 198.341C159.761 197.545 162.381 196.307 164.772 194.722C169.915 191.311 173.538 185.978 176.49 180.665C179.11 175.948 181.116 170.884 182.547 165.685C182.576 165.583 182.45 165.517 182.376 165.585C179.882 167.873 176.898 169.547 173.644 170.478C170.735 171.31 167.721 170.897 164.905 172.153C162.018 173.44 159.659 175.494 157.138 177.35C154.308 179.434 151.023 180.629 147.546 181.02C144.08 181.41 140.685 181.447 137.356 182.627C134.585 183.608 132.273 185.536 130.412 187.767C128.438 190.135 127.057 192.922 125.969 195.788C125.391 197.31 125.196 199.065 124.87 200.654C124.657 201.696 124.45 202.74 124.251 203.785C124.01 205.05 123.98 206.378 123.388 207.543C123.357 207.604 123.447 207.657 123.479 207.597Z" fill="#3D423E"/>
<path d="M159.954 182.687C164.11 180.364 168.411 178.302 172.448 175.767C174.408 174.536 176.291 173.171 178.011 171.617C179.655 170.132 181.396 168.278 182.189 166.172C182.217 166.097 182.094 166.046 182.06 166.118C179.94 170.479 175.777 173.503 171.755 175.987C167.902 178.365 163.786 180.274 159.901 182.597C159.843 182.631 159.895 182.719 159.954 182.687Z" fill="#3D423E"/>
<path d="M131.577 203.611C142.088 198.609 152.924 194.01 162.677 187.589C162.706 187.57 162.679 187.523 162.649 187.541C152.688 193.696 142.086 198.51 131.546 203.558C131.511 203.576 131.542 203.627 131.577 203.611Z" fill="#3D423E"/>
<path d="M168.772 183.683C171.294 182.161 173.514 180.221 175.505 178.058C175.537 178.022 175.486 177.971 175.451 178.005C173.354 180.065 171.24 182.053 168.743 183.632C168.711 183.652 168.741 183.703 168.772 183.683Z" fill="#3D423E"/>
<path d="M156.267 195.581C160.496 194.535 163.884 191.733 167.223 189.078C167.26 189.05 167.212 188.989 167.175 189.015C163.691 191.505 160.501 194.409 156.243 195.492C156.185 195.506 156.21 195.594 156.267 195.581Z" fill="#3D423E"/>
<path d="M135.951 204.181C138.419 203.532 140.779 202.554 143.063 201.42C143.095 201.404 143.066 201.359 143.035 201.373C140.7 202.385 138.385 203.413 135.923 204.082C135.86 204.099 135.887 204.198 135.951 204.181Z" fill="#3D423E"/>
<path d="M126.592 200.087C131.985 193.058 139.123 187.798 146.818 183.534C146.86 183.51 146.824 183.448 146.781 183.469C139.002 187.467 131.805 193.034 126.527 200.05C126.498 200.089 126.563 200.125 126.592 200.087Z" fill="#3D423E"/>
<path d="M133.001 188.926C134.87 187.049 137.039 185.569 139.314 184.232C139.348 184.211 139.318 184.158 139.282 184.178C136.943 185.419 134.777 186.951 132.935 188.86C132.894 188.904 132.958 188.969 133.001 188.926Z" fill="#3D423E"/>
<path d="M157.443 179.936C160.008 178.768 162.48 177.366 164.869 175.875C164.909 175.851 164.874 175.789 164.832 175.812C162.348 177.157 159.974 178.678 157.41 179.878C157.37 179.896 157.405 179.954 157.443 179.936Z" fill="#3D423E"/>
<path d="M165.727 173.718C166.542 173.396 167.368 173.112 168.219 172.904C168.259 172.894 168.241 172.838 168.203 172.844C167.33 172.972 166.509 173.268 165.693 173.593C165.616 173.623 165.65 173.749 165.727 173.718Z" fill="#3D423E"/>
<path d="M123.181 138.611C123.018 137.626 122.284 136.593 121.833 135.727C120.718 133.587 119.517 131.49 118.29 129.412C115.735 125.083 113.076 120.522 109.541 116.905C109.494 116.857 109.422 116.929 109.467 116.979C112.84 120.738 115.497 125.217 118.063 129.544C119.226 131.505 120.353 133.489 121.438 135.494C121.975 136.487 122.715 137.559 123.044 138.649C123.07 138.739 123.196 138.7 123.181 138.611Z" fill="#3D423E"/>
<path d="M122.392 136.933C121.561 135.888 120.851 135.143 119.634 134.557C118.314 133.922 116.89 133.534 115.572 132.891C113.969 132.109 112.796 130.816 111.95 129.27C111.159 127.826 110.839 126.193 110.153 124.705C108.797 121.765 106.357 119.51 105.101 116.499C103.887 113.59 103.252 110.371 101.658 107.624C101.587 107.696 101.516 107.766 101.444 107.838C104.127 109.52 106.769 111.212 109.725 112.378C111.398 113.038 112.428 114.222 113.705 115.42C114.89 116.532 115.994 117.638 116.706 119.121C117.301 120.359 117.774 121.527 118.639 122.611C119.834 124.108 120.638 125.351 120.847 127.289C121.014 128.833 121.067 130.387 121.238 131.933C121.415 133.531 121.341 135.005 121.867 136.551C121.918 136.703 122.149 136.642 122.109 136.484C121.286 133.27 121.53 129.838 121.077 126.558C120.904 125.304 120.37 124.24 119.587 123.262C119.042 122.58 118.468 121.935 118.004 121.192C117.501 120.386 117.205 119.449 116.795 118.595C116.203 117.363 115.173 116.38 114.194 115.456C113.143 114.465 112.19 113.333 110.945 112.58C109.523 111.721 107.831 111.295 106.367 110.478C104.742 109.57 103.189 108.54 101.603 107.568C101.468 107.486 101.309 107.648 101.389 107.782C103.079 110.612 103.679 113.983 105.01 116.973C106.377 120.047 108.915 122.401 110.225 125.506C110.768 126.795 111.09 128.145 111.723 129.403C112.364 130.678 113.319 131.738 114.48 132.556C115.583 133.333 116.923 133.754 118.176 134.213C118.98 134.508 119.771 134.832 120.515 135.258C121.246 135.677 121.755 136.41 122.286 137.04C122.349 137.114 122.452 137.007 122.392 136.933Z" fill="#3D423E"/>
<path d="M101.599 108.124C103.274 109.423 104.239 111.328 105.434 113.031C105.456 113.062 105.506 113.034 105.486 113C104.466 111.259 103.427 109.148 101.654 108.053C101.611 108.026 101.557 108.093 101.599 108.124Z" fill="#3D423E"/>
<path d="M112.508 126.337C114.367 129.48 117.098 132.421 120.13 134.464C120.17 134.491 120.219 134.427 120.182 134.397C117.32 131.997 114.57 129.504 112.635 126.263C112.586 126.182 112.46 126.255 112.508 126.337Z" fill="#3D423E"/>
<path d="M108.8 113.818C111.333 116.375 113.876 118.949 116.018 121.85C117.014 123.199 117.871 124.633 118.604 126.139C119.549 128.082 119.989 130.187 120.593 132.246C120.604 132.282 120.655 132.266 120.648 132.231C119.846 128.375 118.436 124.985 116.144 121.776C114.04 118.831 111.404 116.313 108.842 113.775C108.814 113.748 108.772 113.79 108.8 113.818Z" fill="#3D423E"/>
<path d="M107.442 117.811C108.385 119.228 109.358 120.631 110.434 121.952C110.462 121.987 110.523 121.94 110.497 121.903C109.511 120.52 108.494 119.16 107.543 117.752C107.501 117.69 107.4 117.748 107.442 117.811Z" fill="#3D423E"/>
</g>
</svg>
