<svg width="340" height="79" viewBox="0 0 340 79" fill="none" xmlns="http://www.w3.org/2000/svg">
<g filter="url(#filter0_b_3841_33495)">
<path d="M155 79L162.794 60.25H147.206L155 79Z" fill="#3D423E" fill-opacity="0.8"/>
</g>
<g filter="url(#filter1_b_3841_33495)">
<rect width="340" height="62" rx="12" fill="#3D423E" fill-opacity="0.8"/>
<path d="M14.5728 27L18.9888 15.022H20.1343V16.9561H19.6611L16.1416 27H14.5728ZM16.5732 23.5718L17.0381 22.3018H22.4502L22.915 23.5718H16.5732ZM23.3135 27L19.7939 16.9561V15.022H20.4663L24.8823 27H23.3135ZM27.1484 27V19.2471H25.6626V18.0518H27.1484V17.0557C27.1484 16.458 27.2453 15.9655 27.439 15.5781C27.6382 15.1852 27.9315 14.8947 28.3188 14.7065C28.7062 14.5129 29.1821 14.416 29.7466 14.416C29.9237 14.416 30.0897 14.4243 30.2446 14.4409C30.4051 14.452 30.5601 14.4714 30.7095 14.499V15.6528C30.6209 15.6362 30.5186 15.6252 30.4023 15.6196C30.2861 15.6141 30.1644 15.6113 30.0371 15.6113C29.5225 15.6113 29.1517 15.7358 28.9248 15.9849C28.7035 16.2339 28.5928 16.6047 28.5928 17.0972V18.0518H30.6265V19.2471H28.5928V27H27.1484ZM35.8892 27.0664C34.9705 27.0664 34.3037 26.881 33.8887 26.5103C33.4792 26.1395 33.2744 25.528 33.2744 24.6758V19.2471H31.8633V18.0518H33.2744V15.7358H34.7686V18.0518H36.7275V19.2471H34.7686V24.3105C34.7686 24.8363 34.8682 25.2153 35.0674 25.4478C35.2666 25.6746 35.5986 25.7881 36.0635 25.7881C36.1908 25.7881 36.2987 25.7853 36.3872 25.7798C36.4813 25.7743 36.5947 25.766 36.7275 25.7549V26.9834C36.5892 27.0055 36.4508 27.0249 36.3125 27.0415C36.1742 27.0581 36.033 27.0664 35.8892 27.0664ZM42.4219 27.1577C41.5697 27.1577 40.8364 26.9696 40.2222 26.5933C39.6134 26.217 39.1431 25.6857 38.811 24.9995C38.4845 24.3078 38.3213 23.4943 38.3213 22.5591V22.5508C38.3213 21.6266 38.4845 20.8159 38.811 20.1187C39.1431 19.4214 39.6107 18.8763 40.2139 18.4834C40.8171 18.0905 41.5226 17.894 42.3306 17.894C43.144 17.894 43.8413 18.0822 44.4224 18.4585C45.009 18.8348 45.4572 19.3605 45.7671 20.0356C46.0825 20.7052 46.2402 21.4855 46.2402 22.3765V22.9409H39.0684V21.7871H45.5015L44.7876 22.8413V22.2686C44.7876 21.5658 44.6825 20.9875 44.4722 20.5337C44.2619 20.0799 43.9714 19.7424 43.6006 19.521C43.2298 19.2941 42.8037 19.1807 42.3223 19.1807C41.8408 19.1807 41.4092 19.2996 41.0273 19.5376C40.651 19.77 40.3522 20.1159 40.1309 20.5752C39.9095 21.0345 39.7988 21.599 39.7988 22.2686V22.8413C39.7988 23.4777 39.9067 24.0228 40.1226 24.4766C40.3384 24.9248 40.6455 25.2707 41.0439 25.5142C41.4424 25.7521 41.9128 25.8711 42.4551 25.8711C42.859 25.8711 43.2104 25.8158 43.5093 25.7051C43.8081 25.5944 44.0544 25.4533 44.248 25.2817C44.4417 25.1102 44.5773 24.9359 44.6548 24.7588L44.688 24.6841H46.1323L46.1157 24.7505C46.0382 25.0549 45.8999 25.3509 45.7007 25.6387C45.507 25.9209 45.2552 26.1782 44.9453 26.4106C44.6354 26.6375 44.2674 26.8201 43.8413 26.9585C43.4207 27.0913 42.9476 27.1577 42.4219 27.1577ZM48.4814 27V18.0518H49.9258V19.3799H50.0586C50.2301 18.9095 50.5207 18.5443 50.9302 18.2842C51.3397 18.0241 51.846 17.894 52.4492 17.894C52.5876 17.894 52.7231 17.9023 52.856 17.9189C52.9943 17.93 53.0994 17.9411 53.1714 17.9521V19.355C53.022 19.3273 52.8753 19.3079 52.7314 19.2969C52.5931 19.2803 52.4437 19.272 52.2832 19.272C51.8239 19.272 51.4172 19.3633 51.063 19.5459C50.7088 19.7285 50.4294 19.9831 50.2246 20.3096C50.0254 20.6361 49.9258 21.0179 49.9258 21.4551V27H48.4814ZM63.8047 27.1992C62.9801 27.1992 62.2607 27.0581 61.6465 26.7759C61.0322 26.4937 60.5452 26.1063 60.1855 25.6138C59.8314 25.1213 59.6266 24.5596 59.5713 23.9287L59.563 23.8291H60.999L61.0073 23.9121C61.0461 24.305 61.1844 24.6509 61.4224 24.9497C61.6659 25.2485 61.9896 25.4837 62.3936 25.6553C62.8031 25.8213 63.2734 25.9043 63.8047 25.9043C64.3304 25.9043 64.7897 25.813 65.1826 25.6304C65.5811 25.4478 65.891 25.196 66.1123 24.875C66.3337 24.5485 66.4443 24.175 66.4443 23.7544V23.7378C66.4443 23.0018 66.1981 22.4373 65.7056 22.0444C65.2186 21.646 64.5545 21.4468 63.7134 21.4468H62.2109V20.1851H63.647C64.1229 20.1851 64.5435 20.0965 64.9087 19.9194C65.2739 19.7368 65.5589 19.4906 65.7637 19.1807C65.9684 18.8652 66.0708 18.5083 66.0708 18.1099V18.0933C66.0708 17.6727 65.9823 17.3158 65.8052 17.0225C65.6281 16.7292 65.368 16.505 65.0249 16.3501C64.6873 16.1951 64.2751 16.1177 63.7881 16.1177C63.3177 16.1177 62.8971 16.1979 62.5264 16.3584C62.1611 16.5133 61.8678 16.7375 61.6465 17.0308C61.4251 17.3241 61.2923 17.6727 61.248 18.0767L61.2397 18.1597H59.8037L59.812 18.0767C59.8784 17.4237 60.0832 16.8537 60.4263 16.3667C60.7749 15.8797 61.2342 15.5007 61.8042 15.2295C62.3797 14.9583 63.041 14.8228 63.7881 14.8228C64.5518 14.8228 65.2158 14.9556 65.7803 15.2212C66.3503 15.4813 66.7902 15.8438 67.1001 16.3086C67.4155 16.7679 67.5732 17.3019 67.5732 17.9106V17.9272C67.5732 18.4198 67.4653 18.8569 67.2495 19.2388C67.0337 19.6206 66.7349 19.9388 66.353 20.1934C65.9712 20.4479 65.5312 20.6278 65.0332 20.7329V20.7661C65.9076 20.8381 66.6131 21.1341 67.1499 21.6543C67.6922 22.1689 67.9634 22.8524 67.9634 23.7046V23.7212C67.9634 24.3853 67.7835 24.9801 67.4238 25.5059C67.0641 26.0316 66.5716 26.4466 65.9463 26.751C65.321 27.0498 64.6071 27.1992 63.8047 27.1992ZM76.1064 22.7251V21.397H79.4932C80.3509 21.397 81.015 21.1756 81.4854 20.7329C81.9557 20.2847 82.1909 19.6676 82.1909 18.8818V18.8652C82.1909 18.0739 81.9557 17.4569 81.4854 17.0142C81.015 16.5715 80.3509 16.3501 79.4932 16.3501H76.1064V15.022H79.875C80.6276 15.022 81.2917 15.1825 81.8672 15.5034C82.4427 15.8244 82.8937 16.2726 83.2202 16.8481C83.5522 17.4237 83.7183 18.0905 83.7183 18.8486V18.8652C83.7183 19.6234 83.5522 20.293 83.2202 20.874C82.8937 21.4551 82.4427 21.9089 81.8672 22.2354C81.2917 22.5618 80.6276 22.7251 79.875 22.7251H76.1064ZM75.3594 27V15.022H76.8535V27H75.3594ZM89.4126 27.1577C88.5659 27.1577 87.8327 26.9723 87.2129 26.6016C86.5986 26.2253 86.1227 25.6912 85.7852 24.9995C85.4531 24.3078 85.2871 23.486 85.2871 22.5342V22.5176C85.2871 21.5602 85.4531 20.7357 85.7852 20.0439C86.1227 19.3522 86.5986 18.821 87.2129 18.4502C87.8327 18.0794 88.5659 17.894 89.4126 17.894C90.2648 17.894 90.998 18.0794 91.6123 18.4502C92.2266 18.821 92.6997 19.3522 93.0317 20.0439C93.3693 20.7357 93.5381 21.5602 93.5381 22.5176V22.5342C93.5381 23.486 93.3693 24.3078 93.0317 24.9995C92.6997 25.6912 92.2266 26.2253 91.6123 26.6016C90.998 26.9723 90.2648 27.1577 89.4126 27.1577ZM89.4126 25.8794C89.9771 25.8794 90.4557 25.7466 90.8486 25.481C91.2415 25.2153 91.5404 24.8335 91.7451 24.3354C91.9554 23.8374 92.0605 23.237 92.0605 22.5342V22.5176C92.0605 21.8092 91.9554 21.2061 91.7451 20.708C91.5404 20.21 91.2415 19.8309 90.8486 19.5708C90.4557 19.3052 89.9771 19.1724 89.4126 19.1724C88.8481 19.1724 88.3695 19.3052 87.9766 19.5708C87.5837 19.8309 87.2821 20.21 87.0718 20.708C86.867 21.2061 86.7646 21.8092 86.7646 22.5176V22.5342C86.7646 23.237 86.867 23.8374 87.0718 24.3354C87.2821 24.8335 87.5837 25.2153 87.9766 25.481C88.3695 25.7466 88.8481 25.8794 89.4126 25.8794ZM95.7793 27V18.0518H97.2236V19.4131H97.3564C97.5557 18.9316 97.86 18.5581 98.2695 18.2925C98.6846 18.0269 99.1854 17.894 99.772 17.894C100.176 17.894 100.538 17.9604 100.859 18.0933C101.18 18.2261 101.457 18.4115 101.689 18.6494C101.922 18.8818 102.107 19.153 102.246 19.4629H102.378C102.539 19.1475 102.755 18.8735 103.026 18.6411C103.297 18.4032 103.61 18.2205 103.964 18.0933C104.324 17.9604 104.708 17.894 105.118 17.894C105.726 17.894 106.241 18.0075 106.662 18.2344C107.088 18.4613 107.411 18.7933 107.633 19.2305C107.854 19.6621 107.965 20.1906 107.965 20.8159V27H106.521V21.1479C106.521 20.7052 106.451 20.34 106.313 20.0522C106.18 19.759 105.975 19.5404 105.699 19.3965C105.422 19.2471 105.073 19.1724 104.653 19.1724C104.238 19.1724 103.875 19.2664 103.565 19.4546C103.256 19.6427 103.015 19.8945 102.843 20.21C102.672 20.5199 102.586 20.8657 102.586 21.2476V27H101.142V20.9238C101.142 20.5697 101.064 20.2625 100.909 20.0024C100.76 19.7368 100.544 19.5321 100.262 19.3882C99.985 19.2443 99.6585 19.1724 99.2822 19.1724C98.8949 19.1724 98.5435 19.2747 98.228 19.4795C97.9181 19.6842 97.6719 19.9609 97.4893 20.3096C97.3122 20.6527 97.2236 21.0345 97.2236 21.4551V27H95.7793ZM114.249 27.1577C113.402 27.1577 112.669 26.9723 112.049 26.6016C111.435 26.2253 110.959 25.6912 110.621 24.9995C110.289 24.3078 110.123 23.486 110.123 22.5342V22.5176C110.123 21.5602 110.289 20.7357 110.621 20.0439C110.959 19.3522 111.435 18.821 112.049 18.4502C112.669 18.0794 113.402 17.894 114.249 17.894C115.101 17.894 115.834 18.0794 116.448 18.4502C117.062 18.821 117.536 19.3522 117.868 20.0439C118.205 20.7357 118.374 21.5602 118.374 22.5176V22.5342C118.374 23.486 118.205 24.3078 117.868 24.9995C117.536 25.6912 117.062 26.2253 116.448 26.6016C115.834 26.9723 115.101 27.1577 114.249 27.1577ZM114.249 25.8794C114.813 25.8794 115.292 25.7466 115.685 25.481C116.077 25.2153 116.376 24.8335 116.581 24.3354C116.791 23.8374 116.896 23.237 116.896 22.5342V22.5176C116.896 21.8092 116.791 21.2061 116.581 20.708C116.376 20.21 116.077 19.8309 115.685 19.5708C115.292 19.3052 114.813 19.1724 114.249 19.1724C113.684 19.1724 113.205 19.3052 112.812 19.5708C112.42 19.8309 112.118 20.21 111.908 20.708C111.703 21.2061 111.601 21.8092 111.601 22.5176V22.5342C111.601 23.237 111.703 23.8374 111.908 24.3354C112.118 24.8335 112.42 25.2153 112.812 25.481C113.205 25.7466 113.684 25.8794 114.249 25.8794ZM123.919 27.1577C123.166 27.1577 122.508 26.9668 121.943 26.585C121.379 26.2031 120.942 25.6663 120.632 24.9746C120.322 24.2773 120.167 23.4639 120.167 22.5342V22.5176C120.167 21.5824 120.322 20.7689 120.632 20.0771C120.942 19.3854 121.376 18.8486 121.935 18.4668C122.5 18.085 123.161 17.894 123.919 17.894C124.328 17.894 124.713 17.9604 125.073 18.0933C125.438 18.2205 125.762 18.4004 126.044 18.6328C126.326 18.8652 126.548 19.1419 126.708 19.4629H126.841V14.499H128.285V27H126.841V25.5723H126.708C126.525 25.9043 126.296 26.1893 126.019 26.4272C125.742 26.6597 125.427 26.8395 125.073 26.9668C124.719 27.0941 124.334 27.1577 123.919 27.1577ZM124.251 25.8794C124.793 25.8794 125.261 25.7438 125.654 25.4727C126.047 25.2015 126.348 24.8169 126.559 24.3188C126.769 23.8153 126.874 23.2204 126.874 22.5342V22.5176C126.874 21.8258 126.769 21.231 126.559 20.7329C126.348 20.2349 126.047 19.8503 125.654 19.5791C125.261 19.3079 124.793 19.1724 124.251 19.1724C123.709 19.1724 123.241 19.3079 122.848 19.5791C122.461 19.8447 122.162 20.2266 121.952 20.7246C121.747 21.2227 121.645 21.8203 121.645 22.5176V22.5342C121.645 23.2259 121.747 23.8236 121.952 24.3271C122.162 24.8252 122.461 25.2098 122.848 25.481C123.241 25.7466 123.709 25.8794 124.251 25.8794ZM134.735 27.1577C133.888 27.1577 133.155 26.9723 132.535 26.6016C131.921 26.2253 131.445 25.6912 131.107 24.9995C130.775 24.3078 130.609 23.486 130.609 22.5342V22.5176C130.609 21.5602 130.775 20.7357 131.107 20.0439C131.445 19.3522 131.921 18.821 132.535 18.4502C133.155 18.0794 133.888 17.894 134.735 17.894C135.587 17.894 136.32 18.0794 136.935 18.4502C137.549 18.821 138.022 19.3522 138.354 20.0439C138.692 20.7357 138.86 21.5602 138.86 22.5176V22.5342C138.86 23.486 138.692 24.3078 138.354 24.9995C138.022 25.6912 137.549 26.2253 136.935 26.6016C136.32 26.9723 135.587 27.1577 134.735 27.1577ZM134.735 25.8794C135.299 25.8794 135.778 25.7466 136.171 25.481C136.564 25.2153 136.863 24.8335 137.067 24.3354C137.278 23.8374 137.383 23.237 137.383 22.5342V22.5176C137.383 21.8092 137.278 21.2061 137.067 20.708C136.863 20.21 136.564 19.8309 136.171 19.5708C135.778 19.3052 135.299 19.1724 134.735 19.1724C134.17 19.1724 133.692 19.3052 133.299 19.5708C132.906 19.8309 132.604 20.21 132.394 20.708C132.189 21.2061 132.087 21.8092 132.087 22.5176V22.5342C132.087 23.237 132.189 23.8374 132.394 24.3354C132.604 24.8335 132.906 25.2153 133.299 25.481C133.692 25.7466 134.17 25.8794 134.735 25.8794ZM141.102 27V18.0518H142.546V19.3799H142.679C142.85 18.9095 143.141 18.5443 143.55 18.2842C143.96 18.0241 144.466 17.894 145.069 17.894C145.208 17.894 145.343 17.9023 145.476 17.9189C145.614 17.93 145.72 17.9411 145.792 17.9521V19.355C145.642 19.3273 145.495 19.3079 145.352 19.2969C145.213 19.2803 145.064 19.272 144.903 19.272C144.444 19.272 144.037 19.3633 143.683 19.5459C143.329 19.7285 143.049 19.9831 142.845 20.3096C142.646 20.6361 142.546 21.0179 142.546 21.4551V27H141.102ZM151.004 27.1577C150.158 27.1577 149.424 26.9723 148.805 26.6016C148.19 26.2253 147.715 25.6912 147.377 24.9995C147.045 24.3078 146.879 23.486 146.879 22.5342V22.5176C146.879 21.5602 147.045 20.7357 147.377 20.0439C147.715 19.3522 148.19 18.821 148.805 18.4502C149.424 18.0794 150.158 17.894 151.004 17.894C151.857 17.894 152.59 18.0794 153.204 18.4502C153.818 18.821 154.292 19.3522 154.624 20.0439C154.961 20.7357 155.13 21.5602 155.13 22.5176V22.5342C155.13 23.486 154.961 24.3078 154.624 24.9995C154.292 25.6912 153.818 26.2253 153.204 26.6016C152.59 26.9723 151.857 27.1577 151.004 27.1577ZM151.004 25.8794C151.569 25.8794 152.048 25.7466 152.44 25.481C152.833 25.2153 153.132 24.8335 153.337 24.3354C153.547 23.8374 153.652 23.237 153.652 22.5342V22.5176C153.652 21.8092 153.547 21.2061 153.337 20.708C153.132 20.21 152.833 19.8309 152.44 19.5708C152.048 19.3052 151.569 19.1724 151.004 19.1724C150.44 19.1724 149.961 19.3052 149.568 19.5708C149.175 19.8309 148.874 20.21 148.664 20.708C148.459 21.2061 148.356 21.8092 148.356 22.5176V22.5342C148.356 23.237 148.459 23.8374 148.664 24.3354C148.874 24.8335 149.175 25.2153 149.568 25.481C149.961 25.7466 150.44 25.8794 151.004 25.8794ZM165.224 27.1577C164.56 27.1577 163.973 27.0581 163.464 26.8589C162.955 26.6541 162.545 26.3691 162.235 26.0039C161.931 25.6387 161.751 25.2098 161.696 24.7173H163.173C163.295 25.0881 163.533 25.3869 163.887 25.6138C164.241 25.8407 164.703 25.9541 165.273 25.9541C165.677 25.9541 166.032 25.896 166.336 25.7798C166.646 25.658 166.889 25.4948 167.066 25.29C167.243 25.0798 167.332 24.839 167.332 24.5679V24.5513C167.332 24.2469 167.21 23.9896 166.967 23.7793C166.723 23.5635 166.325 23.3892 165.771 23.2563L164.385 22.9243C163.826 22.7915 163.367 22.62 163.007 22.4097C162.648 22.1938 162.382 21.931 162.21 21.6211C162.039 21.3057 161.953 20.9349 161.953 20.5088V20.5005C161.953 20.0024 162.097 19.557 162.385 19.1641C162.678 18.7712 163.076 18.4613 163.58 18.2344C164.084 18.0075 164.651 17.894 165.282 17.894C165.907 17.894 166.46 17.9937 166.942 18.1929C167.429 18.3866 167.819 18.6632 168.112 19.0229C168.411 19.3826 168.594 19.806 168.66 20.293H167.241C167.147 19.9388 166.931 19.651 166.593 19.4297C166.256 19.2083 165.816 19.0977 165.273 19.0977C164.919 19.0977 164.604 19.1558 164.327 19.272C164.05 19.3826 163.832 19.5376 163.671 19.7368C163.511 19.936 163.431 20.1685 163.431 20.4341V20.4507C163.431 20.6499 163.483 20.827 163.588 20.9819C163.694 21.1369 163.857 21.2725 164.078 21.3887C164.299 21.5049 164.584 21.6073 164.933 21.6958L166.311 22.0278C167.152 22.2326 167.778 22.5259 168.187 22.9077C168.602 23.2896 168.81 23.8014 168.81 24.4434V24.46C168.81 24.9912 168.652 25.4616 168.336 25.8711C168.021 26.2751 167.592 26.5905 167.05 26.8174C166.513 27.0443 165.904 27.1577 165.224 27.1577ZM174.703 27.1577C173.851 27.1577 173.118 26.9696 172.503 26.5933C171.895 26.217 171.424 25.6857 171.092 24.9995C170.766 24.3078 170.603 23.4943 170.603 22.5591V22.5508C170.603 21.6266 170.766 20.8159 171.092 20.1187C171.424 19.4214 171.892 18.8763 172.495 18.4834C173.098 18.0905 173.804 17.894 174.612 17.894C175.425 17.894 176.123 18.0822 176.704 18.4585C177.29 18.8348 177.738 19.3605 178.048 20.0356C178.364 20.7052 178.521 21.4855 178.521 22.3765V22.9409H171.35V21.7871H177.783L177.069 22.8413V22.2686C177.069 21.5658 176.964 20.9875 176.753 20.5337C176.543 20.0799 176.253 19.7424 175.882 19.521C175.511 19.2941 175.085 19.1807 174.604 19.1807C174.122 19.1807 173.69 19.2996 173.309 19.5376C172.932 19.77 172.633 20.1159 172.412 20.5752C172.191 21.0345 172.08 21.599 172.08 22.2686V22.8413C172.08 23.4777 172.188 24.0228 172.404 24.4766C172.62 24.9248 172.927 25.2707 173.325 25.5142C173.724 25.7521 174.194 25.8711 174.736 25.8711C175.14 25.8711 175.492 25.8158 175.791 25.7051C176.089 25.5944 176.336 25.4533 176.529 25.2817C176.723 25.1102 176.859 24.9359 176.936 24.7588L176.969 24.6841H178.414L178.397 24.7505C178.319 25.0549 178.181 25.3509 177.982 25.6387C177.788 25.9209 177.536 26.1782 177.227 26.4106C176.917 26.6375 176.549 26.8201 176.123 26.9585C175.702 27.0913 175.229 27.1577 174.703 27.1577ZM183.834 27.1577C183.17 27.1577 182.583 27.0581 182.074 26.8589C181.565 26.6541 181.156 26.3691 180.846 26.0039C180.541 25.6387 180.361 25.2098 180.306 24.7173H181.784C181.905 25.0881 182.143 25.3869 182.498 25.6138C182.852 25.8407 183.314 25.9541 183.884 25.9541C184.288 25.9541 184.642 25.896 184.946 25.7798C185.256 25.658 185.5 25.4948 185.677 25.29C185.854 25.0798 185.942 24.839 185.942 24.5679V24.5513C185.942 24.2469 185.821 23.9896 185.577 23.7793C185.334 23.5635 184.935 23.3892 184.382 23.2563L182.996 22.9243C182.437 22.7915 181.977 22.62 181.618 22.4097C181.258 22.1938 180.992 21.931 180.821 21.6211C180.649 21.3057 180.563 20.9349 180.563 20.5088V20.5005C180.563 20.0024 180.707 19.557 180.995 19.1641C181.288 18.7712 181.687 18.4613 182.19 18.2344C182.694 18.0075 183.261 17.894 183.892 17.894C184.517 17.894 185.071 17.9937 185.552 18.1929C186.039 18.3866 186.429 18.6632 186.723 19.0229C187.021 19.3826 187.204 19.806 187.271 20.293H185.851C185.757 19.9388 185.541 19.651 185.204 19.4297C184.866 19.2083 184.426 19.0977 183.884 19.0977C183.53 19.0977 183.214 19.1558 182.938 19.272C182.661 19.3826 182.442 19.5376 182.282 19.7368C182.121 19.936 182.041 20.1685 182.041 20.4341V20.4507C182.041 20.6499 182.094 20.827 182.199 20.9819C182.304 21.1369 182.467 21.2725 182.688 21.3887C182.91 21.5049 183.195 21.6073 183.543 21.6958L184.921 22.0278C185.763 22.2326 186.388 22.5259 186.797 22.9077C187.212 23.2896 187.42 23.8014 187.42 24.4434V24.46C187.42 24.9912 187.262 25.4616 186.947 25.8711C186.631 26.2751 186.202 26.5905 185.66 26.8174C185.123 27.0443 184.515 27.1577 183.834 27.1577ZM192.566 27.1577C191.902 27.1577 191.316 27.0581 190.807 26.8589C190.298 26.6541 189.888 26.3691 189.578 26.0039C189.274 25.6387 189.094 25.2098 189.039 24.7173H190.516C190.638 25.0881 190.876 25.3869 191.23 25.6138C191.584 25.8407 192.046 25.9541 192.616 25.9541C193.02 25.9541 193.374 25.896 193.679 25.7798C193.989 25.658 194.232 25.4948 194.409 25.29C194.586 25.0798 194.675 24.839 194.675 24.5679V24.5513C194.675 24.2469 194.553 23.9896 194.31 23.7793C194.066 23.5635 193.668 23.3892 193.114 23.2563L191.728 22.9243C191.169 22.7915 190.71 22.62 190.35 22.4097C189.99 22.1938 189.725 21.931 189.553 21.6211C189.382 21.3057 189.296 20.9349 189.296 20.5088V20.5005C189.296 20.0024 189.44 19.557 189.728 19.1641C190.021 18.7712 190.419 18.4613 190.923 18.2344C191.426 18.0075 191.994 17.894 192.625 17.894C193.25 17.894 193.803 17.9937 194.285 18.1929C194.772 18.3866 195.162 18.6632 195.455 19.0229C195.754 19.3826 195.937 19.806 196.003 20.293H194.583C194.489 19.9388 194.274 19.651 193.936 19.4297C193.598 19.2083 193.159 19.0977 192.616 19.0977C192.262 19.0977 191.947 19.1558 191.67 19.272C191.393 19.3826 191.175 19.5376 191.014 19.7368C190.854 19.936 190.773 20.1685 190.773 20.4341V20.4507C190.773 20.6499 190.826 20.827 190.931 20.9819C191.036 21.1369 191.2 21.2725 191.421 21.3887C191.642 21.5049 191.927 21.6073 192.276 21.6958L193.654 22.0278C194.495 22.2326 195.12 22.5259 195.53 22.9077C195.945 23.2896 196.152 23.8014 196.152 24.4434V24.46C196.152 24.9912 195.995 25.4616 195.679 25.8711C195.364 26.2751 194.935 26.5905 194.393 26.8174C193.856 27.0443 193.247 27.1577 192.566 27.1577ZM198.427 27V18.0518H199.871V27H198.427ZM199.157 16.3252C198.886 16.3252 198.651 16.2284 198.452 16.0347C198.258 15.8354 198.161 15.6003 198.161 15.3291C198.161 15.0524 198.258 14.8172 198.452 14.6235C198.651 14.4299 198.886 14.333 199.157 14.333C199.434 14.333 199.669 14.4299 199.863 14.6235C200.056 14.8172 200.153 15.0524 200.153 15.3291C200.153 15.6003 200.056 15.8354 199.863 16.0347C199.669 16.2284 199.434 16.3252 199.157 16.3252ZM206.271 27.1577C205.424 27.1577 204.691 26.9723 204.071 26.6016C203.457 26.2253 202.981 25.6912 202.644 24.9995C202.312 24.3078 202.146 23.486 202.146 22.5342V22.5176C202.146 21.5602 202.312 20.7357 202.644 20.0439C202.981 19.3522 203.457 18.821 204.071 18.4502C204.691 18.0794 205.424 17.894 206.271 17.894C207.123 17.894 207.856 18.0794 208.471 18.4502C209.085 18.821 209.558 19.3522 209.89 20.0439C210.228 20.7357 210.396 21.5602 210.396 22.5176V22.5342C210.396 23.486 210.228 24.3078 209.89 24.9995C209.558 25.6912 209.085 26.2253 208.471 26.6016C207.856 26.9723 207.123 27.1577 206.271 27.1577ZM206.271 25.8794C206.835 25.8794 207.314 25.7466 207.707 25.481C208.1 25.2153 208.399 24.8335 208.604 24.3354C208.814 23.8374 208.919 23.237 208.919 22.5342V22.5176C208.919 21.8092 208.814 21.2061 208.604 20.708C208.399 20.21 208.1 19.8309 207.707 19.5708C207.314 19.3052 206.835 19.1724 206.271 19.1724C205.707 19.1724 205.228 19.3052 204.835 19.5708C204.442 19.8309 204.14 20.21 203.93 20.708C203.725 21.2061 203.623 21.8092 203.623 22.5176V22.5342C203.623 23.237 203.725 23.8374 203.93 24.3354C204.14 24.8335 204.442 25.2153 204.835 25.481C205.228 25.7466 205.707 25.8794 206.271 25.8794ZM212.638 27V18.0518H214.082V19.3965H214.215C214.442 18.9206 214.768 18.5526 215.194 18.2925C215.62 18.0269 216.163 17.894 216.821 17.894C217.828 17.894 218.6 18.1818 219.137 18.7573C219.68 19.3273 219.951 20.1436 219.951 21.2061V27H218.506V21.5547C218.506 20.7467 218.335 20.1491 217.992 19.7617C217.654 19.3688 217.128 19.1724 216.415 19.1724C215.939 19.1724 215.526 19.2747 215.178 19.4795C214.829 19.6842 214.558 19.9748 214.364 20.3511C214.176 20.7274 214.082 21.1784 214.082 21.7041V27H212.638ZM225.637 27.1577C224.973 27.1577 224.386 27.0581 223.877 26.8589C223.368 26.6541 222.958 26.3691 222.648 26.0039C222.344 25.6387 222.164 25.2098 222.109 24.7173H223.586C223.708 25.0881 223.946 25.3869 224.3 25.6138C224.654 25.8407 225.117 25.9541 225.687 25.9541C226.09 25.9541 226.445 25.896 226.749 25.7798C227.059 25.658 227.302 25.4948 227.479 25.29C227.657 25.0798 227.745 24.839 227.745 24.5679V24.5513C227.745 24.2469 227.623 23.9896 227.38 23.7793C227.136 23.5635 226.738 23.3892 226.185 23.2563L224.798 22.9243C224.239 22.7915 223.78 22.62 223.42 22.4097C223.061 22.1938 222.795 21.931 222.624 21.6211C222.452 21.3057 222.366 20.9349 222.366 20.5088V20.5005C222.366 20.0024 222.51 19.557 222.798 19.1641C223.091 18.7712 223.49 18.4613 223.993 18.2344C224.497 18.0075 225.064 17.894 225.695 17.894C226.32 17.894 226.874 17.9937 227.355 18.1929C227.842 18.3866 228.232 18.6632 228.525 19.0229C228.824 19.3826 229.007 19.806 229.073 20.293H227.654C227.56 19.9388 227.344 19.651 227.006 19.4297C226.669 19.2083 226.229 19.0977 225.687 19.0977C225.332 19.0977 225.017 19.1558 224.74 19.272C224.464 19.3826 224.245 19.5376 224.084 19.7368C223.924 19.936 223.844 20.1685 223.844 20.4341V20.4507C223.844 20.6499 223.896 20.827 224.001 20.9819C224.107 21.1369 224.27 21.2725 224.491 21.3887C224.713 21.5049 224.998 21.6073 225.346 21.6958L226.724 22.0278C227.565 22.2326 228.191 22.5259 228.6 22.9077C229.015 23.2896 229.223 23.8014 229.223 24.4434V24.46C229.223 24.9912 229.065 25.4616 228.75 25.8711C228.434 26.2751 228.005 26.5905 227.463 26.8174C226.926 27.0443 226.317 27.1577 225.637 27.1577ZM231.099 30.0464L231.821 25.3232H233.473L232.169 30.0464H231.099ZM242.056 30.1377C241.962 30.1377 241.856 30.1322 241.74 30.1211C241.624 30.1156 241.516 30.1045 241.417 30.0879V28.9009C241.505 28.9175 241.602 28.9285 241.707 28.9341C241.812 28.9396 241.915 28.9424 242.014 28.9424C242.424 28.9424 242.758 28.8372 243.019 28.627C243.284 28.4167 243.497 28.0542 243.658 27.5396L243.824 27.0083L240.512 18.0518H242.056L244.812 26.3193L244.239 25.4146H244.919L244.347 26.3193L247.094 18.0518H248.613L245.119 27.5479C244.875 28.2174 244.618 28.7404 244.347 29.1167C244.076 29.493 243.757 29.7559 243.392 29.9053C243.032 30.0602 242.587 30.1377 242.056 30.1377ZM253.868 27.1577C253.021 27.1577 252.288 26.9723 251.668 26.6016C251.054 26.2253 250.578 25.6912 250.24 24.9995C249.908 24.3078 249.742 23.486 249.742 22.5342V22.5176C249.742 21.5602 249.908 20.7357 250.24 20.0439C250.578 19.3522 251.054 18.821 251.668 18.4502C252.288 18.0794 253.021 17.894 253.868 17.894C254.72 17.894 255.453 18.0794 256.067 18.4502C256.682 18.821 257.155 19.3522 257.487 20.0439C257.824 20.7357 257.993 21.5602 257.993 22.5176V22.5342C257.993 23.486 257.824 24.3078 257.487 24.9995C257.155 25.6912 256.682 26.2253 256.067 26.6016C255.453 26.9723 254.72 27.1577 253.868 27.1577ZM253.868 25.8794C254.432 25.8794 254.911 25.7466 255.304 25.481C255.697 25.2153 255.995 24.8335 256.2 24.3354C256.41 23.8374 256.516 23.237 256.516 22.5342V22.5176C256.516 21.8092 256.41 21.2061 256.2 20.708C255.995 20.21 255.697 19.8309 255.304 19.5708C254.911 19.3052 254.432 19.1724 253.868 19.1724C253.303 19.1724 252.825 19.3052 252.432 19.5708C252.039 19.8309 251.737 20.21 251.527 20.708C251.322 21.2061 251.22 21.8092 251.22 22.5176V22.5342C251.22 23.237 251.322 23.8374 251.527 24.3354C251.737 24.8335 252.039 25.2153 252.432 25.481C252.825 25.7466 253.303 25.8794 253.868 25.8794ZM263.231 27.1577C262.556 27.1577 261.989 27.0304 261.529 26.7759C261.07 26.5158 260.724 26.1395 260.492 25.647C260.265 25.1489 260.151 24.5485 260.151 23.8457V18.0518H261.596V23.4971C261.596 24.2995 261.751 24.8971 262.061 25.29C262.376 25.6829 262.891 25.8794 263.604 25.8794C263.997 25.8794 264.343 25.8213 264.642 25.7051C264.946 25.5889 265.201 25.4229 265.406 25.207C265.611 24.9857 265.763 24.7201 265.862 24.4102C265.967 24.0947 266.02 23.7406 266.02 23.3477V18.0518H267.464V27H266.02V25.6636H265.887C265.743 25.979 265.547 26.2502 265.298 26.4771C265.049 26.6984 264.75 26.8672 264.401 26.9834C264.058 27.0996 263.668 27.1577 263.231 27.1577ZM18.6484 47.1577C17.8958 47.1577 17.2373 46.9668 16.6729 46.585C16.1084 46.2031 15.6712 45.6663 15.3613 44.9746C15.0514 44.2773 14.8965 43.4639 14.8965 42.5342V42.5176C14.8965 41.5824 15.0514 40.7689 15.3613 40.0771C15.6712 39.3854 16.1056 38.8486 16.6646 38.4668C17.229 38.085 17.8903 37.894 18.6484 37.894C19.0579 37.894 19.4425 37.9604 19.8022 38.0933C20.1675 38.2205 20.4912 38.4004 20.7734 38.6328C21.0557 38.8652 21.277 39.1419 21.4375 39.4629H21.5703V34.499H23.0146V47H21.5703V45.5723H21.4375C21.2549 45.9043 21.0252 46.1893 20.7485 46.4272C20.4718 46.6597 20.1564 46.8395 19.8022 46.9668C19.4481 47.0941 19.0635 47.1577 18.6484 47.1577ZM18.9805 45.8794C19.5228 45.8794 19.9904 45.7438 20.3833 45.4727C20.7762 45.2015 21.0778 44.8169 21.2881 44.3188C21.4984 43.8153 21.6035 43.2204 21.6035 42.5342V42.5176C21.6035 41.8258 21.4984 41.231 21.2881 40.7329C21.0778 40.2349 20.7762 39.8503 20.3833 39.5791C19.9904 39.3079 19.5228 39.1724 18.9805 39.1724C18.4382 39.1724 17.9705 39.3079 17.5776 39.5791C17.1903 39.8447 16.8914 40.2266 16.6812 40.7246C16.4764 41.2227 16.374 41.8203 16.374 42.5176V42.5342C16.374 43.2259 16.4764 43.8236 16.6812 44.3271C16.8914 44.8252 17.1903 45.2098 17.5776 45.481C17.9705 45.7466 18.4382 45.8794 18.9805 45.8794ZM29.4395 47.1577C28.5872 47.1577 27.854 46.9696 27.2397 46.5933C26.631 46.217 26.1606 45.6857 25.8286 44.9995C25.5021 44.3078 25.3389 43.4943 25.3389 42.5591V42.5508C25.3389 41.6266 25.5021 40.8159 25.8286 40.1187C26.1606 39.4214 26.6283 38.8763 27.2314 38.4834C27.8346 38.0905 28.5402 37.894 29.3481 37.894C30.1616 37.894 30.8589 38.0822 31.4399 38.4585C32.0265 38.8348 32.4748 39.3605 32.7847 40.0356C33.1001 40.7052 33.2578 41.4855 33.2578 42.3765V42.9409H26.0859V41.7871H32.519L31.8052 42.8413V42.2686C31.8052 41.5658 31.7 40.9875 31.4897 40.5337C31.2795 40.0799 30.9889 39.7424 30.6182 39.521C30.2474 39.2941 29.8213 39.1807 29.3398 39.1807C28.8584 39.1807 28.4268 39.2996 28.0449 39.5376C27.6686 39.77 27.3698 40.1159 27.1484 40.5752C26.9271 41.0345 26.8164 41.599 26.8164 42.2686V42.8413C26.8164 43.4777 26.9243 44.0228 27.1401 44.4766C27.356 44.9248 27.6631 45.2707 28.0615 45.5142C28.46 45.7521 28.9303 45.8711 29.4727 45.8711C29.8766 45.8711 30.228 45.8158 30.5269 45.7051C30.8257 45.5944 31.0719 45.4533 31.2656 45.2817C31.4593 45.1102 31.5949 44.9359 31.6724 44.7588L31.7056 44.6841H33.1499L33.1333 44.7505C33.0558 45.0549 32.9175 45.3509 32.7183 45.6387C32.5246 45.9209 32.2728 46.1782 31.9629 46.4106C31.653 46.6375 31.285 46.8201 30.8589 46.9585C30.4383 47.0913 29.9652 47.1577 29.4395 47.1577ZM38.5703 47.1577C37.9062 47.1577 37.3197 47.0581 36.8105 46.8589C36.3014 46.6541 35.8919 46.3691 35.582 46.0039C35.2777 45.6387 35.0978 45.2098 35.0425 44.7173H36.52C36.6418 45.0881 36.8797 45.3869 37.2339 45.6138C37.5881 45.8407 38.0501 45.9541 38.6201 45.9541C39.0241 45.9541 39.3783 45.896 39.6826 45.7798C39.9925 45.658 40.236 45.4948 40.4131 45.29C40.5902 45.0798 40.6787 44.839 40.6787 44.5679V44.5513C40.6787 44.2469 40.557 43.9896 40.3135 43.7793C40.07 43.5635 39.6715 43.3892 39.1182 43.2563L37.7319 42.9243C37.173 42.7915 36.7137 42.62 36.354 42.4097C35.9943 42.1938 35.7287 41.931 35.5571 41.6211C35.3856 41.3057 35.2998 40.9349 35.2998 40.5088V40.5005C35.2998 40.0024 35.4437 39.557 35.7314 39.1641C36.0247 38.7712 36.4232 38.4613 36.9268 38.2344C37.4303 38.0075 37.9976 37.894 38.6284 37.894C39.2537 37.894 39.8071 37.9937 40.2886 38.1929C40.7756 38.3866 41.1657 38.6632 41.459 39.0229C41.7578 39.3826 41.9404 39.806 42.0068 40.293H40.5874C40.4933 39.9388 40.2775 39.651 39.9399 39.4297C39.6024 39.2083 39.1624 39.0977 38.6201 39.0977C38.266 39.0977 37.9505 39.1558 37.6738 39.272C37.3971 39.3826 37.1785 39.5376 37.0181 39.7368C36.8576 39.936 36.7773 40.1685 36.7773 40.4341V40.4507C36.7773 40.6499 36.8299 40.827 36.9351 40.9819C37.0402 41.1369 37.2035 41.2725 37.4248 41.3887C37.6462 41.5049 37.9312 41.6073 38.2798 41.6958L39.6577 42.0278C40.4989 42.2326 41.1242 42.5259 41.5337 42.9077C41.9487 43.2896 42.1562 43.8014 42.1562 44.4434V44.46C42.1562 44.9912 41.9985 45.4616 41.6831 45.8711C41.3677 46.2751 40.9388 46.5905 40.3965 46.8174C39.8597 47.0443 39.251 47.1577 38.5703 47.1577ZM48.0498 47.1577C47.1976 47.1577 46.4644 46.9696 45.8501 46.5933C45.2414 46.217 44.771 45.6857 44.439 44.9995C44.1125 44.3078 43.9492 43.4943 43.9492 42.5591V42.5508C43.9492 41.6266 44.1125 40.8159 44.439 40.1187C44.771 39.4214 45.2386 38.8763 45.8418 38.4834C46.445 38.0905 47.1506 37.894 47.9585 37.894C48.772 37.894 49.4692 38.0822 50.0503 38.4585C50.6369 38.8348 51.0851 39.3605 51.395 40.0356C51.7104 40.7052 51.8682 41.4855 51.8682 42.3765V42.9409H44.6963V41.7871H51.1294L50.4155 42.8413V42.2686C50.4155 41.5658 50.3104 40.9875 50.1001 40.5337C49.8898 40.0799 49.5993 39.7424 49.2285 39.521C48.8577 39.2941 48.4316 39.1807 47.9502 39.1807C47.4688 39.1807 47.0371 39.2996 46.6553 39.5376C46.279 39.77 45.9801 40.1159 45.7588 40.5752C45.5374 41.0345 45.4268 41.599 45.4268 42.2686V42.8413C45.4268 43.4777 45.5347 44.0228 45.7505 44.4766C45.9663 44.9248 46.2734 45.2707 46.6719 45.5142C47.0703 45.7521 47.5407 45.8711 48.083 45.8711C48.487 45.8711 48.8384 45.8158 49.1372 45.7051C49.436 45.5944 49.6823 45.4533 49.876 45.2817C50.0697 45.1102 50.2052 44.9359 50.2827 44.7588L50.3159 44.6841H51.7603L51.7437 44.7505C51.6662 45.0549 51.5278 45.3509 51.3286 45.6387C51.1349 45.9209 50.8831 46.1782 50.5732 46.4106C50.2633 46.6375 49.8953 46.8201 49.4692 46.9585C49.0487 47.0913 48.5755 47.1577 48.0498 47.1577ZM54.1094 47V38.0518H55.5537V39.3799H55.6865C55.8581 38.9095 56.1486 38.5443 56.5581 38.2842C56.9676 38.0241 57.474 37.894 58.0771 37.894C58.2155 37.894 58.3511 37.9023 58.4839 37.9189C58.6222 37.93 58.7274 37.9411 58.7993 37.9521V39.355C58.6499 39.3273 58.5033 39.3079 58.3594 39.2969C58.221 39.2803 58.0716 39.272 57.9111 39.272C57.4518 39.272 57.0451 39.3633 56.6909 39.5459C56.3368 39.7285 56.0573 39.9831 55.8525 40.3096C55.6533 40.6361 55.5537 41.0179 55.5537 41.4551V47H54.1094ZM63.1987 47L59.8867 38.0518H61.4141L63.8628 45.4229H63.9956L66.4443 38.0518H67.9717L64.6597 47H63.1987ZM73.2012 47.1577C72.349 47.1577 71.6157 46.9696 71.0015 46.5933C70.3927 46.217 69.9224 45.6857 69.5903 44.9995C69.2638 44.3078 69.1006 43.4943 69.1006 42.5591V42.5508C69.1006 41.6266 69.2638 40.8159 69.5903 40.1187C69.9224 39.4214 70.39 38.8763 70.9932 38.4834C71.5964 38.0905 72.3019 37.894 73.1099 37.894C73.9233 37.894 74.6206 38.0822 75.2017 38.4585C75.7882 38.8348 76.2365 39.3605 76.5464 40.0356C76.8618 40.7052 77.0195 41.4855 77.0195 42.3765V42.9409H69.8477V41.7871H76.2808L75.5669 42.8413V42.2686C75.5669 41.5658 75.4618 40.9875 75.2515 40.5337C75.0412 40.0799 74.7507 39.7424 74.3799 39.521C74.0091 39.2941 73.583 39.1807 73.1016 39.1807C72.6201 39.1807 72.1885 39.2996 71.8066 39.5376C71.4303 39.77 71.1315 40.1159 70.9102 40.5752C70.6888 41.0345 70.5781 41.599 70.5781 42.2686V42.8413C70.5781 43.4777 70.686 44.0228 70.9019 44.4766C71.1177 44.9248 71.4248 45.2707 71.8232 45.5142C72.2217 45.7521 72.6921 45.8711 73.2344 45.8711C73.6383 45.8711 73.9897 45.8158 74.2886 45.7051C74.5874 45.5944 74.8337 45.4533 75.0273 45.2817C75.221 45.1102 75.3566 44.9359 75.4341 44.7588L75.4673 44.6841H76.9116L76.895 44.7505C76.8175 45.0549 76.6792 45.3509 76.48 45.6387C76.2863 45.9209 76.0345 46.1782 75.7246 46.4106C75.4147 46.6375 75.0467 46.8201 74.6206 46.9585C74.2 47.0913 73.7269 47.1577 73.2012 47.1577ZM86.499 47.1577C85.9346 47.1577 85.4255 47.0498 84.9717 46.834C84.5234 46.6182 84.1665 46.311 83.9009 45.9126C83.6408 45.5142 83.5107 45.0438 83.5107 44.5015V44.4849C83.5107 43.9536 83.638 43.4998 83.8926 43.1235C84.1471 42.7417 84.5179 42.4429 85.0049 42.2271C85.4919 42.0112 86.0812 41.884 86.7729 41.8452L90.0601 41.646V42.7998L86.9473 42.999C86.2666 43.0378 85.7686 43.1789 85.4531 43.4224C85.1432 43.6659 84.9883 44.009 84.9883 44.4517V44.4683C84.9883 44.922 85.1598 45.2762 85.5029 45.5308C85.846 45.7798 86.2777 45.9043 86.7979 45.9043C87.2904 45.9043 87.7275 45.8075 88.1094 45.6138C88.4912 45.4146 88.79 45.1462 89.0059 44.8086C89.2272 44.471 89.3379 44.0892 89.3379 43.6631V40.874C89.3379 40.3206 89.1691 39.9001 88.8315 39.6123C88.4995 39.319 87.9987 39.1724 87.3291 39.1724C86.7923 39.1724 86.3524 39.2692 86.0093 39.4629C85.6662 39.651 85.4365 39.9194 85.3203 40.2681L85.312 40.293H83.8677L83.876 40.2432C83.9535 39.7728 84.1471 39.3633 84.457 39.0146C84.7725 38.6605 85.1792 38.3866 85.6772 38.1929C86.1753 37.9937 86.7425 37.894 87.3789 37.894C88.1094 37.894 88.7264 38.013 89.23 38.251C89.7391 38.4889 90.1237 38.832 90.3838 39.2803C90.6494 39.723 90.7822 40.2542 90.7822 40.874V47H89.3379V45.6802H89.2051C89.0169 45.9956 88.7873 46.264 88.5161 46.4854C88.2505 46.7067 87.9489 46.8755 87.6113 46.9917C87.2738 47.1024 86.903 47.1577 86.499 47.1577ZM98.2861 47V34.499H99.7305V47H98.2861ZM106.18 47.1577C105.333 47.1577 104.6 46.9723 103.98 46.6016C103.366 46.2253 102.89 45.6912 102.553 44.9995C102.221 44.3078 102.055 43.486 102.055 42.5342V42.5176C102.055 41.5602 102.221 40.7357 102.553 40.0439C102.89 39.3522 103.366 38.821 103.98 38.4502C104.6 38.0794 105.333 37.894 106.18 37.894C107.032 37.894 107.766 38.0794 108.38 38.4502C108.994 38.821 109.467 39.3522 109.799 40.0439C110.137 40.7357 110.306 41.5602 110.306 42.5176V42.5342C110.306 43.486 110.137 44.3078 109.799 44.9995C109.467 45.6912 108.994 46.2253 108.38 46.6016C107.766 46.9723 107.032 47.1577 106.18 47.1577ZM106.18 45.8794C106.745 45.8794 107.223 45.7466 107.616 45.481C108.009 45.2153 108.308 44.8335 108.513 44.3354C108.723 43.8374 108.828 43.237 108.828 42.5342V42.5176C108.828 41.8092 108.723 41.2061 108.513 40.708C108.308 40.21 108.009 39.8309 107.616 39.5708C107.223 39.3052 106.745 39.1724 106.18 39.1724C105.616 39.1724 105.137 39.3052 104.744 39.5708C104.351 39.8309 104.05 40.21 103.839 40.708C103.635 41.2061 103.532 41.8092 103.532 42.5176V42.5342C103.532 43.237 103.635 43.8374 103.839 44.3354C104.05 44.8335 104.351 45.2153 104.744 45.481C105.137 45.7466 105.616 45.8794 106.18 45.8794ZM112.547 47V38.0518H113.991V39.3965H114.124C114.351 38.9206 114.677 38.5526 115.104 38.2925C115.53 38.0269 116.072 37.894 116.73 37.894C117.738 37.894 118.51 38.1818 119.046 38.7573C119.589 39.3273 119.86 40.1436 119.86 41.2061V47H118.416V41.5547C118.416 40.7467 118.244 40.1491 117.901 39.7617C117.563 39.3688 117.038 39.1724 116.324 39.1724C115.848 39.1724 115.436 39.2747 115.087 39.4795C114.738 39.6842 114.467 39.9748 114.273 40.3511C114.085 40.7274 113.991 41.1784 113.991 41.7041V47H112.547ZM126.16 50.1543C125.441 50.1543 124.813 50.0519 124.276 49.8472C123.739 49.6479 123.31 49.363 122.989 48.9922C122.674 48.627 122.477 48.2008 122.4 47.7139L122.417 47.7056H123.911L123.919 47.7139C123.996 48.0514 124.229 48.3281 124.616 48.5439C125.004 48.7653 125.518 48.876 126.16 48.876C126.963 48.876 127.588 48.6934 128.036 48.3281C128.49 47.9684 128.717 47.4593 128.717 46.8008V44.9912H128.584C128.396 45.3177 128.161 45.5972 127.878 45.8296C127.596 46.062 127.278 46.2391 126.924 46.3608C126.57 46.4771 126.188 46.5352 125.778 46.5352C125.009 46.5352 124.342 46.3525 123.778 45.9873C123.219 45.6165 122.787 45.1074 122.483 44.46C122.179 43.8125 122.026 43.071 122.026 42.2354V42.2188C122.026 41.3831 122.179 40.6416 122.483 39.9941C122.793 39.3411 123.23 38.8293 123.794 38.4585C124.359 38.0822 125.031 37.894 125.812 37.894C126.232 37.894 126.619 37.9604 126.974 38.0933C127.328 38.2261 127.64 38.4142 127.912 38.6577C128.188 38.9012 128.418 39.1917 128.601 39.5293H128.7V38.0518H130.145V46.8755C130.145 47.5396 129.981 48.1178 129.655 48.6104C129.334 49.1029 128.875 49.4819 128.277 49.7476C127.679 50.0187 126.974 50.1543 126.16 50.1543ZM126.094 45.2568C126.647 45.2568 127.12 45.1296 127.513 44.875C127.912 44.6149 128.216 44.258 128.426 43.8042C128.642 43.3504 128.75 42.8275 128.75 42.2354V42.2188C128.75 41.6266 128.642 41.1009 128.426 40.6416C128.216 40.1823 127.912 39.8226 127.513 39.5625C127.12 39.3024 126.647 39.1724 126.094 39.1724C125.54 39.1724 125.07 39.3024 124.683 39.5625C124.301 39.8226 124.007 40.1823 123.803 40.6416C123.604 41.1009 123.504 41.6266 123.504 42.2188V42.2354C123.504 42.8275 123.604 43.3504 123.803 43.8042C124.007 44.258 124.301 44.6149 124.683 44.875C125.07 45.1296 125.54 45.2568 126.094 45.2568ZM136.486 47.1577C135.634 47.1577 134.901 46.9696 134.287 46.5933C133.678 46.217 133.208 45.6857 132.875 44.9995C132.549 44.3078 132.386 43.4943 132.386 42.5591V42.5508C132.386 41.6266 132.549 40.8159 132.875 40.1187C133.208 39.4214 133.675 38.8763 134.278 38.4834C134.882 38.0905 135.587 37.894 136.395 37.894C137.208 37.894 137.906 38.0822 138.487 38.4585C139.073 38.8348 139.522 39.3605 139.832 40.0356C140.147 40.7052 140.305 41.4855 140.305 42.3765V42.9409H133.133V41.7871H139.566L138.852 42.8413V42.2686C138.852 41.5658 138.747 40.9875 138.537 40.5337C138.326 40.0799 138.036 39.7424 137.665 39.521C137.294 39.2941 136.868 39.1807 136.387 39.1807C135.905 39.1807 135.474 39.2996 135.092 39.5376C134.715 39.77 134.417 40.1159 134.195 40.5752C133.974 41.0345 133.863 41.599 133.863 42.2686V42.8413C133.863 43.4777 133.971 44.0228 134.187 44.4766C134.403 44.9248 134.71 45.2707 135.108 45.5142C135.507 45.7521 135.977 45.8711 136.52 45.8711C136.924 45.8711 137.275 45.8158 137.574 45.7051C137.873 45.5944 138.119 45.4533 138.312 45.2817C138.506 45.1102 138.642 44.9359 138.719 44.7588L138.752 44.6841H140.197L140.18 44.7505C140.103 45.0549 139.964 45.3509 139.765 45.6387C139.571 45.9209 139.32 46.1782 139.01 46.4106C138.7 46.6375 138.332 46.8201 137.906 46.9585C137.485 47.0913 137.012 47.1577 136.486 47.1577ZM142.546 47V38.0518H143.99V39.3799H144.123C144.295 38.9095 144.585 38.5443 144.995 38.2842C145.404 38.0241 145.91 37.894 146.514 37.894C146.652 37.894 146.788 37.9023 146.92 37.9189C147.059 37.93 147.164 37.9411 147.236 37.9521V39.355C147.086 39.3273 146.94 39.3079 146.796 39.2969C146.658 39.2803 146.508 39.272 146.348 39.272C145.888 39.272 145.482 39.3633 145.127 39.5459C144.773 39.7285 144.494 39.9831 144.289 40.3096C144.09 40.6361 143.99 41.0179 143.99 41.4551V47H142.546ZM158.251 47.1577C157.836 47.1577 157.451 47.0941 157.097 46.9668C156.743 46.8395 156.428 46.6597 156.151 46.4272C155.874 46.1893 155.645 45.9043 155.462 45.5723H155.329V47H153.885V34.499H155.329V39.4629H155.462C155.628 39.1419 155.849 38.8652 156.126 38.6328C156.408 38.4004 156.729 38.2205 157.089 38.0933C157.454 37.9604 157.841 37.894 158.251 37.894C159.009 37.894 159.668 38.085 160.227 38.4668C160.791 38.8486 161.228 39.3854 161.538 40.0771C161.848 40.7689 162.003 41.5824 162.003 42.5176V42.5342C162.003 43.4639 161.848 44.2773 161.538 44.9746C161.228 45.6663 160.791 46.2031 160.227 46.585C159.668 46.9668 159.009 47.1577 158.251 47.1577ZM157.919 45.8794C158.467 45.8794 158.934 45.7466 159.322 45.481C159.709 45.2098 160.005 44.8252 160.21 44.3271C160.42 43.8236 160.525 43.2259 160.525 42.5342V42.5176C160.525 41.8203 160.42 41.2227 160.21 40.7246C160.005 40.2266 159.709 39.8447 159.322 39.5791C158.934 39.3079 158.467 39.1724 157.919 39.1724C157.377 39.1724 156.909 39.3079 156.516 39.5791C156.123 39.8503 155.822 40.2349 155.611 40.7329C155.401 41.231 155.296 41.8258 155.296 42.5176V42.5342C155.296 43.2204 155.401 43.8153 155.611 44.3188C155.822 44.8169 156.123 45.2015 156.516 45.4727C156.909 45.7438 157.377 45.8794 157.919 45.8794ZM164.244 47V38.0518H165.688V39.3799H165.821C165.993 38.9095 166.283 38.5443 166.693 38.2842C167.102 38.0241 167.609 37.894 168.212 37.894C168.35 37.894 168.486 37.9023 168.619 37.9189C168.757 37.93 168.862 37.9411 168.934 37.9521V39.355C168.785 39.3273 168.638 39.3079 168.494 39.2969C168.356 39.2803 168.206 39.272 168.046 39.272C167.587 39.272 167.18 39.3633 166.826 39.5459C166.472 39.7285 166.192 39.9831 165.987 40.3096C165.788 40.6361 165.688 41.0179 165.688 41.4551V47H164.244ZM174.122 47.1577C173.27 47.1577 172.537 46.9696 171.922 46.5933C171.314 46.217 170.843 45.6857 170.511 44.9995C170.185 44.3078 170.021 43.4943 170.021 42.5591V42.5508C170.021 41.6266 170.185 40.8159 170.511 40.1187C170.843 39.4214 171.311 38.8763 171.914 38.4834C172.517 38.0905 173.223 37.894 174.031 37.894C174.844 37.894 175.542 38.0822 176.123 38.4585C176.709 38.8348 177.157 39.3605 177.467 40.0356C177.783 40.7052 177.94 41.4855 177.94 42.3765V42.9409H170.769V41.7871H177.202L176.488 42.8413V42.2686C176.488 41.5658 176.383 40.9875 176.172 40.5337C175.962 40.0799 175.672 39.7424 175.301 39.521C174.93 39.2941 174.504 39.1807 174.022 39.1807C173.541 39.1807 173.109 39.2996 172.728 39.5376C172.351 39.77 172.052 40.1159 171.831 40.5752C171.61 41.0345 171.499 41.599 171.499 42.2686V42.8413C171.499 43.4777 171.607 44.0228 171.823 44.4766C172.039 44.9248 172.346 45.2707 172.744 45.5142C173.143 45.7521 173.613 45.8711 174.155 45.8711C174.559 45.8711 174.911 45.8158 175.209 45.7051C175.508 45.5944 175.755 45.4533 175.948 45.2817C176.142 45.1102 176.278 44.9359 176.355 44.7588L176.388 44.6841H177.833L177.816 44.7505C177.738 45.0549 177.6 45.3509 177.401 45.6387C177.207 45.9209 176.955 46.1782 176.646 46.4106C176.336 46.6375 175.968 46.8201 175.542 46.9585C175.121 47.0913 174.648 47.1577 174.122 47.1577ZM182.639 47.1577C182.074 47.1577 181.565 47.0498 181.111 46.834C180.663 46.6182 180.306 46.311 180.041 45.9126C179.78 45.5142 179.65 45.0438 179.65 44.5015V44.4849C179.65 43.9536 179.778 43.4998 180.032 43.1235C180.287 42.7417 180.658 42.4429 181.145 42.2271C181.632 42.0112 182.221 41.884 182.913 41.8452L186.2 41.646V42.7998L183.087 42.999C182.406 43.0378 181.908 43.1789 181.593 43.4224C181.283 43.6659 181.128 44.009 181.128 44.4517V44.4683C181.128 44.922 181.299 45.2762 181.643 45.5308C181.986 45.7798 182.417 45.9043 182.938 45.9043C183.43 45.9043 183.867 45.8075 184.249 45.6138C184.631 45.4146 184.93 45.1462 185.146 44.8086C185.367 44.471 185.478 44.0892 185.478 43.6631V40.874C185.478 40.3206 185.309 39.9001 184.971 39.6123C184.639 39.319 184.138 39.1724 183.469 39.1724C182.932 39.1724 182.492 39.2692 182.149 39.4629C181.806 39.651 181.576 39.9194 181.46 40.2681L181.452 40.293H180.007L180.016 40.2432C180.093 39.7728 180.287 39.3633 180.597 39.0146C180.912 38.6605 181.319 38.3866 181.817 38.1929C182.315 37.9937 182.882 37.894 183.519 37.894C184.249 37.894 184.866 38.013 185.37 38.251C185.879 38.4889 186.263 38.832 186.523 39.2803C186.789 39.723 186.922 40.2542 186.922 40.874V47H185.478V45.6802H185.345C185.157 45.9956 184.927 46.264 184.656 46.4854C184.39 46.7067 184.089 46.8755 183.751 46.9917C183.413 47.1024 183.043 47.1577 182.639 47.1577ZM189.645 47V34.499H191.089V47H189.645ZM195.281 47L191.786 42.6172L192.849 41.6958L197.099 47H195.281ZM190.906 43.7793L190.84 41.9614H191.222L195.09 38.0518H196.841L192.591 42.1523L192.243 42.4927L190.906 43.7793ZM199.971 47.083C199.677 47.083 199.423 46.9779 199.207 46.7676C198.997 46.5518 198.892 46.2972 198.892 46.0039C198.892 45.7051 198.997 45.4505 199.207 45.2402C199.423 45.0299 199.677 44.9248 199.971 44.9248C200.27 44.9248 200.524 45.0299 200.734 45.2402C200.945 45.4505 201.05 45.7051 201.05 46.0039C201.05 46.2972 200.945 46.5518 200.734 46.7676C200.524 46.9779 200.27 47.083 199.971 47.083Z" fill="#FDFCFB"/>
</g>
<defs>
<filter id="filter0_b_3841_33495" x="125.206" y="38.25" width="59.5884" height="62.75" filterUnits="userSpaceOnUse" color-interpolation-filters="sRGB">
<feFlood flood-opacity="0" result="BackgroundImageFix"/>
<feGaussianBlur in="BackgroundImageFix" stdDeviation="11"/>
<feComposite in2="SourceAlpha" operator="in" result="effect1_backgroundBlur_3841_33495"/>
<feBlend mode="normal" in="SourceGraphic" in2="effect1_backgroundBlur_3841_33495" result="shape"/>
</filter>
<filter id="filter1_b_3841_33495" x="-22" y="-22" width="384" height="106" filterUnits="userSpaceOnUse" color-interpolation-filters="sRGB">
<feFlood flood-opacity="0" result="BackgroundImageFix"/>
<feGaussianBlur in="BackgroundImageFix" stdDeviation="11"/>
<feComposite in2="SourceAlpha" operator="in" result="effect1_backgroundBlur_3841_33495"/>
<feBlend mode="normal" in="SourceGraphic" in2="effect1_backgroundBlur_3841_33495" result="shape"/>
</filter>
</defs>
</svg>
