<svg width="246" height="245" viewBox="0 0 246 245" fill="none" xmlns="http://www.w3.org/2000/svg">
<mask id="mask0_1729_25537" style="mask-type:luminance" maskUnits="userSpaceOnUse" x="0" y="0" width="246" height="245">
<path d="M0.5 -1.52588e-05H245.5V245H0.5V-1.52588e-05Z" fill="white"/>
</mask>
<g mask="url(#mask0_1729_25537)">
<path d="M186.757 149.998C191.334 148.195 197.464 144.753 198.163 139.377C199.184 131.53 190.79 120.201 185.931 114.603C179.925 107.685 170.828 106.206 163.93 113.202C157.574 119.647 157.265 133.846 160.088 141.869C164.056 153.146 176.984 153.846 186.757 149.998Z" fill="#FED9A8"/>
<path d="M126.88 127.223C136.462 120.653 135.4 106.602 132.846 96.6448C130.078 85.8526 115.985 82.9827 106.381 84.1312C100.482 84.8368 93.9054 87.6288 88.7314 90.4596C78.8898 95.8442 79.0015 104.379 80.449 114.68C81.6896 123.512 85.69 135.92 96.667 136.854C106.35 137.677 119.048 132.594 126.88 127.223Z" fill="#F0E8BA"/>
<path d="M138.638 184.263C152.946 191.099 150.526 216.074 133.435 216.538C125.949 216.741 115.911 212.517 112.182 205.683C104.346 191.323 126.861 178.636 138.638 184.263Z" fill="#F0E8BA"/>
<path d="M179.211 70.0475C179.324 55.0721 158.432 50.8714 147.409 55.175C145.59 55.8851 139.23 58.2331 138.421 60.3828C137.069 63.9735 145.93 69.4752 148.037 70.9354C155.059 75.8011 179.079 87.5773 179.211 70.0475Z" fill="#F0A382"/>
<path d="M51.0048 181.703C50.4761 182.091 49.9944 182.552 49.5681 183.093C46.7173 186.71 47.7703 191.836 49.0277 195.846C50.137 199.386 52.3058 202.991 55.8764 204.436C63.221 207.406 79.3077 202.705 76.3266 192.339C74.173 184.851 58.223 176.412 51.0048 181.703Z" fill="#F0A382"/>
<path d="M173.526 119.063C174.619 119.312 176.245 119.257 176.407 117.823C176.586 116.24 175.65 115.251 174.164 114.967C172.986 114.742 171.335 114.901 170.609 115.981C169.57 117.526 172.475 118.857 173.535 119.028C173.635 119.043 173.675 118.91 173.577 118.875C172.586 118.532 169.789 117.342 171.089 115.913C171.716 115.225 172.971 115.19 173.82 115.266C175.097 115.379 175.943 116.027 176.093 117.328C176.272 118.862 174.732 119.068 173.587 118.84C173.442 118.811 173.379 119.03 173.526 119.063Z" fill="#3D423E"/>
<path d="M183.896 121.827C187.13 122.723 190.569 120.376 193.038 118.559C194.34 117.601 195.64 116.629 196.62 115.325C197.687 113.905 197.939 112.188 197.484 110.493C197.255 109.636 196.846 108.825 196.443 108.039C195.909 106.995 195.62 106.09 195.541 104.916C195.44 103.414 195.203 102.069 193.929 101.127C192.783 100.278 191.172 100.165 189.833 100.519C189.067 100.72 188.357 101.127 187.646 101.463C186.699 101.911 185.727 102.094 184.701 102.26C183.086 102.522 181.834 103 180.722 104.228C179.705 105.35 178.664 106.325 178.073 107.754C178.034 107.85 178.199 107.919 178.241 107.825C178.632 106.947 179.115 106.191 179.783 105.495C180.483 104.766 181.175 103.907 182.012 103.336C183.579 102.266 185.663 102.555 187.365 101.819C189.143 101.051 190.725 100.219 192.701 100.811C193.536 101.061 194.254 101.602 194.71 102.342C195.247 103.214 195.2 104.35 195.283 105.334C195.447 107.26 196.699 108.746 197.264 110.554C197.954 112.763 197.037 114.723 195.481 116.278C194.246 117.51 192.742 118.541 191.283 119.492C189.713 120.516 187.994 121.407 186.132 121.729C185.397 121.856 184.658 121.846 183.924 121.725C183.858 121.715 183.829 121.808 183.896 121.827Z" fill="#3D423E"/>
<path d="M176.967 115.63C180.128 114.464 183.324 113.388 186.415 112.044C189.515 110.696 192.809 108.946 194.991 106.293C195.029 106.246 194.971 106.186 194.925 106.226C192.364 108.461 189.739 110.257 186.641 111.668C183.471 113.111 180.14 114.157 176.934 115.509C176.861 115.539 176.89 115.659 176.967 115.63Z" fill="#3D423E"/>
<path d="M178.288 117.073C182.52 118.125 187.019 117.464 191.17 116.341C191.217 116.328 191.197 116.258 191.15 116.269C186.985 117.195 182.534 118.03 178.307 117.006C178.263 116.995 178.244 117.062 178.288 117.073Z" fill="#3D423E"/>
<path d="M192.775 115.343C193.928 114.98 195.079 114.514 196.09 113.843C196.153 113.801 196.098 113.714 196.032 113.743C194.93 114.235 193.881 114.798 192.731 115.183C192.63 115.217 192.672 115.376 192.775 115.343Z" fill="#3D423E"/>
<path d="M176.34 113.612C179.954 109.408 184.581 106.514 189.345 103.788C189.396 103.758 189.352 103.683 189.299 103.709C184.442 106.132 179.622 109.187 176.212 113.485C176.142 113.574 176.263 113.701 176.34 113.612Z" fill="#3D423E"/>
<path d="M191.332 102.792C191.752 102.494 192.2 102.251 192.653 102.012C192.7 101.987 192.668 101.916 192.619 101.928C192.108 102.058 191.661 102.323 191.234 102.623C191.131 102.695 191.229 102.865 191.332 102.792Z" fill="#3D423E"/>
<path d="M174.001 114.932C175.388 113.858 176.173 111.979 176.991 110.471C177.885 108.826 178.724 107.024 178.924 105.142C179.117 103.341 178.639 101.833 177.698 100.311C177.25 99.584 176.748 98.8916 176.299 98.165C175.718 97.2227 175.515 96.1202 175.275 95.0559C174.989 93.7853 174.602 92.3908 173.324 91.8082C172.326 91.353 171.123 91.5279 170.096 91.7778C168.805 92.0919 167.568 92.6662 166.417 93.3193C165.428 93.8794 164.363 94.5507 163.672 95.4714C162.251 97.3643 162.411 99.7305 162.568 101.968C162.629 102.824 162.584 103.682 162.672 104.537C162.733 105.124 162.851 105.898 163.45 106.173C163.532 106.211 163.599 106.101 163.521 106.05C162.532 105.407 162.849 103.375 162.819 102.367C162.769 100.668 162.519 98.9965 162.972 97.3246C163.733 94.5203 167.139 92.9313 169.69 92.1546C170.901 91.7861 172.376 91.5406 173.523 92.2178C174.236 92.6373 174.531 93.4668 174.766 94.2111C175.076 95.1956 175.225 96.2201 175.563 97.1982C176.129 98.8456 177.459 100.145 178.203 101.715C179.156 103.723 178.723 105.947 177.959 107.938C177.467 109.219 176.793 110.43 176.111 111.616C175.466 112.74 174.849 113.93 173.896 114.827C173.825 114.895 173.928 114.989 174.001 114.932Z" fill="#3D423E"/>
<path d="M167.831 94.3475C169.725 97.2282 170.781 100.474 171.351 103.855C171.927 107.279 171.546 110.87 172.358 114.238C172.374 114.306 172.483 114.292 172.479 114.222C172.393 112.406 172.198 110.591 172.105 108.771C172.019 107.103 171.845 105.441 171.583 103.791C171.042 100.394 169.927 97.1111 167.94 94.2838C167.893 94.2181 167.786 94.2789 167.831 94.3475Z" fill="#3D423E"/>
<path d="M174.313 113.398C175.626 110.483 175.647 107.248 175.345 104.116C175.339 104.055 175.247 104.052 175.248 104.116C175.301 107.26 175.373 110.37 174.191 113.347C174.163 113.417 174.282 113.467 174.313 113.398Z" fill="#3D423E"/>
<path d="M172.198 94.0921C172.886 94.9908 173.408 95.9914 173.868 97.0223C173.879 97.0459 173.919 97.0292 173.91 97.0052C173.494 95.9473 172.963 94.9531 172.27 94.05C172.238 94.0084 172.166 94.0495 172.198 94.0921Z" fill="#3D423E"/>
<path d="M176.182 102.273C176.521 103.071 176.641 103.874 176.75 104.728C176.763 104.827 176.896 104.829 176.906 104.728C176.992 103.842 176.74 102.961 176.371 102.161C176.312 102.031 176.127 102.145 176.182 102.273Z" fill="#3D423E"/>
<path d="M165.175 96.3983C164.982 100.751 166.583 104.979 168.281 108.913C168.298 108.953 168.367 108.924 168.351 108.883C166.848 104.864 165.148 100.773 165.328 96.3983C165.332 96.2998 165.179 96.3003 165.175 96.3983Z" fill="#3D423E"/>
<path d="M164.268 104.256C164.467 104.831 164.741 105.38 165.029 105.915C165.053 105.96 165.13 105.929 165.112 105.88C164.902 105.314 164.597 104.791 164.398 104.221C164.369 104.139 164.24 104.174 164.268 104.256Z" fill="#3D423E"/>
<path d="M177.618 122.448C178.488 124.76 179.171 127.124 179.637 129.551C180.16 132.269 180.243 134.99 180.388 137.742C180.392 137.811 180.492 137.812 180.495 137.742C180.725 132.563 179.634 127.216 177.752 122.411C177.72 122.329 177.586 122.364 177.618 122.448Z" fill="#3D423E"/>
<path d="M179.522 120.348C181.525 122.055 182.444 124.414 183.399 126.79C183.42 126.844 183.505 126.823 183.487 126.767C182.691 124.3 181.564 122.009 179.524 120.346C179.522 120.345 179.521 120.347 179.522 120.348Z" fill="#3D423E"/>
<path d="M186.028 132.321C186.278 133.599 186.578 134.85 186.697 136.15C186.703 136.218 186.8 136.22 186.804 136.15C186.876 134.825 186.504 133.548 186.247 132.261C186.22 132.117 186 132.178 186.028 132.321Z" fill="#3D423E"/>
<path d="M186.235 125.788C187.122 127.085 187.568 128.51 187.86 130.04C187.872 130.103 187.975 130.088 187.971 130.025C187.866 128.437 187.316 126.988 186.409 125.687C186.335 125.581 186.162 125.68 186.235 125.788Z" fill="#3D423E"/>
<path d="M176.397 127.925C176.092 130.166 176.002 132.452 176.344 134.694C176.353 134.759 176.46 134.743 176.456 134.679C176.332 132.418 176.263 130.198 176.526 127.942C176.534 127.869 176.407 127.852 176.397 127.925Z" fill="#3D423E"/>
<path d="M176.177 119.161C176.452 119.497 176.63 119.878 176.822 120.264C176.855 120.331 176.976 120.302 176.966 120.225C176.911 119.742 176.678 119.335 176.376 118.962C176.262 118.821 176.063 119.021 176.177 119.161Z" fill="#3D423E"/>
<path d="M176.429 118.018C177.65 117.835 178.709 118.37 179.754 118.928C180.678 119.42 181.551 120.016 182.389 120.642C184.056 121.887 185.543 123.37 186.9 124.942C188.206 126.454 189.477 128.099 189.953 130.078C190.487 132.299 189.326 134.385 187.961 136.047C185.467 139.084 181.559 137.934 178.199 138.752C177.703 138.874 177.232 139.026 176.716 139.044C176.089 139.065 175.617 138.639 175.236 138.2C174.633 137.503 174.253 136.604 173.861 135.779C173.379 134.766 173.102 133.744 173.058 132.621C173.014 131.507 173.474 130.431 173.707 129.36C173.733 129.243 173.555 129.194 173.528 129.31C173.329 130.17 172.988 131.011 172.878 131.889C172.753 132.885 172.881 133.856 173.174 134.812C173.406 135.565 173.8 136.282 174.161 136.979C174.528 137.689 174.963 138.385 175.587 138.895C176.113 139.325 176.754 139.332 177.389 139.216C178.376 139.036 179.302 138.771 180.313 138.69C181.889 138.566 183.479 138.619 185.018 138.21C186.594 137.79 187.728 136.745 188.678 135.464C189.756 134.007 190.453 132.315 190.23 130.483C190.028 128.817 189.035 127.274 188.022 125.984C186.815 124.446 185.475 123.012 184.015 121.714C182.861 120.688 181.607 119.773 180.274 118.995C179.109 118.317 177.782 117.613 176.399 117.908C176.326 117.924 176.358 118.028 176.429 118.018Z" fill="#3D423E"/>
<path d="M150.246 111.225C153.675 111.478 157.114 111.651 160.52 112.146C163.829 112.627 166.88 113.602 169.955 114.883C170.009 114.906 170.043 114.818 169.994 114.79C164.183 111.447 156.743 111.44 150.246 111.094C150.16 111.089 150.162 111.219 150.246 111.225Z" fill="#3D423E"/>
<path d="M151.728 108.755C152.699 108.59 153.675 108.638 154.656 108.612C154.688 108.612 154.688 108.563 154.656 108.562C153.667 108.529 152.682 108.5 151.703 108.664C151.644 108.675 151.669 108.765 151.728 108.755Z" fill="#3D423E"/>
<path d="M162.352 110.522C163.333 110.953 164.307 111.408 165.304 111.803C165.338 111.817 165.362 111.76 165.329 111.744C164.366 111.282 163.374 110.876 162.394 110.45C162.345 110.429 162.303 110.5 162.352 110.522Z" fill="#3D423E"/>
<path d="M161.735 107.637C164.606 108.802 166.888 110.522 169.241 112.498C169.314 112.559 169.409 112.466 169.346 112.394C167.36 110.108 164.585 108.519 161.786 107.454C161.67 107.41 161.623 107.592 161.735 107.637Z" fill="#3D423E"/>
<path d="M153.43 115.759C156.905 116.059 160.471 115.809 163.921 115.324C163.992 115.314 163.974 115.198 163.904 115.201C160.397 115.333 156.952 115.873 153.43 115.626C153.343 115.619 153.345 115.752 153.43 115.759Z" fill="#3D423E"/>
<path d="M167.124 115.54C167.547 115.605 167.951 115.767 168.375 115.812C168.433 115.819 168.456 115.727 168.405 115.702C168.025 115.517 167.592 115.419 167.176 115.354C167.054 115.335 167.002 115.522 167.124 115.54Z" fill="#3D423E"/>
<path d="M171.626 115.247C171.405 114.482 171.001 113.825 170.507 113.204C169.862 112.392 169.217 111.579 168.569 110.771C167.348 109.25 166.039 107.722 164.439 106.586C163.039 105.591 161.375 105.128 159.666 105.302C157.769 105.496 156.006 106.466 154.175 106.947C152.588 107.364 151.029 106.973 149.449 107.259C148.118 107.499 147.518 108.647 147.542 109.918C147.571 111.428 148.441 112.925 149.264 114.139C149.784 114.904 150.345 115.636 150.894 116.379C151.379 117.036 151.63 117.871 152.161 118.483C153.806 120.378 157.101 118.548 159.067 118.304C159.205 118.287 159.206 118.067 159.067 118.086C157.149 118.336 155.063 119.472 153.122 118.879C152.295 118.626 151.974 117.752 151.588 117.068C151.083 116.176 150.431 115.385 149.848 114.545C148.863 113.128 147.837 111.504 147.801 109.726C147.756 107.514 149.827 107.38 151.498 107.441C153.346 107.509 155.009 106.948 156.725 106.326C158.675 105.617 160.557 105.135 162.587 105.834C164.59 106.524 166.132 108.214 167.482 109.771C168.128 110.516 168.737 111.292 169.346 112.067C170.008 112.912 170.719 113.707 171.234 114.655C171.337 114.859 171.43 115.067 171.511 115.28C171.539 115.35 171.648 115.324 171.626 115.247Z" fill="#3D423E"/>
<path d="M175.174 119.017C175.774 121.336 175.233 123.59 174.581 125.832C174.12 127.417 173.612 128.995 172.987 130.524C172.312 132.172 171.439 133.796 170.154 135.05C168.333 136.826 166.173 135.987 164.266 134.86C162.506 133.819 160.818 132.678 158.956 131.82C158.156 131.452 157.329 131.167 156.487 130.915C155.607 130.651 154.769 130.321 154.134 129.632C152.601 127.969 153.345 125.283 154.226 123.51C155.11 121.731 156.619 120.232 158.178 119.031C160.052 117.588 162.157 116.603 164.531 116.4C165.691 116.3 166.936 116.366 168.065 116.651C168.536 116.77 168.991 116.926 169.473 117.003C169.93 117.076 170.24 116.939 170.668 116.821C170.778 116.79 170.729 116.64 170.622 116.655C170.088 116.727 169.675 116.793 169.135 116.676C168.736 116.589 168.348 116.45 167.951 116.35C167.012 116.116 165.986 116.092 165.025 116.116C163.151 116.163 161.404 116.748 159.772 117.64C156.68 119.332 153.845 122.216 153.095 125.749C152.774 127.264 153.009 129.01 154.185 130.105C154.652 130.541 155.268 130.797 155.861 131.01C156.851 131.366 157.845 131.635 158.81 132.07C160.673 132.91 162.376 134.054 164.124 135.104C165.531 135.948 167.16 136.719 168.819 136.201C170.121 135.795 171.092 134.464 171.798 133.371C172.627 132.09 173.213 130.654 173.729 129.224C174.272 127.722 174.74 126.181 175.148 124.637C175.638 122.785 175.919 120.835 175.329 118.974C175.299 118.875 175.148 118.916 175.174 119.017Z" fill="#3D423E"/>
<path d="M170.855 119.007C168.125 119.823 165.792 121.575 163.799 123.568C161.773 125.592 159.901 128.201 159.131 130.989C159.114 131.052 159.211 131.097 159.239 131.034C161.564 125.717 165.383 121.321 170.918 119.237C171.059 119.184 171.005 118.963 170.855 119.007Z" fill="#3D423E"/>
<path d="M170.878 120.951C168.712 123.477 167.429 126.853 166.757 130.078C166.75 130.113 166.801 130.127 166.809 130.093C167.614 126.818 168.762 123.66 171.018 121.091C171.102 120.995 170.961 120.854 170.878 120.951Z" fill="#3D423E"/>
<path d="M173.64 122.123C173.701 124.268 172.92 126.219 172.318 128.238C172.303 128.288 172.378 128.307 172.395 128.259C173.131 126.297 173.831 124.244 173.768 122.123C173.766 122.041 173.638 122.041 173.64 122.123Z" fill="#3D423E"/>
<path d="M165.828 135.062C166.14 134.617 166.383 134.137 166.612 133.646C166.619 133.629 166.595 133.614 166.586 133.631C166.332 134.107 166.087 134.59 165.777 135.032C165.756 135.064 165.807 135.093 165.828 135.062Z" fill="#3D423E"/>
<path d="M169.025 135.022C170.206 133.702 171.122 132.154 171.671 130.467C171.69 130.412 171.6 130.372 171.576 130.427C170.869 132.051 170.117 133.597 168.951 134.949C168.907 134.999 168.979 135.073 169.025 135.022Z" fill="#3D423E"/>
<path d="M155.994 125.4C158.667 121.091 163.526 118.697 168.205 117.21C168.266 117.191 168.241 117.099 168.178 117.114C163.433 118.281 158.498 121.099 155.889 125.339C155.848 125.406 155.952 125.466 155.994 125.4Z" fill="#3D423E"/>
<path d="M165.57 120.552C166.664 119.895 167.794 119.335 168.942 118.781C168.973 118.766 168.951 118.713 168.919 118.725C167.727 119.176 166.627 119.845 165.546 120.51C165.519 120.526 165.543 120.568 165.57 120.552Z" fill="#3D423E"/>
<path d="M158.411 119.89C159.101 119.412 159.885 119.13 160.613 118.721C160.65 118.7 160.617 118.65 160.58 118.666C159.817 118.992 159.05 119.341 158.372 119.825C158.334 119.853 158.37 119.918 158.411 119.89Z" fill="#3D423E"/>
<path d="M128.431 144.287C131.031 142.096 133.174 139.273 135.409 136.725C137.656 134.164 140.081 131.782 142.402 129.289C144.617 126.907 146.893 124.769 149.731 123.141C151.209 122.292 152.77 121.589 154.295 120.832C155.081 120.441 155.81 119.875 156.565 119.424C157.428 118.91 158.336 118.571 159.267 118.206C159.332 118.181 159.33 118.065 159.249 118.075C157.807 118.248 156.483 119.14 155.279 119.893C153.817 120.807 152.26 121.508 150.727 122.294C147.758 123.815 145.327 125.816 143.037 128.222C138.049 133.459 133.107 138.755 128.327 144.182C128.264 144.254 128.359 144.347 128.431 144.287Z" fill="#3D423E"/>
<path d="M133.19 139.187C136.557 137.13 141.54 137.868 145.2 138.585C149.176 139.363 152.906 140.901 156.664 142.361C156.713 142.379 156.747 142.298 156.699 142.276C152.775 140.477 148.619 139.028 144.368 138.243C142.302 137.862 140.198 137.719 138.099 137.792C136.398 137.851 134.535 138.04 133.123 139.075C133.057 139.123 133.117 139.232 133.19 139.187Z" fill="#3D423E"/>
<path d="M139.297 137.879C142.394 137.313 145.498 136.745 148.563 136.02C150.917 135.463 153.459 135.188 155.691 136.311C158.104 137.526 159.333 140.453 160.863 142.538C162.562 144.853 164.427 147.187 166.651 149.018C167.012 149.316 167.405 149.544 167.806 149.782C168.286 150.069 166.783 150.236 166.635 150.275C165.038 150.691 163.537 150.956 161.88 150.913C158.676 150.832 155.583 149.476 152.404 149.093C150.813 148.901 149.468 148.787 148.069 147.937C146.739 147.13 145.694 145.867 144.779 144.634C143.897 143.445 143.162 142.155 142.279 140.965C141.415 139.802 140.206 138.965 139.395 137.757C139.301 137.617 139.072 137.749 139.167 137.89C139.832 138.874 140.736 139.629 141.55 140.483C142.74 141.735 143.561 143.36 144.555 144.764C145.897 146.658 147.626 148.371 149.9 149.033C151.27 149.431 152.792 149.385 154.196 149.646C155.869 149.957 157.517 150.401 159.169 150.802C160.651 151.163 162.165 151.232 163.683 151.14C165.284 151.042 166.765 150.389 168.348 150.184C168.447 150.171 168.526 150.052 168.437 149.969C168.041 149.604 167.573 149.368 167.126 149.072C166.339 148.551 165.651 147.816 164.997 147.139C163.68 145.775 162.48 144.287 161.33 142.781C159.661 140.596 158.449 137.775 156.041 136.289C154.198 135.153 151.904 135.248 149.854 135.589C148.217 135.86 146.604 136.313 144.978 136.642C143.075 137.027 141.163 137.361 139.266 137.768C139.193 137.784 139.225 137.892 139.297 137.879Z" fill="#3D423E"/>
<path d="M161.308 146.787C163.033 147.965 164.865 149.125 166.832 149.854C166.882 149.872 166.914 149.793 166.868 149.768C164.998 148.785 163.154 147.819 161.356 146.705C161.303 146.673 161.258 146.753 161.308 146.787Z" fill="#3D423E"/>
<path d="M142.474 140.001C146.104 143.661 150.977 146.279 155.991 147.463C156.047 147.477 156.07 147.394 156.015 147.376C151.033 145.748 146.359 143.628 142.581 139.893C142.512 139.825 142.405 139.931 142.474 140.001Z" fill="#3D423E"/>
<path d="M158.432 148.904C159.081 149.083 159.733 149.324 160.399 149.43C160.466 149.441 160.49 149.354 160.426 149.329C159.8 149.08 159.123 148.93 158.474 148.752C158.375 148.726 158.334 148.877 158.432 148.904Z" fill="#3D423E"/>
<path d="M151.025 136.762C153.046 137.409 154.82 138.348 156.588 139.504C156.639 139.538 156.702 139.458 156.654 139.419C155.024 138.087 153.057 137.247 151.058 136.64C150.98 136.616 150.947 136.737 151.025 136.762Z" fill="#3D423E"/>
<path d="M137.13 188.851C137.787 189.948 139.531 190.168 140.559 189.503C141.587 188.839 142.196 187.32 141.758 186.16C141.258 184.834 139.449 184.756 138.35 185.242C136.955 185.86 136.383 187.528 137.169 188.828C137.204 188.887 137.309 188.848 137.283 188.78C136.817 187.575 137.114 186.392 138.206 185.658C139.226 184.973 141.04 185.085 141.525 186.37C141.882 187.315 141.291 188.462 140.617 189.101C139.764 189.912 137.954 189.752 137.315 188.742C137.242 188.627 137.059 188.732 137.13 188.851Z" fill="#3D423E"/>
<path d="M141.499 185.936C142.856 184.524 144.848 183.762 146.596 182.949C148.613 182.012 150.726 181.268 152.92 180.877C154.922 180.519 156.871 180.58 158.713 181.502C160.231 182.261 161.498 183.457 162.793 184.534C164.104 185.624 165.682 186.658 166.082 188.432C166.429 189.975 165.431 191.535 164.613 192.752C164.199 193.368 163.756 193.949 163.399 194.602C163.071 195.202 162.793 195.828 162.465 196.429C161.7 197.832 160.607 198.518 158.984 198.388C156.717 198.206 153.719 198.263 152.142 196.338C152.043 196.218 151.874 196.39 151.971 196.508C152.894 197.631 154.308 198.057 155.689 198.305C156.38 198.429 157.085 198.489 157.785 198.55C158.554 198.616 159.333 198.74 160.104 198.645C161.226 198.505 162.005 197.764 162.574 196.837C163.299 195.656 163.816 194.401 164.623 193.262C165.437 192.114 166.235 190.856 166.419 189.433C166.586 188.126 165.897 186.968 165.032 186.056C164.419 185.41 163.674 184.9 162.988 184.338C162.31 183.782 161.646 183.209 160.956 182.667C159.771 181.736 158.489 180.954 157.015 180.588C154.293 179.913 151.18 180.853 148.64 181.804C147.273 182.315 145.982 182.975 144.664 183.595C143.459 184.161 142.227 184.753 141.344 185.781C141.253 185.887 141.4 186.039 141.499 185.936Z" fill="#3D423E"/>
<path d="M142.303 187.462C146.409 187.528 150.346 188.012 154.315 189.075C157.709 189.984 161.079 190.868 164.079 192.767C164.143 192.807 164.195 192.711 164.138 192.668C161.323 190.55 157.711 189.758 154.37 188.877C150.375 187.823 146.439 187.317 142.303 187.357C142.236 187.358 142.236 187.461 142.303 187.462Z" fill="#3D423E"/>
<path d="M144.222 185.422C149.11 183.191 154.586 185.057 159.524 186.126C159.574 186.137 159.595 186.064 159.546 186.05C154.637 184.722 149.025 182.962 144.141 185.285C144.049 185.329 144.13 185.464 144.222 185.422Z" fill="#3D423E"/>
<path d="M162.5 188.309C163.053 188.547 163.592 188.842 164.176 189C164.237 189.017 164.271 188.932 164.218 188.9C163.712 188.588 163.158 188.352 162.614 188.115C162.482 188.058 162.367 188.253 162.5 188.309Z" fill="#3D423E"/>
<path d="M154.7 182.311C156.973 182.67 159.115 183.224 161.061 184.5C161.109 184.532 161.169 184.456 161.123 184.419C159.316 182.954 156.977 182.518 154.733 182.189C154.654 182.178 154.619 182.299 154.7 182.311Z" fill="#3D423E"/>
<path d="M145.278 189.191C148.191 191.322 151.444 192.957 154.784 194.305C154.839 194.327 154.876 194.237 154.824 194.211C151.599 192.596 148.351 191.087 145.372 189.03C145.272 188.961 145.183 189.121 145.278 189.191Z" fill="#3D423E"/>
<path d="M157.752 195.679C158.249 195.921 158.808 196.179 159.348 196.302C159.427 196.319 159.509 196.212 159.435 196.152C159.001 195.801 158.386 195.685 157.888 195.444C157.732 195.369 157.594 195.602 157.752 195.679Z" fill="#3D423E"/>
<path d="M138.441 184.722C137.366 183.249 138.028 181.22 137.691 179.532C137.498 178.563 137.165 177.628 136.97 176.657C136.771 175.668 136.844 174.636 136.925 173.636C137.216 170.028 138.579 166.603 141.523 164.361C143.143 163.128 144.811 162.705 146.789 163.163C147.553 163.339 148.334 163.652 149.114 163.733C150.13 163.836 151.137 163.529 152.149 163.697C153.061 163.848 153.949 164.797 154.373 165.572C154.933 166.595 154.458 167.775 154.234 168.825C153.884 170.469 154.692 171.882 154.807 173.484C154.892 174.678 154.036 175.609 153.343 176.477C152.588 177.422 151.804 178.343 150.981 179.229C149.286 181.053 147.307 182.773 144.901 183.552C144.816 183.58 144.85 183.709 144.938 183.687C148.229 182.846 150.769 179.936 152.84 177.418C153.709 176.36 154.871 175.216 154.993 173.783C155.043 173.195 154.861 172.591 154.714 172.03C154.433 170.964 154.182 169.976 154.384 168.866C154.529 168.065 154.8 167.293 154.783 166.469C154.768 165.799 154.297 165.12 153.881 164.634C153.44 164.118 152.855 163.695 152.196 163.524C151.349 163.305 150.401 163.578 149.541 163.587C148.644 163.597 147.703 163.201 146.834 162.998C146.105 162.827 145.361 162.751 144.615 162.824C143.037 162.978 141.626 164.011 140.505 165.063C138.039 167.377 136.978 170.75 136.783 174.048C136.731 174.929 136.722 175.813 136.867 176.686C137.042 177.743 137.422 178.757 137.623 179.81C137.932 181.43 137.196 183.399 138.389 184.762C138.413 184.79 138.463 184.753 138.441 184.722Z" fill="#3D423E"/>
<path d="M140.711 184.154C142.939 178.621 146.198 173.764 149.198 168.646C149.225 168.6 149.157 168.562 149.128 168.605C145.846 173.469 142.64 178.593 140.629 184.131C140.61 184.184 140.691 184.204 140.711 184.154Z" fill="#3D423E"/>
<path d="M150.291 167.044C150.876 166.379 151.497 165.74 152.057 165.054C152.098 165.003 152.037 164.941 151.986 164.982C151.304 165.548 150.739 166.246 150.159 166.912C150.081 167.003 150.211 167.134 150.291 167.044Z" fill="#3D423E"/>
<path d="M145.363 181.309C147.839 178.667 150.103 175.792 152.137 172.797C152.166 172.754 152.099 172.719 152.07 172.758C149.86 175.631 147.746 178.56 145.287 181.232C145.239 181.283 145.315 181.36 145.363 181.309Z" fill="#3D423E"/>
<path d="M139.574 178.18C140.338 174.348 141.64 170.679 143.793 167.399C143.81 167.374 143.77 167.352 143.753 167.376C141.499 170.597 140.226 174.32 139.479 178.154C139.467 178.216 139.561 178.243 139.574 178.18Z" fill="#3D423E"/>
<path d="M144.824 165.527C145.099 164.854 145.742 164.535 146.251 164.066C146.284 164.035 146.242 163.985 146.204 164.006C145.584 164.337 144.954 164.82 144.683 165.489C144.648 165.576 144.789 165.613 144.824 165.527Z" fill="#3D423E"/>
<path d="M136.33 201.391C136.48 202.656 136.325 204.034 136.734 205.252C137.204 206.652 138.703 207.255 139.979 207.698C140.905 208.018 141.851 208.271 142.768 208.616C143.751 208.985 144.571 209.515 145.386 210.162C146.325 210.908 147.628 212.058 148.942 211.784C151.485 211.253 151.639 207.427 152.407 205.481C153.108 203.705 154.002 201.998 153.828 200.033C153.711 198.719 153.085 197.539 152.251 196.541C150.99 195.036 149.239 193.987 147.597 192.955C146.478 192.252 145.452 191.47 144.427 190.638C143.974 190.271 143.508 189.924 143.019 189.606C142.448 189.237 141.806 189.037 141.283 188.585C141.184 188.501 141.044 188.638 141.139 188.729C141.707 189.272 142.459 189.519 143.109 189.942C143.997 190.519 144.769 191.254 145.607 191.897C146.865 192.863 148.274 193.616 149.578 194.516C150.858 195.401 152.07 196.435 152.874 197.786C153.844 199.418 153.81 201.324 153.195 203.074C152.858 204.031 152.409 204.946 152.05 205.895C151.815 206.515 151.679 207.176 151.504 207.815C151.143 209.138 150.649 210.967 149.233 211.518C147.63 212.142 145.938 210.335 144.785 209.484C143.256 208.356 141.308 208.017 139.561 207.364C138.224 206.865 137.063 206.112 136.767 204.64C136.55 203.562 136.721 202.449 136.434 201.378C136.419 201.322 136.324 201.332 136.33 201.391Z" fill="#3D423E"/>
<path d="M140.853 190.679C141.826 193.578 143.531 196.209 144.873 198.945C146.497 202.254 148.085 205.58 149.704 208.891C149.725 208.933 149.783 208.897 149.765 208.856C148.432 205.764 146.915 202.747 145.428 199.726C143.954 196.732 142.06 193.807 140.977 190.645C140.95 190.567 140.826 190.6 140.853 190.679Z" fill="#3D423E"/>
<path d="M143.307 191.104C145.399 193.825 147.855 196.238 149.543 199.254C149.564 199.292 149.62 199.259 149.601 199.22C148.049 196.116 145.528 193.728 143.413 191.022C143.366 190.963 143.26 191.044 143.307 191.104Z" fill="#3D423E"/>
<path d="M151.056 201.787C151.228 202.466 151.423 203.137 151.573 203.821C151.583 203.868 151.658 203.858 151.656 203.81C151.611 203.105 151.367 202.43 151.191 201.75C151.169 201.662 151.033 201.699 151.056 201.787Z" fill="#3D423E"/>
<path d="M139.163 192.122C138.511 194.813 139.637 197.288 140.699 199.713C141.876 202.4 143.219 205.103 145.143 207.341C145.165 207.366 145.2 207.329 145.18 207.304C143.6 205.301 142.379 203.117 141.308 200.808C140.062 198.121 138.531 195.176 139.237 192.142C139.248 192.094 139.175 192.074 139.163 192.122Z" fill="#3D423E"/>
<path d="M139.046 202.605C139.221 203.542 139.649 204.412 140.137 205.223C140.165 205.27 140.25 205.239 140.228 205.185C139.861 204.308 139.371 203.513 139.19 202.565C139.172 202.471 139.028 202.511 139.046 202.605Z" fill="#3D423E"/>
<path d="M151.539 198.3C151.778 198.858 151.997 199.422 152.221 199.985C152.244 200.041 152.325 200.02 152.313 199.96C152.193 199.351 151.931 198.781 151.688 198.214C151.644 198.112 151.497 198.2 151.539 198.3Z" fill="#3D423E"/>
<path d="M128.547 187.356C126.838 187.253 125.083 187.355 123.473 187.984C122.043 188.543 120.919 189.738 120.169 191.052C118.626 193.756 119.011 197.113 119.519 200.044C119.772 201.504 119.986 203.023 120.433 204.439C120.797 205.587 121.471 206.592 122.646 206.998C124.169 207.524 125.862 206.795 127.178 206.062C128.704 205.212 130.021 204.052 131.661 203.414C133.807 202.578 136.297 202.302 137.486 200.065C138.295 198.543 138.207 196.634 138.193 194.965C138.183 193.856 138.118 192.736 138.44 191.665C138.654 190.958 138.746 190.37 138.412 189.691C138.361 189.588 138.209 189.678 138.259 189.78C138.758 190.811 138.082 191.74 138.02 192.779C137.949 193.958 138.011 195.143 137.991 196.323C137.958 198.245 137.655 200.265 136.018 201.484C134.929 202.297 133.513 202.583 132.246 203.001C130.751 203.495 129.537 204.321 128.233 205.181C126.63 206.237 124.682 207.363 122.698 206.808C121.091 206.359 120.589 204.478 120.295 203.049C119.642 199.886 118.853 196.469 119.55 193.252C119.944 191.43 121.025 189.665 122.633 188.677C124.39 187.597 126.553 187.588 128.547 187.579C128.691 187.578 128.689 187.365 128.547 187.356Z" fill="#3D423E"/>
<path d="M123.082 204.478C124.098 201.168 126.631 198.657 128.807 196.072C131.098 193.35 133.492 190.789 136.206 188.485C136.241 188.456 136.195 188.396 136.158 188.422C133.175 190.569 130.767 193.475 128.418 196.269C126.307 198.78 123.907 201.213 122.978 204.449C122.959 204.516 123.061 204.543 123.082 204.478Z" fill="#3D423E"/>
<path d="M121.527 195.59C123.26 191.825 127.439 190.447 130.888 188.732C130.928 188.712 130.893 188.656 130.853 188.673C127.32 190.17 123.091 191.774 121.431 195.534C121.402 195.599 121.497 195.656 121.527 195.59Z" fill="#3D423E"/>
<path d="M122.001 199.501C122.25 198.94 122.63 198.472 123.043 198.024C123.058 198.007 123.034 197.983 123.018 198C122.57 198.421 122.19 198.9 121.936 199.463C121.917 199.507 121.981 199.545 122.001 199.501Z" fill="#3D423E"/>
<path d="M126.395 205.063C128.39 203.615 130.453 202.48 131.979 200.489C133.561 198.424 134.589 195.923 135.562 193.53C135.577 193.491 135.511 193.463 135.493 193.501C134.497 195.635 133.612 197.805 132.325 199.788C130.809 202.122 128.539 203.394 126.362 205.007C126.328 205.032 126.361 205.089 126.395 205.063Z" fill="#3D423E"/>
<path d="M136.58 191.908C136.755 191.486 136.98 191.085 137.187 190.679C137.206 190.64 137.154 190.611 137.13 190.645C136.858 191.033 136.61 191.427 136.43 191.866C136.392 191.959 136.543 191.999 136.58 191.908Z" fill="#3D423E"/>
<path d="M137.013 187.247C134.984 187.105 132.969 187.49 130.944 187.554C128.75 187.623 126.687 187.083 124.867 185.847C123.3 184.783 122.073 183.278 121.087 181.678C120.114 180.102 119.243 178.382 118.491 176.689C117.632 174.756 117.152 172.615 118.203 170.661C119.047 169.09 120.66 168.073 122.322 167.56C125.204 166.671 128.988 167.099 131.019 169.522C131.96 170.645 132.431 172.137 133.235 173.359C134.027 174.564 135.287 175.372 135.963 176.663C136.742 178.148 136.413 179.982 136.892 181.561C137.108 182.271 137.486 182.926 137.728 183.627C137.923 184.193 138.089 184.693 138.497 185.144C138.566 185.219 138.669 185.111 138.607 185.034C138.033 184.324 137.891 183.332 137.522 182.506C137.009 181.359 136.842 180.263 136.723 179.017C136.641 178.17 136.51 177.332 136.15 176.554C135.802 175.8 135.169 175.2 134.591 174.621C133.14 173.168 132.527 171.327 131.392 169.666C130.659 168.592 129.51 167.888 128.307 167.453C125.69 166.507 122.445 166.851 120.112 168.369C118.859 169.185 117.904 170.432 117.532 171.884C117.116 173.511 117.742 175.276 118.372 176.76C119.149 178.587 120.133 180.431 121.203 182.104C122.159 183.598 123.349 184.936 124.795 185.97C126.47 187.166 128.431 187.654 130.467 187.7C132.653 187.749 134.822 187.355 137.013 187.409C137.118 187.412 137.116 187.254 137.013 187.247Z" fill="#3D423E"/>
<path d="M121.276 171.02C123.865 173.882 126.409 176.795 129.162 179.502C131.591 181.889 134.522 183.816 137.218 185.883C137.259 185.914 137.31 185.846 137.272 185.812C134.746 183.501 131.766 181.751 129.271 179.394C126.47 176.748 123.956 173.778 121.355 170.941C121.306 170.887 121.227 170.966 121.276 171.02Z" fill="#3D423E"/>
<path d="M132.943 180.014C133.637 180.708 134.328 181.406 135.011 182.112C135.042 182.144 135.087 182.096 135.059 182.063C134.432 181.304 133.739 180.609 133.043 179.913C132.978 179.848 132.878 179.949 132.943 180.014Z" fill="#3D423E"/>
<path d="M122.246 179.196C124.958 182.279 128.528 184.656 132.243 186.36C132.279 186.376 132.309 186.325 132.274 186.307C128.622 184.454 125.07 182.193 122.344 179.098C122.285 179.03 122.187 179.129 122.246 179.196Z" fill="#3D423E"/>
<path d="M120.349 176.082C120.608 176.433 120.832 176.808 121.123 177.134C121.154 177.169 121.21 177.124 121.187 177.085C120.965 176.716 120.74 176.351 120.484 176.004C120.425 175.924 120.29 176.002 120.349 176.082Z" fill="#3D423E"/>
<path d="M124.226 168.743C126.654 170.416 128.713 172.437 130.52 174.76C130.543 174.789 130.593 174.751 130.572 174.72C128.884 172.301 126.732 170.281 124.285 168.643C124.222 168.601 124.165 168.701 124.226 168.743Z" fill="#3D423E"/>
<path d="M132.288 174.79C133.118 175.704 133.926 176.633 134.675 177.615C134.704 177.654 134.77 177.619 134.742 177.576C134.065 176.527 133.23 175.606 132.393 174.684C132.328 174.614 132.223 174.719 132.288 174.79Z" fill="#3D423E"/>
<path d="M120.121 169.643C120.215 169.741 120.287 169.856 120.386 169.949C120.421 169.982 120.484 169.939 120.454 169.897C120.371 169.781 120.311 169.653 120.223 169.542C120.166 169.47 120.055 169.575 120.121 169.643Z" fill="#3D423E"/>
<path d="M81.5198 210.565C83.1853 208.548 84.916 206.664 86.9583 205.02C89.1192 203.279 91.5158 201.851 93.9579 200.546C97.5928 198.603 101.351 197.102 104.694 194.663C107.477 192.634 110.194 190.556 113.363 189.153C117.975 187.112 122.771 187.112 127.705 187.448C127.844 187.458 127.876 187.229 127.738 187.204C123.192 186.385 118.289 186.847 113.985 188.519C110.629 189.823 107.755 191.975 104.884 194.096C101.426 196.651 97.5727 198.249 93.785 200.249C89.078 202.736 84.3363 205.923 81.3914 210.466C81.3414 210.543 81.46 210.637 81.5198 210.565Z" fill="#3D423E"/>
<path d="M88.6464 203.59C91.3052 202.62 94.7989 203.75 97.3885 204.541C100.345 205.443 103.061 206.855 105.751 208.348C105.812 208.381 105.862 208.294 105.805 208.256C103.107 206.498 100.118 205.163 97.0416 204.225C95.5574 203.772 94.0217 203.437 92.4826 203.238C91.1949 203.072 89.8028 202.883 88.594 203.466C88.5244 203.499 88.5739 203.617 88.6464 203.59Z" fill="#3D423E"/>
<path d="M92.237 203.297C96.599 204.571 100.825 200.73 105.248 202.263C107.436 203.021 108.915 205.178 110.298 206.906C111.038 207.829 111.79 208.743 112.571 209.633C112.963 210.08 113.371 210.512 113.784 210.94C114.289 211.464 115.223 211.924 114.346 212.515C112.196 213.961 109.609 215.612 106.946 215.664C104.429 215.713 102.199 213.801 100.822 211.872C99.6586 210.243 98.9099 208.369 97.606 206.831C96.8435 205.932 95.7802 205.397 94.8904 204.645C94.2088 204.069 93.6022 203.614 92.7594 203.275C92.6432 203.228 92.5599 203.427 92.6741 203.478C93.7203 203.949 94.4641 204.659 95.3637 205.341C96.6304 206.3 97.6246 207.118 98.4978 208.473C99.8291 210.539 100.76 212.641 102.695 214.243C104.064 215.376 105.889 216.133 107.69 215.872C110.417 215.476 112.987 213.731 115.205 212.194C115.26 212.156 115.282 212.073 115.226 212.022C113.375 210.335 111.781 208.421 110.215 206.472C108.897 204.831 107.598 203.166 105.659 202.235C101.374 200.177 96.6833 204.048 92.2468 203.263C92.2248 203.259 92.215 203.29 92.237 203.297Z" fill="#3D423E"/>
<path d="M108.564 209.887C110.421 210.988 112.463 212.076 114.659 212.199C114.702 212.202 114.712 212.131 114.669 212.124C112.492 211.745 110.54 210.861 108.627 209.779C108.557 209.739 108.494 209.846 108.564 209.887Z" fill="#3D423E"/>
<path d="M98.4579 206.741C101.846 209.866 105.445 213.287 110.372 213.174C110.415 213.173 110.415 213.109 110.372 213.107C105.426 212.822 102.073 209.789 98.5206 206.678C98.478 206.64 98.4157 206.702 98.4579 206.741Z" fill="#3D423E"/>
<path d="M100.817 202.846C102.821 203.076 104.601 203.716 106.308 204.786C106.349 204.812 106.398 204.75 106.36 204.719C104.769 203.484 102.795 202.932 100.817 202.733C100.744 202.725 100.745 202.838 100.817 202.846Z" fill="#3D423E"/>
<path d="M108.357 207.193C108.854 207.619 109.399 207.988 109.91 208.396C109.957 208.433 110.015 208.377 109.976 208.33C109.554 207.828 108.961 207.506 108.468 207.083C108.391 207.018 108.28 207.128 108.357 207.193Z" fill="#3D423E"/>
<path d="M89.5131 99.0003C91.0194 100.554 93.3944 100.317 95.2084 99.4742C96.0919 99.0635 96.8671 98.3986 96.9817 97.3907C97.0841 96.493 96.2849 95.7315 95.6141 95.2901C94.052 94.2615 91.9528 94.7471 90.4098 95.5463C88.9741 96.2892 88.2769 97.7043 89.5567 98.9567C89.6288 99.0273 89.7635 98.9322 89.7008 98.846C87.7589 96.1652 92.5771 94.753 94.5288 95.2572C95.4196 95.4875 96.284 96.1427 96.5437 97.0462C96.8705 98.1845 95.4632 98.9391 94.6135 99.2958C93.0519 99.9509 91.014 100.027 89.7297 98.7838C89.5876 98.6456 89.3754 98.8582 89.5131 99.0003Z" fill="#3D423E"/>
<path d="M94.5792 99.6876C94.4753 102.412 94.8119 105.2 95.7434 107.771C96.6195 110.189 98.2718 112.243 100.017 114.093C101.865 116.053 103.923 117.322 106.327 118.504C108.484 119.564 110.677 120.724 113.133 120.807C114.197 120.843 115.29 120.479 116.305 120.205C117.476 119.888 118.622 119.477 119.692 118.902C121.522 117.92 122.796 116.225 122.5 114.083C122.308 112.689 122.136 111.521 122.618 110.169C122.995 109.106 123.632 108.157 124.047 107.11C124.82 105.158 124.563 103.151 123.184 101.516C121.615 99.6572 119.402 98.1666 117.284 97.0082C115.072 95.7979 112.638 95.0267 110.127 94.7881C107.843 94.571 105.469 94.6004 103.182 94.7346C100.961 94.865 98.6888 95.2217 96.7102 96.2875C96.5553 96.3708 96.6916 96.5986 96.8464 96.5212C99.0587 95.4192 101.623 95.185 104.058 95.0894C106.437 94.9958 108.947 94.9806 111.306 95.3344C113.958 95.7323 116.459 96.8514 118.711 98.2769C120.983 99.714 123.823 101.688 124.184 104.567C124.465 106.806 122.625 108.748 122.066 110.814C121.794 111.822 121.975 112.833 122.135 113.842C122.429 115.702 121.706 117.079 120.231 118.176C119.222 118.925 117.989 119.355 116.802 119.724C115.532 120.119 114.168 120.52 112.831 120.477C110.096 120.388 107.425 118.726 105.054 117.51C101.88 115.881 99.3047 113.254 97.3795 110.266C95.3392 107.099 94.9917 103.355 94.8198 99.6876C94.8124 99.5327 94.585 99.5327 94.5792 99.6876Z" fill="#3D423E"/>
<path d="M93.4523 94.833C93.0554 91.891 94.394 88.8123 95.5215 86.1546C96.6451 83.5037 98.0965 80.9768 99.8698 78.7066C102.951 74.7626 108.28 72.4405 113.272 72.563C114.667 72.5973 116.152 72.9363 117.138 73.9776C117.861 74.741 118.203 75.846 118.652 76.774C119.125 77.7481 119.857 78.565 120.659 79.2789C121.965 80.4431 122.045 81.6177 121.531 83.2254C120.696 85.8376 119.885 88.6281 118.341 90.9154C117.523 92.1292 116.471 93.2753 115.176 93.9789C113.994 94.6218 112.575 94.7252 111.272 94.9324C111.113 94.9579 111.15 95.2289 111.309 95.2132C113.708 94.9761 115.6 94.3983 117.372 92.7157C119.29 90.8948 120.218 88.4115 121.019 85.9615C121.631 84.0878 122.986 81.799 121.832 79.885C121.564 79.4406 121.109 79.129 120.727 78.7933C120.236 78.3626 119.81 77.8667 119.435 77.3341C118.775 76.3992 118.446 75.2761 117.841 74.3079C116.673 72.4361 114.281 72.1602 112.263 72.2489C110.009 72.3469 107.667 73.0196 105.6 73.8938C100.874 75.8925 97.9029 80.2682 95.7631 84.7502C94.9874 86.3746 94.372 88.0622 93.7913 89.7639C93.221 91.4378 92.8701 93.1572 93.1249 94.9231C93.1563 95.1402 93.4812 95.0461 93.4523 94.833Z" fill="#3D423E"/>
<path d="M96.5397 93.4484C102.306 87.248 109.148 82.3392 117.082 79.3183C117.142 79.2953 117.119 79.2002 117.055 79.2198C109.027 81.7247 101.992 87.1456 96.4373 93.346C96.3755 93.4151 96.476 93.517 96.5397 93.4484Z" fill="#3D423E"/>
<path d="M103.443 93.6071C108.335 91.8 112.681 88.8595 117.014 86.0121C117.071 85.9744 117.02 85.8837 116.96 85.9195C112.505 88.5626 108.268 91.6079 103.417 93.5145C103.361 93.5365 103.385 93.6287 103.443 93.6071Z" fill="#3D423E"/>
<path d="M119.261 84.3695C119.71 84.0917 120.083 83.7291 120.393 83.3043C120.432 83.2508 120.354 83.1739 120.302 83.2126C119.899 83.5056 119.545 83.8673 119.122 84.1314C118.972 84.2255 119.109 84.4636 119.261 84.3695Z" fill="#3D423E"/>
<path d="M111.953 92.5243C113.242 92.2671 114.424 91.73 115.315 90.7456C115.37 90.6863 115.289 90.6075 115.229 90.6584C114.247 91.487 113.155 92.0505 111.894 92.3102C111.754 92.3391 111.813 92.5523 111.953 92.5243Z" fill="#3D423E"/>
<path d="M95.9987 89.6887C99.8197 82.9747 106.217 78.0414 113.098 74.7486C113.16 74.7187 113.115 74.6094 113.05 74.6364C106.006 77.5445 99.5321 82.8801 95.8346 89.5926C95.7753 89.6999 95.938 89.7955 95.9987 89.6887Z" fill="#3D423E"/>
<path d="M89.27 96.655C88.3234 96.0009 87.2409 95.6765 86.1659 95.2982C84.8517 94.8357 83.5973 94.158 82.414 93.4294C80.1555 92.0387 78.2284 90.1503 76.8946 87.8532C74.6587 84.0037 74.1364 79.0827 75.0483 74.7716C76.0538 70.0191 79.5372 65.7243 84.6513 65.4195C87.1351 65.272 89.5758 66.1633 91.6735 67.426C92.5834 67.9734 93.4292 68.6006 94.3621 69.1136C95.3186 69.6399 96.2917 70.1348 97.1179 70.86C98.2243 71.8321 98.5232 73.1463 98.6104 74.56C98.656 75.2964 98.6736 76.03 98.7599 76.7635C98.8525 77.5553 99.2724 78.3285 99.0803 79.1356C99.046 79.2782 99.2508 79.3326 99.2974 79.1958C99.4405 78.7769 99.4478 78.4349 99.3616 78.0022C99.2053 77.2182 99.0446 76.4661 98.9956 75.6615C98.9216 74.4477 98.9309 73.2683 98.4492 72.133C97.7211 70.4146 95.8248 69.5752 94.2925 68.7402C92.3188 67.6652 90.6141 66.3441 88.4405 65.6498C86.4261 65.0069 84.2598 64.9496 82.2331 65.5577C78.148 66.7827 75.6657 70.7433 74.7641 74.6932C73.859 78.6593 74.353 83.0085 75.9778 86.7222C77.0617 89.1992 78.859 91.2474 80.9988 92.8722C82.2033 93.7871 83.5365 94.527 84.9046 95.1645C86.2879 95.8083 87.8123 96.1013 89.0985 96.9485C89.2828 97.0701 89.4484 96.778 89.27 96.655Z" fill="#3D423E"/>
<path d="M81.8652 67.24C80.2879 71.3565 81.5614 76.3687 82.4229 80.5273C83.3632 85.0676 84.8425 89.5781 87.612 93.3486C87.661 93.4153 87.7712 93.355 87.7252 93.282C85.285 89.4331 83.762 85.2886 82.806 80.8463C82.3244 78.607 81.9505 76.3378 81.6619 74.0662C81.3748 71.8024 81.312 69.4783 82.0387 67.288C82.0755 67.1763 81.9059 67.1341 81.8652 67.24Z" fill="#3D423E"/>
<path d="M91.0581 93.8755C89.5743 90.1025 88.7869 86.1379 88.2802 82.1268C88.2739 82.0768 88.1955 82.0748 88.1999 82.1268C88.5458 86.1776 89.4092 90.1388 90.9752 93.8985C90.9963 93.948 91.0786 93.9274 91.0581 93.8755Z" fill="#3D423E"/>
<path d="M81.5548 89.9265C82.4927 91.5802 83.9725 92.8616 85.5165 93.9366C85.5699 93.9739 85.6355 93.8886 85.586 93.8465C84.1626 92.6102 82.6617 91.5052 81.6959 89.8441C81.643 89.753 81.5029 89.8348 81.5548 89.9265Z" fill="#3D423E"/>
<path d="M86.5925 67.2087C87.1188 69.6352 87.7518 72.0367 88.2688 74.4656C88.2815 74.5254 88.3849 74.5126 88.3766 74.4509C88.0449 71.9803 87.3985 69.5676 86.7841 67.1563C86.7522 67.0318 86.5655 67.0847 86.5925 67.2087Z" fill="#3D423E"/>
<path d="M92.3406 72.1818C93.0605 75.505 93.5407 78.8086 93.6636 82.2092C93.6661 82.2714 93.7587 82.2714 93.7602 82.2092C93.8425 78.7998 93.3064 75.4428 92.47 72.1465C92.4484 72.0623 92.3225 72.098 92.3406 72.1818Z" fill="#3D423E"/>
<path d="M96.2371 71.3167C96.8996 72.646 97.0236 74.0533 97.1358 75.512C97.1446 75.6238 97.3033 75.6247 97.3102 75.512C97.4023 74.0058 97.1559 72.5372 96.4125 71.2138C96.3483 71.0986 96.1788 71.2 96.2371 71.3167Z" fill="#3D423E"/>
<path d="M78.0225 77.1458C78.0421 78.5379 78.2871 79.88 78.5634 81.2402C78.5742 81.2936 78.6516 81.2701 78.6438 81.2182C78.4399 79.8668 78.2219 78.5153 78.2047 77.1458C78.2033 77.0282 78.021 77.0282 78.0225 77.1458Z" fill="#3D423E"/>
<path d="M77.8473 71.102C77.8492 71.7277 77.8336 72.3569 77.8899 72.9801C77.8973 73.0581 78.0036 73.0581 78.0105 72.9801C78.0673 72.3569 78.0516 71.7277 78.0536 71.102C78.0541 70.9692 77.8468 70.9692 77.8473 71.102Z" fill="#3D423E"/>
<path d="M89.2486 98.5308C88.1991 98.6533 87.4106 99.301 86.5845 99.9121C85.3669 100.813 83.9797 101.524 82.6817 102.302C80.5359 103.588 78.3912 104.91 76.7585 106.836C74.2737 109.768 73.4412 113.806 74.5996 117.467C76.0534 122.061 80.5257 124.601 84.3663 127.003C86.1396 128.112 88.5974 127.817 90.5545 127.556C92.3224 127.321 94.3809 127.042 95.8372 125.915C97.1318 124.914 97.5492 123.244 98.7576 122.141C99.7552 121.231 101.113 120.433 101.244 118.948C101.307 118.245 101.232 117.582 101.063 116.9C100.837 115.987 100.184 115.21 99.8277 114.346C99.2971 113.06 98.7326 111.706 97.6864 110.745C97.5512 110.622 97.3488 110.822 97.4846 110.947C98.3195 111.717 98.8448 112.774 99.3025 113.797C99.8444 115.009 100.661 116.221 100.925 117.521C101.269 119.221 100.508 120.344 99.2505 121.376C98.224 122.218 97.5267 123.036 96.8799 124.195C95.6691 126.365 93.2681 126.872 90.9803 127.217C88.4004 127.607 85.9749 127.727 83.6989 126.273C81.3714 124.786 78.9072 123.383 77.0501 121.3C75.5115 119.574 74.5624 117.382 74.3291 115.087C74.1096 112.935 74.6599 110.774 75.6869 108.889C76.9207 106.625 78.869 105.059 80.9961 103.679C82.3989 102.769 83.8547 101.944 85.285 101.08C86.5296 100.328 87.8129 99.0105 89.2834 98.7875C89.4285 98.7655 89.3947 98.5136 89.2486 98.5308Z" fill="#3D423E"/>
<path d="M90.6859 101.314C87.8277 104.077 86.4969 108.273 84.9867 111.858C83.1609 116.192 81.8811 120.765 81.8252 125.492C81.8242 125.551 81.9124 125.55 81.9159 125.492C82.1819 121.057 83.2281 116.831 84.8622 112.708C85.6452 110.733 86.538 108.791 87.4078 106.852C88.2834 104.898 89.3095 102.993 90.8584 101.487C90.9711 101.377 90.7986 101.205 90.6859 101.314Z" fill="#3D423E"/>
<path d="M87.8875 125.688C91.0564 120.353 92.2618 113.844 92.1442 107.689C92.1427 107.603 92.0172 107.604 92.0128 107.689C91.6845 113.921 90.9731 120.124 87.7763 125.623C87.7346 125.695 87.8454 125.759 87.8875 125.688Z" fill="#3D423E"/>
<path d="M92.5536 101.972C92.5477 102.899 92.533 103.823 92.5962 104.749C92.6011 104.818 92.6987 104.818 92.7036 104.749C92.7668 103.823 92.7521 102.899 92.7467 101.972C92.7457 101.848 92.5541 101.848 92.5536 101.972Z" fill="#3D423E"/>
<path d="M95.9486 117.081C96.0104 118.458 95.7708 119.8 95.5606 121.155C95.5542 121.194 95.6115 121.211 95.6198 121.172C95.9099 119.83 96.1094 118.457 96.0476 117.081C96.0447 117.017 95.9457 117.017 95.9486 117.081Z" fill="#3D423E"/>
<path d="M96.0386 110.302C96.1175 110.901 96.1356 111.545 96.3242 112.121C96.3541 112.213 96.4889 112.197 96.4923 112.099C96.5139 111.494 96.3708 110.865 96.2806 110.269C96.2601 110.132 96.0204 110.165 96.0386 110.302Z" fill="#3D423E"/>
<path d="M87.055 101.247C82.1707 104.752 77.0845 109.332 75.4449 115.35C75.4248 115.423 75.5302 115.449 75.5557 115.381C76.6577 112.432 78.1179 109.861 80.1964 107.484C82.228 105.162 84.6589 103.209 87.1388 101.39C87.224 101.328 87.1427 101.184 87.055 101.247Z" fill="#3D423E"/>
<path d="M98.6636 100.121C102.982 101.171 107.099 102.875 110.912 105.157C114.791 107.479 117.889 110.493 121.082 113.639C121.159 113.716 121.307 113.611 121.237 113.519C118.663 110.105 115.017 107.317 111.411 105.075C107.505 102.647 103.194 100.95 98.7234 99.9039C98.5822 99.8706 98.5225 100.087 98.6636 100.121Z" fill="#3D423E"/>
<path d="M98.7751 97.4936C104.03 97.0996 108.929 98.6657 113.786 100.476C113.848 100.498 113.89 100.397 113.831 100.37C109.119 98.2536 103.976 96.8326 98.7751 97.303C98.6541 97.3143 98.6521 97.5029 98.7751 97.4936Z" fill="#3D423E"/>
<path d="M97.4703 104.06C101.236 110.235 107.21 115.28 113.682 118.452C113.769 118.494 113.841 118.373 113.758 118.322C107.494 114.486 101.674 110.234 97.6301 103.967C97.5659 103.867 97.4081 103.958 97.4703 104.06Z" fill="#3D423E"/>
<path d="M119.447 103.564C120.273 104.058 121.062 104.588 121.843 105.149C121.925 105.208 122.012 105.083 121.947 105.015C121.276 104.31 120.416 103.818 119.589 103.321C119.433 103.227 119.292 103.471 119.447 103.564Z" fill="#3D423E"/>
<path d="M84.4626 94.5975C83.269 94.1624 82.2616 93.2868 81.2179 92.5836C80.0355 91.7874 78.7894 91.0857 77.4767 90.529C75.0439 89.4966 72.5439 89.4765 70.0219 90.1855C68.6944 90.5584 67.4758 91.2949 66.0881 91.4311C65.137 91.5242 64.2149 91.6472 63.2888 91.8971C61.5228 92.3729 59.8338 93.2662 58.6161 94.649C57.3872 96.0459 56.9722 97.9148 57.2921 99.7239C57.7336 102.217 59.9935 103.85 60.6085 106.233C60.9338 107.496 60.7442 108.789 61.2072 110.032C61.5316 110.901 62.2514 111.55 63.0134 112.036C64.8117 113.184 67.2489 113.395 69.3231 113.343C71.0469 113.3 72.7703 112.919 74.2677 112.047C74.327 112.013 74.2751 111.927 74.2148 111.956C71.8961 113.077 69.1893 113.266 66.6649 112.916C63.9865 112.545 61.487 111.358 61.1435 108.413C61.0308 107.445 61.099 106.407 60.703 105.492C60.2292 104.399 59.4437 103.448 58.8018 102.45C57.4244 100.309 56.9242 97.8242 58.2839 95.5452C59.3124 93.8204 61.2842 92.8217 63.1388 92.2573C64.0958 91.9652 65.0915 91.8074 66.0881 91.7393C67.2739 91.6585 68.3407 91.0852 69.4437 90.6961C72.4439 89.6382 75.3599 89.8533 78.2161 91.2062C79.4029 91.7687 80.5118 92.4895 81.603 93.2157C82.4997 93.8115 83.3494 94.5171 84.4136 94.7744C84.5303 94.8023 84.5724 94.6377 84.4626 94.5975Z" fill="#3D423E"/>
<path d="M86.3617 97.9262C78.0915 98.8645 68.7227 99.7519 61.895 105.027C61.8328 105.075 61.9127 105.174 61.9779 105.135C65.6352 102.925 69.3381 101.251 73.4953 100.21C77.7118 99.1546 82.0527 98.6744 86.3617 98.178C86.521 98.1599 86.5229 97.9075 86.3617 97.9262Z" fill="#3D423E"/>
<path d="M60.9368 97.9825C65.0871 95.9711 69.5834 95.6408 74.1119 95.3478C74.2045 95.3419 74.206 95.2052 74.1119 95.2033C69.6103 95.1038 64.8774 95.7437 60.8271 97.7949C60.7021 97.8586 60.8119 98.0433 60.9368 97.9825Z" fill="#3D423E"/>
<path d="M80.5635 95.8742C81.9919 95.9654 83.3918 96.1521 84.8104 96.3309C84.8976 96.3417 84.9064 96.2079 84.83 96.1834C83.4712 95.7439 81.9777 95.7331 80.5635 95.6572C80.4234 95.6498 80.4249 95.8654 80.5635 95.8742Z" fill="#3D423E"/>
<path d="M70.1916 92.1065C73.1189 92.1227 75.9516 92.2182 78.8293 92.8136C78.9205 92.8322 78.9562 92.7033 78.8676 92.6739C76.0873 91.7474 73.0821 91.888 70.1916 91.911C70.0657 91.912 70.0657 92.106 70.1916 92.1065Z" fill="#3D423E"/>
<path d="M69.8754 107.236C71.7031 106.479 73.4901 105.631 75.3433 104.935C75.3717 104.924 75.36 104.879 75.3301 104.889C73.4563 105.525 71.6801 106.403 69.8548 107.161C69.8092 107.18 69.8293 107.255 69.8754 107.236Z" fill="#3D423E"/>
<path d="M99.42 113.659C102.894 117.17 104.912 122.211 106.285 126.874C107.88 132.294 108.551 138.014 108.778 143.645C109.009 149.388 108.676 155.179 107.45 160.804C106.283 166.15 104.196 171.896 99.9012 175.537C99.8203 175.606 99.9365 175.718 100.017 175.653C104.25 172.235 106.251 166.837 107.51 161.713C108.923 155.963 109.238 149.969 109.054 144.07C108.873 138.26 108.168 132.393 106.581 126.793C105.898 124.38 104.958 122.029 103.858 119.778C102.766 117.541 101.428 115.201 99.5185 113.561C99.4509 113.503 99.3563 113.594 99.42 113.659Z" fill="#3D423E"/>
<path d="M105.524 167.326C105.507 165.607 104.863 164.074 104.09 162.567C103.108 160.653 101.995 158.8 100.886 156.957C98.6413 153.229 96.28 149.57 93.9892 145.869C93.9638 145.827 93.8986 145.865 93.9236 145.907C95.9414 149.409 98.1439 152.801 100.249 156.25C101.3 157.97 102.319 159.71 103.297 161.473C104.319 163.314 105.295 165.185 105.418 167.326C105.422 167.393 105.525 167.394 105.524 167.326Z" fill="#3D423E"/>
<path d="M104.453 163.45C102.187 161.72 99.4741 161.251 96.8242 160.403C94.5575 159.679 93.0385 157.847 92.1712 155.703C90.5248 151.631 90.9207 146.915 90.4253 142.623C90.3395 141.881 90.2543 141.139 90.1823 140.395C90.1391 139.948 90.1112 139.499 90.0852 139.051C90.0598 138.616 90.7462 139.272 90.7987 139.309C91.8728 140.074 92.99 140.778 94.1023 141.486C96.3984 142.948 98.6803 144.443 100.603 146.388C102.88 148.692 104.265 151.678 104.586 154.896C104.871 157.762 103.88 160.583 104.286 163.429C104.3 163.525 104.462 163.502 104.455 163.406C104.246 160.553 105.025 157.761 104.816 154.896C104.621 152.231 103.543 149.702 101.939 147.59C98.8827 143.563 94.0116 141.437 90.0215 138.521C89.9657 138.48 89.8819 138.535 89.8843 138.6C90.0098 141.711 90.4679 144.809 90.6566 147.92C90.8006 150.299 91.0133 152.697 91.7228 154.983C92.3363 156.959 93.4613 158.719 95.2253 159.84C96.3376 160.548 97.6499 160.781 98.9023 161.119C100.852 161.644 102.738 162.377 104.408 163.526C104.456 163.558 104.496 163.483 104.453 163.45Z" fill="#3D423E"/>
<path d="M89.857 138.878C90.3499 139.847 91.1589 140.668 91.7689 141.565C91.8062 141.621 91.8865 141.573 91.8576 141.514C91.3784 140.54 90.6145 139.68 89.9716 138.811C89.9216 138.743 89.8173 138.8 89.857 138.878Z" fill="#3D423E"/>
<path d="M94.5887 143.052C98.3887 146.557 101.376 150.76 102.986 155.699C103.001 155.744 103.07 155.726 103.058 155.679C101.794 150.708 98.4298 146.347 94.673 142.967C94.6161 142.917 94.5319 143 94.5887 143.052Z" fill="#3D423E"/>
<path d="M103.24 157.183C103.304 157.612 103.395 158.044 103.521 158.459C103.538 158.518 103.628 158.507 103.628 158.445C103.623 158.002 103.484 157.57 103.416 157.134C103.398 157.017 103.222 157.067 103.24 157.183Z" fill="#3D423E"/>
<path d="M91.817 147.33C93.6437 151.362 95.9849 155.256 98.8279 158.657C98.8573 158.692 98.9181 158.646 98.8916 158.608C96.322 154.953 93.8314 151.325 91.9307 147.264C91.8949 147.186 91.7827 147.254 91.817 147.33Z" fill="#3D423E"/>
<path d="M93.7667 156.218C94.221 156.862 94.7462 157.49 95.4009 157.938C95.4499 157.971 95.5043 157.897 95.4631 157.857C94.9006 157.315 94.3587 156.777 93.9015 156.139C93.8437 156.058 93.7084 156.135 93.7667 156.218Z" fill="#3D423E"/>
<path d="M92.3638 143.255C92.67 143.566 92.9233 143.907 93.1767 144.261C93.209 144.306 93.2928 144.28 93.2722 144.221C93.1223 143.797 92.7979 143.446 92.4872 143.132C92.4079 143.052 92.2849 143.175 92.3638 143.255Z" fill="#3D423E"/>
<path d="M108.625 155.003C109.441 153.746 109.923 152.271 110.59 150.93C111.329 149.448 112.143 148.004 112.989 146.581C114.759 143.6 116.752 140.765 118.734 137.924C118.762 137.884 118.698 137.848 118.669 137.886C116.69 140.546 114.816 143.286 113.093 146.119C112.232 147.534 111.429 148.982 110.669 150.453C109.91 151.924 109.358 153.519 108.525 154.945C108.487 155.01 108.585 155.066 108.625 155.003Z" fill="#3D423E"/>
<path d="M111.253 149.706C111.457 147.714 110.576 145.82 110.753 143.81C110.941 141.669 111.987 139.756 113.378 138.162C114.752 136.589 116.495 135.372 118.211 134.205C119.172 133.551 120.139 132.908 121.09 132.239C121.566 131.904 122.032 131.555 122.495 131.202C122.489 131.207 123.378 130.431 123.32 130.735C122.494 135.035 124.056 139.529 122.902 143.752C122.221 146.239 120.011 148.093 117.474 148.378C116.374 148.501 115.255 148.37 114.151 148.455C113.173 148.531 112.254 148.921 111.322 149.19C111.184 149.23 111.242 149.444 111.381 149.405C112.747 149.031 113.965 148.657 115.405 148.657C116.476 148.657 117.519 148.691 118.566 148.435C120.395 147.99 121.816 146.55 122.672 144.936C123.677 143.039 123.528 140.72 123.398 138.654C123.224 135.859 123.022 133.104 123.553 130.331C123.568 130.253 123.485 130.206 123.425 130.256C119.986 133.119 115.732 135.078 112.836 138.563C111.748 139.873 111.033 141.416 110.701 143.082C110.243 145.372 111.284 147.443 111.124 149.706C111.118 149.79 111.244 149.787 111.253 149.706Z" fill="#3D423E"/>
<path d="M121.37 133.612C121.987 132.942 122.712 132.263 123.142 131.451C123.16 131.417 123.114 131.377 123.087 131.409C122.483 132.114 121.922 132.85 121.301 133.543C121.259 133.589 121.327 133.659 121.37 133.612Z" fill="#3D423E"/>
<path d="M116.635 147.722C118.115 147.162 119 146.006 119.768 144.677C119.786 144.646 119.739 144.619 119.719 144.649C118.893 145.885 118.037 147.05 116.604 147.607C116.533 147.634 116.563 147.75 116.635 147.722Z" fill="#3D423E"/>
<path d="M113.951 147.403C117.338 145.844 119.824 142.869 121.13 139.407C121.146 139.364 121.076 139.334 121.056 139.375C119.479 142.751 117.355 145.686 113.899 147.313C113.838 147.342 113.89 147.431 113.951 147.403Z" fill="#3D423E"/>
<path d="M121.748 137.952C121.922 137.595 122.07 137.223 122.098 136.823C122.101 136.791 122.053 136.787 122.044 136.816C121.936 137.188 121.829 137.55 121.659 137.9C121.63 137.96 121.719 138.011 121.748 137.952Z" fill="#3D423E"/>
<path d="M122.052 144.198C122.406 143.727 122.722 143.238 122.832 142.649C122.838 142.615 122.789 142.6 122.779 142.635C122.61 143.192 122.308 143.681 121.966 144.148C121.928 144.2 122.014 144.249 122.052 144.198Z" fill="#3D423E"/>
<path d="M111.692 144.306C112.58 141.029 114.974 138.719 117.192 136.294C117.218 136.265 117.177 136.223 117.149 136.251C114.82 138.498 112.394 141.05 111.624 144.287C111.613 144.331 111.68 144.349 111.692 144.306Z" fill="#3D423E"/>
<path d="M118.354 135.325C118.9 134.958 119.396 134.504 119.767 133.958C119.785 133.932 119.745 133.902 119.724 133.925C119.283 134.414 118.862 134.883 118.315 135.258C118.273 135.287 118.313 135.354 118.354 135.325Z" fill="#3D423E"/>
<path d="M145.036 54.6793C145.978 55.7108 147.873 56.6673 149.301 56.3512C150.793 56.0209 151.016 54.5367 150.131 53.4538C149.108 52.2019 147.496 51.9912 146.009 52.2352C144.609 52.4645 143.794 53.5749 145.064 54.6509C145.171 54.7411 145.336 54.6284 145.263 54.4975C144.951 53.9478 144.564 53.3676 145.276 52.9531C145.683 52.7159 146.231 52.66 146.687 52.614C147.82 52.4998 148.801 52.8467 149.647 53.6146C150.224 54.1369 150.465 54.8817 149.943 55.5363C149.542 56.0386 148.736 55.9646 148.183 55.8749C147.157 55.7088 146.018 55.1757 145.271 54.4441C145.117 54.2927 144.891 54.5215 145.036 54.6793Z" fill="#3D423E"/>
<path d="M148.902 56.661C150.737 59.284 151.453 62.4357 153.101 65.1542C154.498 67.4596 156.47 68.2965 159.096 68.3671C160.908 68.4156 162.691 68.3504 164.487 68.6675C166.177 68.9654 167.691 69.722 169.427 69.8601C172.296 70.088 174.939 68.4543 176.603 66.2057C178.632 63.4612 179.049 60.5237 179.246 57.199C179.303 56.247 179.433 55.3752 179.76 54.4805C179.98 53.8773 180.18 53.2996 180.264 52.6621C180.346 52.0374 180.034 51.4038 179.543 51.0299C178.109 49.9407 175.948 49.8975 174.228 49.8074C173.28 49.7579 172.33 49.7716 171.381 49.7579C170.118 49.7398 168.949 49.432 167.726 49.1405C165.211 48.5407 163.625 49.9039 161.377 50.71C161.207 50.7707 161.274 51.0128 161.451 50.9795C163.007 50.6879 164.24 49.6006 165.832 49.4036C167.333 49.2184 168.792 50.0112 170.267 50.1558C171.926 50.3184 173.618 50.193 175.285 50.2822C177.158 50.3826 180.403 50.681 179.76 53.307C179.582 54.0317 179.231 54.7103 179.028 55.4306C178.831 56.1362 178.843 56.93 178.799 57.6552C178.684 59.553 178.548 61.3699 177.861 63.1609C176.62 66.3953 173.847 69.2511 170.264 69.522C168.544 69.6524 166.997 69.0105 165.392 68.5298C163.892 68.08 162.263 68.052 160.711 68.0334C159.299 68.0168 157.906 68.0751 156.532 67.6875C154.854 67.2146 153.829 65.773 153.007 64.3344C151.555 61.7923 150.979 58.8141 149.08 56.5243C148.998 56.4258 148.829 56.5561 148.902 56.661Z" fill="#3D423E"/>
<path d="M150.927 56.8672C157.945 60.6657 166.793 62.2141 174.491 59.6269C174.541 59.6103 174.521 59.5333 174.469 59.5471C166.524 61.6443 158.244 60.6319 150.993 56.7541C150.918 56.7139 150.853 56.8266 150.927 56.8672Z" fill="#3D423E"/>
<path d="M156.053 64.2127C158.851 66.7445 162.66 67.3384 166.313 67.308C166.371 67.3075 166.37 67.2227 166.313 67.2193C162.662 66.9993 159.002 66.6671 156.158 64.1083C156.087 64.0451 155.983 64.149 156.053 64.2127Z" fill="#3D423E"/>
<path d="M172.52 67.1713C173.213 67.0925 173.897 67.0836 174.571 66.8862C174.611 66.8744 174.593 66.8176 174.553 66.8244C173.883 66.9386 173.196 66.9494 172.52 67.0292C172.431 67.0395 172.429 67.1816 172.52 67.1713Z" fill="#3D423E"/>
<path d="M160.2 54.8099C165.925 53.2958 171.679 52.427 177.583 52.0321C177.634 52.0286 177.635 51.9517 177.583 51.9517C171.72 51.9375 165.799 53.1483 160.177 54.7271C160.124 54.7423 160.146 54.8241 160.2 54.8099Z" fill="#3D423E"/>
<path d="M154.472 55.7502C155.234 55.7497 155.998 55.7678 156.758 55.7169C156.822 55.7125 156.822 55.6218 156.758 55.6174C155.998 55.5664 155.234 55.5851 154.472 55.5841C154.364 55.5841 154.364 55.7502 154.472 55.7502Z" fill="#3D423E"/>
<path d="M171.459 57.6678C172.952 57.5898 174.464 57.5369 175.95 57.3796C176.051 57.3693 176.053 57.2312 175.95 57.2219C174.462 57.0861 172.944 57.3248 171.459 57.4237C171.303 57.434 171.301 57.6761 171.459 57.6678Z" fill="#3D423E"/>
<path d="M144.099 43.2879C143.484 42.0492 144.238 40.3778 144.638 39.2047C145.107 37.8303 145.798 36.5891 146.607 35.3901C148.137 33.1243 150.067 31.0496 151.964 29.0867C153.767 27.2213 156.883 24.4572 159.722 25.0863C161.572 25.4965 162.04 27.5525 162.658 29.0416C163.14 30.201 163.945 31.0305 164.874 31.8434C166.107 32.9229 166.973 33.9607 167.031 35.6708C167.071 36.8351 166.75 38.0076 166.599 39.1577C166.421 40.5208 166.58 41.8835 166.363 43.2501C166.123 44.7569 165.523 46.1642 164.703 47.4426C163.177 49.822 160.697 51.0838 158.187 52.1779C157.045 52.6753 155.896 53.1614 154.784 53.7205C154.077 54.0752 153.4 54.4393 152.65 54.7024C151.941 54.9513 151.165 54.7691 150.435 54.8769C150.219 54.9087 150.306 55.2556 150.527 55.2091C151.252 55.0567 151.997 55.1297 152.729 54.9901C153.409 54.8607 154.034 54.5157 154.641 54.2002C156.083 53.451 157.609 52.8938 159.102 52.2568C161.907 51.0603 164.193 49.3898 165.637 46.6503C167.128 43.823 166.672 40.8173 167.183 37.7886C167.382 36.6155 167.521 35.4626 167.231 34.2934C166.879 32.8739 165.601 32.0066 164.567 31.0986C163.169 29.8702 162.814 28.2145 162.043 26.6102C161.589 25.667 160.487 24.7781 159.427 24.6811C156.594 24.4234 153.899 26.7734 152.012 28.6031C149.762 30.785 147.585 33.2684 145.886 35.9065C145.089 37.1447 144.589 38.4535 144.094 39.8299C143.792 40.6718 143.255 42.3368 143.821 43.2036C143.86 43.2634 143.898 43.3227 143.937 43.3824C144.004 43.4844 144.153 43.3962 144.099 43.2879Z" fill="#3D423E"/>
<path d="M159.11 26.8628C153.955 34.4745 149.1 43.1901 148.04 52.482C148.033 52.5511 148.147 52.5658 148.161 52.4982C149.132 47.8045 150.41 43.3317 152.406 38.96C154.323 34.7616 156.736 30.8034 159.306 26.9775C159.389 26.8555 159.192 26.7418 159.11 26.8628Z" fill="#3D423E"/>
<path d="M153.37 51.736C157.817 49.1743 161.127 45.0887 164.232 41.0903C164.278 41.032 164.201 40.9487 164.149 41.007C160.758 44.8212 157.79 48.9852 153.287 51.5949C153.196 51.6478 153.278 51.7885 153.37 51.736Z" fill="#3D423E"/>
<path d="M166.314 36.3713C166.229 36.606 166.109 36.8191 165.954 37.0142C165.916 37.0607 165.974 37.121 166.019 37.0803C166.228 36.898 166.38 36.6756 166.476 36.4164C166.515 36.3144 166.35 36.2694 166.314 36.3713Z" fill="#3D423E"/>
<path d="M161.499 30.1095C158.802 32.705 156.824 35.9806 155.323 39.3886C155.296 39.4503 155.384 39.5052 155.417 39.4425C157.135 36.1276 158.932 32.878 161.654 30.2648C161.756 30.1668 161.601 30.0115 161.499 30.1095Z" fill="#3D423E"/>
<path d="M149.618 33.0246C147.354 37.2577 146.191 42.215 146.185 47.0107C146.185 47.0611 146.26 47.0607 146.262 47.0107C146.484 42.1411 147.353 37.3964 149.689 33.0667C149.715 33.0197 149.643 32.9776 149.618 33.0246Z" fill="#3D423E"/>
<path d="M150.132 52.6654C150.36 51.3429 151.163 50.2189 151.808 49.0708C151.831 49.0296 151.772 48.9958 151.746 49.0341C150.995 50.137 150.209 51.2832 149.991 52.6262C149.976 52.7189 150.117 52.759 150.132 52.6654Z" fill="#3D423E"/>
<path d="M146.687 55.8881C143.747 60.1217 139.064 63.9442 139.884 69.6243C140.22 71.9429 141.134 74.096 142.604 75.9222C143.374 76.8772 144.372 77.6064 145.365 78.3105C146.771 79.3067 148.076 80.3033 149.261 81.5607C150.741 83.1321 152.292 83.3374 154.316 82.5892C156.131 81.9184 157.316 80.3161 158.145 78.6452C159.123 76.6744 159.686 74.539 160.772 72.6172C161.631 71.0957 162.122 69.0216 160.126 68.2126C160.058 68.1851 160.002 68.288 160.055 68.3341C162.27 70.248 160.658 72.2002 159.624 74.2651C158.861 75.7904 158.312 77.4123 157.515 78.9215C156.593 80.6654 155.281 81.9708 153.35 82.5162C152.022 82.8915 150.925 82.7146 149.929 81.766C149.119 80.9932 148.428 80.1475 147.549 79.4409C145.707 77.9601 143.682 76.8772 142.278 74.9163C140.96 73.0763 140.239 70.8032 140.102 68.557C139.777 63.241 144.54 60.1908 146.902 56.0135C146.983 55.8719 146.778 55.7578 146.687 55.8881Z" fill="#3D423E"/>
<path d="M147.717 58.0196C145.653 65.0986 147.261 73.4218 150.422 79.95C150.449 80.0054 150.545 79.9657 150.523 79.9074C147.745 73.0259 145.813 65.4147 147.832 58.0515C147.853 57.9765 147.738 57.9451 147.717 58.0196Z" fill="#3D423E"/>
<path d="M149.276 61.2342C150.068 63.941 150.589 66.7237 151.506 69.3942C151.517 69.4265 151.568 69.4128 151.557 69.38C150.732 66.681 150.187 63.9091 149.377 61.2063C149.358 61.1421 149.257 61.1695 149.276 61.2342Z" fill="#3D423E"/>
<path d="M153.032 77.1596C153.192 78.0529 153.285 78.9574 153.468 79.8468C153.475 79.8777 153.519 79.8639 153.515 79.8341C153.385 78.9334 153.288 78.0279 153.135 77.1307C153.123 77.0631 153.02 77.092 153.032 77.1596Z" fill="#3D423E"/>
<path d="M156.658 70.395C157.026 72.2736 156.962 74.1802 157.034 76.0839C157.036 76.15 157.133 76.1495 157.136 76.0839C157.219 74.1543 157.242 72.2418 156.859 70.3396C156.832 70.2073 156.632 70.2632 156.658 70.395Z" fill="#3D423E"/>
<path d="M144.676 60.1135C142.327 63.7493 141.286 68.8855 142.58 73.076C142.599 73.1402 142.696 73.1137 142.68 73.0481C141.654 68.7699 142.44 63.9081 144.831 60.2042C144.894 60.1062 144.739 60.0165 144.676 60.1135Z" fill="#3D423E"/>
<path d="M133.317 53.0546C132.235 51.9266 129.764 52.2583 128.389 52.3377C127.674 52.3793 126.829 52.3431 126.159 52.6542C125.273 53.0663 124.524 53.7455 123.81 54.4006C122.491 55.6099 120.913 57.4773 120.763 59.3432C120.562 61.8437 122.713 63.1549 123.452 65.3477C124.064 67.1651 123.549 69.1868 124.889 70.7617C126.133 72.2229 127.758 73.1014 129.507 73.8227C131.5 74.6454 133.379 75.083 135.513 74.6165C137.594 74.1623 138.885 72.8241 140.385 71.4276C140.495 71.3247 140.33 71.161 140.22 71.2625C138.949 72.4257 137.818 73.5807 136.127 74.1138C134.16 74.7346 132.277 74.5151 130.37 73.8178C128.608 73.174 126.958 72.3596 125.589 71.0581C124.131 69.6734 124.181 67.8442 123.911 66.0013C123.695 64.5274 122.789 63.4039 121.957 62.222C120.385 59.9895 121.378 57.7689 122.929 55.873C124.049 54.505 125.618 52.9228 127.455 52.765C129.013 52.6307 131.923 51.9883 133.241 53.13C133.293 53.1751 133.365 53.105 133.317 53.0546Z" fill="#3D423E"/>
<path d="M126.18 64.9419C131.681 60.2012 138.608 57.663 145.664 56.363C145.712 56.3542 145.701 56.2714 145.651 56.2763C138.694 56.9437 131.248 60.1272 126.087 64.8493C126.024 64.9066 126.116 64.9968 126.18 64.9419Z" fill="#3D423E"/>
<path d="M128.035 57.3857C130.301 56.7761 132.637 56.6649 134.953 56.365C135.008 56.3576 135.011 56.2724 134.953 56.2763C132.606 56.4404 130.268 56.5953 127.988 57.2151C127.878 57.245 127.924 57.4155 128.035 57.3857Z" fill="#3D423E"/>
<path d="M137.519 64.1947C139.557 62.0308 141.925 60.2129 144.129 58.2279C144.17 58.1917 144.112 58.1363 144.071 58.1691C141.747 60.0302 139.485 61.948 137.451 64.1261C137.408 64.1716 137.476 64.2398 137.519 64.1947Z" fill="#3D423E"/>
<path d="M130.019 72.3276C131.572 71.329 132.952 70.0722 134.266 68.781C134.329 68.7193 134.237 68.6335 134.171 68.6865C132.738 69.8345 131.468 71.1536 129.923 72.1635C129.821 72.2301 129.916 72.3943 130.019 72.3276Z" fill="#3D423E"/>
<path d="M122.323 59.3626C122.951 59.2048 123.585 59.0622 124.189 58.8285C124.261 58.8005 124.234 58.6981 124.157 58.7123C123.52 58.8294 122.895 59.0019 122.267 59.1582C122.135 59.1911 122.191 59.3959 122.323 59.3626Z" fill="#3D423E"/>
<path d="M126.645 54.1943C128.021 53.9538 129.392 53.7602 130.788 53.6725C130.848 53.6686 130.848 53.5809 130.788 53.5789C129.378 53.5275 127.983 53.7916 126.601 54.0371C126.498 54.0552 126.542 54.2125 126.645 54.1943Z" fill="#3D423E"/>
<path d="M136.311 72.1331C137.075 71.453 137.805 70.742 138.584 70.078C138.631 70.0383 138.571 69.9634 138.52 69.9942C137.639 70.5225 136.961 71.3452 136.208 72.0307C136.139 72.0939 136.241 72.1948 136.311 72.1331Z" fill="#3D423E"/>
<path d="M145.249 54.4862C139.993 54.2334 134.633 53.787 129.898 51.2699C125.796 49.0894 123.612 44.5623 122.268 40.2801C121.711 38.5078 121.303 36.2166 122.684 34.7118C123.464 33.8621 124.717 33.6054 125.81 33.4922C127.714 33.2957 129.681 33.4525 131.591 33.474C133.253 33.4922 134.988 33.2594 136.604 33.7205C138.314 34.2081 139.415 35.681 140.287 37.1304C141.104 38.4897 141.611 40.0851 142.619 41.3234C143.963 42.9761 144.69 44.7975 144.825 46.9133C144.954 48.9345 144.94 50.7152 146.228 52.4023C146.296 52.4895 146.444 52.4111 146.381 52.3131C144.546 49.5034 145.632 46.0695 144.094 43.1809C143.314 41.7158 142.402 40.3483 141.668 38.8479C140.961 37.3999 140.243 35.9628 139.118 34.7907C137.093 32.6807 134.248 33.086 131.591 33.0546C128.943 33.0232 125.682 32.4931 123.233 33.7823C119.948 35.5115 121.759 40.2718 122.83 42.7831C123.617 44.6264 124.471 46.6168 125.651 48.2451C126.993 50.0988 129.024 51.3581 131.077 52.2837C135.355 54.2113 140.572 55.0301 145.249 54.8346C145.474 54.8253 145.474 54.497 145.249 54.4862Z" fill="#3D423E"/>
<path d="M125.256 38.1441C129.841 44.9144 136.895 50.7234 144.654 53.4439C144.723 53.4684 144.773 53.3537 144.704 53.3238C137.063 50.0178 130.177 44.9482 125.377 38.0735C125.326 38.001 125.206 38.0691 125.256 38.1441Z" fill="#3D423E"/>
<path d="M129.201 35.8824C132.824 38.4132 135.754 41.4718 138.735 44.6994C138.796 44.7651 138.917 44.6749 138.861 44.6014C136.229 41.1484 132.828 38.2265 129.272 35.7623C129.197 35.7109 129.129 35.8314 129.201 35.8824Z" fill="#3D423E"/>
<path d="M142.154 48.7928C142.642 49.2015 143.115 49.6268 143.575 50.0673C143.614 50.105 143.686 50.0551 143.653 50.007C143.285 49.472 142.784 49.0697 142.289 48.6586C142.195 48.5807 142.06 48.7139 142.154 48.7928Z" fill="#3D423E"/>
<path d="M138.249 37.9162C139.855 39.7503 140.965 41.873 141.937 44.0937C141.958 44.1407 142.038 44.1069 142.02 44.0584C141.181 41.7534 139.994 39.644 138.354 37.8119C138.29 37.7408 138.187 37.8452 138.249 37.9162Z" fill="#3D423E"/>
<path d="M129.608 48.2978C131.216 49.5253 133.079 50.372 134.941 51.1388C134.99 51.1594 135.024 51.0766 134.977 51.0536C133.165 50.1569 131.302 49.4082 129.681 48.1729C129.607 48.116 129.535 48.242 129.608 48.2978Z" fill="#3D423E"/>
<path d="M123.084 35.0697C123.267 35.4284 123.479 35.7694 123.708 36.1002C123.748 36.158 123.854 36.1242 123.828 36.0497C123.694 35.6616 123.487 35.3069 123.303 34.9408C123.23 34.7943 123.009 34.9237 123.084 35.0697Z" fill="#3D423E"/>
<path d="M140.201 71.2859C136.718 76.6298 135.037 82.9146 134.178 89.1807C133.333 95.338 133.674 101.523 133.665 107.715C133.649 119.668 132.976 131.91 128.691 143.194C126.515 148.922 123.311 154.214 119.236 158.789C114.798 163.772 109.211 167.563 104.122 171.831C99.0232 176.107 94.2452 180.785 90.5001 186.315C86.5051 192.214 83.9512 198.998 82.2887 205.892C81.1582 210.577 80.4399 215.418 80.1199 220.225C80.1101 220.379 80.3355 220.371 80.3537 220.225C81.2695 212.829 82.4318 205.522 84.9386 198.471C87.4038 191.54 91.2018 185.304 96.1767 179.894C100.772 174.897 106.145 170.682 111.439 166.462C116.352 162.546 120.737 158.286 124.187 153.001C130.548 143.257 132.877 131.603 133.674 120.159C134.101 114.045 134.091 107.907 134.018 101.781C133.94 95.1827 134.248 88.7103 135.905 82.2859C136.886 78.484 138.354 74.76 140.403 71.4035C140.482 71.2741 140.283 71.1604 140.201 71.2859Z" fill="#3D423E"/>
<path d="M91.122 186.129C94.0723 184.259 97.8757 183.804 101.272 183.373C104.985 182.903 108.682 182.952 112.414 182.955C112.481 182.955 112.478 182.859 112.414 182.853C108.582 182.486 104.594 182.709 100.786 183.235C97.5023 183.688 93.8837 184.156 91.075 186.049C91.0255 186.082 91.0711 186.161 91.122 186.129Z" fill="#3D423E"/>
<path d="M94.5421 184.545C96.6927 183.648 98.5547 182.289 100.405 180.894C102.613 179.23 104.774 177.937 107.526 177.402C109.078 177.1 110.303 177.332 111.616 178.187C112.613 178.835 113.518 179.564 114.591 180.092C115.568 180.573 116.628 180.883 117.659 181.224C118.061 181.356 118.852 181.348 118.237 181.666C117.888 181.848 117.602 182.152 117.345 182.442C116.817 183.037 116.497 183.818 116.151 184.523C115.633 185.58 114.975 186.431 114.009 187.115C112.123 188.45 109.595 188.608 107.365 188.541C105.093 188.473 102.912 188.033 101.006 186.745C100.062 186.107 99.3632 185.307 98.3048 184.838C97.3924 184.433 96.2933 184.283 95.3045 184.193C95.1467 184.178 95.11 184.446 95.2668 184.47C96.6074 184.667 97.9456 184.888 99.1103 185.62C100.238 186.329 101.074 187.26 102.303 187.845C104.254 188.774 106.58 188.894 108.705 188.846C110.665 188.803 112.875 188.41 114.445 187.149C115.318 186.449 115.882 185.649 116.375 184.655C116.989 183.414 117.511 182.175 118.898 181.634C119.012 181.59 119.016 181.441 118.898 181.398C117.746 180.978 116.57 180.625 115.422 180.192C114.167 179.718 113.106 178.975 112.017 178.211C110.273 176.987 108.734 176.924 106.695 177.38C101.973 178.433 98.8061 182.488 94.5029 184.453C94.4514 184.476 94.4896 184.568 94.5421 184.545Z" fill="#3D423E"/>
<path d="M115.59 182.132C116.057 181.98 116.508 181.856 116.995 181.782C117.559 181.696 118.172 181.71 118.718 181.533C118.781 181.512 118.772 181.412 118.702 181.414C118.186 181.43 117.66 181.525 117.148 181.596C116.609 181.672 116.016 181.735 115.555 182.048C115.514 182.076 115.538 182.148 115.59 182.132Z" fill="#3D423E"/>
<path d="M102.58 185.686C105.639 186.639 108.732 187.139 111.849 186.155C111.882 186.145 111.869 186.095 111.835 186.104C108.683 186.92 105.682 186.522 102.606 185.593C102.546 185.574 102.521 185.668 102.58 185.686Z" fill="#3D423E"/>
<path d="M113.386 185.257C113.669 185.195 113.943 185.091 114.186 184.933C114.215 184.914 114.197 184.859 114.16 184.873C113.891 184.97 113.642 185.101 113.36 185.164C113.299 185.178 113.325 185.27 113.386 185.257Z" fill="#3D423E"/>
<path d="M99.4288 182.368C101.609 180.906 104.219 180.786 106.758 180.643C106.791 180.641 106.791 180.591 106.758 180.591C104.236 180.591 101.516 180.815 99.3871 182.296C99.344 182.326 99.3842 182.398 99.4288 182.368Z" fill="#3D423E"/>
<path d="M107.554 179.248C109.103 179.213 110.602 179.45 112.082 179.899C112.104 179.905 112.112 179.872 112.091 179.865C110.607 179.361 109.121 179.126 107.554 179.169C107.503 179.17 107.503 179.249 107.554 179.248Z" fill="#3D423E"/>
<path d="M81.3421 211.895C81.2377 209.539 80.1357 207.395 79.1572 205.297C77.8744 202.548 76.5406 199.83 75.1162 197.151C72.2791 191.815 69.1793 186.62 65.9782 181.496C65.9522 181.454 65.8865 181.491 65.912 181.534C68.8344 186.467 71.7974 191.378 74.5331 196.417C75.8571 198.856 77.1173 201.328 78.309 203.833C79.5232 206.386 81.0251 209.031 81.2549 211.895C81.2593 211.95 81.3446 211.952 81.3421 211.895Z" fill="#3D423E"/>
<path d="M80.3367 207.863C78.2268 206.396 76.4976 204.354 73.9898 203.551C72.6883 203.134 71.2683 203.213 69.9228 203.092C68.1715 202.934 66.4492 202.57 64.8273 201.885C58.2529 199.107 56.5355 190.954 57.096 184.569C57.3915 181.198 59.0453 178.005 58.9639 174.616C58.9576 174.337 58.9095 174.067 58.8689 173.793C58.8385 173.589 59.7386 174.104 59.7631 174.115C60.5324 174.497 61.3189 174.842 62.1097 175.178C63.7057 175.855 65.3334 176.456 66.9416 177.104C70.2359 178.432 73.4562 179.962 75.667 182.839C77.5976 185.352 78.7119 188.562 79.4038 191.619C80.0525 194.486 80.249 197.453 80.2103 200.386C80.1795 202.771 79.2837 205.645 80.2196 207.921C80.2686 208.04 80.4656 207.991 80.4176 207.867C79.7527 206.139 80.2534 204.227 80.3799 202.445C80.5283 200.355 80.4945 198.254 80.3314 196.166C80.0369 192.405 79.1039 188.739 77.4536 185.343C75.9341 182.216 73.6066 180.077 70.5519 178.488C66.7314 176.5 62.5262 175.387 58.7322 173.335C58.6449 173.287 58.5499 173.365 58.5705 173.459C59.1134 175.934 58.1883 178.353 57.5434 180.716C57 182.705 56.7952 184.79 56.7614 186.847C56.6942 190.928 57.7223 195.034 60.1532 198.352C62.4307 201.461 65.8381 202.81 69.5592 203.233C71.8323 203.491 73.9124 203.381 75.937 204.627C77.4928 205.585 78.7447 206.959 80.3005 207.925C80.3402 207.95 80.3745 207.889 80.3367 207.863Z" fill="#3D423E"/>
<path d="M58.6844 173.566C59.9545 175.151 61.0187 176.823 62.0698 178.557C62.0987 178.604 62.1673 178.563 62.1438 178.514C61.2735 176.704 60.1519 174.941 58.7917 173.459C58.7241 173.385 58.6246 173.492 58.6844 173.566Z" fill="#3D423E"/>
<path d="M58.9209 179.576C58.9547 188.589 65.0204 196.775 72.9226 200.75C72.9795 200.779 73.0285 200.698 72.9731 200.664C69.1746 198.389 65.7976 195.705 63.2055 192.076C60.5893 188.415 59.1654 184.065 59.0449 179.576C59.0429 179.496 58.9209 179.496 58.9209 179.576Z" fill="#3D423E"/>
<path d="M67.0354 190.817C68.6975 192.583 70.0322 194.596 71.5169 196.503C71.539 196.531 71.5865 196.494 71.5664 196.465C70.1817 194.486 68.7666 192.507 67.1006 190.752C67.0594 190.709 66.9947 190.774 67.0354 190.817Z" fill="#3D423E"/>
<path d="M60.2191 193.815C61.6244 196.28 63.877 198.066 66.1917 199.636C66.2319 199.664 66.2657 199.601 66.2294 199.573C64.0127 197.864 61.7543 196.221 60.3196 193.757C60.2818 193.692 60.1819 193.75 60.2191 193.815Z" fill="#3D423E"/>
<path d="M60.3778 179.596C60.9134 181.214 61.8703 182.644 62.6788 184.132C62.7082 184.186 62.7837 184.139 62.7597 184.085C62.0703 182.542 61.0628 181.171 60.5287 179.555C60.4969 179.46 60.3464 179.501 60.3778 179.596Z" fill="#3D423E"/>
<path d="M67.7652 179.552C71.0903 182.934 74.0573 186.527 76.1648 190.802C76.1844 190.842 76.2417 190.807 76.2241 190.767C74.2984 186.421 71.1869 182.795 67.8407 179.477C67.7917 179.428 67.7167 179.503 67.7652 179.552Z" fill="#3D423E"/>
<path d="M78.048 196.494C78.4209 198.285 78.8163 200.071 79.1103 201.878C79.1152 201.905 79.1618 201.898 79.1589 201.871C78.9423 200.048 78.5155 198.263 78.1382 196.469C78.1254 196.41 78.0358 196.435 78.048 196.494Z" fill="#3D423E"/>
<path d="M74.9222 183.604C76.1443 185.067 76.7872 186.802 77.383 188.59C77.3982 188.635 77.4683 188.616 77.4555 188.57C76.9489 186.72 76.2673 184.989 75.0163 183.51C74.9609 183.444 74.8678 183.539 74.9222 183.604Z" fill="#3D423E"/>
<path d="M133.86 109.553C133.448 107.878 135.56 105.689 136.509 104.463C137.793 102.805 139.25 101.285 140.754 99.8287C143.78 96.8999 147.147 94.3701 150.339 91.6319C150.378 91.5991 150.325 91.53 150.284 91.5614C146.613 94.3764 142.981 97.2954 139.705 100.567C138.119 102.149 136.659 103.855 135.359 105.679C134.599 106.745 133.3 108.166 133.761 109.581C133.781 109.643 133.876 109.618 133.86 109.553Z" fill="#3D423E"/>
<path d="M136.642 104.291C139.179 99.7892 139.368 94.1959 143.363 90.5596C147.169 87.0953 152.398 87.7906 156.759 85.612C157.238 85.3724 157.714 85.0721 158.131 84.7354C157.944 84.8859 157.762 85.7826 157.677 86.0349C157.21 87.4216 156.933 88.8725 156.612 90.2974C155.973 93.1223 155.064 95.4782 152.931 97.5058C150.928 99.4095 148.56 100.81 145.859 101.423C143.095 102.051 140.236 101.894 137.538 102.85C137.41 102.895 137.463 103.098 137.595 103.055C140.183 102.215 142.92 102.258 145.575 101.756C148.031 101.291 150.075 100.127 152.013 98.5877C153.697 97.251 155.07 95.6414 155.878 93.6368C157.069 90.6767 157.186 87.404 158.467 84.4581C158.506 84.3665 158.409 84.289 158.33 84.3527C154.155 87.7225 148.199 86.5533 143.938 89.8628C139.348 93.4275 139.069 99.3761 136.531 104.227C136.494 104.3 136.601 104.363 136.642 104.291Z" fill="#3D423E"/>
<path d="M152.85 89.8154C153.99 88.8972 155.282 88.0764 156.213 86.9318C156.244 86.894 156.195 86.8426 156.159 86.8774C155.094 87.9162 153.921 88.7947 152.785 89.7512C152.74 89.7894 152.804 89.8512 152.85 89.8154Z" fill="#3D423E"/>
<path d="M144.376 100.053C148.035 98.6911 150.757 95.4624 153.21 92.5651C153.24 92.5298 153.192 92.4803 153.16 92.5141C150.515 95.2689 148.023 98.5396 144.354 99.9714C144.304 99.991 144.325 100.072 144.376 100.053Z" fill="#3D423E"/>
<path d="M139.986 98.1313C141.164 96.4506 142.498 94.91 143.835 93.3572C143.86 93.3283 143.82 93.2871 143.793 93.315C142.361 94.787 141.07 96.3918 139.925 98.096C139.899 98.1337 139.96 98.168 139.986 98.1313Z" fill="#3D423E"/>
<path d="M144.693 90.9072C145.825 89.9395 147.123 89.2358 148.419 88.5155C148.443 88.5018 148.421 88.4665 148.397 88.4783C147.063 89.1393 145.774 89.8802 144.65 90.8641C144.62 90.8901 144.663 90.9327 144.693 90.9072Z" fill="#3D423E"/>
<path d="M148.119 91.0388C149.003 90.5953 149.858 90.0994 150.685 89.5585C150.71 89.5423 150.688 89.5036 150.662 89.5183C149.806 90.0117 148.964 90.5282 148.084 90.978C148.043 90.9986 148.079 91.0594 148.119 91.0388Z" fill="#3D423E"/>
<path d="M142.116 100.991C142.413 100.931 142.708 100.865 142.978 100.722C143.021 100.699 142.991 100.633 142.945 100.645C142.657 100.72 142.375 100.81 142.082 100.87C142.003 100.886 142.037 101.007 142.116 100.991Z" fill="#3D423E"/>
</g>
</svg>
