<svg width="314" height="557" viewBox="0 0 314 557" fill="none" xmlns="http://www.w3.org/2000/svg">
<path fill-rule="evenodd" clip-rule="evenodd" d="M153.922 428.533C186.314 427.026 210.529 438.766 223.054 453.106C239.381 471.799 256.198 494.679 224.726 509.598C187.069 527.449 126.743 531.847 87.739 517.252C54.3662 504.765 75.014 479.745 90.2751 459.287C101.488 444.257 122.163 430.012 153.922 428.533Z" fill="#F0E1CE"/>
<path fill-rule="evenodd" clip-rule="evenodd" d="M162.423 260.749C129.322 263.047 104.167 249.792 90.8907 233.314C73.5856 211.837 55.6437 185.495 87.3736 167.605C125.339 146.2 186.933 140.07 227.314 156.399C261.865 170.37 241.535 199.831 226.572 223.893C215.578 241.572 194.875 258.495 162.423 260.749Z" fill="#F0E1CE"/>
<path fill-rule="evenodd" clip-rule="evenodd" d="M171.9 340.436C170.749 384.042 168.13 415.852 165.646 431.801C162.407 452.589 158.576 473.781 157.856 430.59C156.994 378.911 158.921 297.603 162.55 246.1C165.654 202.033 168.208 231.301 170.364 253.054C171.949 269.036 173.029 297.682 171.9 340.436Z" fill="#F0E1CE"/>
<path d="M236.16 52.0915C236.03 56.7839 230.241 58.8086 225.601 59.5275C191.562 64.7998 156.995 66.6602 122.587 65.0736C110.943 64.5359 99.1081 63.5586 88.2756 59.2537C86.0333 58.3621 83.4189 56.4357 84.2024 54.1541C84.5703 53.0814 85.6037 52.4018 86.5949 51.8542C94.7751 47.3429 104.393 46.4204 113.709 45.7423C150.136 43.09 186.992 42.7825 222.931 49.296C225.432 49.7495 228.035 50.2844 230.026 51.8654C232.017 53.4464 233.154 56.4076 231.883 58.6092C231.065 60.0302 229.485 60.8108 227.962 61.4188C220.807 64.2775 213.021 65.0989 205.342 65.7448C190.342 67.007 175.312 67.9744 160.263 68.4083C146.341 68.8099 132.403 68.7551 118.491 68.0461C105.515 67.3847 93.0509 66.9214 80.3187 63.6766C74.5775 62.2149 68.7575 60.2955 64.2729 56.4259C62.3128 54.7354 60.5423 52.3274 60.986 49.7762C61.3398 47.7445 63.0092 46.2112 64.7124 45.0472C69.7643 41.5904 75.8271 39.9729 81.8113 38.6896C95.5235 35.748 109.109 35.1373 123.013 34.1123C149.645 32.148 176.431 31.738 203.069 33.8329C229.614 35.9207 255.972 40.5359 281.489 48.1938C289.7 50.6579 306.273 54.6624 311.085 46.9203C313.654 41.8122 313.192 39.3677 312.264 34.7989C311.014 28.6434 306.957 22.8095 301.203 20.2892C298.357 19.0437 295.21 18.711 292.12 18.3993C228.327 11.9798 159.381 6.72714 95.9882 16.3212C90.9462 17.085 78.2575 20.2807 79.6223 25.195C80.886 29.7442 105.839 23.6673 128.264 23.555C201.44 23.1872 223.497 28.7585 258.811 34.2934C269.68 35.9966 283.785 41.5315 294.773 42.0538C297.339 42.1745 300.047 42.1914 302.292 40.9445C306.687 38.5043 307.337 31.9992 304.827 27.6437C302.315 23.2897 297.628 20.6935 293.006 18.7166C278.35 12.4488 258.006 8.17478 242.154 6.50392C190.198 1.02662 132.949 -2.22666 74.0804 5.89452C57.0826 7.79845 40.3207 11.7888 24.289 17.7506C18.5856 19.8707 12.8612 22.3096 8.31059 26.3478C3.75997 30.3873 0.508114 36.3153 1.06132 42.3753C1.35056 45.5499 3.23625 49.0503 6.40666 49.3858C8.71356 49.6302 10.7874 48.132 12.7615 46.9147C17.1717 44.1921 22.2531 42.5662 27.4243 42.2236C29.8899 42.0593 32.4874 42.2152 34.6202 43.462C36.753 44.7103 37.1939 48.1096 37.1939 52.6798C34.0572 174.978 35.5595 340.607 35.5595 433.102C35.5595 478.094 39.7802 509.092 30.846 509.092C26.0314 509.603 24.15 503.048 24.0615 498.206C21.9119 381.477 25.4951 264.748 23.3469 148.018L23.1784 137.912C23.1784 113.652 24.5347 88.7379 23.7639 64.0571C23.6249 59.5724 23.5659 54.6146 26.485 51.2083C29.4041 47.8006 33.9673 48.2429 34.6356 52.6798C35.3082 57.1462 31.9679 59.5991 27.4524 59.6946C22.3837 59.8041 17.2953 58.9869 12.5144 57.2964C10.4869 56.5789 8.40605 55.6186 7.20416 53.8354C5.51786 51.3305 6.09214 47.8147 7.81354 45.3309C9.53354 42.8485 12.1788 41.186 14.7932 39.6738C30.1103 30.8141 47.028 24.7317 64.4793 21.8098" stroke="#3D423E" stroke-miterlimit="10" stroke-linecap="round" stroke-linejoin="round"/>
<path d="M170.034 276.636C176.614 290.83 189.183 301.13 200.637 311.786C223.184 332.76 242.959 357.237 255.333 385.437C267.706 413.635 272.303 445.802 264.717 475.647C262.145 485.767 257.816 496.068 249.397 502.244C229.747 515.751 190.751 520.578 170.399 520.738C150.047 520.897 132.545 518.754 112.984 513.139C105.543 511.005 93.6074 505.726 91.0253 499.507M197.06 511.623C204.194 510.352 210.726 509.289 216.407 504.789C218.499 503.131 220.295 500.716 220.132 498.051C219.969 495.41 217.974 493.294 216.096 491.428L165.354 440.995C162.842 438.498 159.704 435.797 156.231 436.484C153.934 436.938 152.208 438.782 150.609 440.495C131.793 460.643 107.543 475.671 81.1251 483.555C78.6498 484.295 76.0803 485.01 74.0682 486.63C72.0562 488.25 70.7434 491.056 71.6757 493.465C73.3297 497.736 79.568 497.133 83.7873 495.351C107.301 485.421 123.869 464.148 144.897 449.679C149.182 446.73 153.813 444.005 158.956 443.229C171.573 441.328 182.516 451.231 191.932 459.842C201.977 469.029 212.621 477.56 223.774 485.365C229.477 489.357 235.864 493.316 242.815 492.899C244.484 492.8 246.349 492.291 247.128 490.812C248.253 488.674 246.417 486.213 244.641 484.576C225.344 466.791 197.932 460.007 178.338 442.548C172.46 437.312 167.312 431.055 164.438 423.727C161.12 415.269 161.009 405.946 160.941 396.86C160.641 355.898 161.172 312.468 161.172 270.677C161.172 258.284 162.981 245.831 173.001 238.598C181.673 232.339 193.575 229.265 198.333 219.687C198.835 218.677 199.243 217.509 198.878 216.443C197.939 213.697 193.83 214.695 191.352 216.205C186.299 219.281 181.246 222.357 176.192 225.434C169.86 229.289 162.34 233.281 155.404 230.664C152.018 229.388 149.376 226.689 147.108 223.868C140.933 216.189 136.708 207.099 130.596 199.368C124.484 191.639 103.777 174.74 94.5 177.579M83.126 177.736C93.4515 172.499 105.836 174.981 117.117 177.579C136.908 182.136 197.831 213.328 220.573 201.855C239.612 192.251 245.765 179.73 247.944 165.967C253.504 130.837 232.409 126.487 232.325 104.652C232.298 97.6964 232.649 90.6788 234.796 84.0614C235.978 80.4206 238.914 76.1972 242.587 77.2769C243.972 77.6841 245.023 78.7961 245.922 79.925C251.787 87.2992 258.811 108.596 258.559 134.122C258.442 145.834 257.701 157.855 254.203 169.032C248.493 187.284 237.619 201.751 222.923 213.986C208.225 226.223 184.593 234.243 172.368 250.848C167.069 258.046 168.744 263.393 169.259 267.313C174.314 241.871 219.3 235.132 244.235 202.613C254.627 189.063 262.331 173.995 264.996 157.128C265.197 155.853 265.388 154.584 265.566 153.322" stroke="#3D423E" stroke-miterlimit="10" stroke-linecap="round" stroke-linejoin="round"/>
<path d="M268.853 61.5494C260.939 65.5397 252.52 68.529 243.861 70.4203C242.059 70.8135 239.372 70.4709 239.461 68.6287C239.493 67.9393 239.986 67.3538 240.54 66.9438C242.434 65.5496 245.146 65.7138 247.238 66.7894C249.33 67.8649 250.919 69.7014 252.351 71.5675C267.329 91.0855 269.805 125.53 265.567 153.321" stroke="#3D423E" stroke-miterlimit="10" stroke-linecap="round" stroke-linejoin="round"/>
<path d="M46.4246 61.5493C54.338 65.5397 62.7582 68.529 71.4172 70.4203C73.2186 70.8134 75.906 70.4708 75.8175 68.6287C75.7852 67.9393 75.2924 67.3537 74.7378 66.9438C72.8437 65.5495 70.1324 65.7138 68.0403 66.7893C65.9483 67.8648 64.3589 69.7014 62.9267 71.5674C47.9494 91.0855 45.5035 118.327 48.6627 142.716C50.9373 162.924 57.9886 182.721 68.4096 198.187C71.309 202.489 74.6564 206.475 78.2115 210.255C92.0206 224.938 108.868 236.45 126.343 246.497C130.073 248.641 133.875 250.752 137.042 253.661C142.329 258.518 145.562 265.542 145.814 272.717C144.638 286.143 129.019 298.391 119.539 307.107C101.008 324.146 83.5175 342.577 69.926 363.766C56.336 384.956 46.7349 409.102 44.998 434.215C43.2626 459.329 49.0418 494.017 67.8241 506.471C76.382 512.19 86.0645 516.219 96.1542 518.261C99.5731 518.952 103.113 519.416 106.539 518.763C106.904 518.695 107.297 518.594 107.524 518.299C108.054 517.611 107.248 516.685 106.488 516.264C101.89 513.714 96.275 514.207 91.0518 514.8C69.985 517.188 48.1684 519.963 27.968 513.526C21.9515 511.61 16.0923 508.877 9.8006 508.352C9.13226 508.296 8.43162 508.272 7.82506 508.559C6.7692 509.056 6.33674 510.311 6.07979 511.45C4.56199 518.189 5.51395 525.21 6.47153 532.05C6.72848 533.885 7.00929 535.786 8.02585 537.337C9.25863 539.217 11.3802 540.289 13.4315 541.209C23.0298 545.513 33.295 548.324 43.7456 549.51C112.225 560.507 193.186 555.813 262.032 551.102C275.663 550.17 286.585 549.222 299.789 545.708C303.973 544.594 308.6 542.763 310.13 538.711C310.878 536.727 311.894 534.715 311.894 532.421C311.894 527.882 313.295 516.065 309.105 514.32C306.75 513.338 300.909 516.509 298.204 517.331M235.566 539.927C246.162 539.235 256.765 538.541 267.29 537.141C276.598 535.903 286.087 534.016 294.017 528.989C296.429 527.46 298.74 525.566 299.97 522.99C301.202 520.415 301.095 517.031 299.086 515.002C296.075 511.961 291.058 513.331 286.801 513.776C282.251 514.251 281.033 516.111 277.428 513.293C273.823 510.475 274.942 502.243 274.942 495.786C278.079 373.488 276.577 221.194 276.577 128.698C276.577 83.7071 272.355 52.7078 281.289 52.7078C286.105 52.1981 287.985 58.7538 288.073 63.5951C290.223 180.323 286.64 387.679 288.788 504.408" stroke="#3D423E" stroke-miterlimit="10" stroke-linecap="round" stroke-linejoin="round"/>
</svg>
