<svg width="211" height="81" viewBox="0 0 211 81" fill="none" xmlns="http://www.w3.org/2000/svg">
<g filter="url(#filter0_b_1750_33849)">
<path d="M37 81L25.7417 62.25H48.2583L37 81Z" fill="#FDFCFB" fill-opacity="0.8"/>
</g>
<g filter="url(#filter1_b_1750_33849)">
<rect width="211" height="65" rx="12" fill="#FDFCFB" fill-opacity="0.8"/>
<path d="M23.8618 23.0068C23.8618 22.7965 23.9476 22.6112 24.1191 22.4507L29.6143 16.9639C29.7028 16.8753 29.7913 16.8117 29.8799 16.7729C29.974 16.7342 30.0708 16.7148 30.1704 16.7148C30.3752 16.7148 30.5467 16.784 30.6851 16.9224C30.8289 17.0552 30.9009 17.224 30.9009 17.4287C30.9009 17.5283 30.8815 17.6252 30.8428 17.7192C30.8096 17.8078 30.7598 17.8853 30.6934 17.9517L28.834 19.8442L25.5469 22.8491L25.3726 22.4341L28.0454 22.2681H38.5459C38.7617 22.2681 38.936 22.3372 39.0688 22.4756C39.2072 22.6139 39.2764 22.791 39.2764 23.0068C39.2764 23.2227 39.2072 23.3997 39.0688 23.5381C38.936 23.6764 38.7617 23.7456 38.5459 23.7456H28.0454L25.3726 23.5796L25.5469 23.1729L28.834 26.1694L30.6934 28.062C30.7598 28.1284 30.8096 28.2087 30.8428 28.3027C30.8815 28.3913 30.9009 28.4854 30.9009 28.585C30.9009 28.7897 30.8289 28.9585 30.6851 29.0913C30.5467 29.2297 30.3752 29.2988 30.1704 29.2988C29.9712 29.2988 29.7913 29.2214 29.6309 29.0664L24.1191 23.563C23.9476 23.4025 23.8618 23.2171 23.8618 23.0068ZM51.6362 29.2822C50.7619 29.2822 49.9982 29.1411 49.3452 28.8589C48.6978 28.5711 48.1831 28.1782 47.8013 27.6802C47.425 27.1766 47.2064 26.6011 47.1455 25.9536L47.1372 25.8623H48.6313L48.6396 25.9536C48.6784 26.3521 48.8306 26.6979 49.0962 26.9912C49.3674 27.279 49.7271 27.5031 50.1753 27.6636C50.6291 27.8241 51.1437 27.9043 51.7192 27.9043C52.2616 27.9043 52.743 27.8185 53.1636 27.647C53.5897 27.4699 53.9245 27.2264 54.168 26.9165C54.4115 26.6066 54.5332 26.2497 54.5332 25.8457V25.8374C54.5332 25.3394 54.3506 24.9215 53.9854 24.584C53.6201 24.2409 53.0252 23.978 52.2007 23.7954L50.8726 23.5049C49.6717 23.2393 48.7974 22.8298 48.2495 22.2764C47.7072 21.7174 47.436 21.0036 47.436 20.1348V20.1265C47.4416 19.4624 47.6214 18.8758 47.9756 18.3667C48.3353 17.8576 48.8306 17.4591 49.4614 17.1714C50.0978 16.8836 50.8283 16.7397 51.6528 16.7397C52.4497 16.7397 53.1553 16.8836 53.7695 17.1714C54.3838 17.4536 54.8708 17.8354 55.2305 18.3169C55.5957 18.7983 55.7977 19.3379 55.8364 19.9355L55.8447 20.0518H54.3506L54.334 19.9438C54.2786 19.5897 54.1348 19.277 53.9023 19.0059C53.6699 18.7292 53.36 18.5106 52.9727 18.3501C52.5853 18.1896 52.1315 18.1121 51.6113 18.1177C51.1133 18.1177 50.665 18.1951 50.2666 18.3501C49.8682 18.505 49.55 18.7292 49.312 19.0225C49.0796 19.3102 48.9634 19.6644 48.9634 20.085V20.0933C48.9634 20.5692 49.1405 20.9704 49.4946 21.2969C49.8488 21.6234 50.4326 21.8752 51.2461 22.0522L52.5742 22.3511C53.4098 22.5337 54.0822 22.7716 54.5913 23.0649C55.1004 23.3582 55.4712 23.7179 55.7036 24.144C55.9416 24.5646 56.0605 25.0627 56.0605 25.6382V25.6465C56.0605 26.3936 55.8779 27.0382 55.5127 27.5806C55.1475 28.1229 54.6328 28.5435 53.9688 28.8423C53.3047 29.1356 52.5272 29.2822 51.6362 29.2822ZM58.4512 29V16.499H59.8955V29H58.4512ZM62.7012 29V20.0518H64.1455V29H62.7012ZM63.4316 18.3252C63.1605 18.3252 62.9253 18.2284 62.7261 18.0347C62.5324 17.8354 62.4355 17.6003 62.4355 17.3291C62.4355 17.0524 62.5324 16.8172 62.7261 16.6235C62.9253 16.4299 63.1605 16.333 63.4316 16.333C63.7083 16.333 63.9435 16.4299 64.1372 16.6235C64.3309 16.8172 64.4277 17.0524 64.4277 17.3291C64.4277 17.6003 64.3309 17.8354 64.1372 18.0347C63.9435 18.2284 63.7083 18.3252 63.4316 18.3252ZM70.1719 29.1577C69.4193 29.1577 68.7607 28.9668 68.1963 28.585C67.6318 28.2031 67.1947 27.6663 66.8848 26.9746C66.5749 26.2773 66.4199 25.4639 66.4199 24.5342V24.5176C66.4199 23.5824 66.5749 22.7689 66.8848 22.0771C67.1947 21.3854 67.6291 20.8486 68.188 20.4668C68.7524 20.085 69.4137 19.894 70.1719 19.894C70.5814 19.894 70.966 19.9604 71.3257 20.0933C71.6909 20.2205 72.0146 20.4004 72.2969 20.6328C72.5791 20.8652 72.8005 21.1419 72.9609 21.4629H73.0938V16.499H74.5381V29H73.0938V27.5723H72.9609C72.7783 27.9043 72.5487 28.1893 72.272 28.4272C71.9953 28.6597 71.6799 28.8395 71.3257 28.9668C70.9715 29.0941 70.5869 29.1577 70.1719 29.1577ZM70.5039 27.8794C71.0462 27.8794 71.5138 27.7438 71.9067 27.4727C72.2996 27.2015 72.6012 26.8169 72.8115 26.3188C73.0218 25.8153 73.127 25.2204 73.127 24.5342V24.5176C73.127 23.8258 73.0218 23.231 72.8115 22.7329C72.6012 22.2349 72.2996 21.8503 71.9067 21.5791C71.5138 21.3079 71.0462 21.1724 70.5039 21.1724C69.9616 21.1724 69.494 21.3079 69.1011 21.5791C68.7137 21.8447 68.4149 22.2266 68.2046 22.7246C67.9998 23.2227 67.8975 23.8203 67.8975 24.5176V24.5342C67.8975 25.2259 67.9998 25.8236 68.2046 26.3271C68.4149 26.8252 68.7137 27.2098 69.1011 27.481C69.494 27.7466 69.9616 27.8794 70.5039 27.8794ZM80.9629 29.1577C80.1107 29.1577 79.3774 28.9696 78.7632 28.5933C78.1545 28.217 77.6841 27.6857 77.3521 26.9995C77.0256 26.3078 76.8623 25.4943 76.8623 24.5591V24.5508C76.8623 23.6266 77.0256 22.8159 77.3521 22.1187C77.6841 21.4214 78.1517 20.8763 78.7549 20.4834C79.3581 20.0905 80.0636 19.894 80.8716 19.894C81.6851 19.894 82.3823 20.0822 82.9634 20.4585C83.55 20.8348 83.9982 21.3605 84.3081 22.0356C84.6235 22.7052 84.7812 23.4855 84.7812 24.3765V24.9409H77.6094V23.7871H84.0425L83.3286 24.8413V24.2686C83.3286 23.5658 83.2235 22.9875 83.0132 22.5337C82.8029 22.0799 82.5124 21.7424 82.1416 21.521C81.7708 21.2941 81.3447 21.1807 80.8633 21.1807C80.3818 21.1807 79.9502 21.2996 79.5684 21.5376C79.1921 21.77 78.8932 22.1159 78.6719 22.5752C78.4505 23.0345 78.3398 23.599 78.3398 24.2686V24.8413C78.3398 25.4777 78.4478 26.0228 78.6636 26.4766C78.8794 26.9248 79.1865 27.2707 79.585 27.5142C79.9834 27.7521 80.4538 27.8711 80.9961 27.8711C81.4001 27.8711 81.7515 27.8158 82.0503 27.7051C82.3491 27.5944 82.5954 27.4533 82.7891 27.2817C82.9827 27.1102 83.1183 26.9359 83.1958 26.7588L83.229 26.6841H84.6733L84.6567 26.7505C84.5793 27.0549 84.4409 27.3509 84.2417 27.6387C84.048 27.9209 83.7962 28.1782 83.4863 28.4106C83.1764 28.6375 82.8084 28.8201 82.3823 28.9585C81.9618 29.0913 81.4886 29.1577 80.9629 29.1577ZM94.9829 29.0664C94.0643 29.0664 93.3975 28.881 92.9824 28.5103C92.5729 28.1395 92.3682 27.528 92.3682 26.6758V21.2471H90.957V20.0518H92.3682V17.7358H93.8623V20.0518H95.8213V21.2471H93.8623V26.3105C93.8623 26.8363 93.9619 27.2153 94.1611 27.4478C94.3604 27.6746 94.6924 27.7881 95.1572 27.7881C95.2845 27.7881 95.3924 27.7853 95.481 27.7798C95.575 27.7743 95.6885 27.766 95.8213 27.7549V28.9834C95.6829 29.0055 95.5446 29.0249 95.4062 29.0415C95.2679 29.0581 95.1268 29.0664 94.9829 29.0664ZM101.541 29.1577C100.694 29.1577 99.9606 28.9723 99.3408 28.6016C98.7266 28.2253 98.2507 27.6912 97.9131 26.9995C97.5811 26.3078 97.415 25.486 97.415 24.5342V24.5176C97.415 23.5602 97.5811 22.7357 97.9131 22.0439C98.2507 21.3522 98.7266 20.821 99.3408 20.4502C99.9606 20.0794 100.694 19.894 101.541 19.894C102.393 19.894 103.126 20.0794 103.74 20.4502C104.354 20.821 104.828 21.3522 105.16 22.0439C105.497 22.7357 105.666 23.5602 105.666 24.5176V24.5342C105.666 25.486 105.497 26.3078 105.16 26.9995C104.828 27.6912 104.354 28.2253 103.74 28.6016C103.126 28.9723 102.393 29.1577 101.541 29.1577ZM101.541 27.8794C102.105 27.8794 102.584 27.7466 102.977 27.481C103.369 27.2153 103.668 26.8335 103.873 26.3354C104.083 25.8374 104.188 25.237 104.188 24.5342V24.5176C104.188 23.8092 104.083 23.2061 103.873 22.708C103.668 22.21 103.369 21.8309 102.977 21.5708C102.584 21.3052 102.105 21.1724 101.541 21.1724C100.976 21.1724 100.497 21.3052 100.104 21.5708C99.7116 21.8309 99.41 22.21 99.1997 22.708C98.995 23.2061 98.8926 23.8092 98.8926 24.5176V24.5342C98.8926 25.237 98.995 25.8374 99.1997 26.3354C99.41 26.8335 99.7116 27.2153 100.104 27.481C100.497 27.7466 100.976 27.8794 101.541 27.8794ZM115.868 29.0664C114.949 29.0664 114.282 28.881 113.867 28.5103C113.458 28.1395 113.253 27.528 113.253 26.6758V21.2471H111.842V20.0518H113.253V17.7358H114.747V20.0518H116.706V21.2471H114.747V26.3105C114.747 26.8363 114.847 27.2153 115.046 27.4478C115.245 27.6746 115.577 27.7881 116.042 27.7881C116.169 27.7881 116.277 27.7853 116.366 27.7798C116.46 27.7743 116.573 27.766 116.706 27.7549V28.9834C116.568 29.0055 116.429 29.0249 116.291 29.0415C116.153 29.0581 116.012 29.0664 115.868 29.0664ZM118.947 29V16.499H120.392V21.3965H120.524C120.751 20.9206 121.078 20.5526 121.504 20.2925C121.93 20.0269 122.472 19.894 123.131 19.894C123.8 19.894 124.368 20.0241 124.833 20.2842C125.297 20.5387 125.652 20.9123 125.895 21.4048C126.139 21.8973 126.26 22.4977 126.26 23.2061V29H124.816V23.5547C124.816 22.7467 124.644 22.1491 124.301 21.7617C123.964 21.3688 123.438 21.1724 122.724 21.1724C122.248 21.1724 121.836 21.2747 121.487 21.4795C121.139 21.6842 120.868 21.9748 120.674 22.3511C120.486 22.7274 120.392 23.1784 120.392 23.7041V29H118.947ZM132.527 29.1577C131.675 29.1577 130.942 28.9696 130.328 28.5933C129.719 28.217 129.249 27.6857 128.917 26.9995C128.59 26.3078 128.427 25.4943 128.427 24.5591V24.5508C128.427 23.6266 128.59 22.8159 128.917 22.1187C129.249 21.4214 129.716 20.8763 130.319 20.4834C130.923 20.0905 131.628 19.894 132.436 19.894C133.25 19.894 133.947 20.0822 134.528 20.4585C135.114 20.8348 135.563 21.3605 135.873 22.0356C136.188 22.7052 136.346 23.4855 136.346 24.3765V24.9409H129.174V23.7871H135.607L134.893 24.8413V24.2686C134.893 23.5658 134.788 22.9875 134.578 22.5337C134.367 22.0799 134.077 21.7424 133.706 21.521C133.335 21.2941 132.909 21.1807 132.428 21.1807C131.946 21.1807 131.515 21.2996 131.133 21.5376C130.757 21.77 130.458 22.1159 130.236 22.5752C130.015 23.0345 129.904 23.599 129.904 24.2686V24.8413C129.904 25.4777 130.012 26.0228 130.228 26.4766C130.444 26.9248 130.751 27.2707 131.149 27.5142C131.548 27.7521 132.018 27.8711 132.561 27.8711C132.965 27.8711 133.316 27.8158 133.615 27.7051C133.914 27.5944 134.16 27.4533 134.354 27.2817C134.547 27.1102 134.683 26.9359 134.76 26.7588L134.793 26.6841H136.238L136.221 26.7505C136.144 27.0549 136.005 27.3509 135.806 27.6387C135.612 27.9209 135.361 28.1782 135.051 28.4106C134.741 28.6375 134.373 28.8201 133.947 28.9585C133.526 29.0913 133.053 29.1577 132.527 29.1577ZM143.451 29V16.499H144.896V29H143.451ZM151.32 29.1577C150.468 29.1577 149.735 28.9696 149.121 28.5933C148.512 28.217 148.042 27.6857 147.709 26.9995C147.383 26.3078 147.22 25.4943 147.22 24.5591V24.5508C147.22 23.6266 147.383 22.8159 147.709 22.1187C148.042 21.4214 148.509 20.8763 149.112 20.4834C149.715 20.0905 150.421 19.894 151.229 19.894C152.042 19.894 152.74 20.0822 153.321 20.4585C153.907 20.8348 154.356 21.3605 154.666 22.0356C154.981 22.7052 155.139 23.4855 155.139 24.3765V24.9409H147.967V23.7871H154.4L153.686 24.8413V24.2686C153.686 23.5658 153.581 22.9875 153.371 22.5337C153.16 22.0799 152.87 21.7424 152.499 21.521C152.128 21.2941 151.702 21.1807 151.221 21.1807C150.739 21.1807 150.308 21.2996 149.926 21.5376C149.549 21.77 149.251 22.1159 149.029 22.5752C148.808 23.0345 148.697 23.599 148.697 24.2686V24.8413C148.697 25.4777 148.805 26.0228 149.021 26.4766C149.237 26.9248 149.544 27.2707 149.942 27.5142C150.341 27.7521 150.811 27.8711 151.354 27.8711C151.757 27.8711 152.109 27.8158 152.408 27.7051C152.707 27.5944 152.953 27.4533 153.146 27.2817C153.34 27.1102 153.476 26.9359 153.553 26.7588L153.586 26.6841H155.031L155.014 26.7505C154.937 27.0549 154.798 27.3509 154.599 27.6387C154.405 27.9209 154.154 28.1782 153.844 28.4106C153.534 28.6375 153.166 28.8201 152.74 28.9585C152.319 29.0913 151.846 29.1577 151.32 29.1577ZM157.978 29V21.2471H156.492V20.0518H157.978V19.0557C157.978 18.458 158.074 17.9655 158.268 17.5781C158.467 17.1852 158.761 16.8947 159.148 16.7065C159.535 16.5129 160.011 16.416 160.576 16.416C160.753 16.416 160.919 16.4243 161.074 16.4409C161.234 16.452 161.389 16.4714 161.539 16.499V17.6528C161.45 17.6362 161.348 17.6252 161.231 17.6196C161.115 17.6141 160.993 17.6113 160.866 17.6113C160.352 17.6113 159.981 17.7358 159.754 17.9849C159.533 18.2339 159.422 18.6047 159.422 19.0972V20.0518H161.456V21.2471H159.422V29H157.978ZM166.718 29.0664C165.8 29.0664 165.133 28.881 164.718 28.5103C164.308 28.1395 164.104 27.528 164.104 26.6758V21.2471H162.692V20.0518H164.104V17.7358H165.598V20.0518H167.557V21.2471H165.598V26.3105C165.598 26.8363 165.697 27.2153 165.896 27.4478C166.096 27.6746 166.428 27.7881 166.893 27.7881C167.02 27.7881 167.128 27.7853 167.216 27.7798C167.31 27.7743 167.424 27.766 167.557 27.7549V28.9834C167.418 29.0055 167.28 29.0249 167.142 29.0415C167.003 29.0581 166.862 29.0664 166.718 29.0664ZM177.675 29.0664C176.757 29.0664 176.09 28.881 175.675 28.5103C175.265 28.1395 175.061 27.528 175.061 26.6758V21.2471H173.649V20.0518H175.061V17.7358H176.555V20.0518H178.514V21.2471H176.555V26.3105C176.555 26.8363 176.654 27.2153 176.854 27.4478C177.053 27.6746 177.385 27.7881 177.85 27.7881C177.977 27.7881 178.085 27.7853 178.173 27.7798C178.267 27.7743 178.381 27.766 178.514 27.7549V28.9834C178.375 29.0055 178.237 29.0249 178.099 29.0415C177.96 29.0581 177.819 29.0664 177.675 29.0664ZM184.233 29.1577C183.386 29.1577 182.653 28.9723 182.033 28.6016C181.419 28.2253 180.943 27.6912 180.605 26.9995C180.273 26.3078 180.107 25.486 180.107 24.5342V24.5176C180.107 23.5602 180.273 22.7357 180.605 22.0439C180.943 21.3522 181.419 20.821 182.033 20.4502C182.653 20.0794 183.386 19.894 184.233 19.894C185.085 19.894 185.818 20.0794 186.433 20.4502C187.047 20.821 187.52 21.3522 187.852 22.0439C188.19 22.7357 188.358 23.5602 188.358 24.5176V24.5342C188.358 25.486 188.19 26.3078 187.852 26.9995C187.52 27.6912 187.047 28.2253 186.433 28.6016C185.818 28.9723 185.085 29.1577 184.233 29.1577ZM184.233 27.8794C184.797 27.8794 185.276 27.7466 185.669 27.481C186.062 27.2153 186.361 26.8335 186.565 26.3354C186.776 25.8374 186.881 25.237 186.881 24.5342V24.5176C186.881 23.8092 186.776 23.2061 186.565 22.708C186.361 22.21 186.062 21.8309 185.669 21.5708C185.276 21.3052 184.797 21.1724 184.233 21.1724C183.668 21.1724 183.19 21.3052 182.797 21.5708C182.404 21.8309 182.102 22.21 181.892 22.708C181.687 23.2061 181.585 23.8092 181.585 24.5176V24.5342C181.585 25.237 181.687 25.8374 181.892 26.3354C182.102 26.8335 182.404 27.2153 182.797 27.481C183.19 27.7466 183.668 27.8794 184.233 27.8794ZM35.2588 49.1577C34.5947 49.1577 34.0081 49.0581 33.499 48.8589C32.9899 48.6541 32.5804 48.3691 32.2705 48.0039C31.9661 47.6387 31.7863 47.2098 31.731 46.7173H33.2085C33.3302 47.0881 33.5682 47.3869 33.9224 47.6138C34.2765 47.8407 34.7386 47.9541 35.3086 47.9541C35.7126 47.9541 36.0667 47.896 36.3711 47.7798C36.681 47.658 36.9245 47.4948 37.1016 47.29C37.2786 47.0798 37.3672 46.839 37.3672 46.5679V46.5513C37.3672 46.2469 37.2454 45.9896 37.002 45.7793C36.7585 45.5635 36.36 45.3892 35.8066 45.2563L34.4204 44.9243C33.8615 44.7915 33.4022 44.62 33.0425 44.4097C32.6828 44.1938 32.4172 43.931 32.2456 43.6211C32.0741 43.3057 31.9883 42.9349 31.9883 42.5088V42.5005C31.9883 42.0024 32.1322 41.557 32.4199 41.1641C32.7132 40.7712 33.1117 40.4613 33.6152 40.2344C34.1188 40.0075 34.686 39.894 35.3169 39.894C35.9422 39.894 36.4956 39.9937 36.9771 40.1929C37.464 40.3866 37.8542 40.6632 38.1475 41.0229C38.4463 41.3826 38.6289 41.806 38.6953 42.293H37.2759C37.1818 41.9388 36.966 41.651 36.6284 41.4297C36.2909 41.2083 35.8509 41.0977 35.3086 41.0977C34.9544 41.0977 34.639 41.1558 34.3623 41.272C34.0856 41.3826 33.867 41.5376 33.7065 41.7368C33.5461 41.936 33.4658 42.1685 33.4658 42.4341V42.4507C33.4658 42.6499 33.5184 42.827 33.6235 42.9819C33.7287 43.1369 33.8919 43.2725 34.1133 43.3887C34.3346 43.5049 34.6196 43.6073 34.9683 43.6958L36.3462 44.0278C37.1873 44.2326 37.8127 44.5259 38.2222 44.9077C38.6372 45.2896 38.8447 45.8014 38.8447 46.4434V46.46C38.8447 46.9912 38.687 47.4616 38.3716 47.8711C38.0562 48.2751 37.6273 48.5905 37.085 48.8174C36.5482 49.0443 35.9395 49.1577 35.2588 49.1577ZM41.1689 49V36.499H42.6133V41.3965H42.7461C42.973 40.9206 43.2995 40.5526 43.7256 40.2925C44.1517 40.0269 44.694 39.894 45.3525 39.894C46.0221 39.894 46.5894 40.0241 47.0542 40.2842C47.519 40.5387 47.8732 40.9123 48.1167 41.4048C48.3602 41.8973 48.4819 42.4977 48.4819 43.2061V49H47.0376V43.5547C47.0376 42.7467 46.866 42.1491 46.5229 41.7617C46.1854 41.3688 45.6597 41.1724 44.9458 41.1724C44.4699 41.1724 44.0576 41.2747 43.709 41.4795C43.3604 41.6842 43.0892 41.9748 42.8955 42.3511C42.7074 42.7274 42.6133 43.1784 42.6133 43.7041V49H41.1689ZM54.7739 49.1577C53.9272 49.1577 53.194 48.9723 52.5742 48.6016C51.96 48.2253 51.484 47.6912 51.1465 46.9995C50.8145 46.3078 50.6484 45.486 50.6484 44.5342V44.5176C50.6484 43.5602 50.8145 42.7357 51.1465 42.0439C51.484 41.3522 51.96 40.821 52.5742 40.4502C53.194 40.0794 53.9272 39.894 54.7739 39.894C55.6261 39.894 56.3594 40.0794 56.9736 40.4502C57.5879 40.821 58.061 41.3522 58.3931 42.0439C58.7306 42.7357 58.8994 43.5602 58.8994 44.5176V44.5342C58.8994 45.486 58.7306 46.3078 58.3931 46.9995C58.061 47.6912 57.5879 48.2253 56.9736 48.6016C56.3594 48.9723 55.6261 49.1577 54.7739 49.1577ZM54.7739 47.8794C55.3384 47.8794 55.8171 47.7466 56.21 47.481C56.6029 47.2153 56.9017 46.8335 57.1064 46.3354C57.3167 45.8374 57.4219 45.237 57.4219 44.5342V44.5176C57.4219 43.8092 57.3167 43.2061 57.1064 42.708C56.9017 42.21 56.6029 41.8309 56.21 41.5708C55.8171 41.3052 55.3384 41.1724 54.7739 41.1724C54.2095 41.1724 53.7308 41.3052 53.3379 41.5708C52.945 41.8309 52.6434 42.21 52.4331 42.708C52.2284 43.2061 52.126 43.8092 52.126 44.5176V44.5342C52.126 45.237 52.2284 45.8374 52.4331 46.3354C52.6434 46.8335 52.945 47.2153 53.3379 47.481C53.7308 47.7466 54.2095 47.8794 54.7739 47.8794ZM62.5352 49L60.0283 40.0518H61.4727L63.2324 47.207H63.3652L65.3657 40.0518H66.7354L68.7358 47.207H68.8687L70.6284 40.0518H72.0645L69.5576 49H68.105L66.1045 42.0771H65.9717L63.9795 49H62.5352ZM81.7515 49.1577C81.0763 49.1577 80.5091 49.0304 80.0498 48.7759C79.5905 48.5158 79.2446 48.1395 79.0122 47.647C78.7853 47.1489 78.6719 46.5485 78.6719 45.8457V40.0518H80.1162V45.4971C80.1162 46.2995 80.2712 46.8971 80.5811 47.29C80.8965 47.6829 81.4111 47.8794 82.125 47.8794C82.5179 47.8794 82.8638 47.8213 83.1626 47.7051C83.467 47.5889 83.7215 47.4229 83.9263 47.207C84.131 46.9857 84.2832 46.7201 84.3828 46.4102C84.488 46.0947 84.5405 45.7406 84.5405 45.3477V40.0518H85.9849V49H84.5405V47.6636H84.4077C84.2638 47.979 84.0674 48.2502 83.8184 48.4771C83.5693 48.6984 83.2705 48.8672 82.9219 48.9834C82.5788 49.0996 82.1886 49.1577 81.7515 49.1577ZM88.6826 49V40.0518H90.127V41.3965H90.2598C90.4867 40.9206 90.8132 40.5526 91.2393 40.2925C91.6654 40.0269 92.2077 39.894 92.8662 39.894C93.8734 39.894 94.6453 40.1818 95.1821 40.7573C95.7244 41.3273 95.9956 42.1436 95.9956 43.2061V49H94.5513V43.5547C94.5513 42.7467 94.3797 42.1491 94.0366 41.7617C93.6991 41.3688 93.1733 41.1724 92.4595 41.1724C91.9836 41.1724 91.5713 41.2747 91.2227 41.4795C90.874 41.6842 90.6029 41.9748 90.4092 42.3511C90.221 42.7274 90.127 43.1784 90.127 43.7041V49H88.6826ZM101.914 49.1577C101.161 49.1577 100.503 48.9668 99.9385 48.585C99.374 48.2031 98.9368 47.6663 98.627 46.9746C98.3171 46.2773 98.1621 45.4639 98.1621 44.5342V44.5176C98.1621 43.5824 98.3171 42.7689 98.627 42.0771C98.9368 41.3854 99.3713 40.8486 99.9302 40.4668C100.495 40.085 101.156 39.894 101.914 39.894C102.324 39.894 102.708 39.9604 103.068 40.0933C103.433 40.2205 103.757 40.4004 104.039 40.6328C104.321 40.8652 104.543 41.1419 104.703 41.4629H104.836V36.499H106.28V49H104.836V47.5723H104.703C104.521 47.9043 104.291 48.1893 104.014 48.4272C103.737 48.6597 103.422 48.8395 103.068 48.9668C102.714 49.0941 102.329 49.1577 101.914 49.1577ZM102.246 47.8794C102.788 47.8794 103.256 47.7438 103.649 47.4727C104.042 47.2015 104.343 46.8169 104.554 46.3188C104.764 45.8153 104.869 45.2204 104.869 44.5342V44.5176C104.869 43.8258 104.764 43.231 104.554 42.7329C104.343 42.2349 104.042 41.8503 103.649 41.5791C103.256 41.3079 102.788 41.1724 102.246 41.1724C101.704 41.1724 101.236 41.3079 100.843 41.5791C100.456 41.8447 100.157 42.2266 99.9468 42.7246C99.742 43.2227 99.6396 43.8203 99.6396 44.5176V44.5342C99.6396 45.2259 99.742 45.8236 99.9468 46.3271C100.157 46.8252 100.456 47.2098 100.843 47.481C101.236 47.7466 101.704 47.8794 102.246 47.8794ZM112.73 49.1577C111.883 49.1577 111.15 48.9723 110.53 48.6016C109.916 48.2253 109.44 47.6912 109.103 46.9995C108.771 46.3078 108.604 45.486 108.604 44.5342V44.5176C108.604 43.5602 108.771 42.7357 109.103 42.0439C109.44 41.3522 109.916 40.821 110.53 40.4502C111.15 40.0794 111.883 39.894 112.73 39.894C113.582 39.894 114.315 40.0794 114.93 40.4502C115.544 40.821 116.017 41.3522 116.349 42.0439C116.687 42.7357 116.855 43.5602 116.855 44.5176V44.5342C116.855 45.486 116.687 46.3078 116.349 46.9995C116.017 47.6912 115.544 48.2253 114.93 48.6016C114.315 48.9723 113.582 49.1577 112.73 49.1577ZM112.73 47.8794C113.294 47.8794 113.773 47.7466 114.166 47.481C114.559 47.2153 114.858 46.8335 115.062 46.3354C115.273 45.8374 115.378 45.237 115.378 44.5342V44.5176C115.378 43.8092 115.273 43.2061 115.062 42.708C114.858 42.21 114.559 41.8309 114.166 41.5708C113.773 41.3052 113.294 41.1724 112.73 41.1724C112.166 41.1724 111.687 41.3052 111.294 41.5708C110.901 41.8309 110.599 42.21 110.389 42.708C110.184 43.2061 110.082 43.8092 110.082 44.5176V44.5342C110.082 45.237 110.184 45.8374 110.389 46.3354C110.599 46.8335 110.901 47.2153 111.294 47.481C111.687 47.7466 112.166 47.8794 112.73 47.8794ZM128.327 49.1577C127.912 49.1577 127.528 49.0941 127.173 48.9668C126.819 48.8395 126.504 48.6597 126.227 48.4272C125.95 48.1893 125.721 47.9043 125.538 47.5723H125.405V49H123.961V36.499H125.405V41.4629H125.538C125.704 41.1419 125.925 40.8652 126.202 40.6328C126.484 40.4004 126.805 40.2205 127.165 40.0933C127.53 39.9604 127.918 39.894 128.327 39.894C129.085 39.894 129.744 40.085 130.303 40.4668C130.867 40.8486 131.304 41.3854 131.614 42.0771C131.924 42.7689 132.079 43.5824 132.079 44.5176V44.5342C132.079 45.4639 131.924 46.2773 131.614 46.9746C131.304 47.6663 130.867 48.2031 130.303 48.585C129.744 48.9668 129.085 49.1577 128.327 49.1577ZM127.995 47.8794C128.543 47.8794 129.011 47.7466 129.398 47.481C129.785 47.2098 130.081 46.8252 130.286 46.3271C130.496 45.8236 130.602 45.2259 130.602 44.5342V44.5176C130.602 43.8203 130.496 43.2227 130.286 42.7246C130.081 42.2266 129.785 41.8447 129.398 41.5791C129.011 41.3079 128.543 41.1724 127.995 41.1724C127.453 41.1724 126.985 41.3079 126.592 41.5791C126.199 41.8503 125.898 42.2349 125.688 42.7329C125.477 43.231 125.372 43.8258 125.372 44.5176V44.5342C125.372 45.2204 125.477 45.8153 125.688 46.3188C125.898 46.8169 126.199 47.2015 126.592 47.4727C126.985 47.7438 127.453 47.8794 127.995 47.8794ZM137.317 49.1577C136.642 49.1577 136.075 49.0304 135.615 48.7759C135.156 48.5158 134.81 48.1395 134.578 47.647C134.351 47.1489 134.237 46.5485 134.237 45.8457V40.0518H135.682V45.4971C135.682 46.2995 135.837 46.8971 136.146 47.29C136.462 47.6829 136.977 47.8794 137.69 47.8794C138.083 47.8794 138.429 47.8213 138.728 47.7051C139.032 47.5889 139.287 47.4229 139.492 47.207C139.696 46.9857 139.849 46.7201 139.948 46.4102C140.053 46.0947 140.106 45.7406 140.106 45.3477V40.0518H141.55V49H140.106V47.6636H139.973C139.829 47.979 139.633 48.2502 139.384 48.4771C139.135 48.6984 138.836 48.8672 138.487 48.9834C138.144 49.0996 137.754 49.1577 137.317 49.1577ZM147.427 49.0664C146.509 49.0664 145.842 48.881 145.427 48.5103C145.017 48.1395 144.812 47.528 144.812 46.6758V41.2471H143.401V40.0518H144.812V37.7358H146.307V40.0518H148.266V41.2471H146.307V46.3105C146.307 46.8363 146.406 47.2153 146.605 47.4478C146.805 47.6746 147.137 47.7881 147.602 47.7881C147.729 47.7881 147.837 47.7853 147.925 47.7798C148.019 47.7743 148.133 47.766 148.266 47.7549V48.9834C148.127 49.0055 147.989 49.0249 147.851 49.0415C147.712 49.0581 147.571 49.0664 147.427 49.0664ZM153.603 49.0664C152.684 49.0664 152.018 48.881 151.603 48.5103C151.193 48.1395 150.988 47.528 150.988 46.6758V41.2471H149.577V40.0518H150.988V37.7358H152.482V40.0518H154.441V41.2471H152.482V46.3105C152.482 46.8363 152.582 47.2153 152.781 47.4478C152.98 47.6746 153.312 47.7881 153.777 47.7881C153.905 47.7881 154.013 47.7853 154.101 47.7798C154.195 47.7743 154.309 47.766 154.441 47.7549V48.9834C154.303 49.0055 154.165 49.0249 154.026 49.0415C153.888 49.0581 153.747 49.0664 153.603 49.0664ZM160.161 49.1577C159.314 49.1577 158.581 48.9723 157.961 48.6016C157.347 48.2253 156.871 47.6912 156.533 46.9995C156.201 46.3078 156.035 45.486 156.035 44.5342V44.5176C156.035 43.5602 156.201 42.7357 156.533 42.0439C156.871 41.3522 157.347 40.821 157.961 40.4502C158.581 40.0794 159.314 39.894 160.161 39.894C161.013 39.894 161.746 40.0794 162.36 40.4502C162.975 40.821 163.448 41.3522 163.78 42.0439C164.117 42.7357 164.286 43.5602 164.286 44.5176V44.5342C164.286 45.486 164.117 46.3078 163.78 46.9995C163.448 47.6912 162.975 48.2253 162.36 48.6016C161.746 48.9723 161.013 49.1577 160.161 49.1577ZM160.161 47.8794C160.725 47.8794 161.204 47.7466 161.597 47.481C161.99 47.2153 162.288 46.8335 162.493 46.3354C162.703 45.8374 162.809 45.237 162.809 44.5342V44.5176C162.809 43.8092 162.703 43.2061 162.493 42.708C162.288 42.21 161.99 41.8309 161.597 41.5708C161.204 41.3052 160.725 41.1724 160.161 41.1724C159.596 41.1724 159.118 41.3052 158.725 41.5708C158.332 41.8309 158.03 42.21 157.82 42.708C157.615 43.2061 157.513 43.8092 157.513 44.5176V44.5342C157.513 45.237 157.615 45.8374 157.82 46.3354C158.03 46.8335 158.332 47.2153 158.725 47.481C159.118 47.7466 159.596 47.8794 160.161 47.8794ZM166.527 49V40.0518H167.972V41.3965H168.104C168.331 40.9206 168.658 40.5526 169.084 40.2925C169.51 40.0269 170.052 39.894 170.711 39.894C171.718 39.894 172.49 40.1818 173.027 40.7573C173.569 41.3273 173.84 42.1436 173.84 43.2061V49H172.396V43.5547C172.396 42.7467 172.224 42.1491 171.881 41.7617C171.544 41.3688 171.018 41.1724 170.304 41.1724C169.828 41.1724 169.416 41.2747 169.067 41.4795C168.719 41.6842 168.448 41.9748 168.254 42.3511C168.066 42.7274 167.972 43.1784 167.972 43.7041V49H166.527ZM177.634 49.083C177.34 49.083 177.086 48.9779 176.87 48.7676C176.66 48.5518 176.555 48.2972 176.555 48.0039C176.555 47.7051 176.66 47.4505 176.87 47.2402C177.086 47.0299 177.34 46.9248 177.634 46.9248C177.933 46.9248 178.187 47.0299 178.397 47.2402C178.608 47.4505 178.713 47.7051 178.713 48.0039C178.713 48.2972 178.608 48.5518 178.397 48.7676C178.187 48.9779 177.933 49.083 177.634 49.083Z" fill="#3D423E"/>
</g>
<defs>
<filter id="filter0_b_1750_33849" x="3.7417" y="40.25" width="66.5166" height="62.75" filterUnits="userSpaceOnUse" color-interpolation-filters="sRGB">
<feFlood flood-opacity="0" result="BackgroundImageFix"/>
<feGaussianBlur in="BackgroundImageFix" stdDeviation="11"/>
<feComposite in2="SourceAlpha" operator="in" result="effect1_backgroundBlur_1750_33849"/>
<feBlend mode="normal" in="SourceGraphic" in2="effect1_backgroundBlur_1750_33849" result="shape"/>
</filter>
<filter id="filter1_b_1750_33849" x="-22" y="-22" width="255" height="109" filterUnits="userSpaceOnUse" color-interpolation-filters="sRGB">
<feFlood flood-opacity="0" result="BackgroundImageFix"/>
<feGaussianBlur in="BackgroundImageFix" stdDeviation="11"/>
<feComposite in2="SourceAlpha" operator="in" result="effect1_backgroundBlur_1750_33849"/>
<feBlend mode="normal" in="SourceGraphic" in2="effect1_backgroundBlur_1750_33849" result="shape"/>
</filter>
</defs>
</svg>
