<svg width="340" height="79" viewBox="0 0 340 79" fill="none" xmlns="http://www.w3.org/2000/svg">
<g filter="url(#filter0_b_3841_33491)">
<path d="M114 79L121.794 60.25H106.206L114 79Z" fill="#3D423E" fill-opacity="0.8"/>
</g>
<g filter="url(#filter1_b_3841_33491)">
<rect width="340" height="62" rx="12" fill="#3D423E" fill-opacity="0.8"/>
<path d="M19.4536 27.2822C18.5793 27.2822 17.8156 27.1411 17.1626 26.8589C16.5151 26.5711 16.0005 26.1782 15.6187 25.6802C15.2424 25.1766 15.0238 24.6011 14.9629 23.9536L14.9546 23.8623H16.4487L16.457 23.9536C16.4958 24.3521 16.6479 24.6979 16.9136 24.9912C17.1847 25.279 17.5444 25.5031 17.9927 25.6636C18.4465 25.8241 18.9611 25.9043 19.5366 25.9043C20.0789 25.9043 20.5604 25.8185 20.981 25.647C21.4071 25.4699 21.7419 25.2264 21.9854 24.9165C22.2288 24.6066 22.3506 24.2497 22.3506 23.8457V23.8374C22.3506 23.3394 22.168 22.9215 21.8027 22.584C21.4375 22.2409 20.8426 21.978 20.0181 21.7954L18.6899 21.5049C17.4891 21.2393 16.6147 20.8298 16.0669 20.2764C15.5246 19.7174 15.2534 19.0036 15.2534 18.1348V18.1265C15.259 17.4624 15.4388 16.8758 15.793 16.3667C16.1527 15.8576 16.6479 15.4591 17.2788 15.1714C17.9152 14.8836 18.6457 14.7397 19.4702 14.7397C20.2671 14.7397 20.9727 14.8836 21.5869 15.1714C22.2012 15.4536 22.6882 15.8354 23.0479 16.3169C23.4131 16.7983 23.6151 17.3379 23.6538 17.9355L23.6621 18.0518H22.168L22.1514 17.9438C22.096 17.5897 21.9521 17.277 21.7197 17.0059C21.4873 16.7292 21.1774 16.5106 20.79 16.3501C20.4027 16.1896 19.9489 16.1121 19.4287 16.1177C18.9307 16.1177 18.4824 16.1951 18.084 16.3501C17.6855 16.505 17.3674 16.7292 17.1294 17.0225C16.897 17.3102 16.7808 17.6644 16.7808 18.085V18.0933C16.7808 18.5692 16.9578 18.9704 17.312 19.2969C17.6662 19.6234 18.25 19.8752 19.0635 20.0522L20.3916 20.3511C21.2272 20.5337 21.8996 20.7716 22.4087 21.0649C22.9178 21.3582 23.2886 21.7179 23.521 22.144C23.759 22.5646 23.8779 23.0627 23.8779 23.6382V23.6465C23.8779 24.3936 23.6953 25.0382 23.3301 25.5806C22.9648 26.1229 22.4502 26.5435 21.7861 26.8423C21.1221 27.1356 20.3446 27.2822 19.4536 27.2822ZM29.8379 27.1577C28.9857 27.1577 28.2524 26.9696 27.6382 26.5933C27.0295 26.217 26.5591 25.6857 26.2271 24.9995C25.9006 24.3078 25.7373 23.4943 25.7373 22.5591V22.5508C25.7373 21.6266 25.9006 20.8159 26.2271 20.1187C26.5591 19.4214 27.0267 18.8763 27.6299 18.4834C28.2331 18.0905 28.9386 17.894 29.7466 17.894C30.5601 17.894 31.2573 18.0822 31.8384 18.4585C32.425 18.8348 32.8732 19.3605 33.1831 20.0356C33.4985 20.7052 33.6562 21.4855 33.6562 22.3765V22.9409H26.4844V21.7871H32.9175L32.2036 22.8413V22.2686C32.2036 21.5658 32.0985 20.9875 31.8882 20.5337C31.6779 20.0799 31.3874 19.7424 31.0166 19.521C30.6458 19.2941 30.2197 19.1807 29.7383 19.1807C29.2568 19.1807 28.8252 19.2996 28.4434 19.5376C28.0671 19.77 27.7682 20.1159 27.5469 20.5752C27.3255 21.0345 27.2148 21.599 27.2148 22.2686V22.8413C27.2148 23.4777 27.3228 24.0228 27.5386 24.4766C27.7544 24.9248 28.0615 25.2707 28.46 25.5142C28.8584 25.7521 29.3288 25.8711 29.8711 25.8711C30.2751 25.8711 30.6265 25.8158 30.9253 25.7051C31.2241 25.5944 31.4704 25.4533 31.6641 25.2817C31.8577 25.1102 31.9933 24.9359 32.0708 24.7588L32.104 24.6841H33.5483L33.5317 24.7505C33.4543 25.0549 33.3159 25.3509 33.1167 25.6387C32.923 25.9209 32.6712 26.1782 32.3613 26.4106C32.0514 26.6375 31.6834 26.8201 31.2573 26.9585C30.8368 27.0913 30.3636 27.1577 29.8379 27.1577ZM39.0767 27.0664C38.158 27.0664 37.4912 26.881 37.0762 26.5103C36.6667 26.1395 36.4619 25.528 36.4619 24.6758V19.2471H35.0508V18.0518H36.4619V15.7358H37.9561V18.0518H39.915V19.2471H37.9561V24.3105C37.9561 24.8363 38.0557 25.2153 38.2549 25.4478C38.4541 25.6746 38.7861 25.7881 39.251 25.7881C39.3783 25.7881 39.4862 25.7853 39.5747 25.7798C39.6688 25.7743 39.7822 25.766 39.915 25.7549V26.9834C39.7767 27.0055 39.6383 27.0249 39.5 27.0415C39.3617 27.0581 39.2205 27.0664 39.0767 27.0664ZM47.6182 30.1377C47.5241 30.1377 47.4189 30.1322 47.3027 30.1211C47.1865 30.1156 47.0786 30.1045 46.979 30.0879V28.9009C47.0675 28.9175 47.1644 28.9285 47.2695 28.9341C47.3747 28.9396 47.4771 28.9424 47.5767 28.9424C47.9862 28.9424 48.321 28.8372 48.5811 28.627C48.8467 28.4167 49.0597 28.0542 49.2202 27.5396L49.3862 27.0083L46.0742 18.0518H47.6182L50.374 26.3193L49.8013 25.4146H50.4819L49.9092 26.3193L52.6567 18.0518H54.1758L50.6812 27.5479C50.4377 28.2174 50.1803 28.7404 49.9092 29.1167C49.638 29.493 49.3198 29.7559 48.9546 29.9053C48.5949 30.0602 48.1494 30.1377 47.6182 30.1377ZM59.4302 27.1577C58.5835 27.1577 57.8503 26.9723 57.2305 26.6016C56.6162 26.2253 56.1403 25.6912 55.8027 24.9995C55.4707 24.3078 55.3047 23.486 55.3047 22.5342V22.5176C55.3047 21.5602 55.4707 20.7357 55.8027 20.0439C56.1403 19.3522 56.6162 18.821 57.2305 18.4502C57.8503 18.0794 58.5835 17.894 59.4302 17.894C60.2824 17.894 61.0156 18.0794 61.6299 18.4502C62.2441 18.821 62.7173 19.3522 63.0493 20.0439C63.3869 20.7357 63.5557 21.5602 63.5557 22.5176V22.5342C63.5557 23.486 63.3869 24.3078 63.0493 24.9995C62.7173 25.6912 62.2441 26.2253 61.6299 26.6016C61.0156 26.9723 60.2824 27.1577 59.4302 27.1577ZM59.4302 25.8794C59.9946 25.8794 60.4733 25.7466 60.8662 25.481C61.2591 25.2153 61.5579 24.8335 61.7627 24.3354C61.973 23.8374 62.0781 23.237 62.0781 22.5342V22.5176C62.0781 21.8092 61.973 21.2061 61.7627 20.708C61.5579 20.21 61.2591 19.8309 60.8662 19.5708C60.4733 19.3052 59.9946 19.1724 59.4302 19.1724C58.8657 19.1724 58.387 19.3052 57.9941 19.5708C57.6012 19.8309 57.2996 20.21 57.0894 20.708C56.8846 21.2061 56.7822 21.8092 56.7822 22.5176V22.5342C56.7822 23.237 56.8846 23.8374 57.0894 24.3354C57.2996 24.8335 57.6012 25.2153 57.9941 25.481C58.387 25.7466 58.8657 25.8794 59.4302 25.8794ZM68.7935 27.1577C68.1183 27.1577 67.5511 27.0304 67.0918 26.7759C66.6325 26.5158 66.2866 26.1395 66.0542 25.647C65.8273 25.1489 65.7139 24.5485 65.7139 23.8457V18.0518H67.1582V23.4971C67.1582 24.2995 67.3132 24.8971 67.623 25.29C67.9385 25.6829 68.4531 25.8794 69.167 25.8794C69.5599 25.8794 69.9058 25.8213 70.2046 25.7051C70.509 25.5889 70.7635 25.4229 70.9683 25.207C71.173 24.9857 71.3252 24.7201 71.4248 24.4102C71.5299 24.0947 71.5825 23.7406 71.5825 23.3477V18.0518H73.0269V27H71.5825V25.6636H71.4497C71.3058 25.979 71.1094 26.2502 70.8604 26.4771C70.6113 26.6984 70.3125 26.8672 69.9639 26.9834C69.6208 27.0996 69.2306 27.1577 68.7935 27.1577ZM75.7246 27V18.0518H77.1689V19.3799H77.3018C77.4733 18.9095 77.7638 18.5443 78.1733 18.2842C78.5828 18.0241 79.0892 17.894 79.6924 17.894C79.8307 17.894 79.9663 17.9023 80.0991 17.9189C80.2375 17.93 80.3426 17.9411 80.4146 17.9521V19.355C80.2651 19.3273 80.1185 19.3079 79.9746 19.2969C79.8363 19.2803 79.6868 19.272 79.5264 19.272C79.0671 19.272 78.6603 19.3633 78.3062 19.5459C77.952 19.7285 77.6725 19.9831 77.4678 20.3096C77.2686 20.6361 77.1689 21.0179 77.1689 21.4551V27H75.7246ZM87.9102 27V25.6802H91.6123C92.5143 25.6802 93.1978 25.5003 93.6626 25.1406C94.1274 24.7809 94.3599 24.258 94.3599 23.5718V23.5552C94.3599 23.0959 94.252 22.7113 94.0361 22.4014C93.8203 22.0915 93.4966 21.859 93.0649 21.7041C92.6388 21.5492 92.1076 21.4717 91.4712 21.4717H87.9102V20.1851H91.0479C91.9554 20.1851 92.6361 20.0246 93.0898 19.7036C93.5492 19.3826 93.7788 18.9067 93.7788 18.2759V18.2593C93.7788 17.6506 93.5713 17.1802 93.1562 16.8481C92.7467 16.5106 92.1712 16.3418 91.4297 16.3418H87.9102V15.022H91.7451C92.4811 15.022 93.112 15.1437 93.6377 15.3872C94.1689 15.6307 94.5757 15.9766 94.8579 16.4248C95.1457 16.8675 95.2896 17.3932 95.2896 18.002V18.0186C95.2896 18.4336 95.1955 18.8237 95.0073 19.189C94.8247 19.5542 94.5785 19.8613 94.2686 20.1104C93.9587 20.3594 93.61 20.5199 93.2227 20.5918V20.7246C93.7705 20.791 94.2437 20.9543 94.6421 21.2144C95.0405 21.4744 95.3477 21.812 95.5635 22.2271C95.7848 22.6366 95.8955 23.1042 95.8955 23.6299V23.6465C95.8955 24.3438 95.7323 24.9442 95.4058 25.4478C95.0848 25.9458 94.6227 26.3304 94.0195 26.6016C93.4163 26.8672 92.6886 27 91.8364 27H87.9102ZM87.1631 27V15.022H88.6572V27H87.1631ZM98.1533 27V18.0518H99.5977V19.3799H99.7305C99.902 18.9095 100.193 18.5443 100.602 18.2842C101.012 18.0241 101.518 17.894 102.121 17.894C102.259 17.894 102.395 17.9023 102.528 17.9189C102.666 17.93 102.771 17.9411 102.843 17.9521V19.355C102.694 19.3273 102.547 19.3079 102.403 19.2969C102.265 19.2803 102.116 19.272 101.955 19.272C101.496 19.272 101.089 19.3633 100.735 19.5459C100.381 19.7285 100.101 19.9831 99.8965 20.3096C99.6973 20.6361 99.5977 21.0179 99.5977 21.4551V27H98.1533ZM108.031 27.1577C107.179 27.1577 106.446 26.9696 105.832 26.5933C105.223 26.217 104.752 25.6857 104.42 24.9995C104.094 24.3078 103.931 23.4943 103.931 22.5591V22.5508C103.931 21.6266 104.094 20.8159 104.42 20.1187C104.752 19.4214 105.22 18.8763 105.823 18.4834C106.426 18.0905 107.132 17.894 107.94 17.894C108.753 17.894 109.451 18.0822 110.032 18.4585C110.618 18.8348 111.067 19.3605 111.376 20.0356C111.692 20.7052 111.85 21.4855 111.85 22.3765V22.9409H104.678V21.7871H111.111L110.397 22.8413V22.2686C110.397 21.5658 110.292 20.9875 110.082 20.5337C109.871 20.0799 109.581 19.7424 109.21 19.521C108.839 19.2941 108.413 19.1807 107.932 19.1807C107.45 19.1807 107.019 19.2996 106.637 19.5376C106.26 19.77 105.962 20.1159 105.74 20.5752C105.519 21.0345 105.408 21.599 105.408 22.2686V22.8413C105.408 23.4777 105.516 24.0228 105.732 24.4766C105.948 24.9248 106.255 25.2707 106.653 25.5142C107.052 25.7521 107.522 25.8711 108.064 25.8711C108.468 25.8711 108.82 25.8158 109.119 25.7051C109.417 25.5944 109.664 25.4533 109.857 25.2817C110.051 25.1102 110.187 24.9359 110.264 24.7588L110.297 24.6841H111.742L111.725 24.7505C111.648 25.0549 111.509 25.3509 111.31 25.6387C111.116 25.9209 110.865 26.1782 110.555 26.4106C110.245 26.6375 109.877 26.8201 109.451 26.9585C109.03 27.0913 108.557 27.1577 108.031 27.1577ZM116.548 27.1577C115.983 27.1577 115.474 27.0498 115.021 26.834C114.572 26.6182 114.215 26.311 113.95 25.9126C113.69 25.5142 113.56 25.0438 113.56 24.5015V24.4849C113.56 23.9536 113.687 23.4998 113.941 23.1235C114.196 22.7417 114.567 22.4429 115.054 22.2271C115.541 22.0112 116.13 21.884 116.822 21.8452L120.109 21.646V22.7998L116.996 22.999C116.315 23.0378 115.817 23.1789 115.502 23.4224C115.192 23.6659 115.037 24.009 115.037 24.4517V24.4683C115.037 24.922 115.209 25.2762 115.552 25.5308C115.895 25.7798 116.326 25.9043 116.847 25.9043C117.339 25.9043 117.776 25.8075 118.158 25.6138C118.54 25.4146 118.839 25.1462 119.055 24.8086C119.276 24.471 119.387 24.0892 119.387 23.6631V20.874C119.387 20.3206 119.218 19.9001 118.88 19.6123C118.548 19.319 118.048 19.1724 117.378 19.1724C116.841 19.1724 116.401 19.2692 116.058 19.4629C115.715 19.651 115.485 19.9194 115.369 20.2681L115.361 20.293H113.917L113.925 20.2432C114.002 19.7728 114.196 19.3633 114.506 19.0146C114.821 18.6605 115.228 18.3866 115.726 18.1929C116.224 17.9937 116.791 17.894 117.428 17.894C118.158 17.894 118.775 18.013 119.279 18.251C119.788 18.4889 120.173 18.832 120.433 19.2803C120.698 19.723 120.831 20.2542 120.831 20.874V27H119.387V25.6802H119.254C119.066 25.9956 118.836 26.264 118.565 26.4854C118.299 26.7067 117.998 26.8755 117.66 26.9917C117.323 27.1024 116.952 27.1577 116.548 27.1577ZM123.554 27V14.499H124.998V27H123.554ZM129.19 27L125.695 22.6172L126.758 21.6958L131.008 27H129.19ZM124.815 23.7793L124.749 21.9614H125.131L128.999 18.0518H130.75L126.5 22.1523L126.152 22.4927L124.815 23.7793ZM140.778 27V16.3667H136.918V15.022H146.132V16.3667H142.272V27H140.778ZM148.124 27V18.0518H149.568V27H148.124ZM148.854 16.3252C148.583 16.3252 148.348 16.2284 148.149 16.0347C147.955 15.8354 147.858 15.6003 147.858 15.3291C147.858 15.0524 147.955 14.8172 148.149 14.6235C148.348 14.4299 148.583 14.333 148.854 14.333C149.131 14.333 149.366 14.4299 149.56 14.6235C149.754 14.8172 149.851 15.0524 149.851 15.3291C149.851 15.6003 149.754 15.8354 149.56 16.0347C149.366 16.2284 149.131 16.3252 148.854 16.3252ZM152.291 27V18.0518H153.735V19.4131H153.868C154.067 18.9316 154.372 18.5581 154.781 18.2925C155.196 18.0269 155.697 17.894 156.284 17.894C156.688 17.894 157.05 17.9604 157.371 18.0933C157.692 18.2261 157.969 18.4115 158.201 18.6494C158.434 18.8818 158.619 19.153 158.757 19.4629H158.89C159.051 19.1475 159.266 18.8735 159.538 18.6411C159.809 18.4032 160.121 18.2205 160.476 18.0933C160.835 17.9604 161.22 17.894 161.629 17.894C162.238 17.894 162.753 18.0075 163.173 18.2344C163.599 18.4613 163.923 18.7933 164.145 19.2305C164.366 19.6621 164.477 20.1906 164.477 20.8159V27H163.032V21.1479C163.032 20.7052 162.963 20.34 162.825 20.0522C162.692 19.759 162.487 19.5404 162.21 19.3965C161.934 19.2471 161.585 19.1724 161.165 19.1724C160.75 19.1724 160.387 19.2664 160.077 19.4546C159.767 19.6427 159.527 19.8945 159.355 20.21C159.183 20.5199 159.098 20.8657 159.098 21.2476V27H157.653V20.9238C157.653 20.5697 157.576 20.2625 157.421 20.0024C157.271 19.7368 157.056 19.5321 156.773 19.3882C156.497 19.2443 156.17 19.1724 155.794 19.1724C155.407 19.1724 155.055 19.2747 154.74 19.4795C154.43 19.6842 154.184 19.9609 154.001 20.3096C153.824 20.6527 153.735 21.0345 153.735 21.4551V27H152.291ZM170.735 27.1577C169.883 27.1577 169.15 26.9696 168.536 26.5933C167.927 26.217 167.457 25.6857 167.125 24.9995C166.798 24.3078 166.635 23.4943 166.635 22.5591V22.5508C166.635 21.6266 166.798 20.8159 167.125 20.1187C167.457 19.4214 167.924 18.8763 168.527 18.4834C169.131 18.0905 169.836 17.894 170.644 17.894C171.458 17.894 172.155 18.0822 172.736 18.4585C173.322 18.8348 173.771 19.3605 174.081 20.0356C174.396 20.7052 174.554 21.4855 174.554 22.3765V22.9409H167.382V21.7871H173.815L173.101 22.8413V22.2686C173.101 21.5658 172.996 20.9875 172.786 20.5337C172.575 20.0799 172.285 19.7424 171.914 19.521C171.543 19.2941 171.117 19.1807 170.636 19.1807C170.154 19.1807 169.723 19.2996 169.341 19.5376C168.965 19.77 168.666 20.1159 168.444 20.5752C168.223 21.0345 168.112 21.599 168.112 22.2686V22.8413C168.112 23.4777 168.22 24.0228 168.436 24.4766C168.652 24.9248 168.959 25.2707 169.357 25.5142C169.756 25.7521 170.226 25.8711 170.769 25.8711C171.173 25.8711 171.524 25.8158 171.823 25.7051C172.122 25.5944 172.368 25.4533 172.562 25.2817C172.755 25.1102 172.891 24.9359 172.968 24.7588L173.001 24.6841H174.446L174.429 24.7505C174.352 25.0549 174.213 25.3509 174.014 25.6387C173.82 25.9209 173.569 26.1782 173.259 26.4106C172.949 26.6375 172.581 26.8201 172.155 26.9585C171.734 27.0913 171.261 27.1577 170.735 27.1577ZM184.755 27.0664C183.837 27.0664 183.17 26.881 182.755 26.5103C182.345 26.1395 182.141 25.528 182.141 24.6758V19.2471H180.729V18.0518H182.141V15.7358H183.635V18.0518H185.594V19.2471H183.635V24.3105C183.635 24.8363 183.734 25.2153 183.934 25.4478C184.133 25.6746 184.465 25.7881 184.93 25.7881C185.057 25.7881 185.165 25.7853 185.253 25.7798C185.347 25.7743 185.461 25.766 185.594 25.7549V26.9834C185.455 27.0055 185.317 27.0249 185.179 27.0415C185.04 27.0581 184.899 27.0664 184.755 27.0664ZM187.785 27V18.0518H189.229V27H187.785ZM188.516 16.3252C188.244 16.3252 188.009 16.2284 187.81 16.0347C187.616 15.8354 187.52 15.6003 187.52 15.3291C187.52 15.0524 187.616 14.8172 187.81 14.6235C188.009 14.4299 188.244 14.333 188.516 14.333C188.792 14.333 189.028 14.4299 189.221 14.6235C189.415 14.8172 189.512 15.0524 189.512 15.3291C189.512 15.6003 189.415 15.8354 189.221 16.0347C189.028 16.2284 188.792 16.3252 188.516 16.3252ZM191.952 27V18.0518H193.396V19.4131H193.529C193.729 18.9316 194.033 18.5581 194.442 18.2925C194.857 18.0269 195.358 17.894 195.945 17.894C196.349 17.894 196.711 17.9604 197.032 18.0933C197.353 18.2261 197.63 18.4115 197.862 18.6494C198.095 18.8818 198.28 19.153 198.418 19.4629H198.551C198.712 19.1475 198.928 18.8735 199.199 18.6411C199.47 18.4032 199.783 18.2205 200.137 18.0933C200.496 17.9604 200.881 17.894 201.291 17.894C201.899 17.894 202.414 18.0075 202.834 18.2344C203.261 18.4613 203.584 18.7933 203.806 19.2305C204.027 19.6621 204.138 20.1906 204.138 20.8159V27H202.693V21.1479C202.693 20.7052 202.624 20.34 202.486 20.0522C202.353 19.759 202.148 19.5404 201.872 19.3965C201.595 19.2471 201.246 19.1724 200.826 19.1724C200.411 19.1724 200.048 19.2664 199.738 19.4546C199.428 19.6427 199.188 19.8945 199.016 20.21C198.845 20.5199 198.759 20.8657 198.759 21.2476V27H197.314V20.9238C197.314 20.5697 197.237 20.2625 197.082 20.0024C196.933 19.7368 196.717 19.5321 196.435 19.3882C196.158 19.2443 195.831 19.1724 195.455 19.1724C195.068 19.1724 194.716 19.2747 194.401 19.4795C194.091 19.6842 193.845 19.9609 193.662 20.3096C193.485 20.6527 193.396 21.0345 193.396 21.4551V27H191.952ZM210.396 27.1577C209.544 27.1577 208.811 26.9696 208.197 26.5933C207.588 26.217 207.118 25.6857 206.786 24.9995C206.459 24.3078 206.296 23.4943 206.296 22.5591V22.5508C206.296 21.6266 206.459 20.8159 206.786 20.1187C207.118 19.4214 207.585 18.8763 208.188 18.4834C208.792 18.0905 209.497 17.894 210.305 17.894C211.119 17.894 211.816 18.0822 212.397 18.4585C212.984 18.8348 213.432 19.3605 213.742 20.0356C214.057 20.7052 214.215 21.4855 214.215 22.3765V22.9409H207.043V21.7871H213.476L212.762 22.8413V22.2686C212.762 21.5658 212.657 20.9875 212.447 20.5337C212.236 20.0799 211.946 19.7424 211.575 19.521C211.204 19.2941 210.778 19.1807 210.297 19.1807C209.815 19.1807 209.384 19.2996 209.002 19.5376C208.626 19.77 208.327 20.1159 208.105 20.5752C207.884 21.0345 207.773 21.599 207.773 22.2686V22.8413C207.773 23.4777 207.881 24.0228 208.097 24.4766C208.313 24.9248 208.62 25.2707 209.019 25.5142C209.417 25.7521 209.887 25.8711 210.43 25.8711C210.834 25.8711 211.185 25.8158 211.484 25.7051C211.783 25.5944 212.029 25.4533 212.223 25.2817C212.416 25.1102 212.552 24.9359 212.629 24.7588L212.663 24.6841H214.107L214.09 24.7505C214.013 25.0549 213.875 25.3509 213.675 25.6387C213.482 25.9209 213.23 26.1782 212.92 26.4106C212.61 26.6375 212.242 26.8201 211.816 26.9585C211.395 27.0913 210.922 27.1577 210.396 27.1577ZM216.456 27V18.0518H217.9V19.3799H218.033C218.205 18.9095 218.495 18.5443 218.905 18.2842C219.314 18.0241 219.821 17.894 220.424 17.894C220.562 17.894 220.698 17.9023 220.831 17.9189C220.969 17.93 221.074 17.9411 221.146 17.9521V19.355C220.997 19.3273 220.85 19.3079 220.706 19.2969C220.568 19.2803 220.418 19.272 220.258 19.272C219.799 19.272 219.392 19.3633 219.038 19.5459C218.683 19.7285 218.404 19.9831 218.199 20.3096C218 20.6361 217.9 21.0179 217.9 21.4551V27H216.456ZM227.712 27V18.0518H229.156V19.4131H229.289C229.488 18.9316 229.793 18.5581 230.202 18.2925C230.617 18.0269 231.118 17.894 231.705 17.894C232.109 17.894 232.471 17.9604 232.792 18.0933C233.113 18.2261 233.39 18.4115 233.622 18.6494C233.854 18.8818 234.04 19.153 234.178 19.4629H234.311C234.472 19.1475 234.687 18.8735 234.958 18.6411C235.23 18.4032 235.542 18.2205 235.896 18.0933C236.256 17.9604 236.641 17.894 237.05 17.894C237.659 17.894 238.174 18.0075 238.594 18.2344C239.02 18.4613 239.344 18.7933 239.565 19.2305C239.787 19.6621 239.897 20.1906 239.897 20.8159V27H238.453V21.1479C238.453 20.7052 238.384 20.34 238.246 20.0522C238.113 19.759 237.908 19.5404 237.631 19.3965C237.355 19.2471 237.006 19.1724 236.585 19.1724C236.17 19.1724 235.808 19.2664 235.498 19.4546C235.188 19.6427 234.947 19.8945 234.776 20.21C234.604 20.5199 234.519 20.8657 234.519 21.2476V27H233.074V20.9238C233.074 20.5697 232.997 20.2625 232.842 20.0024C232.692 19.7368 232.477 19.5321 232.194 19.3882C231.918 19.2443 231.591 19.1724 231.215 19.1724C230.827 19.1724 230.476 19.2747 230.161 19.4795C229.851 19.6842 229.604 19.9609 229.422 20.3096C229.245 20.6527 229.156 21.0345 229.156 21.4551V27H227.712ZM244.961 27.1577C244.396 27.1577 243.887 27.0498 243.434 26.834C242.985 26.6182 242.628 26.311 242.363 25.9126C242.103 25.5142 241.973 25.0438 241.973 24.5015V24.4849C241.973 23.9536 242.1 23.4998 242.354 23.1235C242.609 22.7417 242.98 22.4429 243.467 22.2271C243.954 22.0112 244.543 21.884 245.235 21.8452L248.522 21.646V22.7998L245.409 22.999C244.729 23.0378 244.23 23.1789 243.915 23.4224C243.605 23.6659 243.45 24.009 243.45 24.4517V24.4683C243.45 24.922 243.622 25.2762 243.965 25.5308C244.308 25.7798 244.74 25.9043 245.26 25.9043C245.752 25.9043 246.189 25.8075 246.571 25.6138C246.953 25.4146 247.252 25.1462 247.468 24.8086C247.689 24.471 247.8 24.0892 247.8 23.6631V20.874C247.8 20.3206 247.631 19.9001 247.293 19.6123C246.961 19.319 246.461 19.1724 245.791 19.1724C245.254 19.1724 244.814 19.2692 244.471 19.4629C244.128 19.651 243.898 19.9194 243.782 20.2681L243.774 20.293H242.33L242.338 20.2432C242.415 19.7728 242.609 19.3633 242.919 19.0146C243.234 18.6605 243.641 18.3866 244.139 18.1929C244.637 17.9937 245.204 17.894 245.841 17.894C246.571 17.894 247.188 18.013 247.692 18.251C248.201 18.4889 248.586 18.832 248.846 19.2803C249.111 19.723 249.244 20.2542 249.244 20.874V27H247.8V25.6802H247.667C247.479 25.9956 247.249 26.264 246.978 26.4854C246.712 26.7067 246.411 26.8755 246.073 26.9917C245.736 27.1024 245.365 27.1577 244.961 27.1577ZM251.884 27V18.0518H253.328V19.3965H253.461C253.688 18.9206 254.014 18.5526 254.44 18.2925C254.867 18.0269 255.409 17.894 256.067 17.894C257.075 17.894 257.847 18.1818 258.383 18.7573C258.926 19.3273 259.197 20.1436 259.197 21.2061V27H257.752V21.5547C257.752 20.7467 257.581 20.1491 257.238 19.7617C256.9 19.3688 256.375 19.1724 255.661 19.1724C255.185 19.1724 254.772 19.2747 254.424 19.4795C254.075 19.6842 253.804 19.9748 253.61 20.3511C253.422 20.7274 253.328 21.1784 253.328 21.7041V27H251.884ZM264.808 27.1577C264.133 27.1577 263.566 27.0304 263.106 26.7759C262.647 26.5158 262.301 26.1395 262.069 25.647C261.842 25.1489 261.729 24.5485 261.729 23.8457V18.0518H263.173V23.4971C263.173 24.2995 263.328 24.8971 263.638 25.29C263.953 25.6829 264.468 25.8794 265.182 25.8794C265.575 25.8794 265.92 25.8213 266.219 25.7051C266.524 25.5889 266.778 25.4229 266.983 25.207C267.188 24.9857 267.34 24.7201 267.439 24.4102C267.545 24.0947 267.597 23.7406 267.597 23.3477V18.0518H269.042V27H267.597V25.6636H267.464C267.32 25.979 267.124 26.2502 266.875 26.4771C266.626 26.6984 266.327 26.8672 265.979 26.9834C265.635 27.0996 265.245 27.1577 264.808 27.1577ZM274.196 27.1577C273.632 27.1577 273.123 27.0498 272.669 26.834C272.221 26.6182 271.864 26.311 271.598 25.9126C271.338 25.5142 271.208 25.0438 271.208 24.5015V24.4849C271.208 23.9536 271.335 23.4998 271.59 23.1235C271.844 22.7417 272.215 22.4429 272.702 22.2271C273.189 22.0112 273.778 21.884 274.47 21.8452L277.757 21.646V22.7998L274.645 22.999C273.964 23.0378 273.466 23.1789 273.15 23.4224C272.84 23.6659 272.686 24.009 272.686 24.4517V24.4683C272.686 24.922 272.857 25.2762 273.2 25.5308C273.543 25.7798 273.975 25.9043 274.495 25.9043C274.988 25.9043 275.425 25.8075 275.807 25.6138C276.188 25.4146 276.487 25.1462 276.703 24.8086C276.924 24.471 277.035 24.0892 277.035 23.6631V20.874C277.035 20.3206 276.866 19.9001 276.529 19.6123C276.197 19.319 275.696 19.1724 275.026 19.1724C274.49 19.1724 274.05 19.2692 273.707 19.4629C273.363 19.651 273.134 19.9194 273.018 20.2681L273.009 20.293H271.565L271.573 20.2432C271.651 19.7728 271.844 19.3633 272.154 19.0146C272.47 18.6605 272.876 18.3866 273.375 18.1929C273.873 17.9937 274.44 17.894 275.076 17.894C275.807 17.894 276.424 18.013 276.927 18.251C277.436 18.4889 277.821 18.832 278.081 19.2803C278.347 19.723 278.479 20.2542 278.479 20.874V27H277.035V25.6802H276.902C276.714 25.9956 276.485 26.264 276.213 26.4854C275.948 26.7067 275.646 26.8755 275.309 26.9917C274.971 27.1024 274.6 27.1577 274.196 27.1577ZM281.202 27V14.499H282.646V27H281.202ZM285.502 27V14.499H286.946V27H285.502ZM290.482 30.1377C290.388 30.1377 290.283 30.1322 290.167 30.1211C290.051 30.1156 289.943 30.1045 289.843 30.0879V28.9009C289.932 28.9175 290.029 28.9285 290.134 28.9341C290.239 28.9396 290.341 28.9424 290.441 28.9424C290.85 28.9424 291.185 28.8372 291.445 28.627C291.711 28.4167 291.924 28.0542 292.084 27.5396L292.25 27.0083L288.938 18.0518H290.482L293.238 26.3193L292.666 25.4146H293.346L292.773 26.3193L295.521 18.0518H297.04L293.545 27.5479C293.302 28.2174 293.045 28.7404 292.773 29.1167C292.502 29.493 292.184 29.7559 291.819 29.9053C291.459 30.0602 291.014 30.1377 290.482 30.1377ZM307.408 27.1577C306.561 27.1577 305.828 26.9723 305.208 26.6016C304.594 26.2253 304.118 25.6912 303.78 24.9995C303.448 24.3078 303.282 23.486 303.282 22.5342V22.5176C303.282 21.5602 303.448 20.7357 303.78 20.0439C304.118 19.3522 304.594 18.821 305.208 18.4502C305.828 18.0794 306.561 17.894 307.408 17.894C308.26 17.894 308.993 18.0794 309.607 18.4502C310.222 18.821 310.695 19.3522 311.027 20.0439C311.364 20.7357 311.533 21.5602 311.533 22.5176V22.5342C311.533 23.486 311.364 24.3078 311.027 24.9995C310.695 25.6912 310.222 26.2253 309.607 26.6016C308.993 26.9723 308.26 27.1577 307.408 27.1577ZM307.408 25.8794C307.972 25.8794 308.451 25.7466 308.844 25.481C309.237 25.2153 309.535 24.8335 309.74 24.3354C309.951 23.8374 310.056 23.237 310.056 22.5342V22.5176C310.056 21.8092 309.951 21.2061 309.74 20.708C309.535 20.21 309.237 19.8309 308.844 19.5708C308.451 19.3052 307.972 19.1724 307.408 19.1724C306.843 19.1724 306.365 19.3052 305.972 19.5708C305.579 19.8309 305.277 20.21 305.067 20.708C304.862 21.2061 304.76 21.8092 304.76 22.5176V22.5342C304.76 23.237 304.862 23.8374 305.067 24.3354C305.277 24.8335 305.579 25.2153 305.972 25.481C306.365 25.7466 306.843 25.8794 307.408 25.8794ZM313.774 27V18.0518H315.219V19.3799H315.352C315.523 18.9095 315.814 18.5443 316.223 18.2842C316.633 18.0241 317.139 17.894 317.742 17.894C317.881 17.894 318.016 17.9023 318.149 17.9189C318.287 17.93 318.392 17.9411 318.464 17.9521V19.355C318.315 19.3273 318.168 19.3079 318.024 19.2969C317.886 19.2803 317.737 19.272 317.576 19.272C317.117 19.272 316.71 19.3633 316.356 19.5459C316.002 19.7285 315.722 19.9831 315.518 20.3096C315.318 20.6361 315.219 21.0179 315.219 21.4551V27H313.774ZM18.3413 47.1577C17.6662 47.1577 17.099 47.0304 16.6396 46.7759C16.1803 46.5158 15.8345 46.1395 15.6021 45.647C15.3752 45.1489 15.2617 44.5485 15.2617 43.8457V38.0518H16.7061V43.4971C16.7061 44.2995 16.861 44.8971 17.1709 45.29C17.4863 45.6829 18.001 45.8794 18.7148 45.8794C19.1077 45.8794 19.4536 45.8213 19.7524 45.7051C20.0568 45.5889 20.3114 45.4229 20.5161 45.207C20.7209 44.9857 20.873 44.7201 20.9727 44.4102C21.0778 44.0947 21.1304 43.7406 21.1304 43.3477V38.0518H22.5747V47H21.1304V45.6636H20.9976C20.8537 45.979 20.6572 46.2502 20.4082 46.4771C20.1592 46.6984 19.8604 46.8672 19.5117 46.9834C19.1686 47.0996 18.7785 47.1577 18.3413 47.1577ZM28.3438 47.1577C27.6797 47.1577 27.0931 47.0581 26.584 46.8589C26.0749 46.6541 25.6654 46.3691 25.3555 46.0039C25.0511 45.6387 24.8713 45.2098 24.8159 44.7173H26.2935C26.4152 45.0881 26.6532 45.3869 27.0073 45.6138C27.3615 45.8407 27.8236 45.9541 28.3936 45.9541C28.7975 45.9541 29.1517 45.896 29.4561 45.7798C29.766 45.658 30.0094 45.4948 30.1865 45.29C30.3636 45.0798 30.4521 44.839 30.4521 44.5679V44.5513C30.4521 44.2469 30.3304 43.9896 30.0869 43.7793C29.8434 43.5635 29.445 43.3892 28.8916 43.2563L27.5054 42.9243C26.9465 42.7915 26.4871 42.62 26.1274 42.4097C25.7677 42.1938 25.5021 41.931 25.3306 41.6211C25.159 41.3057 25.0732 40.9349 25.0732 40.5088V40.5005C25.0732 40.0024 25.2171 39.557 25.5049 39.1641C25.7982 38.7712 26.1966 38.4613 26.7002 38.2344C27.2038 38.0075 27.771 37.894 28.4019 37.894C29.0272 37.894 29.5806 37.9937 30.062 38.1929C30.549 38.3866 30.9391 38.6632 31.2324 39.0229C31.5312 39.3826 31.7139 39.806 31.7803 40.293H30.3608C30.2668 39.9388 30.0509 39.651 29.7134 39.4297C29.3758 39.2083 28.9359 39.0977 28.3936 39.0977C28.0394 39.0977 27.724 39.1558 27.4473 39.272C27.1706 39.3826 26.952 39.5376 26.7915 39.7368C26.631 39.936 26.5508 40.1685 26.5508 40.4341V40.4507C26.5508 40.6499 26.6034 40.827 26.7085 40.9819C26.8136 41.1369 26.9769 41.2725 27.1982 41.3887C27.4196 41.5049 27.7046 41.6073 28.0532 41.6958L29.4312 42.0278C30.2723 42.2326 30.8976 42.5259 31.3071 42.9077C31.7222 43.2896 31.9297 43.8014 31.9297 44.4434V44.46C31.9297 44.9912 31.772 45.4616 31.4565 45.8711C31.1411 46.2751 30.7122 46.5905 30.1699 46.8174C29.6331 47.0443 29.0244 47.1577 28.3438 47.1577ZM37.8232 47.1577C36.971 47.1577 36.2378 46.9696 35.6235 46.5933C35.0148 46.217 34.5444 45.6857 34.2124 44.9995C33.8859 44.3078 33.7227 43.4943 33.7227 42.5591V42.5508C33.7227 41.6266 33.8859 40.8159 34.2124 40.1187C34.5444 39.4214 35.012 38.8763 35.6152 38.4834C36.2184 38.0905 36.924 37.894 37.7319 37.894C38.5454 37.894 39.2427 38.0822 39.8237 38.4585C40.4103 38.8348 40.8586 39.3605 41.1685 40.0356C41.4839 40.7052 41.6416 41.4855 41.6416 42.3765V42.9409H34.4697V41.7871H40.9028L40.189 42.8413V42.2686C40.189 41.5658 40.0838 40.9875 39.8735 40.5337C39.6632 40.0799 39.3727 39.7424 39.002 39.521C38.6312 39.2941 38.2051 39.1807 37.7236 39.1807C37.2422 39.1807 36.8105 39.2996 36.4287 39.5376C36.0524 39.77 35.7536 40.1159 35.5322 40.5752C35.3109 41.0345 35.2002 41.599 35.2002 42.2686V42.8413C35.2002 43.4777 35.3081 44.0228 35.5239 44.4766C35.7397 44.9248 36.0469 45.2707 36.4453 45.5142C36.8438 45.7521 37.3141 45.8711 37.8564 45.8711C38.2604 45.8711 38.6118 45.8158 38.9106 45.7051C39.2095 45.5944 39.4557 45.4533 39.6494 45.2817C39.8431 45.1102 39.9787 44.9359 40.0562 44.7588L40.0894 44.6841H41.5337L41.5171 44.7505C41.4396 45.0549 41.3013 45.3509 41.1021 45.6387C40.9084 45.9209 40.6566 46.1782 40.3467 46.4106C40.0368 46.6375 39.6688 46.8201 39.2427 46.9585C38.8221 47.0913 38.349 47.1577 37.8232 47.1577ZM51.8433 47.0664C50.9246 47.0664 50.2578 46.881 49.8428 46.5103C49.4333 46.1395 49.2285 45.528 49.2285 44.6758V39.2471H47.8174V38.0518H49.2285V35.7358H50.7227V38.0518H52.6816V39.2471H50.7227V44.3105C50.7227 44.8363 50.8223 45.2153 51.0215 45.4478C51.2207 45.6746 51.5527 45.7881 52.0176 45.7881C52.1449 45.7881 52.2528 45.7853 52.3413 45.7798C52.4354 45.7743 52.5488 45.766 52.6816 45.7549V46.9834C52.5433 47.0055 52.4049 47.0249 52.2666 47.0415C52.1283 47.0581 51.9871 47.0664 51.8433 47.0664ZM54.9229 47V34.499H56.3672V39.3965H56.5C56.7269 38.9206 57.0534 38.5526 57.4795 38.2925C57.9056 38.0269 58.4479 37.894 59.1064 37.894C59.776 37.894 60.3433 38.0241 60.8081 38.2842C61.2729 38.5387 61.6271 38.9123 61.8706 39.4048C62.1141 39.8973 62.2358 40.4977 62.2358 41.2061V47H60.7915V41.5547C60.7915 40.7467 60.62 40.1491 60.2769 39.7617C59.9393 39.3688 59.4136 39.1724 58.6997 39.1724C58.2238 39.1724 57.8115 39.2747 57.4629 39.4795C57.1143 39.6842 56.8431 39.9748 56.6494 40.3511C56.4613 40.7274 56.3672 41.1784 56.3672 41.7041V47H54.9229ZM68.5029 47.1577C67.6507 47.1577 66.9175 46.9696 66.3032 46.5933C65.6945 46.217 65.2241 45.6857 64.8921 44.9995C64.5656 44.3078 64.4023 43.4943 64.4023 42.5591V42.5508C64.4023 41.6266 64.5656 40.8159 64.8921 40.1187C65.2241 39.4214 65.6917 38.8763 66.2949 38.4834C66.8981 38.0905 67.6037 37.894 68.4116 37.894C69.2251 37.894 69.9224 38.0822 70.5034 38.4585C71.09 38.8348 71.5382 39.3605 71.8481 40.0356C72.1636 40.7052 72.3213 41.4855 72.3213 42.3765V42.9409H65.1494V41.7871H71.5825L70.8687 42.8413V42.2686C70.8687 41.5658 70.7635 40.9875 70.5532 40.5337C70.3429 40.0799 70.0524 39.7424 69.6816 39.521C69.3109 39.2941 68.8848 39.1807 68.4033 39.1807C67.9219 39.1807 67.4902 39.2996 67.1084 39.5376C66.7321 39.77 66.4333 40.1159 66.2119 40.5752C65.9906 41.0345 65.8799 41.599 65.8799 42.2686V42.8413C65.8799 43.4777 65.9878 44.0228 66.2036 44.4766C66.4194 44.9248 66.7266 45.2707 67.125 45.5142C67.5234 45.7521 67.9938 45.8711 68.5361 45.8711C68.9401 45.8711 69.2915 45.8158 69.5903 45.7051C69.8892 45.5944 70.1354 45.4533 70.3291 45.2817C70.5228 45.1102 70.6584 44.9359 70.7358 44.7588L70.769 44.6841H72.2134L72.1968 44.7505C72.1193 45.0549 71.981 45.3509 71.7817 45.6387C71.5881 45.9209 71.3363 46.1782 71.0264 46.4106C70.7165 46.6375 70.3485 46.8201 69.9224 46.9585C69.5018 47.0913 69.0286 47.1577 68.5029 47.1577ZM79.3438 49.9883V38.0518H80.7881V39.4795H80.9209C81.1035 39.1475 81.3332 38.8652 81.6099 38.6328C81.8866 38.3949 82.202 38.2122 82.5562 38.085C82.9103 37.9577 83.2949 37.894 83.71 37.894C84.4681 37.894 85.1266 38.0877 85.6855 38.4751C86.25 38.8569 86.6872 39.3937 86.9971 40.0854C87.307 40.7772 87.4619 41.5879 87.4619 42.5176V42.5342C87.4619 43.4694 87.307 44.2829 86.9971 44.9746C86.6872 45.6663 86.25 46.2031 85.6855 46.585C85.1266 46.9668 84.4681 47.1577 83.71 47.1577C83.3005 47.1577 82.9131 47.0941 82.5479 46.9668C82.1882 46.834 81.8672 46.6514 81.585 46.4189C81.3083 46.1865 81.0869 45.9098 80.9209 45.5889H80.7881V49.9883H79.3438ZM83.3779 45.8794C83.9258 45.8794 84.3934 45.7466 84.7808 45.481C85.1681 45.2098 85.4642 44.8252 85.6689 44.3271C85.8792 43.8236 85.9844 43.2259 85.9844 42.5342V42.5176C85.9844 41.8203 85.8792 41.2227 85.6689 40.7246C85.4642 40.2266 85.1681 39.8447 84.7808 39.5791C84.3934 39.3079 83.9258 39.1724 83.3779 39.1724C82.8356 39.1724 82.368 39.3079 81.9751 39.5791C81.5822 39.8503 81.2806 40.2349 81.0703 40.7329C80.86 41.231 80.7549 41.8258 80.7549 42.5176V42.5342C80.7549 43.2204 80.86 43.8153 81.0703 44.3188C81.2806 44.8169 81.5822 45.2015 81.9751 45.4727C82.368 45.7438 82.8356 45.8794 83.3779 45.8794ZM89.7197 47V38.0518H91.1641V39.3799H91.2969C91.4684 38.9095 91.759 38.5443 92.1685 38.2842C92.578 38.0241 93.0843 37.894 93.6875 37.894C93.8258 37.894 93.9614 37.9023 94.0942 37.9189C94.2326 37.93 94.3377 37.9411 94.4097 37.9521V39.355C94.2603 39.3273 94.1136 39.3079 93.9697 39.2969C93.8314 39.2803 93.682 39.272 93.5215 39.272C93.0622 39.272 92.6554 39.3633 92.3013 39.5459C91.9471 39.7285 91.6676 39.9831 91.4629 40.3096C91.2637 40.6361 91.1641 41.0179 91.1641 41.4551V47H89.7197ZM99.5977 47.1577C98.7454 47.1577 98.0122 46.9696 97.3979 46.5933C96.7892 46.217 96.3188 45.6857 95.9868 44.9995C95.6603 44.3078 95.4971 43.4943 95.4971 42.5591V42.5508C95.4971 41.6266 95.6603 40.8159 95.9868 40.1187C96.3188 39.4214 96.7865 38.8763 97.3896 38.4834C97.9928 38.0905 98.6984 37.894 99.5063 37.894C100.32 37.894 101.017 38.0822 101.598 38.4585C102.185 38.8348 102.633 39.3605 102.943 40.0356C103.258 40.7052 103.416 41.4855 103.416 42.3765V42.9409H96.2441V41.7871H102.677L101.963 42.8413V42.2686C101.963 41.5658 101.858 40.9875 101.648 40.5337C101.438 40.0799 101.147 39.7424 100.776 39.521C100.406 39.2941 99.9795 39.1807 99.498 39.1807C99.0166 39.1807 98.585 39.2996 98.2031 39.5376C97.8268 39.77 97.528 40.1159 97.3066 40.5752C97.0853 41.0345 96.9746 41.599 96.9746 42.2686V42.8413C96.9746 43.4777 97.0825 44.0228 97.2983 44.4766C97.5142 44.9248 97.8213 45.2707 98.2197 45.5142C98.6182 45.7521 99.0885 45.8711 99.6309 45.8711C100.035 45.8711 100.386 45.8158 100.685 45.7051C100.984 45.5944 101.23 45.4533 101.424 45.2817C101.618 45.1102 101.753 44.9359 101.831 44.7588L101.864 44.6841H103.308L103.292 44.7505C103.214 45.0549 103.076 45.3509 102.876 45.6387C102.683 45.9209 102.431 46.1782 102.121 46.4106C101.811 46.6375 101.443 46.8201 101.017 46.9585C100.597 47.0913 100.123 47.1577 99.5977 47.1577ZM108.729 47.1577C108.064 47.1577 107.478 47.0581 106.969 46.8589C106.46 46.6541 106.05 46.3691 105.74 46.0039C105.436 45.6387 105.256 45.2098 105.201 44.7173H106.678C106.8 45.0881 107.038 45.3869 107.392 45.6138C107.746 45.8407 108.208 45.9541 108.778 45.9541C109.182 45.9541 109.536 45.896 109.841 45.7798C110.151 45.658 110.394 45.4948 110.571 45.29C110.748 45.0798 110.837 44.839 110.837 44.5679V44.5513C110.837 44.2469 110.715 43.9896 110.472 43.7793C110.228 43.5635 109.83 43.3892 109.276 43.2563L107.89 42.9243C107.331 42.7915 106.872 42.62 106.512 42.4097C106.153 42.1938 105.887 41.931 105.715 41.6211C105.544 41.3057 105.458 40.9349 105.458 40.5088V40.5005C105.458 40.0024 105.602 39.557 105.89 39.1641C106.183 38.7712 106.581 38.4613 107.085 38.2344C107.589 38.0075 108.156 37.894 108.787 37.894C109.412 37.894 109.965 37.9937 110.447 38.1929C110.934 38.3866 111.324 38.6632 111.617 39.0229C111.916 39.3826 112.099 39.806 112.165 40.293H110.746C110.652 39.9388 110.436 39.651 110.098 39.4297C109.761 39.2083 109.321 39.0977 108.778 39.0977C108.424 39.0977 108.109 39.1558 107.832 39.272C107.555 39.3826 107.337 39.5376 107.176 39.7368C107.016 39.936 106.936 40.1685 106.936 40.4341V40.4507C106.936 40.6499 106.988 40.827 107.093 40.9819C107.198 41.1369 107.362 41.2725 107.583 41.3887C107.804 41.5049 108.089 41.6073 108.438 41.6958L109.816 42.0278C110.657 42.2326 111.282 42.5259 111.692 42.9077C112.107 43.2896 112.314 43.8014 112.314 44.4434V44.46C112.314 44.9912 112.157 45.4616 111.841 45.8711C111.526 46.2751 111.097 46.5905 110.555 46.8174C110.018 47.0443 109.409 47.1577 108.729 47.1577ZM118.208 47.1577C117.356 47.1577 116.623 46.9696 116.008 46.5933C115.4 46.217 114.929 45.6857 114.597 44.9995C114.271 44.3078 114.107 43.4943 114.107 42.5591V42.5508C114.107 41.6266 114.271 40.8159 114.597 40.1187C114.929 39.4214 115.397 38.8763 116 38.4834C116.603 38.0905 117.309 37.894 118.117 37.894C118.93 37.894 119.627 38.0822 120.208 38.4585C120.795 38.8348 121.243 39.3605 121.553 40.0356C121.869 40.7052 122.026 41.4855 122.026 42.3765V42.9409H114.854V41.7871H121.288L120.574 42.8413V42.2686C120.574 41.5658 120.469 40.9875 120.258 40.5337C120.048 40.0799 119.757 39.7424 119.387 39.521C119.016 39.2941 118.59 39.1807 118.108 39.1807C117.627 39.1807 117.195 39.2996 116.813 39.5376C116.437 39.77 116.138 40.1159 115.917 40.5752C115.696 41.0345 115.585 41.599 115.585 42.2686V42.8413C115.585 43.4777 115.693 44.0228 115.909 44.4766C116.125 44.9248 116.432 45.2707 116.83 45.5142C117.229 45.7521 117.699 45.8711 118.241 45.8711C118.645 45.8711 118.997 45.8158 119.295 45.7051C119.594 45.5944 119.84 45.4533 120.034 45.2817C120.228 45.1102 120.363 44.9359 120.441 44.7588L120.474 44.6841H121.918L121.902 44.7505C121.824 45.0549 121.686 45.3509 121.487 45.6387C121.293 45.9209 121.041 46.1782 120.731 46.4106C120.422 46.6375 120.054 46.8201 119.627 46.9585C119.207 47.0913 118.734 47.1577 118.208 47.1577ZM127.447 47.0664C126.528 47.0664 125.861 46.881 125.446 46.5103C125.037 46.1395 124.832 45.528 124.832 44.6758V39.2471H123.421V38.0518H124.832V35.7358H126.326V38.0518H128.285V39.2471H126.326V44.3105C126.326 44.8363 126.426 45.2153 126.625 45.4478C126.824 45.6746 127.156 45.7881 127.621 45.7881C127.748 45.7881 127.856 45.7853 127.945 45.7798C128.039 45.7743 128.152 45.766 128.285 45.7549V46.9834C128.147 47.0055 128.008 47.0249 127.87 47.0415C127.732 47.0581 127.591 47.0664 127.447 47.0664ZM138.404 47.0664C137.485 47.0664 136.818 46.881 136.403 46.5103C135.994 46.1395 135.789 45.528 135.789 44.6758V39.2471H134.378V38.0518H135.789V35.7358H137.283V38.0518H139.242V39.2471H137.283V44.3105C137.283 44.8363 137.383 45.2153 137.582 45.4478C137.781 45.6746 138.113 45.7881 138.578 45.7881C138.705 45.7881 138.813 45.7853 138.902 45.7798C138.996 45.7743 139.109 45.766 139.242 45.7549V46.9834C139.104 47.0055 138.965 47.0249 138.827 47.0415C138.689 47.0581 138.548 47.0664 138.404 47.0664ZM141.434 47V38.0518H142.878V47H141.434ZM142.164 36.3252C141.893 36.3252 141.658 36.2284 141.458 36.0347C141.265 35.8354 141.168 35.6003 141.168 35.3291C141.168 35.0524 141.265 34.8172 141.458 34.6235C141.658 34.4299 141.893 34.333 142.164 34.333C142.441 34.333 142.676 34.4299 142.87 34.6235C143.063 34.8172 143.16 35.0524 143.16 35.3291C143.16 35.6003 143.063 35.8354 142.87 36.0347C142.676 36.2284 142.441 36.3252 142.164 36.3252ZM145.601 47V38.0518H147.045V39.4131H147.178C147.377 38.9316 147.681 38.5581 148.091 38.2925C148.506 38.0269 149.007 37.894 149.593 37.894C149.997 37.894 150.36 37.9604 150.681 38.0933C151.002 38.2261 151.278 38.4115 151.511 38.6494C151.743 38.8818 151.929 39.153 152.067 39.4629H152.2C152.36 39.1475 152.576 38.8735 152.847 38.6411C153.118 38.4032 153.431 38.2205 153.785 38.0933C154.145 37.9604 154.529 37.894 154.939 37.894C155.548 37.894 156.062 38.0075 156.483 38.2344C156.909 38.4613 157.233 38.7933 157.454 39.2305C157.675 39.6621 157.786 40.1906 157.786 40.8159V47H156.342V41.1479C156.342 40.7052 156.273 40.34 156.134 40.0522C156.001 39.759 155.797 39.5404 155.52 39.3965C155.243 39.2471 154.895 39.1724 154.474 39.1724C154.059 39.1724 153.697 39.2664 153.387 39.4546C153.077 39.6427 152.836 39.8945 152.665 40.21C152.493 40.5199 152.407 40.8657 152.407 41.2476V47H150.963V40.9238C150.963 40.5697 150.885 40.2625 150.73 40.0024C150.581 39.7368 150.365 39.5321 150.083 39.3882C149.806 39.2443 149.48 39.1724 149.104 39.1724C148.716 39.1724 148.365 39.2747 148.049 39.4795C147.739 39.6842 147.493 39.9609 147.311 40.3096C147.133 40.6527 147.045 41.0345 147.045 41.4551V47H145.601ZM164.045 47.1577C163.193 47.1577 162.459 46.9696 161.845 46.5933C161.236 46.217 160.766 45.6857 160.434 44.9995C160.108 44.3078 159.944 43.4943 159.944 42.5591V42.5508C159.944 41.6266 160.108 40.8159 160.434 40.1187C160.766 39.4214 161.234 38.8763 161.837 38.4834C162.44 38.0905 163.146 37.894 163.954 37.894C164.767 37.894 165.464 38.0822 166.045 38.4585C166.632 38.8348 167.08 39.3605 167.39 40.0356C167.706 40.7052 167.863 41.4855 167.863 42.3765V42.9409H160.691V41.7871H167.125L166.411 42.8413V42.2686C166.411 41.5658 166.306 40.9875 166.095 40.5337C165.885 40.0799 165.594 39.7424 165.224 39.521C164.853 39.2941 164.427 39.1807 163.945 39.1807C163.464 39.1807 163.032 39.2996 162.65 39.5376C162.274 39.77 161.975 40.1159 161.754 40.5752C161.533 41.0345 161.422 41.599 161.422 42.2686V42.8413C161.422 43.4777 161.53 44.0228 161.746 44.4766C161.961 44.9248 162.269 45.2707 162.667 45.5142C163.065 45.7521 163.536 45.8711 164.078 45.8711C164.482 45.8711 164.833 45.8158 165.132 45.7051C165.431 45.5944 165.677 45.4533 165.871 45.2817C166.065 45.1102 166.2 44.9359 166.278 44.7588L166.311 44.6841H167.755L167.739 44.7505C167.661 45.0549 167.523 45.3509 167.324 45.6387C167.13 45.9209 166.878 46.1782 166.568 46.4106C166.258 46.6375 165.89 46.8201 165.464 46.9585C165.044 47.0913 164.571 47.1577 164.045 47.1577ZM173.176 47.1577C172.512 47.1577 171.925 47.0581 171.416 46.8589C170.907 46.6541 170.497 46.3691 170.188 46.0039C169.883 45.6387 169.703 45.2098 169.648 44.7173H171.125C171.247 45.0881 171.485 45.3869 171.839 45.6138C172.194 45.8407 172.656 45.9541 173.226 45.9541C173.63 45.9541 173.984 45.896 174.288 45.7798C174.598 45.658 174.841 45.4948 175.019 45.29C175.196 45.0798 175.284 44.839 175.284 44.5679V44.5513C175.284 44.2469 175.162 43.9896 174.919 43.7793C174.675 43.5635 174.277 43.3892 173.724 43.2563L172.337 42.9243C171.778 42.7915 171.319 42.62 170.959 42.4097C170.6 42.1938 170.334 41.931 170.163 41.6211C169.991 41.3057 169.905 40.9349 169.905 40.5088V40.5005C169.905 40.0024 170.049 39.557 170.337 39.1641C170.63 38.7712 171.029 38.4613 171.532 38.2344C172.036 38.0075 172.603 37.894 173.234 37.894C173.859 37.894 174.413 37.9937 174.894 38.1929C175.381 38.3866 175.771 38.6632 176.064 39.0229C176.363 39.3826 176.546 39.806 176.612 40.293H175.193C175.099 39.9388 174.883 39.651 174.545 39.4297C174.208 39.2083 173.768 39.0977 173.226 39.0977C172.871 39.0977 172.556 39.1558 172.279 39.272C172.003 39.3826 171.784 39.5376 171.624 39.7368C171.463 39.936 171.383 40.1685 171.383 40.4341V40.4507C171.383 40.6499 171.435 40.827 171.541 40.9819C171.646 41.1369 171.809 41.2725 172.03 41.3887C172.252 41.5049 172.537 41.6073 172.885 41.6958L174.263 42.0278C175.104 42.2326 175.73 42.5259 176.139 42.9077C176.554 43.2896 176.762 43.8014 176.762 44.4434V44.46C176.762 44.9912 176.604 45.4616 176.289 45.8711C175.973 46.2751 175.544 46.5905 175.002 46.8174C174.465 47.0443 173.856 47.1577 173.176 47.1577ZM180.182 47.083C179.888 47.083 179.634 46.9779 179.418 46.7676C179.208 46.5518 179.103 46.2972 179.103 46.0039C179.103 45.7051 179.208 45.4505 179.418 45.2402C179.634 45.0299 179.888 44.9248 180.182 44.9248C180.48 44.9248 180.735 45.0299 180.945 45.2402C181.156 45.4505 181.261 45.7051 181.261 46.0039C181.261 46.2972 181.156 46.5518 180.945 46.7676C180.735 46.9779 180.48 47.083 180.182 47.083Z" fill="#FDFCFB"/>
</g>
<defs>
<filter id="filter0_b_3841_33491" x="84.2058" y="38.25" width="59.5884" height="62.75" filterUnits="userSpaceOnUse" color-interpolation-filters="sRGB">
<feFlood flood-opacity="0" result="BackgroundImageFix"/>
<feGaussianBlur in="BackgroundImageFix" stdDeviation="11"/>
<feComposite in2="SourceAlpha" operator="in" result="effect1_backgroundBlur_3841_33491"/>
<feBlend mode="normal" in="SourceGraphic" in2="effect1_backgroundBlur_3841_33491" result="shape"/>
</filter>
<filter id="filter1_b_3841_33491" x="-22" y="-22" width="384" height="106" filterUnits="userSpaceOnUse" color-interpolation-filters="sRGB">
<feFlood flood-opacity="0" result="BackgroundImageFix"/>
<feGaussianBlur in="BackgroundImageFix" stdDeviation="11"/>
<feComposite in2="SourceAlpha" operator="in" result="effect1_backgroundBlur_3841_33491"/>
<feBlend mode="normal" in="SourceGraphic" in2="effect1_backgroundBlur_3841_33491" result="shape"/>
</filter>
</defs>
</svg>
