<svg width="257" height="256" viewBox="0 0 257 256" fill="none" xmlns="http://www.w3.org/2000/svg">
<mask id="mask0_1738_27224" style="mask-type:luminance" maskUnits="userSpaceOnUse" x="0" y="0" width="257" height="256">
<path d="M0.5 0H256.5V256H0.5V0Z" fill="white"/>
</mask>
<g mask="url(#mask0_1738_27224)">
<path d="M181.062 196.22C187.751 193.666 194.33 189.896 199.53 184.958C204.088 180.629 207.955 175.556 212.098 170.841C216.081 166.307 221.085 161.608 223.355 155.893C227.868 144.526 214.441 142.638 206.409 145.471C200.972 147.389 197.742 151.495 193.693 155.287C190.916 157.889 187.686 159.394 184.566 161.478C175.616 167.455 167.104 177.485 162.313 187.089C155.38 200.988 172.657 199.429 181.062 196.22Z" fill="#F0E8BA"/>
<path d="M76.2444 136.711C75.2793 131.044 72.9149 125.722 69.443 122.168C65.7126 118.349 58.0131 113.432 52.3775 113.932C47.3671 114.377 43.1298 122.491 40.0046 126.056C31.6886 135.541 29.1911 148.66 39.6129 158.062C47.2601 164.96 60.4666 167.151 69.0518 160.69C75.7739 155.632 77.7804 145.732 76.2444 136.711Z" fill="#FED9A8"/>
<path d="M141.528 127.525C145.197 130.175 151.849 133.016 155.986 130.049C159.832 127.29 161.048 120.784 161.922 116.481C164.184 105.353 161.587 90.8476 148.188 88.0951C122.381 82.7943 127.604 117.469 141.528 127.525Z" fill="#F0A382"/>
<path d="M101.586 98.1453C112.49 103.884 124.666 88.7399 127.472 79.9012C130.88 69.1589 122.482 57.706 111.883 56.2146C102.486 54.8921 89.5042 59.5825 86.8443 69.4011C84.0038 79.8833 92.3412 93.2798 101.586 98.1453Z" fill="#F0E8BA"/>
<path d="M117.284 219.519C124.169 215.072 124.16 205.387 126.489 198.317C127.875 194.111 131.752 183.712 124.371 182.523C118.51 181.578 110.273 187.557 107.007 192.197C102.684 198.336 99.9637 206.949 102.744 214.257C104.993 220.168 111.743 223.096 117.284 219.519Z" fill="#FED9A8"/>
<path d="M175.049 111.48C175.769 116.172 175.756 120.929 174.002 125.392C173.191 127.459 172.05 129.496 170.614 131.184C169.079 132.989 167.055 133.781 164.795 134.21C162.751 134.597 160.83 134.763 158.793 134.24C156.898 133.753 155.158 132.736 153.697 131.437C150.528 128.619 149.238 124.278 148.618 120.194C147.297 111.493 148.454 102.138 152.005 94.0993C153.552 90.6003 155.619 87.0665 158.306 84.3329C159.61 83.0068 161.226 81.9122 163.101 81.7099C164.878 81.519 166.347 82.5947 167.375 83.9571C168.413 85.3344 169.075 87.0035 169.641 88.624C170.507 91.1062 171.07 93.6882 171.601 96.261C172.116 98.758 172.622 101.249 173.241 103.723C173.885 106.297 174.552 108.873 175.021 111.487C175.043 111.611 175.223 111.557 175.205 111.437C174.502 106.753 173.124 102.198 172.184 97.5604C171.372 93.5566 170.565 89.4478 168.775 85.7511C167.514 83.1487 165.385 80.8656 162.288 81.5737C159.135 82.2936 156.883 85.3943 155.174 87.9379C150.462 94.9513 148.245 103.316 147.988 111.735C147.759 119.183 148.612 128.711 155.539 133.008C157.79 134.405 160.479 135.012 163.096 134.652C164.663 134.437 166.35 134.202 167.801 133.541C169.174 132.916 170.302 131.941 171.217 130.738C173.166 128.178 174.545 125.154 175.236 122.002C175.991 118.561 175.795 114.891 175.179 111.444C175.163 111.357 175.035 111.395 175.049 111.48Z" fill="#3D423E"/>
<path d="M161.558 133.767C160.307 130.517 159.86 127.045 159.604 123.589C159.341 120.051 159.183 116.506 158.929 112.967C158.381 105.298 157.982 97.5114 159.832 89.9794C159.84 89.9471 159.791 89.9333 159.782 89.965C157.792 97.472 158.23 105.298 158.779 112.967C159.039 116.592 159.206 120.223 159.479 123.846C159.729 127.217 160.169 130.651 161.473 133.79C161.495 133.842 161.58 133.82 161.558 133.767Z" fill="#3D423E"/>
<path d="M160.896 86.5153C160.991 84.7745 161.907 83.2846 162.635 81.7527C162.685 81.6472 162.528 81.5545 162.478 81.66C161.749 83.1939 160.805 84.7648 160.799 86.5153C160.799 86.5798 160.892 86.5793 160.896 86.5153Z" fill="#3D423E"/>
<path d="M164.922 82.4612C165.83 84.8522 167.25 87.0016 168.092 89.4213C168.583 90.8298 168.851 92.3325 169.174 93.7861C169.511 95.3047 169.823 96.8294 170.118 98.3577C171.283 104.377 172.057 110.451 173.002 116.505C173.008 116.54 173.068 116.531 173.063 116.496C172.338 110.416 171.379 104.339 170.226 98.3275C169.655 95.3569 169.143 92.2685 168.186 89.3957C167.375 86.9657 165.927 84.8082 164.944 82.4519C164.939 82.4402 164.918 82.4489 164.922 82.4612Z" fill="#3D423E"/>
<path d="M172.674 119.745C173.429 123.39 172.021 126.971 169.875 129.849C169.847 129.889 169.91 129.935 169.942 129.901C172.355 127.296 173.625 123.208 172.796 119.711C172.777 119.629 172.657 119.663 172.674 119.745Z" fill="#3D423E"/>
<path d="M163.627 132.209C164.532 127.163 165.037 122.022 164.784 116.892C164.655 114.267 164.337 111.655 164.065 109.044C163.798 106.469 163.911 103.895 163.712 101.319C163.708 101.265 163.625 101.264 163.628 101.319C163.772 103.8 163.641 106.274 163.89 108.753C164.15 111.368 164.471 113.976 164.629 116.6C164.941 121.808 164.44 127.06 163.565 132.192C163.558 132.233 163.619 132.251 163.627 132.209Z" fill="#3D423E"/>
<path d="M163.789 88.2439C164.065 90.5187 163.905 92.7981 163.944 95.0817C163.945 95.1134 163.992 95.1134 163.992 95.0817C164.042 92.8038 164.135 90.51 163.85 88.2439C163.845 88.2055 163.785 88.205 163.789 88.2439Z" fill="#3D423E"/>
<path d="M155.853 89.291C151.921 101.022 150.295 114.807 155.467 126.432C155.484 126.469 155.546 126.442 155.531 126.405C150.65 114.466 152.03 101.326 155.886 89.3008C155.892 89.2787 155.859 89.2695 155.853 89.291Z" fill="#3D423E"/>
<path d="M156.712 129.675C157.098 130.454 157.488 131.237 157.922 131.99C157.943 132.028 157.992 131.995 157.976 131.959C157.636 131.156 157.2 130.396 156.809 129.617C156.777 129.55 156.679 129.609 156.712 129.675Z" fill="#3D423E"/>
<path d="M164.829 134.342C168.497 134.35 172.185 132.556 175.424 130.972C178.317 129.558 180.624 127.27 181.96 124.309C183.554 120.778 183.717 116.586 183.889 112.77C184.096 108.149 183.863 103.51 183.307 98.9206C183.026 96.5981 182.645 94.2742 182.025 92.0173C181.403 89.7548 180.477 87.4518 178.826 85.7519C178.223 85.1304 177.339 84.391 176.461 84.2692C175.568 84.1453 174.711 84.9158 174.119 85.4837C173.351 86.2184 172.718 87.0959 172.12 87.972C171.445 88.9591 170.62 90.0753 170.598 91.3246C170.596 91.3998 170.704 91.3973 170.712 91.3246C170.884 89.7112 172.2 88.1348 173.169 86.8922C174.042 85.7724 175.502 83.9538 177.064 84.7392C179.929 86.1795 181.199 89.721 181.97 92.6378C182.883 96.0938 183.263 99.7193 183.529 103.276C183.876 107.901 183.869 112.569 183.396 117.186C183.148 119.598 182.79 121.989 181.819 124.225C180.991 126.126 179.709 127.771 178.117 129.075C176.339 130.532 174.162 131.427 172.069 132.312C169.78 133.278 167.333 134.156 164.829 134.225C164.754 134.226 164.754 134.341 164.829 134.342Z" fill="#3D423E"/>
<path d="M176.11 85.5642C177.563 88.2384 178.028 91.3017 178.333 94.2989C178.641 97.3218 178.902 100.345 179.235 103.366C179.609 106.751 179.845 110.157 179.73 113.567C179.611 117.113 178.952 120.547 177.884 123.92C177.862 123.989 177.964 124.014 177.99 123.949C180.535 117.312 180.11 110.018 179.34 103.087C178.997 99.999 178.739 96.9061 178.408 93.8177C178.104 90.9684 177.613 88.0351 176.197 85.513C176.164 85.4562 176.079 85.5074 176.11 85.5642Z" fill="#3D423E"/>
<path d="M172.01 132.143C173.703 130.468 175.648 129.029 176.994 127.03C177.015 127 176.969 126.973 176.947 127.001C175.503 128.92 173.65 130.412 171.975 132.107C171.952 132.131 171.987 132.166 172.01 132.143Z" fill="#3D423E"/>
<path d="M174.327 97.3477C176.168 102.411 176.783 107.756 177.005 113.115C177.007 113.166 177.084 113.166 177.085 113.115C177.133 107.784 176.343 102.3 174.414 97.3231C174.393 97.2694 174.306 97.2919 174.327 97.3477Z" fill="#3D423E"/>
<path d="M180.327 91.7921C180.833 94.9578 181.027 98.1639 181.545 101.328C181.551 101.365 181.616 101.356 181.611 101.318C181.245 98.1301 180.969 94.926 180.45 91.7588C180.437 91.6758 180.314 91.7112 180.327 91.7921Z" fill="#3D423E"/>
<path d="M182.45 115.445C182.068 118.338 181.522 121.162 180.556 123.92C180.534 123.981 180.634 124.024 180.66 123.965C181.838 121.271 182.276 118.346 182.636 115.445C182.65 115.324 182.466 115.327 182.45 115.445Z" fill="#3D423E"/>
<path d="M173.114 90.141C173.255 90.5808 173.336 91.0359 173.438 91.4855C173.449 91.5315 173.526 91.5223 173.521 91.4747C173.471 91.0073 173.391 90.5516 173.248 90.1031C173.221 90.0171 173.086 90.0544 173.114 90.141Z" fill="#3D423E"/>
<path d="M173.148 132.029C175.013 131.384 176.581 130.216 178.288 129.246C180.134 128.197 181.749 126.617 183.289 125.163C186.362 122.259 189.096 118.917 191.149 115.197C192.203 113.288 192.92 111.332 193.342 109.189C193.805 106.835 194.232 104.462 194.636 102.098C195.224 98.6491 195.677 94.465 193.105 91.6711C192.686 91.2138 192.006 90.8498 191.39 91.1304C190.828 91.3869 190.416 91.8881 189.988 92.3208C189.415 92.8999 188.869 93.5045 188.326 94.1118C187.364 95.1895 186.429 96.3185 185.621 97.5207C185.175 98.1832 184.678 98.8298 184.307 99.5385C183.947 100.221 183.731 100.973 183.379 101.661C183.342 101.735 183.449 101.799 183.49 101.726C184.005 100.824 184.302 99.8247 184.845 98.9333C185.492 97.8683 186.283 96.8755 187.056 95.9027C187.731 95.0528 188.448 94.2341 189.192 93.4441C189.562 93.0483 189.946 92.6638 190.329 92.2798C190.774 91.8354 191.206 91.2835 191.877 91.2451C192.679 91.199 193.3 92.1744 193.66 92.7626C194.15 93.5644 194.494 94.4512 194.704 95.3672C195.241 97.7045 194.77 100.309 194.369 102.628C193.964 104.977 193.569 107.345 193.088 109.679C192.617 111.959 191.674 114.017 190.509 116.014C188.272 119.848 185.273 123.229 181.991 126.176C180.601 127.426 179.18 128.592 177.537 129.485C176.04 130.3 174.722 131.284 173.101 131.854C172.993 131.892 173.039 132.066 173.148 132.029Z" fill="#3D423E"/>
<path d="M190.84 95.6756C189.728 99.4107 189.725 103.342 188.835 107.12C187.945 110.9 186.051 114.159 184.344 117.59C184.307 117.667 184.41 117.727 184.457 117.657C186.481 114.584 188.044 111.003 188.924 107.422C189.871 103.562 189.782 99.5233 190.891 95.6889C190.899 95.6572 190.85 95.6444 190.84 95.6756Z" fill="#3D423E"/>
<path d="M183.311 123.509C186.285 120.693 188.673 117.312 190.662 113.728C190.677 113.702 190.637 113.678 190.621 113.704C188.549 117.233 186.17 120.583 183.261 123.46C183.23 123.491 183.278 123.54 183.311 123.509Z" fill="#3D423E"/>
<path d="M193.117 92.5267C193.571 96.7159 193.294 100.896 192.737 105.058C192.726 105.135 192.839 105.172 192.855 105.091C193.682 101.017 193.83 96.6263 193.216 92.5134C193.208 92.4555 193.111 92.4694 193.117 92.5267Z" fill="#3D423E"/>
<path d="M185.65 104.846C185.428 105.748 185.203 106.649 184.985 107.553C184.982 107.565 185.002 107.57 185.005 107.558C185.234 106.657 185.454 105.754 185.678 104.853C185.681 104.835 185.655 104.828 185.65 104.846Z" fill="#3D423E"/>
<path d="M186.711 97.7676C186.265 99.2637 185.783 100.741 185.249 102.207C185.233 102.255 185.31 102.288 185.331 102.242C185.979 100.82 186.402 99.3026 186.846 97.805C186.871 97.7175 186.737 97.6806 186.711 97.7676Z" fill="#3D423E"/>
<path d="M159.238 134.287C155.713 133.546 152.572 132.1 150.344 129.146C149.115 127.52 148.185 125.603 147.255 123.793C146.186 121.717 145.297 119.528 144.637 117.283C143.372 112.983 143.572 108.48 143.957 104.059C144.308 100.047 145.051 96.0802 146.278 92.2473C147.244 89.2352 148.489 86.0363 150.647 83.6821C151.599 82.6427 153.172 81.4636 154.557 82.3872C155.614 83.0917 156.068 84.5653 156.768 85.578C156.825 85.6589 156.956 85.5836 156.901 85.4997C156.226 84.4665 155.827 83.251 154.914 82.3893C154.026 81.5501 152.883 81.8051 151.932 82.3842C149.451 83.8951 148.087 87.0915 147.057 89.6878C145.738 93.0158 144.871 96.5225 144.319 100.059C143.669 104.23 143.248 108.657 143.625 112.875C144.104 118.231 146.661 123.417 149.315 127.99C151.467 131.696 155.065 133.77 159.186 134.471C159.306 134.492 159.359 134.312 159.238 134.287Z" fill="#3D423E"/>
<path d="M152.477 82.7297C150.784 85.6517 149.502 88.8046 148.513 92.0358C147.512 95.3029 146.763 98.785 146.765 102.22C146.765 102.271 146.841 102.271 146.844 102.22C147.228 95.4104 149.298 88.7375 152.574 82.7871C152.611 82.7226 152.513 82.6657 152.477 82.7297Z" fill="#3D423E"/>
<path d="M146.299 106.427C146.273 109.791 146.718 113.123 147.295 116.429C147.302 116.463 147.359 116.455 147.354 116.42C146.915 113.1 146.469 109.783 146.418 106.427C146.417 106.35 146.3 106.35 146.299 106.427Z" fill="#3D423E"/>
<path d="M151.072 89.3586C150.689 90.5234 150.308 91.6954 150.043 92.8939C150.034 92.9344 150.093 92.9523 150.105 92.9114C150.439 91.7281 150.775 90.55 151.156 89.3821C151.174 89.3279 151.089 89.3048 151.072 89.3586Z" fill="#3D423E"/>
<path d="M157.429 133.939C152.935 133.643 148.55 132.886 144.567 130.644C141.249 128.774 138.628 125.985 136.806 122.628C135.055 119.401 134.116 115.775 133.57 112.156C132.891 107.641 132.756 103.024 132.479 98.4711C132.328 95.9761 132.308 93.3833 132.867 90.936C133.084 89.997 133.458 88.9622 134.298 88.4231C135.201 87.8419 136.486 88.4866 137.304 88.9233C139.037 89.8449 140.747 91.1536 141.884 92.771C142.577 93.7571 143.192 94.8799 143.572 96.0258C143.978 97.2535 144.062 98.5642 144.301 99.8294C144.312 99.8888 144.411 99.876 144.406 99.8156C144.236 97.8152 143.93 95.8921 142.972 94.1104C142.136 92.5575 141.096 91.3338 139.707 90.2704C138.5 89.3457 137.161 88.3662 135.653 88.0447C134.343 87.7646 133.484 88.6463 133.003 89.7835C132.32 91.3891 132.246 93.3224 132.19 95.0381C132.112 97.4553 132.362 99.8786 132.511 102.288C132.764 106.399 132.973 110.548 133.798 114.591C134.833 119.666 136.961 124.577 140.767 128.147C145.214 132.317 151.477 134.042 157.429 134.068C157.512 134.068 157.511 133.944 157.429 133.939Z" fill="#3D423E"/>
<path d="M134.897 89.6081C136.779 92.3278 137.215 95.6425 137.298 98.885C137.386 102.292 137.258 105.703 137.34 109.113C137.419 112.472 137.883 115.67 139.301 118.735C140.657 121.662 142.666 124.244 144.996 126.44C145.029 126.472 145.081 126.422 145.046 126.388C142.731 124.072 140.733 121.409 139.349 118.42C137.78 115.03 137.538 111.394 137.491 107.706C137.45 104.446 137.579 101.17 137.429 97.9142C137.293 94.9482 136.668 92.0339 134.936 89.585C134.92 89.5599 134.879 89.583 134.897 89.6081Z" fill="#3D423E"/>
<path d="M149.289 130.244C150.769 131.291 152.324 132.415 153.982 133.154C154.052 133.184 154.105 133.094 154.041 133.05C152.517 132.019 150.886 131.158 149.373 130.098C149.283 130.037 149.201 130.183 149.289 130.244Z" fill="#3D423E"/>
<path d="M140.085 94.5743C142.056 98.9417 141.172 103.684 141.272 108.306C141.272 108.352 141.34 108.352 141.341 108.306C141.47 103.725 142.12 98.8326 140.149 94.5369C140.129 94.4929 140.066 94.5313 140.085 94.5743Z" fill="#3D423E"/>
<path d="M139.606 124.601C142.044 127.342 145.369 129.266 148.639 130.813C148.691 130.838 148.738 130.763 148.685 130.732C145.53 128.872 142.232 127.246 139.736 124.47C139.657 124.382 139.528 124.513 139.606 124.601Z" fill="#3D423E"/>
<path d="M135.049 109.792C134.766 108.403 134.792 107.01 134.732 105.601C134.731 105.549 134.655 105.549 134.654 105.601C134.596 107.013 134.646 108.439 134.932 109.825C134.948 109.902 135.064 109.869 135.049 109.792Z" fill="#3D423E"/>
<path d="M158.902 134.505C160.367 138.958 160.607 143.603 160.309 148.257C160.008 152.926 159.29 157.578 158.787 162.229C157.718 172.111 156.404 181.966 154.885 191.788C153.019 203.855 150.796 215.862 148.44 227.839C148.427 227.904 148.524 227.932 148.538 227.867C152.603 208.701 155.77 189.321 158.127 169.866C158.505 166.735 158.859 163.601 159.191 160.464C159.505 157.488 159.913 154.524 160.234 151.547C160.849 145.856 161.01 139.924 159.077 134.455C159.039 134.345 158.865 134.392 158.902 134.505Z" fill="#3D423E"/>
<path d="M163.848 134.654C163.172 137.883 163.832 141.239 163.555 144.509C163.409 146.224 163.225 147.935 163.042 149.646C162.482 154.894 161.866 160.136 161.239 165.376C160.604 170.701 159.955 176.025 159.286 181.345C158.935 184.147 158.613 186.957 158.167 189.745C156.694 198.947 155.015 208.122 153.296 217.28C152.822 219.808 152.34 222.332 151.823 224.85C151.659 225.646 151.495 226.442 151.314 227.233C151.227 227.61 151.185 228.072 151.007 228.421C150.969 228.498 151.082 228.565 151.122 228.489C151.49 227.763 151.604 226.855 151.779 226.071C152.176 224.277 152.521 222.468 152.87 220.663C153.847 215.588 154.766 210.502 155.672 205.413C156.911 198.457 158.193 191.506 159.09 184.494C160.421 174.086 161.678 163.668 162.858 153.243C163.142 150.72 163.427 148.195 163.67 145.668C163.749 144.86 163.822 144.051 163.874 143.24C164.053 140.39 163.507 137.539 164.037 134.706C164.06 134.583 163.876 134.529 163.848 134.654Z" fill="#3D423E"/>
<path d="M148.439 227.878C148.865 227.941 149.295 227.99 149.723 228.049C150.062 228.095 150.6 228.118 150.87 228.358C151 228.474 151.156 228.274 151.016 228.169C150.745 227.965 150.32 227.952 149.996 227.91C149.483 227.845 148.967 227.819 148.453 227.773C148.393 227.768 148.379 227.869 148.439 227.878Z" fill="#3D423E"/>
<path d="M152.702 220.819C153.88 219.043 154.425 216.941 155.206 214.977C156.146 212.613 157.71 210.488 159.158 208.412C162.15 204.122 165.549 200.126 169.143 196.331C176.156 188.926 184.035 182.452 191.842 175.918C191.893 175.875 191.821 175.805 191.77 175.845C183.813 182.185 176.023 188.814 169 196.188C165.594 199.764 162.411 203.552 159.525 207.561C158.033 209.634 156.475 211.785 155.38 214.099C154.348 216.281 153.814 218.657 152.615 220.769C152.583 220.825 152.666 220.873 152.702 220.819Z" fill="#3D423E"/>
<path d="M156.027 213.189C159.892 206.644 161.302 199.03 164.673 192.252C168.047 185.468 173.252 179.488 178.901 174.502C184.984 169.132 192.008 165.485 199.072 161.612C202.646 159.653 205.955 157.389 209.324 155.109C212.768 152.776 216.326 150.619 219.757 148.268C220.575 147.708 221.38 147.131 222.179 146.543C222.693 146.165 222.716 146.101 222.529 146.746C222.394 147.21 222.258 147.674 222.122 148.139C221.528 150.17 220.921 152.197 220.288 154.216C219.017 158.271 217.595 162.279 215.906 166.181C212.744 173.481 207.988 179.403 202.057 184.66C196.235 189.82 189.828 193.834 182.904 197.338C176.142 200.759 169.233 203.937 163.15 208.517C161.817 209.52 160.583 210.498 159.075 211.233C157.737 211.886 156.551 212.564 155.53 213.664C155.395 213.809 155.611 214.027 155.748 213.882C157.059 212.481 158.694 211.822 160.347 210.941C162.086 210.015 163.561 208.569 165.17 207.439C168.271 205.261 171.597 203.418 174.953 201.67C181.679 198.169 188.635 195.103 194.882 190.755C200.764 186.66 206.319 181.651 210.672 175.947C215.406 169.746 218.026 162.104 220.368 154.747C221.303 151.808 222.161 148.844 223.021 145.882C223.046 145.792 222.935 145.688 222.851 145.752C219.542 148.259 216.032 150.473 212.547 152.723C209.105 154.944 205.82 157.403 202.307 159.511C195.596 163.539 188.418 166.676 182.202 171.503C176.394 176.014 171.294 181.358 167.233 187.497C163.067 193.793 161.273 201.01 158.434 207.918C157.7 209.704 156.869 211.443 155.898 213.113C155.848 213.197 155.978 213.273 156.027 213.189Z" fill="#3D423E"/>
<path d="M200.141 169.131C206.77 162.263 213.595 155.592 220.262 148.763C220.31 148.714 220.237 148.642 220.186 148.688C213.123 155.071 206.661 162.202 200.087 169.077C200.052 169.113 200.107 169.167 200.141 169.131Z" fill="#3D423E"/>
<path d="M175.855 197.807C182.261 195.084 187.645 190.416 193.171 186.283C198.823 182.057 204.452 177.675 209.125 172.35C209.159 172.311 209.103 172.254 209.067 172.293C204.24 177.49 198.762 181.911 193.097 186.157C187.586 190.286 182.206 195.008 175.84 197.782C175.823 197.789 175.837 197.814 175.855 197.807Z" fill="#3D423E"/>
<path d="M167.677 202.762C168.35 202.087 169.028 201.422 169.817 200.882C169.823 200.878 169.818 200.869 169.812 200.873C169.02 201.41 168.338 202.074 167.662 202.747C167.653 202.757 167.667 202.771 167.677 202.762Z" fill="#3D423E"/>
<path d="M171.307 187.489C177.138 180.264 182.373 172.53 190.07 167.111C190.093 167.096 190.071 167.058 190.048 167.074C182.263 172.437 177.066 180.163 171.272 187.453C171.252 187.478 171.286 187.514 171.307 187.489Z" fill="#3D423E"/>
<path d="M194.108 167.407C197.062 165.252 199.977 163.022 202.55 160.413C202.58 160.383 202.535 160.338 202.504 160.367C199.869 162.905 197.008 165.16 194.054 167.315C193.999 167.355 194.052 167.448 194.108 167.407Z" fill="#3D423E"/>
<path d="M212.085 166.73C213.127 165.44 214.231 164.198 215.162 162.822C215.189 162.781 215.125 162.746 215.097 162.784C214.111 164.109 213.039 165.364 212.007 166.652C211.964 166.707 212.04 166.784 212.085 166.73Z" fill="#3D423E"/>
<path d="M153.685 198.316C153.399 194.221 152.019 190.324 150.511 186.541C148.72 182.05 147.211 177.452 145.823 172.823C143.057 163.602 140.944 154.187 137.966 145.032C137.943 144.963 137.837 144.991 137.856 145.061C140.406 154.165 142.738 163.336 145.438 172.396C146.768 176.859 148.24 181.281 149.923 185.624C151.544 189.806 152.981 193.861 153.599 198.327C153.606 198.377 153.69 198.366 153.685 198.316Z" fill="#3D423E"/>
<path d="M152.178 191.553C150.464 185.772 145.617 182.541 141.233 178.85C135.969 174.417 132.959 168.291 130.851 161.842C128.615 155.003 127.53 147.824 126.702 140.698C126.317 137.387 126.086 134.052 125.641 130.749C125.377 128.793 125.045 126.85 124.663 124.913C124.474 123.953 124.267 122.996 124.059 122.04C123.865 121.153 123.788 119.742 123.285 119.027C130.633 129.47 142.552 135.948 147.8 147.976C150.697 154.613 151.758 162.038 152.215 169.21C152.433 172.617 152.552 176.093 152.319 179.502C152.066 183.2 151.03 186.805 151.596 190.53C151.621 190.692 151.868 190.623 151.843 190.462C151.238 186.465 152.491 182.542 152.676 178.564C152.833 175.161 152.692 171.721 152.459 168.326C151.993 161.523 150.892 154.516 148.218 148.203C142.988 135.859 130.791 129.216 123.273 118.572C123.191 118.456 123.008 118.525 123.042 118.669C123.998 122.849 124.921 127.031 125.47 131.287C125.909 134.688 126.164 138.117 126.57 141.524C127.39 148.405 128.527 155.287 130.642 161.9C132.549 167.86 135.339 173.784 140.013 178.064C144.567 182.236 150.114 185.329 152.065 191.584C152.088 191.656 152.2 191.626 152.178 191.553Z" fill="#3D423E"/>
<path d="M125.778 123.826C128.7 128.805 132.157 133.318 134.088 138.823C134.117 138.904 134.241 138.872 134.217 138.787C132.678 133.196 128.883 128.615 125.903 123.753C125.854 123.674 125.731 123.745 125.778 123.826Z" fill="#3D423E"/>
<path d="M142.946 146.077C145.802 150.519 146.619 155.63 147.114 160.792C147.118 160.848 147.205 160.849 147.202 160.792C146.875 155.601 145.957 150.43 143.056 146.012C143.012 145.944 142.901 146.008 142.946 146.077Z" fill="#3D423E"/>
<path d="M136.088 157.729C137.767 163.144 140.019 168.363 142.299 173.547C142.315 173.586 142.383 173.557 142.367 173.518C140.248 168.27 137.933 163.094 136.24 157.687C136.209 157.59 136.058 157.632 136.088 157.729Z" fill="#3D423E"/>
<path d="M128.98 137.331C129.139 139.14 129.509 140.916 129.828 142.702C129.836 142.749 129.903 142.728 129.897 142.684C129.651 140.898 129.292 139.128 129.135 137.331C129.127 137.232 128.972 137.231 128.98 137.331Z" fill="#3D423E"/>
<path d="M148.258 165.112C149.323 167.828 150.148 170.549 150.704 173.414C150.72 173.498 150.861 173.479 150.852 173.395C150.561 170.499 149.548 167.736 148.469 165.053C148.417 164.924 148.205 164.979 148.258 165.112Z" fill="#3D423E"/>
<path d="M129.669 69.4955C129.98 67.5642 130.386 65.6422 131.239 63.8686C132.181 61.9081 133.712 60.4367 135.564 59.3343C137.458 58.2064 139.554 57.4558 141.551 56.5388C143.404 55.6884 145.06 54.6352 146.562 53.2605C148.04 51.9088 149.366 50.4025 150.855 49.0621C152.266 47.7908 154.43 45.9819 156.472 46.477C158.273 46.9137 159.535 49.2326 160.274 50.7639C161.161 52.6015 161.316 54.69 161.007 56.6847C160.4 60.6153 158.092 64.1712 155.752 67.2944C153.291 70.5789 150.6 73.6765 147.319 76.1663C143.97 78.7063 140.148 80.6166 136.181 81.976C132.155 83.3553 127.76 84.3133 123.489 84.174C121.945 84.1233 120.414 83.8468 118.977 83.2708C118.944 83.3927 118.91 83.5151 118.877 83.6374C119.83 83.9431 121.204 83.2672 122.062 82.9186C123.442 82.3574 124.393 81.4087 125.343 80.2654C127.798 77.3106 129.274 73.2561 129.714 69.4724C129.73 69.3255 129.484 69.2932 129.457 69.4371C128.815 72.9504 127.637 76.4566 125.538 79.3786C124.664 80.5946 123.609 81.8055 122.226 82.4327C121.641 82.6974 121.032 82.9099 120.417 83.0906C119.991 83.2155 119.419 83.4111 118.977 83.2708C118.739 83.194 118.655 83.5483 118.877 83.6374C122.772 85.1959 127.247 84.558 131.236 83.7117C135.226 82.8643 139.1 81.4486 142.693 79.5158C146.268 77.5933 149.498 75.0681 152.25 72.0857C154.827 69.2927 157.229 66.1849 159.076 62.861C160.808 59.7455 162.012 56.1318 161.215 52.5565C160.831 50.8331 159.88 49.2669 158.797 47.8947C157.863 46.7104 156.624 45.9209 155.079 46.1908C153.356 46.4918 151.745 47.9024 150.488 49.0318C149 50.3697 147.671 51.8745 146.196 53.2256C142.891 56.2505 138.46 57.1486 134.757 59.5181C131.287 61.7392 130.003 65.5766 129.494 69.4724C129.481 69.5718 129.653 69.5948 129.669 69.4955Z" fill="#3D423E"/>
<path d="M130.118 80.4497C136.583 76.9543 142.797 72.3969 147.709 66.9093C152.277 61.8078 155.679 55.7677 158.712 49.6652C158.727 49.6339 158.682 49.6068 158.665 49.6375C155.457 55.6771 152.169 61.6613 147.611 66.811C145.157 69.585 142.341 71.9909 139.413 74.2489C136.464 76.5226 133.357 78.6101 130.092 80.4031C130.061 80.4195 130.088 80.4661 130.118 80.4497Z" fill="#3D423E"/>
<path d="M120.194 83.8256C122.206 83.7365 124.251 83.3192 126.155 82.6675C126.219 82.6454 126.193 82.5523 126.126 82.5661C124.145 82.9864 122.225 83.5394 120.194 83.7032C120.117 83.7094 120.115 83.8292 120.194 83.8256Z" fill="#3D423E"/>
<path d="M130.335 74.9029C131.021 73.1714 131.488 71.363 132.174 69.6314C132.945 67.6832 134.188 65.9813 135.637 64.4817C138.278 61.7497 141.692 59.9433 145.032 58.2225C145.055 58.2107 145.035 58.178 145.014 58.1887C141.539 59.8804 138.115 61.7968 135.405 64.599C134.136 65.9127 133.002 67.4549 132.29 69.1429C131.502 71.0153 131.028 72.9983 130.291 74.8907C130.281 74.9188 130.324 74.9301 130.335 74.9029Z" fill="#3D423E"/>
<path d="M148.39 54.3955C149.854 53.2834 151.504 52.3895 152.768 51.0337C152.8 50.9989 152.752 50.9502 152.716 50.982C151.334 52.2051 149.768 53.1672 148.32 54.3054C148.27 54.3453 148.337 54.4349 148.39 54.3955Z" fill="#3D423E"/>
<path d="M136.291 71.798C139.204 68.3906 142.604 65.4476 145.565 62.0863C145.59 62.0577 145.55 62.0167 145.524 62.0444C142.456 65.3017 139.134 68.3281 136.228 71.7355C136.191 71.779 136.254 71.841 136.291 71.798Z" fill="#3D423E"/>
<path d="M132.51 81.904C137.754 79.6942 142.684 76.9048 146.708 72.8267C146.729 72.8052 146.698 72.773 146.676 72.7945C142.578 76.7799 137.725 79.6297 132.495 81.8707C132.477 81.8789 132.49 81.9122 132.51 81.904Z" fill="#3D423E"/>
<path d="M155.912 62.297C157.415 59.7513 159.053 57.2671 160.287 54.5734C160.307 54.5299 160.244 54.491 160.221 54.535C158.868 57.1708 157.318 59.6909 155.833 62.2514C155.804 62.3021 155.882 62.3471 155.912 62.297Z" fill="#3D423E"/>
<path d="M134.683 50.4069C135.231 48.0809 137.083 46.3078 138.934 44.9218C139.876 44.2178 140.878 43.6808 141.951 43.2087C142.537 42.9517 143.12 42.6952 143.686 42.4018C144.28 42.0951 144.789 41.6486 145.405 41.389C147.277 40.6001 148.906 42.1806 149.86 43.6157C150.847 45.1021 151.371 46.741 151.559 48.5038C151.563 48.5504 151.628 48.5514 151.631 48.5038C151.764 46.7871 150.819 44.7841 149.887 43.3956C149.06 42.1617 147.602 40.768 145.967 41.0593C144.82 41.2636 143.874 42.0951 142.838 42.5835C141.508 43.2092 140.21 43.7494 139.004 44.6034C137.141 45.9254 134.829 47.9488 134.499 50.3562C134.481 50.474 134.653 50.5298 134.683 50.4069Z" fill="#3D423E"/>
<path d="M146.542 41.4879C145.566 43.6035 144.633 45.7227 143.566 47.7963C142.451 49.9626 141.181 52.0464 140.1 54.2306C140.089 54.2557 140.124 54.2777 140.138 54.2526C141.329 52.1283 142.487 49.9856 143.671 47.8582C144.793 45.841 145.945 43.7392 146.638 41.5284C146.655 41.4726 146.567 41.4337 146.542 41.4879Z" fill="#3D423E"/>
<path d="M137.856 48.2086C138.492 47.1744 139.162 46.1514 139.735 45.0798C139.757 45.0378 139.697 45.0035 139.671 45.0429C138.995 46.0521 138.407 47.1242 137.794 48.1728C137.771 48.2127 137.831 48.2475 137.856 48.2086Z" fill="#3D423E"/>
<path d="M143.158 55.0888C145.672 52.6793 148.159 50.1347 149.836 47.0519C149.847 47.0324 149.817 47.015 149.807 47.0345C148.044 50.0814 145.653 52.6353 143.132 55.0632C143.114 55.0795 143.14 55.1057 143.158 55.0888Z" fill="#3D423E"/>
<path d="M106.738 42.4532C106.69 40.44 107.817 38.4924 109.386 37.2825C110.143 36.6999 111.086 36.3492 112.044 36.4905C113.207 36.662 114.231 37.602 115.088 38.3326C115.87 39.0003 116.636 39.6777 117.531 40.1953C118.432 40.7175 119.479 40.9674 120.418 41.4159C121.554 41.9586 122.313 42.8075 122.664 44.0205C122.959 45.0388 123.074 46.2098 123.708 47.0904C123.765 47.1698 123.914 47.1252 123.878 47.0187C123.462 45.8099 123.22 44.5319 122.761 43.3431C122.396 42.3913 121.618 41.7267 120.745 41.2531C119.697 40.6853 118.511 40.4324 117.472 39.8436C116.255 39.1524 115.268 38.0992 114.155 37.2605C113.353 36.6558 112.434 36.1633 111.408 36.1822C110.475 36.1991 109.613 36.7137 108.911 37.2846C107.478 38.4509 106.249 40.586 106.529 42.4814C106.547 42.6017 106.742 42.571 106.738 42.4532Z" fill="#3D423E"/>
<path d="M111.052 36.8013C110.806 38.1458 110.786 39.5799 111.182 40.8994C111.197 40.9536 111.273 40.9301 111.264 40.8763C111.041 39.5241 111.016 38.1806 111.187 36.8197C111.196 36.7435 111.066 36.726 111.052 36.8013Z" fill="#3D423E"/>
<path d="M118.521 43.8119C118.971 44.5425 119.592 45.4355 120.383 45.8266C120.423 45.8461 120.464 45.7969 120.431 45.7632C120.136 45.4621 119.772 45.2215 119.462 44.9327C119.102 44.5978 118.799 44.2164 118.529 43.8068C118.526 43.8017 118.517 43.8068 118.521 43.8119Z" fill="#3D423E"/>
<path d="M115.432 38.8412C115.729 39.492 115.902 40.2026 116.287 40.8114C116.319 40.8611 116.407 40.8293 116.386 40.7694C116.147 40.089 115.897 39.405 115.567 38.7624C115.52 38.6713 115.39 38.7511 115.432 38.8412Z" fill="#3D423E"/>
<path d="M93.296 45.8858C92.485 44.2745 92.1624 42.2798 92.253 40.4898C92.3027 39.518 92.5628 38.5263 93.1864 37.7619C94.2606 36.4445 96.0582 36.5669 97.4421 37.2371C98.5179 37.7578 99.3058 38.6809 100.345 39.2487C101.324 39.7838 102.482 39.9092 103.543 40.2082C106.188 40.9547 107.416 43.7902 108.501 46.0665C108.574 46.2206 108.8 46.0865 108.729 45.9334C107.647 43.6115 106.432 40.9363 103.826 40.0597C102.367 39.5687 100.872 39.5063 99.6105 38.5207C98.5301 37.6764 97.4928 36.8515 96.1094 36.5868C93.8955 36.1634 92.3503 37.897 92.1051 39.9215C91.8567 41.97 92.3237 44.0805 93.2622 45.9052C93.2745 45.9278 93.3072 45.9083 93.296 45.8858Z" fill="#3D423E"/>
<path d="M95.5319 39.5436C96.5421 42.4984 98.1841 45.2678 100.877 46.9702C100.911 46.9927 100.954 46.939 100.921 46.9129C98.4078 44.9422 96.6988 42.5245 95.6169 39.5201C95.5975 39.4673 95.5135 39.4899 95.5319 39.5436Z" fill="#3D423E"/>
<path d="M94.3587 37.2556C94.48 37.6217 94.5747 37.9986 94.8174 38.3068C94.8451 38.3426 94.8947 38.2971 94.8768 38.2607C94.7094 37.9279 94.6085 37.5716 94.4949 37.2183C94.4667 37.1317 94.329 37.1691 94.3587 37.2556Z" fill="#3D423E"/>
<path d="M103.258 43.2195C104.177 44.1468 105.047 45.1349 106.097 45.9198C106.122 45.9393 106.154 45.8968 106.131 45.8758C105.152 45.0105 104.252 44.072 103.33 43.1468C103.283 43.1002 103.211 43.1724 103.258 43.2195Z" fill="#3D423E"/>
<path d="M96.1864 44.8664C96.6354 45.425 97.0916 45.9779 97.5473 46.5314C97.558 46.5452 97.5765 46.5258 97.5657 46.5124C97.1249 45.9472 96.6625 45.3988 96.2145 44.8387C96.1982 44.8193 96.1705 44.8464 96.1864 44.8664Z" fill="#3D423E"/>
<path d="M99.1869 50.211C99.8249 50.933 100.63 51.4777 101.293 52.174C101.317 52.1996 101.352 52.1623 101.331 52.1362C100.719 51.3886 99.9017 50.8572 99.2637 50.1347C99.2177 50.083 99.1424 50.1588 99.1869 50.211Z" fill="#3D423E"/>
<path d="M124.537 47.0614C124.72 45.6958 125.655 44.4993 126.504 43.4676C127.506 42.2516 128.66 41.1206 129.926 40.1811C131.814 38.7782 133.922 38.9938 135.937 40.0562C137.582 40.923 139.608 42.1006 140.061 44.0344C140.076 44.1005 140.188 44.0871 140.181 44.018C139.993 42.2419 137.994 40.9936 136.6 40.1806C134.689 39.0649 132.426 38.3737 130.389 39.5984C128.891 40.4985 127.6 41.8466 126.472 43.162C125.628 44.1465 124.306 45.6416 124.405 47.0434C124.409 47.1141 124.526 47.1407 124.537 47.0614Z" fill="#3D423E"/>
<path d="M131.714 40.5914C132.111 42.4146 132.399 44.2373 132.476 46.1041C132.477 46.1404 132.531 46.1404 132.532 46.1041C132.579 44.2184 132.243 42.3916 131.833 40.5591C131.816 40.4818 131.699 40.5146 131.714 40.5914Z" fill="#3D423E"/>
<path d="M134.741 40.0883C135.148 40.8149 135.412 41.5496 135.589 42.3611C135.601 42.4118 135.684 42.4011 135.68 42.3488C135.625 41.5127 135.265 40.7391 134.858 40.0192C134.815 39.9419 134.697 40.0115 134.741 40.0883Z" fill="#3D423E"/>
<path d="M129.104 46.8465C129.217 46.3001 129.258 45.7216 129.206 45.1656C129.2 45.1154 129.132 45.1154 129.127 45.1656C129.074 45.7185 129.109 46.272 129.019 46.8229C129.01 46.8782 129.092 46.9028 129.104 46.8465Z" fill="#3D423E"/>
<path d="M109.27 73.2404C109.706 75.7754 110.3 78.1167 112.274 79.9021C114.418 81.842 116.978 83.2879 119.807 83.9284C119.822 83.8184 119.837 83.7078 119.852 83.5977C117.377 83.4124 114.918 83.0939 112.531 82.3955C110.309 81.7463 108.11 81.0479 105.877 80.4274C101.985 79.3445 98.5301 77.6529 95.8749 74.5445C91.3923 69.2955 90.0734 62.0164 88.6045 55.4838C88.2491 53.9027 87.8646 52.3329 87.4432 50.7677C86.8867 48.7059 86.2052 46.6958 85.9815 44.5592C85.7746 42.5865 86.1423 40.0905 87.9092 38.8776C88.8103 38.2591 89.5747 38.9093 90.0048 39.7219C90.4927 40.6429 90.7748 41.7018 91.2013 42.6577C91.9601 44.356 92.958 45.9109 94.2191 47.279C95.7033 48.8928 97.4124 50.3044 98.9325 51.8895C102.191 55.2882 104.758 59.119 106.534 63.4838C107.811 66.6193 108.666 69.914 109.281 73.2374C109.315 73.4227 109.593 73.3428 109.562 73.1601C108.789 68.5874 107.434 64.1463 105.302 60.0191C103.292 56.1284 100.41 52.8285 97.2849 49.798C95.7238 48.2851 94.0854 46.9042 92.8607 45.0876C91.7456 43.4333 91.1783 41.5855 90.3529 39.7946C89.8461 38.6958 88.9403 37.9391 87.7658 38.6339C86.4623 39.4054 85.874 41.2 85.7055 42.6039C85.4654 44.6022 86.0342 46.6564 86.5693 48.561C87.0418 50.2445 87.5011 51.9177 87.9015 53.6201C88.6808 56.9332 89.3464 60.2725 90.2726 63.5493C92.0768 69.9283 95.0782 76.1184 101.314 79.1443C104.152 80.5211 107.306 81.07 110.298 81.9987C111.852 82.4805 113.352 83.0084 114.954 83.3253C116.568 83.6443 118.212 83.8102 119.852 83.9341C120.042 83.9484 120.08 83.6453 119.896 83.6033C117.18 82.9859 114.814 81.628 112.705 79.833C110.641 78.0758 110.033 75.7216 109.573 73.157C109.538 72.9563 109.236 73.0418 109.27 73.2404Z" fill="#3D423E"/>
<path d="M88.023 40.7843C88.3537 48.8243 91.7949 56.0788 96.0532 62.7609C98.2143 66.1519 100.572 69.4102 102.899 72.687C105.091 75.7718 107.349 78.5914 110.784 80.3588C110.834 80.3839 110.873 80.3153 110.827 80.2846C109.311 79.2929 107.847 78.2878 106.556 77.0058C105.157 75.6167 104.068 73.9752 102.924 72.3804C100.63 69.1824 98.3229 65.9911 96.2068 62.6713C92.0017 56.0747 88.4853 48.7229 88.1039 40.7843C88.1013 40.7326 88.0209 40.7321 88.023 40.7843Z" fill="#3D423E"/>
<path d="M94.2878 50.4165C98.7114 55.6077 102.298 61.2136 104.732 67.6008C104.742 67.6284 104.787 67.6172 104.777 67.589C102.563 61.1475 98.7985 55.4618 94.3574 50.3474C94.3154 50.2993 94.2473 50.3689 94.2878 50.4165Z" fill="#3D423E"/>
<path d="M101.279 65.4224C103.345 69.2082 105.761 72.8321 108.053 76.4847C108.085 76.5359 108.16 76.4914 108.133 76.4381C106.218 72.57 103.49 69.1263 101.345 65.3846C101.32 65.3415 101.256 65.3799 101.279 65.4224Z" fill="#3D423E"/>
<path d="M94.8627 66.9144C96.5563 69.6372 98.6402 72.101 100.966 74.3041C101.01 74.3451 101.073 74.2821 101.032 74.2381C98.844 71.91 96.7258 69.5364 95.0337 66.8146C94.9666 66.706 94.7951 66.8054 94.8627 66.9144Z" fill="#3D423E"/>
<path d="M90.5712 57.3987C91.0238 58.4759 91.7124 59.4164 92.2961 60.4225C92.3299 60.4809 92.4113 60.4297 92.3847 60.3703C91.9111 59.3258 91.2163 58.4012 90.7714 57.3439C90.7207 57.2215 90.5185 57.2753 90.5712 57.3987Z" fill="#3D423E"/>
<path d="M101.768 54.8673C101.602 53.0876 102.844 51.5096 103.948 50.2527C105.058 48.9896 106.359 47.7807 107.718 46.791C109.424 45.5484 111.432 44.6872 113.512 44.336C115.608 43.9827 117.578 44.4512 119.464 45.3534C121.046 46.1101 122.551 46.9851 124.3 47.2984C125.153 47.451 126.019 47.3804 126.879 47.386C127.869 47.3921 128.854 47.4787 129.823 47.6799C134.015 48.5513 136.754 52.5173 137.538 56.5278C137.634 57.0157 137.692 57.5103 137.739 58.0049C137.756 58.1912 138.048 58.1948 138.032 58.0049C137.723 54.235 135.9 50.4503 132.588 48.4351C131.203 47.5923 129.584 47.2606 127.986 47.1418C127.073 47.0742 126.161 47.1249 125.248 47.1023C124.222 47.0778 123.233 46.7675 122.29 46.3891C120.624 45.721 119.113 44.7338 117.374 44.2438C115.627 43.7528 113.752 43.932 112.026 44.4133C108.627 45.3621 105.764 47.7664 103.507 50.4063C102.519 51.5614 101.254 53.2607 101.693 54.8776C101.704 54.9175 101.771 54.9103 101.768 54.8673Z" fill="#3D423E"/>
<path d="M118.673 82.0832C116.705 76.7317 116.928 70.6349 117.532 65.0541C117.853 62.0932 118.336 59.1604 119.289 56.3316C120.324 53.255 121.916 50.4661 123.577 47.6952C123.612 47.6379 123.525 47.5897 123.489 47.6435C121.695 50.2209 120.26 53.0768 119.208 56.0336C118.199 58.8696 117.718 61.8366 117.379 64.817C116.734 70.4592 116.491 76.721 118.585 82.1072C118.607 82.1605 118.693 82.1385 118.673 82.0832Z" fill="#3D423E"/>
<path d="M128.907 47.9319C127.875 49.2272 127.613 50.924 127.288 52.5025C126.872 54.5187 126.184 56.4761 125.712 58.4821C124.675 62.8833 124.057 67.4555 123.913 71.9759C123.912 72.0235 123.983 72.0225 123.986 71.9759C124.319 67.542 124.837 63.1613 125.85 58.8257C126.308 56.8699 126.975 54.9703 127.431 53.0181C127.83 51.3106 128.063 49.5288 129.018 48.0174C129.061 47.9508 128.958 47.8679 128.907 47.9319Z" fill="#3D423E"/>
<path d="M132.929 52.4416C131.895 55.4486 131.503 58.6266 130.475 61.6356C130.454 61.696 130.546 61.7185 130.568 61.6612C131.753 58.7008 132.126 55.5126 133.122 52.4948C133.163 52.3709 132.971 52.3202 132.929 52.4416Z" fill="#3D423E"/>
<path d="M121.801 81.2725C122.458 79.48 123.303 77.7284 123.671 75.8448C123.68 75.8002 123.615 75.7818 123.603 75.8263C123.097 77.6808 122.352 79.438 121.717 81.2489C121.698 81.3027 121.782 81.3247 121.801 81.2725Z" fill="#3D423E"/>
<path d="M113.248 46.1731C109.929 51.522 108.406 58.5963 110.441 64.6876C110.463 64.751 110.561 64.7254 110.543 64.6599C108.844 58.4094 109.97 51.7345 113.37 46.2448C113.418 46.1665 113.296 46.0958 113.248 46.1731Z" fill="#3D423E"/>
<path d="M111.121 69.8892C111.448 73.0231 112.231 76.1351 113.582 78.9889C113.604 79.0366 113.685 79.0023 113.667 78.9526C112.558 76.003 111.657 73.0354 111.324 69.8892C111.31 69.7607 111.108 69.7596 111.121 69.8892Z" fill="#3D423E"/>
<path d="M114.291 69.5764C114.358 68.2283 114.271 66.8823 114.221 65.5347C114.163 63.9828 114.306 62.4949 114.599 60.9697C115.126 58.2197 116.035 55.5604 116.476 52.7915C116.484 52.7423 116.411 52.7208 116.401 52.7705C115.823 55.606 114.926 58.3667 114.383 61.2108C114.127 62.5518 114.02 63.8804 114.063 65.2454C114.107 66.6913 114.257 68.1285 114.205 69.5764C114.203 69.6317 114.289 69.6312 114.291 69.5764Z" fill="#3D423E"/>
<path d="M106.04 50.0487C105.197 52.13 104.885 54.4417 105.324 56.6566C105.337 56.7211 105.443 56.7067 105.439 56.6407C105.286 54.3961 105.399 52.2196 106.181 50.0881C106.215 49.998 106.074 49.9632 106.04 50.0487Z" fill="#3D423E"/>
<path d="M116.974 83.6599C116.786 93.627 116.325 103.55 115.447 113.482C114.569 123.414 113.407 133.317 112.288 143.223C110.053 163.01 107.991 182.891 108.632 202.833C108.852 209.666 109.368 216.501 110.434 223.257C110.444 223.325 110.562 223.309 110.553 223.241C109.353 213.282 108.733 203.295 108.802 193.263C108.871 183.305 109.535 173.361 110.445 163.448C112.268 143.598 115.125 123.848 116.47 103.951C116.926 97.2079 117.275 90.4209 117.155 83.6599C117.153 83.5432 116.977 83.5432 116.974 83.6599Z" fill="#3D423E"/>
<path d="M121.334 83.9733C120.815 90.3032 120.182 96.6248 119.6 102.949C118.629 113.523 117.7 124.099 116.875 134.685C115.936 146.731 115.121 158.789 114.576 170.86C114.09 181.611 113.766 192.398 114.152 203.157C114.293 207.092 114.533 211.035 115.055 214.942C115.421 217.669 115.909 220.385 116.961 222.937C117.013 223.064 117.221 223.009 117.168 222.88C116.093 220.269 115.674 217.304 115.313 214.524C114.785 210.434 114.563 206.304 114.432 202.183C114.087 191.33 114.441 180.453 114.945 169.61C115.507 157.546 116.338 145.492 117.285 133.45C118.108 122.968 119.034 112.493 119.992 102.022C120.542 96.0115 121.2 89.9985 121.558 83.9733C121.566 83.8294 121.346 83.832 121.334 83.9733Z" fill="#3D423E"/>
<path d="M110.288 223.205C112.472 223.422 114.662 223.618 116.857 223.516C116.921 223.514 116.974 223.466 116.974 223.401C116.974 223.177 116.974 222.954 116.974 222.73C116.974 222.58 116.742 222.58 116.742 222.73C116.742 223.712 114.663 223.311 113.991 223.283C112.755 223.23 111.524 223.103 110.288 223.061C110.194 223.057 110.197 223.196 110.288 223.205Z" fill="#3D423E"/>
<path d="M109.377 214.2C109.994 209.737 108.133 205.146 106.706 201.008C104.973 195.984 103.336 190.971 101.302 186.052C97.0597 175.799 92.2597 165.827 88.923 155.219C88.9015 155.15 88.795 155.179 88.815 155.248C91.7252 165.685 96.6808 175.455 100.854 185.416C102.886 190.264 104.559 195.194 106.241 200.168C107.769 204.689 109.646 209.323 109.282 214.187C109.278 214.241 109.37 214.254 109.377 214.2Z" fill="#3D423E"/>
<path d="M108.174 205.172C108.116 202.487 106.876 199.909 106.378 197.287C105.777 194.119 105.546 190.891 105.23 187.688C104.616 181.469 103.522 175.344 101.927 169.301C100.452 163.713 97.6575 158.8 94.5952 153.944C91.2247 148.601 88.2377 143.053 85.3101 137.456C85.2615 137.363 85.1248 137.411 85.1217 137.508C84.8862 143.899 84.0864 150.263 85.5584 156.57C86.3218 159.842 87.2403 163.013 87.502 166.38C87.7447 169.499 87.6376 172.629 88.0462 175.739C89.4563 186.472 96.9904 194.433 104.288 201.767C105.492 202.977 106.722 204.158 108.019 205.268C108.151 205.381 108.344 205.191 108.211 205.076C105.954 203.106 103.882 200.94 101.765 198.823C99.8821 196.94 98.0778 194.976 96.398 192.909C92.9589 188.676 90.1572 183.879 88.8178 178.56C88.0718 175.595 87.9454 172.534 87.8558 169.492C87.7631 166.351 87.4462 163.316 86.7007 160.258C85.8984 156.969 85.0705 153.794 84.8969 150.393C84.7315 147.143 84.984 143.883 85.1724 140.64C85.2179 139.857 85.2589 139.074 85.2937 138.291C85.3168 137.768 85.2579 137.792 85.5031 138.261C85.6869 138.612 85.8712 138.962 86.0556 139.312C86.7903 140.708 87.5322 142.1 88.2812 143.487C89.8198 146.337 91.3624 149.199 93.092 151.936C96.2992 157.011 99.6016 162.076 101.341 167.878C103.194 174.062 104.287 180.5 104.968 186.909C105.297 190.004 105.522 193.108 106.018 196.183C106.257 197.665 106.566 199.133 107.019 200.565C107.493 202.067 108.006 203.584 108.056 205.172C108.058 205.248 108.176 205.249 108.174 205.172Z" fill="#3D423E"/>
<path d="M85.1817 138.011C85.6379 141.188 86.05 144.438 86.9235 147.53C86.9373 147.578 87.009 147.557 86.9983 147.509C86.304 144.365 86.1207 141.093 85.2544 137.991C85.2406 137.943 85.1745 137.964 85.1817 138.011Z" fill="#3D423E"/>
<path d="M90.5227 150.235C95.6821 159.284 100.315 168.503 102.469 178.769C102.481 178.827 102.565 178.802 102.556 178.745C100.835 168.511 95.8705 159.005 90.6384 150.166C90.5943 150.093 90.4797 150.16 90.5227 150.235Z" fill="#3D423E"/>
<path d="M90.6336 171.942C92.1364 181.084 98.3019 188.603 102.738 196.478C102.77 196.534 102.851 196.485 102.823 196.429C98.7396 188.234 92.439 181.167 90.7954 171.897C90.7765 171.79 90.6162 171.836 90.6336 171.942Z" fill="#3D423E"/>
<path d="M65.5593 92.7108C66.6796 91.0227 69.127 90.3428 71.05 90.6873C72.9588 91.0288 73.9899 92.7446 74.7815 94.3405C74.846 94.471 75.081 94.4055 75.0605 94.2575C75.0098 93.8909 76.0088 93.2228 76.2622 93.0226C77.021 92.4251 78.0946 92.1583 79.0367 92.0493C81.308 91.7856 83.593 93.2934 84.38 95.3988C84.4399 95.558 84.6918 95.4858 84.6349 95.3225C83.8377 93.019 81.4165 91.6141 79.0306 91.7881C78.004 91.8629 76.8664 92.2356 76.04 92.8608C75.6857 93.1291 74.697 93.7404 74.759 94.2647C74.8521 94.2376 74.9453 94.2094 75.038 94.1823C74.1456 92.2894 72.9065 90.631 70.6932 90.374C68.8418 90.1595 66.4159 90.9741 65.4656 92.6585C65.4313 92.72 65.5215 92.7676 65.5593 92.7108Z" fill="#3D423E"/>
<path d="M74.7691 94.7629C74.4097 98.1319 73.976 101.488 73.5639 104.85C73.1594 108.148 72.9894 111.451 72.8112 114.767C72.6325 118.103 72.4759 121.443 72.461 124.784C72.4528 126.448 72.4953 128.113 72.4933 129.779C72.4917 131.511 72.4083 133.269 72.5706 134.996C72.5747 135.044 72.6428 135.041 72.6453 134.994C72.8128 131.7 72.6361 128.372 72.633 125.074C72.6295 121.635 72.7994 118.197 72.9822 114.763C73.1619 111.365 73.3591 107.984 73.7717 104.604C74.1716 101.332 74.723 98.0571 74.8741 94.7603C74.8771 94.6912 74.7763 94.6974 74.7691 94.7629Z" fill="#3D423E"/>
<path d="M79.2111 93.5237C78.9417 94.881 78.695 96.2388 78.356 97.5823C78.3427 97.6355 78.4205 97.6535 78.4379 97.6028C78.889 96.2905 79.0784 94.9132 79.3385 93.5554C79.3544 93.4725 79.2274 93.4402 79.2111 93.5237Z" fill="#3D423E"/>
<path d="M69.3818 90.9282C69.3019 95.5772 69.7135 100.239 69.8794 104.883C69.8804 104.91 69.9219 104.909 69.9209 104.882C69.8646 100.23 69.6331 95.5751 69.4795 90.9257C69.4775 90.8622 69.3828 90.8642 69.3818 90.9282Z" fill="#3D423E"/>
<path d="M70.166 121.981C70.2218 123.978 70.4471 125.978 70.7733 127.949C70.7789 127.983 70.8362 127.975 70.8327 127.94C70.6263 125.95 70.3258 123.981 70.2684 121.977C70.2669 121.912 70.1645 121.914 70.166 121.981Z" fill="#3D423E"/>
<path d="M76.9739 92.5986C76.6411 93.1843 76.7143 93.9943 76.7102 94.6435C76.7097 94.6988 76.8003 94.7111 76.809 94.6543C76.913 93.9815 76.934 93.3021 77.0563 92.6309C77.065 92.5822 76.9995 92.5536 76.9739 92.5986Z" fill="#3D423E"/>
<path d="M85.8662 134.828C84.1582 135.846 82.3027 136.587 80.4968 137.41C79.4785 137.874 78.4468 138.337 77.3665 138.639C76.3793 138.914 75.3308 138.918 74.3144 138.949C74.3226 138.999 74.3308 139.051 74.3385 139.101C75.7486 138.727 76.6492 136.824 77.1622 135.604C77.9517 133.726 78.0874 131.559 77.9199 129.553C77.7377 127.348 77.1002 125.174 76.706 123.001C76.2815 120.666 76.15 118.293 76.0394 115.926C75.8223 111.321 76.109 106.678 77.9967 102.411C79.6254 98.7292 82.8761 96.1487 86.4954 94.5748C88.1533 93.8544 90.0129 93.3516 91.8207 93.7208C93.9266 94.1509 95.1774 96.1221 95.926 97.9765C96.6991 99.8914 97.0421 102.001 97.3032 104.039C97.6023 106.376 97.6524 108.742 97.5316 111.094C97.0815 119.871 93.795 129.033 86.4698 134.39C86.2691 134.537 86.0602 134.672 85.8524 134.806C85.7413 134.878 85.8462 135.049 85.9604 134.981C89.3872 132.907 92.1044 129.393 93.9763 125.905C95.9608 122.207 97.0278 118.082 97.5301 113.937C98.0595 109.567 97.8659 105.114 96.9402 100.813C96.291 97.7968 94.8682 93.7653 91.2632 93.4381C89.5997 93.2871 87.9679 93.7858 86.4504 94.4263C84.8468 95.1027 83.3262 95.9833 81.9709 97.0764C78.8692 99.5765 77.1893 103.122 76.3886 106.963C75.5002 111.224 75.8141 115.665 76.1489 119.97C76.5109 124.626 78.5006 129.121 77.5467 133.826C77.3265 134.915 76.9169 135.952 76.3266 136.893C75.8136 137.71 75.2944 138.687 74.294 138.952C74.2079 138.975 74.2305 139.107 74.318 139.105C75.2729 139.077 76.2201 139.044 77.1586 138.852C78.2471 138.63 79.2942 138.123 80.3028 137.673C82.2028 136.824 84.1576 136.031 85.9455 134.957C86.0295 134.907 85.9502 134.778 85.8662 134.828Z" fill="#3D423E"/>
<path d="M90.6713 94.3481C89.5439 95.4427 88.758 96.8103 88.0407 98.1947C87.2706 99.6836 86.5548 101.203 85.9568 102.769C84.6123 106.288 83.9411 110.013 83.9605 113.778C83.982 117.862 84.5509 121.93 83.9918 126.002C83.4854 129.696 81.8086 132.845 80.0535 136.066C80.0192 136.13 80.1103 136.176 80.1492 136.119C82.016 133.417 83.3748 130.285 84.0123 127.065C84.7675 123.248 84.344 119.333 84.1843 115.482C84.0189 111.493 84.4812 107.631 85.7449 103.836C86.3372 102.059 87.1262 100.372 87.9593 98.6985C88.7155 97.1769 89.5567 95.6506 90.7722 94.4448C90.8367 94.3808 90.7353 94.2851 90.6713 94.3481Z" fill="#3D423E"/>
<path d="M93.0298 96.6428C91.5261 100.481 91.609 104.616 92.012 108.653C92.4267 112.803 93.1235 116.897 93.0903 121.081C93.0897 121.129 93.1599 121.125 93.163 121.079C93.7287 112.929 90.0623 104.643 93.1476 96.673C93.1763 96.5998 93.0585 96.5716 93.0298 96.6428Z" fill="#3D423E"/>
<path d="M84.4045 134.386C88.3853 132.649 90.8787 128.257 92.0404 124.252C92.0542 124.206 91.9836 124.189 91.9677 124.234C90.5925 128.173 88.3581 132.505 84.3748 134.321C84.3374 134.338 84.3666 134.402 84.4045 134.386Z" fill="#3D423E"/>
<path d="M94.7202 104.239C94.7515 105.532 94.7842 106.827 94.8267 108.12C94.8277 108.144 94.8641 108.144 94.8641 108.119C94.8482 106.825 94.8211 105.531 94.7924 104.237C94.7914 104.19 94.7192 104.192 94.7202 104.239Z" fill="#3D423E"/>
<path d="M83.0822 98.2852C79.0922 103.798 78.1829 110.661 78.4348 117.309C78.4374 117.362 78.5157 117.36 78.5167 117.307C78.572 113.996 78.6596 110.704 79.3067 107.444C79.9565 104.172 81.2267 101.054 83.1555 98.3257C83.1872 98.2811 83.1135 98.2422 83.0822 98.2852Z" fill="#3D423E"/>
<path d="M79.0537 120.582C79.0839 122.174 79.0885 123.769 79.2032 125.359C79.2078 125.429 79.3108 125.426 79.3123 125.356C79.3538 123.763 79.2857 122.169 79.2427 120.577C79.2396 120.456 79.0517 120.46 79.0537 120.582Z" fill="#3D423E"/>
<path d="M77.6273 137.818C79.0655 136.084 79.9763 134.236 80.2554 131.988C80.2589 131.957 80.2129 131.944 80.2077 131.976C79.857 134.185 78.9907 136.041 77.575 137.768C77.5459 137.805 77.5976 137.854 77.6273 137.818Z" fill="#3D423E"/>
<path d="M88.334 121.875C89.0682 118.655 89.1911 115.348 88.912 112.065C88.909 112.032 88.8588 112.033 88.8608 112.066C89.0093 115.355 88.9658 118.624 88.2454 121.852C88.2326 121.91 88.3207 121.931 88.334 121.875Z" fill="#3D423E"/>
<path d="M68.2474 114.416C67.3243 119.515 66.9782 124.807 68.1645 129.894C68.7046 132.21 69.7988 134.23 70.9861 136.264C71.4213 137.011 71.876 137.759 72.5938 138.267C73.1867 138.683 73.9378 139.191 74.6966 139.161C74.6956 139.091 74.6935 139.022 74.692 138.953C70.0896 139.46 65.6198 136.521 62.3748 133.554C59.2178 130.67 56.9087 126.878 55.7372 122.771C53.4747 114.836 55.0854 106.296 56.0777 98.2912C56.409 95.6206 56.7382 92.5921 58.396 90.368C59.3151 89.1346 60.7026 88.4782 62.1577 89.1986C63.4935 89.8596 64.4504 91.2589 65.2348 92.4749C67.2582 95.6124 68.3995 99.2451 68.7835 102.943C69.1813 106.772 68.722 110.609 68.1829 114.401C68.1609 114.554 68.3928 114.616 68.4205 114.46C69.8193 106.526 69.7261 97.9676 64.7254 91.2271C63.9011 90.1166 62.8433 88.9815 61.4527 88.6405C60.1409 88.319 58.9649 89.2099 58.1999 90.1811C56.3654 92.5102 56.1018 95.9171 55.7823 98.7494C54.8986 106.599 53.4225 114.804 55.4725 122.593C56.4878 126.45 58.5839 129.976 61.3426 132.841C64.1821 135.789 68.0088 138.4 72.1007 139.096C72.9588 139.242 73.8333 139.255 74.6966 139.161C74.8277 139.145 74.8277 138.948 74.692 138.953C73.9091 138.984 73.0633 138.384 72.476 137.917C71.727 137.321 71.2979 136.369 70.812 135.567C69.6155 133.591 68.7343 131.521 68.2275 129.265C67.1251 124.355 67.6714 119.366 68.3555 114.443C68.3657 114.373 68.2602 114.344 68.2474 114.416Z" fill="#3D423E"/>
<path d="M60.7012 89.6428C61.4477 91.9104 61.2751 94.1376 60.887 96.4524C60.5143 98.6735 60.1308 100.893 59.7913 103.12C59.1826 107.107 58.6701 111.133 58.9967 115.171C59.6009 122.642 62.6002 129.83 67.3009 135.65C67.3183 135.672 67.3561 135.65 67.3382 135.627C62.5633 129.507 59.4929 122.223 59.0797 114.422C58.8595 110.253 59.4591 106.104 60.1052 101.994C60.4544 99.7727 60.8625 97.5614 61.2065 95.3398C61.506 93.4034 61.4333 91.4758 60.7729 89.6213C60.757 89.5768 60.6863 89.5972 60.7012 89.6428Z" fill="#3D423E"/>
<path d="M70.5107 136.578C67.3132 132.712 65.6533 127.91 64.5955 123.071C64.5873 123.032 64.5305 123.05 64.5372 123.089C65.405 127.959 67.1463 132.881 70.4467 136.647C70.4866 136.692 70.548 136.624 70.5107 136.578Z" fill="#3D423E"/>
<path d="M69.4038 137.681C65.2151 136.139 62.1543 132.589 60.4683 128.542C60.4509 128.501 60.3859 128.519 60.4013 128.562C61.8763 132.708 65.2043 136.317 69.3653 137.833C69.4601 137.867 69.4969 137.717 69.4038 137.681Z" fill="#3D423E"/>
<path d="M64.0507 111.899C64.5146 109.152 64.7092 106.362 64.8213 103.58C64.8233 103.541 64.7639 103.543 64.7609 103.581C64.552 106.355 64.4235 109.131 63.9714 111.88C63.9627 111.931 64.042 111.951 64.0507 111.899Z" fill="#3D423E"/>
<path d="M63.5557 91.0008C64.1799 93.3212 64.3258 95.6754 64.4697 98.0613C64.4732 98.1202 64.5603 98.1181 64.5608 98.0597C64.5828 95.6748 64.3002 93.2684 63.6566 90.9706C63.6382 90.9051 63.5383 90.9358 63.5557 91.0008Z" fill="#3D423E"/>
<path d="M58.0199 93.3648C59.2344 98.4474 57.7552 103.641 57.0236 108.676C57.0149 108.732 57.0983 108.755 57.1091 108.698C58.064 103.719 59.3639 98.3799 58.0983 93.3418C58.0855 93.2901 58.0082 93.3141 58.0199 93.3648Z" fill="#3D423E"/>
<path d="M57.2334 116.526C57.2836 118.734 57.6164 120.915 58.3178 123.012C58.3383 123.074 58.4295 123.046 58.4136 122.983C57.8668 120.856 57.4838 118.721 57.4085 116.522C57.4044 116.409 57.2309 116.413 57.2334 116.526Z" fill="#3D423E"/>
<path d="M63.6774 118.91C63.5893 118.457 63.4982 118.009 63.3369 117.576C63.3292 117.556 63.2965 117.564 63.3031 117.586C63.445 118.025 63.5376 118.473 63.6216 118.926C63.6288 118.963 63.6851 118.947 63.6774 118.91Z" fill="#3D423E"/>
<path d="M63.9903 90.4523C64.4383 89.4487 65.448 89.0079 66.5037 89.0233C67.7187 89.0417 68.4442 89.8476 69.2757 90.592C69.3612 90.6688 69.4974 90.5649 69.4339 90.464C68.7612 89.3945 67.5088 88.7857 66.2708 88.7719C65.2821 88.7601 64.0682 89.3689 63.8613 90.4006C63.846 90.4753 63.9565 90.5275 63.9903 90.4523Z" fill="#3D423E"/>
<path d="M66.2782 89.4153C66.2081 89.8177 66.1364 90.2217 66.1057 90.6297C66.1016 90.6681 66.1605 90.6712 66.1692 90.6364C66.2767 90.2463 66.3212 89.8418 66.3898 89.4429C66.4016 89.3712 66.2915 89.3426 66.2782 89.4153Z" fill="#3D423E"/>
<path d="M80.7832 92.0518C82.6397 91.3186 84.6529 90.4421 86.6963 90.7442C87.6553 90.8865 88.5077 91.3791 89.2747 91.9463C89.9076 92.4153 90.3832 93.0553 91.0125 93.5197C91.0493 93.5463 91.0954 93.5018 91.0621 93.467C90.4477 92.8316 89.9685 92.143 89.2307 91.6192C88.4734 91.0816 87.6645 90.7012 86.749 90.5363C84.8085 90.1861 82.4057 91.0171 80.7484 91.974C80.7064 91.9986 80.7371 92.0708 80.7832 92.0518Z" fill="#3D423E"/>
<path d="M87.7553 91.0173C86.761 91.559 85.8594 92.6081 85.5 93.6807C85.48 93.7406 85.5686 93.7703 85.5993 93.7201C85.8952 93.2199 86.204 92.7504 86.5977 92.3203C86.9889 91.8938 87.4676 91.5718 87.8808 91.1724C87.9658 91.0895 87.8521 90.964 87.7553 91.0173Z" fill="#3D423E"/>
<path d="M84.0875 91.0224C83.9549 91.39 83.8663 91.771 83.9175 92.1626C83.9222 92.1939 83.9734 92.2062 83.978 92.1688C84.0215 91.7868 84.0752 91.4161 84.2053 91.0516C84.2319 90.9784 84.1142 90.9497 84.0875 91.0224Z" fill="#3D423E"/>
<path d="M73.3923 139.176C73.6181 139.862 73.6729 140.628 73.7507 141.342C73.8879 142.605 73.9586 143.877 74.0164 145.146C74.191 148.981 74.2427 152.822 74.2627 156.66C74.319 167.125 74.1434 177.59 73.9381 188.053C73.7497 197.625 73.4973 207.196 73.2935 216.767C73.23 219.729 73.1824 222.691 73.1558 225.655C73.1553 225.705 73.2321 225.703 73.2326 225.653C73.2914 219.134 73.5997 212.61 73.7712 206.093C74.0507 195.473 74.2709 184.853 74.4107 174.232C74.5315 165.048 74.6651 155.844 74.318 146.663C74.2561 145.033 74.1726 143.401 74.0103 141.776C73.9233 140.903 73.8572 139.957 73.5085 139.141C73.4778 139.071 73.3667 139.1 73.3923 139.176Z" fill="#3D423E"/>
<path d="M77.2563 138.733C76.9046 139.397 76.8283 140.237 76.7325 140.969C76.5446 142.395 76.4417 143.832 76.3496 145.267C76.0649 149.703 75.9625 154.154 75.8754 158.599C75.6599 169.627 75.6701 180.659 75.7464 191.69C75.7756 195.949 75.8176 200.208 75.8852 204.469C75.9891 211.04 75.9435 217.661 76.7545 224.191C76.8114 224.652 76.8774 225.109 76.946 225.568C76.9701 225.731 77.2307 225.726 77.2046 225.562C76.1504 218.763 76.2538 211.808 76.1391 204.942C76.0695 200.775 76.027 196.607 75.9958 192.439C75.9123 181.418 75.901 170.395 76.0982 159.375C76.1796 154.848 76.2917 150.318 76.5503 145.796C76.6378 144.272 76.7407 142.747 76.9225 141.23C77.0157 140.456 77.0628 139.555 77.3828 138.83C77.3858 138.824 77.3894 138.816 77.3935 138.808C77.4355 138.717 77.3039 138.642 77.2563 138.733Z" fill="#3D423E"/>
<path d="M73.1276 225.769C74.3835 226.003 75.8468 226.077 77.0715 225.662C77.2164 225.613 77.155 225.383 77.0081 225.431C75.7352 225.852 74.4557 225.63 73.1517 225.589C73.0508 225.587 73.0257 225.749 73.1276 225.769Z" fill="#3D423E"/>
<path d="M73.4473 211.568C71.7566 201.695 68.5101 191.984 64.8354 182.691C61.1204 173.295 56.7115 164.136 51.7846 155.318C51.7564 155.266 51.6806 155.311 51.7072 155.363C56.3588 164.334 60.8674 173.356 64.6091 182.753C68.3513 192.151 71.0148 201.769 73.3689 211.589C73.3812 211.642 73.456 211.619 73.4473 211.568Z" fill="#3D423E"/>
<path d="M71.8504 204.996C66.7171 199.853 63.8397 193.171 60.1927 187.004C58.4903 184.125 56.5606 181.443 54.2003 179.067C52.0294 176.882 49.6225 174.947 47.4649 172.748C45.0841 170.323 43.2721 167.524 42.2702 164.264C41.004 160.143 40.7019 155.743 40.2938 151.475C39.9032 147.391 39.3477 143.41 38.2888 139.44C37.7523 137.429 37.2167 135.418 36.6812 133.407C36.4129 132.402 36.1451 131.396 35.8768 130.391C35.7299 129.838 35.4677 129.639 35.8937 130.2C36.1676 130.561 36.4559 130.911 36.7441 131.261C40.8396 136.23 46.2233 139.939 50.4913 144.749C52.843 147.399 54.7456 150.485 56.7142 153.422C58.6992 156.383 60.6064 159.4 62.3047 162.536C63.9769 165.623 65.3567 168.892 66.7509 172.113C68.2772 175.639 69.675 179.281 70.0257 183.134C70.3503 186.7 69.9238 190.289 70.2228 193.856C70.5305 197.535 71.8714 201.043 71.8039 204.767C71.8003 204.949 72.0834 204.949 72.0865 204.767C72.1551 201.06 70.9043 197.518 70.529 193.856C70.1486 190.139 70.6401 186.379 70.3016 182.653C69.9791 179.105 68.6115 175.701 67.2399 172.448C65.8073 169.049 64.3164 165.63 62.5827 162.374C60.8307 159.083 58.7944 155.945 56.7157 152.854C54.7297 149.9 52.7882 146.873 50.413 144.212C45.7405 138.977 39.788 135.042 35.5952 129.353C35.5087 129.235 35.307 129.3 35.3489 129.457C36.4221 133.479 37.4958 137.501 38.5679 141.523C39.6887 145.728 39.8827 150.179 40.3174 154.491C40.7029 158.32 41.1668 162.268 42.539 165.887C43.5583 168.575 45.2951 170.885 47.2724 172.94C49.4069 175.16 51.82 177.094 54.0113 179.256C56.5816 181.792 58.5866 184.757 60.4057 187.86C63.8868 193.796 66.711 200.255 71.7721 205.074C71.8238 205.123 71.9011 205.046 71.8504 204.996Z" fill="#3D423E"/>
<path d="M35.8231 131.221C38.4619 134.516 40.0415 138.488 42.5979 141.848C45.0836 145.115 47.5858 148.253 49.3747 151.971C49.4013 152.026 49.496 151.987 49.4745 151.929C48.0512 148.102 45.2726 144.918 42.8216 141.718C40.2462 138.354 38.6678 134.353 35.9388 131.105C35.8702 131.024 35.7586 131.14 35.8231 131.221Z" fill="#3D423E"/>
<path d="M54.7448 154.246C58.7358 160.148 61.0552 166.89 63.4688 173.536C63.4821 173.574 63.5425 173.558 63.5297 173.52C61.3102 166.813 58.9104 160.028 54.8247 154.199C54.7909 154.151 54.7115 154.196 54.7448 154.246Z" fill="#3D423E"/>
<path d="M43.2156 151.552C45.2273 158.626 49.0038 164.968 52.1981 171.54C52.2243 171.593 52.2995 171.547 52.2765 171.495C49.3289 164.811 45.3716 158.58 43.2945 151.53C43.2796 151.48 43.2013 151.501 43.2156 151.552Z" fill="#3D423E"/>
<path d="M58.8649 181.885C60.618 184.415 62.6 186.779 64.2691 189.368C64.2967 189.411 64.3638 189.373 64.3377 189.328C62.7879 186.661 60.7706 184.325 59.017 181.796C58.9525 181.704 58.7999 181.791 58.8649 181.885Z" fill="#3D423E"/>
<path d="M67.4364 180.524C67.8379 181.752 68.1379 183.004 68.4277 184.263C68.4374 184.305 68.4994 184.287 68.4922 184.246C68.271 182.971 68.0053 181.708 67.6059 180.477C67.5711 180.369 67.4011 180.415 67.4364 180.524Z" fill="#3D423E"/>
<path d="M66.6323 194.224C67.256 195.474 67.8929 196.721 68.5442 197.957C68.5739 198.013 68.6706 197.974 68.6481 197.913C68.1489 196.601 67.4347 195.375 66.8008 194.125C66.7435 194.013 66.5765 194.112 66.6323 194.224Z" fill="#3D423E"/>
</g>
</svg>
