<svg width="340" height="79" viewBox="0 0 340 79" fill="none" xmlns="http://www.w3.org/2000/svg">
<g filter="url(#filter0_b_3841_32701)">
<path d="M96 79L103.794 60.25H88.2058L96 79Z" fill="#3D423E" fill-opacity="0.8"/>
</g>
<g filter="url(#filter1_b_3841_32701)">
<rect width="340" height="62" rx="12" fill="#3D423E" fill-opacity="0.8"/>
<path d="M15.5273 27V15.022H22.7988V16.3667H17.0215V20.4839H22.3257V21.812H17.0215V27H15.5273ZM25.0732 27V18.0518H26.5176V19.3799H26.6504C26.8219 18.9095 27.1125 18.5443 27.522 18.2842C27.9315 18.0241 28.4378 17.894 29.041 17.894C29.1794 17.894 29.3149 17.9023 29.4478 17.9189C29.5861 17.93 29.6912 17.9411 29.7632 17.9521V19.355C29.6138 19.3273 29.4671 19.3079 29.3232 19.2969C29.1849 19.2803 29.0355 19.272 28.875 19.272C28.4157 19.272 28.009 19.3633 27.6548 19.5459C27.3006 19.7285 27.0212 19.9831 26.8164 20.3096C26.6172 20.6361 26.5176 21.0179 26.5176 21.4551V27H25.0732ZM34.9512 27.1577C34.099 27.1577 33.3657 26.9696 32.7515 26.5933C32.1427 26.217 31.6724 25.6857 31.3403 24.9995C31.0138 24.3078 30.8506 23.4943 30.8506 22.5591V22.5508C30.8506 21.6266 31.0138 20.8159 31.3403 20.1187C31.6724 19.4214 32.14 18.8763 32.7432 18.4834C33.3464 18.0905 34.0519 17.894 34.8599 17.894C35.6733 17.894 36.3706 18.0822 36.9517 18.4585C37.5382 18.8348 37.9865 19.3605 38.2964 20.0356C38.6118 20.7052 38.7695 21.4855 38.7695 22.3765V22.9409H31.5977V21.7871H38.0308L37.3169 22.8413V22.2686C37.3169 21.5658 37.2118 20.9875 37.0015 20.5337C36.7912 20.0799 36.5007 19.7424 36.1299 19.521C35.7591 19.2941 35.333 19.1807 34.8516 19.1807C34.3701 19.1807 33.9385 19.2996 33.5566 19.5376C33.1803 19.77 32.8815 20.1159 32.6602 20.5752C32.4388 21.0345 32.3281 21.599 32.3281 22.2686V22.8413C32.3281 23.4777 32.436 24.0228 32.6519 24.4766C32.8677 24.9248 33.1748 25.2707 33.5732 25.5142C33.9717 25.7521 34.4421 25.8711 34.9844 25.8711C35.3883 25.8711 35.7397 25.8158 36.0386 25.7051C36.3374 25.5944 36.5837 25.4533 36.7773 25.2817C36.971 25.1102 37.1066 24.9359 37.1841 24.7588L37.2173 24.6841H38.6616L38.645 24.7505C38.5675 25.0549 38.4292 25.3509 38.23 25.6387C38.0363 25.9209 37.7845 26.1782 37.4746 26.4106C37.1647 26.6375 36.7967 26.8201 36.3706 26.9585C35.95 27.0913 35.4769 27.1577 34.9512 27.1577ZM47.2529 29.9883V25.6553H47.1201C46.9596 25.9707 46.741 26.2419 46.4644 26.4688C46.1877 26.6901 45.8667 26.8617 45.5015 26.9834C45.1418 27.0996 44.7489 27.1577 44.3228 27.1577C43.5646 27.1577 42.9033 26.9668 42.3389 26.585C41.7744 26.2031 41.3372 25.6663 41.0273 24.9746C40.7174 24.2773 40.5625 23.4639 40.5625 22.5342V22.5176C40.5625 21.5824 40.7174 20.7689 41.0273 20.0771C41.3372 19.3854 41.7744 18.8486 42.3389 18.4668C42.9033 18.085 43.5646 17.894 44.3228 17.894C44.7267 17.894 45.1058 17.9604 45.46 18.0933C45.8197 18.2261 46.1434 18.417 46.4312 18.666C46.7244 18.9095 46.9652 19.2028 47.1533 19.5459H47.2529V18.0518H48.6973V29.9883H47.2529ZM44.6631 25.8794C45.1999 25.8794 45.6647 25.7438 46.0576 25.4727C46.4505 25.196 46.7549 24.8086 46.9707 24.3105C47.1865 23.807 47.2944 23.2148 47.2944 22.5342V22.5176C47.2944 21.8314 47.1865 21.2393 46.9707 20.7412C46.7549 20.2376 46.4505 19.8503 46.0576 19.5791C45.6647 19.3079 45.1971 19.1724 44.6548 19.1724C44.1125 19.1724 43.6449 19.3079 43.252 19.5791C42.859 19.8447 42.5575 20.2266 42.3472 20.7246C42.1424 21.2227 42.04 21.8203 42.04 22.5176V22.5342C42.04 23.2259 42.1452 23.8236 42.3555 24.3271C42.5658 24.8252 42.8646 25.2098 43.252 25.481C43.6449 25.7466 44.1152 25.8794 44.6631 25.8794ZM54.3667 27.1577C53.6916 27.1577 53.1243 27.0304 52.665 26.7759C52.2057 26.5158 51.8599 26.1395 51.6274 25.647C51.4006 25.1489 51.2871 24.5485 51.2871 23.8457V18.0518H52.7314V23.4971C52.7314 24.2995 52.8864 24.8971 53.1963 25.29C53.5117 25.6829 54.0264 25.8794 54.7402 25.8794C55.1331 25.8794 55.479 25.8213 55.7778 25.7051C56.0822 25.5889 56.3368 25.4229 56.5415 25.207C56.7463 24.9857 56.8984 24.7201 56.998 24.4102C57.1032 24.0947 57.1558 23.7406 57.1558 23.3477V18.0518H58.6001V27H57.1558V25.6636H57.0229C56.8791 25.979 56.6826 26.2502 56.4336 26.4771C56.1846 26.6984 55.8857 26.8672 55.5371 26.9834C55.194 27.0996 54.8039 27.1577 54.3667 27.1577ZM64.9502 27.1577C64.098 27.1577 63.3647 26.9696 62.7505 26.5933C62.1418 26.217 61.6714 25.6857 61.3394 24.9995C61.0129 24.3078 60.8496 23.4943 60.8496 22.5591V22.5508C60.8496 21.6266 61.0129 20.8159 61.3394 20.1187C61.6714 19.4214 62.139 18.8763 62.7422 18.4834C63.3454 18.0905 64.0509 17.894 64.8589 17.894C65.6724 17.894 66.3696 18.0822 66.9507 18.4585C67.5373 18.8348 67.9855 19.3605 68.2954 20.0356C68.6108 20.7052 68.7686 21.4855 68.7686 22.3765V22.9409H61.5967V21.7871H68.0298L67.3159 22.8413V22.2686C67.3159 21.5658 67.2108 20.9875 67.0005 20.5337C66.7902 20.0799 66.4997 19.7424 66.1289 19.521C65.7581 19.2941 65.332 19.1807 64.8506 19.1807C64.3691 19.1807 63.9375 19.2996 63.5557 19.5376C63.1794 19.77 62.8805 20.1159 62.6592 20.5752C62.4378 21.0345 62.3271 21.599 62.3271 22.2686V22.8413C62.3271 23.4777 62.4351 24.0228 62.6509 24.4766C62.8667 24.9248 63.1738 25.2707 63.5723 25.5142C63.9707 25.7521 64.4411 25.8711 64.9834 25.8711C65.3874 25.8711 65.7388 25.8158 66.0376 25.7051C66.3364 25.5944 66.5827 25.4533 66.7764 25.2817C66.9701 25.1102 67.1056 24.9359 67.1831 24.7588L67.2163 24.6841H68.6606L68.644 24.7505C68.5666 25.0549 68.4282 25.3509 68.229 25.6387C68.0353 25.9209 67.7835 26.1782 67.4736 26.4106C67.1637 26.6375 66.7957 26.8201 66.3696 26.9585C65.9491 27.0913 65.4759 27.1577 64.9502 27.1577ZM71.0098 27V18.0518H72.4541V19.3965H72.5869C72.8138 18.9206 73.1403 18.5526 73.5664 18.2925C73.9925 18.0269 74.5348 17.894 75.1934 17.894C76.2005 17.894 76.9725 18.1818 77.5093 18.7573C78.0516 19.3273 78.3228 20.1436 78.3228 21.2061V27H76.8784V21.5547C76.8784 20.7467 76.7069 20.1491 76.3638 19.7617C76.0262 19.3688 75.5005 19.1724 74.7866 19.1724C74.3107 19.1724 73.8984 19.2747 73.5498 19.4795C73.2012 19.6842 72.93 19.9748 72.7363 20.3511C72.5482 20.7274 72.4541 21.1784 72.4541 21.7041V27H71.0098ZM84.5981 27.1577C83.7625 27.1577 83.0376 26.9668 82.4233 26.585C81.8091 26.2031 81.3332 25.6636 80.9956 24.9663C80.658 24.269 80.4893 23.4473 80.4893 22.501V22.4844C80.4893 21.5547 80.6553 20.7467 80.9873 20.0605C81.3249 19.3743 81.8008 18.8431 82.415 18.4668C83.0293 18.085 83.7542 17.894 84.5898 17.894C85.3148 17.894 85.9401 18.0213 86.4658 18.2759C86.9915 18.5304 87.4121 18.8735 87.7275 19.3052C88.043 19.7313 88.245 20.21 88.3335 20.7412L88.3418 20.791H86.9058L86.8975 20.7661C86.7868 20.3234 86.535 19.9471 86.1421 19.6372C85.7492 19.3273 85.2318 19.1724 84.5898 19.1724C84.0531 19.1724 83.5882 19.3079 83.1953 19.5791C82.8024 19.8503 82.498 20.2349 82.2822 20.7329C82.0719 21.2254 81.9668 21.8092 81.9668 22.4844V22.501C81.9668 23.1872 82.0747 23.7848 82.2905 24.2939C82.5063 24.7975 82.8107 25.1877 83.2036 25.4644C83.5965 25.741 84.0586 25.8794 84.5898 25.8794C85.193 25.8794 85.6855 25.7493 86.0674 25.4893C86.4492 25.2292 86.7231 24.8501 86.8892 24.3521L86.9058 24.3022L88.3335 24.2939L88.3169 24.3853C88.1951 24.922 87.9793 25.4007 87.6694 25.8213C87.3595 26.2363 86.95 26.5628 86.4409 26.8008C85.9318 27.0387 85.3175 27.1577 84.5981 27.1577ZM91.2139 30.1377C91.1198 30.1377 91.0146 30.1322 90.8984 30.1211C90.7822 30.1156 90.6743 30.1045 90.5747 30.0879V28.9009C90.6632 28.9175 90.7601 28.9285 90.8652 28.9341C90.9704 28.9396 91.0728 28.9424 91.1724 28.9424C91.5819 28.9424 91.9167 28.8372 92.1768 28.627C92.4424 28.4167 92.6554 28.0542 92.8159 27.5396L92.9819 27.0083L89.6699 18.0518H91.2139L93.9697 26.3193L93.397 25.4146H94.0776L93.5049 26.3193L96.2524 18.0518H97.7715L94.2769 27.5479C94.0334 28.2174 93.776 28.7404 93.5049 29.1167C93.2337 29.493 92.9155 29.7559 92.5503 29.9053C92.1906 30.0602 91.7451 30.1377 91.2139 30.1377ZM104.495 27V18.0518H105.939V27H104.495ZM105.226 16.3252C104.954 16.3252 104.719 16.2284 104.52 16.0347C104.326 15.8354 104.229 15.6003 104.229 15.3291C104.229 15.0524 104.326 14.8172 104.52 14.6235C104.719 14.4299 104.954 14.333 105.226 14.333C105.502 14.333 105.737 14.4299 105.931 14.6235C106.125 14.8172 106.222 15.0524 106.222 15.3291C106.222 15.6003 106.125 15.8354 105.931 16.0347C105.737 16.2284 105.502 16.3252 105.226 16.3252ZM108.662 27V18.0518H110.106V19.3965H110.239C110.466 18.9206 110.793 18.5526 111.219 18.2925C111.645 18.0269 112.187 17.894 112.846 17.894C113.853 17.894 114.625 18.1818 115.162 18.7573C115.704 19.3273 115.975 20.1436 115.975 21.2061V27H114.531V21.5547C114.531 20.7467 114.359 20.1491 114.016 19.7617C113.679 19.3688 113.153 19.1724 112.439 19.1724C111.963 19.1724 111.551 19.2747 111.202 19.4795C110.854 19.6842 110.582 19.9748 110.389 20.3511C110.201 20.7274 110.106 21.1784 110.106 21.7041V27H108.662ZM121.894 27.1577C121.141 27.1577 120.482 26.9668 119.918 26.585C119.354 26.2031 118.916 25.6663 118.606 24.9746C118.297 24.2773 118.142 23.4639 118.142 22.5342V22.5176C118.142 21.5824 118.297 20.7689 118.606 20.0771C118.916 19.3854 119.351 18.8486 119.91 18.4668C120.474 18.085 121.135 17.894 121.894 17.894C122.303 17.894 122.688 17.9604 123.047 18.0933C123.413 18.2205 123.736 18.4004 124.019 18.6328C124.301 18.8652 124.522 19.1419 124.683 19.4629H124.815V14.499H126.26V27H124.815V25.5723H124.683C124.5 25.9043 124.27 26.1893 123.994 26.4272C123.717 26.6597 123.402 26.8395 123.047 26.9668C122.693 27.0941 122.309 27.1577 121.894 27.1577ZM122.226 25.8794C122.768 25.8794 123.236 25.7438 123.628 25.4727C124.021 25.2015 124.323 24.8169 124.533 24.3188C124.743 23.8153 124.849 23.2204 124.849 22.5342V22.5176C124.849 21.8258 124.743 21.231 124.533 20.7329C124.323 20.2349 124.021 19.8503 123.628 19.5791C123.236 19.3079 122.768 19.1724 122.226 19.1724C121.683 19.1724 121.216 19.3079 120.823 19.5791C120.435 19.8447 120.137 20.2266 119.926 20.7246C119.722 21.2227 119.619 21.8203 119.619 22.5176V22.5342C119.619 23.2259 119.722 23.8236 119.926 24.3271C120.137 24.8252 120.435 25.2098 120.823 25.481C121.216 25.7466 121.683 25.8794 122.226 25.8794ZM129.065 27V18.0518H130.51V27H129.065ZM129.796 16.3252C129.525 16.3252 129.29 16.2284 129.09 16.0347C128.897 15.8354 128.8 15.6003 128.8 15.3291C128.8 15.0524 128.897 14.8172 129.09 14.6235C129.29 14.4299 129.525 14.333 129.796 14.333C130.073 14.333 130.308 14.4299 130.501 14.6235C130.695 14.8172 130.792 15.0524 130.792 15.3291C130.792 15.6003 130.695 15.8354 130.501 16.0347C130.308 16.2284 130.073 16.3252 129.796 16.3252ZM136.893 27.1577C136.057 27.1577 135.333 26.9668 134.718 26.585C134.104 26.2031 133.628 25.6636 133.291 24.9663C132.953 24.269 132.784 23.4473 132.784 22.501V22.4844C132.784 21.5547 132.95 20.7467 133.282 20.0605C133.62 19.3743 134.096 18.8431 134.71 18.4668C135.324 18.085 136.049 17.894 136.885 17.894C137.61 17.894 138.235 18.0213 138.761 18.2759C139.286 18.5304 139.707 18.8735 140.022 19.3052C140.338 19.7313 140.54 20.21 140.628 20.7412L140.637 20.791H139.201L139.192 20.7661C139.082 20.3234 138.83 19.9471 138.437 19.6372C138.044 19.3273 137.527 19.1724 136.885 19.1724C136.348 19.1724 135.883 19.3079 135.49 19.5791C135.097 19.8503 134.793 20.2349 134.577 20.7329C134.367 21.2254 134.262 21.8092 134.262 22.4844V22.501C134.262 23.1872 134.37 23.7848 134.585 24.2939C134.801 24.7975 135.106 25.1877 135.499 25.4644C135.891 25.741 136.354 25.8794 136.885 25.8794C137.488 25.8794 137.98 25.7493 138.362 25.4893C138.744 25.2292 139.018 24.8501 139.184 24.3521L139.201 24.3022L140.628 24.2939L140.612 24.3853C140.49 24.922 140.274 25.4007 139.964 25.8213C139.654 26.2363 139.245 26.5628 138.736 26.8008C138.227 27.0387 137.612 27.1577 136.893 27.1577ZM145.202 27.1577C144.638 27.1577 144.129 27.0498 143.675 26.834C143.227 26.6182 142.87 26.311 142.604 25.9126C142.344 25.5142 142.214 25.0438 142.214 24.5015V24.4849C142.214 23.9536 142.341 23.4998 142.596 23.1235C142.85 22.7417 143.221 22.4429 143.708 22.2271C144.195 22.0112 144.784 21.884 145.476 21.8452L148.763 21.646V22.7998L145.65 22.999C144.97 23.0378 144.472 23.1789 144.156 23.4224C143.846 23.6659 143.691 24.009 143.691 24.4517V24.4683C143.691 24.922 143.863 25.2762 144.206 25.5308C144.549 25.7798 144.981 25.9043 145.501 25.9043C145.993 25.9043 146.431 25.8075 146.812 25.6138C147.194 25.4146 147.493 25.1462 147.709 24.8086C147.93 24.471 148.041 24.0892 148.041 23.6631V20.874C148.041 20.3206 147.872 19.9001 147.535 19.6123C147.203 19.319 146.702 19.1724 146.032 19.1724C145.495 19.1724 145.056 19.2692 144.712 19.4629C144.369 19.651 144.14 19.9194 144.023 20.2681L144.015 20.293H142.571L142.579 20.2432C142.657 19.7728 142.85 19.3633 143.16 19.0146C143.476 18.6605 143.882 18.3866 144.38 18.1929C144.878 17.9937 145.446 17.894 146.082 17.894C146.812 17.894 147.43 18.013 147.933 18.251C148.442 18.4889 148.827 18.832 149.087 19.2803C149.353 19.723 149.485 20.2542 149.485 20.874V27H148.041V25.6802H147.908C147.72 25.9956 147.49 26.264 147.219 26.4854C146.954 26.7067 146.652 26.8755 146.314 26.9917C145.977 27.1024 145.606 27.1577 145.202 27.1577ZM155.304 27.0664C154.386 27.0664 153.719 26.881 153.304 26.5103C152.894 26.1395 152.689 25.528 152.689 24.6758V19.2471H151.278V18.0518H152.689V15.7358H154.184V18.0518H156.143V19.2471H154.184V24.3105C154.184 24.8363 154.283 25.2153 154.482 25.4478C154.682 25.6746 155.014 25.7881 155.479 25.7881C155.606 25.7881 155.714 25.7853 155.802 25.7798C155.896 25.7743 156.01 25.766 156.143 25.7549V26.9834C156.004 27.0055 155.866 27.0249 155.728 27.0415C155.589 27.0581 155.448 27.0664 155.304 27.0664ZM161.837 27.1577C160.985 27.1577 160.251 26.9696 159.637 26.5933C159.028 26.217 158.558 25.6857 158.226 24.9995C157.9 24.3078 157.736 23.4943 157.736 22.5591V22.5508C157.736 21.6266 157.9 20.8159 158.226 20.1187C158.558 19.4214 159.026 18.8763 159.629 18.4834C160.232 18.0905 160.938 17.894 161.746 17.894C162.559 17.894 163.256 18.0822 163.837 18.4585C164.424 18.8348 164.872 19.3605 165.182 20.0356C165.498 20.7052 165.655 21.4855 165.655 22.3765V22.9409H158.483V21.7871H164.917L164.203 22.8413V22.2686C164.203 21.5658 164.097 20.9875 163.887 20.5337C163.677 20.0799 163.386 19.7424 163.016 19.521C162.645 19.2941 162.219 19.1807 161.737 19.1807C161.256 19.1807 160.824 19.2996 160.442 19.5376C160.066 19.77 159.767 20.1159 159.546 20.5752C159.325 21.0345 159.214 21.599 159.214 22.2686V22.8413C159.214 23.4777 159.322 24.0228 159.538 24.4766C159.753 24.9248 160.061 25.2707 160.459 25.5142C160.857 25.7521 161.328 25.8711 161.87 25.8711C162.274 25.8711 162.625 25.8158 162.924 25.7051C163.223 25.5944 163.469 25.4533 163.663 25.2817C163.857 25.1102 163.992 24.9359 164.07 24.7588L164.103 24.6841H165.547L165.531 24.7505C165.453 25.0549 165.315 25.3509 165.116 25.6387C164.922 25.9209 164.67 26.1782 164.36 26.4106C164.05 26.6375 163.682 26.8201 163.256 26.9585C162.836 27.0913 162.363 27.1577 161.837 27.1577ZM170.968 27.1577C170.304 27.1577 169.717 27.0581 169.208 26.8589C168.699 26.6541 168.289 26.3691 167.979 26.0039C167.675 25.6387 167.495 25.2098 167.44 24.7173H168.917C169.039 25.0881 169.277 25.3869 169.631 25.6138C169.986 25.8407 170.448 25.9541 171.018 25.9541C171.422 25.9541 171.776 25.896 172.08 25.7798C172.39 25.658 172.633 25.4948 172.811 25.29C172.988 25.0798 173.076 24.839 173.076 24.5679V24.5513C173.076 24.2469 172.954 23.9896 172.711 23.7793C172.467 23.5635 172.069 23.3892 171.516 23.2563L170.129 22.9243C169.57 22.7915 169.111 22.62 168.751 22.4097C168.392 22.1938 168.126 21.931 167.955 21.6211C167.783 21.3057 167.697 20.9349 167.697 20.5088V20.5005C167.697 20.0024 167.841 19.557 168.129 19.1641C168.422 18.7712 168.821 18.4613 169.324 18.2344C169.828 18.0075 170.395 17.894 171.026 17.894C171.651 17.894 172.205 17.9937 172.686 18.1929C173.173 18.3866 173.563 18.6632 173.856 19.0229C174.155 19.3826 174.338 19.806 174.404 20.293H172.985C172.891 19.9388 172.675 19.651 172.337 19.4297C172 19.2083 171.56 19.0977 171.018 19.0977C170.663 19.0977 170.348 19.1558 170.071 19.272C169.795 19.3826 169.576 19.5376 169.416 19.7368C169.255 19.936 169.175 20.1685 169.175 20.4341V20.4507C169.175 20.6499 169.227 20.827 169.333 20.9819C169.438 21.1369 169.601 21.2725 169.822 21.3887C170.044 21.5049 170.329 21.6073 170.677 21.6958L172.055 22.0278C172.896 22.2326 173.522 22.5259 173.931 22.9077C174.346 23.2896 174.554 23.8014 174.554 24.4434V24.46C174.554 24.9912 174.396 25.4616 174.081 25.8711C173.765 26.2751 173.336 26.5905 172.794 26.8174C172.257 27.0443 171.648 27.1577 170.968 27.1577ZM181.659 27V14.499H183.104V19.3965H183.236C183.463 18.9206 183.79 18.5526 184.216 18.2925C184.642 18.0269 185.184 17.894 185.843 17.894C186.512 17.894 187.08 18.0241 187.544 18.2842C188.009 18.5387 188.363 18.9123 188.607 19.4048C188.85 19.8973 188.972 20.4977 188.972 21.2061V27H187.528V21.5547C187.528 20.7467 187.356 20.1491 187.013 19.7617C186.676 19.3688 186.15 19.1724 185.436 19.1724C184.96 19.1724 184.548 19.2747 184.199 19.4795C183.851 19.6842 183.579 19.9748 183.386 20.3511C183.198 20.7274 183.104 21.1784 183.104 21.7041V27H181.659ZM195.264 27.1577C194.417 27.1577 193.684 26.9723 193.064 26.6016C192.45 26.2253 191.974 25.6912 191.637 24.9995C191.305 24.3078 191.139 23.486 191.139 22.5342V22.5176C191.139 21.5602 191.305 20.7357 191.637 20.0439C191.974 19.3522 192.45 18.821 193.064 18.4502C193.684 18.0794 194.417 17.894 195.264 17.894C196.116 17.894 196.85 18.0794 197.464 18.4502C198.078 18.821 198.551 19.3522 198.883 20.0439C199.221 20.7357 199.39 21.5602 199.39 22.5176V22.5342C199.39 23.486 199.221 24.3078 198.883 24.9995C198.551 25.6912 198.078 26.2253 197.464 26.6016C196.85 26.9723 196.116 27.1577 195.264 27.1577ZM195.264 25.8794C195.829 25.8794 196.307 25.7466 196.7 25.481C197.093 25.2153 197.392 24.8335 197.597 24.3354C197.807 23.8374 197.912 23.237 197.912 22.5342V22.5176C197.912 21.8092 197.807 21.2061 197.597 20.708C197.392 20.21 197.093 19.8309 196.7 19.5708C196.307 19.3052 195.829 19.1724 195.264 19.1724C194.7 19.1724 194.221 19.3052 193.828 19.5708C193.435 19.8309 193.134 20.21 192.923 20.708C192.719 21.2061 192.616 21.8092 192.616 22.5176V22.5342C192.616 23.237 192.719 23.8374 192.923 24.3354C193.134 24.8335 193.435 25.2153 193.828 25.481C194.221 25.7466 194.7 25.8794 195.264 25.8794ZM203.025 27L200.519 18.0518H201.963L203.723 25.207H203.855L205.856 18.0518H207.226L209.226 25.207H209.359L211.119 18.0518H212.555L210.048 27H208.595L206.595 20.0771H206.462L204.47 27H203.025ZM219.245 27V18.0518H220.689V19.4131H220.822C221.021 18.9316 221.326 18.5581 221.735 18.2925C222.15 18.0269 222.651 17.894 223.238 17.894C223.642 17.894 224.004 17.9604 224.325 18.0933C224.646 18.2261 224.923 18.4115 225.155 18.6494C225.388 18.8818 225.573 19.153 225.711 19.4629H225.844C226.005 19.1475 226.221 18.8735 226.492 18.6411C226.763 18.4032 227.076 18.2205 227.43 18.0933C227.789 17.9604 228.174 17.894 228.583 17.894C229.192 17.894 229.707 18.0075 230.127 18.2344C230.554 18.4613 230.877 18.7933 231.099 19.2305C231.32 19.6621 231.431 20.1906 231.431 20.8159V27H229.986V21.1479C229.986 20.7052 229.917 20.34 229.779 20.0522C229.646 19.759 229.441 19.5404 229.165 19.3965C228.888 19.2471 228.539 19.1724 228.119 19.1724C227.704 19.1724 227.341 19.2664 227.031 19.4546C226.721 19.6427 226.481 19.8945 226.309 20.21C226.138 20.5199 226.052 20.8657 226.052 21.2476V27H224.607V20.9238C224.607 20.5697 224.53 20.2625 224.375 20.0024C224.226 19.7368 224.01 19.5321 223.728 19.3882C223.451 19.2443 223.124 19.1724 222.748 19.1724C222.361 19.1724 222.009 19.2747 221.694 19.4795C221.384 19.6842 221.138 19.9609 220.955 20.3096C220.778 20.6527 220.689 21.0345 220.689 21.4551V27H219.245ZM236.494 27.1577C235.93 27.1577 235.421 27.0498 234.967 26.834C234.519 26.6182 234.162 26.311 233.896 25.9126C233.636 25.5142 233.506 25.0438 233.506 24.5015V24.4849C233.506 23.9536 233.633 23.4998 233.888 23.1235C234.142 22.7417 234.513 22.4429 235 22.2271C235.487 22.0112 236.076 21.884 236.768 21.8452L240.055 21.646V22.7998L236.942 22.999C236.262 23.0378 235.764 23.1789 235.448 23.4224C235.138 23.6659 234.983 24.009 234.983 24.4517V24.4683C234.983 24.922 235.155 25.2762 235.498 25.5308C235.841 25.7798 236.273 25.9043 236.793 25.9043C237.285 25.9043 237.723 25.8075 238.104 25.6138C238.486 25.4146 238.785 25.1462 239.001 24.8086C239.222 24.471 239.333 24.0892 239.333 23.6631V20.874C239.333 20.3206 239.164 19.9001 238.827 19.6123C238.495 19.319 237.994 19.1724 237.324 19.1724C236.787 19.1724 236.347 19.2692 236.004 19.4629C235.661 19.651 235.432 19.9194 235.315 20.2681L235.307 20.293H233.863L233.871 20.2432C233.949 19.7728 234.142 19.3633 234.452 19.0146C234.768 18.6605 235.174 18.3866 235.672 18.1929C236.17 17.9937 236.738 17.894 237.374 17.894C238.104 17.894 238.722 18.013 239.225 18.251C239.734 18.4889 240.119 18.832 240.379 19.2803C240.645 19.723 240.777 20.2542 240.777 20.874V27H239.333V25.6802H239.2C239.012 25.9956 238.782 26.264 238.511 26.4854C238.246 26.7067 237.944 26.8755 237.606 26.9917C237.269 27.1024 236.898 27.1577 236.494 27.1577ZM243.417 27V18.0518H244.861V19.3965H244.994C245.221 18.9206 245.548 18.5526 245.974 18.2925C246.4 18.0269 246.942 17.894 247.601 17.894C248.608 17.894 249.38 18.1818 249.917 18.7573C250.459 19.3273 250.73 20.1436 250.73 21.2061V27H249.286V21.5547C249.286 20.7467 249.114 20.1491 248.771 19.7617C248.433 19.3688 247.908 19.1724 247.194 19.1724C246.718 19.1724 246.306 19.2747 245.957 19.4795C245.608 19.6842 245.337 19.9748 245.144 20.3511C244.955 20.7274 244.861 21.1784 244.861 21.7041V27H243.417ZM253.776 30.1377C253.682 30.1377 253.577 30.1322 253.461 30.1211C253.345 30.1156 253.237 30.1045 253.137 30.0879V28.9009C253.226 28.9175 253.323 28.9285 253.428 28.9341C253.533 28.9396 253.635 28.9424 253.735 28.9424C254.144 28.9424 254.479 28.8372 254.739 28.627C255.005 28.4167 255.218 28.0542 255.378 27.5396L255.544 27.0083L252.232 18.0518H253.776L256.532 26.3193L255.959 25.4146H256.64L256.067 26.3193L258.815 18.0518H260.334L256.839 27.5479C256.596 28.2174 256.339 28.7404 256.067 29.1167C255.796 29.493 255.478 29.7559 255.113 29.9053C254.753 30.0602 254.308 30.1377 253.776 30.1377ZM270.204 27.0664C269.285 27.0664 268.618 26.881 268.203 26.5103C267.794 26.1395 267.589 25.528 267.589 24.6758V19.2471H266.178V18.0518H267.589V15.7358H269.083V18.0518H271.042V19.2471H269.083V24.3105C269.083 24.8363 269.183 25.2153 269.382 25.4478C269.581 25.6746 269.913 25.7881 270.378 25.7881C270.505 25.7881 270.613 25.7853 270.702 25.7798C270.796 25.7743 270.909 25.766 271.042 25.7549V26.9834C270.904 27.0055 270.765 27.0249 270.627 27.0415C270.489 27.0581 270.347 27.0664 270.204 27.0664ZM273.233 27V18.0518H274.678V27H273.233ZM273.964 16.3252C273.693 16.3252 273.458 16.2284 273.258 16.0347C273.065 15.8354 272.968 15.6003 272.968 15.3291C272.968 15.0524 273.065 14.8172 273.258 14.6235C273.458 14.4299 273.693 14.333 273.964 14.333C274.241 14.333 274.476 14.4299 274.669 14.6235C274.863 14.8172 274.96 15.0524 274.96 15.3291C274.96 15.6003 274.863 15.8354 274.669 16.0347C274.476 16.2284 274.241 16.3252 273.964 16.3252ZM277.4 27V18.0518H278.845V19.4131H278.978C279.177 18.9316 279.481 18.5581 279.891 18.2925C280.306 18.0269 280.806 17.894 281.393 17.894C281.797 17.894 282.16 17.9604 282.48 18.0933C282.801 18.2261 283.078 18.4115 283.311 18.6494C283.543 18.8818 283.728 19.153 283.867 19.4629H284C284.16 19.1475 284.376 18.8735 284.647 18.6411C284.918 18.4032 285.231 18.2205 285.585 18.0933C285.945 17.9604 286.329 17.894 286.739 17.894C287.347 17.894 287.862 18.0075 288.283 18.2344C288.709 18.4613 289.033 18.7933 289.254 19.2305C289.475 19.6621 289.586 20.1906 289.586 20.8159V27H288.142V21.1479C288.142 20.7052 288.072 20.34 287.934 20.0522C287.801 19.759 287.597 19.5404 287.32 19.3965C287.043 19.2471 286.694 19.1724 286.274 19.1724C285.859 19.1724 285.496 19.2664 285.187 19.4546C284.877 19.6427 284.636 19.8945 284.464 20.21C284.293 20.5199 284.207 20.8657 284.207 21.2476V27H282.763V20.9238C282.763 20.5697 282.685 20.2625 282.53 20.0024C282.381 19.7368 282.165 19.5321 281.883 19.3882C281.606 19.2443 281.28 19.1724 280.903 19.1724C280.516 19.1724 280.165 19.2747 279.849 19.4795C279.539 19.6842 279.293 19.9609 279.11 20.3096C278.933 20.6527 278.845 21.0345 278.845 21.4551V27H277.4ZM295.845 27.1577C294.993 27.1577 294.259 26.9696 293.645 26.5933C293.036 26.217 292.566 25.6857 292.234 24.9995C291.907 24.3078 291.744 23.4943 291.744 22.5591V22.5508C291.744 21.6266 291.907 20.8159 292.234 20.1187C292.566 19.4214 293.034 18.8763 293.637 18.4834C294.24 18.0905 294.945 17.894 295.753 17.894C296.567 17.894 297.264 18.0822 297.845 18.4585C298.432 18.8348 298.88 19.3605 299.19 20.0356C299.505 20.7052 299.663 21.4855 299.663 22.3765V22.9409H292.491V21.7871H298.924L298.21 22.8413V22.2686C298.21 21.5658 298.105 20.9875 297.895 20.5337C297.685 20.0799 297.394 19.7424 297.023 19.521C296.653 19.2941 296.227 19.1807 295.745 19.1807C295.264 19.1807 294.832 19.2996 294.45 19.5376C294.074 19.77 293.775 20.1159 293.554 20.5752C293.332 21.0345 293.222 21.599 293.222 22.2686V22.8413C293.222 23.4777 293.33 24.0228 293.545 24.4766C293.761 24.9248 294.068 25.2707 294.467 25.5142C294.865 25.7521 295.336 25.8711 295.878 25.8711C296.282 25.8711 296.633 25.8158 296.932 25.7051C297.231 25.5944 297.477 25.4533 297.671 25.2817C297.865 25.1102 298 24.9359 298.078 24.7588L298.111 24.6841H299.555L299.539 24.7505C299.461 25.0549 299.323 25.3509 299.124 25.6387C298.93 25.9209 298.678 26.1782 298.368 26.4106C298.058 26.6375 297.69 26.8201 297.264 26.9585C296.844 27.0913 296.37 27.1577 295.845 27.1577ZM304.976 27.1577C304.312 27.1577 303.725 27.0581 303.216 26.8589C302.707 26.6541 302.297 26.3691 301.987 26.0039C301.683 25.6387 301.503 25.2098 301.448 24.7173H302.925C303.047 25.0881 303.285 25.3869 303.639 25.6138C303.993 25.8407 304.455 25.9541 305.025 25.9541C305.429 25.9541 305.784 25.896 306.088 25.7798C306.398 25.658 306.641 25.4948 306.818 25.29C306.995 25.0798 307.084 24.839 307.084 24.5679V24.5513C307.084 24.2469 306.962 23.9896 306.719 23.7793C306.475 23.5635 306.077 23.3892 305.523 23.2563L304.137 22.9243C303.578 22.7915 303.119 22.62 302.759 22.4097C302.4 22.1938 302.134 21.931 301.962 21.6211C301.791 21.3057 301.705 20.9349 301.705 20.5088V20.5005C301.705 20.0024 301.849 19.557 302.137 19.1641C302.43 18.7712 302.828 18.4613 303.332 18.2344C303.836 18.0075 304.403 17.894 305.034 17.894C305.659 17.894 306.212 17.9937 306.694 18.1929C307.181 18.3866 307.571 18.6632 307.864 19.0229C308.163 19.3826 308.346 19.806 308.412 20.293H306.993C306.899 19.9388 306.683 19.651 306.345 19.4297C306.008 19.2083 305.568 19.0977 305.025 19.0977C304.671 19.0977 304.356 19.1558 304.079 19.272C303.802 19.3826 303.584 19.5376 303.423 19.7368C303.263 19.936 303.183 20.1685 303.183 20.4341V20.4507C303.183 20.6499 303.235 20.827 303.34 20.9819C303.445 21.1369 303.609 21.2725 303.83 21.3887C304.051 21.5049 304.336 21.6073 304.685 21.6958L306.063 22.0278C306.904 22.2326 307.529 22.5259 307.939 22.9077C308.354 23.2896 308.562 23.8014 308.562 24.4434V24.46C308.562 24.9912 308.404 25.4616 308.088 25.8711C307.773 26.2751 307.344 26.5905 306.802 26.8174C306.265 27.0443 305.656 27.1577 304.976 27.1577ZM16.1084 50.1377C16.0143 50.1377 15.9092 50.1322 15.793 50.1211C15.6768 50.1156 15.5688 50.1045 15.4692 50.0879V48.9009C15.5578 48.9175 15.6546 48.9285 15.7598 48.9341C15.8649 48.9396 15.9673 48.9424 16.0669 48.9424C16.4764 48.9424 16.8112 48.8372 17.0713 48.627C17.3369 48.4167 17.55 48.0542 17.7104 47.5396L17.8765 47.0083L14.5645 38.0518H16.1084L18.8643 46.3193L18.2915 45.4146H18.9722L18.3994 46.3193L21.147 38.0518H22.666L19.1714 47.5479C18.9279 48.2174 18.6706 48.7404 18.3994 49.1167C18.1283 49.493 17.8101 49.7559 17.4448 49.9053C17.0851 50.0602 16.6396 50.1377 16.1084 50.1377ZM27.9204 47.1577C27.0737 47.1577 26.3405 46.9723 25.7207 46.6016C25.1064 46.2253 24.6305 45.6912 24.293 44.9995C23.9609 44.3078 23.7949 43.486 23.7949 42.5342V42.5176C23.7949 41.5602 23.9609 40.7357 24.293 40.0439C24.6305 39.3522 25.1064 38.821 25.7207 38.4502C26.3405 38.0794 27.0737 37.894 27.9204 37.894C28.7726 37.894 29.5059 38.0794 30.1201 38.4502C30.7344 38.821 31.2075 39.3522 31.5396 40.0439C31.8771 40.7357 32.0459 41.5602 32.0459 42.5176V42.5342C32.0459 43.486 31.8771 44.3078 31.5396 44.9995C31.2075 45.6912 30.7344 46.2253 30.1201 46.6016C29.5059 46.9723 28.7726 47.1577 27.9204 47.1577ZM27.9204 45.8794C28.4849 45.8794 28.9635 45.7466 29.3564 45.481C29.7493 45.2153 30.0482 44.8335 30.2529 44.3354C30.4632 43.8374 30.5684 43.237 30.5684 42.5342V42.5176C30.5684 41.8092 30.4632 41.2061 30.2529 40.708C30.0482 40.21 29.7493 39.8309 29.3564 39.5708C28.9635 39.3052 28.4849 39.1724 27.9204 39.1724C27.356 39.1724 26.8773 39.3052 26.4844 39.5708C26.0915 39.8309 25.7899 40.21 25.5796 40.708C25.3748 41.2061 25.2725 41.8092 25.2725 42.5176V42.5342C25.2725 43.237 25.3748 43.8374 25.5796 44.3354C25.7899 44.8335 26.0915 45.2153 26.4844 45.481C26.8773 45.7466 27.356 45.8794 27.9204 45.8794ZM37.2837 47.1577C36.6086 47.1577 36.0413 47.0304 35.582 46.7759C35.1227 46.5158 34.7769 46.1395 34.5444 45.647C34.3175 45.1489 34.2041 44.5485 34.2041 43.8457V38.0518H35.6484V43.4971C35.6484 44.2995 35.8034 44.8971 36.1133 45.29C36.4287 45.6829 36.9434 45.8794 37.6572 45.8794C38.0501 45.8794 38.396 45.8213 38.6948 45.7051C38.9992 45.5889 39.2537 45.4229 39.4585 45.207C39.6632 44.9857 39.8154 44.7201 39.915 44.4102C40.0202 44.0947 40.0728 43.7406 40.0728 43.3477V38.0518H41.5171V47H40.0728V45.6636H39.9399C39.7961 45.979 39.5996 46.2502 39.3506 46.4771C39.1016 46.6984 38.8027 46.8672 38.4541 46.9834C38.111 47.0996 37.7209 47.1577 37.2837 47.1577ZM48.9961 47V38.0518H50.4404V39.3965H50.5732C50.8001 38.9206 51.1266 38.5526 51.5527 38.2925C51.9788 38.0269 52.5212 37.894 53.1797 37.894C54.1868 37.894 54.9588 38.1818 55.4956 38.7573C56.0379 39.3273 56.3091 40.1436 56.3091 41.2061V47H54.8647V41.5547C54.8647 40.7467 54.6932 40.1491 54.3501 39.7617C54.0125 39.3688 53.4868 39.1724 52.7729 39.1724C52.297 39.1724 51.8848 39.2747 51.5361 39.4795C51.1875 39.6842 50.9163 39.9748 50.7227 40.3511C50.5345 40.7274 50.4404 41.1784 50.4404 41.7041V47H48.9961ZM62.5762 47.1577C61.724 47.1577 60.9907 46.9696 60.3765 46.5933C59.7677 46.217 59.2974 45.6857 58.9653 44.9995C58.6388 44.3078 58.4756 43.4943 58.4756 42.5591V42.5508C58.4756 41.6266 58.6388 40.8159 58.9653 40.1187C59.2974 39.4214 59.765 38.8763 60.3682 38.4834C60.9714 38.0905 61.6769 37.894 62.4849 37.894C63.2983 37.894 63.9956 38.0822 64.5767 38.4585C65.1632 38.8348 65.6115 39.3605 65.9214 40.0356C66.2368 40.7052 66.3945 41.4855 66.3945 42.3765V42.9409H59.2227V41.7871H65.6558L64.9419 42.8413V42.2686C64.9419 41.5658 64.8368 40.9875 64.6265 40.5337C64.4162 40.0799 64.1257 39.7424 63.7549 39.521C63.3841 39.2941 62.958 39.1807 62.4766 39.1807C61.9951 39.1807 61.5635 39.2996 61.1816 39.5376C60.8053 39.77 60.5065 40.1159 60.2852 40.5752C60.0638 41.0345 59.9531 41.599 59.9531 42.2686V42.8413C59.9531 43.4777 60.061 44.0228 60.2769 44.4766C60.4927 44.9248 60.7998 45.2707 61.1982 45.5142C61.5967 45.7521 62.0671 45.8711 62.6094 45.8711C63.0133 45.8711 63.3647 45.8158 63.6636 45.7051C63.9624 45.5944 64.2087 45.4533 64.4023 45.2817C64.596 45.1102 64.7316 44.9359 64.8091 44.7588L64.8423 44.6841H66.2866L66.27 44.7505C66.1925 45.0549 66.0542 45.3509 65.855 45.6387C65.6613 45.9209 65.4095 46.1782 65.0996 46.4106C64.7897 46.6375 64.4217 46.8201 63.9956 46.9585C63.575 47.0913 63.1019 47.1577 62.5762 47.1577ZM72.2881 47.1577C71.4359 47.1577 70.7026 46.9696 70.0884 46.5933C69.4797 46.217 69.0093 45.6857 68.6772 44.9995C68.3507 44.3078 68.1875 43.4943 68.1875 42.5591V42.5508C68.1875 41.6266 68.3507 40.8159 68.6772 40.1187C69.0093 39.4214 69.4769 38.8763 70.0801 38.4834C70.6833 38.0905 71.3888 37.894 72.1968 37.894C73.0103 37.894 73.7075 38.0822 74.2886 38.4585C74.8752 38.8348 75.3234 39.3605 75.6333 40.0356C75.9487 40.7052 76.1064 41.4855 76.1064 42.3765V42.9409H68.9346V41.7871H75.3677L74.6538 42.8413V42.2686C74.6538 41.5658 74.5487 40.9875 74.3384 40.5337C74.1281 40.0799 73.8376 39.7424 73.4668 39.521C73.096 39.2941 72.6699 39.1807 72.1885 39.1807C71.707 39.1807 71.2754 39.2996 70.8936 39.5376C70.5173 39.77 70.2184 40.1159 69.9971 40.5752C69.7757 41.0345 69.665 41.599 69.665 42.2686V42.8413C69.665 43.4777 69.7729 44.0228 69.9888 44.4766C70.2046 44.9248 70.5117 45.2707 70.9102 45.5142C71.3086 45.7521 71.779 45.8711 72.3213 45.8711C72.7253 45.8711 73.0767 45.8158 73.3755 45.7051C73.6743 45.5944 73.9206 45.4533 74.1143 45.2817C74.3079 45.1102 74.4435 44.9359 74.521 44.7588L74.5542 44.6841H75.9985L75.9819 44.7505C75.9045 45.0549 75.7661 45.3509 75.5669 45.6387C75.3732 45.9209 75.1214 46.1782 74.8115 46.4106C74.5016 46.6375 74.1336 46.8201 73.7075 46.9585C73.2869 47.0913 72.8138 47.1577 72.2881 47.1577ZM81.6514 47.1577C80.8988 47.1577 80.2402 46.9668 79.6758 46.585C79.1113 46.2031 78.6742 45.6663 78.3643 44.9746C78.0544 44.2773 77.8994 43.4639 77.8994 42.5342V42.5176C77.8994 41.5824 78.0544 40.7689 78.3643 40.0771C78.6742 39.3854 79.1086 38.8486 79.6675 38.4668C80.2319 38.085 80.8932 37.894 81.6514 37.894C82.0609 37.894 82.4455 37.9604 82.8052 38.0933C83.1704 38.2205 83.4941 38.4004 83.7764 38.6328C84.0586 38.8652 84.2799 39.1419 84.4404 39.4629H84.5732V34.499H86.0176V47H84.5732V45.5723H84.4404C84.2578 45.9043 84.0282 46.1893 83.7515 46.4272C83.4748 46.6597 83.1593 46.8395 82.8052 46.9668C82.451 47.0941 82.0664 47.1577 81.6514 47.1577ZM81.9834 45.8794C82.5257 45.8794 82.9933 45.7438 83.3862 45.4727C83.7791 45.2015 84.0807 44.8169 84.291 44.3188C84.5013 43.8153 84.6064 43.2204 84.6064 42.5342V42.5176C84.6064 41.8258 84.5013 41.231 84.291 40.7329C84.0807 40.2349 83.7791 39.8503 83.3862 39.5791C82.9933 39.3079 82.5257 39.1724 81.9834 39.1724C81.4411 39.1724 80.9735 39.3079 80.5806 39.5791C80.1932 39.8447 79.8944 40.2266 79.6841 40.7246C79.4793 41.2227 79.377 41.8203 79.377 42.5176V42.5342C79.377 43.2259 79.4793 43.8236 79.6841 44.3271C79.8944 44.8252 80.1932 45.2098 80.5806 45.481C80.9735 45.7466 81.4411 45.8794 81.9834 45.8794ZM96.7505 47.0664C95.8319 47.0664 95.165 46.881 94.75 46.5103C94.3405 46.1395 94.1357 45.528 94.1357 44.6758V39.2471H92.7246V38.0518H94.1357V35.7358H95.6299V38.0518H97.5889V39.2471H95.6299V44.3105C95.6299 44.8363 95.7295 45.2153 95.9287 45.4478C96.1279 45.6746 96.46 45.7881 96.9248 45.7881C97.0521 45.7881 97.16 45.7853 97.2485 45.7798C97.3426 45.7743 97.4561 45.766 97.5889 45.7549V46.9834C97.4505 47.0055 97.3122 47.0249 97.1738 47.0415C97.0355 47.0581 96.8944 47.0664 96.7505 47.0664ZM103.308 47.1577C102.461 47.1577 101.728 46.9723 101.108 46.6016C100.494 46.2253 100.018 45.6912 99.6807 44.9995C99.3486 44.3078 99.1826 43.486 99.1826 42.5342V42.5176C99.1826 41.5602 99.3486 40.7357 99.6807 40.0439C100.018 39.3522 100.494 38.821 101.108 38.4502C101.728 38.0794 102.461 37.894 103.308 37.894C104.16 37.894 104.894 38.0794 105.508 38.4502C106.122 38.821 106.595 39.3522 106.927 40.0439C107.265 40.7357 107.434 41.5602 107.434 42.5176V42.5342C107.434 43.486 107.265 44.3078 106.927 44.9995C106.595 45.6912 106.122 46.2253 105.508 46.6016C104.894 46.9723 104.16 47.1577 103.308 47.1577ZM103.308 45.8794C103.873 45.8794 104.351 45.7466 104.744 45.481C105.137 45.2153 105.436 44.8335 105.641 44.3354C105.851 43.8374 105.956 43.237 105.956 42.5342V42.5176C105.956 41.8092 105.851 41.2061 105.641 40.708C105.436 40.21 105.137 39.8309 104.744 39.5708C104.351 39.3052 103.873 39.1724 103.308 39.1724C102.744 39.1724 102.265 39.3052 101.872 39.5708C101.479 39.8309 101.178 40.21 100.967 40.708C100.763 41.2061 100.66 41.8092 100.66 42.5176V42.5342C100.66 43.237 100.763 43.8374 100.967 44.3354C101.178 44.8335 101.479 45.2153 101.872 45.481C102.265 45.7466 102.744 45.8794 103.308 45.8794ZM117.76 47.1577C117.007 47.1577 116.349 46.9668 115.784 46.585C115.22 46.2031 114.783 45.6663 114.473 44.9746C114.163 44.2773 114.008 43.4639 114.008 42.5342V42.5176C114.008 41.5824 114.163 40.7689 114.473 40.0771C114.783 39.3854 115.217 38.8486 115.776 38.4668C116.34 38.085 117.002 37.894 117.76 37.894C118.169 37.894 118.554 37.9604 118.914 38.0933C119.279 38.2205 119.603 38.4004 119.885 38.6328C120.167 38.8652 120.388 39.1419 120.549 39.4629H120.682V34.499H122.126V47H120.682V45.5723H120.549C120.366 45.9043 120.137 46.1893 119.86 46.4272C119.583 46.6597 119.268 46.8395 118.914 46.9668C118.559 47.0941 118.175 47.1577 117.76 47.1577ZM118.092 45.8794C118.634 45.8794 119.102 45.7438 119.495 45.4727C119.888 45.2015 120.189 44.8169 120.399 44.3188C120.61 43.8153 120.715 43.2204 120.715 42.5342V42.5176C120.715 41.8258 120.61 41.231 120.399 40.7329C120.189 40.2349 119.888 39.8503 119.495 39.5791C119.102 39.3079 118.634 39.1724 118.092 39.1724C117.549 39.1724 117.082 39.3079 116.689 39.5791C116.302 39.8447 116.003 40.2266 115.792 40.7246C115.588 41.2227 115.485 41.8203 115.485 42.5176V42.5342C115.485 43.2259 115.588 43.8236 115.792 44.3271C116.003 44.8252 116.302 45.2098 116.689 45.481C117.082 45.7466 117.549 45.8794 118.092 45.8794ZM128.576 47.1577C127.729 47.1577 126.996 46.9723 126.376 46.6016C125.762 46.2253 125.286 45.6912 124.948 44.9995C124.616 44.3078 124.45 43.486 124.45 42.5342V42.5176C124.45 41.5602 124.616 40.7357 124.948 40.0439C125.286 39.3522 125.762 38.821 126.376 38.4502C126.996 38.0794 127.729 37.894 128.576 37.894C129.428 37.894 130.161 38.0794 130.775 38.4502C131.39 38.821 131.863 39.3522 132.195 40.0439C132.532 40.7357 132.701 41.5602 132.701 42.5176V42.5342C132.701 43.486 132.532 44.3078 132.195 44.9995C131.863 45.6912 131.39 46.2253 130.775 46.6016C130.161 46.9723 129.428 47.1577 128.576 47.1577ZM128.576 45.8794C129.14 45.8794 129.619 45.7466 130.012 45.481C130.405 45.2153 130.703 44.8335 130.908 44.3354C131.118 43.8374 131.224 43.237 131.224 42.5342V42.5176C131.224 41.8092 131.118 41.2061 130.908 40.708C130.703 40.21 130.405 39.8309 130.012 39.5708C129.619 39.3052 129.14 39.1724 128.576 39.1724C128.011 39.1724 127.533 39.3052 127.14 39.5708C126.747 39.8309 126.445 40.21 126.235 40.708C126.03 41.2061 125.928 41.8092 125.928 42.5176V42.5342C125.928 43.237 126.03 43.8374 126.235 44.3354C126.445 44.8335 126.747 45.2153 127.14 45.481C127.533 45.7466 128.011 45.8794 128.576 45.8794ZM140.487 50.1377C140.393 50.1377 140.288 50.1322 140.172 50.1211C140.056 50.1156 139.948 50.1045 139.848 50.0879V48.9009C139.937 48.9175 140.034 48.9285 140.139 48.9341C140.244 48.9396 140.346 48.9424 140.446 48.9424C140.855 48.9424 141.19 48.8372 141.45 48.627C141.716 48.4167 141.929 48.0542 142.089 47.5396L142.255 47.0083L138.943 38.0518H140.487L143.243 46.3193L142.67 45.4146H143.351L142.778 46.3193L145.526 38.0518H147.045L143.55 47.5479C143.307 48.2174 143.049 48.7404 142.778 49.1167C142.507 49.493 142.189 49.7559 141.824 49.9053C141.464 50.0602 141.019 50.1377 140.487 50.1377ZM152.299 47.1577C151.453 47.1577 150.719 46.9723 150.1 46.6016C149.485 46.2253 149.009 45.6912 148.672 44.9995C148.34 44.3078 148.174 43.486 148.174 42.5342V42.5176C148.174 41.5602 148.34 40.7357 148.672 40.0439C149.009 39.3522 149.485 38.821 150.1 38.4502C150.719 38.0794 151.453 37.894 152.299 37.894C153.152 37.894 153.885 38.0794 154.499 38.4502C155.113 38.821 155.586 39.3522 155.918 40.0439C156.256 40.7357 156.425 41.5602 156.425 42.5176V42.5342C156.425 43.486 156.256 44.3078 155.918 44.9995C155.586 45.6912 155.113 46.2253 154.499 46.6016C153.885 46.9723 153.152 47.1577 152.299 47.1577ZM152.299 45.8794C152.864 45.8794 153.342 45.7466 153.735 45.481C154.128 45.2153 154.427 44.8335 154.632 44.3354C154.842 43.8374 154.947 43.237 154.947 42.5342V42.5176C154.947 41.8092 154.842 41.2061 154.632 40.708C154.427 40.21 154.128 39.8309 153.735 39.5708C153.342 39.3052 152.864 39.1724 152.299 39.1724C151.735 39.1724 151.256 39.3052 150.863 39.5708C150.47 39.8309 150.169 40.21 149.958 40.708C149.754 41.2061 149.651 41.8092 149.651 42.5176V42.5342C149.651 43.237 149.754 43.8374 149.958 44.3354C150.169 44.8335 150.47 45.2153 150.863 45.481C151.256 45.7466 151.735 45.8794 152.299 45.8794ZM161.663 47.1577C160.987 47.1577 160.42 47.0304 159.961 46.7759C159.502 46.5158 159.156 46.1395 158.923 45.647C158.696 45.1489 158.583 44.5485 158.583 43.8457V38.0518H160.027V43.4971C160.027 44.2995 160.182 44.8971 160.492 45.29C160.808 45.6829 161.322 45.8794 162.036 45.8794C162.429 45.8794 162.775 45.8213 163.074 45.7051C163.378 45.5889 163.633 45.4229 163.837 45.207C164.042 44.9857 164.194 44.7201 164.294 44.4102C164.399 44.0947 164.452 43.7406 164.452 43.3477V38.0518H165.896V47H164.452V45.6636H164.319C164.175 45.979 163.979 46.2502 163.729 46.4771C163.48 46.6984 163.182 46.8672 162.833 46.9834C162.49 47.0996 162.1 47.1577 161.663 47.1577ZM168.594 47V38.0518H170.038V39.3799H170.171C170.342 38.9095 170.633 38.5443 171.042 38.2842C171.452 38.0241 171.958 37.894 172.562 37.894C172.7 37.894 172.835 37.9023 172.968 37.9189C173.107 37.93 173.212 37.9411 173.284 37.9521V39.355C173.134 39.3273 172.988 39.3079 172.844 39.2969C172.705 39.2803 172.556 39.272 172.396 39.272C171.936 39.272 171.529 39.3633 171.175 39.5459C170.821 39.7285 170.542 39.9831 170.337 40.3096C170.138 40.6361 170.038 41.0179 170.038 41.4551V47H168.594ZM179.933 47V34.499H181.377V39.3965H181.51C181.737 38.9206 182.063 38.5526 182.489 38.2925C182.915 38.0269 183.458 37.894 184.116 37.894C184.786 37.894 185.353 38.0241 185.818 38.2842C186.283 38.5387 186.637 38.9123 186.88 39.4048C187.124 39.8973 187.246 40.4977 187.246 41.2061V47H185.801V41.5547C185.801 40.7467 185.63 40.1491 185.287 39.7617C184.949 39.3688 184.423 39.1724 183.709 39.1724C183.234 39.1724 182.821 39.2747 182.473 39.4795C182.124 39.6842 181.853 39.9748 181.659 40.3511C181.471 40.7274 181.377 41.1784 181.377 41.7041V47H179.933ZM192.317 47.1577C191.753 47.1577 191.244 47.0498 190.79 46.834C190.342 46.6182 189.985 46.311 189.719 45.9126C189.459 45.5142 189.329 45.0438 189.329 44.5015V44.4849C189.329 43.9536 189.456 43.4998 189.711 43.1235C189.965 42.7417 190.336 42.4429 190.823 42.2271C191.31 42.0112 191.9 41.884 192.591 41.8452L195.878 41.646V42.7998L192.766 42.999C192.085 43.0378 191.587 43.1789 191.271 43.4224C190.962 43.6659 190.807 44.009 190.807 44.4517V44.4683C190.807 44.922 190.978 45.2762 191.321 45.5308C191.664 45.7798 192.096 45.9043 192.616 45.9043C193.109 45.9043 193.546 45.8075 193.928 45.6138C194.31 45.4146 194.608 45.1462 194.824 44.8086C195.046 44.471 195.156 44.0892 195.156 43.6631V40.874C195.156 40.3206 194.987 39.9001 194.65 39.6123C194.318 39.319 193.817 39.1724 193.147 39.1724C192.611 39.1724 192.171 39.2692 191.828 39.4629C191.485 39.651 191.255 39.9194 191.139 40.2681L191.13 40.293H189.686L189.694 40.2432C189.772 39.7728 189.965 39.3633 190.275 39.0146C190.591 38.6605 190.998 38.3866 191.496 38.1929C191.994 37.9937 192.561 37.894 193.197 37.894C193.928 37.894 194.545 38.013 195.048 38.251C195.557 38.4889 195.942 38.832 196.202 39.2803C196.468 39.723 196.601 40.2542 196.601 40.874V47H195.156V45.6802H195.023C194.835 45.9956 194.606 46.264 194.334 46.4854C194.069 46.7067 193.767 46.8755 193.43 46.9917C193.092 47.1024 192.721 47.1577 192.317 47.1577ZM203.689 47.1577C203.274 47.1577 202.89 47.0941 202.536 46.9668C202.181 46.8395 201.866 46.6597 201.589 46.4272C201.313 46.1893 201.083 45.9043 200.9 45.5723H200.768V47H199.323V34.499H200.768V39.4629H200.9C201.066 39.1419 201.288 38.8652 201.564 38.6328C201.847 38.4004 202.168 38.2205 202.527 38.0933C202.893 37.9604 203.28 37.894 203.689 37.894C204.448 37.894 205.106 38.085 205.665 38.4668C206.229 38.8486 206.667 39.3854 206.977 40.0771C207.286 40.7689 207.441 41.5824 207.441 42.5176V42.5342C207.441 43.4639 207.286 44.2773 206.977 44.9746C206.667 45.6663 206.229 46.2031 205.665 46.585C205.106 46.9668 204.448 47.1577 203.689 47.1577ZM203.357 45.8794C203.905 45.8794 204.373 45.7466 204.76 45.481C205.148 45.2098 205.444 44.8252 205.648 44.3271C205.859 43.8236 205.964 43.2259 205.964 42.5342V42.5176C205.964 41.8203 205.859 41.2227 205.648 40.7246C205.444 40.2266 205.148 39.8447 204.76 39.5791C204.373 39.3079 203.905 39.1724 203.357 39.1724C202.815 39.1724 202.347 39.3079 201.955 39.5791C201.562 39.8503 201.26 40.2349 201.05 40.7329C200.84 41.231 200.734 41.8258 200.734 42.5176V42.5342C200.734 43.2204 200.84 43.8153 201.05 44.3188C201.26 44.8169 201.562 45.2015 201.955 45.4727C202.347 45.7438 202.815 45.8794 203.357 45.8794ZM209.716 47V38.0518H211.16V47H209.716ZM210.446 36.3252C210.175 36.3252 209.94 36.2284 209.741 36.0347C209.547 35.8354 209.45 35.6003 209.45 35.3291C209.45 35.0524 209.547 34.8172 209.741 34.6235C209.94 34.4299 210.175 34.333 210.446 34.333C210.723 34.333 210.958 34.4299 211.152 34.6235C211.346 34.8172 211.442 35.0524 211.442 35.3291C211.442 35.6003 211.346 35.8354 211.152 36.0347C210.958 36.2284 210.723 36.3252 210.446 36.3252ZM217.062 47.0664C216.143 47.0664 215.477 46.881 215.062 46.5103C214.652 46.1395 214.447 45.528 214.447 44.6758V39.2471H213.036V38.0518H214.447V35.7358H215.941V38.0518H217.9V39.2471H215.941V44.3105C215.941 44.8363 216.041 45.2153 216.24 45.4478C216.439 45.6746 216.771 45.7881 217.236 45.7881C217.364 45.7881 217.472 45.7853 217.56 45.7798C217.654 45.7743 217.768 45.766 217.9 45.7549V46.9834C217.762 47.0055 217.624 47.0249 217.485 47.0415C217.347 47.0581 217.206 47.0664 217.062 47.0664ZM222.964 47.1577C222.3 47.1577 221.713 47.0581 221.204 46.8589C220.695 46.6541 220.285 46.3691 219.976 46.0039C219.671 45.6387 219.491 45.2098 219.436 44.7173H220.914C221.035 45.0881 221.273 45.3869 221.627 45.6138C221.982 45.8407 222.444 45.9541 223.014 45.9541C223.418 45.9541 223.772 45.896 224.076 45.7798C224.386 45.658 224.63 45.4948 224.807 45.29C224.984 45.0798 225.072 44.839 225.072 44.5679V44.5513C225.072 44.2469 224.951 43.9896 224.707 43.7793C224.464 43.5635 224.065 43.3892 223.512 43.2563L222.125 42.9243C221.567 42.7915 221.107 42.62 220.748 42.4097C220.388 42.1938 220.122 41.931 219.951 41.6211C219.779 41.3057 219.693 40.9349 219.693 40.5088V40.5005C219.693 40.0024 219.837 39.557 220.125 39.1641C220.418 38.7712 220.817 38.4613 221.32 38.2344C221.824 38.0075 222.391 37.894 223.022 37.894C223.647 37.894 224.201 37.9937 224.682 38.1929C225.169 38.3866 225.559 38.6632 225.853 39.0229C226.151 39.3826 226.334 39.806 226.4 40.293H224.981C224.887 39.9388 224.671 39.651 224.333 39.4297C223.996 39.2083 223.556 39.0977 223.014 39.0977C222.66 39.0977 222.344 39.1558 222.067 39.272C221.791 39.3826 221.572 39.5376 221.412 39.7368C221.251 39.936 221.171 40.1685 221.171 40.4341V40.4507C221.171 40.6499 221.223 40.827 221.329 40.9819C221.434 41.1369 221.597 41.2725 221.818 41.3887C222.04 41.5049 222.325 41.6073 222.673 41.6958L224.051 42.0278C224.892 42.2326 225.518 42.5259 225.927 42.9077C226.342 43.2896 226.55 43.8014 226.55 44.4434V44.46C226.55 44.9912 226.392 45.4616 226.077 45.8711C225.761 46.2751 225.332 46.5905 224.79 46.8174C224.253 47.0443 223.645 47.1577 222.964 47.1577ZM233.605 47V38.0518H235.05V47H233.605ZM234.336 36.3252C234.065 36.3252 233.83 36.2284 233.63 36.0347C233.437 35.8354 233.34 35.6003 233.34 35.3291C233.34 35.0524 233.437 34.8172 233.63 34.6235C233.83 34.4299 234.065 34.333 234.336 34.333C234.613 34.333 234.848 34.4299 235.042 34.6235C235.235 34.8172 235.332 35.0524 235.332 35.3291C235.332 35.6003 235.235 35.8354 235.042 36.0347C234.848 36.2284 234.613 36.3252 234.336 36.3252ZM237.772 47V38.0518H239.217V39.3965H239.35C239.576 38.9206 239.903 38.5526 240.329 38.2925C240.755 38.0269 241.298 37.894 241.956 37.894C242.963 37.894 243.735 38.1818 244.272 38.7573C244.814 39.3273 245.085 40.1436 245.085 41.2061V47H243.641V41.5547C243.641 40.7467 243.47 40.1491 243.126 39.7617C242.789 39.3688 242.263 39.1724 241.549 39.1724C241.073 39.1724 240.661 39.2747 240.312 39.4795C239.964 39.6842 239.693 39.9748 239.499 40.3511C239.311 40.7274 239.217 41.1784 239.217 41.7041V47H237.772ZM254.938 47.1577C254.374 47.1577 253.865 47.0498 253.411 46.834C252.963 46.6182 252.606 46.311 252.34 45.9126C252.08 45.5142 251.95 45.0438 251.95 44.5015V44.4849C251.95 43.9536 252.077 43.4998 252.332 43.1235C252.587 42.7417 252.957 42.4429 253.444 42.2271C253.931 42.0112 254.521 41.884 255.212 41.8452L258.5 41.646V42.7998L255.387 42.999C254.706 43.0378 254.208 43.1789 253.893 43.4224C253.583 43.6659 253.428 44.009 253.428 44.4517V44.4683C253.428 44.922 253.599 45.2762 253.942 45.5308C254.285 45.7798 254.717 45.9043 255.237 45.9043C255.73 45.9043 256.167 45.8075 256.549 45.6138C256.931 45.4146 257.229 45.1462 257.445 44.8086C257.667 44.471 257.777 44.0892 257.777 43.6631V40.874C257.777 40.3206 257.609 39.9001 257.271 39.6123C256.939 39.319 256.438 39.1724 255.769 39.1724C255.232 39.1724 254.792 39.2692 254.449 39.4629C254.106 39.651 253.876 39.9194 253.76 40.2681L253.751 40.293H252.307L252.315 40.2432C252.393 39.7728 252.587 39.3633 252.896 39.0146C253.212 38.6605 253.619 38.3866 254.117 38.1929C254.615 37.9937 255.182 37.894 255.818 37.894C256.549 37.894 257.166 38.013 257.669 38.251C258.179 38.4889 258.563 38.832 258.823 39.2803C259.089 39.723 259.222 40.2542 259.222 40.874V47H257.777V45.6802H257.645C257.456 45.9956 257.227 46.264 256.956 46.4854C256.69 46.7067 256.388 46.8755 256.051 46.9917C255.713 47.1024 255.342 47.1577 254.938 47.1577ZM269.946 47.1577C269.194 47.1577 268.535 46.9668 267.971 46.585C267.406 46.2031 266.969 45.6663 266.659 44.9746C266.349 44.2773 266.194 43.4639 266.194 42.5342V42.5176C266.194 41.5824 266.349 40.7689 266.659 40.0771C266.969 39.3854 267.403 38.8486 267.962 38.4668C268.527 38.085 269.188 37.894 269.946 37.894C270.356 37.894 270.74 37.9604 271.1 38.0933C271.465 38.2205 271.789 38.4004 272.071 38.6328C272.354 38.8652 272.575 39.1419 272.735 39.4629H272.868V34.499H274.312V47H272.868V45.5723H272.735C272.553 45.9043 272.323 46.1893 272.046 46.4272C271.77 46.6597 271.454 46.8395 271.1 46.9668C270.746 47.0941 270.361 47.1577 269.946 47.1577ZM270.278 45.8794C270.821 45.8794 271.288 45.7438 271.681 45.4727C272.074 45.2015 272.376 44.8169 272.586 44.3188C272.796 43.8153 272.901 43.2204 272.901 42.5342V42.5176C272.901 41.8258 272.796 41.231 272.586 40.7329C272.376 40.2349 272.074 39.8503 271.681 39.5791C271.288 39.3079 270.821 39.1724 270.278 39.1724C269.736 39.1724 269.268 39.3079 268.875 39.5791C268.488 39.8447 268.189 40.2266 267.979 40.7246C267.774 41.2227 267.672 41.8203 267.672 42.5176V42.5342C267.672 43.2259 267.774 43.8236 267.979 44.3271C268.189 44.8252 268.488 45.2098 268.875 45.481C269.268 45.7466 269.736 45.8794 270.278 45.8794ZM279.542 47.1577C278.978 47.1577 278.468 47.0498 278.015 46.834C277.566 46.6182 277.209 46.311 276.944 45.9126C276.684 45.5142 276.554 45.0438 276.554 44.5015V44.4849C276.554 43.9536 276.681 43.4998 276.936 43.1235C277.19 42.7417 277.561 42.4429 278.048 42.2271C278.535 42.0112 279.124 41.884 279.816 41.8452L283.103 41.646V42.7998L279.99 42.999C279.31 43.0378 278.812 43.1789 278.496 43.4224C278.186 43.6659 278.031 44.009 278.031 44.4517V44.4683C278.031 44.922 278.203 45.2762 278.546 45.5308C278.889 45.7798 279.321 45.9043 279.841 45.9043C280.333 45.9043 280.771 45.8075 281.152 45.6138C281.534 45.4146 281.833 45.1462 282.049 44.8086C282.27 44.471 282.381 44.0892 282.381 43.6631V40.874C282.381 40.3206 282.212 39.9001 281.875 39.6123C281.542 39.319 281.042 39.1724 280.372 39.1724C279.835 39.1724 279.395 39.2692 279.052 39.4629C278.709 39.651 278.479 39.9194 278.363 40.2681L278.355 40.293H276.911L276.919 40.2432C276.996 39.7728 277.19 39.3633 277.5 39.0146C277.815 38.6605 278.222 38.3866 278.72 38.1929C279.218 37.9937 279.785 37.894 280.422 37.894C281.152 37.894 281.769 38.013 282.273 38.251C282.782 38.4889 283.167 38.832 283.427 39.2803C283.692 39.723 283.825 40.2542 283.825 40.874V47H282.381V45.6802H282.248C282.06 45.9956 281.83 46.264 281.559 46.4854C281.293 46.7067 280.992 46.8755 280.654 46.9917C280.317 47.1024 279.946 47.1577 279.542 47.1577ZM286.896 50.1377C286.802 50.1377 286.697 50.1322 286.581 50.1211C286.465 50.1156 286.357 50.1045 286.257 50.0879V48.9009C286.346 48.9175 286.443 48.9285 286.548 48.9341C286.653 48.9396 286.755 48.9424 286.855 48.9424C287.264 48.9424 287.599 48.8372 287.859 48.627C288.125 48.4167 288.338 48.0542 288.499 47.5396L288.665 47.0083L285.353 38.0518H286.896L289.652 46.3193L289.08 45.4146H289.76L289.188 46.3193L291.935 38.0518H293.454L289.959 47.5479C289.716 48.2174 289.459 48.7404 289.188 49.1167C288.916 49.493 288.598 49.7559 288.233 49.9053C287.873 50.0602 287.428 50.1377 286.896 50.1377ZM295.297 47.083C295.004 47.083 294.749 46.9779 294.533 46.7676C294.323 46.5518 294.218 46.2972 294.218 46.0039C294.218 45.7051 294.323 45.4505 294.533 45.2402C294.749 45.0299 295.004 44.9248 295.297 44.9248C295.596 44.9248 295.85 45.0299 296.061 45.2402C296.271 45.4505 296.376 45.7051 296.376 46.0039C296.376 46.2972 296.271 46.5518 296.061 46.7676C295.85 46.9779 295.596 47.083 295.297 47.083Z" fill="#FDFCFB"/>
</g>
<defs>
<filter id="filter0_b_3841_32701" x="66.2058" y="38.25" width="59.5884" height="62.75" filterUnits="userSpaceOnUse" color-interpolation-filters="sRGB">
<feFlood flood-opacity="0" result="BackgroundImageFix"/>
<feGaussianBlur in="BackgroundImageFix" stdDeviation="11"/>
<feComposite in2="SourceAlpha" operator="in" result="effect1_backgroundBlur_3841_32701"/>
<feBlend mode="normal" in="SourceGraphic" in2="effect1_backgroundBlur_3841_32701" result="shape"/>
</filter>
<filter id="filter1_b_3841_32701" x="-22" y="-22" width="384" height="106" filterUnits="userSpaceOnUse" color-interpolation-filters="sRGB">
<feFlood flood-opacity="0" result="BackgroundImageFix"/>
<feGaussianBlur in="BackgroundImageFix" stdDeviation="11"/>
<feComposite in2="SourceAlpha" operator="in" result="effect1_backgroundBlur_3841_32701"/>
<feBlend mode="normal" in="SourceGraphic" in2="effect1_backgroundBlur_3841_32701" result="shape"/>
</filter>
</defs>
</svg>
