<svg width="266" height="68" viewBox="0 0 266 68" fill="none" xmlns="http://www.w3.org/2000/svg">
<g filter="url(#filter0_b_1750_33845)">
<path d="M229 68L217.742 49.25H240.258L229 68Z" fill="#FDFCFB" fill-opacity="0.8"/>
</g>
<g filter="url(#filter1_b_1750_33845)">
<rect width="266" height="52" rx="12" fill="#FDFCFB" fill-opacity="0.8"/>
<path d="M21.811 15.4565C22.5747 15.4565 23.2692 15.6447 23.8945 16.021C24.5254 16.3918 25.0262 16.8926 25.397 17.5234C25.7677 18.1488 25.9531 18.8433 25.9531 19.6069C25.9531 19.6567 25.9531 19.701 25.9531 19.7397C25.9531 19.7785 25.9504 19.8145 25.9448 19.8477C25.9338 19.9915 25.8701 20.1077 25.7539 20.1963C25.6432 20.2793 25.5243 20.3208 25.397 20.3208C25.2642 20.3208 25.1424 20.2793 25.0317 20.1963C24.9266 20.1077 24.8713 19.9694 24.8657 19.7812C24.8657 19.7425 24.8657 19.7093 24.8657 19.6816C24.8657 19.654 24.8657 19.6291 24.8657 19.6069C24.8657 19.0425 24.7274 18.5306 24.4507 18.0713C24.1795 17.6064 23.8115 17.2357 23.3467 16.959C22.8874 16.6823 22.3755 16.5439 21.811 16.5439C21.2466 16.5439 20.7319 16.6823 20.2671 16.959C19.8022 17.2357 19.4315 17.6064 19.1548 18.0713C18.8836 18.5306 18.748 19.0425 18.748 19.6069C18.748 19.9777 18.8089 20.3319 18.9307 20.6694C19.0579 21.0015 19.2323 21.3003 19.4536 21.5659C19.5698 21.7043 19.6169 21.8426 19.5947 21.981C19.5781 22.1193 19.5173 22.2355 19.4121 22.3296C19.307 22.4181 19.1852 22.4624 19.0469 22.4624C18.9694 22.4624 18.8892 22.443 18.8062 22.4043C18.7287 22.3656 18.654 22.3047 18.582 22.2217C18.2943 21.862 18.0674 21.4608 17.9014 21.0181C17.7409 20.5698 17.6606 20.0994 17.6606 19.6069C17.6606 19.0314 17.7686 18.4946 17.9844 17.9966C18.2002 17.493 18.4963 17.0531 18.8726 16.6768C19.2544 16.2949 19.6971 15.9961 20.2007 15.7803C20.7043 15.5645 21.241 15.4565 21.811 15.4565ZM29.5806 33.6934C28.2026 34.1969 26.8994 34.2523 25.6709 33.8594C24.4479 33.472 23.3107 32.6419 22.2593 31.3691L19.4785 28.0073C19.3844 27.8856 19.2987 27.7583 19.2212 27.6255C19.1437 27.4871 19.0856 27.3571 19.0469 27.2354C18.8864 26.8092 18.9058 26.4274 19.105 26.0898C19.3097 25.7523 19.6003 25.5143 19.9766 25.376C20.2588 25.2764 20.5382 25.2681 20.8149 25.3511C21.0916 25.4285 21.3517 25.5946 21.5952 25.8491L22.5664 26.9116C22.5941 26.9393 22.6217 26.9476 22.6494 26.9365C22.6882 26.9255 22.6992 26.895 22.6826 26.8452L20.3169 20.3374C20.1398 19.8449 20.1426 19.3966 20.3252 18.9927C20.5133 18.5832 20.8426 18.2926 21.313 18.1211C21.7723 17.9551 22.2039 17.9689 22.6079 18.1626C23.0119 18.3507 23.3024 18.6938 23.4795 19.1919L24.4258 21.7817C24.5863 21.6655 24.7606 21.5715 24.9487 21.4995C25.2863 21.3778 25.61 21.3639 25.9199 21.458C26.2354 21.5465 26.4982 21.7292 26.7085 22.0059C26.9132 21.8454 27.1291 21.7236 27.356 21.6406C27.6769 21.5244 27.9813 21.5078 28.269 21.5908C28.5568 21.6683 28.7975 21.8343 28.9912 22.0889C29.7217 21.8343 30.3802 21.8869 30.9668 22.2466C31.5534 22.6007 32.0099 23.2261 32.3364 24.1226L32.9507 25.8242C33.3934 27.0417 33.5428 28.1733 33.3989 29.2192C33.2606 30.2596 32.8649 31.1672 32.2119 31.9419C31.5589 32.7111 30.6818 33.2949 29.5806 33.6934ZM29.2236 32.606C30.1478 32.2739 30.87 31.7952 31.3901 31.1699C31.9159 30.5446 32.223 29.8003 32.3115 28.937C32.4056 28.0737 32.2617 27.1191 31.8799 26.0732L31.3569 24.6538C31.1356 24.034 30.8672 23.5885 30.5518 23.3174C30.2363 23.0407 29.9071 22.966 29.564 23.0933L29.8877 23.9897C29.9375 24.1336 29.9292 24.2692 29.8628 24.3965C29.7964 24.5182 29.6995 24.6012 29.5723 24.6455C29.4395 24.6953 29.3066 24.6953 29.1738 24.6455C29.041 24.5902 28.9469 24.4906 28.8916 24.3467L28.4517 23.1348C28.3797 22.93 28.2663 22.7889 28.1113 22.7114C27.9564 22.6284 27.7821 22.6229 27.5884 22.6948C27.4224 22.7557 27.2812 22.847 27.165 22.9688L27.6963 24.4463C27.7516 24.5902 27.7461 24.7257 27.6797 24.853C27.6133 24.9748 27.5164 25.0578 27.3892 25.1021C27.2563 25.1519 27.1208 25.1519 26.9824 25.1021C26.8496 25.0467 26.7583 24.9499 26.7085 24.8115L26.0444 22.9937C25.9725 22.7889 25.859 22.6478 25.7041 22.5703C25.5492 22.4873 25.3748 22.4818 25.1812 22.5537C25.0207 22.6146 24.8796 22.7059 24.7578 22.8276L25.5132 24.9111C25.563 25.0439 25.5547 25.174 25.4883 25.3013C25.4274 25.4285 25.3306 25.5171 25.1978 25.5669C25.0594 25.6167 24.9238 25.6139 24.791 25.5586C24.6582 25.5033 24.5669 25.4064 24.5171 25.2681L22.417 19.499C22.3561 19.333 22.2565 19.2168 22.1182 19.1504C21.9854 19.0785 21.8387 19.0701 21.6782 19.1255C21.5177 19.1864 21.4043 19.2887 21.3379 19.4326C21.2715 19.571 21.2687 19.7231 21.3296 19.8892L24.2764 27.9741C24.3372 28.1567 24.3372 28.3255 24.2764 28.4805C24.2155 28.6299 24.1048 28.735 23.9443 28.7959C23.8005 28.8457 23.6566 28.8568 23.5127 28.8291C23.3688 28.7959 23.2194 28.6963 23.0645 28.5303L21.1387 26.5464C20.9173 26.3084 20.6877 26.231 20.4497 26.314C20.2948 26.3748 20.1868 26.4717 20.126 26.6045C20.0706 26.7373 20.0679 26.8701 20.1177 27.0029C20.1619 27.1191 20.2256 27.2298 20.3086 27.335L23.0894 30.6802C24.0522 31.8423 25.0428 32.5534 26.061 32.8135C27.0793 33.0736 28.1335 33.0044 29.2236 32.606ZM44.356 32V21.3667H40.4961V20.022H49.71V21.3667H45.8501V32H44.356ZM52.5488 32.1577C51.9844 32.1577 51.4753 32.0498 51.0215 31.834C50.5732 31.6182 50.2163 31.311 49.9507 30.9126C49.6906 30.5142 49.5605 30.0438 49.5605 29.5015V29.4849C49.5605 28.9536 49.6878 28.4998 49.9424 28.1235C50.1969 27.7417 50.5677 27.4429 51.0547 27.2271C51.5417 27.0112 52.131 26.884 52.8228 26.8452L56.1099 26.646V27.7998L52.9971 27.999C52.3164 28.0378 51.8184 28.1789 51.5029 28.4224C51.193 28.6659 51.0381 29.009 51.0381 29.4517V29.4683C51.0381 29.922 51.2096 30.2762 51.5527 30.5308C51.8958 30.7798 52.3275 30.9043 52.8477 30.9043C53.3402 30.9043 53.7773 30.8075 54.1592 30.6138C54.541 30.4146 54.8398 30.1462 55.0557 29.8086C55.277 29.471 55.3877 29.0892 55.3877 28.6631V25.874C55.3877 25.3206 55.2189 24.9001 54.8813 24.6123C54.5493 24.319 54.0485 24.1724 53.3789 24.1724C52.8421 24.1724 52.4022 24.2692 52.0591 24.4629C51.716 24.651 51.4863 24.9194 51.3701 25.2681L51.3618 25.293H49.9175L49.9258 25.2432C50.0033 24.7728 50.1969 24.3633 50.5068 24.0146C50.8223 23.6605 51.229 23.3866 51.7271 23.1929C52.2251 22.9937 52.7923 22.894 53.4287 22.894C54.1592 22.894 54.7762 23.013 55.2798 23.251C55.7889 23.4889 56.1735 23.832 56.4336 24.2803C56.6992 24.723 56.832 25.2542 56.832 25.874V32H55.3877V30.6802H55.2549C55.0667 30.9956 54.8371 31.264 54.5659 31.4854C54.3003 31.7067 53.9987 31.8755 53.6611 31.9917C53.3236 32.1024 52.9528 32.1577 52.5488 32.1577ZM59.4717 34.9883V23.0518H60.916V24.4795H61.0488C61.2314 24.1475 61.4611 23.8652 61.7378 23.6328C62.0145 23.3949 62.3299 23.2122 62.6841 23.085C63.0382 22.9577 63.4229 22.894 63.8379 22.894C64.596 22.894 65.2546 23.0877 65.8135 23.4751C66.3779 23.8569 66.8151 24.3937 67.125 25.0854C67.4349 25.7772 67.5898 26.5879 67.5898 27.5176V27.5342C67.5898 28.4694 67.4349 29.2829 67.125 29.9746C66.8151 30.6663 66.3779 31.2031 65.8135 31.585C65.2546 31.9668 64.596 32.1577 63.8379 32.1577C63.4284 32.1577 63.041 32.0941 62.6758 31.9668C62.3161 31.834 61.9951 31.6514 61.7129 31.4189C61.4362 31.1865 61.2148 30.9098 61.0488 30.5889H60.916V34.9883H59.4717ZM63.5059 30.8794C64.0537 30.8794 64.5213 30.7466 64.9087 30.481C65.2961 30.2098 65.5921 29.8252 65.7969 29.3271C66.0072 28.8236 66.1123 28.2259 66.1123 27.5342V27.5176C66.1123 26.8203 66.0072 26.2227 65.7969 25.7246C65.5921 25.2266 65.2961 24.8447 64.9087 24.5791C64.5213 24.3079 64.0537 24.1724 63.5059 24.1724C62.9635 24.1724 62.4959 24.3079 62.103 24.5791C61.7101 24.8503 61.4085 25.2349 61.1982 25.7329C60.988 26.231 60.8828 26.8258 60.8828 27.5176V27.5342C60.8828 28.2204 60.988 28.8153 61.1982 29.3188C61.4085 29.8169 61.7101 30.2015 62.103 30.4727C62.4959 30.7438 62.9635 30.8794 63.5059 30.8794ZM77.8081 32.0664C76.8895 32.0664 76.2227 31.881 75.8076 31.5103C75.3981 31.1395 75.1934 30.528 75.1934 29.6758V24.2471H73.7822V23.0518H75.1934V20.7358H76.6875V23.0518H78.6465V24.2471H76.6875V29.3105C76.6875 29.8363 76.7871 30.2153 76.9863 30.4478C77.1855 30.6746 77.5176 30.7881 77.9824 30.7881C78.1097 30.7881 78.2176 30.7853 78.3062 30.7798C78.4002 30.7743 78.5137 30.766 78.6465 30.7549V31.9834C78.5081 32.0055 78.3698 32.0249 78.2314 32.0415C78.0931 32.0581 77.952 32.0664 77.8081 32.0664ZM84.3657 32.1577C83.519 32.1577 82.7858 31.9723 82.166 31.6016C81.5518 31.2253 81.0758 30.6912 80.7383 29.9995C80.4062 29.3078 80.2402 28.486 80.2402 27.5342V27.5176C80.2402 26.5602 80.4062 25.7357 80.7383 25.0439C81.0758 24.3522 81.5518 23.821 82.166 23.4502C82.7858 23.0794 83.519 22.894 84.3657 22.894C85.2179 22.894 85.9512 23.0794 86.5654 23.4502C87.1797 23.821 87.6528 24.3522 87.9849 25.0439C88.3224 25.7357 88.4912 26.5602 88.4912 27.5176V27.5342C88.4912 28.486 88.3224 29.3078 87.9849 29.9995C87.6528 30.6912 87.1797 31.2253 86.5654 31.6016C85.9512 31.9723 85.2179 32.1577 84.3657 32.1577ZM84.3657 30.8794C84.9302 30.8794 85.4089 30.7466 85.8018 30.481C86.1947 30.2153 86.4935 29.8335 86.6982 29.3354C86.9085 28.8374 87.0137 28.237 87.0137 27.5342V27.5176C87.0137 26.8092 86.9085 26.2061 86.6982 25.708C86.4935 25.21 86.1947 24.8309 85.8018 24.5708C85.4089 24.3052 84.9302 24.1724 84.3657 24.1724C83.8013 24.1724 83.3226 24.3052 82.9297 24.5708C82.5368 24.8309 82.2352 25.21 82.0249 25.708C81.8201 26.2061 81.7178 26.8092 81.7178 27.5176V27.5342C81.7178 28.237 81.8201 28.8374 82.0249 29.3354C82.2352 29.8335 82.5368 30.2153 82.9297 30.481C83.3226 30.7466 83.8013 30.8794 84.3657 30.8794ZM97.9707 32.1577C97.4062 32.1577 96.8971 32.0498 96.4434 31.834C95.9951 31.6182 95.6382 31.311 95.3726 30.9126C95.1125 30.5142 94.9824 30.0438 94.9824 29.5015V29.4849C94.9824 28.9536 95.1097 28.4998 95.3643 28.1235C95.6188 27.7417 95.9896 27.4429 96.4766 27.2271C96.9635 27.0112 97.5529 26.884 98.2446 26.8452L101.532 26.646V27.7998L98.4189 27.999C97.7383 28.0378 97.2402 28.1789 96.9248 28.4224C96.6149 28.6659 96.46 29.009 96.46 29.4517V29.4683C96.46 29.922 96.6315 30.2762 96.9746 30.5308C97.3177 30.7798 97.7493 30.9043 98.2695 30.9043C98.762 30.9043 99.1992 30.8075 99.5811 30.6138C99.9629 30.4146 100.262 30.1462 100.478 29.8086C100.699 29.471 100.81 29.0892 100.81 28.6631V25.874C100.81 25.3206 100.641 24.9001 100.303 24.6123C99.9712 24.319 99.4704 24.1724 98.8008 24.1724C98.264 24.1724 97.8241 24.2692 97.481 24.4629C97.1379 24.651 96.9082 24.9194 96.792 25.2681L96.7837 25.293H95.3394L95.3477 25.2432C95.4251 24.7728 95.6188 24.3633 95.9287 24.0146C96.2441 23.6605 96.6509 23.3866 97.1489 23.1929C97.647 22.9937 98.2142 22.894 98.8506 22.894C99.5811 22.894 100.198 23.013 100.702 23.251C101.211 23.4889 101.595 23.832 101.855 24.2803C102.121 24.723 102.254 25.2542 102.254 25.874V32H100.81V30.6802H100.677C100.489 30.9956 100.259 31.264 99.9878 31.4854C99.7222 31.7067 99.4206 31.8755 99.083 31.9917C98.7454 32.1024 98.3747 32.1577 97.9707 32.1577ZM108.197 32.1577C107.445 32.1577 106.786 31.9668 106.222 31.585C105.657 31.2031 105.22 30.6663 104.91 29.9746C104.6 29.2773 104.445 28.4639 104.445 27.5342V27.5176C104.445 26.5824 104.6 25.7689 104.91 25.0771C105.22 24.3854 105.654 23.8486 106.213 23.4668C106.778 23.085 107.439 22.894 108.197 22.894C108.607 22.894 108.991 22.9604 109.351 23.0933C109.716 23.2205 110.04 23.4004 110.322 23.6328C110.604 23.8652 110.826 24.1419 110.986 24.4629H111.119V19.499H112.563V32H111.119V30.5723H110.986C110.804 30.9043 110.574 31.1893 110.297 31.4272C110.021 31.6597 109.705 31.8395 109.351 31.9668C108.997 32.0941 108.612 32.1577 108.197 32.1577ZM108.529 30.8794C109.072 30.8794 109.539 30.7438 109.932 30.4727C110.325 30.2015 110.627 29.8169 110.837 29.3188C111.047 28.8153 111.152 28.2204 111.152 27.5342V27.5176C111.152 26.8258 111.047 26.231 110.837 25.7329C110.627 25.2349 110.325 24.8503 109.932 24.5791C109.539 24.3079 109.072 24.1724 108.529 24.1724C107.987 24.1724 107.519 24.3079 107.126 24.5791C106.739 24.8447 106.44 25.2266 106.23 25.7246C106.025 26.2227 105.923 26.8203 105.923 27.5176V27.5342C105.923 28.2259 106.025 28.8236 106.23 29.3271C106.44 29.8252 106.739 30.2098 107.126 30.481C107.519 30.7466 107.987 30.8794 108.529 30.8794ZM118.64 32.1577C117.887 32.1577 117.229 31.9668 116.664 31.585C116.1 31.2031 115.662 30.6663 115.353 29.9746C115.043 29.2773 114.888 28.4639 114.888 27.5342V27.5176C114.888 26.5824 115.043 25.7689 115.353 25.0771C115.662 24.3854 116.097 23.8486 116.656 23.4668C117.22 23.085 117.882 22.894 118.64 22.894C119.049 22.894 119.434 22.9604 119.793 23.0933C120.159 23.2205 120.482 23.4004 120.765 23.6328C121.047 23.8652 121.268 24.1419 121.429 24.4629H121.562V19.499H123.006V32H121.562V30.5723H121.429C121.246 30.9043 121.016 31.1893 120.74 31.4272C120.463 31.6597 120.148 31.8395 119.793 31.9668C119.439 32.0941 119.055 32.1577 118.64 32.1577ZM118.972 30.8794C119.514 30.8794 119.982 30.7438 120.375 30.4727C120.767 30.2015 121.069 29.8169 121.279 29.3188C121.49 28.8153 121.595 28.2204 121.595 27.5342V27.5176C121.595 26.8258 121.49 26.231 121.279 25.7329C121.069 25.2349 120.767 24.8503 120.375 24.5791C119.982 24.3079 119.514 24.1724 118.972 24.1724C118.429 24.1724 117.962 24.3079 117.569 24.5791C117.181 24.8447 116.883 25.2266 116.672 25.7246C116.468 26.2227 116.365 26.8203 116.365 27.5176V27.5342C116.365 28.2259 116.468 28.8236 116.672 29.3271C116.883 29.8252 117.181 30.2098 117.569 30.481C117.962 30.7466 118.429 30.8794 118.972 30.8794ZM130.643 32V19.499H132.087V24.3965H132.22C132.447 23.9206 132.773 23.5526 133.199 23.2925C133.625 23.0269 134.168 22.894 134.826 22.894C135.496 22.894 136.063 23.0241 136.528 23.2842C136.993 23.5387 137.347 23.9123 137.59 24.4048C137.834 24.8973 137.956 25.4977 137.956 26.2061V32H136.511V26.5547C136.511 25.7467 136.34 25.1491 135.997 24.7617C135.659 24.3688 135.133 24.1724 134.419 24.1724C133.944 24.1724 133.531 24.2747 133.183 24.4795C132.834 24.6842 132.563 24.9748 132.369 25.3511C132.181 25.7274 132.087 26.1784 132.087 26.7041V32H130.643ZM143.027 32.1577C142.463 32.1577 141.954 32.0498 141.5 31.834C141.052 31.6182 140.695 31.311 140.429 30.9126C140.169 30.5142 140.039 30.0438 140.039 29.5015V29.4849C140.039 28.9536 140.166 28.4998 140.421 28.1235C140.675 27.7417 141.046 27.4429 141.533 27.2271C142.02 27.0112 142.61 26.884 143.301 26.8452L146.588 26.646V27.7998L143.476 27.999C142.795 28.0378 142.297 28.1789 141.981 28.4224C141.672 28.6659 141.517 29.009 141.517 29.4517V29.4683C141.517 29.922 141.688 30.2762 142.031 30.5308C142.374 30.7798 142.806 30.9043 143.326 30.9043C143.819 30.9043 144.256 30.8075 144.638 30.6138C145.02 30.4146 145.318 30.1462 145.534 29.8086C145.756 29.471 145.866 29.0892 145.866 28.6631V25.874C145.866 25.3206 145.697 24.9001 145.36 24.6123C145.028 24.319 144.527 24.1724 143.857 24.1724C143.321 24.1724 142.881 24.2692 142.538 24.4629C142.194 24.651 141.965 24.9194 141.849 25.2681L141.84 25.293H140.396L140.404 25.2432C140.482 24.7728 140.675 24.3633 140.985 24.0146C141.301 23.6605 141.708 23.3866 142.206 23.1929C142.704 22.9937 143.271 22.894 143.907 22.894C144.638 22.894 145.255 23.013 145.758 23.251C146.267 23.4889 146.652 23.832 146.912 24.2803C147.178 24.723 147.311 25.2542 147.311 25.874V32H145.866V30.6802H145.733C145.545 30.9956 145.316 31.264 145.044 31.4854C144.779 31.7067 144.477 31.8755 144.14 31.9917C143.802 32.1024 143.431 32.1577 143.027 32.1577ZM154.399 32.1577C153.984 32.1577 153.6 32.0941 153.246 31.9668C152.891 31.8395 152.576 31.6597 152.299 31.4272C152.023 31.1893 151.793 30.9043 151.61 30.5723H151.478V32H150.033V19.499H151.478V24.4629H151.61C151.776 24.1419 151.998 23.8652 152.274 23.6328C152.557 23.4004 152.878 23.2205 153.237 23.0933C153.603 22.9604 153.99 22.894 154.399 22.894C155.158 22.894 155.816 23.085 156.375 23.4668C156.939 23.8486 157.377 24.3854 157.687 25.0771C157.996 25.7689 158.151 26.5824 158.151 27.5176V27.5342C158.151 28.4639 157.996 29.2773 157.687 29.9746C157.377 30.6663 156.939 31.2031 156.375 31.585C155.816 31.9668 155.158 32.1577 154.399 32.1577ZM154.067 30.8794C154.615 30.8794 155.083 30.7466 155.47 30.481C155.858 30.2098 156.154 29.8252 156.358 29.3271C156.569 28.8236 156.674 28.2259 156.674 27.5342V27.5176C156.674 26.8203 156.569 26.2227 156.358 25.7246C156.154 25.2266 155.858 24.8447 155.47 24.5791C155.083 24.3079 154.615 24.1724 154.067 24.1724C153.525 24.1724 153.057 24.3079 152.665 24.5791C152.272 24.8503 151.97 25.2349 151.76 25.7329C151.549 26.231 151.444 26.8258 151.444 27.5176V27.5342C151.444 28.2204 151.549 28.8153 151.76 29.3188C151.97 29.8169 152.272 30.2015 152.665 30.4727C153.057 30.7438 153.525 30.8794 154.067 30.8794ZM160.426 32V23.0518H161.87V32H160.426ZM161.156 21.3252C160.885 21.3252 160.65 21.2284 160.451 21.0347C160.257 20.8354 160.16 20.6003 160.16 20.3291C160.16 20.0524 160.257 19.8172 160.451 19.6235C160.65 19.4299 160.885 19.333 161.156 19.333C161.433 19.333 161.668 19.4299 161.862 19.6235C162.056 19.8172 162.152 20.0524 162.152 20.3291C162.152 20.6003 162.056 20.8354 161.862 21.0347C161.668 21.2284 161.433 21.3252 161.156 21.3252ZM167.772 32.0664C166.853 32.0664 166.187 31.881 165.771 31.5103C165.362 31.1395 165.157 30.528 165.157 29.6758V24.2471H163.746V23.0518H165.157V20.7358H166.651V23.0518H168.61V24.2471H166.651V29.3105C166.651 29.8363 166.751 30.2153 166.95 30.4478C167.149 30.6746 167.481 30.7881 167.946 30.7881C168.074 30.7881 168.181 30.7853 168.27 30.7798C168.364 30.7743 168.478 30.766 168.61 30.7549V31.9834C168.472 32.0055 168.334 32.0249 168.195 32.0415C168.057 32.0581 167.916 32.0664 167.772 32.0664ZM175.55 34.9883V23.0518H176.994V24.4795H177.127C177.31 24.1475 177.539 23.8652 177.816 23.6328C178.093 23.3949 178.408 23.2122 178.762 23.085C179.116 22.9577 179.501 22.894 179.916 22.894C180.674 22.894 181.333 23.0877 181.892 23.4751C182.456 23.8569 182.893 24.3937 183.203 25.0854C183.513 25.7772 183.668 26.5879 183.668 27.5176V27.5342C183.668 28.4694 183.513 29.2829 183.203 29.9746C182.893 30.6663 182.456 31.2031 181.892 31.585C181.333 31.9668 180.674 32.1577 179.916 32.1577C179.507 32.1577 179.119 32.0941 178.754 31.9668C178.394 31.834 178.073 31.6514 177.791 31.4189C177.514 31.1865 177.293 30.9098 177.127 30.5889H176.994V34.9883H175.55ZM179.584 30.8794C180.132 30.8794 180.599 30.7466 180.987 30.481C181.374 30.2098 181.67 29.8252 181.875 29.3271C182.085 28.8236 182.19 28.2259 182.19 27.5342V27.5176C182.19 26.8203 182.085 26.2227 181.875 25.7246C181.67 25.2266 181.374 24.8447 180.987 24.5791C180.599 24.3079 180.132 24.1724 179.584 24.1724C179.042 24.1724 178.574 24.3079 178.181 24.5791C177.788 24.8503 177.487 25.2349 177.276 25.7329C177.066 26.231 176.961 26.8258 176.961 27.5176V27.5342C176.961 28.2204 177.066 28.8153 177.276 29.3188C177.487 29.8169 177.788 30.2015 178.181 30.4727C178.574 30.7438 179.042 30.8794 179.584 30.8794ZM185.926 32V23.0518H187.37V24.3799H187.503C187.674 23.9095 187.965 23.5443 188.375 23.2842C188.784 23.0241 189.29 22.894 189.894 22.894C190.032 22.894 190.167 22.9023 190.3 22.9189C190.439 22.93 190.544 22.9411 190.616 22.9521V24.355C190.466 24.3273 190.32 24.3079 190.176 24.2969C190.037 24.2803 189.888 24.272 189.728 24.272C189.268 24.272 188.861 24.3633 188.507 24.5459C188.153 24.7285 187.874 24.9831 187.669 25.3096C187.47 25.6361 187.37 26.0179 187.37 26.4551V32H185.926ZM195.829 32.1577C194.982 32.1577 194.249 31.9723 193.629 31.6016C193.015 31.2253 192.539 30.6912 192.201 29.9995C191.869 29.3078 191.703 28.486 191.703 27.5342V27.5176C191.703 26.5602 191.869 25.7357 192.201 25.0439C192.539 24.3522 193.015 23.821 193.629 23.4502C194.249 23.0794 194.982 22.894 195.829 22.894C196.681 22.894 197.414 23.0794 198.028 23.4502C198.643 23.821 199.116 24.3522 199.448 25.0439C199.785 25.7357 199.954 26.5602 199.954 27.5176V27.5342C199.954 28.486 199.785 29.3078 199.448 29.9995C199.116 30.6912 198.643 31.2253 198.028 31.6016C197.414 31.9723 196.681 32.1577 195.829 32.1577ZM195.829 30.8794C196.393 30.8794 196.872 30.7466 197.265 30.481C197.658 30.2153 197.956 29.8335 198.161 29.3354C198.371 28.8374 198.477 28.237 198.477 27.5342V27.5176C198.477 26.8092 198.371 26.2061 198.161 25.708C197.956 25.21 197.658 24.8309 197.265 24.5708C196.872 24.3052 196.393 24.1724 195.829 24.1724C195.264 24.1724 194.785 24.3052 194.393 24.5708C194 24.8309 193.698 25.21 193.488 25.708C193.283 26.2061 193.181 26.8092 193.181 27.5176V27.5342C193.181 28.237 193.283 28.8374 193.488 29.3354C193.698 29.8335 194 30.2153 194.393 30.481C194.785 30.7466 195.264 30.8794 195.829 30.8794ZM205.881 35.1543C205.161 35.1543 204.533 35.0519 203.997 34.8472C203.46 34.6479 203.031 34.363 202.71 33.9922C202.395 33.627 202.198 33.2008 202.121 32.7139L202.137 32.7056H203.631L203.64 32.7139C203.717 33.0514 203.95 33.3281 204.337 33.5439C204.724 33.7653 205.239 33.876 205.881 33.876C206.683 33.876 207.309 33.6934 207.757 33.3281C208.211 32.9684 208.438 32.4593 208.438 31.8008V29.9912H208.305C208.117 30.3177 207.881 30.5972 207.599 30.8296C207.317 31.062 206.999 31.2391 206.645 31.3608C206.29 31.4771 205.909 31.5352 205.499 31.5352C204.73 31.5352 204.063 31.3525 203.499 30.9873C202.94 30.6165 202.508 30.1074 202.204 29.46C201.899 28.8125 201.747 28.071 201.747 27.2354V27.2188C201.747 26.3831 201.899 25.6416 202.204 24.9941C202.514 24.3411 202.951 23.8293 203.515 23.4585C204.08 23.0822 204.752 22.894 205.532 22.894C205.953 22.894 206.34 22.9604 206.694 23.0933C207.049 23.2261 207.361 23.4142 207.632 23.6577C207.909 23.9012 208.139 24.1917 208.321 24.5293H208.421V23.0518H209.865V31.8755C209.865 32.5396 209.702 33.1178 209.375 33.6104C209.055 34.1029 208.595 34.4819 207.998 34.7476C207.4 35.0187 206.694 35.1543 205.881 35.1543ZM205.814 30.2568C206.368 30.2568 206.841 30.1296 207.234 29.875C207.632 29.6149 207.937 29.258 208.147 28.8042C208.363 28.3504 208.471 27.8275 208.471 27.2354V27.2188C208.471 26.6266 208.363 26.1009 208.147 25.6416C207.937 25.1823 207.632 24.8226 207.234 24.5625C206.841 24.3024 206.368 24.1724 205.814 24.1724C205.261 24.1724 204.791 24.3024 204.403 24.5625C204.021 24.8226 203.728 25.1823 203.523 25.6416C203.324 26.1009 203.225 26.6266 203.225 27.2188V27.2354C203.225 27.8275 203.324 28.3504 203.523 28.8042C203.728 29.258 204.021 29.6149 204.403 29.875C204.791 30.1296 205.261 30.2568 205.814 30.2568ZM212.555 32V23.0518H213.999V24.3799H214.132C214.303 23.9095 214.594 23.5443 215.003 23.2842C215.413 23.0241 215.919 22.894 216.522 22.894C216.661 22.894 216.796 22.9023 216.929 22.9189C217.068 22.93 217.173 22.9411 217.245 22.9521V24.355C217.095 24.3273 216.949 24.3079 216.805 24.2969C216.666 24.2803 216.517 24.272 216.356 24.272C215.897 24.272 215.49 24.3633 215.136 24.5459C214.782 24.7285 214.503 24.9831 214.298 25.3096C214.099 25.6361 213.999 26.0179 213.999 26.4551V32H212.555ZM222.433 32.1577C221.58 32.1577 220.847 31.9696 220.233 31.5933C219.624 31.217 219.154 30.6857 218.822 29.9995C218.495 29.3078 218.332 28.4943 218.332 27.5591V27.5508C218.332 26.6266 218.495 25.8159 218.822 25.1187C219.154 24.4214 219.621 23.8763 220.225 23.4834C220.828 23.0905 221.533 22.894 222.341 22.894C223.155 22.894 223.852 23.0822 224.433 23.4585C225.02 23.8348 225.468 24.3605 225.778 25.0356C226.093 25.7052 226.251 26.4855 226.251 27.3765V27.9409H219.079V26.7871H225.512L224.798 27.8413V27.2686C224.798 26.5658 224.693 25.9875 224.483 25.5337C224.273 25.0799 223.982 24.7424 223.611 24.521C223.241 24.2941 222.814 24.1807 222.333 24.1807C221.852 24.1807 221.42 24.2996 221.038 24.5376C220.662 24.77 220.363 25.1159 220.142 25.5752C219.92 26.0345 219.81 26.599 219.81 27.2686V27.8413C219.81 28.4777 219.917 29.0228 220.133 29.4766C220.349 29.9248 220.656 30.2707 221.055 30.5142C221.453 30.7521 221.924 30.8711 222.466 30.8711C222.87 30.8711 223.221 30.8158 223.52 30.7051C223.819 30.5944 224.065 30.4533 224.259 30.2817C224.452 30.1102 224.588 29.9359 224.666 29.7588L224.699 29.6841H226.143L226.126 29.7505C226.049 30.0549 225.911 30.3509 225.711 30.6387C225.518 30.9209 225.266 31.1782 224.956 31.4106C224.646 31.6375 224.278 31.8201 223.852 31.9585C223.431 32.0913 222.958 32.1577 222.433 32.1577ZM231.563 32.1577C230.899 32.1577 230.313 32.0581 229.804 31.8589C229.295 31.6541 228.885 31.3691 228.575 31.0039C228.271 30.6387 228.091 30.2098 228.036 29.7173H229.513C229.635 30.0881 229.873 30.3869 230.227 30.6138C230.581 30.8407 231.043 30.9541 231.613 30.9541C232.017 30.9541 232.371 30.896 232.676 30.7798C232.986 30.658 233.229 30.4948 233.406 30.29C233.583 30.0798 233.672 29.839 233.672 29.5679V29.5513C233.672 29.2469 233.55 28.9896 233.307 28.7793C233.063 28.5635 232.665 28.3892 232.111 28.2563L230.725 27.9243C230.166 27.7915 229.707 27.62 229.347 27.4097C228.987 27.1938 228.722 26.931 228.55 26.6211C228.379 26.3057 228.293 25.9349 228.293 25.5088V25.5005C228.293 25.0024 228.437 24.557 228.725 24.1641C229.018 23.7712 229.416 23.4613 229.92 23.2344C230.424 23.0075 230.991 22.894 231.622 22.894C232.247 22.894 232.8 22.9937 233.282 23.1929C233.769 23.3866 234.159 23.6632 234.452 24.0229C234.751 24.3826 234.934 24.806 235 25.293H233.581C233.486 24.9388 233.271 24.651 232.933 24.4297C232.596 24.2083 232.156 24.0977 231.613 24.0977C231.259 24.0977 230.944 24.1558 230.667 24.272C230.39 24.3826 230.172 24.5376 230.011 24.7368C229.851 24.936 229.771 25.1685 229.771 25.4341V25.4507C229.771 25.6499 229.823 25.827 229.928 25.9819C230.033 26.1369 230.197 26.2725 230.418 26.3887C230.639 26.5049 230.924 26.6073 231.273 26.6958L232.651 27.0278C233.492 27.2326 234.117 27.5259 234.527 27.9077C234.942 28.2896 235.149 28.8014 235.149 29.4434V29.46C235.149 29.9912 234.992 30.4616 234.676 30.8711C234.361 31.2751 233.932 31.5905 233.39 31.8174C232.853 32.0443 232.244 32.1577 231.563 32.1577ZM240.296 32.1577C239.632 32.1577 239.045 32.0581 238.536 31.8589C238.027 31.6541 237.618 31.3691 237.308 31.0039C237.003 30.6387 236.823 30.2098 236.768 29.7173H238.246C238.367 30.0881 238.605 30.3869 238.959 30.6138C239.314 30.8407 239.776 30.9541 240.346 30.9541C240.75 30.9541 241.104 30.896 241.408 30.7798C241.718 30.658 241.962 30.4948 242.139 30.29C242.316 30.0798 242.404 29.839 242.404 29.5679V29.5513C242.404 29.2469 242.283 28.9896 242.039 28.7793C241.796 28.5635 241.397 28.3892 240.844 28.2563L239.458 27.9243C238.899 27.7915 238.439 27.62 238.08 27.4097C237.72 27.1938 237.454 26.931 237.283 26.6211C237.111 26.3057 237.025 25.9349 237.025 25.5088V25.5005C237.025 25.0024 237.169 24.557 237.457 24.1641C237.75 23.7712 238.149 23.4613 238.652 23.2344C239.156 23.0075 239.723 22.894 240.354 22.894C240.979 22.894 241.533 22.9937 242.014 23.1929C242.501 23.3866 242.891 23.6632 243.185 24.0229C243.483 24.3826 243.666 24.806 243.732 25.293H242.313C242.219 24.9388 242.003 24.651 241.666 24.4297C241.328 24.2083 240.888 24.0977 240.346 24.0977C239.992 24.0977 239.676 24.1558 239.399 24.272C239.123 24.3826 238.904 24.5376 238.744 24.7368C238.583 24.936 238.503 25.1685 238.503 25.4341V25.4507C238.503 25.6499 238.556 25.827 238.661 25.9819C238.766 26.1369 238.929 26.2725 239.15 26.3887C239.372 26.5049 239.657 26.6073 240.005 26.6958L241.383 27.0278C242.224 27.2326 242.85 27.5259 243.259 27.9077C243.674 28.2896 243.882 28.8014 243.882 29.4434V29.46C243.882 29.9912 243.724 30.4616 243.409 30.8711C243.093 31.2751 242.664 31.5905 242.122 31.8174C241.585 32.0443 240.977 32.1577 240.296 32.1577ZM247.302 32.083C247.008 32.083 246.754 31.9779 246.538 31.7676C246.328 31.5518 246.223 31.2972 246.223 31.0039C246.223 30.7051 246.328 30.4505 246.538 30.2402C246.754 30.0299 247.008 29.9248 247.302 29.9248C247.601 29.9248 247.855 30.0299 248.065 30.2402C248.276 30.4505 248.381 30.7051 248.381 31.0039C248.381 31.2972 248.276 31.5518 248.065 31.7676C247.855 31.9779 247.601 32.083 247.302 32.083Z" fill="#3D423E"/>
</g>
<defs>
<filter id="filter0_b_1750_33845" x="195.742" y="27.25" width="66.5166" height="62.75" filterUnits="userSpaceOnUse" color-interpolation-filters="sRGB">
<feFlood flood-opacity="0" result="BackgroundImageFix"/>
<feGaussianBlur in="BackgroundImageFix" stdDeviation="11"/>
<feComposite in2="SourceAlpha" operator="in" result="effect1_backgroundBlur_1750_33845"/>
<feBlend mode="normal" in="SourceGraphic" in2="effect1_backgroundBlur_1750_33845" result="shape"/>
</filter>
<filter id="filter1_b_1750_33845" x="-22" y="-22" width="310" height="96" filterUnits="userSpaceOnUse" color-interpolation-filters="sRGB">
<feFlood flood-opacity="0" result="BackgroundImageFix"/>
<feGaussianBlur in="BackgroundImageFix" stdDeviation="11"/>
<feComposite in2="SourceAlpha" operator="in" result="effect1_backgroundBlur_1750_33845"/>
<feBlend mode="normal" in="SourceGraphic" in2="effect1_backgroundBlur_1750_33845" result="shape"/>
</filter>
</defs>
</svg>
