<svg width="300" height="68" viewBox="0 0 300 68" fill="none" xmlns="http://www.w3.org/2000/svg">
<g filter="url(#filter0_b_1750_33893)">
<path d="M37 0L48.2583 18.75H25.7417L37 0Z" fill="#FDFCFB" fill-opacity="0.8"/>
</g>
<g filter="url(#filter1_b_1750_33893)">
<rect y="16" width="300" height="52" rx="12" fill="#FDFCFB" fill-opacity="0.8"/>
<path d="M21.9189 31.4565C22.6826 31.4565 23.3771 31.6447 24.0024 32.021C24.6333 32.3918 25.1341 32.8926 25.5049 33.5234C25.8757 34.1488 26.061 34.8433 26.061 35.6069C26.061 35.6567 26.061 35.701 26.061 35.7397C26.061 35.7785 26.0583 35.8145 26.0527 35.8477C26.0417 35.9915 25.978 36.1077 25.8618 36.1963C25.7511 36.2793 25.6322 36.3208 25.5049 36.3208C25.3721 36.3208 25.2503 36.2793 25.1396 36.1963C25.0345 36.1077 24.9792 35.9694 24.9736 35.7812C24.9736 35.7425 24.9736 35.7093 24.9736 35.6816C24.9736 35.654 24.9736 35.6291 24.9736 35.6069C24.9736 35.0425 24.8353 34.5306 24.5586 34.0713C24.2874 33.6064 23.9194 33.2357 23.4546 32.959C22.9953 32.6823 22.4834 32.5439 21.9189 32.5439C21.3545 32.5439 20.8398 32.6823 20.375 32.959C19.9102 33.2357 19.5394 33.6064 19.2627 34.0713C18.9915 34.5306 18.856 35.0425 18.856 35.6069C18.856 35.9777 18.9168 36.3319 19.0386 36.6694C19.1659 37.0015 19.3402 37.3003 19.5615 37.5659C19.6777 37.7043 19.7248 37.8426 19.7026 37.981C19.686 38.1193 19.6252 38.2355 19.52 38.3296C19.4149 38.4181 19.2931 38.4624 19.1548 38.4624C19.0773 38.4624 18.9971 38.443 18.9141 38.4043C18.8366 38.3656 18.7619 38.3047 18.6899 38.2217C18.4022 37.862 18.1753 37.4608 18.0093 37.0181C17.8488 36.5698 17.7686 36.0994 17.7686 35.6069C17.7686 35.0314 17.8765 34.4946 18.0923 33.9966C18.3081 33.493 18.6042 33.0531 18.9805 32.6768C19.3623 32.2949 19.805 31.9961 20.3086 31.7803C20.8122 31.5645 21.349 31.4565 21.9189 31.4565ZM29.6885 49.6934C28.3105 50.1969 27.0073 50.2523 25.7788 49.8594C24.5558 49.472 23.4186 48.6419 22.3672 47.3691L19.5864 44.0073C19.4924 43.8856 19.4066 43.7583 19.3291 43.6255C19.2516 43.4871 19.1935 43.3571 19.1548 43.2354C18.9943 42.8092 19.0137 42.4274 19.2129 42.0898C19.4176 41.7523 19.7082 41.5143 20.0845 41.376C20.3667 41.2764 20.6462 41.2681 20.9229 41.3511C21.1995 41.4285 21.4596 41.5946 21.7031 41.8491L22.6743 42.9116C22.702 42.9393 22.7297 42.9476 22.7573 42.9365C22.7961 42.9255 22.8071 42.895 22.7905 42.8452L20.4248 36.3374C20.2477 35.8449 20.2505 35.3966 20.4331 34.9927C20.6213 34.5832 20.9505 34.2926 21.4209 34.1211C21.8802 33.9551 22.3118 33.9689 22.7158 34.1626C23.1198 34.3507 23.4103 34.6938 23.5874 35.1919L24.5337 37.7817C24.6942 37.6655 24.8685 37.5715 25.0566 37.4995C25.3942 37.3778 25.7179 37.3639 26.0278 37.458C26.3433 37.5465 26.6061 37.7292 26.8164 38.0059C27.0212 37.8454 27.237 37.7236 27.4639 37.6406C27.7848 37.5244 28.0892 37.5078 28.377 37.5908C28.6647 37.6683 28.9054 37.8343 29.0991 38.0889C29.8296 37.8343 30.4881 37.8869 31.0747 38.2466C31.6613 38.6007 32.1178 39.2261 32.4443 40.1226L33.0586 41.8242C33.5013 43.0417 33.6507 44.1733 33.5068 45.2192C33.3685 46.2596 32.9728 47.1672 32.3198 47.9419C31.6668 48.7111 30.7897 49.2949 29.6885 49.6934ZM29.3315 48.606C30.2557 48.2739 30.9779 47.7952 31.498 47.1699C32.0238 46.5446 32.3309 45.8003 32.4194 44.937C32.5135 44.0737 32.3696 43.1191 31.9878 42.0732L31.4648 40.6538C31.2435 40.034 30.9751 39.5885 30.6597 39.3174C30.3442 39.0407 30.015 38.966 29.6719 39.0933L29.9956 39.9897C30.0454 40.1336 30.0371 40.2692 29.9707 40.3965C29.9043 40.5182 29.8075 40.6012 29.6802 40.6455C29.5474 40.6953 29.4146 40.6953 29.2817 40.6455C29.1489 40.5902 29.0549 40.4906 28.9995 40.3467L28.5596 39.1348C28.4876 38.93 28.3742 38.7889 28.2192 38.7114C28.0643 38.6284 27.89 38.6229 27.6963 38.6948C27.5303 38.7557 27.3892 38.847 27.2729 38.9688L27.8042 40.4463C27.8595 40.5902 27.854 40.7257 27.7876 40.853C27.7212 40.9748 27.6243 41.0578 27.4971 41.1021C27.3643 41.1519 27.2287 41.1519 27.0903 41.1021C26.9575 41.0467 26.8662 40.9499 26.8164 40.8115L26.1523 38.9937C26.0804 38.7889 25.967 38.6478 25.812 38.5703C25.6571 38.4873 25.4827 38.4818 25.2891 38.5537C25.1286 38.6146 24.9875 38.7059 24.8657 38.8276L25.6211 40.9111C25.6709 41.0439 25.6626 41.174 25.5962 41.3013C25.5353 41.4285 25.4385 41.5171 25.3057 41.5669C25.1673 41.6167 25.0317 41.6139 24.8989 41.5586C24.7661 41.5033 24.6748 41.4064 24.625 41.2681L22.5249 35.499C22.464 35.333 22.3644 35.2168 22.2261 35.1504C22.0933 35.0785 21.9466 35.0701 21.7861 35.1255C21.6257 35.1864 21.5122 35.2887 21.4458 35.4326C21.3794 35.571 21.3766 35.7231 21.4375 35.8892L24.3843 43.9741C24.4451 44.1567 24.4451 44.3255 24.3843 44.4805C24.3234 44.6299 24.2127 44.735 24.0522 44.7959C23.9084 44.8457 23.7645 44.8568 23.6206 44.8291C23.4767 44.7959 23.3273 44.6963 23.1724 44.5303L21.2466 42.5464C21.0252 42.3084 20.7956 42.231 20.5576 42.314C20.4027 42.3748 20.2948 42.4717 20.2339 42.6045C20.1785 42.7373 20.1758 42.8701 20.2256 43.0029C20.2699 43.1191 20.3335 43.2298 20.4165 43.335L23.1973 46.6802C24.1602 47.8423 25.1507 48.5534 26.1689 48.8135C27.1872 49.0736 28.2414 49.0044 29.3315 48.606ZM44.4639 48V37.3667H40.604V36.022H49.8179V37.3667H45.958V48H44.4639ZM52.6567 48.1577C52.0923 48.1577 51.5832 48.0498 51.1294 47.834C50.6812 47.6182 50.3242 47.311 50.0586 46.9126C49.7985 46.5142 49.6685 46.0438 49.6685 45.5015V45.4849C49.6685 44.9536 49.7957 44.4998 50.0503 44.1235C50.3049 43.7417 50.6756 43.4429 51.1626 43.2271C51.6496 43.0112 52.2389 42.884 52.9307 42.8452L56.2178 42.646V43.7998L53.105 43.999C52.4243 44.0378 51.9263 44.1789 51.6108 44.4224C51.3009 44.6659 51.146 45.009 51.146 45.4517V45.4683C51.146 45.922 51.3175 46.2762 51.6606 46.5308C52.0037 46.7798 52.4354 46.9043 52.9556 46.9043C53.4481 46.9043 53.8853 46.8075 54.2671 46.6138C54.6489 46.4146 54.9478 46.1462 55.1636 45.8086C55.3849 45.471 55.4956 45.0892 55.4956 44.6631V41.874C55.4956 41.3206 55.3268 40.9001 54.9893 40.6123C54.6572 40.319 54.1564 40.1724 53.4868 40.1724C52.95 40.1724 52.5101 40.2692 52.167 40.4629C51.8239 40.651 51.5942 40.9194 51.478 41.2681L51.4697 41.293H50.0254L50.0337 41.2432C50.1112 40.7728 50.3049 40.3633 50.6147 40.0146C50.9302 39.6605 51.3369 39.3866 51.835 39.1929C52.333 38.9937 52.9002 38.894 53.5366 38.894C54.2671 38.894 54.8841 39.013 55.3877 39.251C55.8968 39.4889 56.2814 39.832 56.5415 40.2803C56.8071 40.723 56.9399 41.2542 56.9399 41.874V48H55.4956V46.6802H55.3628C55.1746 46.9956 54.945 47.264 54.6738 47.4854C54.4082 47.7067 54.1066 47.8755 53.769 47.9917C53.4315 48.1024 53.0607 48.1577 52.6567 48.1577ZM59.5796 50.9883V39.0518H61.0239V40.4795H61.1567C61.3394 40.1475 61.569 39.8652 61.8457 39.6328C62.1224 39.3949 62.4378 39.2122 62.792 39.085C63.1462 38.9577 63.5308 38.894 63.9458 38.894C64.7039 38.894 65.3625 39.0877 65.9214 39.4751C66.4858 39.8569 66.923 40.3937 67.2329 41.0854C67.5428 41.7772 67.6978 42.5879 67.6978 43.5176V43.5342C67.6978 44.4694 67.5428 45.2829 67.2329 45.9746C66.923 46.6663 66.4858 47.2031 65.9214 47.585C65.3625 47.9668 64.7039 48.1577 63.9458 48.1577C63.5363 48.1577 63.1489 48.0941 62.7837 47.9668C62.424 47.834 62.103 47.6514 61.8208 47.4189C61.5441 47.1865 61.3228 46.9098 61.1567 46.5889H61.0239V50.9883H59.5796ZM63.6138 46.8794C64.1616 46.8794 64.6292 46.7466 65.0166 46.481C65.404 46.2098 65.7 45.8252 65.9048 45.3271C66.1151 44.8236 66.2202 44.2259 66.2202 43.5342V43.5176C66.2202 42.8203 66.1151 42.2227 65.9048 41.7246C65.7 41.2266 65.404 40.8447 65.0166 40.5791C64.6292 40.3079 64.1616 40.1724 63.6138 40.1724C63.0715 40.1724 62.6038 40.3079 62.2109 40.5791C61.818 40.8503 61.5164 41.2349 61.3062 41.7329C61.0959 42.231 60.9907 42.8258 60.9907 43.5176V43.5342C60.9907 44.2204 61.0959 44.8153 61.3062 45.3188C61.5164 45.8169 61.818 46.2015 62.2109 46.4727C62.6038 46.7438 63.0715 46.8794 63.6138 46.8794ZM77.916 48.0664C76.9974 48.0664 76.3306 47.881 75.9155 47.5103C75.506 47.1395 75.3013 46.528 75.3013 45.6758V40.2471H73.8901V39.0518H75.3013V36.7358H76.7954V39.0518H78.7544V40.2471H76.7954V45.3105C76.7954 45.8363 76.895 46.2153 77.0942 46.4478C77.2935 46.6746 77.6255 46.7881 78.0903 46.7881C78.2176 46.7881 78.3255 46.7853 78.4141 46.7798C78.5081 46.7743 78.6216 46.766 78.7544 46.7549V47.9834C78.616 48.0055 78.4777 48.0249 78.3394 48.0415C78.201 48.0581 78.0599 48.0664 77.916 48.0664ZM84.4736 48.1577C83.627 48.1577 82.8937 47.9723 82.2739 47.6016C81.6597 47.2253 81.1838 46.6912 80.8462 45.9995C80.5142 45.3078 80.3481 44.486 80.3481 43.5342V43.5176C80.3481 42.5602 80.5142 41.7357 80.8462 41.0439C81.1838 40.3522 81.6597 39.821 82.2739 39.4502C82.8937 39.0794 83.627 38.894 84.4736 38.894C85.3258 38.894 86.0591 39.0794 86.6733 39.4502C87.2876 39.821 87.7607 40.3522 88.0928 41.0439C88.4303 41.7357 88.5991 42.5602 88.5991 43.5176V43.5342C88.5991 44.486 88.4303 45.3078 88.0928 45.9995C87.7607 46.6912 87.2876 47.2253 86.6733 47.6016C86.0591 47.9723 85.3258 48.1577 84.4736 48.1577ZM84.4736 46.8794C85.0381 46.8794 85.5168 46.7466 85.9097 46.481C86.3026 46.2153 86.6014 45.8335 86.8062 45.3354C87.0164 44.8374 87.1216 44.237 87.1216 43.5342V43.5176C87.1216 42.8092 87.0164 42.2061 86.8062 41.708C86.6014 41.21 86.3026 40.8309 85.9097 40.5708C85.5168 40.3052 85.0381 40.1724 84.4736 40.1724C83.9092 40.1724 83.4305 40.3052 83.0376 40.5708C82.6447 40.8309 82.3431 41.21 82.1328 41.708C81.9281 42.2061 81.8257 42.8092 81.8257 43.5176V43.5342C81.8257 44.237 81.9281 44.8374 82.1328 45.3354C82.3431 45.8335 82.6447 46.2153 83.0376 46.481C83.4305 46.7466 83.9092 46.8794 84.4736 46.8794ZM99.3071 51.1543C98.5877 51.1543 97.9596 51.0519 97.4229 50.8472C96.8861 50.6479 96.4572 50.363 96.1362 49.9922C95.8208 49.627 95.6243 49.2008 95.5469 48.7139L95.5635 48.7056H97.0576L97.0659 48.7139C97.1434 49.0514 97.3758 49.3281 97.7632 49.5439C98.1506 49.7653 98.6652 49.876 99.3071 49.876C100.11 49.876 100.735 49.6934 101.183 49.3281C101.637 48.9684 101.864 48.4593 101.864 47.8008V45.9912H101.731C101.543 46.3177 101.308 46.5972 101.025 46.8296C100.743 47.062 100.425 47.2391 100.071 47.3608C99.7166 47.4771 99.3348 47.5352 98.9253 47.5352C98.1561 47.5352 97.4893 47.3525 96.9248 46.9873C96.3659 46.6165 95.9342 46.1074 95.6299 45.46C95.3255 44.8125 95.1733 44.071 95.1733 43.2354V43.2188C95.1733 42.3831 95.3255 41.6416 95.6299 40.9941C95.9398 40.3411 96.377 39.8293 96.9414 39.4585C97.5059 39.0822 98.1782 38.894 98.9585 38.894C99.3791 38.894 99.7664 38.9604 100.121 39.0933C100.475 39.2261 100.787 39.4142 101.059 39.6577C101.335 39.9012 101.565 40.1917 101.748 40.5293H101.847V39.0518H103.292V47.8755C103.292 48.5396 103.128 49.1178 102.802 49.6104C102.481 50.1029 102.021 50.4819 101.424 50.7476C100.826 51.0187 100.121 51.1543 99.3071 51.1543ZM99.2407 46.2568C99.7941 46.2568 100.267 46.1296 100.66 45.875C101.059 45.6149 101.363 45.258 101.573 44.8042C101.789 44.3504 101.897 43.8275 101.897 43.2354V43.2188C101.897 42.6266 101.789 42.1009 101.573 41.6416C101.363 41.1823 101.059 40.8226 100.66 40.5625C100.267 40.3024 99.7941 40.1724 99.2407 40.1724C98.6873 40.1724 98.217 40.3024 97.8296 40.5625C97.4478 40.8226 97.1545 41.1823 96.9497 41.6416C96.7505 42.1009 96.6509 42.6266 96.6509 43.2188V43.2354C96.6509 43.8275 96.7505 44.3504 96.9497 44.8042C97.1545 45.258 97.4478 45.6149 97.8296 45.875C98.217 46.1296 98.6873 46.2568 99.2407 46.2568ZM109.658 48.1577C108.812 48.1577 108.078 47.9723 107.458 47.6016C106.844 47.2253 106.368 46.6912 106.031 45.9995C105.699 45.3078 105.533 44.486 105.533 43.5342V43.5176C105.533 42.5602 105.699 41.7357 106.031 41.0439C106.368 40.3522 106.844 39.821 107.458 39.4502C108.078 39.0794 108.812 38.894 109.658 38.894C110.51 38.894 111.244 39.0794 111.858 39.4502C112.472 39.821 112.945 40.3522 113.277 41.0439C113.615 41.7357 113.784 42.5602 113.784 43.5176V43.5342C113.784 44.486 113.615 45.3078 113.277 45.9995C112.945 46.6912 112.472 47.2253 111.858 47.6016C111.244 47.9723 110.51 48.1577 109.658 48.1577ZM109.658 46.8794C110.223 46.8794 110.701 46.7466 111.094 46.481C111.487 46.2153 111.786 45.8335 111.991 45.3354C112.201 44.8374 112.306 44.237 112.306 43.5342V43.5176C112.306 42.8092 112.201 42.2061 111.991 41.708C111.786 41.21 111.487 40.8309 111.094 40.5708C110.701 40.3052 110.223 40.1724 109.658 40.1724C109.094 40.1724 108.615 40.3052 108.222 40.5708C107.829 40.8309 107.528 41.21 107.317 41.708C107.113 42.2061 107.01 42.8092 107.01 43.5176V43.5342C107.01 44.237 107.113 44.8374 107.317 45.3354C107.528 45.8335 107.829 46.2153 108.222 46.481C108.615 46.7466 109.094 46.8794 109.658 46.8794ZM123.985 48.0664C123.067 48.0664 122.4 47.881 121.985 47.5103C121.575 47.1395 121.371 46.528 121.371 45.6758V40.2471H119.959V39.0518H121.371V36.7358H122.865V39.0518H124.824V40.2471H122.865V45.3105C122.865 45.8363 122.964 46.2153 123.164 46.4478C123.363 46.6746 123.695 46.7881 124.16 46.7881C124.287 46.7881 124.395 46.7853 124.483 46.7798C124.577 46.7743 124.691 46.766 124.824 46.7549V47.9834C124.685 48.0055 124.547 48.0249 124.409 48.0415C124.27 48.0581 124.129 48.0664 123.985 48.0664ZM130.543 48.1577C129.696 48.1577 128.963 47.9723 128.343 47.6016C127.729 47.2253 127.253 46.6912 126.916 45.9995C126.583 45.3078 126.417 44.486 126.417 43.5342V43.5176C126.417 42.5602 126.583 41.7357 126.916 41.0439C127.253 40.3522 127.729 39.821 128.343 39.4502C128.963 39.0794 129.696 38.894 130.543 38.894C131.395 38.894 132.128 39.0794 132.743 39.4502C133.357 39.821 133.83 40.3522 134.162 41.0439C134.5 41.7357 134.668 42.5602 134.668 43.5176V43.5342C134.668 44.486 134.5 45.3078 134.162 45.9995C133.83 46.6912 133.357 47.2253 132.743 47.6016C132.128 47.9723 131.395 48.1577 130.543 48.1577ZM130.543 46.8794C131.107 46.8794 131.586 46.7466 131.979 46.481C132.372 46.2153 132.671 45.8335 132.875 45.3354C133.086 44.8374 133.191 44.237 133.191 43.5342V43.5176C133.191 42.8092 133.086 42.2061 132.875 41.708C132.671 41.21 132.372 40.8309 131.979 40.5708C131.586 40.3052 131.107 40.1724 130.543 40.1724C129.979 40.1724 129.5 40.3052 129.107 40.5708C128.714 40.8309 128.412 41.21 128.202 41.708C127.997 42.2061 127.895 42.8092 127.895 43.5176V43.5342C127.895 44.237 127.997 44.8374 128.202 45.3354C128.412 45.8335 128.714 46.2153 129.107 46.481C129.5 46.7466 129.979 46.8794 130.543 46.8794ZM141.874 48V36.022H143.368V41.2017H149.942V36.022H151.436V48H149.942V42.5464H143.368V48H141.874ZM156.765 48.1577C156.201 48.1577 155.692 48.0498 155.238 47.834C154.79 47.6182 154.433 47.311 154.167 46.9126C153.907 46.5142 153.777 46.0438 153.777 45.5015V45.4849C153.777 44.9536 153.904 44.4998 154.159 44.1235C154.413 43.7417 154.784 43.4429 155.271 43.2271C155.758 43.0112 156.347 42.884 157.039 42.8452L160.326 42.646V43.7998L157.213 43.999C156.533 44.0378 156.035 44.1789 155.719 44.4224C155.409 44.6659 155.254 45.009 155.254 45.4517V45.4683C155.254 45.922 155.426 46.2762 155.769 46.5308C156.112 46.7798 156.544 46.9043 157.064 46.9043C157.556 46.9043 157.994 46.8075 158.375 46.6138C158.757 46.4146 159.056 46.1462 159.272 45.8086C159.493 45.471 159.604 45.0892 159.604 44.6631V41.874C159.604 41.3206 159.435 40.9001 159.098 40.6123C158.766 40.319 158.265 40.1724 157.595 40.1724C157.058 40.1724 156.618 40.2692 156.275 40.4629C155.932 40.651 155.703 40.9194 155.586 41.2681L155.578 41.293H154.134L154.142 41.2432C154.22 40.7728 154.413 40.3633 154.723 40.0146C155.039 39.6605 155.445 39.3866 155.943 39.1929C156.441 38.9937 157.009 38.894 157.645 38.894C158.375 38.894 158.993 39.013 159.496 39.251C160.005 39.4889 160.39 39.832 160.65 40.2803C160.916 40.723 161.048 41.2542 161.048 41.874V48H159.604V46.6802H159.471C159.283 46.9956 159.053 47.264 158.782 47.4854C158.517 47.7067 158.215 47.8755 157.877 47.9917C157.54 48.1024 157.169 48.1577 156.765 48.1577ZM168.137 48.1577C167.722 48.1577 167.338 48.0941 166.983 47.9668C166.629 47.8395 166.314 47.6597 166.037 47.4272C165.76 47.1893 165.531 46.9043 165.348 46.5723H165.215V48H163.771V35.499H165.215V40.4629H165.348C165.514 40.1419 165.736 39.8652 166.012 39.6328C166.294 39.4004 166.615 39.2205 166.975 39.0933C167.34 38.9604 167.728 38.894 168.137 38.894C168.895 38.894 169.554 39.085 170.113 39.4668C170.677 39.8486 171.114 40.3854 171.424 41.0771C171.734 41.7689 171.889 42.5824 171.889 43.5176V43.5342C171.889 44.4639 171.734 45.2773 171.424 45.9746C171.114 46.6663 170.677 47.2031 170.113 47.585C169.554 47.9668 168.895 48.1577 168.137 48.1577ZM167.805 46.8794C168.353 46.8794 168.821 46.7466 169.208 46.481C169.595 46.2098 169.891 45.8252 170.096 45.3271C170.306 44.8236 170.412 44.2259 170.412 43.5342V43.5176C170.412 42.8203 170.306 42.2227 170.096 41.7246C169.891 41.2266 169.595 40.8447 169.208 40.5791C168.821 40.3079 168.353 40.1724 167.805 40.1724C167.263 40.1724 166.795 40.3079 166.402 40.5791C166.009 40.8503 165.708 41.2349 165.498 41.7329C165.287 42.231 165.182 42.8258 165.182 43.5176V43.5342C165.182 44.2204 165.287 44.8153 165.498 45.3188C165.708 45.8169 166.009 46.2015 166.402 46.4727C166.795 46.7438 167.263 46.8794 167.805 46.8794ZM174.164 48V39.0518H175.608V48H174.164ZM174.894 37.3252C174.623 37.3252 174.388 37.2284 174.188 37.0347C173.995 36.8354 173.898 36.6003 173.898 36.3291C173.898 36.0524 173.995 35.8172 174.188 35.6235C174.388 35.4299 174.623 35.333 174.894 35.333C175.171 35.333 175.406 35.4299 175.6 35.6235C175.793 35.8172 175.89 36.0524 175.89 36.3291C175.89 36.6003 175.793 36.8354 175.6 37.0347C175.406 37.2284 175.171 37.3252 174.894 37.3252ZM181.51 48.0664C180.591 48.0664 179.924 47.881 179.509 47.5103C179.1 47.1395 178.895 46.528 178.895 45.6758V40.2471H177.484V39.0518H178.895V36.7358H180.389V39.0518H182.348V40.2471H180.389V45.3105C180.389 45.8363 180.489 46.2153 180.688 46.4478C180.887 46.6746 181.219 46.7881 181.684 46.7881C181.811 46.7881 181.919 46.7853 182.008 46.7798C182.102 46.7743 182.215 46.766 182.348 46.7549V47.9834C182.21 48.0055 182.071 48.0249 181.933 48.0415C181.795 48.0581 181.654 48.0664 181.51 48.0664ZM189.47 48V36.022H193.579C194.763 36.022 195.776 36.2599 196.617 36.7358C197.464 37.2062 198.111 37.8869 198.56 38.7778C199.008 39.6688 199.232 40.7424 199.232 41.9985V42.0151C199.232 43.2713 199.008 44.3477 198.56 45.2441C198.111 46.1351 197.467 46.8185 196.625 47.2944C195.784 47.7648 194.769 48 193.579 48H189.47ZM190.964 46.6553H193.479C194.37 46.6553 195.131 46.4727 195.762 46.1074C196.393 45.7422 196.875 45.2137 197.207 44.522C197.539 43.8302 197.705 43.0002 197.705 42.0317V42.0151C197.705 41.0412 197.536 40.2083 197.198 39.5166C196.866 38.8193 196.385 38.2881 195.754 37.9229C195.123 37.5521 194.365 37.3667 193.479 37.3667H190.964V46.6553ZM205.292 48.1577C204.439 48.1577 203.706 47.9696 203.092 47.5933C202.483 47.217 202.013 46.6857 201.681 45.9995C201.354 45.3078 201.191 44.4943 201.191 43.5591V43.5508C201.191 42.6266 201.354 41.8159 201.681 41.1187C202.013 40.4214 202.48 39.8763 203.083 39.4834C203.687 39.0905 204.392 38.894 205.2 38.894C206.014 38.894 206.711 39.0822 207.292 39.4585C207.879 39.8348 208.327 40.3605 208.637 41.0356C208.952 41.7052 209.11 42.4855 209.11 43.3765V43.9409H201.938V42.7871H208.371L207.657 43.8413V43.2686C207.657 42.5658 207.552 41.9875 207.342 41.5337C207.132 41.0799 206.841 40.7424 206.47 40.521C206.099 40.2941 205.673 40.1807 205.192 40.1807C204.71 40.1807 204.279 40.2996 203.897 40.5376C203.521 40.77 203.222 41.1159 203 41.5752C202.779 42.0345 202.668 42.599 202.668 43.2686V43.8413C202.668 44.4777 202.776 45.0228 202.992 45.4766C203.208 45.9248 203.515 46.2707 203.914 46.5142C204.312 46.7521 204.782 46.8711 205.325 46.8711C205.729 46.8711 206.08 46.8158 206.379 46.7051C206.678 46.5944 206.924 46.4533 207.118 46.2817C207.311 46.1102 207.447 45.9359 207.524 45.7588L207.558 45.6841H209.002L208.985 45.7505C208.908 46.0549 208.77 46.3509 208.57 46.6387C208.377 46.9209 208.125 47.1782 207.815 47.4106C207.505 47.6375 207.137 47.8201 206.711 47.9585C206.29 48.0913 205.817 48.1577 205.292 48.1577ZM214.53 48.0664C213.612 48.0664 212.945 47.881 212.53 47.5103C212.12 47.1395 211.916 46.528 211.916 45.6758V40.2471H210.504V39.0518H211.916V36.7358H213.41V39.0518H215.369V40.2471H213.41V45.3105C213.41 45.8363 213.509 46.2153 213.708 46.4478C213.908 46.6746 214.24 46.7881 214.705 46.7881C214.832 46.7881 214.94 46.7853 215.028 46.7798C215.122 46.7743 215.236 46.766 215.369 46.7549V47.9834C215.23 48.0055 215.092 48.0249 214.954 48.0415C214.815 48.0581 214.674 48.0664 214.53 48.0664ZM219.984 48.1577C219.419 48.1577 218.91 48.0498 218.457 47.834C218.008 47.6182 217.651 47.311 217.386 46.9126C217.126 46.5142 216.996 46.0438 216.996 45.5015V45.4849C216.996 44.9536 217.123 44.4998 217.377 44.1235C217.632 43.7417 218.003 43.4429 218.49 43.2271C218.977 43.0112 219.566 42.884 220.258 42.8452L223.545 42.646V43.7998L220.432 43.999C219.751 44.0378 219.253 44.1789 218.938 44.4224C218.628 44.6659 218.473 45.009 218.473 45.4517V45.4683C218.473 45.922 218.645 46.2762 218.988 46.5308C219.331 46.7798 219.763 46.9043 220.283 46.9043C220.775 46.9043 221.212 46.8075 221.594 46.6138C221.976 46.4146 222.275 46.1462 222.491 45.8086C222.712 45.471 222.823 45.0892 222.823 44.6631V41.874C222.823 41.3206 222.654 40.9001 222.316 40.6123C221.984 40.319 221.484 40.1724 220.814 40.1724C220.277 40.1724 219.837 40.2692 219.494 40.4629C219.151 40.651 218.921 40.9194 218.805 41.2681L218.797 41.293H217.353L217.361 41.2432C217.438 40.7728 217.632 40.3633 217.942 40.0146C218.257 39.6605 218.664 39.3866 219.162 39.1929C219.66 38.9937 220.227 38.894 220.864 38.894C221.594 38.894 222.211 39.013 222.715 39.251C223.224 39.4889 223.609 39.832 223.869 40.2803C224.134 40.723 224.267 41.2542 224.267 41.874V48H222.823V46.6802H222.69C222.502 46.9956 222.272 47.264 222.001 47.4854C221.735 47.7067 221.434 47.8755 221.096 47.9917C220.759 48.1024 220.388 48.1577 219.984 48.1577ZM226.94 48V39.0518H228.384V48H226.94ZM227.67 37.3252C227.399 37.3252 227.164 37.2284 226.965 37.0347C226.771 36.8354 226.674 36.6003 226.674 36.3291C226.674 36.0524 226.771 35.8172 226.965 35.6235C227.164 35.4299 227.399 35.333 227.67 35.333C227.947 35.333 228.182 35.4299 228.376 35.6235C228.57 35.8172 228.667 36.0524 228.667 36.3291C228.667 36.6003 228.57 36.8354 228.376 37.0347C228.182 37.2284 227.947 37.3252 227.67 37.3252ZM231.19 48V35.499H232.634V48H231.19ZM240.188 50.9883V39.0518H241.632V40.4795H241.765C241.948 40.1475 242.177 39.8652 242.454 39.6328C242.731 39.3949 243.046 39.2122 243.4 39.085C243.755 38.9577 244.139 38.894 244.554 38.894C245.312 38.894 245.971 39.0877 246.53 39.4751C247.094 39.8569 247.531 40.3937 247.841 41.0854C248.151 41.7772 248.306 42.5879 248.306 43.5176V43.5342C248.306 44.4694 248.151 45.2829 247.841 45.9746C247.531 46.6663 247.094 47.2031 246.53 47.585C245.971 47.9668 245.312 48.1577 244.554 48.1577C244.145 48.1577 243.757 48.0941 243.392 47.9668C243.032 47.834 242.711 47.6514 242.429 47.4189C242.153 47.1865 241.931 46.9098 241.765 46.5889H241.632V50.9883H240.188ZM244.222 46.8794C244.77 46.8794 245.238 46.7466 245.625 46.481C246.012 46.2098 246.308 45.8252 246.513 45.3271C246.723 44.8236 246.829 44.2259 246.829 43.5342V43.5176C246.829 42.8203 246.723 42.2227 246.513 41.7246C246.308 41.2266 246.012 40.8447 245.625 40.5791C245.238 40.3079 244.77 40.1724 244.222 40.1724C243.68 40.1724 243.212 40.3079 242.819 40.5791C242.426 40.8503 242.125 41.2349 241.915 41.7329C241.704 42.231 241.599 42.8258 241.599 43.5176V43.5342C241.599 44.2204 241.704 44.8153 241.915 45.3188C242.125 45.8169 242.426 46.2015 242.819 46.4727C243.212 46.7438 243.68 46.8794 244.222 46.8794ZM253.021 48.1577C252.457 48.1577 251.947 48.0498 251.494 47.834C251.045 47.6182 250.688 47.311 250.423 46.9126C250.163 46.5142 250.033 46.0438 250.033 45.5015V45.4849C250.033 44.9536 250.16 44.4998 250.415 44.1235C250.669 43.7417 251.04 43.4429 251.527 43.2271C252.014 43.0112 252.603 42.884 253.295 42.8452L256.582 42.646V43.7998L253.469 43.999C252.789 44.0378 252.291 44.1789 251.975 44.4224C251.665 44.6659 251.51 45.009 251.51 45.4517V45.4683C251.51 45.922 251.682 46.2762 252.025 46.5308C252.368 46.7798 252.8 46.9043 253.32 46.9043C253.812 46.9043 254.25 46.8075 254.631 46.6138C255.013 46.4146 255.312 46.1462 255.528 45.8086C255.749 45.471 255.86 45.0892 255.86 44.6631V41.874C255.86 41.3206 255.691 40.9001 255.354 40.6123C255.021 40.319 254.521 40.1724 253.851 40.1724C253.314 40.1724 252.874 40.2692 252.531 40.4629C252.188 40.651 251.958 40.9194 251.842 41.2681L251.834 41.293H250.39L250.398 41.2432C250.475 40.7728 250.669 40.3633 250.979 40.0146C251.294 39.6605 251.701 39.3866 252.199 39.1929C252.697 38.9937 253.264 38.894 253.901 38.894C254.631 38.894 255.248 39.013 255.752 39.251C256.261 39.4889 256.646 39.832 256.906 40.2803C257.171 40.723 257.304 41.2542 257.304 41.874V48H255.86V46.6802H255.727C255.539 46.9956 255.309 47.264 255.038 47.4854C254.772 47.7067 254.471 47.8755 254.133 47.9917C253.796 48.1024 253.425 48.1577 253.021 48.1577ZM263.629 51.1543C262.91 51.1543 262.282 51.0519 261.745 50.8472C261.208 50.6479 260.779 50.363 260.458 49.9922C260.143 49.627 259.947 49.2008 259.869 48.7139L259.886 48.7056H261.38L261.388 48.7139C261.466 49.0514 261.698 49.3281 262.085 49.5439C262.473 49.7653 262.987 49.876 263.629 49.876C264.432 49.876 265.057 49.6934 265.505 49.3281C265.959 48.9684 266.186 48.4593 266.186 47.8008V45.9912H266.053C265.865 46.3177 265.63 46.5972 265.348 46.8296C265.065 47.062 264.747 47.2391 264.393 47.3608C264.039 47.4771 263.657 47.5352 263.248 47.5352C262.478 47.5352 261.812 47.3525 261.247 46.9873C260.688 46.6165 260.257 46.1074 259.952 45.46C259.648 44.8125 259.496 44.071 259.496 43.2354V43.2188C259.496 42.3831 259.648 41.6416 259.952 40.9941C260.262 40.3411 260.699 39.8293 261.264 39.4585C261.828 39.0822 262.5 38.894 263.281 38.894C263.701 38.894 264.089 38.9604 264.443 39.0933C264.797 39.2261 265.11 39.4142 265.381 39.6577C265.658 39.9012 265.887 40.1917 266.07 40.5293H266.169V39.0518H267.614V47.8755C267.614 48.5396 267.451 49.1178 267.124 49.6104C266.803 50.1029 266.344 50.4819 265.746 50.7476C265.148 51.0187 264.443 51.1543 263.629 51.1543ZM263.563 46.2568C264.116 46.2568 264.59 46.1296 264.982 45.875C265.381 45.6149 265.685 45.258 265.896 44.8042C266.111 44.3504 266.219 43.8275 266.219 43.2354V43.2188C266.219 42.6266 266.111 42.1009 265.896 41.6416C265.685 41.1823 265.381 40.8226 264.982 40.5625C264.59 40.3024 264.116 40.1724 263.563 40.1724C263.01 40.1724 262.539 40.3024 262.152 40.5625C261.77 40.8226 261.477 41.1823 261.272 41.6416C261.073 42.1009 260.973 42.6266 260.973 43.2188V43.2354C260.973 43.8275 261.073 44.3504 261.272 44.8042C261.477 45.258 261.77 45.6149 262.152 45.875C262.539 46.1296 263.01 46.2568 263.563 46.2568ZM273.956 48.1577C273.103 48.1577 272.37 47.9696 271.756 47.5933C271.147 47.217 270.677 46.6857 270.345 45.9995C270.018 45.3078 269.855 44.4943 269.855 43.5591V43.5508C269.855 42.6266 270.018 41.8159 270.345 41.1187C270.677 40.4214 271.144 39.8763 271.748 39.4834C272.351 39.0905 273.056 38.894 273.864 38.894C274.678 38.894 275.375 39.0822 275.956 39.4585C276.543 39.8348 276.991 40.3605 277.301 41.0356C277.616 41.7052 277.774 42.4855 277.774 43.3765V43.9409H270.602V42.7871H277.035L276.321 43.8413V43.2686C276.321 42.5658 276.216 41.9875 276.006 41.5337C275.796 41.0799 275.505 40.7424 275.134 40.521C274.764 40.2941 274.337 40.1807 273.856 40.1807C273.375 40.1807 272.943 40.2996 272.561 40.5376C272.185 40.77 271.886 41.1159 271.665 41.5752C271.443 42.0345 271.333 42.599 271.333 43.2686V43.8413C271.333 44.4777 271.44 45.0228 271.656 45.4766C271.872 45.9248 272.179 46.2707 272.578 46.5142C272.976 46.7521 273.446 46.8711 273.989 46.8711C274.393 46.8711 274.744 46.8158 275.043 46.7051C275.342 46.5944 275.588 46.4533 275.782 46.2817C275.975 46.1102 276.111 45.9359 276.188 45.7588L276.222 45.6841H277.666L277.649 45.7505C277.572 46.0549 277.434 46.3509 277.234 46.6387C277.041 46.9209 276.789 47.1782 276.479 47.4106C276.169 47.6375 275.801 47.8201 275.375 47.9585C274.954 48.0913 274.481 48.1577 273.956 48.1577ZM281.194 48.083C280.901 48.083 280.646 47.9779 280.43 47.7676C280.22 47.5518 280.115 47.2972 280.115 47.0039C280.115 46.7051 280.22 46.4505 280.43 46.2402C280.646 46.0299 280.901 45.9248 281.194 45.9248C281.493 45.9248 281.747 46.0299 281.958 46.2402C282.168 46.4505 282.273 46.7051 282.273 47.0039C282.273 47.2972 282.168 47.5518 281.958 47.7676C281.747 47.9779 281.493 48.083 281.194 48.083Z" fill="#3D423E"/>
</g>
<defs>
<filter id="filter0_b_1750_33893" x="3.7417" y="-22" width="66.5166" height="62.75" filterUnits="userSpaceOnUse" color-interpolation-filters="sRGB">
<feFlood flood-opacity="0" result="BackgroundImageFix"/>
<feGaussianBlur in="BackgroundImageFix" stdDeviation="11"/>
<feComposite in2="SourceAlpha" operator="in" result="effect1_backgroundBlur_1750_33893"/>
<feBlend mode="normal" in="SourceGraphic" in2="effect1_backgroundBlur_1750_33893" result="shape"/>
</filter>
<filter id="filter1_b_1750_33893" x="-22" y="-6" width="344" height="96" filterUnits="userSpaceOnUse" color-interpolation-filters="sRGB">
<feFlood flood-opacity="0" result="BackgroundImageFix"/>
<feGaussianBlur in="BackgroundImageFix" stdDeviation="11"/>
<feComposite in2="SourceAlpha" operator="in" result="effect1_backgroundBlur_1750_33893"/>
<feBlend mode="normal" in="SourceGraphic" in2="effect1_backgroundBlur_1750_33893" result="shape"/>
</filter>
</defs>
</svg>
