<svg width="339" height="68" viewBox="0 0 339 68" fill="none" xmlns="http://www.w3.org/2000/svg">
<g filter="url(#filter0_b_1750_33843)">
<path d="M302 0L313.258 18.75H290.742L302 0Z" fill="#FDFCFB" fill-opacity="0.8"/>
</g>
<g filter="url(#filter1_b_1750_33843)">
<rect y="16" width="339" height="52" rx="12" fill="#FDFCFB" fill-opacity="0.8"/>
<path d="M21.8955 31.4565C22.6592 31.4565 23.3537 31.6447 23.979 32.021C24.6099 32.3918 25.1107 32.8926 25.4814 33.5234C25.8522 34.1488 26.0376 34.8433 26.0376 35.6069C26.0376 35.6567 26.0376 35.701 26.0376 35.7397C26.0376 35.7785 26.0348 35.8145 26.0293 35.8477C26.0182 35.9915 25.9546 36.1077 25.8384 36.1963C25.7277 36.2793 25.6087 36.3208 25.4814 36.3208C25.3486 36.3208 25.2269 36.2793 25.1162 36.1963C25.0111 36.1077 24.9557 35.9694 24.9502 35.7812C24.9502 35.7425 24.9502 35.7093 24.9502 35.6816C24.9502 35.654 24.9502 35.6291 24.9502 35.6069C24.9502 35.0425 24.8118 34.5306 24.5352 34.0713C24.264 33.6064 23.896 33.2357 23.4312 32.959C22.9718 32.6823 22.46 32.5439 21.8955 32.5439C21.3311 32.5439 20.8164 32.6823 20.3516 32.959C19.8867 33.2357 19.516 33.6064 19.2393 34.0713C18.9681 34.5306 18.8325 35.0425 18.8325 35.6069C18.8325 35.9777 18.8934 36.3319 19.0151 36.6694C19.1424 37.0015 19.3167 37.3003 19.5381 37.5659C19.6543 37.7043 19.7013 37.8426 19.6792 37.981C19.6626 38.1193 19.6017 38.2355 19.4966 38.3296C19.3914 38.4181 19.2697 38.4624 19.1313 38.4624C19.0539 38.4624 18.9736 38.443 18.8906 38.4043C18.8132 38.3656 18.7384 38.3047 18.6665 38.2217C18.3787 37.862 18.1519 37.4608 17.9858 37.0181C17.8254 36.5698 17.7451 36.0994 17.7451 35.6069C17.7451 35.0314 17.853 34.4946 18.0688 33.9966C18.2847 33.493 18.5807 33.0531 18.957 32.6768C19.3389 32.2949 19.7816 31.9961 20.2852 31.7803C20.7887 31.5645 21.3255 31.4565 21.8955 31.4565ZM29.665 49.6934C28.2871 50.1969 26.9839 50.2523 25.7554 49.8594C24.5324 49.472 23.3952 48.6419 22.3438 47.3691L19.563 44.0073C19.4689 43.8856 19.3831 43.7583 19.3057 43.6255C19.2282 43.4871 19.1701 43.3571 19.1313 43.2354C18.9709 42.8092 18.9902 42.4274 19.1895 42.0898C19.3942 41.7523 19.6847 41.5143 20.061 41.376C20.3433 41.2764 20.6227 41.2681 20.8994 41.3511C21.1761 41.4285 21.4362 41.5946 21.6797 41.8491L22.6509 42.9116C22.6785 42.9393 22.7062 42.9476 22.7339 42.9365C22.7726 42.9255 22.7837 42.895 22.7671 42.8452L20.4014 36.3374C20.2243 35.8449 20.2271 35.3966 20.4097 34.9927C20.5978 34.5832 20.9271 34.2926 21.3975 34.1211C21.8568 33.9551 22.2884 33.9689 22.6924 34.1626C23.0964 34.3507 23.3869 34.6938 23.564 35.1919L24.5103 37.7817C24.6707 37.6655 24.8451 37.5715 25.0332 37.4995C25.3708 37.3778 25.6945 37.3639 26.0044 37.458C26.3198 37.5465 26.5827 37.7292 26.793 38.0059C26.9977 37.8454 27.2135 37.7236 27.4404 37.6406C27.7614 37.5244 28.0658 37.5078 28.3535 37.5908C28.6413 37.6683 28.882 37.8343 29.0757 38.0889C29.8062 37.8343 30.4647 37.8869 31.0513 38.2466C31.6379 38.6007 32.0944 39.2261 32.4209 40.1226L33.0352 41.8242C33.4779 43.0417 33.6273 44.1733 33.4834 45.2192C33.3451 46.2596 32.9494 47.1672 32.2964 47.9419C31.6434 48.7111 30.7663 49.2949 29.665 49.6934ZM29.3081 48.606C30.2323 48.2739 30.9544 47.7952 31.4746 47.1699C32.0003 46.5446 32.3075 45.8003 32.396 44.937C32.4901 44.0737 32.3462 43.1191 31.9644 42.0732L31.4414 40.6538C31.2201 40.034 30.9517 39.5885 30.6362 39.3174C30.3208 39.0407 29.9915 38.966 29.6484 39.0933L29.9722 39.9897C30.022 40.1336 30.0137 40.2692 29.9473 40.3965C29.8809 40.5182 29.784 40.6012 29.6567 40.6455C29.5239 40.6953 29.3911 40.6953 29.2583 40.6455C29.1255 40.5902 29.0314 40.4906 28.9761 40.3467L28.5361 39.1348C28.4642 38.93 28.3507 38.7889 28.1958 38.7114C28.0409 38.6284 27.8665 38.6229 27.6729 38.6948C27.5068 38.7557 27.3657 38.847 27.2495 38.9688L27.7808 40.4463C27.8361 40.5902 27.8306 40.7257 27.7642 40.853C27.6978 40.9748 27.6009 41.0578 27.4736 41.1021C27.3408 41.1519 27.2052 41.1519 27.0669 41.1021C26.9341 41.0467 26.8428 40.9499 26.793 40.8115L26.1289 38.9937C26.057 38.7889 25.9435 38.6478 25.7886 38.5703C25.6336 38.4873 25.4593 38.4818 25.2656 38.5537C25.1051 38.6146 24.964 38.7059 24.8423 38.8276L25.5977 40.9111C25.6475 41.0439 25.6392 41.174 25.5728 41.3013C25.5119 41.4285 25.415 41.5171 25.2822 41.5669C25.1439 41.6167 25.0083 41.6139 24.8755 41.5586C24.7427 41.5033 24.6514 41.4064 24.6016 41.2681L22.5015 35.499C22.4406 35.333 22.341 35.2168 22.2026 35.1504C22.0698 35.0785 21.9232 35.0701 21.7627 35.1255C21.6022 35.1864 21.4888 35.2887 21.4224 35.4326C21.356 35.571 21.3532 35.7231 21.4141 35.8892L24.3608 43.9741C24.4217 44.1567 24.4217 44.3255 24.3608 44.4805C24.3 44.6299 24.1893 44.735 24.0288 44.7959C23.8849 44.8457 23.741 44.8568 23.5972 44.8291C23.4533 44.7959 23.3039 44.6963 23.1489 44.5303L21.2231 42.5464C21.0018 42.3084 20.7721 42.231 20.5342 42.314C20.3792 42.3748 20.2713 42.4717 20.2104 42.6045C20.1551 42.7373 20.1523 42.8701 20.2021 43.0029C20.2464 43.1191 20.3101 43.2298 20.3931 43.335L23.1738 46.6802C24.1367 47.8423 25.1273 48.5534 26.1455 48.8135C27.1637 49.0736 28.2179 49.0044 29.3081 48.606ZM44.4404 48V37.3667H40.5806V36.022H49.7944V37.3667H45.9346V48H44.4404ZM52.6333 48.1577C52.0688 48.1577 51.5597 48.0498 51.106 47.834C50.6577 47.6182 50.3008 47.311 50.0352 46.9126C49.7751 46.5142 49.645 46.0438 49.645 45.5015V45.4849C49.645 44.9536 49.7723 44.4998 50.0269 44.1235C50.2814 43.7417 50.6522 43.4429 51.1392 43.2271C51.6261 43.0112 52.2155 42.884 52.9072 42.8452L56.1943 42.646V43.7998L53.0815 43.999C52.4009 44.0378 51.9028 44.1789 51.5874 44.4224C51.2775 44.6659 51.1226 45.009 51.1226 45.4517V45.4683C51.1226 45.922 51.2941 46.2762 51.6372 46.5308C51.9803 46.7798 52.4119 46.9043 52.9321 46.9043C53.4246 46.9043 53.8618 46.8075 54.2437 46.6138C54.6255 46.4146 54.9243 46.1462 55.1401 45.8086C55.3615 45.471 55.4722 45.0892 55.4722 44.6631V41.874C55.4722 41.3206 55.3034 40.9001 54.9658 40.6123C54.6338 40.319 54.133 40.1724 53.4634 40.1724C52.9266 40.1724 52.4867 40.2692 52.1436 40.4629C51.8005 40.651 51.5708 40.9194 51.4546 41.2681L51.4463 41.293H50.002L50.0103 41.2432C50.0877 40.7728 50.2814 40.3633 50.5913 40.0146C50.9067 39.6605 51.3135 39.3866 51.8115 39.1929C52.3096 38.9937 52.8768 38.894 53.5132 38.894C54.2437 38.894 54.8607 39.013 55.3643 39.251C55.8734 39.4889 56.258 39.832 56.5181 40.2803C56.7837 40.723 56.9165 41.2542 56.9165 41.874V48H55.4722V46.6802H55.3394C55.1512 46.9956 54.9215 47.264 54.6504 47.4854C54.3848 47.7067 54.0832 47.8755 53.7456 47.9917C53.408 48.1024 53.0373 48.1577 52.6333 48.1577ZM59.5562 50.9883V39.0518H61.0005V40.4795H61.1333C61.3159 40.1475 61.5456 39.8652 61.8223 39.6328C62.099 39.3949 62.4144 39.2122 62.7686 39.085C63.1227 38.9577 63.5073 38.894 63.9224 38.894C64.6805 38.894 65.339 39.0877 65.8979 39.4751C66.4624 39.8569 66.8996 40.3937 67.2095 41.0854C67.5194 41.7772 67.6743 42.5879 67.6743 43.5176V43.5342C67.6743 44.4694 67.5194 45.2829 67.2095 45.9746C66.8996 46.6663 66.4624 47.2031 65.8979 47.585C65.339 47.9668 64.6805 48.1577 63.9224 48.1577C63.5129 48.1577 63.1255 48.0941 62.7603 47.9668C62.4006 47.834 62.0796 47.6514 61.7974 47.4189C61.5207 47.1865 61.2993 46.9098 61.1333 46.5889H61.0005V50.9883H59.5562ZM63.5903 46.8794C64.1382 46.8794 64.6058 46.7466 64.9932 46.481C65.3805 46.2098 65.6766 45.8252 65.8813 45.3271C66.0916 44.8236 66.1968 44.2259 66.1968 43.5342V43.5176C66.1968 42.8203 66.0916 42.2227 65.8813 41.7246C65.6766 41.2266 65.3805 40.8447 64.9932 40.5791C64.6058 40.3079 64.1382 40.1724 63.5903 40.1724C63.048 40.1724 62.5804 40.3079 62.1875 40.5791C61.7946 40.8503 61.493 41.2349 61.2827 41.7329C61.0724 42.231 60.9673 42.8258 60.9673 43.5176V43.5342C60.9673 44.2204 61.0724 44.8153 61.2827 45.3188C61.493 45.8169 61.7946 46.2015 62.1875 46.4727C62.5804 46.7438 63.048 46.8794 63.5903 46.8794ZM77.8926 48.0664C76.974 48.0664 76.3071 47.881 75.8921 47.5103C75.4826 47.1395 75.2778 46.528 75.2778 45.6758V40.2471H73.8667V39.0518H75.2778V36.7358H76.772V39.0518H78.731V40.2471H76.772V45.3105C76.772 45.8363 76.8716 46.2153 77.0708 46.4478C77.27 46.6746 77.6021 46.7881 78.0669 46.7881C78.1942 46.7881 78.3021 46.7853 78.3906 46.7798C78.4847 46.7743 78.5981 46.766 78.731 46.7549V47.9834C78.5926 48.0055 78.4543 48.0249 78.3159 48.0415C78.1776 48.0581 78.0365 48.0664 77.8926 48.0664ZM84.4502 48.1577C83.6035 48.1577 82.8703 47.9723 82.2505 47.6016C81.6362 47.2253 81.1603 46.6912 80.8228 45.9995C80.4907 45.3078 80.3247 44.486 80.3247 43.5342V43.5176C80.3247 42.5602 80.4907 41.7357 80.8228 41.0439C81.1603 40.3522 81.6362 39.821 82.2505 39.4502C82.8703 39.0794 83.6035 38.894 84.4502 38.894C85.3024 38.894 86.0356 39.0794 86.6499 39.4502C87.2642 39.821 87.7373 40.3522 88.0693 41.0439C88.4069 41.7357 88.5757 42.5602 88.5757 43.5176V43.5342C88.5757 44.486 88.4069 45.3078 88.0693 45.9995C87.7373 46.6912 87.2642 47.2253 86.6499 47.6016C86.0356 47.9723 85.3024 48.1577 84.4502 48.1577ZM84.4502 46.8794C85.0146 46.8794 85.4933 46.7466 85.8862 46.481C86.2791 46.2153 86.578 45.8335 86.7827 45.3354C86.993 44.8374 87.0981 44.237 87.0981 43.5342V43.5176C87.0981 42.8092 86.993 42.2061 86.7827 41.708C86.578 41.21 86.2791 40.8309 85.8862 40.5708C85.4933 40.3052 85.0146 40.1724 84.4502 40.1724C83.8857 40.1724 83.4071 40.3052 83.0142 40.5708C82.6213 40.8309 82.3197 41.21 82.1094 41.708C81.9046 42.2061 81.8022 42.8092 81.8022 43.5176V43.5342C81.8022 44.237 81.9046 44.8374 82.1094 45.3354C82.3197 45.8335 82.6213 46.2153 83.0142 46.481C83.4071 46.7466 83.8857 46.8794 84.4502 46.8794ZM99.2837 51.1543C98.5643 51.1543 97.9362 51.0519 97.3994 50.8472C96.8626 50.6479 96.4338 50.363 96.1128 49.9922C95.7974 49.627 95.6009 49.2008 95.5234 48.7139L95.54 48.7056H97.0342L97.0425 48.7139C97.12 49.0514 97.3524 49.3281 97.7397 49.5439C98.1271 49.7653 98.6418 49.876 99.2837 49.876C100.086 49.876 100.711 49.6934 101.16 49.3281C101.613 48.9684 101.84 48.4593 101.84 47.8008V45.9912H101.708C101.519 46.3177 101.284 46.5972 101.002 46.8296C100.72 47.062 100.402 47.2391 100.047 47.3608C99.6932 47.4771 99.3114 47.5352 98.9019 47.5352C98.1326 47.5352 97.4658 47.3525 96.9014 46.9873C96.3424 46.6165 95.9108 46.1074 95.6064 45.46C95.3021 44.8125 95.1499 44.071 95.1499 43.2354V43.2188C95.1499 42.3831 95.3021 41.6416 95.6064 40.9941C95.9163 40.3411 96.3535 39.8293 96.918 39.4585C97.4824 39.0822 98.1548 38.894 98.9351 38.894C99.3556 38.894 99.743 38.9604 100.097 39.0933C100.451 39.2261 100.764 39.4142 101.035 39.6577C101.312 39.9012 101.542 40.1917 101.724 40.5293H101.824V39.0518H103.268V47.8755C103.268 48.5396 103.105 49.1178 102.778 49.6104C102.457 50.1029 101.998 50.4819 101.4 50.7476C100.803 51.0187 100.097 51.1543 99.2837 51.1543ZM99.2173 46.2568C99.7707 46.2568 100.244 46.1296 100.637 45.875C101.035 45.6149 101.34 45.258 101.55 44.8042C101.766 44.3504 101.874 43.8275 101.874 43.2354V43.2188C101.874 42.6266 101.766 42.1009 101.55 41.6416C101.34 41.1823 101.035 40.8226 100.637 40.5625C100.244 40.3024 99.7707 40.1724 99.2173 40.1724C98.6639 40.1724 98.1935 40.3024 97.8062 40.5625C97.4243 40.8226 97.131 41.1823 96.9263 41.6416C96.7271 42.1009 96.6274 42.6266 96.6274 43.2188V43.2354C96.6274 43.8275 96.7271 44.3504 96.9263 44.8042C97.131 45.258 97.4243 45.6149 97.8062 45.875C98.1935 46.1296 98.6639 46.2568 99.2173 46.2568ZM109.635 48.1577C108.788 48.1577 108.055 47.9723 107.435 47.6016C106.821 47.2253 106.345 46.6912 106.007 45.9995C105.675 45.3078 105.509 44.486 105.509 43.5342V43.5176C105.509 42.5602 105.675 41.7357 106.007 41.0439C106.345 40.3522 106.821 39.821 107.435 39.4502C108.055 39.0794 108.788 38.894 109.635 38.894C110.487 38.894 111.22 39.0794 111.834 39.4502C112.449 39.821 112.922 40.3522 113.254 41.0439C113.591 41.7357 113.76 42.5602 113.76 43.5176V43.5342C113.76 44.486 113.591 45.3078 113.254 45.9995C112.922 46.6912 112.449 47.2253 111.834 47.6016C111.22 47.9723 110.487 48.1577 109.635 48.1577ZM109.635 46.8794C110.199 46.8794 110.678 46.7466 111.071 46.481C111.464 46.2153 111.763 45.8335 111.967 45.3354C112.178 44.8374 112.283 44.237 112.283 43.5342V43.5176C112.283 42.8092 112.178 42.2061 111.967 41.708C111.763 41.21 111.464 40.8309 111.071 40.5708C110.678 40.3052 110.199 40.1724 109.635 40.1724C109.07 40.1724 108.592 40.3052 108.199 40.5708C107.806 40.8309 107.504 41.21 107.294 41.708C107.089 42.2061 106.987 42.8092 106.987 43.5176V43.5342C106.987 44.237 107.089 44.8374 107.294 45.3354C107.504 45.8335 107.806 46.2153 108.199 46.481C108.592 46.7466 109.07 46.8794 109.635 46.8794ZM123.962 48.0664C123.043 48.0664 122.376 47.881 121.961 47.5103C121.552 47.1395 121.347 46.528 121.347 45.6758V40.2471H119.936V39.0518H121.347V36.7358H122.841V39.0518H124.8V40.2471H122.841V45.3105C122.841 45.8363 122.941 46.2153 123.14 46.4478C123.339 46.6746 123.671 46.7881 124.136 46.7881C124.264 46.7881 124.371 46.7853 124.46 46.7798C124.554 46.7743 124.667 46.766 124.8 46.7549V47.9834C124.662 48.0055 124.524 48.0249 124.385 48.0415C124.247 48.0581 124.106 48.0664 123.962 48.0664ZM130.52 48.1577C129.673 48.1577 128.94 47.9723 128.32 47.6016C127.706 47.2253 127.23 46.6912 126.892 45.9995C126.56 45.3078 126.394 44.486 126.394 43.5342V43.5176C126.394 42.5602 126.56 41.7357 126.892 41.0439C127.23 40.3522 127.706 39.821 128.32 39.4502C128.94 39.0794 129.673 38.894 130.52 38.894C131.372 38.894 132.105 39.0794 132.719 39.4502C133.333 39.821 133.807 40.3522 134.139 41.0439C134.476 41.7357 134.645 42.5602 134.645 43.5176V43.5342C134.645 44.486 134.476 45.3078 134.139 45.9995C133.807 46.6912 133.333 47.2253 132.719 47.6016C132.105 47.9723 131.372 48.1577 130.52 48.1577ZM130.52 46.8794C131.084 46.8794 131.563 46.7466 131.956 46.481C132.348 46.2153 132.647 45.8335 132.852 45.3354C133.062 44.8374 133.167 44.237 133.167 43.5342V43.5176C133.167 42.8092 133.062 42.2061 132.852 41.708C132.647 41.21 132.348 40.8309 131.956 40.5708C131.563 40.3052 131.084 40.1724 130.52 40.1724C129.955 40.1724 129.476 40.3052 129.083 40.5708C128.691 40.8309 128.389 41.21 128.179 41.708C127.974 42.2061 127.872 42.8092 127.872 43.5176V43.5342C127.872 44.237 127.974 44.8374 128.179 45.3354C128.389 45.8335 128.691 46.2153 129.083 46.481C129.476 46.7466 129.955 46.8794 130.52 46.8794ZM142.597 43.7251V42.397H145.984C146.842 42.397 147.506 42.1756 147.976 41.7329C148.446 41.2847 148.682 40.6676 148.682 39.8818V39.8652C148.682 39.0739 148.446 38.4569 147.976 38.0142C147.506 37.5715 146.842 37.3501 145.984 37.3501H142.597V36.022H146.366C147.118 36.022 147.782 36.1825 148.358 36.5034C148.933 36.8244 149.384 37.2726 149.711 37.8481C150.043 38.4237 150.209 39.0905 150.209 39.8486V39.8652C150.209 40.6234 150.043 41.293 149.711 41.874C149.384 42.4551 148.933 42.9089 148.358 43.2354C147.782 43.5618 147.118 43.7251 146.366 43.7251H142.597ZM141.85 48V36.022H143.344V48H141.85ZM155.903 48.1577C155.057 48.1577 154.323 47.9723 153.704 47.6016C153.089 47.2253 152.613 46.6912 152.276 45.9995C151.944 45.3078 151.778 44.486 151.778 43.5342V43.5176C151.778 42.5602 151.944 41.7357 152.276 41.0439C152.613 40.3522 153.089 39.821 153.704 39.4502C154.323 39.0794 155.057 38.894 155.903 38.894C156.756 38.894 157.489 39.0794 158.103 39.4502C158.717 39.821 159.19 40.3522 159.522 41.0439C159.86 41.7357 160.029 42.5602 160.029 43.5176V43.5342C160.029 44.486 159.86 45.3078 159.522 45.9995C159.19 46.6912 158.717 47.2253 158.103 47.6016C157.489 47.9723 156.756 48.1577 155.903 48.1577ZM155.903 46.8794C156.468 46.8794 156.946 46.7466 157.339 46.481C157.732 46.2153 158.031 45.8335 158.236 45.3354C158.446 44.8374 158.551 44.237 158.551 43.5342V43.5176C158.551 42.8092 158.446 42.2061 158.236 41.708C158.031 41.21 157.732 40.8309 157.339 40.5708C156.946 40.3052 156.468 40.1724 155.903 40.1724C155.339 40.1724 154.86 40.3052 154.467 40.5708C154.074 40.8309 153.773 41.21 153.562 41.708C153.358 42.2061 153.255 42.8092 153.255 43.5176V43.5342C153.255 44.237 153.358 44.8374 153.562 45.3354C153.773 45.8335 154.074 46.2153 154.467 46.481C154.86 46.7466 155.339 46.8794 155.903 46.8794ZM162.27 48V39.0518H163.714V40.4131H163.847C164.046 39.9316 164.351 39.5581 164.76 39.2925C165.175 39.0269 165.676 38.894 166.263 38.894C166.667 38.894 167.029 38.9604 167.35 39.0933C167.671 39.2261 167.948 39.4115 168.18 39.6494C168.413 39.8818 168.598 40.153 168.736 40.4629H168.869C169.03 40.1475 169.245 39.8735 169.517 39.6411C169.788 39.4032 170.1 39.2205 170.455 39.0933C170.814 38.9604 171.199 38.894 171.608 38.894C172.217 38.894 172.732 39.0075 173.152 39.2344C173.578 39.4613 173.902 39.7933 174.124 40.2305C174.345 40.6621 174.456 41.1906 174.456 41.8159V48H173.011V42.1479C173.011 41.7052 172.942 41.34 172.804 41.0522C172.671 40.759 172.466 40.5404 172.189 40.3965C171.913 40.2471 171.564 40.1724 171.144 40.1724C170.729 40.1724 170.366 40.2664 170.056 40.4546C169.746 40.6427 169.506 40.8945 169.334 41.21C169.162 41.5199 169.077 41.8657 169.077 42.2476V48H167.632V41.9238C167.632 41.5697 167.555 41.2625 167.4 41.0024C167.25 40.7368 167.035 40.5321 166.752 40.3882C166.476 40.2443 166.149 40.1724 165.773 40.1724C165.386 40.1724 165.034 40.2747 164.719 40.4795C164.409 40.6842 164.163 40.9609 163.98 41.3096C163.803 41.6527 163.714 42.0345 163.714 42.4551V48H162.27ZM180.739 48.1577C179.893 48.1577 179.159 47.9723 178.54 47.6016C177.925 47.2253 177.449 46.6912 177.112 45.9995C176.78 45.3078 176.614 44.486 176.614 43.5342V43.5176C176.614 42.5602 176.78 41.7357 177.112 41.0439C177.449 40.3522 177.925 39.821 178.54 39.4502C179.159 39.0794 179.893 38.894 180.739 38.894C181.591 38.894 182.325 39.0794 182.939 39.4502C183.553 39.821 184.026 40.3522 184.358 41.0439C184.696 41.7357 184.865 42.5602 184.865 43.5176V43.5342C184.865 44.486 184.696 45.3078 184.358 45.9995C184.026 46.6912 183.553 47.2253 182.939 47.6016C182.325 47.9723 181.591 48.1577 180.739 48.1577ZM180.739 46.8794C181.304 46.8794 181.782 46.7466 182.175 46.481C182.568 46.2153 182.867 45.8335 183.072 45.3354C183.282 44.8374 183.387 44.237 183.387 43.5342V43.5176C183.387 42.8092 183.282 42.2061 183.072 41.708C182.867 41.21 182.568 40.8309 182.175 40.5708C181.782 40.3052 181.304 40.1724 180.739 40.1724C180.175 40.1724 179.696 40.3052 179.303 40.5708C178.91 40.8309 178.609 41.21 178.398 41.708C178.194 42.2061 178.091 42.8092 178.091 43.5176V43.5342C178.091 44.237 178.194 44.8374 178.398 45.3354C178.609 45.8335 178.91 46.2153 179.303 46.481C179.696 46.7466 180.175 46.8794 180.739 46.8794ZM190.41 48.1577C189.657 48.1577 188.999 47.9668 188.434 47.585C187.87 47.2031 187.432 46.6663 187.123 45.9746C186.813 45.2773 186.658 44.4639 186.658 43.5342V43.5176C186.658 42.5824 186.813 41.7689 187.123 41.0771C187.432 40.3854 187.867 39.8486 188.426 39.4668C188.99 39.085 189.652 38.894 190.41 38.894C190.819 38.894 191.204 38.9604 191.563 39.0933C191.929 39.2205 192.252 39.4004 192.535 39.6328C192.817 39.8652 193.038 40.1419 193.199 40.4629H193.332V35.499H194.776V48H193.332V46.5723H193.199C193.016 46.9043 192.786 47.1893 192.51 47.4272C192.233 47.6597 191.918 47.8395 191.563 47.9668C191.209 48.0941 190.825 48.1577 190.41 48.1577ZM190.742 46.8794C191.284 46.8794 191.752 46.7438 192.145 46.4727C192.537 46.2015 192.839 45.8169 193.049 45.3188C193.26 44.8153 193.365 44.2204 193.365 43.5342V43.5176C193.365 42.8258 193.26 42.231 193.049 41.7329C192.839 41.2349 192.537 40.8503 192.145 40.5791C191.752 40.3079 191.284 40.1724 190.742 40.1724C190.199 40.1724 189.732 40.3079 189.339 40.5791C188.951 40.8447 188.653 41.2266 188.442 41.7246C188.238 42.2227 188.135 42.8203 188.135 43.5176V43.5342C188.135 44.2259 188.238 44.8236 188.442 45.3271C188.653 45.8252 188.951 46.2098 189.339 46.481C189.732 46.7466 190.199 46.8794 190.742 46.8794ZM201.226 48.1577C200.379 48.1577 199.646 47.9723 199.026 47.6016C198.412 47.2253 197.936 46.6912 197.598 45.9995C197.266 45.3078 197.1 44.486 197.1 43.5342V43.5176C197.1 42.5602 197.266 41.7357 197.598 41.0439C197.936 40.3522 198.412 39.821 199.026 39.4502C199.646 39.0794 200.379 38.894 201.226 38.894C202.078 38.894 202.811 39.0794 203.425 39.4502C204.04 39.821 204.513 40.3522 204.845 41.0439C205.182 41.7357 205.351 42.5602 205.351 43.5176V43.5342C205.351 44.486 205.182 45.3078 204.845 45.9995C204.513 46.6912 204.04 47.2253 203.425 47.6016C202.811 47.9723 202.078 48.1577 201.226 48.1577ZM201.226 46.8794C201.79 46.8794 202.269 46.7466 202.662 46.481C203.055 46.2153 203.353 45.8335 203.558 45.3354C203.768 44.8374 203.874 44.237 203.874 43.5342V43.5176C203.874 42.8092 203.768 42.2061 203.558 41.708C203.353 41.21 203.055 40.8309 202.662 40.5708C202.269 40.3052 201.79 40.1724 201.226 40.1724C200.661 40.1724 200.182 40.3052 199.79 40.5708C199.397 40.8309 199.095 41.21 198.885 41.708C198.68 42.2061 198.578 42.8092 198.578 43.5176V43.5342C198.578 44.237 198.68 44.8374 198.885 45.3354C199.095 45.8335 199.397 46.2153 199.79 46.481C200.182 46.7466 200.661 46.8794 201.226 46.8794ZM207.592 48V39.0518H209.037V40.3799H209.169C209.341 39.9095 209.632 39.5443 210.041 39.2842C210.451 39.0241 210.957 38.894 211.56 38.894C211.698 38.894 211.834 38.9023 211.967 38.9189C212.105 38.93 212.21 38.9411 212.282 38.9521V40.355C212.133 40.3273 211.986 40.3079 211.842 40.2969C211.704 40.2803 211.555 40.272 211.394 40.272C210.935 40.272 210.528 40.3633 210.174 40.5459C209.82 40.7285 209.54 40.9831 209.335 41.3096C209.136 41.6361 209.037 42.0179 209.037 42.4551V48H207.592ZM217.495 48.1577C216.648 48.1577 215.915 47.9723 215.295 47.6016C214.681 47.2253 214.205 46.6912 213.868 45.9995C213.536 45.3078 213.37 44.486 213.37 43.5342V43.5176C213.37 42.5602 213.536 41.7357 213.868 41.0439C214.205 40.3522 214.681 39.821 215.295 39.4502C215.915 39.0794 216.648 38.894 217.495 38.894C218.347 38.894 219.081 39.0794 219.695 39.4502C220.309 39.821 220.782 40.3522 221.114 41.0439C221.452 41.7357 221.621 42.5602 221.621 43.5176V43.5342C221.621 44.486 221.452 45.3078 221.114 45.9995C220.782 46.6912 220.309 47.2253 219.695 47.6016C219.081 47.9723 218.347 48.1577 217.495 48.1577ZM217.495 46.8794C218.06 46.8794 218.538 46.7466 218.931 46.481C219.324 46.2153 219.623 45.8335 219.828 45.3354C220.038 44.8374 220.143 44.237 220.143 43.5342V43.5176C220.143 42.8092 220.038 42.2061 219.828 41.708C219.623 41.21 219.324 40.8309 218.931 40.5708C218.538 40.3052 218.06 40.1724 217.495 40.1724C216.931 40.1724 216.452 40.3052 216.059 40.5708C215.666 40.8309 215.365 41.21 215.154 41.708C214.95 42.2061 214.847 42.8092 214.847 43.5176V43.5342C214.847 44.237 214.95 44.8374 215.154 45.3354C215.365 45.8335 215.666 46.2153 216.059 46.481C216.452 46.7466 216.931 46.8794 217.495 46.8794ZM231.938 48V37.3667H228.079V36.022H237.292V37.3667H233.433V48H231.938ZM239.285 48V39.0518H240.729V48H239.285ZM240.015 37.3252C239.744 37.3252 239.509 37.2284 239.31 37.0347C239.116 36.8354 239.019 36.6003 239.019 36.3291C239.019 36.0524 239.116 35.8172 239.31 35.6235C239.509 35.4299 239.744 35.333 240.015 35.333C240.292 35.333 240.527 35.4299 240.721 35.6235C240.914 35.8172 241.011 36.0524 241.011 36.3291C241.011 36.6003 240.914 36.8354 240.721 37.0347C240.527 37.2284 240.292 37.3252 240.015 37.3252ZM243.452 48V39.0518H244.896V40.4131H245.029C245.228 39.9316 245.532 39.5581 245.942 39.2925C246.357 39.0269 246.858 38.894 247.444 38.894C247.848 38.894 248.211 38.9604 248.532 39.0933C248.853 39.2261 249.129 39.4115 249.362 39.6494C249.594 39.8818 249.78 40.153 249.918 40.4629H250.051C250.211 40.1475 250.427 39.8735 250.698 39.6411C250.969 39.4032 251.282 39.2205 251.636 39.0933C251.996 38.9604 252.381 38.894 252.79 38.894C253.399 38.894 253.913 39.0075 254.334 39.2344C254.76 39.4613 255.084 39.7933 255.305 40.2305C255.527 40.6621 255.637 41.1906 255.637 41.8159V48H254.193V42.1479C254.193 41.7052 254.124 41.34 253.985 41.0522C253.853 40.759 253.648 40.5404 253.371 40.3965C253.094 40.2471 252.746 40.1724 252.325 40.1724C251.91 40.1724 251.548 40.2664 251.238 40.4546C250.928 40.6427 250.687 40.8945 250.516 41.21C250.344 41.5199 250.258 41.8657 250.258 42.2476V48H248.814V41.9238C248.814 41.5697 248.736 41.2625 248.582 41.0024C248.432 40.7368 248.216 40.5321 247.934 40.3882C247.657 40.2443 247.331 40.1724 246.955 40.1724C246.567 40.1724 246.216 40.2747 245.9 40.4795C245.59 40.6842 245.344 40.9609 245.162 41.3096C244.985 41.6527 244.896 42.0345 244.896 42.4551V48H243.452ZM261.896 48.1577C261.044 48.1577 260.311 47.9696 259.696 47.5933C259.088 47.217 258.617 46.6857 258.285 45.9995C257.959 45.3078 257.795 44.4943 257.795 43.5591V43.5508C257.795 42.6266 257.959 41.8159 258.285 41.1187C258.617 40.4214 259.085 39.8763 259.688 39.4834C260.291 39.0905 260.997 38.894 261.805 38.894C262.618 38.894 263.315 39.0822 263.896 39.4585C264.483 39.8348 264.931 40.3605 265.241 41.0356C265.557 41.7052 265.714 42.4855 265.714 43.3765V43.9409H258.542V42.7871H264.976L264.262 43.8413V43.2686C264.262 42.5658 264.157 41.9875 263.946 41.5337C263.736 41.0799 263.445 40.7424 263.075 40.521C262.704 40.2941 262.278 40.1807 261.796 40.1807C261.315 40.1807 260.883 40.2996 260.501 40.5376C260.125 40.77 259.826 41.1159 259.605 41.5752C259.384 42.0345 259.273 42.599 259.273 43.2686V43.8413C259.273 44.4777 259.381 45.0228 259.597 45.4766C259.812 45.9248 260.12 46.2707 260.518 46.5142C260.917 46.7521 261.387 46.8711 261.929 46.8711C262.333 46.8711 262.685 46.8158 262.983 46.7051C263.282 46.5944 263.528 46.4533 263.722 46.2817C263.916 46.1102 264.051 45.9359 264.129 45.7588L264.162 45.6841H265.606L265.59 45.7505C265.512 46.0549 265.374 46.3509 265.175 46.6387C264.981 46.9209 264.729 47.1782 264.419 47.4106C264.11 47.6375 263.742 47.8201 263.315 47.9585C262.895 48.0913 262.422 48.1577 261.896 48.1577ZM267.956 48V39.0518H269.4V40.3799H269.533C269.704 39.9095 269.995 39.5443 270.404 39.2842C270.814 39.0241 271.32 38.894 271.923 38.894C272.062 38.894 272.197 38.9023 272.33 38.9189C272.468 38.93 272.574 38.9411 272.646 38.9521V40.355C272.496 40.3273 272.349 40.3079 272.206 40.2969C272.067 40.2803 271.918 40.272 271.757 40.272C271.298 40.272 270.891 40.3633 270.537 40.5459C270.183 40.7285 269.903 40.9831 269.699 41.3096C269.5 41.6361 269.4 42.0179 269.4 42.4551V48H267.956ZM279.211 50.9883V39.0518H280.656V40.4795H280.789C280.971 40.1475 281.201 39.8652 281.478 39.6328C281.754 39.3949 282.07 39.2122 282.424 39.085C282.778 38.9577 283.163 38.894 283.578 38.894C284.336 38.894 284.994 39.0877 285.553 39.4751C286.118 39.8569 286.555 40.3937 286.865 41.0854C287.175 41.7772 287.33 42.5879 287.33 43.5176V43.5342C287.33 44.4694 287.175 45.2829 286.865 45.9746C286.555 46.6663 286.118 47.2031 285.553 47.585C284.994 47.9668 284.336 48.1577 283.578 48.1577C283.168 48.1577 282.781 48.0941 282.416 47.9668C282.056 47.834 281.735 47.6514 281.453 47.4189C281.176 47.1865 280.955 46.9098 280.789 46.5889H280.656V50.9883H279.211ZM283.246 46.8794C283.793 46.8794 284.261 46.7466 284.648 46.481C285.036 46.2098 285.332 45.8252 285.537 45.3271C285.747 44.8236 285.852 44.2259 285.852 43.5342V43.5176C285.852 42.8203 285.747 42.2227 285.537 41.7246C285.332 41.2266 285.036 40.8447 284.648 40.5791C284.261 40.3079 283.793 40.1724 283.246 40.1724C282.703 40.1724 282.236 40.3079 281.843 40.5791C281.45 40.8503 281.148 41.2349 280.938 41.7329C280.728 42.231 280.623 42.8258 280.623 43.5176V43.5342C280.623 44.2204 280.728 44.8153 280.938 45.3188C281.148 45.8169 281.45 46.2015 281.843 46.4727C282.236 46.7438 282.703 46.8794 283.246 46.8794ZM292.044 48.1577C291.48 48.1577 290.971 48.0498 290.517 47.834C290.069 47.6182 289.712 47.311 289.446 46.9126C289.186 46.5142 289.056 46.0438 289.056 45.5015V45.4849C289.056 44.9536 289.183 44.4998 289.438 44.1235C289.693 43.7417 290.063 43.4429 290.55 43.2271C291.037 43.0112 291.627 42.884 292.318 42.8452L295.605 42.646V43.7998L292.493 43.999C291.812 44.0378 291.314 44.1789 290.999 44.4224C290.689 44.6659 290.534 45.009 290.534 45.4517V45.4683C290.534 45.922 290.705 46.2762 291.048 46.5308C291.391 46.7798 291.823 46.9043 292.343 46.9043C292.836 46.9043 293.273 46.8075 293.655 46.6138C294.037 46.4146 294.335 46.1462 294.551 45.8086C294.773 45.471 294.883 45.0892 294.883 44.6631V41.874C294.883 41.3206 294.715 40.9001 294.377 40.6123C294.045 40.319 293.544 40.1724 292.875 40.1724C292.338 40.1724 291.898 40.2692 291.555 40.4629C291.212 40.651 290.982 40.9194 290.866 41.2681L290.857 41.293H289.413L289.421 41.2432C289.499 40.7728 289.693 40.3633 290.002 40.0146C290.318 39.6605 290.725 39.3866 291.223 39.1929C291.721 38.9937 292.288 38.894 292.924 38.894C293.655 38.894 294.272 39.013 294.775 39.251C295.285 39.4889 295.669 39.832 295.929 40.2803C296.195 40.723 296.328 41.2542 296.328 41.874V48H294.883V46.6802H294.75C294.562 46.9956 294.333 47.264 294.062 47.4854C293.796 47.7067 293.494 47.8755 293.157 47.9917C292.819 48.1024 292.448 48.1577 292.044 48.1577ZM302.653 51.1543C301.933 51.1543 301.305 51.0519 300.769 50.8472C300.232 50.6479 299.803 50.363 299.482 49.9922C299.167 49.627 298.97 49.2008 298.893 48.7139L298.909 48.7056H300.403L300.412 48.7139C300.489 49.0514 300.722 49.3281 301.109 49.5439C301.496 49.7653 302.011 49.876 302.653 49.876C303.455 49.876 304.081 49.6934 304.529 49.3281C304.983 48.9684 305.209 48.4593 305.209 47.8008V45.9912H305.077C304.889 46.3177 304.653 46.5972 304.371 46.8296C304.089 47.062 303.771 47.2391 303.417 47.3608C303.062 47.4771 302.681 47.5352 302.271 47.5352C301.502 47.5352 300.835 47.3525 300.271 46.9873C299.712 46.6165 299.28 46.1074 298.976 45.46C298.671 44.8125 298.519 44.071 298.519 43.2354V43.2188C298.519 42.3831 298.671 41.6416 298.976 40.9941C299.285 40.3411 299.723 39.8293 300.287 39.4585C300.852 39.0822 301.524 38.894 302.304 38.894C302.725 38.894 303.112 38.9604 303.466 39.0933C303.82 39.2261 304.133 39.4142 304.404 39.6577C304.681 39.9012 304.911 40.1917 305.093 40.5293H305.193V39.0518H306.637V47.8755C306.637 48.5396 306.474 49.1178 306.147 49.6104C305.826 50.1029 305.367 50.4819 304.77 50.7476C304.172 51.0187 303.466 51.1543 302.653 51.1543ZM302.586 46.2568C303.14 46.2568 303.613 46.1296 304.006 45.875C304.404 45.6149 304.709 45.258 304.919 44.8042C305.135 44.3504 305.243 43.8275 305.243 43.2354V43.2188C305.243 42.6266 305.135 42.1009 304.919 41.6416C304.709 41.1823 304.404 40.8226 304.006 40.5625C303.613 40.3024 303.14 40.1724 302.586 40.1724C302.033 40.1724 301.563 40.3024 301.175 40.5625C300.793 40.8226 300.5 41.1823 300.295 41.6416C300.096 42.1009 299.997 42.6266 299.997 43.2188V43.2354C299.997 43.8275 300.096 44.3504 300.295 44.8042C300.5 45.258 300.793 45.6149 301.175 45.875C301.563 46.1296 302.033 46.2568 302.586 46.2568ZM312.979 48.1577C312.127 48.1577 311.394 47.9696 310.779 47.5933C310.171 47.217 309.7 46.6857 309.368 45.9995C309.042 45.3078 308.878 44.4943 308.878 43.5591V43.5508C308.878 42.6266 309.042 41.8159 309.368 41.1187C309.7 40.4214 310.168 39.8763 310.771 39.4834C311.374 39.0905 312.08 38.894 312.888 38.894C313.701 38.894 314.398 39.0822 314.979 39.4585C315.566 39.8348 316.014 40.3605 316.324 41.0356C316.64 41.7052 316.797 42.4855 316.797 43.3765V43.9409H309.625V42.7871H316.059L315.345 43.8413V43.2686C315.345 42.5658 315.24 41.9875 315.029 41.5337C314.819 41.0799 314.528 40.7424 314.158 40.521C313.787 40.2941 313.361 40.1807 312.879 40.1807C312.398 40.1807 311.966 40.2996 311.584 40.5376C311.208 40.77 310.909 41.1159 310.688 41.5752C310.467 42.0345 310.356 42.599 310.356 43.2686V43.8413C310.356 44.4777 310.464 45.0228 310.68 45.4766C310.896 45.9248 311.203 46.2707 311.601 46.5142C312 46.7521 312.47 46.8711 313.012 46.8711C313.416 46.8711 313.768 46.8158 314.066 46.7051C314.365 46.5944 314.611 46.4533 314.805 46.2817C314.999 46.1102 315.134 45.9359 315.212 45.7588L315.245 45.6841H316.689L316.673 45.7505C316.595 46.0549 316.457 46.3509 316.258 46.6387C316.064 46.9209 315.812 47.1782 315.502 47.4106C315.193 47.6375 314.825 47.8201 314.398 47.9585C313.978 48.0913 313.505 48.1577 312.979 48.1577ZM320.217 48.083C319.924 48.083 319.669 47.9779 319.454 47.7676C319.243 47.5518 319.138 47.2972 319.138 47.0039C319.138 46.7051 319.243 46.4505 319.454 46.2402C319.669 46.0299 319.924 45.9248 320.217 45.9248C320.516 45.9248 320.771 46.0299 320.981 46.2402C321.191 46.4505 321.296 46.7051 321.296 47.0039C321.296 47.2972 321.191 47.5518 320.981 47.7676C320.771 47.9779 320.516 48.083 320.217 48.083Z" fill="#3D423E"/>
</g>
<defs>
<filter id="filter0_b_1750_33843" x="268.742" y="-22" width="66.5166" height="62.75" filterUnits="userSpaceOnUse" color-interpolation-filters="sRGB">
<feFlood flood-opacity="0" result="BackgroundImageFix"/>
<feGaussianBlur in="BackgroundImageFix" stdDeviation="11"/>
<feComposite in2="SourceAlpha" operator="in" result="effect1_backgroundBlur_1750_33843"/>
<feBlend mode="normal" in="SourceGraphic" in2="effect1_backgroundBlur_1750_33843" result="shape"/>
</filter>
<filter id="filter1_b_1750_33843" x="-22" y="-6" width="383" height="96" filterUnits="userSpaceOnUse" color-interpolation-filters="sRGB">
<feFlood flood-opacity="0" result="BackgroundImageFix"/>
<feGaussianBlur in="BackgroundImageFix" stdDeviation="11"/>
<feComposite in2="SourceAlpha" operator="in" result="effect1_backgroundBlur_1750_33843"/>
<feBlend mode="normal" in="SourceGraphic" in2="effect1_backgroundBlur_1750_33843" result="shape"/>
</filter>
</defs>
</svg>
