<svg width="231" height="79" viewBox="0 0 231 79" fill="none" xmlns="http://www.w3.org/2000/svg">
<g filter="url(#filter0_b_3841_33479)">
<path d="M54 79L61.7942 60.25H46.2058L54 79Z" fill="#3D423E" fill-opacity="0.8"/>
</g>
<g filter="url(#filter1_b_3841_33479)">
<rect width="231" height="62" rx="12" fill="#3D423E" fill-opacity="0.8"/>
<path d="M19.4536 27.2822C18.5793 27.2822 17.8156 27.1411 17.1626 26.8589C16.5151 26.5711 16.0005 26.1782 15.6187 25.6802C15.2424 25.1766 15.0238 24.6011 14.9629 23.9536L14.9546 23.8623H16.4487L16.457 23.9536C16.4958 24.3521 16.6479 24.6979 16.9136 24.9912C17.1847 25.279 17.5444 25.5031 17.9927 25.6636C18.4465 25.8241 18.9611 25.9043 19.5366 25.9043C20.0789 25.9043 20.5604 25.8185 20.981 25.647C21.4071 25.4699 21.7419 25.2264 21.9854 24.9165C22.2288 24.6066 22.3506 24.2497 22.3506 23.8457V23.8374C22.3506 23.3394 22.168 22.9215 21.8027 22.584C21.4375 22.2409 20.8426 21.978 20.0181 21.7954L18.6899 21.5049C17.4891 21.2393 16.6147 20.8298 16.0669 20.2764C15.5246 19.7174 15.2534 19.0036 15.2534 18.1348V18.1265C15.259 17.4624 15.4388 16.8758 15.793 16.3667C16.1527 15.8576 16.6479 15.4591 17.2788 15.1714C17.9152 14.8836 18.6457 14.7397 19.4702 14.7397C20.2671 14.7397 20.9727 14.8836 21.5869 15.1714C22.2012 15.4536 22.6882 15.8354 23.0479 16.3169C23.4131 16.7983 23.6151 17.3379 23.6538 17.9355L23.6621 18.0518H22.168L22.1514 17.9438C22.096 17.5897 21.9521 17.277 21.7197 17.0059C21.4873 16.7292 21.1774 16.5106 20.79 16.3501C20.4027 16.1896 19.9489 16.1121 19.4287 16.1177C18.9307 16.1177 18.4824 16.1951 18.084 16.3501C17.6855 16.505 17.3674 16.7292 17.1294 17.0225C16.897 17.3102 16.7808 17.6644 16.7808 18.085V18.0933C16.7808 18.5692 16.9578 18.9704 17.312 19.2969C17.6662 19.6234 18.25 19.8752 19.0635 20.0522L20.3916 20.3511C21.2272 20.5337 21.8996 20.7716 22.4087 21.0649C22.9178 21.3582 23.2886 21.7179 23.521 22.144C23.759 22.5646 23.8779 23.0627 23.8779 23.6382V23.6465C23.8779 24.3936 23.6953 25.0382 23.3301 25.5806C22.9648 26.1229 22.4502 26.5435 21.7861 26.8423C21.1221 27.1356 20.3446 27.2822 19.4536 27.2822ZM29.8379 27.1577C28.9857 27.1577 28.2524 26.9696 27.6382 26.5933C27.0295 26.217 26.5591 25.6857 26.2271 24.9995C25.9006 24.3078 25.7373 23.4943 25.7373 22.5591V22.5508C25.7373 21.6266 25.9006 20.8159 26.2271 20.1187C26.5591 19.4214 27.0267 18.8763 27.6299 18.4834C28.2331 18.0905 28.9386 17.894 29.7466 17.894C30.5601 17.894 31.2573 18.0822 31.8384 18.4585C32.425 18.8348 32.8732 19.3605 33.1831 20.0356C33.4985 20.7052 33.6562 21.4855 33.6562 22.3765V22.9409H26.4844V21.7871H32.9175L32.2036 22.8413V22.2686C32.2036 21.5658 32.0985 20.9875 31.8882 20.5337C31.6779 20.0799 31.3874 19.7424 31.0166 19.521C30.6458 19.2941 30.2197 19.1807 29.7383 19.1807C29.2568 19.1807 28.8252 19.2996 28.4434 19.5376C28.0671 19.77 27.7682 20.1159 27.5469 20.5752C27.3255 21.0345 27.2148 21.599 27.2148 22.2686V22.8413C27.2148 23.4777 27.3228 24.0228 27.5386 24.4766C27.7544 24.9248 28.0615 25.2707 28.46 25.5142C28.8584 25.7521 29.3288 25.8711 29.8711 25.8711C30.2751 25.8711 30.6265 25.8158 30.9253 25.7051C31.2241 25.5944 31.4704 25.4533 31.6641 25.2817C31.8577 25.1102 31.9933 24.9359 32.0708 24.7588L32.104 24.6841H33.5483L33.5317 24.7505C33.4543 25.0549 33.3159 25.3509 33.1167 25.6387C32.923 25.9209 32.6712 26.1782 32.3613 26.4106C32.0514 26.6375 31.6834 26.8201 31.2573 26.9585C30.8368 27.0913 30.3636 27.1577 29.8379 27.1577ZM39.0767 27.0664C38.158 27.0664 37.4912 26.881 37.0762 26.5103C36.6667 26.1395 36.4619 25.528 36.4619 24.6758V19.2471H35.0508V18.0518H36.4619V15.7358H37.9561V18.0518H39.915V19.2471H37.9561V24.3105C37.9561 24.8363 38.0557 25.2153 38.2549 25.4478C38.4541 25.6746 38.7861 25.7881 39.251 25.7881C39.3783 25.7881 39.4862 25.7853 39.5747 25.7798C39.6688 25.7743 39.7822 25.766 39.915 25.7549V26.9834C39.7767 27.0055 39.6383 27.0249 39.5 27.0415C39.3617 27.0581 39.2205 27.0664 39.0767 27.0664ZM47.6182 30.1377C47.5241 30.1377 47.4189 30.1322 47.3027 30.1211C47.1865 30.1156 47.0786 30.1045 46.979 30.0879V28.9009C47.0675 28.9175 47.1644 28.9285 47.2695 28.9341C47.3747 28.9396 47.4771 28.9424 47.5767 28.9424C47.9862 28.9424 48.321 28.8372 48.5811 28.627C48.8467 28.4167 49.0597 28.0542 49.2202 27.5396L49.3862 27.0083L46.0742 18.0518H47.6182L50.374 26.3193L49.8013 25.4146H50.4819L49.9092 26.3193L52.6567 18.0518H54.1758L50.6812 27.5479C50.4377 28.2174 50.1803 28.7404 49.9092 29.1167C49.638 29.493 49.3198 29.7559 48.9546 29.9053C48.5949 30.0602 48.1494 30.1377 47.6182 30.1377ZM59.4302 27.1577C58.5835 27.1577 57.8503 26.9723 57.2305 26.6016C56.6162 26.2253 56.1403 25.6912 55.8027 24.9995C55.4707 24.3078 55.3047 23.486 55.3047 22.5342V22.5176C55.3047 21.5602 55.4707 20.7357 55.8027 20.0439C56.1403 19.3522 56.6162 18.821 57.2305 18.4502C57.8503 18.0794 58.5835 17.894 59.4302 17.894C60.2824 17.894 61.0156 18.0794 61.6299 18.4502C62.2441 18.821 62.7173 19.3522 63.0493 20.0439C63.3869 20.7357 63.5557 21.5602 63.5557 22.5176V22.5342C63.5557 23.486 63.3869 24.3078 63.0493 24.9995C62.7173 25.6912 62.2441 26.2253 61.6299 26.6016C61.0156 26.9723 60.2824 27.1577 59.4302 27.1577ZM59.4302 25.8794C59.9946 25.8794 60.4733 25.7466 60.8662 25.481C61.2591 25.2153 61.5579 24.8335 61.7627 24.3354C61.973 23.8374 62.0781 23.237 62.0781 22.5342V22.5176C62.0781 21.8092 61.973 21.2061 61.7627 20.708C61.5579 20.21 61.2591 19.8309 60.8662 19.5708C60.4733 19.3052 59.9946 19.1724 59.4302 19.1724C58.8657 19.1724 58.387 19.3052 57.9941 19.5708C57.6012 19.8309 57.2996 20.21 57.0894 20.708C56.8846 21.2061 56.7822 21.8092 56.7822 22.5176V22.5342C56.7822 23.237 56.8846 23.8374 57.0894 24.3354C57.2996 24.8335 57.6012 25.2153 57.9941 25.481C58.387 25.7466 58.8657 25.8794 59.4302 25.8794ZM68.7935 27.1577C68.1183 27.1577 67.5511 27.0304 67.0918 26.7759C66.6325 26.5158 66.2866 26.1395 66.0542 25.647C65.8273 25.1489 65.7139 24.5485 65.7139 23.8457V18.0518H67.1582V23.4971C67.1582 24.2995 67.3132 24.8971 67.623 25.29C67.9385 25.6829 68.4531 25.8794 69.167 25.8794C69.5599 25.8794 69.9058 25.8213 70.2046 25.7051C70.509 25.5889 70.7635 25.4229 70.9683 25.207C71.173 24.9857 71.3252 24.7201 71.4248 24.4102C71.5299 24.0947 71.5825 23.7406 71.5825 23.3477V18.0518H73.0269V27H71.5825V25.6636H71.4497C71.3058 25.979 71.1094 26.2502 70.8604 26.4771C70.6113 26.6984 70.3125 26.8672 69.9639 26.9834C69.6208 27.0996 69.2306 27.1577 68.7935 27.1577ZM75.7246 27V18.0518H77.1689V19.3799H77.3018C77.4733 18.9095 77.7638 18.5443 78.1733 18.2842C78.5828 18.0241 79.0892 17.894 79.6924 17.894C79.8307 17.894 79.9663 17.9023 80.0991 17.9189C80.2375 17.93 80.3426 17.9411 80.4146 17.9521V19.355C80.2651 19.3273 80.1185 19.3079 79.9746 19.2969C79.8363 19.2803 79.6868 19.272 79.5264 19.272C79.0671 19.272 78.6603 19.3633 78.3062 19.5459C77.952 19.7285 77.6725 19.9831 77.4678 20.3096C77.2686 20.6361 77.1689 21.0179 77.1689 21.4551V27H75.7246ZM87.9102 22.7251V21.397H91.2969C92.1546 21.397 92.8187 21.1756 93.2891 20.7329C93.7594 20.2847 93.9946 19.6676 93.9946 18.8818V18.8652C93.9946 18.0739 93.7594 17.4569 93.2891 17.0142C92.8187 16.5715 92.1546 16.3501 91.2969 16.3501H87.9102V15.022H91.6787C92.4313 15.022 93.0954 15.1825 93.6709 15.5034C94.2464 15.8244 94.6974 16.2726 95.0239 16.8481C95.356 17.4237 95.522 18.0905 95.522 18.8486V18.8652C95.522 19.6234 95.356 20.293 95.0239 20.874C94.6974 21.4551 94.2464 21.9089 93.6709 22.2354C93.0954 22.5618 92.4313 22.7251 91.6787 22.7251H87.9102ZM87.1631 27V15.022H88.6572V27H87.1631ZM101.216 27.1577C100.37 27.1577 99.6364 26.9723 99.0166 26.6016C98.4023 26.2253 97.9264 25.6912 97.5889 24.9995C97.2568 24.3078 97.0908 23.486 97.0908 22.5342V22.5176C97.0908 21.5602 97.2568 20.7357 97.5889 20.0439C97.9264 19.3522 98.4023 18.821 99.0166 18.4502C99.6364 18.0794 100.37 17.894 101.216 17.894C102.069 17.894 102.802 18.0794 103.416 18.4502C104.03 18.821 104.503 19.3522 104.835 20.0439C105.173 20.7357 105.342 21.5602 105.342 22.5176V22.5342C105.342 23.486 105.173 24.3078 104.835 24.9995C104.503 25.6912 104.03 26.2253 103.416 26.6016C102.802 26.9723 102.069 27.1577 101.216 27.1577ZM101.216 25.8794C101.781 25.8794 102.259 25.7466 102.652 25.481C103.045 25.2153 103.344 24.8335 103.549 24.3354C103.759 23.8374 103.864 23.237 103.864 22.5342V22.5176C103.864 21.8092 103.759 21.2061 103.549 20.708C103.344 20.21 103.045 19.8309 102.652 19.5708C102.259 19.3052 101.781 19.1724 101.216 19.1724C100.652 19.1724 100.173 19.3052 99.7803 19.5708C99.3874 19.8309 99.0858 20.21 98.8755 20.708C98.6707 21.2061 98.5684 21.8092 98.5684 22.5176V22.5342C98.5684 23.237 98.6707 23.8374 98.8755 24.3354C99.0858 24.8335 99.3874 25.2153 99.7803 25.481C100.173 25.7466 100.652 25.8794 101.216 25.8794ZM107.583 27V18.0518H109.027V19.4131H109.16C109.359 18.9316 109.664 18.5581 110.073 18.2925C110.488 18.0269 110.989 17.894 111.576 17.894C111.98 17.894 112.342 17.9604 112.663 18.0933C112.984 18.2261 113.261 18.4115 113.493 18.6494C113.726 18.8818 113.911 19.153 114.049 19.4629H114.182C114.343 19.1475 114.558 18.8735 114.83 18.6411C115.101 18.4032 115.413 18.2205 115.768 18.0933C116.127 17.9604 116.512 17.894 116.921 17.894C117.53 17.894 118.045 18.0075 118.465 18.2344C118.891 18.4613 119.215 18.7933 119.437 19.2305C119.658 19.6621 119.769 20.1906 119.769 20.8159V27H118.324V21.1479C118.324 20.7052 118.255 20.34 118.117 20.0522C117.984 19.759 117.779 19.5404 117.502 19.3965C117.226 19.2471 116.877 19.1724 116.457 19.1724C116.042 19.1724 115.679 19.2664 115.369 19.4546C115.059 19.6427 114.819 19.8945 114.647 20.21C114.475 20.5199 114.39 20.8657 114.39 21.2476V27H112.945V20.9238C112.945 20.5697 112.868 20.2625 112.713 20.0024C112.563 19.7368 112.348 19.5321 112.065 19.3882C111.789 19.2443 111.462 19.1724 111.086 19.1724C110.699 19.1724 110.347 19.2747 110.032 19.4795C109.722 19.6842 109.476 19.9609 109.293 20.3096C109.116 20.6527 109.027 21.0345 109.027 21.4551V27H107.583ZM126.052 27.1577C125.206 27.1577 124.472 26.9723 123.853 26.6016C123.238 26.2253 122.762 25.6912 122.425 24.9995C122.093 24.3078 121.927 23.486 121.927 22.5342V22.5176C121.927 21.5602 122.093 20.7357 122.425 20.0439C122.762 19.3522 123.238 18.821 123.853 18.4502C124.472 18.0794 125.206 17.894 126.052 17.894C126.904 17.894 127.638 18.0794 128.252 18.4502C128.866 18.821 129.339 19.3522 129.671 20.0439C130.009 20.7357 130.178 21.5602 130.178 22.5176V22.5342C130.178 23.486 130.009 24.3078 129.671 24.9995C129.339 25.6912 128.866 26.2253 128.252 26.6016C127.638 26.9723 126.904 27.1577 126.052 27.1577ZM126.052 25.8794C126.617 25.8794 127.095 25.7466 127.488 25.481C127.881 25.2153 128.18 24.8335 128.385 24.3354C128.595 23.8374 128.7 23.237 128.7 22.5342V22.5176C128.7 21.8092 128.595 21.2061 128.385 20.708C128.18 20.21 127.881 19.8309 127.488 19.5708C127.095 19.3052 126.617 19.1724 126.052 19.1724C125.488 19.1724 125.009 19.3052 124.616 19.5708C124.223 19.8309 123.922 20.21 123.711 20.708C123.507 21.2061 123.404 21.8092 123.404 22.5176V22.5342C123.404 23.237 123.507 23.8374 123.711 24.3354C123.922 24.8335 124.223 25.2153 124.616 25.481C125.009 25.7466 125.488 25.8794 126.052 25.8794ZM135.723 27.1577C134.97 27.1577 134.312 26.9668 133.747 26.585C133.183 26.2031 132.745 25.6663 132.436 24.9746C132.126 24.2773 131.971 23.4639 131.971 22.5342V22.5176C131.971 21.5824 132.126 20.7689 132.436 20.0771C132.745 19.3854 133.18 18.8486 133.739 18.4668C134.303 18.085 134.965 17.894 135.723 17.894C136.132 17.894 136.517 17.9604 136.876 18.0933C137.242 18.2205 137.565 18.4004 137.848 18.6328C138.13 18.8652 138.351 19.1419 138.512 19.4629H138.645V14.499H140.089V27H138.645V25.5723H138.512C138.329 25.9043 138.099 26.1893 137.823 26.4272C137.546 26.6597 137.231 26.8395 136.876 26.9668C136.522 27.0941 136.138 27.1577 135.723 27.1577ZM136.055 25.8794C136.597 25.8794 137.065 25.7438 137.458 25.4727C137.85 25.2015 138.152 24.8169 138.362 24.3188C138.573 23.8153 138.678 23.2204 138.678 22.5342V22.5176C138.678 21.8258 138.573 21.231 138.362 20.7329C138.152 20.2349 137.85 19.8503 137.458 19.5791C137.065 19.3079 136.597 19.1724 136.055 19.1724C135.512 19.1724 135.045 19.3079 134.652 19.5791C134.264 19.8447 133.966 20.2266 133.755 20.7246C133.551 21.2227 133.448 21.8203 133.448 22.5176V22.5342C133.448 23.2259 133.551 23.8236 133.755 24.3271C133.966 24.8252 134.264 25.2098 134.652 25.481C135.045 25.7466 135.512 25.8794 136.055 25.8794ZM146.539 27.1577C145.692 27.1577 144.959 26.9723 144.339 26.6016C143.725 26.2253 143.249 25.6912 142.911 24.9995C142.579 24.3078 142.413 23.486 142.413 22.5342V22.5176C142.413 21.5602 142.579 20.7357 142.911 20.0439C143.249 19.3522 143.725 18.821 144.339 18.4502C144.959 18.0794 145.692 17.894 146.539 17.894C147.391 17.894 148.124 18.0794 148.738 18.4502C149.353 18.821 149.826 19.3522 150.158 20.0439C150.495 20.7357 150.664 21.5602 150.664 22.5176V22.5342C150.664 23.486 150.495 24.3078 150.158 24.9995C149.826 25.6912 149.353 26.2253 148.738 26.6016C148.124 26.9723 147.391 27.1577 146.539 27.1577ZM146.539 25.8794C147.103 25.8794 147.582 25.7466 147.975 25.481C148.368 25.2153 148.666 24.8335 148.871 24.3354C149.081 23.8374 149.187 23.237 149.187 22.5342V22.5176C149.187 21.8092 149.081 21.2061 148.871 20.708C148.666 20.21 148.368 19.8309 147.975 19.5708C147.582 19.3052 147.103 19.1724 146.539 19.1724C145.974 19.1724 145.495 19.3052 145.103 19.5708C144.71 19.8309 144.408 20.21 144.198 20.708C143.993 21.2061 143.891 21.8092 143.891 22.5176V22.5342C143.891 23.237 143.993 23.8374 144.198 24.3354C144.408 24.8335 144.71 25.2153 145.103 25.481C145.495 25.7466 145.974 25.8794 146.539 25.8794ZM152.905 27V18.0518H154.35V19.3799H154.482C154.654 18.9095 154.944 18.5443 155.354 18.2842C155.764 18.0241 156.27 17.894 156.873 17.894C157.011 17.894 157.147 17.9023 157.28 17.9189C157.418 17.93 157.523 17.9411 157.595 17.9521V19.355C157.446 19.3273 157.299 19.3079 157.155 19.2969C157.017 19.2803 156.868 19.272 156.707 19.272C156.248 19.272 155.841 19.3633 155.487 19.5459C155.133 19.7285 154.853 19.9831 154.648 20.3096C154.449 20.6361 154.35 21.0179 154.35 21.4551V27H152.905ZM162.808 27.1577C161.961 27.1577 161.228 26.9723 160.608 26.6016C159.994 26.2253 159.518 25.6912 159.181 24.9995C158.849 24.3078 158.683 23.486 158.683 22.5342V22.5176C158.683 21.5602 158.849 20.7357 159.181 20.0439C159.518 19.3522 159.994 18.821 160.608 18.4502C161.228 18.0794 161.961 17.894 162.808 17.894C163.66 17.894 164.394 18.0794 165.008 18.4502C165.622 18.821 166.095 19.3522 166.427 20.0439C166.765 20.7357 166.934 21.5602 166.934 22.5176V22.5342C166.934 23.486 166.765 24.3078 166.427 24.9995C166.095 25.6912 165.622 26.2253 165.008 26.6016C164.394 26.9723 163.66 27.1577 162.808 27.1577ZM162.808 25.8794C163.373 25.8794 163.851 25.7466 164.244 25.481C164.637 25.2153 164.936 24.8335 165.141 24.3354C165.351 23.8374 165.456 23.237 165.456 22.5342V22.5176C165.456 21.8092 165.351 21.2061 165.141 20.708C164.936 20.21 164.637 19.8309 164.244 19.5708C163.851 19.3052 163.373 19.1724 162.808 19.1724C162.244 19.1724 161.765 19.3052 161.372 19.5708C160.979 19.8309 160.678 20.21 160.467 20.708C160.263 21.2061 160.16 21.8092 160.16 22.5176V22.5342C160.16 23.237 160.263 23.8374 160.467 24.3354C160.678 24.8335 160.979 25.2153 161.372 25.481C161.765 25.7466 162.244 25.8794 162.808 25.8794ZM177.135 27.0664C176.217 27.0664 175.55 26.881 175.135 26.5103C174.725 26.1395 174.521 25.528 174.521 24.6758V19.2471H173.109V18.0518H174.521V15.7358H176.015V18.0518H177.974V19.2471H176.015V24.3105C176.015 24.8363 176.114 25.2153 176.313 25.4478C176.513 25.6746 176.845 25.7881 177.31 25.7881C177.437 25.7881 177.545 25.7853 177.633 25.7798C177.727 25.7743 177.841 25.766 177.974 25.7549V26.9834C177.835 27.0055 177.697 27.0249 177.559 27.0415C177.42 27.0581 177.279 27.0664 177.135 27.0664ZM180.165 27V18.0518H181.609V27H180.165ZM180.896 16.3252C180.624 16.3252 180.389 16.2284 180.19 16.0347C179.996 15.8354 179.899 15.6003 179.899 15.3291C179.899 15.0524 179.996 14.8172 180.19 14.6235C180.389 14.4299 180.624 14.333 180.896 14.333C181.172 14.333 181.407 14.4299 181.601 14.6235C181.795 14.8172 181.892 15.0524 181.892 15.3291C181.892 15.6003 181.795 15.8354 181.601 16.0347C181.407 16.2284 181.172 16.3252 180.896 16.3252ZM184.332 27V18.0518H185.776V19.4131H185.909C186.108 18.9316 186.413 18.5581 186.822 18.2925C187.237 18.0269 187.738 17.894 188.325 17.894C188.729 17.894 189.091 17.9604 189.412 18.0933C189.733 18.2261 190.01 18.4115 190.242 18.6494C190.475 18.8818 190.66 19.153 190.798 19.4629H190.931C191.092 19.1475 191.307 18.8735 191.579 18.6411C191.85 18.4032 192.162 18.2205 192.517 18.0933C192.876 17.9604 193.261 17.894 193.67 17.894C194.279 17.894 194.794 18.0075 195.214 18.2344C195.64 18.4613 195.964 18.7933 196.186 19.2305C196.407 19.6621 196.518 20.1906 196.518 20.8159V27H195.073V21.1479C195.073 20.7052 195.004 20.34 194.866 20.0522C194.733 19.759 194.528 19.5404 194.251 19.3965C193.975 19.2471 193.626 19.1724 193.206 19.1724C192.791 19.1724 192.428 19.2664 192.118 19.4546C191.808 19.6427 191.568 19.8945 191.396 20.21C191.224 20.5199 191.139 20.8657 191.139 21.2476V27H189.694V20.9238C189.694 20.5697 189.617 20.2625 189.462 20.0024C189.312 19.7368 189.097 19.5321 188.814 19.3882C188.538 19.2443 188.211 19.1724 187.835 19.1724C187.448 19.1724 187.096 19.2747 186.781 19.4795C186.471 19.6842 186.225 19.9609 186.042 20.3096C185.865 20.6527 185.776 21.0345 185.776 21.4551V27H184.332ZM202.776 27.1577C201.924 27.1577 201.191 26.9696 200.577 26.5933C199.968 26.217 199.498 25.6857 199.166 24.9995C198.839 24.3078 198.676 23.4943 198.676 22.5591V22.5508C198.676 21.6266 198.839 20.8159 199.166 20.1187C199.498 19.4214 199.965 18.8763 200.568 18.4834C201.172 18.0905 201.877 17.894 202.685 17.894C203.499 17.894 204.196 18.0822 204.777 18.4585C205.363 18.8348 205.812 19.3605 206.122 20.0356C206.437 20.7052 206.595 21.4855 206.595 22.3765V22.9409H199.423V21.7871H205.856L205.142 22.8413V22.2686C205.142 21.5658 205.037 20.9875 204.827 20.5337C204.616 20.0799 204.326 19.7424 203.955 19.521C203.584 19.2941 203.158 19.1807 202.677 19.1807C202.195 19.1807 201.764 19.2996 201.382 19.5376C201.006 19.77 200.707 20.1159 200.485 20.5752C200.264 21.0345 200.153 21.599 200.153 22.2686V22.8413C200.153 23.4777 200.261 24.0228 200.477 24.4766C200.693 24.9248 201 25.2707 201.398 25.5142C201.797 25.7521 202.267 25.8711 202.81 25.8711C203.214 25.8711 203.565 25.8158 203.864 25.7051C204.163 25.5944 204.409 25.4533 204.603 25.2817C204.796 25.1102 204.932 24.9359 205.009 24.7588L205.042 24.6841H206.487L206.47 24.7505C206.393 25.0549 206.254 25.3509 206.055 25.6387C205.861 25.9209 205.61 26.1782 205.3 26.4106C204.99 26.6375 204.622 26.8201 204.196 26.9585C203.775 27.0913 203.302 27.1577 202.776 27.1577ZM208.836 27V18.0518H210.28V19.3799H210.413C210.585 18.9095 210.875 18.5443 211.285 18.2842C211.694 18.0241 212.201 17.894 212.804 17.894C212.942 17.894 213.078 17.9023 213.21 17.9189C213.349 17.93 213.454 17.9411 213.526 17.9521V19.355C213.376 19.3273 213.23 19.3079 213.086 19.2969C212.948 19.2803 212.798 19.272 212.638 19.272C212.178 19.272 211.772 19.3633 211.417 19.5459C211.063 19.7285 210.784 19.9831 210.579 20.3096C210.38 20.6361 210.28 21.0179 210.28 21.4551V27H208.836ZM18.3413 47.1577C17.6662 47.1577 17.099 47.0304 16.6396 46.7759C16.1803 46.5158 15.8345 46.1395 15.6021 45.647C15.3752 45.1489 15.2617 44.5485 15.2617 43.8457V38.0518H16.7061V43.4971C16.7061 44.2995 16.861 44.8971 17.1709 45.29C17.4863 45.6829 18.001 45.8794 18.7148 45.8794C19.1077 45.8794 19.4536 45.8213 19.7524 45.7051C20.0568 45.5889 20.3114 45.4229 20.5161 45.207C20.7209 44.9857 20.873 44.7201 20.9727 44.4102C21.0778 44.0947 21.1304 43.7406 21.1304 43.3477V38.0518H22.5747V47H21.1304V45.6636H20.9976C20.8537 45.979 20.6572 46.2502 20.4082 46.4771C20.1592 46.6984 19.8604 46.8672 19.5117 46.9834C19.1686 47.0996 18.7785 47.1577 18.3413 47.1577ZM28.3438 47.1577C27.6797 47.1577 27.0931 47.0581 26.584 46.8589C26.0749 46.6541 25.6654 46.3691 25.3555 46.0039C25.0511 45.6387 24.8713 45.2098 24.8159 44.7173H26.2935C26.4152 45.0881 26.6532 45.3869 27.0073 45.6138C27.3615 45.8407 27.8236 45.9541 28.3936 45.9541C28.7975 45.9541 29.1517 45.896 29.4561 45.7798C29.766 45.658 30.0094 45.4948 30.1865 45.29C30.3636 45.0798 30.4521 44.839 30.4521 44.5679V44.5513C30.4521 44.2469 30.3304 43.9896 30.0869 43.7793C29.8434 43.5635 29.445 43.3892 28.8916 43.2563L27.5054 42.9243C26.9465 42.7915 26.4871 42.62 26.1274 42.4097C25.7677 42.1938 25.5021 41.931 25.3306 41.6211C25.159 41.3057 25.0732 40.9349 25.0732 40.5088V40.5005C25.0732 40.0024 25.2171 39.557 25.5049 39.1641C25.7982 38.7712 26.1966 38.4613 26.7002 38.2344C27.2038 38.0075 27.771 37.894 28.4019 37.894C29.0272 37.894 29.5806 37.9937 30.062 38.1929C30.549 38.3866 30.9391 38.6632 31.2324 39.0229C31.5312 39.3826 31.7139 39.806 31.7803 40.293H30.3608C30.2668 39.9388 30.0509 39.651 29.7134 39.4297C29.3758 39.2083 28.9359 39.0977 28.3936 39.0977C28.0394 39.0977 27.724 39.1558 27.4473 39.272C27.1706 39.3826 26.952 39.5376 26.7915 39.7368C26.631 39.936 26.5508 40.1685 26.5508 40.4341V40.4507C26.5508 40.6499 26.6034 40.827 26.7085 40.9819C26.8136 41.1369 26.9769 41.2725 27.1982 41.3887C27.4196 41.5049 27.7046 41.6073 28.0532 41.6958L29.4312 42.0278C30.2723 42.2326 30.8976 42.5259 31.3071 42.9077C31.7222 43.2896 31.9297 43.8014 31.9297 44.4434V44.46C31.9297 44.9912 31.772 45.4616 31.4565 45.8711C31.1411 46.2751 30.7122 46.5905 30.1699 46.8174C29.6331 47.0443 29.0244 47.1577 28.3438 47.1577ZM34.2041 47V38.0518H35.6484V47H34.2041ZM34.9346 36.3252C34.6634 36.3252 34.4282 36.2284 34.229 36.0347C34.0353 35.8354 33.9385 35.6003 33.9385 35.3291C33.9385 35.0524 34.0353 34.8172 34.229 34.6235C34.4282 34.4299 34.6634 34.333 34.9346 34.333C35.2113 34.333 35.4465 34.4299 35.6401 34.6235C35.8338 34.8172 35.9307 35.0524 35.9307 35.3291C35.9307 35.6003 35.8338 35.8354 35.6401 36.0347C35.4465 36.2284 35.2113 36.3252 34.9346 36.3252ZM38.3711 47V38.0518H39.8154V39.3965H39.9482C40.1751 38.9206 40.5016 38.5526 40.9277 38.2925C41.3538 38.0269 41.8962 37.894 42.5547 37.894C43.5618 37.894 44.3338 38.1818 44.8706 38.7573C45.4129 39.3273 45.6841 40.1436 45.6841 41.2061V47H44.2397V41.5547C44.2397 40.7467 44.0682 40.1491 43.7251 39.7617C43.3875 39.3688 42.8618 39.1724 42.1479 39.1724C41.672 39.1724 41.2598 39.2747 40.9111 39.4795C40.5625 39.6842 40.2913 39.9748 40.0977 40.3511C39.9095 40.7274 39.8154 41.1784 39.8154 41.7041V47H38.3711ZM51.9844 50.1543C51.265 50.1543 50.6369 50.0519 50.1001 49.8472C49.5633 49.6479 49.1344 49.363 48.8135 48.9922C48.498 48.627 48.3016 48.2008 48.2241 47.7139L48.2407 47.7056H49.7349L49.7432 47.7139C49.8206 48.0514 50.0531 48.3281 50.4404 48.5439C50.8278 48.7653 51.3424 48.876 51.9844 48.876C52.7868 48.876 53.4121 48.6934 53.8604 48.3281C54.3141 47.9684 54.541 47.4593 54.541 46.8008V44.9912H54.4082C54.2201 45.3177 53.9849 45.5972 53.7026 45.8296C53.4204 46.062 53.1022 46.2391 52.748 46.3608C52.3939 46.4771 52.012 46.5352 51.6025 46.5352C50.8333 46.5352 50.1665 46.3525 49.6021 45.9873C49.0431 45.6165 48.6115 45.1074 48.3071 44.46C48.0028 43.8125 47.8506 43.071 47.8506 42.2354V42.2188C47.8506 41.3831 48.0028 40.6416 48.3071 39.9941C48.617 39.3411 49.0542 38.8293 49.6187 38.4585C50.1831 38.0822 50.8555 37.894 51.6357 37.894C52.0563 37.894 52.4437 37.9604 52.7979 38.0933C53.152 38.2261 53.4647 38.4142 53.7358 38.6577C54.0125 38.9012 54.2422 39.1917 54.4248 39.5293H54.5244V38.0518H55.9688V46.8755C55.9688 47.5396 55.8055 48.1178 55.479 48.6104C55.158 49.1029 54.6987 49.4819 54.1011 49.7476C53.5034 50.0187 52.7979 50.1543 51.9844 50.1543ZM51.918 45.2568C52.4714 45.2568 52.9445 45.1296 53.3374 44.875C53.7358 44.6149 54.0402 44.258 54.2505 43.8042C54.4663 43.3504 54.5742 42.8275 54.5742 42.2354V42.2188C54.5742 41.6266 54.4663 41.1009 54.2505 40.6416C54.0402 40.1823 53.7358 39.8226 53.3374 39.5625C52.9445 39.3024 52.4714 39.1724 51.918 39.1724C51.3646 39.1724 50.8942 39.3024 50.5068 39.5625C50.125 39.8226 49.8317 40.1823 49.627 40.6416C49.4277 41.1009 49.3281 41.6266 49.3281 42.2188V42.2354C49.3281 42.8275 49.4277 43.3504 49.627 43.8042C49.8317 44.258 50.125 44.6149 50.5068 44.875C50.8942 45.1296 51.3646 45.2568 51.918 45.2568ZM67.1167 47.1577C66.27 47.1577 65.5368 46.9723 64.917 46.6016C64.3027 46.2253 63.8268 45.6912 63.4893 44.9995C63.1572 44.3078 62.9912 43.486 62.9912 42.5342V42.5176C62.9912 41.5602 63.1572 40.7357 63.4893 40.0439C63.8268 39.3522 64.3027 38.821 64.917 38.4502C65.5368 38.0794 66.27 37.894 67.1167 37.894C67.9689 37.894 68.7021 38.0794 69.3164 38.4502C69.9307 38.821 70.4038 39.3522 70.7358 40.0439C71.0734 40.7357 71.2422 41.5602 71.2422 42.5176V42.5342C71.2422 43.486 71.0734 44.3078 70.7358 44.9995C70.4038 45.6912 69.9307 46.2253 69.3164 46.6016C68.7021 46.9723 67.9689 47.1577 67.1167 47.1577ZM67.1167 45.8794C67.6812 45.8794 68.1598 45.7466 68.5527 45.481C68.9456 45.2153 69.2445 44.8335 69.4492 44.3354C69.6595 43.8374 69.7646 43.237 69.7646 42.5342V42.5176C69.7646 41.8092 69.6595 41.2061 69.4492 40.708C69.2445 40.21 68.9456 39.8309 68.5527 39.5708C68.1598 39.3052 67.6812 39.1724 67.1167 39.1724C66.5522 39.1724 66.0736 39.3052 65.6807 39.5708C65.2878 39.8309 64.9862 40.21 64.7759 40.708C64.5711 41.2061 64.4688 41.8092 64.4688 42.5176V42.5342C64.4688 43.237 64.5711 43.8374 64.7759 44.3354C64.9862 44.8335 65.2878 45.2153 65.6807 45.481C66.0736 45.7466 66.5522 45.8794 67.1167 45.8794ZM76.48 47.1577C75.8049 47.1577 75.2376 47.0304 74.7783 46.7759C74.319 46.5158 73.9731 46.1395 73.7407 45.647C73.5138 45.1489 73.4004 44.5485 73.4004 43.8457V38.0518H74.8447V43.4971C74.8447 44.2995 74.9997 44.8971 75.3096 45.29C75.625 45.6829 76.1396 45.8794 76.8535 45.8794C77.2464 45.8794 77.5923 45.8213 77.8911 45.7051C78.1955 45.5889 78.45 45.4229 78.6548 45.207C78.8595 44.9857 79.0117 44.7201 79.1113 44.4102C79.2165 44.0947 79.269 43.7406 79.269 43.3477V38.0518H80.7134V47H79.269V45.6636H79.1362C78.9924 45.979 78.7959 46.2502 78.5469 46.4771C78.2979 46.6984 77.999 46.8672 77.6504 46.9834C77.3073 47.0996 76.9172 47.1577 76.48 47.1577ZM83.4111 47V38.0518H84.8555V39.3799H84.9883C85.1598 38.9095 85.4504 38.5443 85.8599 38.2842C86.2694 38.0241 86.7757 37.894 87.3789 37.894C87.5173 37.894 87.6528 37.9023 87.7856 37.9189C87.924 37.93 88.0291 37.9411 88.1011 37.9521V39.355C87.9517 39.3273 87.805 39.3079 87.6611 39.2969C87.5228 39.2803 87.3734 39.272 87.2129 39.272C86.7536 39.272 86.3468 39.3633 85.9927 39.5459C85.6385 39.7285 85.359 39.9831 85.1543 40.3096C84.9551 40.6361 84.8555 41.0179 84.8555 41.4551V47H83.4111ZM94.667 49.9883V38.0518H96.1113V39.4795H96.2441C96.4268 39.1475 96.6564 38.8652 96.9331 38.6328C97.2098 38.3949 97.5252 38.2122 97.8794 38.085C98.2336 37.9577 98.6182 37.894 99.0332 37.894C99.7913 37.894 100.45 38.0877 101.009 38.4751C101.573 38.8569 102.01 39.3937 102.32 40.0854C102.63 40.7772 102.785 41.5879 102.785 42.5176V42.5342C102.785 43.4694 102.63 44.2829 102.32 44.9746C102.01 45.6663 101.573 46.2031 101.009 46.585C100.45 46.9668 99.7913 47.1577 99.0332 47.1577C98.6237 47.1577 98.2363 47.0941 97.8711 46.9668C97.5114 46.834 97.1904 46.6514 96.9082 46.4189C96.6315 46.1865 96.4102 45.9098 96.2441 45.5889H96.1113V49.9883H94.667ZM98.7012 45.8794C99.249 45.8794 99.7166 45.7466 100.104 45.481C100.491 45.2098 100.787 44.8252 100.992 44.3271C101.202 43.8236 101.308 43.2259 101.308 42.5342V42.5176C101.308 41.8203 101.202 41.2227 100.992 40.7246C100.787 40.2266 100.491 39.8447 100.104 39.5791C99.7166 39.3079 99.249 39.1724 98.7012 39.1724C98.1589 39.1724 97.6912 39.3079 97.2983 39.5791C96.9054 39.8503 96.6038 40.2349 96.3936 40.7329C96.1833 41.231 96.0781 41.8258 96.0781 42.5176V42.5342C96.0781 43.2204 96.1833 43.8153 96.3936 44.3188C96.6038 44.8169 96.9054 45.2015 97.2983 45.4727C97.6912 45.7438 98.1589 45.8794 98.7012 45.8794ZM105.043 47V38.0518H106.487V39.3799H106.62C106.792 38.9095 107.082 38.5443 107.492 38.2842C107.901 38.0241 108.408 37.894 109.011 37.894C109.149 37.894 109.285 37.9023 109.417 37.9189C109.556 37.93 109.661 37.9411 109.733 37.9521V39.355C109.583 39.3273 109.437 39.3079 109.293 39.2969C109.155 39.2803 109.005 39.272 108.845 39.272C108.385 39.272 107.979 39.3633 107.625 39.5459C107.27 39.7285 106.991 39.9831 106.786 40.3096C106.587 40.6361 106.487 41.0179 106.487 41.4551V47H105.043ZM114.921 47.1577C114.069 47.1577 113.335 46.9696 112.721 46.5933C112.112 46.217 111.642 45.6857 111.31 44.9995C110.984 44.3078 110.82 43.4943 110.82 42.5591V42.5508C110.82 41.6266 110.984 40.8159 111.31 40.1187C111.642 39.4214 112.11 38.8763 112.713 38.4834C113.316 38.0905 114.022 37.894 114.83 37.894C115.643 37.894 116.34 38.0822 116.921 38.4585C117.508 38.8348 117.956 39.3605 118.266 40.0356C118.582 40.7052 118.739 41.4855 118.739 42.3765V42.9409H111.567V41.7871H118L117.287 42.8413V42.2686C117.287 41.5658 117.181 40.9875 116.971 40.5337C116.761 40.0799 116.47 39.7424 116.1 39.521C115.729 39.2941 115.303 39.1807 114.821 39.1807C114.34 39.1807 113.908 39.2996 113.526 39.5376C113.15 39.77 112.851 40.1159 112.63 40.5752C112.409 41.0345 112.298 41.599 112.298 42.2686V42.8413C112.298 43.4777 112.406 44.0228 112.622 44.4766C112.837 44.9248 113.145 45.2707 113.543 45.5142C113.941 45.7521 114.412 45.8711 114.954 45.8711C115.358 45.8711 115.709 45.8158 116.008 45.7051C116.307 45.5944 116.553 45.4533 116.747 45.2817C116.941 45.1102 117.076 44.9359 117.154 44.7588L117.187 44.6841H118.631L118.615 44.7505C118.537 45.0549 118.399 45.3509 118.2 45.6387C118.006 45.9209 117.754 46.1782 117.444 46.4106C117.134 46.6375 116.766 46.8201 116.34 46.9585C115.92 47.0913 115.447 47.1577 114.921 47.1577ZM124.052 47.1577C123.388 47.1577 122.801 47.0581 122.292 46.8589C121.783 46.6541 121.373 46.3691 121.063 46.0039C120.759 45.6387 120.579 45.2098 120.524 44.7173H122.001C122.123 45.0881 122.361 45.3869 122.715 45.6138C123.069 45.8407 123.532 45.9541 124.102 45.9541C124.506 45.9541 124.86 45.896 125.164 45.7798C125.474 45.658 125.717 45.4948 125.895 45.29C126.072 45.0798 126.16 44.839 126.16 44.5679V44.5513C126.16 44.2469 126.038 43.9896 125.795 43.7793C125.551 43.5635 125.153 43.3892 124.6 43.2563L123.213 42.9243C122.654 42.7915 122.195 42.62 121.835 42.4097C121.476 42.1938 121.21 41.931 121.039 41.6211C120.867 41.3057 120.781 40.9349 120.781 40.5088V40.5005C120.781 40.0024 120.925 39.557 121.213 39.1641C121.506 38.7712 121.905 38.4613 122.408 38.2344C122.912 38.0075 123.479 37.894 124.11 37.894C124.735 37.894 125.289 37.9937 125.77 38.1929C126.257 38.3866 126.647 38.6632 126.94 39.0229C127.239 39.3826 127.422 39.806 127.488 40.293H126.069C125.975 39.9388 125.759 39.651 125.421 39.4297C125.084 39.2083 124.644 39.0977 124.102 39.0977C123.747 39.0977 123.432 39.1558 123.155 39.272C122.879 39.3826 122.66 39.5376 122.5 39.7368C122.339 39.936 122.259 40.1685 122.259 40.4341V40.4507C122.259 40.6499 122.311 40.827 122.417 40.9819C122.522 41.1369 122.685 41.2725 122.906 41.3887C123.128 41.5049 123.413 41.6073 123.761 41.6958L125.139 42.0278C125.98 42.2326 126.606 42.5259 127.015 42.9077C127.43 43.2896 127.638 43.8014 127.638 44.4434V44.46C127.638 44.9912 127.48 45.4616 127.165 45.8711C126.849 46.2751 126.42 46.5905 125.878 46.8174C125.341 47.0443 124.732 47.1577 124.052 47.1577ZM133.531 47.1577C132.679 47.1577 131.946 46.9696 131.332 46.5933C130.723 46.217 130.252 45.6857 129.92 44.9995C129.594 44.3078 129.431 43.4943 129.431 42.5591V42.5508C129.431 41.6266 129.594 40.8159 129.92 40.1187C130.252 39.4214 130.72 38.8763 131.323 38.4834C131.926 38.0905 132.632 37.894 133.44 37.894C134.253 37.894 134.951 38.0822 135.532 38.4585C136.118 38.8348 136.567 39.3605 136.876 40.0356C137.192 40.7052 137.35 41.4855 137.35 42.3765V42.9409H130.178V41.7871H136.611L135.897 42.8413V42.2686C135.897 41.5658 135.792 40.9875 135.582 40.5337C135.371 40.0799 135.081 39.7424 134.71 39.521C134.339 39.2941 133.913 39.1807 133.432 39.1807C132.95 39.1807 132.519 39.2996 132.137 39.5376C131.76 39.77 131.462 40.1159 131.24 40.5752C131.019 41.0345 130.908 41.599 130.908 42.2686V42.8413C130.908 43.4777 131.016 44.0228 131.232 44.4766C131.448 44.9248 131.755 45.2707 132.153 45.5142C132.552 45.7521 133.022 45.8711 133.564 45.8711C133.968 45.8711 134.32 45.8158 134.619 45.7051C134.917 45.5944 135.164 45.4533 135.357 45.2817C135.551 45.1102 135.687 44.9359 135.764 44.7588L135.797 44.6841H137.242L137.225 44.7505C137.148 45.0549 137.009 45.3509 136.81 45.6387C136.616 45.9209 136.365 46.1782 136.055 46.4106C135.745 46.6375 135.377 46.8201 134.951 46.9585C134.53 47.0913 134.057 47.1577 133.531 47.1577ZM142.77 47.0664C141.851 47.0664 141.185 46.881 140.77 46.5103C140.36 46.1395 140.155 45.528 140.155 44.6758V39.2471H138.744V38.0518H140.155V35.7358H141.649V38.0518H143.608V39.2471H141.649V44.3105C141.649 44.8363 141.749 45.2153 141.948 45.4478C142.147 45.6746 142.479 45.7881 142.944 45.7881C143.072 45.7881 143.18 45.7853 143.268 45.7798C143.362 45.7743 143.476 45.766 143.608 45.7549V46.9834C143.47 47.0055 143.332 47.0249 143.193 47.0415C143.055 47.0581 142.914 47.0664 142.77 47.0664ZM153.727 47.0664C152.808 47.0664 152.142 46.881 151.727 46.5103C151.317 46.1395 151.112 45.528 151.112 44.6758V39.2471H149.701V38.0518H151.112V35.7358H152.606V38.0518H154.565V39.2471H152.606V44.3105C152.606 44.8363 152.706 45.2153 152.905 45.4478C153.104 45.6746 153.437 45.7881 153.901 45.7881C154.029 45.7881 154.137 45.7853 154.225 45.7798C154.319 45.7743 154.433 45.766 154.565 45.7549V46.9834C154.427 47.0055 154.289 47.0249 154.15 47.0415C154.012 47.0581 153.871 47.0664 153.727 47.0664ZM156.757 47V38.0518H158.201V47H156.757ZM157.487 36.3252C157.216 36.3252 156.981 36.2284 156.782 36.0347C156.588 35.8354 156.491 35.6003 156.491 35.3291C156.491 35.0524 156.588 34.8172 156.782 34.6235C156.981 34.4299 157.216 34.333 157.487 34.333C157.764 34.333 157.999 34.4299 158.193 34.6235C158.387 34.8172 158.483 35.0524 158.483 35.3291C158.483 35.6003 158.387 35.8354 158.193 36.0347C157.999 36.2284 157.764 36.3252 157.487 36.3252ZM160.924 47V38.0518H162.368V39.4131H162.501C162.7 38.9316 163.005 38.5581 163.414 38.2925C163.829 38.0269 164.33 37.894 164.917 37.894C165.32 37.894 165.683 37.9604 166.004 38.0933C166.325 38.2261 166.602 38.4115 166.834 38.6494C167.066 38.8818 167.252 39.153 167.39 39.4629H167.523C167.683 39.1475 167.899 38.8735 168.17 38.6411C168.442 38.4032 168.754 38.2205 169.108 38.0933C169.468 37.9604 169.853 37.894 170.262 37.894C170.871 37.894 171.386 38.0075 171.806 38.2344C172.232 38.4613 172.556 38.7933 172.777 39.2305C172.999 39.6621 173.109 40.1906 173.109 40.8159V47H171.665V41.1479C171.665 40.7052 171.596 40.34 171.458 40.0522C171.325 39.759 171.12 39.5404 170.843 39.3965C170.567 39.2471 170.218 39.1724 169.797 39.1724C169.382 39.1724 169.02 39.2664 168.71 39.4546C168.4 39.6427 168.159 39.8945 167.988 40.21C167.816 40.5199 167.73 40.8657 167.73 41.2476V47H166.286V40.9238C166.286 40.5697 166.209 40.2625 166.054 40.0024C165.904 39.7368 165.688 39.5321 165.406 39.3882C165.13 39.2443 164.803 39.1724 164.427 39.1724C164.039 39.1724 163.688 39.2747 163.373 39.4795C163.063 39.6842 162.816 39.9609 162.634 40.3096C162.457 40.6527 162.368 41.0345 162.368 41.4551V47H160.924ZM179.368 47.1577C178.516 47.1577 177.783 46.9696 177.168 46.5933C176.56 46.217 176.089 45.6857 175.757 44.9995C175.431 44.3078 175.268 43.4943 175.268 42.5591V42.5508C175.268 41.6266 175.431 40.8159 175.757 40.1187C176.089 39.4214 176.557 38.8763 177.16 38.4834C177.763 38.0905 178.469 37.894 179.277 37.894C180.09 37.894 180.788 38.0822 181.369 38.4585C181.955 38.8348 182.403 39.3605 182.713 40.0356C183.029 40.7052 183.187 41.4855 183.187 42.3765V42.9409H176.015V41.7871H182.448L181.734 42.8413V42.2686C181.734 41.5658 181.629 40.9875 181.418 40.5337C181.208 40.0799 180.918 39.7424 180.547 39.521C180.176 39.2941 179.75 39.1807 179.269 39.1807C178.787 39.1807 178.355 39.2996 177.974 39.5376C177.597 39.77 177.299 40.1159 177.077 40.5752C176.856 41.0345 176.745 41.599 176.745 42.2686V42.8413C176.745 43.4777 176.853 44.0228 177.069 44.4766C177.285 44.9248 177.592 45.2707 177.99 45.5142C178.389 45.7521 178.859 45.8711 179.401 45.8711C179.805 45.8711 180.157 45.8158 180.456 45.7051C180.754 45.5944 181.001 45.4533 181.194 45.2817C181.388 45.1102 181.524 44.9359 181.601 44.7588L181.634 44.6841H183.079L183.062 44.7505C182.985 45.0549 182.846 45.3509 182.647 45.6387C182.453 45.9209 182.201 46.1782 181.892 46.4106C181.582 46.6375 181.214 46.8201 180.788 46.9585C180.367 47.0913 179.894 47.1577 179.368 47.1577ZM188.499 47.1577C187.835 47.1577 187.248 47.0581 186.739 46.8589C186.23 46.6541 185.821 46.3691 185.511 46.0039C185.206 45.6387 185.027 45.2098 184.971 44.7173H186.449C186.57 45.0881 186.808 45.3869 187.163 45.6138C187.517 45.8407 187.979 45.9541 188.549 45.9541C188.953 45.9541 189.307 45.896 189.611 45.7798C189.921 45.658 190.165 45.4948 190.342 45.29C190.519 45.0798 190.607 44.839 190.607 44.5679V44.5513C190.607 44.2469 190.486 43.9896 190.242 43.7793C189.999 43.5635 189.6 43.3892 189.047 43.2563L187.661 42.9243C187.102 42.7915 186.642 42.62 186.283 42.4097C185.923 42.1938 185.657 41.931 185.486 41.6211C185.314 41.3057 185.229 40.9349 185.229 40.5088V40.5005C185.229 40.0024 185.372 39.557 185.66 39.1641C185.953 38.7712 186.352 38.4613 186.855 38.2344C187.359 38.0075 187.926 37.894 188.557 37.894C189.182 37.894 189.736 37.9937 190.217 38.1929C190.704 38.3866 191.094 38.6632 191.388 39.0229C191.687 39.3826 191.869 39.806 191.936 40.293H190.516C190.422 39.9388 190.206 39.651 189.869 39.4297C189.531 39.2083 189.091 39.0977 188.549 39.0977C188.195 39.0977 187.879 39.1558 187.603 39.272C187.326 39.3826 187.107 39.5376 186.947 39.7368C186.786 39.936 186.706 40.1685 186.706 40.4341V40.4507C186.706 40.6499 186.759 40.827 186.864 40.9819C186.969 41.1369 187.132 41.2725 187.354 41.3887C187.575 41.5049 187.86 41.6073 188.208 41.6958L189.586 42.0278C190.428 42.2326 191.053 42.5259 191.462 42.9077C191.877 43.2896 192.085 43.8014 192.085 44.4434V44.46C192.085 44.9912 191.927 45.4616 191.612 45.8711C191.296 46.2751 190.868 46.5905 190.325 46.8174C189.788 47.0443 189.18 47.1577 188.499 47.1577ZM195.505 47.083C195.212 47.083 194.957 46.9779 194.741 46.7676C194.531 46.5518 194.426 46.2972 194.426 46.0039C194.426 45.7051 194.531 45.4505 194.741 45.2402C194.957 45.0299 195.212 44.9248 195.505 44.9248C195.804 44.9248 196.058 45.0299 196.269 45.2402C196.479 45.4505 196.584 45.7051 196.584 46.0039C196.584 46.2972 196.479 46.5518 196.269 46.7676C196.058 46.9779 195.804 47.083 195.505 47.083Z" fill="#FDFCFB"/>
</g>
<defs>
<filter id="filter0_b_3841_33479" x="24.2058" y="38.25" width="59.5884" height="62.75" filterUnits="userSpaceOnUse" color-interpolation-filters="sRGB">
<feFlood flood-opacity="0" result="BackgroundImageFix"/>
<feGaussianBlur in="BackgroundImageFix" stdDeviation="11"/>
<feComposite in2="SourceAlpha" operator="in" result="effect1_backgroundBlur_3841_33479"/>
<feBlend mode="normal" in="SourceGraphic" in2="effect1_backgroundBlur_3841_33479" result="shape"/>
</filter>
<filter id="filter1_b_3841_33479" x="-22" y="-22" width="275" height="106" filterUnits="userSpaceOnUse" color-interpolation-filters="sRGB">
<feFlood flood-opacity="0" result="BackgroundImageFix"/>
<feGaussianBlur in="BackgroundImageFix" stdDeviation="11"/>
<feComposite in2="SourceAlpha" operator="in" result="effect1_backgroundBlur_3841_33479"/>
<feBlend mode="normal" in="SourceGraphic" in2="effect1_backgroundBlur_3841_33479" result="shape"/>
</filter>
</defs>
</svg>
