<svg width="459" height="634" viewBox="0 0 459 634" fill="none" xmlns="http://www.w3.org/2000/svg">
<path d="M299.021 27.0272C303.869 23.7277 310.518 20.7065 315.201 24.239C317.75 26.1627 318.777 29.4744 319.466 32.5965C325.542 60.1594 316.211 89.7261 298.677 111.815C287.979 125.292 274.43 136.246 259.665 144.951C252.119 149.4 244.228 153.312 236.132 156.65C223.961 161.666 223.386 156.803 224.184 144.819C226.048 116.804 240.745 90.9802 256.768 68.5064C268.285 52.3464 282.62 38.1901 299.021 27.0272Z" fill="#9BB5A1"/>
<path d="M200.073 171.264C196.342 154.514 188.576 138.15 175.459 127.118C169.735 122.304 163.145 118.618 156.367 115.463C143.352 109.407 128.437 105.19 114.734 109.46C110.748 110.702 106.881 112.723 104.217 115.945C96.6589 125.088 101.634 138.857 107.559 149.138C117.959 167.183 130.64 184.117 146.559 197.52C158.286 207.393 180.221 223.368 196.566 222.426C206.84 221.834 203.956 212.729 203.674 203.959C203.326 192.988 202.465 181.999 200.073 171.264Z" fill="#9BB5A1"/>
<path d="M240.737 199.881C245.31 192.297 250.923 185.133 258.327 180.291C263.785 176.72 270.019 174.535 276.261 172.653C289.224 168.747 302.531 165.999 315.978 164.452C324.398 163.484 333.753 163.242 340.389 168.526C346.481 173.375 348.673 181.922 347.749 189.664C346.828 197.406 343.265 204.556 339.579 211.423C332.224 225.125 323.534 239.045 309.947 246.574C302.677 250.603 294.456 252.526 286.318 254.203C275.806 256.369 232.662 269.554 225.526 258.983C221.335 252.773 226.586 236.102 228.311 229.486C231.02 219.091 235.191 209.078 240.737 199.881Z" fill="#9BB5A1"/>
<path d="M157.302 243.313C137.811 247.284 120.128 259.494 109.481 276.332C98.8333 293.171 95.3693 314.41 100.111 333.77C125.374 332.394 150.301 325.113 172.347 312.672C183.409 306.43 194.075 298.552 200.306 287.466C218.247 255.549 185.629 237.542 157.302 243.313Z" fill="#9BB5A1"/>
<path d="M307.76 591.751C314.034 580.918 320.483 567.985 315.593 556.46C310.869 545.327 297.785 540.848 286.157 537.595C270.27 533.151 252.778 527.857 236.109 530.509C221.729 532.798 210.514 543.476 194.827 543.798C190.474 543.887 186.073 543.316 181.792 544.107C177.51 544.899 173.175 547.464 171.915 551.64C170.761 555.47 172.468 559.612 174.841 562.831C177.213 566.049 180.264 568.748 182.39 572.135C184.417 575.363 185.304 580.103 182.461 582.639C181.033 583.913 178.968 584.275 177.073 584.02C171.748 583.298 168.059 578.501 164.976 574.091C160.875 568.225 156.774 562.358 152.674 556.491C148.612 550.68 143.14 544.186 136.103 544.948C127.653 545.862 125.053 555.51 130.025 561.367C132.271 564.01 136.417 565.68 138.961 568.423C142.875 572.643 146.235 577.579 149.82 582.085C161.872 597.24 174.178 612.635 190.169 623.53C195.653 627.266 201.583 630.459 207.989 632.176C215.781 634.265 223.974 634.108 232.036 633.858C248.079 633.361 265.057 632.359 279.642 624.967C294.484 617.444 299.605 605.831 307.76 591.751Z" fill="#F0E1CE"/>
<path d="M188.999 34.7376C175.832 24.3469 157.901 20.2925 141.556 24.0112C139.255 24.5347 136.841 25.2965 135.348 27.1246C132.25 30.918 134.786 36.5412 137.418 40.6739C145.782 53.797 154.871 66.8506 167.33 76.1542C178.277 84.3273 200.052 94.7528 206.953 76.6151C212.773 61.3126 200.399 43.7333 188.999 34.7376Z" fill="#9BB5A1"/>
<path d="M103.911 612.398C76.9576 615.456 49.6253 615.164 22.7408 611.527C15.7295 610.579 8.08983 609.52 2 613.129C15.3876 620.055 31.007 620.796 46.0676 621.197C89.696 622.358 133.691 621.81 176.458 613.082C182.659 611.816 188.857 610.375 195.176 610.022C218.749 608.702 240.694 622.45 264.227 624.34C282.913 625.841 301.256 619.809 319.647 616.176C358.348 608.532 398.254 611.475 437.589 614.451C444.625 614.983 451.952 615.604 458 619.248C454.588 623.883 447.813 623.921 442.08 623.502C393.216 619.917 344.4 615.68 295.648 610.795C287.252 609.953 277.632 608.349 273.307 601.087C267.218 590.862 276.164 578.356 285.077 570.486C287.446 568.393 290.367 566.211 293.451 566.894C299.772 568.296 287.601 589.232 286.61 593.761C290.473 595.983 295.556 594.848 299.131 592.189C302.708 589.528 305.107 585.614 307.418 581.798C312.925 572.709 318.434 563.617 323.942 554.528C326.719 549.943 329.07 543.034 324.614 540.065C322.771 538.837 320.398 538.895 318.185 538.846C304.013 538.536 290.792 532.156 277.198 528.133C258.332 522.55 238.153 521.479 218.804 525.034C193.287 529.721 168.635 542.333 142.818 539.79C139.538 539.467 135.49 538.093 135.244 534.799C151.558 525.765 171.097 523.867 189.56 526.429C208.022 528.991 225.637 535.738 242.735 543.177C258.915 550.218 272.311 554.288 289.928 553.764C307.261 553.249 324.372 553.293 341.701 551.228C344.921 550.845 348.317 550.35 350.847 548.317C353.378 546.283 354.527 542.165 352.361 539.745C350.471 537.634 346.948 537.802 344.577 539.354C342.206 540.904 340.721 543.466 339.341 545.942C335.02 553.707 330.901 561.586 326.99 569.566C318.805 586.267 309.813 605.067 292.342 611.363C287.429 613.134 282.186 613.739 276.999 614.331C242.575 618.263 207.966 622.201 173.364 620.45C170.492 620.303 167.531 620.096 164.964 618.795C161.453 617.018 159.228 613.503 156.915 610.315C148.448 598.651 136.867 589.688 126.96 579.224C117.054 568.76 108.46 555.733 108.41 541.309C104.758 540.568 99.3297 541.224 99.505 544.953C99.6404 547.852 103.302 548.951 106.183 549.237C131.24 551.729 156.556 551.606 181.589 548.868C188.97 548.061 196.594 546.93 202.831 542.895C218.572 532.71 223.844 508.234 223.659 491.025C223.469 473.703 225.693 456.761 226.559 439.503C227.747 415.831 224.334 392.195 220.93 368.741C219.95 361.978 218.825 354.871 214.599 349.507C207.605 340.626 210 338 204.032 330.129C192.347 318.243 187.231 300.243 190.912 283.97C192.369 277.524 195.094 271.407 196.391 264.926C197.501 259.372 197.543 253.662 197.387 248.001C197.184 240.631 196.422 232.681 191.55 227.157C185.604 220.412 175.459 219.467 166.531 220.452C135.418 223.883 107.912 245.315 92.7922 272.782C77.6708 300.25 73.9621 332.987 77.7663 364.126C97.0424 354.643 118.792 351.923 139.749 347.239C160.707 342.555 182.265 335.114 196.422 318.933C203.73 310.58 208.612 300.366 212.435 289.937C216.767 278.124 219.873 265.281 217.091 253.008C214.308 240.735 204.159 229.413 191.611 228.913C182.691 228.557 174.501 233.441 166.913 238.156C153.487 246.5 139.942 254.937 128.661 266.02C117.381 277.103 108.396 291.21 106.28 306.899C107.275 294.778 117.781 285.911 127.743 278.966C145.787 266.387 164.85 255.276 184.681 245.779C195.549 240.575 206.779 235.815 218.655 233.806C228.11 232.208 236.248 233.35 245.46 234.116C255.815 234.977 266.405 233.874 276.827 234.674M225.732 206.707C233.084 180.753 254.989 160.255 279.203 149.793C308.817 136.999 342.182 136.502 374.372 138.458C367.079 148.042 366.508 160.929 364.776 172.853C362.083 191.396 355.103 210.504 340.127 221.723C324.506 233.427 303.581 234.288 284.08 234.617C269.744 234.858 254.785 234.933 241.923 228.583C245.524 209.885 253.648 191.908 266.313 177.713C278.979 163.518 296.296 153.281 315.065 150.312C296.287 150.519 277.653 157.518 263.365 169.733C252.251 179.237 243.92 191.542 233.839 202.138C229.934 206.243 225.571 210.209 220.181 211.931C215.146 213.538 209.714 213.035 204.455 212.515C190.783 211.162 177.104 209.809 163.505 207.848C139.541 204.394 115.23 198.802 95.0622 185.38C74.8576 171.933 59.8595 150.832 53.7818 127.301C62.2215 116.273 74.7969 108.933 88.0612 104.881C101.326 100.83 115.329 99.8437 129.194 99.722C142.852 99.6002 156.736 100.331 169.659 104.766C188.586 111.262 204.535 125.815 213.117 143.927C221.699 162.038 222.904 183.46 216.781 202.549C206.616 183.661 196.191 164.428 180.639 149.677C153.356 123.803 111.995 115.129 75.6473 124.62C128.772 126.761 180.266 154.742 211.043 198.192C209.906 155.935 213.164 113.195 236.321 77.864C259.325 42.7645 298.8 19.0315 340.528 15.2137C322.717 46.0223 323.574 87.6059 297.427 111.713C277.294 130.275 247.464 132.331 220.129 133.404C222.425 100.887 242.964 70.2753 272.145 55.8772C256.645 65.8157 242.535 77.9283 230.356 91.7489C224.849 97.9966 218.997 105.037 210.793 106.411C204.872 107.403 198.924 105.173 193.405 102.804C175.605 95.1667 158.605 85.6561 142.776 74.4792C137.38 70.6684 132.068 66.6158 127.847 61.53C114.212 45.0987 114.415 21.6614 108.963 1C126.716 1.08523 144.638 1.74443 161.83 6.18839C179.022 10.6306 195.601 19.1567 207.034 32.7669C223.325 52.162 227.029 81.2834 216.113 104.154C200.655 67.0836 170.914 36.2142 134.489 19.4333C154.386 28.6012 171.962 43.7003 185.339 60.9421C189.875 66.7897 220.767 115.75 206.408 117.428C203.719 117.743 201.147 116.393 198.78 115.077C158.725 92.7838 119.972 67.5915 77.2144 51.0871C65.427 46.5371 51.5743 42.8219 40.698 49.2556C41.6681 53.5587 46.0051 56.0981 49.9776 57.9992C97.1274 80.5512 151.509 85.7935 197.015 111.515C205.629 116.383 213.905 121.977 223.127 125.551" stroke="#3D423E" stroke-width="1.3" stroke-miterlimit="10"/>
</svg>
