<svg width="340" height="79" viewBox="0 0 340 79" fill="none" xmlns="http://www.w3.org/2000/svg">
<g filter="url(#filter0_b_3841_33487)">
<path d="M114 79L121.794 60.25H106.206L114 79Z" fill="#3D423E" fill-opacity="0.8"/>
</g>
<g filter="url(#filter1_b_3841_33487)">
<rect width="340" height="62" rx="12" fill="#3D423E" fill-opacity="0.8"/>
<path d="M19.4536 27.2822C18.5793 27.2822 17.8156 27.1411 17.1626 26.8589C16.5151 26.5711 16.0005 26.1782 15.6187 25.6802C15.2424 25.1766 15.0238 24.6011 14.9629 23.9536L14.9546 23.8623H16.4487L16.457 23.9536C16.4958 24.3521 16.6479 24.6979 16.9136 24.9912C17.1847 25.279 17.5444 25.5031 17.9927 25.6636C18.4465 25.8241 18.9611 25.9043 19.5366 25.9043C20.0789 25.9043 20.5604 25.8185 20.981 25.647C21.4071 25.4699 21.7419 25.2264 21.9854 24.9165C22.2288 24.6066 22.3506 24.2497 22.3506 23.8457V23.8374C22.3506 23.3394 22.168 22.9215 21.8027 22.584C21.4375 22.2409 20.8426 21.978 20.0181 21.7954L18.6899 21.5049C17.4891 21.2393 16.6147 20.8298 16.0669 20.2764C15.5246 19.7174 15.2534 19.0036 15.2534 18.1348V18.1265C15.259 17.4624 15.4388 16.8758 15.793 16.3667C16.1527 15.8576 16.6479 15.4591 17.2788 15.1714C17.9152 14.8836 18.6457 14.7397 19.4702 14.7397C20.2671 14.7397 20.9727 14.8836 21.5869 15.1714C22.2012 15.4536 22.6882 15.8354 23.0479 16.3169C23.4131 16.7983 23.6151 17.3379 23.6538 17.9355L23.6621 18.0518H22.168L22.1514 17.9438C22.096 17.5897 21.9521 17.277 21.7197 17.0059C21.4873 16.7292 21.1774 16.5106 20.79 16.3501C20.4027 16.1896 19.9489 16.1121 19.4287 16.1177C18.9307 16.1177 18.4824 16.1951 18.084 16.3501C17.6855 16.505 17.3674 16.7292 17.1294 17.0225C16.897 17.3102 16.7808 17.6644 16.7808 18.085V18.0933C16.7808 18.5692 16.9578 18.9704 17.312 19.2969C17.6662 19.6234 18.25 19.8752 19.0635 20.0522L20.3916 20.3511C21.2272 20.5337 21.8996 20.7716 22.4087 21.0649C22.9178 21.3582 23.2886 21.7179 23.521 22.144C23.759 22.5646 23.8779 23.0627 23.8779 23.6382V23.6465C23.8779 24.3936 23.6953 25.0382 23.3301 25.5806C22.9648 26.1229 22.4502 26.5435 21.7861 26.8423C21.1221 27.1356 20.3446 27.2822 19.4536 27.2822ZM29.8379 27.1577C28.9857 27.1577 28.2524 26.9696 27.6382 26.5933C27.0295 26.217 26.5591 25.6857 26.2271 24.9995C25.9006 24.3078 25.7373 23.4943 25.7373 22.5591V22.5508C25.7373 21.6266 25.9006 20.8159 26.2271 20.1187C26.5591 19.4214 27.0267 18.8763 27.6299 18.4834C28.2331 18.0905 28.9386 17.894 29.7466 17.894C30.5601 17.894 31.2573 18.0822 31.8384 18.4585C32.425 18.8348 32.8732 19.3605 33.1831 20.0356C33.4985 20.7052 33.6562 21.4855 33.6562 22.3765V22.9409H26.4844V21.7871H32.9175L32.2036 22.8413V22.2686C32.2036 21.5658 32.0985 20.9875 31.8882 20.5337C31.6779 20.0799 31.3874 19.7424 31.0166 19.521C30.6458 19.2941 30.2197 19.1807 29.7383 19.1807C29.2568 19.1807 28.8252 19.2996 28.4434 19.5376C28.0671 19.77 27.7682 20.1159 27.5469 20.5752C27.3255 21.0345 27.2148 21.599 27.2148 22.2686V22.8413C27.2148 23.4777 27.3228 24.0228 27.5386 24.4766C27.7544 24.9248 28.0615 25.2707 28.46 25.5142C28.8584 25.7521 29.3288 25.8711 29.8711 25.8711C30.2751 25.8711 30.6265 25.8158 30.9253 25.7051C31.2241 25.5944 31.4704 25.4533 31.6641 25.2817C31.8577 25.1102 31.9933 24.9359 32.0708 24.7588L32.104 24.6841H33.5483L33.5317 24.7505C33.4543 25.0549 33.3159 25.3509 33.1167 25.6387C32.923 25.9209 32.6712 26.1782 32.3613 26.4106C32.0514 26.6375 31.6834 26.8201 31.2573 26.9585C30.8368 27.0913 30.3636 27.1577 29.8379 27.1577ZM39.0767 27.0664C38.158 27.0664 37.4912 26.881 37.0762 26.5103C36.6667 26.1395 36.4619 25.528 36.4619 24.6758V19.2471H35.0508V18.0518H36.4619V15.7358H37.9561V18.0518H39.915V19.2471H37.9561V24.3105C37.9561 24.8363 38.0557 25.2153 38.2549 25.4478C38.4541 25.6746 38.7861 25.7881 39.251 25.7881C39.3783 25.7881 39.4862 25.7853 39.5747 25.7798C39.6688 25.7743 39.7822 25.766 39.915 25.7549V26.9834C39.7767 27.0055 39.6383 27.0249 39.5 27.0415C39.3617 27.0581 39.2205 27.0664 39.0767 27.0664ZM47.6182 30.1377C47.5241 30.1377 47.4189 30.1322 47.3027 30.1211C47.1865 30.1156 47.0786 30.1045 46.979 30.0879V28.9009C47.0675 28.9175 47.1644 28.9285 47.2695 28.9341C47.3747 28.9396 47.4771 28.9424 47.5767 28.9424C47.9862 28.9424 48.321 28.8372 48.5811 28.627C48.8467 28.4167 49.0597 28.0542 49.2202 27.5396L49.3862 27.0083L46.0742 18.0518H47.6182L50.374 26.3193L49.8013 25.4146H50.4819L49.9092 26.3193L52.6567 18.0518H54.1758L50.6812 27.5479C50.4377 28.2174 50.1803 28.7404 49.9092 29.1167C49.638 29.493 49.3198 29.7559 48.9546 29.9053C48.5949 30.0602 48.1494 30.1377 47.6182 30.1377ZM59.4302 27.1577C58.5835 27.1577 57.8503 26.9723 57.2305 26.6016C56.6162 26.2253 56.1403 25.6912 55.8027 24.9995C55.4707 24.3078 55.3047 23.486 55.3047 22.5342V22.5176C55.3047 21.5602 55.4707 20.7357 55.8027 20.0439C56.1403 19.3522 56.6162 18.821 57.2305 18.4502C57.8503 18.0794 58.5835 17.894 59.4302 17.894C60.2824 17.894 61.0156 18.0794 61.6299 18.4502C62.2441 18.821 62.7173 19.3522 63.0493 20.0439C63.3869 20.7357 63.5557 21.5602 63.5557 22.5176V22.5342C63.5557 23.486 63.3869 24.3078 63.0493 24.9995C62.7173 25.6912 62.2441 26.2253 61.6299 26.6016C61.0156 26.9723 60.2824 27.1577 59.4302 27.1577ZM59.4302 25.8794C59.9946 25.8794 60.4733 25.7466 60.8662 25.481C61.2591 25.2153 61.5579 24.8335 61.7627 24.3354C61.973 23.8374 62.0781 23.237 62.0781 22.5342V22.5176C62.0781 21.8092 61.973 21.2061 61.7627 20.708C61.5579 20.21 61.2591 19.8309 60.8662 19.5708C60.4733 19.3052 59.9946 19.1724 59.4302 19.1724C58.8657 19.1724 58.387 19.3052 57.9941 19.5708C57.6012 19.8309 57.2996 20.21 57.0894 20.708C56.8846 21.2061 56.7822 21.8092 56.7822 22.5176V22.5342C56.7822 23.237 56.8846 23.8374 57.0894 24.3354C57.2996 24.8335 57.6012 25.2153 57.9941 25.481C58.387 25.7466 58.8657 25.8794 59.4302 25.8794ZM68.7935 27.1577C68.1183 27.1577 67.5511 27.0304 67.0918 26.7759C66.6325 26.5158 66.2866 26.1395 66.0542 25.647C65.8273 25.1489 65.7139 24.5485 65.7139 23.8457V18.0518H67.1582V23.4971C67.1582 24.2995 67.3132 24.8971 67.623 25.29C67.9385 25.6829 68.4531 25.8794 69.167 25.8794C69.5599 25.8794 69.9058 25.8213 70.2046 25.7051C70.509 25.5889 70.7635 25.4229 70.9683 25.207C71.173 24.9857 71.3252 24.7201 71.4248 24.4102C71.5299 24.0947 71.5825 23.7406 71.5825 23.3477V18.0518H73.0269V27H71.5825V25.6636H71.4497C71.3058 25.979 71.1094 26.2502 70.8604 26.4771C70.6113 26.6984 70.3125 26.8672 69.9639 26.9834C69.6208 27.0996 69.2306 27.1577 68.7935 27.1577ZM75.7246 27V18.0518H77.1689V19.3799H77.3018C77.4733 18.9095 77.7638 18.5443 78.1733 18.2842C78.5828 18.0241 79.0892 17.894 79.6924 17.894C79.8307 17.894 79.9663 17.9023 80.0991 17.9189C80.2375 17.93 80.3426 17.9411 80.4146 17.9521V19.355C80.2651 19.3273 80.1185 19.3079 79.9746 19.2969C79.8363 19.2803 79.6868 19.272 79.5264 19.272C79.0671 19.272 78.6603 19.3633 78.3062 19.5459C77.952 19.7285 77.6725 19.9831 77.4678 20.3096C77.2686 20.6361 77.1689 21.0179 77.1689 21.4551V27H75.7246ZM87.1631 27V15.022H94.4346V16.3667H88.6572V20.4839H93.9614V21.812H88.6572V27H87.1631ZM100.386 27.1577C99.5396 27.1577 98.8063 26.9723 98.1865 26.6016C97.5723 26.2253 97.0964 25.6912 96.7588 24.9995C96.4268 24.3078 96.2607 23.486 96.2607 22.5342V22.5176C96.2607 21.5602 96.4268 20.7357 96.7588 20.0439C97.0964 19.3522 97.5723 18.821 98.1865 18.4502C98.8063 18.0794 99.5396 17.894 100.386 17.894C101.238 17.894 101.972 18.0794 102.586 18.4502C103.2 18.821 103.673 19.3522 104.005 20.0439C104.343 20.7357 104.512 21.5602 104.512 22.5176V22.5342C104.512 23.486 104.343 24.3078 104.005 24.9995C103.673 25.6912 103.2 26.2253 102.586 26.6016C101.972 26.9723 101.238 27.1577 100.386 27.1577ZM100.386 25.8794C100.951 25.8794 101.429 25.7466 101.822 25.481C102.215 25.2153 102.514 24.8335 102.719 24.3354C102.929 23.8374 103.034 23.237 103.034 22.5342V22.5176C103.034 21.8092 102.929 21.2061 102.719 20.708C102.514 20.21 102.215 19.8309 101.822 19.5708C101.429 19.3052 100.951 19.1724 100.386 19.1724C99.8218 19.1724 99.3431 19.3052 98.9502 19.5708C98.5573 19.8309 98.2557 20.21 98.0454 20.708C97.8407 21.2061 97.7383 21.8092 97.7383 22.5176V22.5342C97.7383 23.237 97.8407 23.8374 98.0454 24.3354C98.2557 24.8335 98.5573 25.2153 98.9502 25.481C99.3431 25.7466 99.8218 25.8794 100.386 25.8794ZM110.414 27.1577C109.578 27.1577 108.853 26.9668 108.239 26.585C107.625 26.2031 107.149 25.6636 106.811 24.9663C106.473 24.269 106.305 23.4473 106.305 22.501V22.4844C106.305 21.5547 106.471 20.7467 106.803 20.0605C107.14 19.3743 107.616 18.8431 108.23 18.4668C108.845 18.085 109.57 17.894 110.405 17.894C111.13 17.894 111.756 18.0213 112.281 18.2759C112.807 18.5304 113.228 18.8735 113.543 19.3052C113.858 19.7313 114.06 20.21 114.149 20.7412L114.157 20.791H112.721L112.713 20.7661C112.602 20.3234 112.35 19.9471 111.958 19.6372C111.565 19.3273 111.047 19.1724 110.405 19.1724C109.868 19.1724 109.404 19.3079 109.011 19.5791C108.618 19.8503 108.313 20.2349 108.098 20.7329C107.887 21.2254 107.782 21.8092 107.782 22.4844V22.501C107.782 23.1872 107.89 23.7848 108.106 24.2939C108.322 24.7975 108.626 25.1877 109.019 25.4644C109.412 25.741 109.874 25.8794 110.405 25.8794C111.008 25.8794 111.501 25.7493 111.883 25.4893C112.265 25.2292 112.539 24.8501 112.705 24.3521L112.721 24.3022L114.149 24.2939L114.132 24.3853C114.011 24.922 113.795 25.4007 113.485 25.8213C113.175 26.2363 112.765 26.5628 112.256 26.8008C111.747 27.0387 111.133 27.1577 110.414 27.1577ZM119.262 27.1577C118.587 27.1577 118.02 27.0304 117.561 26.7759C117.101 26.5158 116.755 26.1395 116.523 25.647C116.296 25.1489 116.183 24.5485 116.183 23.8457V18.0518H117.627V23.4971C117.627 24.2995 117.782 24.8971 118.092 25.29C118.407 25.6829 118.922 25.8794 119.636 25.8794C120.029 25.8794 120.375 25.8213 120.673 25.7051C120.978 25.5889 121.232 25.4229 121.437 25.207C121.642 24.9857 121.794 24.7201 121.894 24.4102C121.999 24.0947 122.051 23.7406 122.051 23.3477V18.0518H123.496V27H122.051V25.6636H121.918C121.775 25.979 121.578 26.2502 121.329 26.4771C121.08 26.6984 120.781 26.8672 120.433 26.9834C120.09 27.0996 119.699 27.1577 119.262 27.1577ZM129.265 27.1577C128.601 27.1577 128.014 27.0581 127.505 26.8589C126.996 26.6541 126.586 26.3691 126.276 26.0039C125.972 25.6387 125.792 25.2098 125.737 24.7173H127.214C127.336 25.0881 127.574 25.3869 127.928 25.6138C128.282 25.8407 128.744 25.9541 129.314 25.9541C129.718 25.9541 130.073 25.896 130.377 25.7798C130.687 25.658 130.93 25.4948 131.107 25.29C131.285 25.0798 131.373 24.839 131.373 24.5679V24.5513C131.373 24.2469 131.251 23.9896 131.008 23.7793C130.764 23.5635 130.366 23.3892 129.812 23.2563L128.426 22.9243C127.867 22.7915 127.408 22.62 127.048 22.4097C126.689 22.1938 126.423 21.931 126.251 21.6211C126.08 21.3057 125.994 20.9349 125.994 20.5088V20.5005C125.994 20.0024 126.138 19.557 126.426 19.1641C126.719 18.7712 127.118 18.4613 127.621 18.2344C128.125 18.0075 128.692 17.894 129.323 17.894C129.948 17.894 130.501 17.9937 130.983 18.1929C131.47 18.3866 131.86 18.6632 132.153 19.0229C132.452 19.3826 132.635 19.806 132.701 20.293H131.282C131.188 19.9388 130.972 19.651 130.634 19.4297C130.297 19.2083 129.857 19.0977 129.314 19.0977C128.96 19.0977 128.645 19.1558 128.368 19.272C128.091 19.3826 127.873 19.5376 127.712 19.7368C127.552 19.936 127.472 20.1685 127.472 20.4341V20.4507C127.472 20.6499 127.524 20.827 127.629 20.9819C127.735 21.1369 127.898 21.2725 128.119 21.3887C128.34 21.5049 128.625 21.6073 128.974 21.6958L130.352 22.0278C131.193 22.2326 131.819 22.5259 132.228 22.9077C132.643 23.2896 132.851 23.8014 132.851 24.4434V24.46C132.851 24.9912 132.693 25.4616 132.377 25.8711C132.062 26.2751 131.633 26.5905 131.091 26.8174C130.554 27.0443 129.945 27.1577 129.265 27.1577ZM143.168 27V16.3667H139.309V15.022H148.522V16.3667H144.663V27H143.168ZM150.515 27V18.0518H151.959V27H150.515ZM151.245 16.3252C150.974 16.3252 150.739 16.2284 150.54 16.0347C150.346 15.8354 150.249 15.6003 150.249 15.3291C150.249 15.0524 150.346 14.8172 150.54 14.6235C150.739 14.4299 150.974 14.333 151.245 14.333C151.522 14.333 151.757 14.4299 151.951 14.6235C152.144 14.8172 152.241 15.0524 152.241 15.3291C152.241 15.6003 152.144 15.8354 151.951 16.0347C151.757 16.2284 151.522 16.3252 151.245 16.3252ZM154.682 27V18.0518H156.126V19.4131H156.259C156.458 18.9316 156.762 18.5581 157.172 18.2925C157.587 18.0269 158.088 17.894 158.674 17.894C159.078 17.894 159.441 17.9604 159.762 18.0933C160.083 18.2261 160.359 18.4115 160.592 18.6494C160.824 18.8818 161.01 19.153 161.148 19.4629H161.281C161.441 19.1475 161.657 18.8735 161.928 18.6411C162.199 18.4032 162.512 18.2205 162.866 18.0933C163.226 17.9604 163.611 17.894 164.02 17.894C164.629 17.894 165.143 18.0075 165.564 18.2344C165.99 18.4613 166.314 18.7933 166.535 19.2305C166.757 19.6621 166.867 20.1906 166.867 20.8159V27H165.423V21.1479C165.423 20.7052 165.354 20.34 165.215 20.0522C165.083 19.759 164.878 19.5404 164.601 19.3965C164.324 19.2471 163.976 19.1724 163.555 19.1724C163.14 19.1724 162.778 19.2664 162.468 19.4546C162.158 19.6427 161.917 19.8945 161.746 20.21C161.574 20.5199 161.488 20.8657 161.488 21.2476V27H160.044V20.9238C160.044 20.5697 159.966 20.2625 159.812 20.0024C159.662 19.7368 159.446 19.5321 159.164 19.3882C158.887 19.2443 158.561 19.1724 158.185 19.1724C157.797 19.1724 157.446 19.2747 157.13 19.4795C156.82 19.6842 156.574 19.9609 156.392 20.3096C156.215 20.6527 156.126 21.0345 156.126 21.4551V27H154.682ZM173.126 27.1577C172.274 27.1577 171.541 26.9696 170.926 26.5933C170.318 26.217 169.847 25.6857 169.515 24.9995C169.189 24.3078 169.025 23.4943 169.025 22.5591V22.5508C169.025 21.6266 169.189 20.8159 169.515 20.1187C169.847 19.4214 170.315 18.8763 170.918 18.4834C171.521 18.0905 172.227 17.894 173.035 17.894C173.848 17.894 174.545 18.0822 175.126 18.4585C175.713 18.8348 176.161 19.3605 176.471 20.0356C176.787 20.7052 176.944 21.4855 176.944 22.3765V22.9409H169.772V21.7871H176.206L175.492 22.8413V22.2686C175.492 21.5658 175.387 20.9875 175.176 20.5337C174.966 20.0799 174.675 19.7424 174.305 19.521C173.934 19.2941 173.508 19.1807 173.026 19.1807C172.545 19.1807 172.113 19.2996 171.731 19.5376C171.355 19.77 171.056 20.1159 170.835 20.5752C170.614 21.0345 170.503 21.599 170.503 22.2686V22.8413C170.503 23.4777 170.611 24.0228 170.827 24.4766C171.042 24.9248 171.35 25.2707 171.748 25.5142C172.146 25.7521 172.617 25.8711 173.159 25.8711C173.563 25.8711 173.915 25.8158 174.213 25.7051C174.512 25.5944 174.758 25.4533 174.952 25.2817C175.146 25.1102 175.281 24.9359 175.359 24.7588L175.392 24.6841H176.836L176.82 24.7505C176.742 25.0549 176.604 25.3509 176.405 25.6387C176.211 25.9209 175.959 26.1782 175.649 26.4106C175.34 26.6375 174.972 26.8201 174.545 26.9585C174.125 27.0913 173.652 27.1577 173.126 27.1577ZM187.146 27.0664C186.227 27.0664 185.561 26.881 185.146 26.5103C184.736 26.1395 184.531 25.528 184.531 24.6758V19.2471H183.12V18.0518H184.531V15.7358H186.025V18.0518H187.984V19.2471H186.025V24.3105C186.025 24.8363 186.125 25.2153 186.324 25.4478C186.523 25.6746 186.855 25.7881 187.32 25.7881C187.448 25.7881 187.556 25.7853 187.644 25.7798C187.738 25.7743 187.852 25.766 187.984 25.7549V26.9834C187.846 27.0055 187.708 27.0249 187.569 27.0415C187.431 27.0581 187.29 27.0664 187.146 27.0664ZM190.176 27V18.0518H191.62V27H190.176ZM190.906 16.3252C190.635 16.3252 190.4 16.2284 190.201 16.0347C190.007 15.8354 189.91 15.6003 189.91 15.3291C189.91 15.0524 190.007 14.8172 190.201 14.6235C190.4 14.4299 190.635 14.333 190.906 14.333C191.183 14.333 191.418 14.4299 191.612 14.6235C191.806 14.8172 191.902 15.0524 191.902 15.3291C191.902 15.6003 191.806 15.8354 191.612 16.0347C191.418 16.2284 191.183 16.3252 190.906 16.3252ZM194.343 27V18.0518H195.787V19.4131H195.92C196.119 18.9316 196.424 18.5581 196.833 18.2925C197.248 18.0269 197.749 17.894 198.335 17.894C198.739 17.894 199.102 17.9604 199.423 18.0933C199.744 18.2261 200.021 18.4115 200.253 18.6494C200.485 18.8818 200.671 19.153 200.809 19.4629H200.942C201.102 19.1475 201.318 18.8735 201.589 18.6411C201.861 18.4032 202.173 18.2205 202.527 18.0933C202.887 17.9604 203.272 17.894 203.681 17.894C204.29 17.894 204.805 18.0075 205.225 18.2344C205.651 18.4613 205.975 18.7933 206.196 19.2305C206.418 19.6621 206.528 20.1906 206.528 20.8159V27H205.084V21.1479C205.084 20.7052 205.015 20.34 204.876 20.0522C204.744 19.759 204.539 19.5404 204.262 19.3965C203.986 19.2471 203.637 19.1724 203.216 19.1724C202.801 19.1724 202.439 19.2664 202.129 19.4546C201.819 19.6427 201.578 19.8945 201.407 20.21C201.235 20.5199 201.149 20.8657 201.149 21.2476V27H199.705V20.9238C199.705 20.5697 199.628 20.2625 199.473 20.0024C199.323 19.7368 199.107 19.5321 198.825 19.3882C198.549 19.2443 198.222 19.1724 197.846 19.1724C197.458 19.1724 197.107 19.2747 196.792 19.4795C196.482 19.6842 196.235 19.9609 196.053 20.3096C195.876 20.6527 195.787 21.0345 195.787 21.4551V27H194.343ZM212.787 27.1577C211.935 27.1577 211.202 26.9696 210.587 26.5933C209.979 26.217 209.508 25.6857 209.176 24.9995C208.85 24.3078 208.687 23.4943 208.687 22.5591V22.5508C208.687 21.6266 208.85 20.8159 209.176 20.1187C209.508 19.4214 209.976 18.8763 210.579 18.4834C211.182 18.0905 211.888 17.894 212.696 17.894C213.509 17.894 214.207 18.0822 214.788 18.4585C215.374 18.8348 215.822 19.3605 216.132 20.0356C216.448 20.7052 216.605 21.4855 216.605 22.3765V22.9409H209.434V21.7871H215.867L215.153 22.8413V22.2686C215.153 21.5658 215.048 20.9875 214.837 20.5337C214.627 20.0799 214.337 19.7424 213.966 19.521C213.595 19.2941 213.169 19.1807 212.688 19.1807C212.206 19.1807 211.774 19.2996 211.393 19.5376C211.016 19.77 210.717 20.1159 210.496 20.5752C210.275 21.0345 210.164 21.599 210.164 22.2686V22.8413C210.164 23.4777 210.272 24.0228 210.488 24.4766C210.704 24.9248 211.011 25.2707 211.409 25.5142C211.808 25.7521 212.278 25.8711 212.82 25.8711C213.224 25.8711 213.576 25.8158 213.875 25.7051C214.173 25.5944 214.42 25.4533 214.613 25.2817C214.807 25.1102 214.943 24.9359 215.02 24.7588L215.053 24.6841H216.498L216.481 24.7505C216.403 25.0549 216.265 25.3509 216.066 25.6387C215.872 25.9209 215.62 26.1782 215.311 26.4106C215.001 26.6375 214.633 26.8201 214.207 26.9585C213.786 27.0913 213.313 27.1577 212.787 27.1577ZM218.847 27V18.0518H220.291V19.3799H220.424C220.595 18.9095 220.886 18.5443 221.295 18.2842C221.705 18.0241 222.211 17.894 222.814 17.894C222.953 17.894 223.088 17.9023 223.221 17.9189C223.36 17.93 223.465 17.9411 223.537 17.9521V19.355C223.387 19.3273 223.241 19.3079 223.097 19.2969C222.958 19.2803 222.809 19.272 222.648 19.272C222.189 19.272 221.782 19.3633 221.428 19.5459C221.074 19.7285 220.795 19.9831 220.59 20.3096C220.391 20.6361 220.291 21.0179 220.291 21.4551V27H218.847ZM230.103 27V18.0518H231.547V19.4131H231.68C231.879 18.9316 232.183 18.5581 232.593 18.2925C233.008 18.0269 233.509 17.894 234.095 17.894C234.499 17.894 234.862 17.9604 235.183 18.0933C235.504 18.2261 235.78 18.4115 236.013 18.6494C236.245 18.8818 236.431 19.153 236.569 19.4629H236.702C236.862 19.1475 237.078 18.8735 237.349 18.6411C237.62 18.4032 237.933 18.2205 238.287 18.0933C238.647 17.9604 239.031 17.894 239.441 17.894C240.05 17.894 240.564 18.0075 240.985 18.2344C241.411 18.4613 241.735 18.7933 241.956 19.2305C242.177 19.6621 242.288 20.1906 242.288 20.8159V27H240.844V21.1479C240.844 20.7052 240.775 20.34 240.636 20.0522C240.503 19.759 240.299 19.5404 240.022 19.3965C239.745 19.2471 239.397 19.1724 238.976 19.1724C238.561 19.1724 238.199 19.2664 237.889 19.4546C237.579 19.6427 237.338 19.8945 237.167 20.21C236.995 20.5199 236.909 20.8657 236.909 21.2476V27H235.465V20.9238C235.465 20.5697 235.387 20.2625 235.232 20.0024C235.083 19.7368 234.867 19.5321 234.585 19.3882C234.308 19.2443 233.982 19.1724 233.605 19.1724C233.218 19.1724 232.867 19.2747 232.551 19.4795C232.241 19.6842 231.995 19.9609 231.812 20.3096C231.635 20.6527 231.547 21.0345 231.547 21.4551V27H230.103ZM247.352 27.1577C246.787 27.1577 246.278 27.0498 245.824 26.834C245.376 26.6182 245.019 26.311 244.753 25.9126C244.493 25.5142 244.363 25.0438 244.363 24.5015V24.4849C244.363 23.9536 244.491 23.4998 244.745 23.1235C245 22.7417 245.37 22.4429 245.857 22.2271C246.344 22.0112 246.934 21.884 247.625 21.8452L250.913 21.646V22.7998L247.8 22.999C247.119 23.0378 246.621 23.1789 246.306 23.4224C245.996 23.6659 245.841 24.009 245.841 24.4517V24.4683C245.841 24.922 246.012 25.2762 246.355 25.5308C246.699 25.7798 247.13 25.9043 247.65 25.9043C248.143 25.9043 248.58 25.8075 248.962 25.6138C249.344 25.4146 249.643 25.1462 249.858 24.8086C250.08 24.471 250.19 24.0892 250.19 23.6631V20.874C250.19 20.3206 250.022 19.9001 249.684 19.6123C249.352 19.319 248.851 19.1724 248.182 19.1724C247.645 19.1724 247.205 19.2692 246.862 19.4629C246.519 19.651 246.289 19.9194 246.173 20.2681L246.165 20.293H244.72L244.729 20.2432C244.806 19.7728 245 19.3633 245.31 19.0146C245.625 18.6605 246.032 18.3866 246.53 18.1929C247.028 17.9937 247.595 17.894 248.231 17.894C248.962 17.894 249.579 18.013 250.083 18.251C250.592 18.4889 250.976 18.832 251.236 19.2803C251.502 19.723 251.635 20.2542 251.635 20.874V27H250.19V25.6802H250.058C249.869 25.9956 249.64 26.264 249.369 26.4854C249.103 26.7067 248.801 26.8755 248.464 26.9917C248.126 27.1024 247.756 27.1577 247.352 27.1577ZM254.274 27V18.0518H255.719V19.3965H255.852C256.078 18.9206 256.405 18.5526 256.831 18.2925C257.257 18.0269 257.799 17.894 258.458 17.894C259.465 17.894 260.237 18.1818 260.774 18.7573C261.316 19.3273 261.587 20.1436 261.587 21.2061V27H260.143V21.5547C260.143 20.7467 259.972 20.1491 259.628 19.7617C259.291 19.3688 258.765 19.1724 258.051 19.1724C257.575 19.1724 257.163 19.2747 256.814 19.4795C256.466 19.6842 256.195 19.9748 256.001 20.3511C255.813 20.7274 255.719 21.1784 255.719 21.7041V27H254.274ZM267.199 27.1577C266.524 27.1577 265.956 27.0304 265.497 26.7759C265.038 26.5158 264.692 26.1395 264.459 25.647C264.233 25.1489 264.119 24.5485 264.119 23.8457V18.0518H265.563V23.4971C265.563 24.2995 265.718 24.8971 266.028 25.29C266.344 25.6829 266.858 25.8794 267.572 25.8794C267.965 25.8794 268.311 25.8213 268.61 25.7051C268.914 25.5889 269.169 25.4229 269.374 25.207C269.578 24.9857 269.73 24.7201 269.83 24.4102C269.935 24.0947 269.988 23.7406 269.988 23.3477V18.0518H271.432V27H269.988V25.6636H269.855C269.711 25.979 269.515 26.2502 269.266 26.4771C269.017 26.6984 268.718 26.8672 268.369 26.9834C268.026 27.0996 267.636 27.1577 267.199 27.1577ZM276.587 27.1577C276.022 27.1577 275.513 27.0498 275.06 26.834C274.611 26.6182 274.254 26.311 273.989 25.9126C273.729 25.5142 273.599 25.0438 273.599 24.5015V24.4849C273.599 23.9536 273.726 23.4998 273.98 23.1235C274.235 22.7417 274.606 22.4429 275.093 22.2271C275.58 22.0112 276.169 21.884 276.861 21.8452L280.148 21.646V22.7998L277.035 22.999C276.354 23.0378 275.856 23.1789 275.541 23.4224C275.231 23.6659 275.076 24.009 275.076 24.4517V24.4683C275.076 24.922 275.248 25.2762 275.591 25.5308C275.934 25.7798 276.366 25.9043 276.886 25.9043C277.378 25.9043 277.815 25.8075 278.197 25.6138C278.579 25.4146 278.878 25.1462 279.094 24.8086C279.315 24.471 279.426 24.0892 279.426 23.6631V20.874C279.426 20.3206 279.257 19.9001 278.919 19.6123C278.587 19.319 278.087 19.1724 277.417 19.1724C276.88 19.1724 276.44 19.2692 276.097 19.4629C275.754 19.651 275.524 19.9194 275.408 20.2681L275.4 20.293H273.956L273.964 20.2432C274.041 19.7728 274.235 19.3633 274.545 19.0146C274.86 18.6605 275.267 18.3866 275.765 18.1929C276.263 17.9937 276.83 17.894 277.467 17.894C278.197 17.894 278.814 18.013 279.318 18.251C279.827 18.4889 280.212 18.832 280.472 19.2803C280.737 19.723 280.87 20.2542 280.87 20.874V27H279.426V25.6802H279.293C279.105 25.9956 278.875 26.264 278.604 26.4854C278.338 26.7067 278.037 26.8755 277.699 26.9917C277.362 27.1024 276.991 27.1577 276.587 27.1577ZM283.593 27V14.499H285.037V27H283.593ZM287.893 27V14.499H289.337V27H287.893ZM292.873 30.1377C292.779 30.1377 292.674 30.1322 292.558 30.1211C292.441 30.1156 292.333 30.1045 292.234 30.0879V28.9009C292.322 28.9175 292.419 28.9285 292.524 28.9341C292.63 28.9396 292.732 28.9424 292.832 28.9424C293.241 28.9424 293.576 28.8372 293.836 28.627C294.102 28.4167 294.315 28.0542 294.475 27.5396L294.641 27.0083L291.329 18.0518H292.873L295.629 26.3193L295.056 25.4146H295.737L295.164 26.3193L297.912 18.0518H299.431L295.936 27.5479C295.693 28.2174 295.435 28.7404 295.164 29.1167C294.893 29.493 294.575 29.7559 294.209 29.9053C293.85 30.0602 293.404 30.1377 292.873 30.1377ZM309.798 27.1577C308.952 27.1577 308.218 26.9723 307.599 26.6016C306.984 26.2253 306.508 25.6912 306.171 24.9995C305.839 24.3078 305.673 23.486 305.673 22.5342V22.5176C305.673 21.5602 305.839 20.7357 306.171 20.0439C306.508 19.3522 306.984 18.821 307.599 18.4502C308.218 18.0794 308.952 17.894 309.798 17.894C310.651 17.894 311.384 18.0794 311.998 18.4502C312.612 18.821 313.085 19.3522 313.417 20.0439C313.755 20.7357 313.924 21.5602 313.924 22.5176V22.5342C313.924 23.486 313.755 24.3078 313.417 24.9995C313.085 25.6912 312.612 26.2253 311.998 26.6016C311.384 26.9723 310.651 27.1577 309.798 27.1577ZM309.798 25.8794C310.363 25.8794 310.841 25.7466 311.234 25.481C311.627 25.2153 311.926 24.8335 312.131 24.3354C312.341 23.8374 312.446 23.237 312.446 22.5342V22.5176C312.446 21.8092 312.341 21.2061 312.131 20.708C311.926 20.21 311.627 19.8309 311.234 19.5708C310.841 19.3052 310.363 19.1724 309.798 19.1724C309.234 19.1724 308.755 19.3052 308.362 19.5708C307.969 19.8309 307.668 20.21 307.458 20.708C307.253 21.2061 307.15 21.8092 307.15 22.5176V22.5342C307.15 23.237 307.253 23.8374 307.458 24.3354C307.668 24.8335 307.969 25.2153 308.362 25.481C308.755 25.7466 309.234 25.8794 309.798 25.8794ZM316.165 27V18.0518H317.609V19.3799H317.742C317.914 18.9095 318.204 18.5443 318.614 18.2842C319.023 18.0241 319.53 17.894 320.133 17.894C320.271 17.894 320.407 17.9023 320.54 17.9189C320.678 17.93 320.783 17.9411 320.855 17.9521V19.355C320.706 19.3273 320.559 19.3079 320.415 19.2969C320.277 19.2803 320.127 19.272 319.967 19.272C319.507 19.272 319.101 19.3633 318.747 19.5459C318.392 19.7285 318.113 19.9831 317.908 20.3096C317.709 20.6361 317.609 21.0179 317.609 21.4551V27H316.165ZM18.3413 47.1577C17.6662 47.1577 17.099 47.0304 16.6396 46.7759C16.1803 46.5158 15.8345 46.1395 15.6021 45.647C15.3752 45.1489 15.2617 44.5485 15.2617 43.8457V38.0518H16.7061V43.4971C16.7061 44.2995 16.861 44.8971 17.1709 45.29C17.4863 45.6829 18.001 45.8794 18.7148 45.8794C19.1077 45.8794 19.4536 45.8213 19.7524 45.7051C20.0568 45.5889 20.3114 45.4229 20.5161 45.207C20.7209 44.9857 20.873 44.7201 20.9727 44.4102C21.0778 44.0947 21.1304 43.7406 21.1304 43.3477V38.0518H22.5747V47H21.1304V45.6636H20.9976C20.8537 45.979 20.6572 46.2502 20.4082 46.4771C20.1592 46.6984 19.8604 46.8672 19.5117 46.9834C19.1686 47.0996 18.7785 47.1577 18.3413 47.1577ZM28.3438 47.1577C27.6797 47.1577 27.0931 47.0581 26.584 46.8589C26.0749 46.6541 25.6654 46.3691 25.3555 46.0039C25.0511 45.6387 24.8713 45.2098 24.8159 44.7173H26.2935C26.4152 45.0881 26.6532 45.3869 27.0073 45.6138C27.3615 45.8407 27.8236 45.9541 28.3936 45.9541C28.7975 45.9541 29.1517 45.896 29.4561 45.7798C29.766 45.658 30.0094 45.4948 30.1865 45.29C30.3636 45.0798 30.4521 44.839 30.4521 44.5679V44.5513C30.4521 44.2469 30.3304 43.9896 30.0869 43.7793C29.8434 43.5635 29.445 43.3892 28.8916 43.2563L27.5054 42.9243C26.9465 42.7915 26.4871 42.62 26.1274 42.4097C25.7677 42.1938 25.5021 41.931 25.3306 41.6211C25.159 41.3057 25.0732 40.9349 25.0732 40.5088V40.5005C25.0732 40.0024 25.2171 39.557 25.5049 39.1641C25.7982 38.7712 26.1966 38.4613 26.7002 38.2344C27.2038 38.0075 27.771 37.894 28.4019 37.894C29.0272 37.894 29.5806 37.9937 30.062 38.1929C30.549 38.3866 30.9391 38.6632 31.2324 39.0229C31.5312 39.3826 31.7139 39.806 31.7803 40.293H30.3608C30.2668 39.9388 30.0509 39.651 29.7134 39.4297C29.3758 39.2083 28.9359 39.0977 28.3936 39.0977C28.0394 39.0977 27.724 39.1558 27.4473 39.272C27.1706 39.3826 26.952 39.5376 26.7915 39.7368C26.631 39.936 26.5508 40.1685 26.5508 40.4341V40.4507C26.5508 40.6499 26.6034 40.827 26.7085 40.9819C26.8136 41.1369 26.9769 41.2725 27.1982 41.3887C27.4196 41.5049 27.7046 41.6073 28.0532 41.6958L29.4312 42.0278C30.2723 42.2326 30.8976 42.5259 31.3071 42.9077C31.7222 43.2896 31.9297 43.8014 31.9297 44.4434V44.46C31.9297 44.9912 31.772 45.4616 31.4565 45.8711C31.1411 46.2751 30.7122 46.5905 30.1699 46.8174C29.6331 47.0443 29.0244 47.1577 28.3438 47.1577ZM37.8232 47.1577C36.971 47.1577 36.2378 46.9696 35.6235 46.5933C35.0148 46.217 34.5444 45.6857 34.2124 44.9995C33.8859 44.3078 33.7227 43.4943 33.7227 42.5591V42.5508C33.7227 41.6266 33.8859 40.8159 34.2124 40.1187C34.5444 39.4214 35.012 38.8763 35.6152 38.4834C36.2184 38.0905 36.924 37.894 37.7319 37.894C38.5454 37.894 39.2427 38.0822 39.8237 38.4585C40.4103 38.8348 40.8586 39.3605 41.1685 40.0356C41.4839 40.7052 41.6416 41.4855 41.6416 42.3765V42.9409H34.4697V41.7871H40.9028L40.189 42.8413V42.2686C40.189 41.5658 40.0838 40.9875 39.8735 40.5337C39.6632 40.0799 39.3727 39.7424 39.002 39.521C38.6312 39.2941 38.2051 39.1807 37.7236 39.1807C37.2422 39.1807 36.8105 39.2996 36.4287 39.5376C36.0524 39.77 35.7536 40.1159 35.5322 40.5752C35.3109 41.0345 35.2002 41.599 35.2002 42.2686V42.8413C35.2002 43.4777 35.3081 44.0228 35.5239 44.4766C35.7397 44.9248 36.0469 45.2707 36.4453 45.5142C36.8438 45.7521 37.3141 45.8711 37.8564 45.8711C38.2604 45.8711 38.6118 45.8158 38.9106 45.7051C39.2095 45.5944 39.4557 45.4533 39.6494 45.2817C39.8431 45.1102 39.9787 44.9359 40.0562 44.7588L40.0894 44.6841H41.5337L41.5171 44.7505C41.4396 45.0549 41.3013 45.3509 41.1021 45.6387C40.9084 45.9209 40.6566 46.1782 40.3467 46.4106C40.0368 46.6375 39.6688 46.8201 39.2427 46.9585C38.8221 47.0913 38.349 47.1577 37.8232 47.1577ZM51.8433 47.0664C50.9246 47.0664 50.2578 46.881 49.8428 46.5103C49.4333 46.1395 49.2285 45.528 49.2285 44.6758V39.2471H47.8174V38.0518H49.2285V35.7358H50.7227V38.0518H52.6816V39.2471H50.7227V44.3105C50.7227 44.8363 50.8223 45.2153 51.0215 45.4478C51.2207 45.6746 51.5527 45.7881 52.0176 45.7881C52.1449 45.7881 52.2528 45.7853 52.3413 45.7798C52.4354 45.7743 52.5488 45.766 52.6816 45.7549V46.9834C52.5433 47.0055 52.4049 47.0249 52.2666 47.0415C52.1283 47.0581 51.9871 47.0664 51.8433 47.0664ZM54.9229 47V34.499H56.3672V39.3965H56.5C56.7269 38.9206 57.0534 38.5526 57.4795 38.2925C57.9056 38.0269 58.4479 37.894 59.1064 37.894C59.776 37.894 60.3433 38.0241 60.8081 38.2842C61.2729 38.5387 61.6271 38.9123 61.8706 39.4048C62.1141 39.8973 62.2358 40.4977 62.2358 41.2061V47H60.7915V41.5547C60.7915 40.7467 60.62 40.1491 60.2769 39.7617C59.9393 39.3688 59.4136 39.1724 58.6997 39.1724C58.2238 39.1724 57.8115 39.2747 57.4629 39.4795C57.1143 39.6842 56.8431 39.9748 56.6494 40.3511C56.4613 40.7274 56.3672 41.1784 56.3672 41.7041V47H54.9229ZM68.5029 47.1577C67.6507 47.1577 66.9175 46.9696 66.3032 46.5933C65.6945 46.217 65.2241 45.6857 64.8921 44.9995C64.5656 44.3078 64.4023 43.4943 64.4023 42.5591V42.5508C64.4023 41.6266 64.5656 40.8159 64.8921 40.1187C65.2241 39.4214 65.6917 38.8763 66.2949 38.4834C66.8981 38.0905 67.6037 37.894 68.4116 37.894C69.2251 37.894 69.9224 38.0822 70.5034 38.4585C71.09 38.8348 71.5382 39.3605 71.8481 40.0356C72.1636 40.7052 72.3213 41.4855 72.3213 42.3765V42.9409H65.1494V41.7871H71.5825L70.8687 42.8413V42.2686C70.8687 41.5658 70.7635 40.9875 70.5532 40.5337C70.3429 40.0799 70.0524 39.7424 69.6816 39.521C69.3109 39.2941 68.8848 39.1807 68.4033 39.1807C67.9219 39.1807 67.4902 39.2996 67.1084 39.5376C66.7321 39.77 66.4333 40.1159 66.2119 40.5752C65.9906 41.0345 65.8799 41.599 65.8799 42.2686V42.8413C65.8799 43.4777 65.9878 44.0228 66.2036 44.4766C66.4194 44.9248 66.7266 45.2707 67.125 45.5142C67.5234 45.7521 67.9938 45.8711 68.5361 45.8711C68.9401 45.8711 69.2915 45.8158 69.5903 45.7051C69.8892 45.5944 70.1354 45.4533 70.3291 45.2817C70.5228 45.1102 70.6584 44.9359 70.7358 44.7588L70.769 44.6841H72.2134L72.1968 44.7505C72.1193 45.0549 71.981 45.3509 71.7817 45.6387C71.5881 45.9209 71.3363 46.1782 71.0264 46.4106C70.7165 46.6375 70.3485 46.8201 69.9224 46.9585C69.5018 47.0913 69.0286 47.1577 68.5029 47.1577ZM79.3438 49.9883V38.0518H80.7881V39.4795H80.9209C81.1035 39.1475 81.3332 38.8652 81.6099 38.6328C81.8866 38.3949 82.202 38.2122 82.5562 38.085C82.9103 37.9577 83.2949 37.894 83.71 37.894C84.4681 37.894 85.1266 38.0877 85.6855 38.4751C86.25 38.8569 86.6872 39.3937 86.9971 40.0854C87.307 40.7772 87.4619 41.5879 87.4619 42.5176V42.5342C87.4619 43.4694 87.307 44.2829 86.9971 44.9746C86.6872 45.6663 86.25 46.2031 85.6855 46.585C85.1266 46.9668 84.4681 47.1577 83.71 47.1577C83.3005 47.1577 82.9131 47.0941 82.5479 46.9668C82.1882 46.834 81.8672 46.6514 81.585 46.4189C81.3083 46.1865 81.0869 45.9098 80.9209 45.5889H80.7881V49.9883H79.3438ZM83.3779 45.8794C83.9258 45.8794 84.3934 45.7466 84.7808 45.481C85.1681 45.2098 85.4642 44.8252 85.6689 44.3271C85.8792 43.8236 85.9844 43.2259 85.9844 42.5342V42.5176C85.9844 41.8203 85.8792 41.2227 85.6689 40.7246C85.4642 40.2266 85.1681 39.8447 84.7808 39.5791C84.3934 39.3079 83.9258 39.1724 83.3779 39.1724C82.8356 39.1724 82.368 39.3079 81.9751 39.5791C81.5822 39.8503 81.2806 40.2349 81.0703 40.7329C80.86 41.231 80.7549 41.8258 80.7549 42.5176V42.5342C80.7549 43.2204 80.86 43.8153 81.0703 44.3188C81.2806 44.8169 81.5822 45.2015 81.9751 45.4727C82.368 45.7438 82.8356 45.8794 83.3779 45.8794ZM89.7197 47V38.0518H91.1641V39.3799H91.2969C91.4684 38.9095 91.759 38.5443 92.1685 38.2842C92.578 38.0241 93.0843 37.894 93.6875 37.894C93.8258 37.894 93.9614 37.9023 94.0942 37.9189C94.2326 37.93 94.3377 37.9411 94.4097 37.9521V39.355C94.2603 39.3273 94.1136 39.3079 93.9697 39.2969C93.8314 39.2803 93.682 39.272 93.5215 39.272C93.0622 39.272 92.6554 39.3633 92.3013 39.5459C91.9471 39.7285 91.6676 39.9831 91.4629 40.3096C91.2637 40.6361 91.1641 41.0179 91.1641 41.4551V47H89.7197ZM99.5977 47.1577C98.7454 47.1577 98.0122 46.9696 97.3979 46.5933C96.7892 46.217 96.3188 45.6857 95.9868 44.9995C95.6603 44.3078 95.4971 43.4943 95.4971 42.5591V42.5508C95.4971 41.6266 95.6603 40.8159 95.9868 40.1187C96.3188 39.4214 96.7865 38.8763 97.3896 38.4834C97.9928 38.0905 98.6984 37.894 99.5063 37.894C100.32 37.894 101.017 38.0822 101.598 38.4585C102.185 38.8348 102.633 39.3605 102.943 40.0356C103.258 40.7052 103.416 41.4855 103.416 42.3765V42.9409H96.2441V41.7871H102.677L101.963 42.8413V42.2686C101.963 41.5658 101.858 40.9875 101.648 40.5337C101.438 40.0799 101.147 39.7424 100.776 39.521C100.406 39.2941 99.9795 39.1807 99.498 39.1807C99.0166 39.1807 98.585 39.2996 98.2031 39.5376C97.8268 39.77 97.528 40.1159 97.3066 40.5752C97.0853 41.0345 96.9746 41.599 96.9746 42.2686V42.8413C96.9746 43.4777 97.0825 44.0228 97.2983 44.4766C97.5142 44.9248 97.8213 45.2707 98.2197 45.5142C98.6182 45.7521 99.0885 45.8711 99.6309 45.8711C100.035 45.8711 100.386 45.8158 100.685 45.7051C100.984 45.5944 101.23 45.4533 101.424 45.2817C101.618 45.1102 101.753 44.9359 101.831 44.7588L101.864 44.6841H103.308L103.292 44.7505C103.214 45.0549 103.076 45.3509 102.876 45.6387C102.683 45.9209 102.431 46.1782 102.121 46.4106C101.811 46.6375 101.443 46.8201 101.017 46.9585C100.597 47.0913 100.123 47.1577 99.5977 47.1577ZM108.729 47.1577C108.064 47.1577 107.478 47.0581 106.969 46.8589C106.46 46.6541 106.05 46.3691 105.74 46.0039C105.436 45.6387 105.256 45.2098 105.201 44.7173H106.678C106.8 45.0881 107.038 45.3869 107.392 45.6138C107.746 45.8407 108.208 45.9541 108.778 45.9541C109.182 45.9541 109.536 45.896 109.841 45.7798C110.151 45.658 110.394 45.4948 110.571 45.29C110.748 45.0798 110.837 44.839 110.837 44.5679V44.5513C110.837 44.2469 110.715 43.9896 110.472 43.7793C110.228 43.5635 109.83 43.3892 109.276 43.2563L107.89 42.9243C107.331 42.7915 106.872 42.62 106.512 42.4097C106.153 42.1938 105.887 41.931 105.715 41.6211C105.544 41.3057 105.458 40.9349 105.458 40.5088V40.5005C105.458 40.0024 105.602 39.557 105.89 39.1641C106.183 38.7712 106.581 38.4613 107.085 38.2344C107.589 38.0075 108.156 37.894 108.787 37.894C109.412 37.894 109.965 37.9937 110.447 38.1929C110.934 38.3866 111.324 38.6632 111.617 39.0229C111.916 39.3826 112.099 39.806 112.165 40.293H110.746C110.652 39.9388 110.436 39.651 110.098 39.4297C109.761 39.2083 109.321 39.0977 108.778 39.0977C108.424 39.0977 108.109 39.1558 107.832 39.272C107.555 39.3826 107.337 39.5376 107.176 39.7368C107.016 39.936 106.936 40.1685 106.936 40.4341V40.4507C106.936 40.6499 106.988 40.827 107.093 40.9819C107.198 41.1369 107.362 41.2725 107.583 41.3887C107.804 41.5049 108.089 41.6073 108.438 41.6958L109.816 42.0278C110.657 42.2326 111.282 42.5259 111.692 42.9077C112.107 43.2896 112.314 43.8014 112.314 44.4434V44.46C112.314 44.9912 112.157 45.4616 111.841 45.8711C111.526 46.2751 111.097 46.5905 110.555 46.8174C110.018 47.0443 109.409 47.1577 108.729 47.1577ZM118.208 47.1577C117.356 47.1577 116.623 46.9696 116.008 46.5933C115.4 46.217 114.929 45.6857 114.597 44.9995C114.271 44.3078 114.107 43.4943 114.107 42.5591V42.5508C114.107 41.6266 114.271 40.8159 114.597 40.1187C114.929 39.4214 115.397 38.8763 116 38.4834C116.603 38.0905 117.309 37.894 118.117 37.894C118.93 37.894 119.627 38.0822 120.208 38.4585C120.795 38.8348 121.243 39.3605 121.553 40.0356C121.869 40.7052 122.026 41.4855 122.026 42.3765V42.9409H114.854V41.7871H121.288L120.574 42.8413V42.2686C120.574 41.5658 120.469 40.9875 120.258 40.5337C120.048 40.0799 119.757 39.7424 119.387 39.521C119.016 39.2941 118.59 39.1807 118.108 39.1807C117.627 39.1807 117.195 39.2996 116.813 39.5376C116.437 39.77 116.138 40.1159 115.917 40.5752C115.696 41.0345 115.585 41.599 115.585 42.2686V42.8413C115.585 43.4777 115.693 44.0228 115.909 44.4766C116.125 44.9248 116.432 45.2707 116.83 45.5142C117.229 45.7521 117.699 45.8711 118.241 45.8711C118.645 45.8711 118.997 45.8158 119.295 45.7051C119.594 45.5944 119.84 45.4533 120.034 45.2817C120.228 45.1102 120.363 44.9359 120.441 44.7588L120.474 44.6841H121.918L121.902 44.7505C121.824 45.0549 121.686 45.3509 121.487 45.6387C121.293 45.9209 121.041 46.1782 120.731 46.4106C120.422 46.6375 120.054 46.8201 119.627 46.9585C119.207 47.0913 118.734 47.1577 118.208 47.1577ZM127.447 47.0664C126.528 47.0664 125.861 46.881 125.446 46.5103C125.037 46.1395 124.832 45.528 124.832 44.6758V39.2471H123.421V38.0518H124.832V35.7358H126.326V38.0518H128.285V39.2471H126.326V44.3105C126.326 44.8363 126.426 45.2153 126.625 45.4478C126.824 45.6746 127.156 45.7881 127.621 45.7881C127.748 45.7881 127.856 45.7853 127.945 45.7798C128.039 45.7743 128.152 45.766 128.285 45.7549V46.9834C128.147 47.0055 128.008 47.0249 127.87 47.0415C127.732 47.0581 127.591 47.0664 127.447 47.0664ZM138.404 47.0664C137.485 47.0664 136.818 46.881 136.403 46.5103C135.994 46.1395 135.789 45.528 135.789 44.6758V39.2471H134.378V38.0518H135.789V35.7358H137.283V38.0518H139.242V39.2471H137.283V44.3105C137.283 44.8363 137.383 45.2153 137.582 45.4478C137.781 45.6746 138.113 45.7881 138.578 45.7881C138.705 45.7881 138.813 45.7853 138.902 45.7798C138.996 45.7743 139.109 45.766 139.242 45.7549V46.9834C139.104 47.0055 138.965 47.0249 138.827 47.0415C138.689 47.0581 138.548 47.0664 138.404 47.0664ZM141.434 47V38.0518H142.878V47H141.434ZM142.164 36.3252C141.893 36.3252 141.658 36.2284 141.458 36.0347C141.265 35.8354 141.168 35.6003 141.168 35.3291C141.168 35.0524 141.265 34.8172 141.458 34.6235C141.658 34.4299 141.893 34.333 142.164 34.333C142.441 34.333 142.676 34.4299 142.87 34.6235C143.063 34.8172 143.16 35.0524 143.16 35.3291C143.16 35.6003 143.063 35.8354 142.87 36.0347C142.676 36.2284 142.441 36.3252 142.164 36.3252ZM145.601 47V38.0518H147.045V39.4131H147.178C147.377 38.9316 147.681 38.5581 148.091 38.2925C148.506 38.0269 149.007 37.894 149.593 37.894C149.997 37.894 150.36 37.9604 150.681 38.0933C151.002 38.2261 151.278 38.4115 151.511 38.6494C151.743 38.8818 151.929 39.153 152.067 39.4629H152.2C152.36 39.1475 152.576 38.8735 152.847 38.6411C153.118 38.4032 153.431 38.2205 153.785 38.0933C154.145 37.9604 154.529 37.894 154.939 37.894C155.548 37.894 156.062 38.0075 156.483 38.2344C156.909 38.4613 157.233 38.7933 157.454 39.2305C157.675 39.6621 157.786 40.1906 157.786 40.8159V47H156.342V41.1479C156.342 40.7052 156.273 40.34 156.134 40.0522C156.001 39.759 155.797 39.5404 155.52 39.3965C155.243 39.2471 154.895 39.1724 154.474 39.1724C154.059 39.1724 153.697 39.2664 153.387 39.4546C153.077 39.6427 152.836 39.8945 152.665 40.21C152.493 40.5199 152.407 40.8657 152.407 41.2476V47H150.963V40.9238C150.963 40.5697 150.885 40.2625 150.73 40.0024C150.581 39.7368 150.365 39.5321 150.083 39.3882C149.806 39.2443 149.48 39.1724 149.104 39.1724C148.716 39.1724 148.365 39.2747 148.049 39.4795C147.739 39.6842 147.493 39.9609 147.311 40.3096C147.133 40.6527 147.045 41.0345 147.045 41.4551V47H145.601ZM164.045 47.1577C163.193 47.1577 162.459 46.9696 161.845 46.5933C161.236 46.217 160.766 45.6857 160.434 44.9995C160.108 44.3078 159.944 43.4943 159.944 42.5591V42.5508C159.944 41.6266 160.108 40.8159 160.434 40.1187C160.766 39.4214 161.234 38.8763 161.837 38.4834C162.44 38.0905 163.146 37.894 163.954 37.894C164.767 37.894 165.464 38.0822 166.045 38.4585C166.632 38.8348 167.08 39.3605 167.39 40.0356C167.706 40.7052 167.863 41.4855 167.863 42.3765V42.9409H160.691V41.7871H167.125L166.411 42.8413V42.2686C166.411 41.5658 166.306 40.9875 166.095 40.5337C165.885 40.0799 165.594 39.7424 165.224 39.521C164.853 39.2941 164.427 39.1807 163.945 39.1807C163.464 39.1807 163.032 39.2996 162.65 39.5376C162.274 39.77 161.975 40.1159 161.754 40.5752C161.533 41.0345 161.422 41.599 161.422 42.2686V42.8413C161.422 43.4777 161.53 44.0228 161.746 44.4766C161.961 44.9248 162.269 45.2707 162.667 45.5142C163.065 45.7521 163.536 45.8711 164.078 45.8711C164.482 45.8711 164.833 45.8158 165.132 45.7051C165.431 45.5944 165.677 45.4533 165.871 45.2817C166.065 45.1102 166.2 44.9359 166.278 44.7588L166.311 44.6841H167.755L167.739 44.7505C167.661 45.0549 167.523 45.3509 167.324 45.6387C167.13 45.9209 166.878 46.1782 166.568 46.4106C166.258 46.6375 165.89 46.8201 165.464 46.9585C165.044 47.0913 164.571 47.1577 164.045 47.1577ZM173.176 47.1577C172.512 47.1577 171.925 47.0581 171.416 46.8589C170.907 46.6541 170.497 46.3691 170.188 46.0039C169.883 45.6387 169.703 45.2098 169.648 44.7173H171.125C171.247 45.0881 171.485 45.3869 171.839 45.6138C172.194 45.8407 172.656 45.9541 173.226 45.9541C173.63 45.9541 173.984 45.896 174.288 45.7798C174.598 45.658 174.841 45.4948 175.019 45.29C175.196 45.0798 175.284 44.839 175.284 44.5679V44.5513C175.284 44.2469 175.162 43.9896 174.919 43.7793C174.675 43.5635 174.277 43.3892 173.724 43.2563L172.337 42.9243C171.778 42.7915 171.319 42.62 170.959 42.4097C170.6 42.1938 170.334 41.931 170.163 41.6211C169.991 41.3057 169.905 40.9349 169.905 40.5088V40.5005C169.905 40.0024 170.049 39.557 170.337 39.1641C170.63 38.7712 171.029 38.4613 171.532 38.2344C172.036 38.0075 172.603 37.894 173.234 37.894C173.859 37.894 174.413 37.9937 174.894 38.1929C175.381 38.3866 175.771 38.6632 176.064 39.0229C176.363 39.3826 176.546 39.806 176.612 40.293H175.193C175.099 39.9388 174.883 39.651 174.545 39.4297C174.208 39.2083 173.768 39.0977 173.226 39.0977C172.871 39.0977 172.556 39.1558 172.279 39.272C172.003 39.3826 171.784 39.5376 171.624 39.7368C171.463 39.936 171.383 40.1685 171.383 40.4341V40.4507C171.383 40.6499 171.435 40.827 171.541 40.9819C171.646 41.1369 171.809 41.2725 172.03 41.3887C172.252 41.5049 172.537 41.6073 172.885 41.6958L174.263 42.0278C175.104 42.2326 175.73 42.5259 176.139 42.9077C176.554 43.2896 176.762 43.8014 176.762 44.4434V44.46C176.762 44.9912 176.604 45.4616 176.289 45.8711C175.973 46.2751 175.544 46.5905 175.002 46.8174C174.465 47.0443 173.856 47.1577 173.176 47.1577ZM180.182 47.083C179.888 47.083 179.634 46.9779 179.418 46.7676C179.208 46.5518 179.103 46.2972 179.103 46.0039C179.103 45.7051 179.208 45.4505 179.418 45.2402C179.634 45.0299 179.888 44.9248 180.182 44.9248C180.48 44.9248 180.735 45.0299 180.945 45.2402C181.156 45.4505 181.261 45.7051 181.261 46.0039C181.261 46.2972 181.156 46.5518 180.945 46.7676C180.735 46.9779 180.48 47.083 180.182 47.083Z" fill="#FDFCFB"/>
</g>
<defs>
<filter id="filter0_b_3841_33487" x="84.2058" y="38.25" width="59.5884" height="62.75" filterUnits="userSpaceOnUse" color-interpolation-filters="sRGB">
<feFlood flood-opacity="0" result="BackgroundImageFix"/>
<feGaussianBlur in="BackgroundImageFix" stdDeviation="11"/>
<feComposite in2="SourceAlpha" operator="in" result="effect1_backgroundBlur_3841_33487"/>
<feBlend mode="normal" in="SourceGraphic" in2="effect1_backgroundBlur_3841_33487" result="shape"/>
</filter>
<filter id="filter1_b_3841_33487" x="-22" y="-22" width="384" height="106" filterUnits="userSpaceOnUse" color-interpolation-filters="sRGB">
<feFlood flood-opacity="0" result="BackgroundImageFix"/>
<feGaussianBlur in="BackgroundImageFix" stdDeviation="11"/>
<feComposite in2="SourceAlpha" operator="in" result="effect1_backgroundBlur_3841_33487"/>
<feBlend mode="normal" in="SourceGraphic" in2="effect1_backgroundBlur_3841_33487" result="shape"/>
</filter>
</defs>
</svg>
