<svg width="257" height="256" viewBox="0 0 257 256" fill="none" xmlns="http://www.w3.org/2000/svg">
<mask id="mask0_1738_27518" style="mask-type:luminance" maskUnits="userSpaceOnUse" x="0" y="0" width="257" height="256">
<path d="M0.5 0H256.5V256H0.5V0Z" fill="white"/>
</mask>
<g mask="url(#mask0_1738_27518)">
<path d="M134.999 188.163C135.005 188.004 135.009 187.846 135.014 187.687C135.256 176.516 128.161 163.278 115.847 163.529C103.572 163.779 87.9515 172.216 78.9142 180.228C74.4225 184.21 71.0627 189.48 71.8456 195.704C72.7165 202.632 77.4284 209.39 82.9227 213.401C91.4434 219.622 104.919 225.166 114.968 219.647C125.69 213.759 134.516 200.594 134.999 188.163Z" fill="#F0A382"/>
<path d="M152.64 170.988C158.633 176.672 169.954 180.501 178.057 179.46C191.566 177.724 204.84 164.367 207.745 151.193C208.885 146.024 209.456 140.464 209.656 135.183C210.022 125.565 207.919 113.282 195.75 114C182.342 114.791 166.901 126.786 157.543 135.648C153.042 139.909 146.572 145.647 145.317 152.083C144.098 158.334 148.203 166.779 152.64 170.988Z" fill="#FED9A8"/>
<path d="M127.978 40.8267C108.427 36.4215 82.2882 46.5473 77.7263 64.6347C76.0315 71.3532 80.17 82.7006 83.9619 88.1232C94.0335 102.526 114.918 101.992 129.848 97.7591C148.068 92.5925 154.11 76.1578 148.689 58.6325C145.606 48.667 137.588 42.992 127.978 40.8267Z" fill="#F0E8BA"/>
<path d="M174.393 131.443C172.272 129.569 169.334 128.837 166.648 129.857C164.218 130.779 162.2 132.906 161.438 135.389C160.83 137.372 161.268 139.577 162.624 141.144C163.776 142.474 165.509 143.185 167.215 143.442C169.879 143.842 172.848 143.155 174.85 141.297C176.07 140.165 176.754 138.569 176.856 136.917C176.985 134.825 175.907 132.819 174.367 131.469C174.319 131.428 174.25 131.495 174.296 131.539C176.593 133.74 177.411 137.091 175.679 139.902C174.668 141.544 172.87 142.542 171.044 143.001C167.454 143.902 162.731 142.696 161.635 138.74C160.784 135.671 162.675 132.614 165.146 130.921C168.015 128.955 171.675 129.31 174.27 131.567C174.354 131.64 174.478 131.517 174.393 131.443Z" fill="#3D423E"/>
<path d="M174.601 131.861C179.366 128.259 184.682 125.059 190.425 123.305C194.186 122.157 198.95 121.279 202.586 123.262C204.533 124.323 205.625 126.256 206.057 128.379C206.636 131.232 205.73 134.163 204.142 136.534C202.538 138.929 200.136 140.828 197.438 141.837C194.024 143.116 190.279 142.748 186.793 141.994C183.265 141.23 179.791 140.148 176.428 138.843C176.281 138.786 176.219 139.021 176.364 139.078C179.663 140.386 183.047 141.436 186.509 142.222C189.82 142.973 193.286 143.328 196.6 142.409C201.668 141.001 206.002 136.272 206.467 130.967C206.661 128.744 206.075 126.34 204.633 124.607C203.446 123.18 201.679 122.42 199.886 122.103C195.969 121.412 191.734 122.504 188.091 123.907C183.218 125.782 178.637 128.564 174.526 131.763C174.47 131.806 174.545 131.903 174.601 131.861Z" fill="#3D423E"/>
<path d="M177.356 135.322C179.18 134.738 180.958 134.031 182.771 133.416C184.571 132.806 186.414 132.378 188.279 132.019C192.079 131.288 195.932 130.945 199.779 130.582C199.816 130.578 199.818 130.519 199.779 130.521C195.98 130.703 192.185 131.134 188.445 131.831C186.581 132.177 184.733 132.603 182.933 133.203C181.047 133.83 179.212 134.597 177.338 135.256C177.297 135.271 177.314 135.335 177.356 135.322Z" fill="#3D423E"/>
<path d="M202.633 130.173C203.42 130.182 204.182 130.247 204.962 130.364C205.016 130.373 205.035 130.302 204.984 130.282C204.233 129.988 203.427 130.008 202.633 130.016C202.531 130.017 202.531 130.172 202.633 130.173Z" fill="#3D423E"/>
<path d="M179.626 137.703C181.155 138.195 182.675 138.718 184.237 139.1C185.822 139.486 187.425 139.631 189.052 139.69C192.371 139.81 195.757 139.599 198.989 138.804C199.034 138.793 199.014 138.728 198.971 138.737C195.766 139.362 192.526 139.63 189.263 139.544C187.576 139.498 185.92 139.345 184.271 138.978C182.704 138.628 181.171 138.133 179.635 137.669C179.613 137.662 179.604 137.695 179.626 137.703Z" fill="#3D423E"/>
<path d="M201.508 137.804C202.047 137.7 202.65 137.65 203.109 137.321C203.142 137.297 203.123 137.233 203.078 137.249C202.546 137.442 202.03 137.572 201.475 137.683C201.395 137.699 201.43 137.819 201.508 137.804Z" fill="#3D423E"/>
<path d="M189.39 135.571C192.574 135.572 195.761 135.287 198.922 134.928C198.972 134.923 198.974 134.846 198.922 134.85C195.742 135.059 192.581 135.446 189.39 135.462C189.32 135.463 189.32 135.571 189.39 135.571Z" fill="#3D423E"/>
<path d="M178.287 131.396C184.089 128.291 190.377 126.498 196.763 125.047C196.805 125.038 196.787 124.975 196.745 124.983C190.358 126.193 183.947 128.164 178.234 131.306C178.175 131.338 178.227 131.428 178.287 131.396Z" fill="#3D423E"/>
<path d="M164.402 131.371C160.302 129.067 157.211 125.243 155.49 120.893C153.817 116.666 153.484 111.716 155.596 107.581C156.74 105.341 158.619 103.473 160.812 102.257C163.459 100.791 166.567 100.743 169.38 101.734C175.165 103.77 179.546 109.86 179.919 115.926C180.093 118.742 179.303 121.491 177.996 123.965C176.709 126.397 174.909 128.505 173.41 130.801C173.336 130.915 173.516 131.017 173.59 130.906C175.372 128.255 177.458 125.784 178.78 122.853C179.993 120.16 180.425 117.228 179.949 114.309C179.04 108.718 174.749 103.489 169.434 101.535C166.947 100.62 164.125 100.566 161.669 101.612C159.403 102.578 157.449 104.284 156.083 106.326C153.625 110.001 153.458 114.688 154.586 118.849C155.986 124.01 159.497 129.037 164.339 131.481C164.411 131.517 164.475 131.412 164.402 131.371Z" fill="#3D423E"/>
<path d="M164.615 101.976C164.015 103.365 163.883 104.887 163.833 106.383C163.776 108.08 163.757 109.802 163.842 111.495C164.035 115.291 164.96 119.023 166.133 122.624C166.144 122.658 166.196 122.644 166.186 122.61C165.166 119.037 164.245 115.433 164.005 111.71C163.902 110.126 163.95 108.525 163.969 106.937C163.991 105.291 164.079 103.579 164.736 102.047C164.772 101.964 164.651 101.892 164.615 101.976Z" fill="#3D423E"/>
<path d="M166.793 125.086C167.145 126.111 167.598 127.104 168.009 128.105C168.026 128.147 168.091 128.132 168.078 128.087C167.785 127.043 167.25 126.08 166.897 125.057C166.874 124.992 166.771 125.02 166.793 125.086Z" fill="#3D423E"/>
<path d="M172.58 129.939C174.666 125.584 174.559 120.294 174.122 115.595C174.118 115.561 174.064 115.56 174.066 115.595C174.336 120.387 174.438 125.404 172.525 129.907C172.51 129.943 172.562 129.975 172.58 129.939Z" fill="#3D423E"/>
<path d="M165.988 129.924C165.288 129.288 164.787 128.481 164.233 127.724C163.66 126.94 163.026 126.202 162.451 125.419C161.266 123.806 160.267 122.09 159.567 120.212C159.555 120.176 159.498 120.191 159.511 120.228C160.126 122.141 161.123 123.885 162.289 125.514C162.887 126.351 163.555 127.133 164.166 127.959C164.703 128.685 165.186 129.442 165.875 130.036C165.953 130.103 166.064 129.994 165.988 129.924Z" fill="#3D423E"/>
<path d="M158.454 104.375C157.08 106.948 157.107 110.139 157.729 112.925C157.74 112.978 157.817 112.954 157.809 112.903C157.379 110.08 157.197 107.052 158.568 104.442C158.607 104.367 158.494 104.3 158.454 104.375Z" fill="#3D423E"/>
<path d="M169.899 102.496C171.077 103.783 171.572 105.447 172.183 107.042C172.196 107.074 172.248 107.062 172.237 107.027C171.703 105.394 171.149 103.722 169.955 102.44C169.92 102.403 169.865 102.459 169.899 102.496Z" fill="#3D423E"/>
<path d="M177.578 111.273C178.242 112.953 178.23 114.732 178.28 116.509C178.282 116.557 178.355 116.557 178.356 116.509C178.405 114.732 178.353 112.916 177.687 111.243C177.66 111.177 177.552 111.206 177.578 111.273Z" fill="#3D423E"/>
<path d="M163.095 132.715C161.725 131.799 160.518 130.65 159.082 129.83C157.547 128.951 155.935 128.199 154.34 127.437C152.101 126.365 149.784 125.422 147.37 124.83C145.035 124.257 142.549 124.053 140.213 124.722C137.817 125.407 135.891 127.146 134.69 129.299C132.215 133.739 133.95 139.177 137.224 142.686C141.346 147.103 147.942 148.266 153.535 146.334C156.91 145.167 159.854 143.056 162.868 141.199C162.976 141.132 162.877 140.963 162.769 141.029C160.07 142.684 157.441 144.503 154.511 145.735C151.442 147.024 148.125 147.411 144.862 146.707C139.289 145.505 134.499 140.962 133.796 135.175C133.464 132.442 134.314 129.798 136.069 127.695C137.803 125.618 140.313 124.613 142.975 124.526C145.574 124.44 148.164 125.143 150.582 126.038C153.407 127.082 156.158 128.447 158.8 129.888C160.315 130.713 161.544 131.957 163.061 132.774C163.1 132.795 163.131 132.739 163.095 132.715Z" fill="#3D423E"/>
<path d="M135.662 134.096C138.949 135.359 142.488 135.333 145.954 135.503C149.923 135.699 153.976 136.096 157.94 135.625C158.005 135.617 158.008 135.521 157.94 135.522C156.054 135.558 154.173 135.621 152.286 135.584C150.325 135.546 148.365 135.437 146.406 135.327C142.813 135.124 139.123 135.237 135.697 133.968C135.617 133.938 135.583 134.066 135.662 134.096Z" fill="#3D423E"/>
<path d="M137.449 128.481C139.784 128.234 142.13 128.231 144.463 128.493C146.875 128.765 149.202 129.38 151.539 130.015C151.582 130.026 151.599 129.961 151.557 129.947C147.041 128.393 142.191 127.841 137.449 128.398C137.398 128.405 137.397 128.486 137.449 128.481Z" fill="#3D423E"/>
<path d="M156.841 131.915C157.767 132.268 158.706 132.607 159.639 132.937C159.692 132.956 159.721 132.877 159.677 132.849C158.835 132.322 157.798 132.136 156.87 131.812C156.804 131.789 156.778 131.891 156.841 131.915Z" fill="#3D423E"/>
<path d="M141.844 141.842C144.711 142.173 147.579 142.035 150.426 141.601C153.303 141.162 156.205 140.49 158.977 139.604C159.02 139.59 159.002 139.527 158.959 139.536C156.167 140.168 153.43 140.968 150.6 141.434C147.708 141.912 144.761 142.063 141.844 141.75C141.785 141.744 141.786 141.836 141.844 141.842Z" fill="#3D423E"/>
<path d="M137.32 141.048C138.231 141.267 139.14 141.345 140.074 141.311C140.112 141.31 140.112 141.254 140.074 141.252C139.158 141.211 138.246 141.152 137.349 140.945C137.282 140.929 137.253 141.032 137.32 141.048Z" fill="#3D423E"/>
<path d="M148.066 145.624C150.589 145.663 153.034 144.918 155.382 144.059C155.427 144.042 155.41 143.971 155.361 143.985C152.947 144.678 150.614 145.529 148.066 145.503C147.987 145.502 147.987 145.623 148.066 145.624Z" fill="#3D423E"/>
<path d="M149.929 127.086C151.059 127.32 152.15 127.675 153.249 128.021C153.3 128.037 153.317 127.963 153.271 127.944C152.204 127.501 151.101 127.172 149.97 126.938C149.874 126.919 149.833 127.066 149.929 127.086Z" fill="#3D423E"/>
<path d="M162.747 141.504C160.349 143.012 158.264 145.041 156.512 147.256C154.767 149.46 153.375 151.972 152.624 154.689C151.318 159.412 152.504 165.157 156.725 168.052C159.617 170.035 163.431 169.982 166.474 168.379C168.07 167.539 169.405 166.259 170.375 164.745C170.912 163.907 171.313 162.985 171.608 162.037C172.057 160.585 172.468 159.06 172.448 157.531C172.446 157.418 172.28 157.419 172.275 157.531C172.205 159.2 171.739 160.922 171.188 162.495C170.805 163.591 170.226 164.619 169.509 165.529C168.213 167.173 166.408 168.375 164.405 168.971C162.472 169.546 160.38 169.474 158.496 168.755C156.367 167.94 154.731 166.247 153.682 164.255C151.561 160.225 152.107 155.529 154.028 151.546C155.986 147.487 159.21 144.243 162.798 141.592C162.849 141.555 162.803 141.469 162.747 141.504Z" fill="#3D423E"/>
<path d="M166.268 144.13C160.185 149.274 157.595 158.302 159.046 166.008C159.055 166.054 159.123 166.033 159.117 165.988C157.976 158.129 160.34 149.612 166.394 144.257C166.481 144.18 166.355 144.057 166.268 144.13Z" fill="#3D423E"/>
<path d="M164.584 168.473C165.992 166.887 166.206 164.629 166.45 162.611C166.787 159.815 166.952 156.996 167.049 154.182C167.05 154.139 166.986 154.14 166.983 154.182C166.805 156.696 166.683 159.215 166.426 161.724C166.196 163.949 166.057 166.642 164.539 168.429C164.513 168.46 164.556 168.504 164.584 168.473Z" fill="#3D423E"/>
<path d="M167.521 150.813C167.587 148.577 168.086 146.375 168.078 144.135C168.078 144.09 168.011 144.091 168.008 144.135C167.858 146.364 167.39 148.574 167.424 150.813C167.425 150.877 167.519 150.877 167.521 150.813Z" fill="#3D423E"/>
<path d="M157.182 150.096C158.584 147.869 160.451 146.06 162.355 144.269C162.38 144.245 162.342 144.209 162.316 144.232C160.312 145.901 158.475 147.823 157.1 150.049C157.068 150.101 157.15 150.148 157.182 150.096Z" fill="#3D423E"/>
<path d="M154.66 156.564C153.63 158.856 153.519 161.674 154.491 164.006C154.503 164.035 154.551 164.024 154.54 163.993C153.684 161.601 153.67 158.933 154.714 156.595C154.73 156.559 154.676 156.527 154.66 156.564Z" fill="#3D423E"/>
<path d="M159.847 168.909C159.846 168.757 159.844 168.605 159.837 168.452C159.836 168.435 159.811 168.435 159.811 168.452C159.803 168.605 159.802 168.757 159.8 168.909C159.799 168.94 159.848 168.94 159.847 168.909Z" fill="#3D423E"/>
<path d="M170.249 143.375C170.107 146.965 170.47 150.532 171.255 154.036C171.956 157.165 172.993 160.269 175.039 162.788C176.893 165.071 179.559 167.043 182.478 167.624C185.46 168.219 188.579 167.256 191.1 165.673C193.523 164.152 195.079 161.811 195.226 158.924C195.369 156.11 194.208 153.308 192.816 150.924C191.352 148.42 189.313 146.317 186.953 144.648C185.645 143.722 184.225 142.945 182.839 142.144C181.4 141.312 179.929 140.533 178.378 139.929C177.695 139.663 176.994 139.45 176.28 139.288C176.112 139.25 176.04 139.505 176.208 139.546C179.549 140.344 182.53 142.241 185.447 143.982C188.105 145.57 190.402 147.695 192.12 150.274C193.769 152.75 195.041 155.737 195.005 158.754C194.986 160.311 194.499 161.804 193.622 163.085C192.7 164.429 191.302 165.399 189.882 166.153C187.226 167.566 184.093 168.07 181.206 167.107C178.524 166.213 176.13 164.083 174.511 161.815C172.743 159.338 171.905 156.284 171.275 153.347C170.567 150.041 170.393 146.743 170.366 143.375C170.366 143.299 170.252 143.299 170.249 143.375Z" fill="#3D423E"/>
<path d="M174.794 142.864C176.871 144.891 178.808 147.057 180.555 149.375C182.321 151.718 183.786 154.231 185.217 156.787C185.264 156.871 185.383 156.797 185.343 156.712C182.93 151.439 179.115 146.699 174.876 142.782C174.821 142.731 174.74 142.811 174.794 142.864Z" fill="#3D423E"/>
<path d="M187.019 160.911C187.717 162.119 188.254 163.362 188.651 164.699C188.672 164.77 188.769 164.739 188.759 164.669C188.557 163.274 187.906 162.007 187.196 160.808C187.128 160.695 186.952 160.797 187.019 160.911Z" fill="#3D423E"/>
<path d="M176.691 141.159C180.781 142.971 183.866 146.18 187.033 149.234C187.056 149.256 187.09 149.221 187.068 149.198C184.015 146.026 180.864 142.789 176.734 141.056C176.675 141.032 176.633 141.133 176.691 141.159Z" fill="#3D423E"/>
<path d="M172.117 144.421C172.006 150.191 173.953 155.755 176.475 160.869C176.486 160.891 176.518 160.872 176.507 160.851C174.082 155.689 172.122 150.196 172.19 144.421C172.191 144.374 172.118 144.374 172.117 144.421Z" fill="#3D423E"/>
<path d="M178.96 164.442C179.861 165.48 181.104 166.124 182.298 166.765C182.332 166.782 182.359 166.735 182.328 166.714C181.194 165.972 179.948 165.397 179.044 164.357C178.994 164.299 178.91 164.384 178.96 164.442Z" fill="#3D423E"/>
<path d="M176.293 150.193C178.205 155.63 181.911 160.4 185.658 164.706C185.685 164.737 185.727 164.693 185.703 164.662C182.146 160.128 178.361 155.662 176.346 150.178C176.334 150.145 176.281 150.159 176.293 150.193Z" fill="#3D423E"/>
<path d="M190.081 153.813C191.237 156.227 191.399 158.766 191.732 161.374C191.741 161.442 191.843 161.447 191.842 161.374C191.83 158.783 191.347 156.08 190.184 153.753C190.15 153.683 190.048 153.744 190.081 153.813Z" fill="#3D423E"/>
<path d="M194.508 154.993C196.426 155.594 198.585 155.705 200.476 154.961C202.418 154.195 203.881 152.41 204.658 150.515C205.449 148.584 205.582 146.463 204.891 144.483C204.175 142.424 202.658 140.893 200.6 140.204C200.42 140.143 200.35 140.42 200.523 140.486C201.475 140.852 202.334 141.286 203.044 142.037C203.766 142.802 204.305 143.729 204.656 144.717C205.333 146.621 205.132 148.734 204.353 150.571C203.566 152.424 202.17 154.064 200.276 154.82C198.423 155.561 196.433 155.281 194.546 154.853C194.455 154.832 194.417 154.965 194.508 154.993Z" fill="#3D423E"/>
<path d="M192.801 145.158C196.901 146.473 201.105 148.196 204.093 151.409C204.119 151.436 204.168 151.398 204.145 151.369C202.836 149.671 200.907 148.495 199.026 147.527C197.047 146.508 194.946 145.73 192.83 145.057C192.764 145.036 192.737 145.137 192.801 145.158Z" fill="#3D423E"/>
<path d="M183.606 142.114C185.384 142.874 187.213 143.597 189.095 144.058C189.142 144.07 189.162 143.999 189.115 143.984C187.268 143.383 185.436 142.775 183.636 142.043C183.595 142.027 183.566 142.096 183.606 142.114Z" fill="#3D423E"/>
<path d="M200.044 142.785C201.335 143.03 202.567 143.433 203.696 144.115C203.737 144.139 203.787 144.079 203.748 144.048C202.705 143.218 201.375 142.87 200.086 142.632C199.986 142.613 199.943 142.765 200.044 142.785Z" fill="#3D423E"/>
<path d="M192.413 147.507C194.158 149.516 196.209 151.535 198.61 152.744C198.673 152.777 198.723 152.691 198.664 152.651C197.528 151.869 196.407 151.095 195.363 150.189C194.358 149.32 193.43 148.364 192.532 147.387C192.458 147.306 192.342 147.425 192.413 147.507Z" fill="#3D423E"/>
<path d="M167.949 167.206C168.341 168.506 169.787 169.601 170.911 170.247C172.326 171.061 174.002 171.132 175.581 170.92C177.808 170.623 180.897 169.909 181.645 167.46C181.697 167.292 181.436 167.222 181.383 167.388C180.637 169.72 177.668 170.342 175.548 170.677C174 170.922 172.424 170.794 171.023 170.056C170.371 169.713 169.783 169.226 169.256 168.715C168.773 168.248 168.449 167.669 168.014 167.168C167.988 167.138 167.938 167.169 167.949 167.206Z" fill="#3D423E"/>
<path d="M172.779 161.716C172.772 164.628 172.752 167.587 173.324 170.456C173.331 170.492 173.383 170.476 173.378 170.441C172.957 167.542 172.902 164.641 172.896 161.716C172.896 161.641 172.779 161.641 172.779 161.716Z" fill="#3D423E"/>
<path d="M177.625 170.277C177.63 169.473 177.681 168.671 177.545 167.873C177.539 167.844 177.489 167.851 177.492 167.88C177.559 168.679 177.53 169.477 177.527 170.277C177.527 170.341 177.624 170.341 177.625 170.277Z" fill="#3D423E"/>
<path d="M170.023 168.52C170.078 168.191 170.136 167.863 170.238 167.546C170.247 167.517 170.201 167.496 170.188 167.525C170.052 167.834 169.998 168.166 169.943 168.497C169.934 168.551 170.015 168.573 170.023 168.52Z" fill="#3D423E"/>
<path d="M139.969 144.745C139.124 145.048 138.726 145.921 138.393 146.689C137.881 147.868 137.489 149.054 137.372 150.342C137.136 152.942 137.99 155.621 139.55 157.693C142.474 161.576 148.032 162.926 152.582 161.595C152.658 161.573 152.646 161.448 152.563 161.454C152.529 161.456 152.495 161.459 152.46 161.461C152.378 161.468 152.378 161.584 152.46 161.589C152.495 161.592 152.529 161.595 152.563 161.598C152.557 161.55 152.551 161.503 152.544 161.456C151.408 161.625 150.325 161.868 149.168 161.883C148.031 161.896 146.897 161.741 145.796 161.461C143.593 160.9 141.567 159.707 140.068 157.994C138.417 156.107 137.572 153.59 137.555 151.103C137.547 149.769 137.865 148.48 138.379 147.255C138.729 146.421 139.112 145.225 139.999 144.817C140.039 144.798 140.011 144.73 139.969 144.745Z" fill="#3D423E"/>
<path d="M139.691 156.806C144.891 155.066 149.9 151.842 153.524 147.709C153.565 147.662 153.499 147.594 153.454 147.639C149.552 151.575 144.926 154.863 139.66 156.694C139.59 156.718 139.62 156.829 139.691 156.806Z" fill="#3D423E"/>
<path d="M145.847 160.258C147.525 159.573 148.813 158.355 149.909 156.937C149.926 156.914 149.896 156.884 149.877 156.906C148.732 158.267 147.501 159.505 145.833 160.205C145.8 160.219 145.815 160.271 145.847 160.258Z" fill="#3D423E"/>
<path d="M140.106 150.753C142.23 149.736 144.506 149.107 146.703 148.272C146.736 148.259 146.723 148.207 146.688 148.219C144.45 148.965 142.177 149.621 140.043 150.647C139.972 150.681 140.034 150.787 140.106 150.753Z" fill="#3D423E"/>
<path d="M139.364 147.043C139.73 146.766 140.199 146.675 140.646 146.624C140.689 146.619 140.69 146.56 140.646 146.556C140.153 146.514 139.678 146.632 139.29 146.946C139.235 146.99 139.309 147.085 139.364 147.043Z" fill="#3D423E"/>
<path d="M144.378 124.386C143.41 123.764 142.581 123.092 141.923 122.134C141.297 121.221 140.891 120.181 140.639 119.108C140.127 116.931 140.321 114.495 141.352 112.496C142.522 110.228 144.863 109.088 147.325 108.866C148.497 108.76 149.684 108.871 150.83 109.126C151.981 109.383 153.39 109.801 154.2 110.699C154.245 110.748 154.344 110.696 154.316 110.631C153.93 109.705 152.488 109.312 151.607 109.051C150.462 108.713 149.258 108.565 148.066 108.58C145.756 108.61 143.411 109.424 141.901 111.233C139.131 114.549 139.645 120.465 142.716 123.403C143.183 123.85 143.738 124.237 144.344 124.467C144.393 124.486 144.419 124.412 144.378 124.386Z" fill="#3D423E"/>
<path d="M142.534 111.232C143.86 113.654 145.539 115.87 147.327 117.967C149.206 120.172 151.178 122.315 153.187 124.402C153.207 124.423 153.237 124.392 153.218 124.371C151.397 122.287 149.468 120.302 147.687 118.181C145.831 115.971 144.107 113.657 142.638 111.171C142.598 111.104 142.497 111.164 142.534 111.232Z" fill="#3D423E"/>
<path d="M146.76 109.367C148.422 110.892 149.788 112.656 151.11 114.476C151.142 114.521 151.216 114.481 151.186 114.432C150 112.511 148.538 110.776 146.859 109.267C146.792 109.207 146.693 109.305 146.76 109.367Z" fill="#3D423E"/>
<path d="M142.942 120.548C144.514 122.107 146.451 123.243 148.275 124.474C148.309 124.497 148.352 124.443 148.32 124.418C146.596 123.039 144.62 122.01 143.029 120.461C142.972 120.406 142.886 120.492 142.942 120.548Z" fill="#3D423E"/>
<path d="M141.343 118.363C141.558 118.681 141.788 118.991 142.05 119.272C142.074 119.299 142.121 119.264 142.1 119.234C141.885 118.921 141.644 118.627 141.433 118.31C141.395 118.255 141.306 118.307 141.343 118.363Z" fill="#3D423E"/>
<path d="M152.051 110.413C152.501 110.814 152.834 111.293 153.158 111.798C153.189 111.846 153.276 111.815 153.253 111.758C153.026 111.178 152.649 110.691 152.187 110.277C152.094 110.194 151.957 110.33 152.051 110.413Z" fill="#3D423E"/>
<path d="M179.731 113.617C179.859 112.268 181.175 111.276 182.168 110.513C183.241 109.687 184.331 108.887 185.538 108.263C188.205 106.883 191.482 106.362 194.387 107.238C196.798 107.966 198.869 109.752 199.769 112.123C200.78 114.79 199.993 117.785 198.404 120.051C197.91 120.754 197.311 121.379 196.639 121.913C196.531 121.999 196.685 122.15 196.791 122.064C198.934 120.35 200.344 117.664 200.465 114.916C200.567 112.63 199.55 110.455 197.883 108.922C193.796 105.162 187.229 106.352 183.176 109.515C182.401 110.12 181.596 110.679 180.879 111.355C180.256 111.943 179.589 112.712 179.606 113.617C179.608 113.699 179.723 113.696 179.731 113.617Z" fill="#3D423E"/>
<path d="M176.567 129.086C180.147 125.892 183.858 122.861 187.578 119.833C187.595 119.82 187.571 119.789 187.554 119.803C183.744 122.714 180.071 125.817 176.529 129.048C176.503 129.071 176.541 129.108 176.567 129.086Z" fill="#3D423E"/>
<path d="M190.839 117.461C193.526 115.502 196.451 113.774 198.943 111.564C198.969 111.542 198.935 111.497 198.907 111.517C196.194 113.453 193.453 115.374 190.795 117.384C190.749 117.418 190.793 117.495 190.839 117.461Z" fill="#3D423E"/>
<path d="M179.716 122.462C183.035 117.489 187.346 113.458 191.994 109.753C192.038 109.717 191.98 109.642 191.933 109.674C187.101 113.074 182.875 117.478 179.659 122.429C179.636 122.465 179.692 122.498 179.716 122.462Z" fill="#3D423E"/>
<path d="M192.331 121.012C194.236 120.024 196.094 118.905 197.856 117.683C197.895 117.656 197.861 117.595 197.82 117.62C195.972 118.725 194.186 119.917 192.273 120.911C192.204 120.946 192.264 121.047 192.331 121.012Z" fill="#3D423E"/>
<path d="M181.894 112.552C183.842 111.022 185.851 109.586 187.981 108.32C188.02 108.297 187.986 108.239 187.946 108.261C185.741 109.412 183.756 110.927 181.818 112.475C181.763 112.519 181.841 112.595 181.894 112.552Z" fill="#3D423E"/>
<path d="M152.384 161.546C146.24 171.869 142.691 183.786 139.869 195.384C136.963 207.322 134.918 219.563 133.978 231.818C133.928 232.466 133.883 233.113 133.839 233.762C133.834 233.853 133.973 233.851 133.98 233.762C135.045 221.389 136.936 209.077 139.766 196.982C142.575 184.982 146.315 173.056 152.227 162.197C152.33 162.009 152.433 161.822 152.538 161.636C152.594 161.535 152.443 161.447 152.384 161.546Z" fill="#3D423E"/>
<path d="M134.675 226.657C135.213 223.791 137.379 221.42 139.069 219.151C141.378 216.053 143.636 212.936 146.068 209.931C150.868 204.001 156.077 198.442 161.248 192.839C161.309 192.772 161.212 192.675 161.148 192.739C155.697 198.272 150.499 204.082 145.616 210.122C143.27 213.024 141.081 216.029 138.886 219.044C137.21 221.345 135.025 223.715 134.589 226.633C134.581 226.689 134.665 226.714 134.675 226.657Z" fill="#3D423E"/>
<path d="M137.928 220.576C140.424 216.937 141.942 212.768 144.059 208.916C146.206 205.01 148.944 201.5 151.97 198.239C154.925 195.057 158.158 192.143 161.417 189.278C163.133 187.768 164.87 186.289 166.496 184.68C168.174 183.018 169.777 181.284 171.502 179.669C171.436 179.617 171.368 179.566 171.302 179.515C169.973 181.539 169.143 183.786 168.369 186.067C167.462 188.735 166.47 191.333 165.181 193.846C162.743 198.6 159.412 202.866 155.544 206.539C153.617 208.369 151.521 210.011 149.277 211.433C147.897 212.308 146.559 213.153 145.261 214.153C142.686 216.133 140.116 218.193 137.768 220.442C137.639 220.565 137.834 220.76 137.962 220.637C140.43 218.275 143.122 216.097 145.834 214.027C147.209 212.978 148.67 212.133 150.118 211.195C152.247 209.817 154.204 208.183 156.037 206.437C159.714 202.934 162.805 198.819 165.203 194.347C166.407 192.1 167.378 189.744 168.203 187.336C169.113 184.678 169.962 182.006 171.522 179.643C171.604 179.518 171.425 179.392 171.322 179.488C168.017 182.567 164.95 185.842 161.55 188.825C158.183 191.781 154.866 194.798 151.802 198.071C148.848 201.225 146.183 204.659 144.068 208.434C141.851 212.391 140.299 216.7 137.802 220.502C137.75 220.582 137.875 220.652 137.928 220.576Z" fill="#3D423E"/>
<path d="M136.797 211.149C137.075 202.171 134.74 193.246 133.969 184.336C133.962 184.262 133.849 184.261 133.853 184.336C134.094 188.61 134.735 192.84 135.348 197.072C136.026 201.756 136.522 206.42 136.708 211.149C136.71 211.206 136.796 211.206 136.797 211.149Z" fill="#3D423E"/>
<path d="M136.7 205.013C135.975 202.226 134.378 199.818 133.17 197.232C131.58 193.821 131.099 189.877 130.89 186.16C130.69 182.565 130.882 178.957 130.969 175.361C131.011 173.642 131.018 171.924 130.99 170.205C130.974 169.295 130.929 168.385 130.901 167.476C130.899 167.415 130.922 166.458 130.928 166.464C131.26 166.819 131.552 167.196 131.843 167.586C135.355 172.298 136.248 178.566 137.342 184.183C138.038 187.764 138.1 191.268 137.691 194.888C137.484 196.718 137.165 198.536 136.853 200.352C136.601 201.809 136.233 203.203 136.471 204.688C136.489 204.8 136.675 204.774 136.667 204.662C136.525 202.775 137.044 200.917 137.356 199.069C137.668 197.227 137.936 195.379 138.109 193.519C138.442 189.941 138.073 186.544 137.384 183.041C136.198 177.017 134.931 170.829 130.843 166.027C130.775 165.946 130.64 166.013 130.641 166.111C130.664 169.513 130.801 172.898 130.717 176.303C130.627 179.902 130.506 183.499 130.746 187.095C130.96 190.292 131.498 193.572 132.688 196.56C133.845 199.464 135.741 202.003 136.559 205.052C136.583 205.142 136.723 205.104 136.7 205.013Z" fill="#3D423E"/>
<path d="M92.5784 111.018C92.007 107.764 88.9826 106.201 85.8794 106.267C82.4582 106.34 80.036 109.181 80.0918 112.517C80.1194 114.137 80.8639 115.565 81.9944 116.692C83.1633 117.858 84.6091 118.015 86.1815 118.101C87.8578 118.192 89.3774 117.845 90.6231 116.677C91.8386 115.538 92.5656 114.048 92.6793 112.39C92.711 111.931 92.6521 111.472 92.5523 111.025C92.5375 110.96 92.4289 110.974 92.4356 111.041C92.5922 112.701 92.242 114.188 91.2605 115.541C90.2212 116.974 88.8342 117.753 87.0637 117.836C85.6127 117.905 83.9732 117.808 82.748 116.97C81.4255 116.065 80.5812 114.518 80.3938 112.952C80.1967 111.303 80.7108 109.708 81.7588 108.439C82.7849 107.197 84.303 106.619 85.8794 106.538C88.8731 106.385 91.7521 108.029 92.411 111.065C92.4356 111.175 92.5974 111.127 92.5784 111.018Z" fill="#3D423E"/>
<path d="M90.1211 107.427C90.781 103.304 92.463 99.4448 94.3947 95.7722C95.9738 92.7698 97.6475 89.6328 100.391 87.5259C103.002 85.5219 106.183 85.2936 109.203 86.4666C112.228 87.6416 114.386 90.0178 114.785 93.2905C115.095 95.8423 114.349 98.4382 113.291 100.735C112.145 103.222 110.514 105.47 108.498 107.321C106.5 109.155 104.094 110.505 101.514 111.328C100.146 111.763 98.7288 112.114 97.3306 112.44C95.7807 112.803 94.1454 113.066 92.5633 112.764C92.3452 112.722 92.2515 113.054 92.4706 113.099C94.1183 113.437 95.8079 113.15 97.4253 112.785C99.0744 112.411 100.755 111.985 102.35 111.422C105.257 110.395 107.857 108.623 109.955 106.374C113.621 102.443 116.87 95.7251 114.272 90.4346C112.971 87.784 110.112 86.2367 107.317 85.6602C104.593 85.0985 101.97 85.9356 99.8486 87.6693C97.2952 89.7541 95.7142 92.799 94.1992 95.6575C92.3278 99.1893 90.6674 102.938 90.0064 106.905C89.9813 107.061 89.9578 107.219 89.9357 107.376C89.9183 107.496 90.1016 107.549 90.1211 107.427Z" fill="#3D423E"/>
<path d="M92.6164 109.118C95.5389 107.323 98.2192 105.144 100.694 102.775C103.214 100.364 105.554 97.6966 107.414 94.7403C107.437 94.7039 107.382 94.6737 107.358 94.7075C103.425 100.392 98.3533 105.257 92.5647 109.03C92.5099 109.065 92.56 109.153 92.6164 109.118Z" fill="#3D423E"/>
<path d="M108.958 91.8148C109.78 90.6843 110.629 89.5257 111.174 88.2293C111.194 88.1806 111.118 88.1525 111.092 88.1945C110.362 89.3941 109.618 90.5768 108.846 91.7498C108.799 91.8205 108.91 91.8809 108.958 91.8148Z" fill="#3D423E"/>
<path d="M93.9275 110.999C97.2421 110.607 100.333 109.108 103.216 107.501C103.257 107.478 103.22 107.416 103.179 107.438C100.232 108.922 97.2483 110.484 93.9275 110.892C93.8609 110.9 93.8594 111.006 93.9275 110.999Z" fill="#3D423E"/>
<path d="M108.92 102.14C110.632 100.282 112.622 98.5663 113.738 96.2531C113.753 96.2218 113.708 96.1942 113.691 96.2249C112.455 98.49 110.591 100.209 108.883 102.104C108.86 102.128 108.897 102.165 108.92 102.14Z" fill="#3D423E"/>
<path d="M92.5441 104.629C94.7651 99.0034 98.5836 94.2459 102.326 89.5734C102.348 89.5463 102.311 89.5064 102.286 89.534C98.2949 93.9346 94.5885 99.0255 92.4591 104.606C92.4391 104.658 92.5236 104.68 92.5441 104.629Z" fill="#3D423E"/>
<path d="M80.3859 110.529C76.6314 109.364 73.2814 107.304 70.1413 104.978C67.3319 102.899 64.5144 100.71 62.2258 98.05C60.0774 95.555 58.1702 92.3499 58.5112 88.9353C58.6822 87.2171 59.612 85.6509 60.5945 84.2725C61.7737 82.6198 63.3665 81.5902 65.2747 80.9292C66.696 80.4372 68.2269 80.3445 69.7194 80.2969C71.3711 80.2462 72.9071 80.5027 74.4052 81.2077C77.1854 82.5154 79.6015 84.9074 81.2706 87.4577C84.9391 93.0641 83.7385 100.275 85.2171 106.531C85.2642 106.732 85.573 106.647 85.5248 106.447C84.5741 102.466 84.6355 98.3469 83.9801 94.3211C83.6683 92.4057 83.1737 90.5082 82.312 88.7628C81.5041 87.1254 80.3552 85.6805 79.0844 84.3801C77.81 83.076 76.3462 81.9348 74.7242 81.0976C73.1431 80.2815 71.4843 80.024 69.7194 80.0588C66.3207 80.1264 62.791 80.9804 60.637 83.8138C59.7636 84.9632 58.9715 86.2397 58.5332 87.6231C58.1144 88.9471 58.1533 90.3684 58.4472 91.7129C59.0939 94.6677 61.0707 97.2548 63.1166 99.3986C65.3915 101.782 68.1025 103.814 70.7649 105.741C73.6869 107.856 76.849 109.715 80.3286 110.737C80.4622 110.776 80.518 110.57 80.3859 110.529Z" fill="#3D423E"/>
<path d="M64.0126 84.6183C67.3662 87.3304 70.5862 90.217 73.4636 93.4355C76.4128 96.7343 78.8146 100.372 80.7013 104.37C80.7207 104.411 80.7929 104.382 80.776 104.339C79.2267 100.383 76.6667 96.8285 73.8968 93.6408C70.9671 90.2693 67.6263 87.2689 64.1253 84.5057C64.0459 84.4437 63.9328 84.5538 64.0126 84.6183Z" fill="#3D423E"/>
<path d="M81.9571 106.326C82.0385 106.481 82.147 106.615 82.2366 106.765C82.2484 106.784 82.2745 106.767 82.2663 106.748C82.1946 106.588 82.0912 106.449 82.0108 106.295C81.9924 106.259 81.9381 106.291 81.9571 106.326Z" fill="#3D423E"/>
<path d="M68.0453 81.5032C70.7835 83.0853 73.2339 85.0125 75.4519 87.2627C75.4857 87.2965 75.5348 87.2463 75.5041 87.211C73.4003 84.8271 70.8884 82.924 68.1149 81.3839C68.0371 81.3409 67.9685 81.4592 68.0453 81.5032Z" fill="#3D423E"/>
<path d="M80.3587 94.8252C82.3325 98.4998 83.2751 102.673 83.9243 106.762C83.9284 106.787 83.9704 106.781 83.9673 106.756C83.4558 102.663 82.4108 98.4297 80.4017 94.8001C80.3864 94.7714 80.3434 94.797 80.3587 94.8252Z" fill="#3D423E"/>
<path d="M77.117 85.776C78.4041 86.9859 79.5449 88.2567 80.6134 89.6626C80.6436 89.7031 80.7081 89.6693 80.682 89.6227C79.8157 88.0928 78.5004 86.8533 77.226 85.6665C77.1533 85.5984 77.0437 85.7074 77.117 85.776Z" fill="#3D423E"/>
<path d="M62.0475 91.2826C64.9413 96.6898 69.1136 101.635 73.7646 105.618C73.7918 105.641 73.8312 105.603 73.8046 105.578C69.322 101.325 65.1308 96.675 62.1684 91.2125C62.1253 91.1331 62.005 91.2033 62.0475 91.2826Z" fill="#3D423E"/>
<path d="M77.1251 107.905C77.7799 108.371 78.4604 108.82 79.2079 109.122C79.2622 109.144 79.2929 109.059 79.2468 109.03C78.5663 108.607 77.8736 108.209 77.2177 107.747C77.1205 107.678 77.0293 107.837 77.1251 107.905Z" fill="#3D423E"/>
<path d="M70.0365 95.1749C71.551 96.6919 73.0199 98.2525 74.495 99.8079C74.4981 99.8115 74.5042 99.8059 74.5006 99.8018C73.0368 98.2361 71.5597 96.6827 70.0457 95.1656C70.0396 95.16 70.0309 95.1682 70.0365 95.1749Z" fill="#3D423E"/>
<path d="M60.3504 87.3629C60.6289 87.8324 60.8721 88.3213 61.1849 88.7699C61.2121 88.8088 61.2689 88.7755 61.2479 88.733C61.0052 88.2435 60.7564 87.7587 60.4784 87.2876C60.4297 87.2057 60.3012 87.2804 60.3504 87.3629Z" fill="#3D423E"/>
<path d="M80.6915 114.729C76.4404 114.953 72.2077 115.713 68.017 116.427C65.0033 116.941 61.9539 117.391 59.1005 118.536C56.9547 119.398 54.897 120.745 53.8228 122.857C52.5822 125.297 53.0932 128.274 54.09 130.701C56.2666 136.001 61.9533 139.66 67.7092 138.665C74.44 137.5 78.3619 130.643 80.7263 124.888C81.7345 122.434 82.4477 119.868 83.0488 117.288C83.0836 117.135 82.8511 117.071 82.8148 117.223C81.8978 121.074 80.6818 124.799 78.8826 128.334C77.2888 131.468 75.1706 134.434 72.2604 136.466C69.5197 138.381 66.1845 139.056 62.9364 138.234C59.8987 137.465 57.2849 135.42 55.5569 132.841C53.9242 130.404 52.8899 127.101 53.6451 124.187C54.3046 121.643 56.5072 120.031 58.7897 119.009C61.5617 117.767 64.6142 117.308 67.5833 116.799C71.9404 116.054 76.297 115.429 80.6915 114.96C80.8359 114.944 80.842 114.722 80.6915 114.729Z" fill="#3D423E"/>
<path d="M57.7598 132.725C58.9026 132.141 60.1069 131.696 61.286 131.193C62.5578 130.65 63.7333 129.942 64.8859 129.183C67.11 127.717 69.179 126.03 71.3017 124.425C71.3268 124.406 71.3028 124.363 71.2761 124.382C69.1129 125.931 67.0383 127.601 64.8265 129.081C63.7477 129.804 62.6361 130.465 61.4544 131.005C60.2149 131.571 58.9328 132.031 57.722 132.661C57.6789 132.683 57.7173 132.747 57.7598 132.725Z" fill="#3D423E"/>
<path d="M74.0676 122.324C76.4417 121.439 78.3684 119.398 80.2295 117.748C80.2638 117.718 80.2193 117.661 80.1814 117.686C78.0658 119.101 76.4315 121.21 74.0358 122.208C73.9652 122.236 73.9934 122.352 74.0676 122.324Z" fill="#3D423E"/>
<path d="M62.3008 124.251C66.5555 121.148 71.506 119.278 76.3777 117.395C76.4161 117.38 76.4012 117.319 76.3603 117.332C73.9406 118.112 71.5751 119.08 69.2665 120.143C66.8151 121.27 64.4266 122.57 62.2721 124.202C62.2439 124.224 62.2711 124.272 62.3008 124.251Z" fill="#3D423E"/>
<path d="M55.2731 127.998C55.9228 127.458 56.6447 127.033 57.3968 126.655C57.4219 126.642 57.404 126.598 57.3774 126.608C56.5812 126.931 55.869 127.384 55.2167 127.942C55.1778 127.975 55.2341 128.03 55.2731 127.998Z" fill="#3D423E"/>
<path d="M57.7629 121.947C60.287 120.353 63.0528 119.344 65.8601 118.375C65.9011 118.362 65.8842 118.299 65.8427 118.311C62.997 119.12 60.2153 120.274 57.7188 121.871C57.6712 121.901 57.7147 121.977 57.7629 121.947Z" fill="#3D423E"/>
<path d="M65.5112 135.484C68.9887 133.842 72.1923 131.699 75.1419 129.237C75.1655 129.217 75.1327 129.174 75.1076 129.193C72.0499 131.526 68.9498 133.745 65.4794 135.43C65.4431 135.448 65.4748 135.501 65.5112 135.484Z" fill="#3D423E"/>
<path d="M76.8508 126.758C77.5886 126.033 78.2987 125.27 78.8926 124.421C78.9136 124.39 78.866 124.355 78.8419 124.381C78.162 125.157 77.4969 125.944 76.7786 126.685C76.7325 126.733 76.8037 126.804 76.8508 126.758Z" fill="#3D423E"/>
<path d="M85.4869 118.003C84.149 121.05 84.299 124.653 84.5996 127.894C84.8694 130.805 85.2647 133.8 86.4213 136.511C87.4612 138.948 89.0914 141.164 91.5438 142.31C94.1479 143.526 97.2055 143.142 99.8285 142.199C104.435 140.541 109.844 135.479 108.291 129.216C107.474 125.923 105.236 123.045 102.557 121.058C100.958 119.872 99.2269 118.87 97.5225 117.844C96.714 117.357 95.9204 116.844 95.091 116.393C94.2416 115.931 93.3558 115.646 92.4286 115.384C92.2023 115.32 91.9831 115.241 91.7645 115.157C91.5705 115.082 91.4875 115.394 91.679 115.467C92.619 115.83 93.5913 116.02 94.5078 116.457C95.4294 116.896 96.2855 117.469 97.1564 117.998C98.8593 119.033 100.582 120.032 102.204 121.193C105.154 123.304 107.61 126.554 108.218 130.205C109.321 136.828 102.521 141.937 96.6393 142.722C94.1207 143.059 91.6309 142.471 89.6827 140.808C87.8278 139.224 86.7126 136.914 86.0071 134.623C85.237 132.123 84.9508 129.438 84.7583 126.838C84.5412 123.904 84.6093 120.859 85.6666 118.08C85.706 117.975 85.5314 117.902 85.4869 118.003Z" fill="#3D423E"/>
<path d="M89.243 118.996C90.9603 122.733 92.2485 126.702 94.2612 130.298C95.9866 133.381 98.2988 136.341 100.927 138.707C100.984 138.759 101.062 138.681 101.011 138.623C99.8107 137.279 98.5553 135.995 97.4212 134.593C96.258 133.155 95.2176 131.621 94.3118 130.008C92.335 126.485 91.0775 122.581 89.3424 118.939C89.3101 118.871 89.2128 118.93 89.243 118.996Z" fill="#3D423E"/>
<path d="M90.768 117.967C95.0161 120.85 98.7501 124.434 101.734 128.616C101.766 128.662 101.841 128.62 101.809 128.572C99.0291 124.269 95.1333 120.61 90.8489 117.829C90.7613 117.771 90.683 117.91 90.768 117.967Z" fill="#3D423E"/>
<path d="M103.405 132.398C103.966 132.875 104.439 133.446 104.856 134.051C104.886 134.094 104.95 134.057 104.926 134.009C104.593 133.334 104.097 132.764 103.526 132.277C103.442 132.206 103.32 132.326 103.405 132.398Z" fill="#3D423E"/>
<path d="M102.437 123.649C104.009 125.579 105.52 127.537 106.643 129.77C106.664 129.812 106.722 129.775 106.704 129.734C105.694 127.432 104.114 125.484 102.532 123.555C102.476 123.488 102.383 123.583 102.437 123.649Z" fill="#3D423E"/>
<path d="M86.2832 120.571C86.2965 126.636 87.4608 133.235 90.7873 138.41C90.8037 138.436 90.8446 138.413 90.8282 138.386C87.6564 132.972 86.4368 126.798 86.4194 120.571C86.4189 120.484 86.2832 120.484 86.2832 120.571Z" fill="#3D423E"/>
<path d="M92.1818 139.876C92.5919 140.208 92.9554 140.589 93.3604 140.925C93.406 140.964 93.4633 140.906 93.4249 140.861C93.0885 140.456 92.6948 140.101 92.2867 139.771C92.213 139.712 92.107 139.816 92.1818 139.876Z" fill="#3D423E"/>
<path d="M94.1534 136.567C95.693 138.301 97.3263 140.148 99.2611 141.452C99.2878 141.471 99.3175 141.431 99.2949 141.409C97.6079 139.757 95.8374 138.229 94.2359 136.485C94.1847 136.429 94.1033 136.512 94.1534 136.567Z" fill="#3D423E"/>
<path d="M105.53 124.421C106.83 126.456 110.161 126.503 112.269 126.291C115.003 126.016 117.324 124.828 118.75 122.407C120.286 119.799 120.149 116.429 119.482 113.572C119.145 112.13 118.515 110.736 117.466 109.672C116.339 108.528 114.782 107.759 113.28 107.239C112.506 106.972 111.697 106.837 110.885 106.755C110.234 106.689 109.424 106.636 108.853 107.018C108.681 107.133 108.843 107.412 109.015 107.296C109.582 106.913 110.407 107.022 111.053 107.085C111.785 107.155 112.5 107.309 113.2 107.533C114.832 108.055 116.507 108.977 117.642 110.281C118.722 111.522 119.194 113.218 119.454 114.807C119.72 116.436 119.803 118.211 119.472 119.834C119.145 121.434 118.332 122.917 117.166 124.056C116.111 125.083 114.775 125.615 113.357 125.905C110.758 126.437 107.59 126.317 105.584 124.38C105.556 124.353 105.508 124.388 105.53 124.421Z" fill="#3D423E"/>
<path d="M96.8695 114.824C100.244 115.073 103.595 115.539 106.92 116.16C110.159 116.766 113.334 117.62 116.554 118.302C116.616 118.315 116.641 118.227 116.581 118.207C113.383 117.174 110.022 116.522 106.717 115.938C103.459 115.362 100.172 114.946 96.8695 114.732C96.8102 114.728 96.8107 114.82 96.8695 114.824Z" fill="#3D423E"/>
<path d="M97.4765 117.334C101.567 118.955 105.687 120.685 109.959 121.776C110.018 121.79 110.041 121.704 109.984 121.685C105.786 120.289 101.638 118.809 97.5098 117.213C97.434 117.184 97.4028 117.304 97.4765 117.334Z" fill="#3D423E"/>
<path d="M114.327 122.578C115.062 122.76 115.808 122.962 116.567 123.011C116.603 123.013 116.612 122.953 116.576 122.947C115.827 122.816 115.09 122.672 114.352 122.487C114.293 122.473 114.268 122.564 114.327 122.578Z" fill="#3D423E"/>
<path d="M106.674 110.762C109.377 110.776 112.028 110.889 114.683 111.438C114.744 111.45 114.769 111.362 114.708 111.343C112.12 110.537 109.357 110.58 106.674 110.593C106.565 110.593 106.565 110.761 106.674 110.762Z" fill="#3D423E"/>
<path d="M110.75 108.001C111.698 108.165 112.659 108.27 113.609 108.417C113.685 108.429 113.715 108.329 113.642 108.303C112.738 107.977 111.736 107.987 110.797 107.83C110.685 107.811 110.637 107.981 110.75 108.001Z" fill="#3D423E"/>
<path d="M107.61 123.946C108.387 124.286 109.202 124.622 110.061 124.636C110.121 124.638 110.135 124.545 110.075 124.532C109.244 124.354 108.48 124.139 107.699 123.794C107.597 123.748 107.507 123.9 107.61 123.946Z" fill="#3D423E"/>
<path d="M82.4546 89.1086C82.3778 86.4856 82.8345 83.837 83.7223 81.3717C84.627 78.8578 86.1518 76.3413 88.5771 75.0557C91.3972 73.5607 94.8742 74.3799 97.36 76.1432C98.6809 77.0812 99.7321 78.3796 100.426 79.8378C100.762 80.5433 100.975 81.3047 101.108 82.0721C101.286 83.1013 101.167 84.1335 101.229 85.1672C101.262 85.7109 101.358 86.2762 101.146 86.7948C101.106 86.8911 101.27 86.9592 101.314 86.8655C101.59 86.2767 101.525 85.6136 101.51 84.9803C101.487 84.0346 101.604 83.1095 101.473 82.1633C101.267 80.6764 100.684 79.3012 99.8063 78.0878C98.1111 75.7397 95.3847 74.2667 92.5077 74.0655C86.8215 73.6677 83.8263 79.1927 82.7588 83.9942C82.387 85.6674 82.2058 87.3949 82.2708 89.1086C82.2754 89.2263 82.4582 89.2273 82.4546 89.1086Z" fill="#3D423E"/>
<path d="M93.6 76.6135C90.4117 84.2475 86.9255 92.4379 87.1201 100.873C87.1216 100.917 87.1861 100.917 87.1872 100.873C87.3172 96.643 88.0437 92.5506 89.2679 88.5022C90.4901 84.4579 92.1203 80.5513 93.7208 76.6468C93.751 76.5721 93.6307 76.5398 93.6 76.6135Z" fill="#3D423E"/>
<path d="M87.2997 106.221C87.3458 105.248 87.3755 104.253 87.2936 103.28C87.288 103.216 87.1984 103.216 87.1932 103.28C87.1113 104.253 87.1405 105.248 87.1871 106.221C87.1902 106.294 87.2962 106.294 87.2997 106.221Z" fill="#3D423E"/>
<path d="M98.4122 78.7334C96.6192 82.9759 95.0202 87.3017 93.345 91.5908C93.324 91.6435 93.4136 91.6814 93.4366 91.6297C95.2947 87.4154 96.8015 83.0516 98.5418 78.7882C98.5725 78.714 98.4435 78.6597 98.4122 78.7334Z" fill="#3D423E"/>
<path d="M92.2661 97.2927C92.0019 98.1775 91.7408 99.0627 91.5826 99.9741C91.5759 100.01 91.6297 100.027 91.6389 99.9899C91.8545 99.0919 92.1141 98.2077 92.3808 97.3239C92.4033 97.2507 92.2876 97.219 92.2661 97.2927Z" fill="#3D423E"/>
<path d="M87.8681 77.8541C86.328 81.54 86.07 85.6155 85.7843 89.5543C85.7812 89.5968 85.8442 89.5948 85.8493 89.5543C86.306 85.6329 86.5113 81.5927 88.0437 77.9028C88.0888 77.7937 87.9127 77.7476 87.8681 77.8541Z" fill="#3D423E"/>
<path d="M62.5414 117.51C60.794 117.589 59.0911 117.479 57.3871 117.065C55.9459 116.715 54.4908 116.223 53.1007 115.707C51.5893 115.146 50.2949 114.303 49.3457 112.984C48.4691 111.767 47.7692 110.091 47.6146 108.594C47.4574 107.084 47.8726 105.282 48.6386 103.977C49.4578 102.58 50.8315 101.65 52.2129 100.875C53.7048 100.038 55.353 99.5576 57.0129 99.1823C57.9094 98.9795 58.8049 98.8397 59.7234 98.7844C60.6148 98.7307 61.7893 98.575 62.6392 98.8669C62.8092 98.9252 62.8768 98.6626 62.7125 98.6011C61.9567 98.319 61.0213 98.4562 60.2287 98.4752C59.28 98.4977 58.3456 98.6037 57.4168 98.7962C55.5552 99.1823 53.7417 99.7127 52.0634 100.619C50.7224 101.343 49.4865 102.251 48.5961 103.501C47.6504 104.827 47.3822 106.498 47.3094 108.092C47.2429 109.563 47.9658 111.186 48.6642 112.451C49.425 113.83 50.576 114.859 51.9814 115.548C53.4995 116.292 55.2106 116.745 56.8291 117.216C58.661 117.748 60.646 117.972 62.5414 117.717C62.6689 117.7 62.6782 117.504 62.5414 117.51Z" fill="#3D423E"/>
<path d="M50.432 107.542C54.4983 107.717 58.5523 108.093 62.5725 108.733C64.574 109.053 66.5641 109.446 68.5379 109.907C70.5408 110.375 72.489 111.041 74.4847 111.526C74.5354 111.539 74.5733 111.461 74.5216 111.438C72.7117 110.673 70.7313 110.226 68.8256 109.77C66.7761 109.279 64.7045 108.88 62.6243 108.545C58.5933 107.894 54.5137 107.509 50.432 107.397C50.3388 107.394 50.3393 107.537 50.432 107.542Z" fill="#3D423E"/>
<path d="M76.3034 112.003C77.5629 112.196 78.804 112.539 80.0681 112.687C80.1245 112.693 80.1306 112.608 80.0809 112.592C78.8788 112.212 77.5926 112.025 76.3464 111.848C76.245 111.834 76.201 111.987 76.3034 112.003Z" fill="#3D423E"/>
<path d="M54.7101 102.721C56.1391 102.904 57.5553 103.167 58.9883 103.316C59.0293 103.321 59.039 103.251 58.9981 103.245C57.5686 103.026 56.1442 102.776 54.7101 102.592C54.6276 102.581 54.6281 102.71 54.7101 102.721Z" fill="#3D423E"/>
<path d="M66.4609 105.561C67.7998 105.913 69.1407 106.25 70.4775 106.611C70.5211 106.623 70.5359 106.56 70.4955 106.544C69.2047 106.051 67.8238 105.805 66.4901 105.456C66.422 105.438 66.3933 105.543 66.4609 105.561Z" fill="#3D423E"/>
<path d="M50.1243 112.353C54.8644 114.404 60.1831 115.062 65.3169 114.914C65.3768 114.912 65.3768 114.824 65.3169 114.821C60.1657 114.657 55.0063 114.247 50.2052 112.213C50.1115 112.173 50.0291 112.311 50.1243 112.353Z" fill="#3D423E"/>
<path d="M69.8622 114.467C71.198 114.467 72.5374 114.491 73.8732 114.454C73.9152 114.453 73.9152 114.39 73.8732 114.389C72.5374 114.351 71.198 114.376 69.8622 114.377C69.8044 114.377 69.8044 114.467 69.8622 114.467Z" fill="#3D423E"/>
<path d="M72.3089 136.654C71.9516 138.292 72.6986 140.067 73.8024 141.253C75.0016 142.539 76.7219 143.265 78.411 143.631C80.1876 144.017 82.0769 143.993 83.8397 143.551C84.6507 143.347 85.4356 143.024 86.1483 142.586C87.223 141.925 87.8364 140.931 88.4206 139.844C88.5194 139.66 88.2393 139.496 88.141 139.681C87.5814 140.726 87.0115 141.668 86.0003 142.333C85.3199 142.78 84.5504 143.077 83.768 143.292C82.0974 143.751 80.3018 143.758 78.6076 143.432C76.9666 143.118 75.3584 142.427 74.1393 141.266C73.5572 140.712 73.1061 140.032 72.8112 139.286C72.4738 138.431 72.481 137.571 72.438 136.671C72.4349 136.599 72.3253 136.578 72.3089 136.654Z" fill="#3D423E"/>
<path d="M84.3709 118.6C82.862 122.004 81.6358 125.55 80.727 129.161C79.8054 132.821 79.1423 136.662 79.2708 140.448C79.2724 140.5 79.3476 140.5 79.3502 140.448C79.5028 136.639 79.918 132.898 80.8283 129.189C81.7172 125.563 82.9967 122.066 84.4128 118.617C84.4231 118.593 84.3816 118.576 84.3709 118.6Z" fill="#3D423E"/>
<path d="M81.7622 143.136C82.414 140.783 82.7135 138.344 82.6418 135.903C82.6403 135.859 82.5763 135.859 82.5747 135.903C82.4841 138.33 82.2619 140.748 81.6716 143.11C81.6567 143.169 81.7463 143.193 81.7622 143.136Z" fill="#3D423E"/>
<path d="M82.5702 130.911C82.6742 129.427 82.6911 127.94 82.6383 126.454C82.6373 126.415 82.5794 126.415 82.5779 126.454C82.5257 127.939 82.5293 129.426 82.4678 130.911C82.4653 130.977 82.5656 130.976 82.5702 130.911Z" fill="#3D423E"/>
<path d="M85.4311 140.821C85.6958 139.285 85.5893 137.717 85.5069 136.169C85.5038 136.11 85.4173 136.11 85.4148 136.169C85.3508 137.713 85.5417 139.252 85.3124 140.788C85.3006 140.866 85.4178 140.9 85.4311 140.821Z" fill="#3D423E"/>
<path d="M74.1206 140.092C73.9066 138.472 74.3643 136.943 74.7181 135.38C74.7304 135.324 74.651 135.303 74.6331 135.356C74.1206 136.902 73.7299 138.477 73.9849 140.11C73.9972 140.186 74.1308 140.169 74.1206 140.092Z" fill="#3D423E"/>
<path d="M78.672 143.122C78.6746 142.851 78.7022 142.588 78.737 142.32C78.7437 142.269 78.6638 142.251 78.6418 142.294C78.5102 142.551 78.5199 142.84 78.522 143.122C78.5225 143.219 78.6715 143.219 78.672 143.122Z" fill="#3D423E"/>
<path d="M106.67 125.622C110.881 130.58 112.152 137.102 112.782 143.397C113.486 150.414 114.007 157.469 114.463 164.505C115.517 180.76 115.863 197.05 116.661 213.317C116.996 220.139 117.433 226.957 118.035 233.761C118.041 233.837 118.159 233.838 118.153 233.761C116.9 217.532 116.426 201.258 115.764 184.998C115.433 176.863 115.038 168.73 114.458 160.609C113.982 153.939 113.595 147.18 112.708 140.549C111.985 135.148 110.478 129.667 106.77 125.523C106.709 125.455 106.612 125.554 106.67 125.622Z" fill="#3D423E"/>
<path d="M116.845 214.06C113.778 206.602 110.019 199.425 106.227 192.316C102.288 184.93 98.2448 177.602 94.3019 170.218C94.264 170.147 94.159 170.209 94.1948 170.281C97.8761 177.629 101.899 184.801 105.782 192.042C109.668 199.287 113.311 206.634 116.765 214.093C116.786 214.138 116.863 214.105 116.845 214.06Z" fill="#3D423E"/>
<path d="M113.608 206.997C110.911 205.192 108.919 202.224 106.846 199.771C104.373 196.842 102.037 193.8 99.963 190.574C95.9387 184.312 93.0218 177.267 91.0133 170.116C90.0231 166.592 89.3037 162.996 88.7825 159.374C88.5598 157.827 88.1635 156.429 87.4441 155.04C87.3781 154.92 87.312 154.8 87.246 154.681C87.1917 154.316 87.0755 154.228 86.8973 154.418C87.1682 154.729 87.4416 155.036 87.7155 155.344C88.3529 156.062 89.0011 156.77 89.6467 157.48C94.2972 162.6 99.1433 167.628 102.354 173.824C105.03 178.989 106.58 184.814 108.151 190.387C108.941 193.188 109.675 196.007 110.501 198.798C111.336 201.62 112.699 204.249 113.446 207.105C113.486 207.259 113.717 207.194 113.683 207.039C113.135 204.593 112.065 202.315 111.202 199.97C110.262 197.413 109.645 194.716 108.914 192.094C107.437 186.792 105.894 181.501 103.809 176.401C100.18 167.522 92.9082 161.07 86.7944 153.939C86.7058 153.836 86.5384 153.969 86.6085 154.083C88.0944 156.496 88.4374 158.889 88.8869 161.63C89.3129 164.225 89.8782 166.797 90.5468 169.341C91.8468 174.283 93.6603 179.079 95.8711 183.683C98.1316 188.389 100.932 192.74 104.148 196.847C105.715 198.849 107.398 200.753 109.022 202.709C110.36 204.32 111.72 206.032 113.521 207.147C113.617 207.206 113.7 207.059 113.608 206.997Z" fill="#3D423E"/>
<path d="M114.652 163.331C114.396 161.04 114.844 158.71 115.158 156.443C115.467 154.216 115.803 151.993 116.156 149.773C116.865 145.308 117.687 140.861 118.483 136.412C118.496 136.335 118.383 136.302 118.366 136.379C117.379 140.953 116.576 145.562 115.844 150.183C115.467 152.562 115.12 154.947 114.793 157.334C114.522 159.317 114.145 161.362 114.458 163.358C114.475 163.468 114.664 163.441 114.652 163.331Z" fill="#3D423E"/>
<path d="M115.303 154.958C114.064 152.313 114.118 149.265 114.322 146.413C114.531 143.496 114.955 140.569 115.359 137.675C115.599 135.954 115.969 134.272 116.718 132.696C117.363 131.34 118.22 130.088 119 128.808C120.529 126.303 121.947 123.543 122.899 120.762C122.988 120.492 123.069 120.218 123.143 119.943C123.176 119.807 123.21 119.67 123.244 119.534C123.449 119.194 123.431 119.065 123.191 119.145C123.243 120.073 123.268 121 123.276 121.93C123.291 123.648 123.217 125.368 123.106 127.083C122.874 130.652 122.378 134.203 121.761 137.724C121.194 140.96 121.163 144.492 120.013 147.575C118.837 150.728 116.598 153.373 114.939 156.266C114.858 156.406 115.073 156.532 115.156 156.392C116.726 153.731 118.633 151.291 119.937 148.47C121.292 145.537 121.157 142.262 121.761 139.147C123.062 132.433 123.793 125.524 123.405 118.684C123.398 118.555 123.193 118.512 123.169 118.652C122.581 122.063 120.729 125.368 119.003 128.334C118.176 129.753 117.251 131.107 116.509 132.573C115.714 134.145 115.384 135.883 115.125 137.61C114.669 140.647 114.272 143.733 114.056 146.796C113.862 149.562 113.902 152.516 115.121 155.064C115.179 155.188 115.36 155.08 115.303 154.958Z" fill="#3D423E"/>
<path d="M151.324 67.7709C153.833 67.8774 156.361 67.2589 158.578 66.0895C160.72 64.9611 162.687 63.1583 162.712 60.5835C162.736 58.0506 161.182 55.3723 159.52 53.5542C158.481 52.4186 157.155 51.5912 155.787 50.9143C154.423 50.239 152.978 49.7127 151.473 49.4664C150.038 49.2314 148.576 49.3404 147.205 49.8253C145.821 50.3153 144.584 51.2466 143.51 52.2276C141.414 54.141 139.5 56.9411 139.343 59.8482C139.11 64.1669 143.255 66.3573 146.888 67.2164C148.333 67.5574 149.839 67.7566 151.324 67.7694C151.388 67.7704 151.386 67.6752 151.324 67.6711C149.3 67.5246 147.299 67.2323 145.367 66.5933C143.429 65.9528 141.482 64.8971 140.367 63.1271C138.847 60.714 139.691 57.8074 141.066 55.5444C142.725 52.8164 145.476 50.2052 148.718 49.6558C151.719 49.1474 155.018 50.4945 157.479 52.1227C159.859 53.696 161.667 56.3973 162.322 59.1698C163.7 64.9964 155.871 67.7643 151.324 67.669C151.258 67.6675 151.258 67.7678 151.324 67.7709Z" fill="#3D423E"/>
<path d="M155.993 51.1631C156.304 48.4961 158.454 46.3754 160.394 44.7196C162.317 43.0781 164.434 41.5754 166.61 40.2898C171.297 37.5199 177.605 35.3178 182.699 38.3304C184.948 39.659 186.438 41.8693 186.895 44.4278C187.333 46.8695 186.788 49.4346 185.757 51.6577C183.357 56.8289 177.93 60.1375 172.49 61.2301C171.064 61.5168 169.601 61.6402 168.146 61.6064C167.29 61.5869 166.436 61.4866 165.583 61.4098C164.658 61.3258 163.66 61.46 162.76 61.2357C162.562 61.1866 162.478 61.4902 162.676 61.5404C163.421 61.7288 164.183 61.6289 164.942 61.6791C165.869 61.7405 166.791 61.8557 167.718 61.911C169.169 61.9981 170.632 61.8747 172.064 61.6371C174.876 61.1697 177.584 60.0975 179.968 58.5411C184.115 55.8341 187.207 51.3981 187.314 46.336C187.361 44.0878 186.666 41.8831 185.237 40.1377C183.62 38.1624 181.173 37.0273 178.674 36.7217C175.986 36.3935 173.241 37.0514 170.748 38.0165C168.246 38.9852 165.898 40.3523 163.724 41.9174C162.017 43.1462 160.318 44.3868 158.821 45.8721C157.381 47.3021 156.03 49.0757 155.845 51.1631C155.836 51.2594 155.982 51.2563 155.993 51.1631Z" fill="#3D423E"/>
<path d="M162.578 54.616C168.158 50.24 174.664 47.4536 180.804 43.9997C180.831 43.9838 180.807 43.9439 180.779 43.9582C174.542 47.1398 168.024 50.1678 162.526 54.5643C162.49 54.594 162.542 54.6447 162.578 54.616Z" fill="#3D423E"/>
<path d="M183.029 43.0111C183.616 42.5513 184.244 42.1545 184.893 41.7879C184.92 41.7731 184.896 41.7337 184.869 41.7465C184.183 42.0614 183.563 42.4873 182.975 42.9558C182.935 42.9876 182.99 43.0413 183.029 43.0111Z" fill="#3D423E"/>
<path d="M164.1 58.1691C168.546 57.6294 172.904 56.4615 177.15 55.0581C177.184 55.0479 177.169 54.9967 177.137 55.0069C172.852 56.2915 168.543 57.4937 164.1 58.0861C164.048 58.0933 164.047 58.1757 164.1 58.1691Z" fill="#3D423E"/>
<path d="M158.738 52.5225C159.98 50.2795 162.063 48.6119 164.161 47.2095C166.208 45.8399 168.417 44.7319 170.635 43.6716C170.669 43.6557 170.639 43.6076 170.606 43.6224C168.253 44.6556 165.957 45.845 163.816 47.2694C161.79 48.6155 159.774 50.2697 158.627 52.458C158.589 52.5307 158.697 52.5947 158.738 52.5225Z" fill="#3D423E"/>
<path d="M173.63 41.8094C175.173 41.0527 176.723 40.321 178.367 39.809C178.408 39.7967 178.392 39.7358 178.351 39.7455C176.663 40.15 175.118 40.9421 173.581 41.7244C173.524 41.7536 173.574 41.8371 173.63 41.8094Z" fill="#3D423E"/>
<path d="M165.552 42.2375C168.478 40.5371 171.69 39.4793 174.828 38.2521C174.855 38.2418 174.843 38.1988 174.816 38.2091C171.644 39.3677 168.439 40.4521 165.52 42.1827C165.484 42.2037 165.518 42.2585 165.552 42.2375Z" fill="#3D423E"/>
<path d="M180.921 53.518C181.918 52.8647 182.992 52.3543 184.011 51.7399C184.042 51.7219 184.015 51.6764 183.982 51.6928C182.924 52.2263 181.873 52.8002 180.883 53.4525C180.842 53.4786 180.88 53.5452 180.921 53.518Z" fill="#3D423E"/>
<path d="M156.911 66.7142C156.416 67.8596 157.067 69.116 157.499 70.1764C157.944 71.269 158.41 72.3442 158.952 73.3933C160.146 75.7075 161.62 77.8861 163.343 79.8398C165.04 81.765 167.041 83.4628 169.336 84.6306C171.655 85.8093 174.158 86.1958 176.739 85.9982C179.405 85.7944 181.917 84.9732 183.986 83.2472C185.928 81.6277 187.281 79.2782 187.431 76.7325C187.729 71.6909 182.905 68.2021 178.857 66.3C176.566 65.2233 174.132 64.5085 171.645 64.0554C170.094 63.7733 168.524 63.5716 166.963 63.3596C165.312 63.1358 163.647 63.057 161.998 62.8256C161.831 62.802 161.757 63.0555 161.928 63.0821C163.713 63.3611 165.524 63.4548 167.315 63.7021C169.08 63.9458 170.854 64.1778 172.598 64.5408C175.291 65.1014 177.895 66.0409 180.305 67.3675C182.517 68.5856 184.63 70.1958 185.982 72.3631C187.447 74.7081 187.499 77.541 186.273 79.9986C183.658 85.2353 176.786 86.9203 171.493 85.3147C166.344 83.7531 162.46 79.1522 159.844 74.6635C159.185 73.533 158.599 72.3605 158.08 71.1599C157.808 70.5271 157.554 69.8845 157.3 69.244C156.992 68.4678 156.712 67.5805 157.036 66.7669C157.064 66.6953 156.941 66.6441 156.911 66.7142Z" fill="#3D423E"/>
<path d="M161.397 66.6887C164.301 69.5001 167.492 71.9972 170.862 74.2269C174.285 76.491 177.935 78.583 181.775 80.0545C181.82 80.0719 181.85 79.9977 181.807 79.9772C178.125 78.2451 174.539 76.3947 171.128 74.1665C167.705 71.9316 164.465 69.4003 161.497 66.5884C161.431 66.5259 161.331 66.6247 161.397 66.6887Z" fill="#3D423E"/>
<path d="M158.206 66.9907C161.255 71.2219 164.902 75.3112 169.39 78.0504C169.424 78.0709 169.452 78.0197 169.421 77.9982C165.045 75.0931 161.396 71.1441 158.276 66.9498C158.245 66.9083 158.175 66.9482 158.206 66.9907Z" fill="#3D423E"/>
<path d="M173.145 80.8571C174.799 81.5145 176.493 82.1177 178.237 82.4848C178.289 82.4955 178.31 82.4218 178.259 82.4069C176.546 81.8985 174.847 81.3799 173.182 80.7189C173.096 80.6851 173.06 80.8233 173.145 80.8571Z" fill="#3D423E"/>
<path d="M163.605 78.9392C165.693 82.1587 169.868 83.7715 173.485 84.4709C173.531 84.4796 173.55 84.413 173.505 84.4008C169.93 83.4566 165.865 82.1121 163.709 78.8783C163.667 78.8138 163.562 78.8737 163.605 78.9392Z" fill="#3D423E"/>
<path d="M166.852 65.572C170.489 66.4649 173.96 67.7316 177.349 69.3188C177.385 69.3362 177.418 69.2835 177.381 69.2635C174.088 67.5314 170.479 66.3697 166.874 65.4942C166.822 65.4814 166.802 65.5597 166.852 65.572Z" fill="#3D423E"/>
<path d="M182.528 72.2196C183.971 72.8417 185.314 73.708 186.292 74.9547C186.317 74.988 186.369 74.9455 186.349 74.9107C185.582 73.5401 183.972 72.6907 182.576 72.106C182.511 72.0788 182.463 72.1915 182.528 72.2196Z" fill="#3D423E"/>
<path d="M183.997 81.0459C184.044 81.0459 184.044 80.9727 183.997 80.9727C183.95 80.9727 183.95 81.0459 183.997 81.0459Z" fill="#3D423E"/>
<path d="M147.025 67.2501C146.155 68.0498 145.717 69.1921 145.327 70.2806C144.843 71.6328 144.346 72.9773 143.857 74.3275C142.7 77.5244 141.804 80.8529 141.725 84.2705C141.67 86.7312 141.904 89.4156 143.072 91.6234C144.279 93.9033 146.589 94.9406 149.055 95.2319C150.414 95.3927 151.798 95.3185 153.152 95.1352C154.379 94.9683 155.64 94.7051 156.781 94.2069C158.879 93.2904 160.548 91.6751 161.572 89.6291C162.567 87.6364 162.832 85.3355 162.435 83.1544C162.188 81.7991 161.599 80.5473 161.031 79.3021C160.304 77.7036 159.51 76.1364 158.7 74.5778C157.455 72.1817 156.387 69.6882 154.988 67.3761C154.939 67.2962 154.817 67.3674 154.863 67.4493C155.7 68.9627 156.428 70.5371 157.174 72.0972C157.926 73.6721 158.754 75.2097 159.537 76.7697C160.863 79.4142 162.379 82.1263 162.392 85.1588C162.401 87.5827 161.484 89.9706 159.865 91.7693C158.094 93.7359 155.652 94.574 153.098 94.9437C150.312 95.3471 146.973 95.2473 144.707 93.3611C142.626 91.6295 142.121 88.6901 141.965 86.1393C141.758 82.7233 142.402 79.3983 143.437 76.1553C143.926 74.6214 144.551 73.1391 145.074 71.6185C145.502 70.3707 145.876 69.0851 146.61 67.9746C146.759 67.7483 146.935 67.544 147.128 67.354C147.196 67.287 147.094 67.1866 147.025 67.2501Z" fill="#3D423E"/>
<path d="M150.118 70.4928C149.203 73.8603 149.3 77.39 149.683 80.8291C150.065 84.2661 150.734 87.6766 151.362 91.0752C151.367 91.1049 151.418 91.0978 151.414 91.0681C150.51 84.3025 148.401 77.3265 150.225 70.522C150.243 70.4534 150.137 70.4242 150.118 70.4928Z" fill="#3D423E"/>
<path d="M151.526 93.0579C151.526 93.361 151.509 93.6989 151.681 93.9647C151.708 94.0072 151.777 93.9805 151.763 93.9304C151.685 93.6498 151.693 93.3472 151.692 93.0579C151.691 92.9509 151.526 92.9509 151.526 93.0579Z" fill="#3D423E"/>
<path d="M152.895 68.9835C154.056 71.1488 154.847 73.4456 155.448 75.8213C155.458 75.8582 155.513 75.8423 155.506 75.8059C155.006 73.396 154.166 71.0899 152.974 68.9364C152.946 68.8837 152.866 68.9308 152.895 68.9835Z" fill="#3D423E"/>
<path d="M156.73 92.8469C157.626 88.8226 157.665 84.6139 156.943 80.5589C156.936 80.5205 156.88 80.5374 156.885 80.5748C157.492 84.6406 157.519 88.7954 156.656 92.8269C156.646 92.875 156.719 92.895 156.73 92.8469Z" fill="#3D423E"/>
<path d="M146.472 93.4835C144.761 88.1351 144.538 82.4488 145.444 76.9264C145.449 76.8931 145.399 76.8783 145.392 76.9121C144.342 82.4268 144.544 88.1791 146.354 93.5162C146.378 93.5905 146.497 93.5592 146.472 93.4835Z" fill="#3D423E"/>
<path d="M146.223 73.1689C146.586 71.6805 147.248 70.3099 147.979 68.971C147.993 68.9464 147.957 68.9254 147.942 68.9495C147.146 70.2551 146.515 71.6615 146.161 73.152C146.151 73.1919 146.213 73.2093 146.223 73.1689Z" fill="#3D423E"/>
<path d="M153.769 79.7933C153.746 81.3682 154.124 82.9134 154.432 84.4499C154.443 84.5078 154.542 84.495 154.535 84.4356C154.381 82.8776 153.933 81.3636 153.87 79.7933C153.868 79.7277 153.77 79.7272 153.769 79.7933Z" fill="#3D423E"/>
<path d="M147.393 49.9233C145.731 47.0454 144.206 44.1587 143.218 40.969C142.441 38.4643 141.963 35.829 142.03 33.2004C142.146 28.6871 144.098 23.9772 148.702 22.4965C151.116 21.7198 153.792 21.9594 155.941 23.3321C158.095 24.7073 159.349 27.1189 159.665 29.6082C160.08 32.8911 159.477 36.1915 158.389 39.2906C157.847 40.8338 157.193 42.3683 156.364 43.7793C155.579 45.1172 154.626 46.3465 153.81 47.6649C153.387 48.3474 153.023 49.0606 152.748 49.8153C152.716 49.9008 152.859 49.9607 152.894 49.8773C154.12 47.0218 156.295 44.7209 157.601 41.9018C158.917 39.0587 159.82 35.9939 160.024 32.8584C160.194 30.2564 159.834 27.5453 158.331 25.3571C157.083 23.5374 155.119 22.327 152.952 21.9589C150.732 21.5816 148.33 22.1238 146.444 23.3377C144.737 24.4365 143.551 26.1496 142.817 28.0159C141.018 32.588 141.893 37.8191 143.474 42.3099C144.417 44.9882 145.692 47.6362 147.313 49.9709C147.346 50.0196 147.425 49.9766 147.393 49.9233Z" fill="#3D423E"/>
<path d="M150.212 49.1737C150.281 46.0019 149.916 42.8254 149.692 39.6649C149.464 36.4265 149.367 33.1701 149.756 29.9399C149.76 29.9097 149.709 29.9031 149.703 29.9328C149.237 33.0892 149.332 36.2759 149.545 39.4488C149.763 42.6928 150.045 45.922 150.131 49.1737C150.132 49.2259 150.211 49.2259 150.212 49.1737Z" fill="#3D423E"/>
<path d="M150.323 26.9557C150.343 25.4698 150.463 24.0598 150.977 22.6538C150.99 22.6185 150.933 22.5945 150.917 22.6282C150.271 24.0214 150.222 25.4458 150.242 26.9557C150.242 27.0089 150.323 27.0089 150.323 26.9557Z" fill="#3D423E"/>
<path d="M155.781 30.603C155.762 33.5091 155.1 36.3456 154.795 39.2251C154.793 39.2497 154.831 39.2487 154.833 39.2251C155.209 36.3579 155.825 33.5045 155.838 30.603C155.839 30.5651 155.781 30.5651 155.781 30.603Z" fill="#3D423E"/>
<path d="M155.791 25.1871C155.801 25.4139 155.9 25.6238 155.911 25.8501C155.911 25.8609 155.929 25.8614 155.929 25.8501C155.925 25.6243 155.833 25.4124 155.827 25.1871C155.826 25.1641 155.79 25.1641 155.791 25.1871Z" fill="#3D423E"/>
<path d="M153.907 43.5298C153.47 44.9255 152.896 46.2608 152.364 47.6212C152.357 47.6401 152.389 47.6539 152.398 47.635C152.987 46.3023 153.518 44.9342 153.952 43.5421C153.961 43.5134 153.916 43.5011 153.907 43.5298Z" fill="#3D423E"/>
<path d="M146.259 26.6116C145.609 29.6662 145.326 32.7868 145.464 35.908C145.597 38.9119 146.124 42.0177 147.379 44.7676C147.395 44.8009 147.451 44.7774 147.439 44.7436C145.259 38.9196 145.15 32.6967 146.346 26.6357C146.357 26.5793 146.271 26.5553 146.259 26.6116Z" fill="#3D423E"/>
<path d="M147.889 47.0931C148.012 47.4417 148.204 47.7592 148.361 48.0925C148.385 48.1442 148.462 48.1063 148.449 48.0556C148.364 47.7003 148.154 47.3962 148.032 47.0536C148.001 46.964 147.858 47.0024 147.889 47.0931Z" fill="#3D423E"/>
<path d="M139.781 58.052C133.267 57.5298 126.853 55.6093 121.302 52.1169C116.565 49.1365 111.782 43.7723 113.989 37.7794C115.011 35.0053 117.474 33.0239 120.234 32.1325C122.891 31.2744 125.766 31.6021 128.347 32.5575C130.994 33.5369 133.363 35.2317 135.297 37.2699C137.531 39.6246 138.627 42.6075 139.831 45.5587C140.307 46.7271 140.843 47.856 141.471 48.9527C142.13 50.1032 142.83 51.227 143.42 52.4164C143.463 52.5035 143.588 52.4277 143.548 52.3417C142.853 50.8354 141.975 49.4228 141.194 47.961C140.416 46.5033 139.848 44.9469 139.229 43.418C138.119 40.6773 136.731 38.2187 134.552 36.1845C130.801 32.6804 125.29 30.3595 120.179 31.9349C117.69 32.7029 115.516 34.3976 114.274 36.6939C113.011 39.0261 112.983 41.7474 113.883 44.2045C114.826 46.7813 116.742 48.8969 118.847 50.5957C121.165 52.4666 123.839 53.9017 126.57 55.0676C130.728 56.8432 135.259 57.9762 139.781 58.2025C139.878 58.2071 139.877 58.0597 139.781 58.052Z" fill="#3D423E"/>
<path d="M115.317 36.1903C118.911 38.1323 122.235 40.5269 125.601 42.8289C128.808 45.0223 132.225 46.9039 135.117 49.5269C135.146 49.554 135.189 49.512 135.16 49.4834C132.447 46.7595 129.012 44.9179 125.846 42.789C122.407 40.4747 119.055 38.0217 115.387 36.0695C115.308 36.027 115.238 36.1478 115.317 36.1903Z" fill="#3D423E"/>
<path d="M136.869 51.3397C138.274 52.3191 139.623 53.4025 141.086 54.2954C141.127 54.3205 141.177 54.2586 141.139 54.2278C139.786 53.167 138.359 52.1855 136.946 51.2081C136.865 51.1523 136.789 51.2838 136.869 51.3397Z" fill="#3D423E"/>
<path d="M123.84 34.8425C127.591 37.0671 131.233 39.4725 134.124 42.7805C134.147 42.8072 134.184 42.7688 134.163 42.7427C131.377 39.3379 127.642 36.9601 123.886 34.7637C123.836 34.7334 123.79 34.8123 123.84 34.8425Z" fill="#3D423E"/>
<path d="M136.654 46.2211C138.072 47.7623 139.492 49.2798 140.747 50.9587C140.772 50.992 140.827 50.9623 140.804 50.9259C139.665 49.1621 138.15 47.6793 136.717 46.1576C136.677 46.1151 136.615 46.1786 136.654 46.2211Z" fill="#3D423E"/>
<path d="M134.22 39.1475C135.202 40.0486 135.837 41.1617 136.438 42.3352C136.453 42.3664 136.508 42.3439 136.494 42.3111C135.991 41.0895 135.269 39.9713 134.287 39.0804C134.242 39.0394 134.175 39.106 134.22 39.1475Z" fill="#3D423E"/>
<path d="M115.421 42.4716C117.239 44.8017 119.467 46.7883 121.892 48.4666C124.289 50.1255 126.877 51.5821 129.606 52.6179C129.629 52.6261 129.638 52.5913 129.616 52.5831C124.243 50.3825 119.11 46.9982 115.503 42.3897C115.457 42.3313 115.376 42.4137 115.421 42.4716Z" fill="#3D423E"/>
<path d="M134.997 55.4171C135.997 55.8517 137.055 56.139 138.114 56.3924C138.158 56.4027 138.174 56.3407 138.133 56.3253C137.113 55.9644 136.055 55.7386 135.059 55.3116C134.987 55.2804 134.924 55.3853 134.997 55.4171Z" fill="#3D423E"/>
<path d="M125.155 45.6974C128.314 47.389 131.552 48.9158 134.564 50.8691C134.612 50.8998 134.652 50.8266 134.608 50.7943C131.71 48.688 128.376 47.2528 125.226 45.575C125.145 45.532 125.074 45.6544 125.155 45.6974Z" fill="#3D423E"/>
<path d="M139.529 60.8384C138.064 60.3735 136.509 60.7232 135.021 60.884C133.41 61.0581 131.804 61.289 130.214 61.6069C127.355 62.1788 124.412 63.0477 121.98 64.704C118.18 67.2917 115.728 71.8142 115.908 76.435C116.091 81.1889 119.29 85.3494 123.742 86.9146C128.126 88.4557 133.15 87.3718 136.508 84.1831C138.859 81.9507 140.57 79.0759 141.807 76.1022C142.457 74.5411 142.912 72.9283 143.313 71.2889C143.548 70.3258 143.784 69.3627 144.054 68.4083C144.238 67.7617 144.611 67.1335 144.448 66.4438C144.411 66.2846 144.167 66.3522 144.203 66.5114C144.365 67.22 143.869 68.0771 143.681 68.7519C143.436 69.6366 143.223 70.5316 143.005 71.424C142.635 72.936 142.199 74.4151 141.619 75.8615C140.456 78.7671 138.783 81.5212 136.575 83.7509C133.036 87.3232 127.531 88.3103 122.926 86.3191C118.193 84.2722 115.549 79.1373 116.293 74.0941C116.649 71.6841 117.74 69.4103 119.279 67.5349C120.972 65.469 123.187 64.0855 125.666 63.1522C127.856 62.3278 130.159 61.8307 132.466 61.4728C133.621 61.2931 134.783 61.1784 135.943 61.0309C137.118 60.8819 138.312 60.7283 139.48 61.0187C139.597 61.0478 139.644 60.8748 139.529 60.8384Z" fill="#3D423E"/>
<path d="M120.153 83.0263C124.104 77.3405 129.555 72.9696 135.38 69.3262C135.423 69.2985 135.384 69.232 135.339 69.2576C129.426 72.6373 123.88 77.2954 120.057 82.9705C120.018 83.0304 120.113 83.0846 120.153 83.0263Z" fill="#3D423E"/>
<path d="M137.927 67.5648C138.659 67.0405 139.369 66.488 140.126 65.9975C140.154 65.9796 140.129 65.9371 140.1 65.953C139.3 66.3723 138.607 66.9539 137.878 67.4813C137.828 67.5177 137.875 67.6011 137.927 67.5648Z" fill="#3D423E"/>
<path d="M123.887 70.8803C126.001 69.3832 128.171 67.9598 130.456 66.7362C132.803 65.4797 135.272 64.512 137.8 63.6867C137.841 63.6729 137.825 63.6104 137.782 63.6217C132.675 64.9641 128.056 67.6828 123.839 70.7979C123.79 70.8342 123.836 70.9161 123.887 70.8803Z" fill="#3D423E"/>
<path d="M133.285 80.5025C137.167 77.5744 139.932 73.1876 142.237 68.9753C142.255 68.9426 142.208 68.9154 142.188 68.9467C139.546 73.0442 137.11 77.3424 133.222 80.4196C133.175 80.4569 133.237 80.5378 133.285 80.5025Z" fill="#3D423E"/>
<path d="M125.093 86.033C126.753 85.6971 128.424 85.1815 129.851 84.244C129.887 84.22 129.854 84.1631 129.815 84.1846C128.315 85.0115 126.742 85.585 125.065 85.9331C125 85.9464 125.028 86.0463 125.093 86.033Z" fill="#3D423E"/>
<path d="M119.009 75.271C119.356 74.9167 119.657 74.5204 120.001 74.1625C120.009 74.1533 119.996 74.1405 119.987 74.1492C119.635 74.4989 119.338 74.8977 118.99 75.251C118.977 75.2638 118.996 75.2833 119.009 75.271Z" fill="#3D423E"/>
<path d="M121.896 67.1191C124.347 65.2508 127.16 64.0379 129.956 62.7917C129.982 62.7804 129.963 62.7353 129.937 62.7456C127.1 63.8853 124.289 65.1735 121.852 67.0433C121.807 67.0771 121.851 67.1539 121.896 67.1191Z" fill="#3D423E"/>
<path d="M159.954 30.4529C160.085 29.5799 160.983 28.9834 161.659 28.5283C162.546 27.9303 163.483 27.4608 164.513 27.1612C166.422 26.6062 168.665 26.4864 170.555 27.1607C172.261 27.769 173.634 29.1089 174.257 30.8082C174.588 31.7104 174.612 32.6448 174.599 33.5935C174.584 34.7757 174.491 35.9989 173.964 37.0761C173.908 37.1882 174.076 37.2871 174.131 37.1744C174.633 36.1724 174.759 35.0655 174.803 33.9601C174.847 32.8629 174.818 31.7994 174.461 30.7519C173.865 28.9998 172.433 27.6917 170.744 27.0117C168.691 26.1864 166.164 26.4301 164.099 27.0773C163.052 27.405 162.098 27.9763 161.213 28.6143C160.64 29.0265 159.824 29.6521 159.842 30.4375C159.843 30.4995 159.944 30.5179 159.954 30.4529Z" fill="#3D423E"/>
<path d="M155.842 47.2024C159.333 41.4127 164.101 36.5804 168.113 31.1758C168.141 31.1394 168.079 31.0923 168.052 31.1276C163.877 36.3874 159.162 41.3302 155.778 47.165C155.754 47.2065 155.817 47.2433 155.842 47.2024Z" fill="#3D423E"/>
<path d="M169.572 29.4432C170.016 29.008 170.519 28.5886 170.888 28.0869C170.919 28.0454 170.857 27.984 170.816 28.0152C170.314 28.3849 169.895 28.8871 169.46 29.331C169.388 29.4037 169.499 29.5148 169.572 29.4432Z" fill="#3D423E"/>
<path d="M170.107 36.1692C171.541 34.9583 172.999 33.7582 174.294 32.3973C174.326 32.3635 174.278 32.3139 174.243 32.3461C172.872 33.6353 171.464 34.8744 170.029 36.0909C169.975 36.1375 170.054 36.2148 170.107 36.1692Z" fill="#3D423E"/>
<path d="M161.603 32.841C162.719 30.986 164.254 29.4562 165.56 27.743C165.58 27.7179 165.538 27.6857 165.517 27.7097C164.12 29.3527 162.618 30.9241 161.511 32.7867C161.475 32.8461 161.568 32.9004 161.603 32.841Z" fill="#3D423E"/>
<path d="M128.563 32.538C128.357 30.5919 128.846 28.8511 129.998 27.267C131.064 25.8022 132.611 24.6845 134.321 24.0998C135.885 23.5637 137.614 23.4864 139.22 23.8688C140.009 24.0568 140.755 24.3947 141.426 24.8473C142.117 25.3127 142.851 26.0264 143.336 26.7017C143.363 26.7396 143.434 26.7181 143.416 26.668C143.284 26.2916 142.998 26.0351 142.727 25.754C142.42 25.4371 142.133 25.1273 141.783 24.855C141.124 24.3404 140.351 23.9907 139.555 23.7526C137.841 23.2416 135.955 23.3594 134.267 23.9062C132.563 24.4582 131.003 25.6025 129.925 27.0294C128.771 28.5603 127.939 30.6221 128.451 32.5534C128.467 32.6138 128.57 32.6031 128.563 32.538Z" fill="#3D423E"/>
<path d="M134.116 27.303C135.589 29.332 136.741 31.5459 137.987 33.7137C138.006 33.7465 138.054 33.7173 138.038 33.6835C136.876 31.4717 135.654 29.2864 134.17 27.2717C134.146 27.24 134.093 27.2707 134.116 27.303Z" fill="#3D423E"/>
<path d="M141.179 42.3429C142.637 44.3976 143.652 46.7021 144.733 48.9656C144.747 48.9948 144.789 48.9692 144.776 48.94C143.801 46.634 142.722 44.3377 141.257 42.2974C141.223 42.2508 141.145 42.2958 141.179 42.3429Z" fill="#3D423E"/>
<path d="M137.972 24.8951C138.71 25.7455 139.344 26.6364 139.861 27.6368C139.88 27.6722 139.941 27.6471 139.926 27.6097C139.501 26.5611 138.788 25.6631 138.052 24.8157C138.004 24.7609 137.925 24.8408 137.972 24.8951Z" fill="#3D423E"/>
<path d="M130.208 29.7574C130.704 30.933 131.67 31.8546 132.56 32.7388C132.607 32.7854 132.67 32.7173 132.631 32.6682C131.844 31.6856 130.85 30.8577 130.341 29.6801C130.301 29.589 130.17 29.6678 130.208 29.7574Z" fill="#3D423E"/>
<path d="M139.166 37.1609C139.489 37.8111 139.794 38.467 140.077 39.1351C140.096 39.1792 140.165 39.1474 140.153 39.1029C139.962 38.3943 139.619 37.741 139.291 37.0887C139.249 37.0057 139.126 37.0779 139.166 37.1609Z" fill="#3D423E"/>
<path d="M118.833 67.7307C116.335 67.5479 114.178 66.3539 112.452 64.5634C110.855 62.9076 110.001 60.7884 109.923 58.4978C109.852 56.394 110.523 54.2732 111.844 52.6313C112.5 51.8167 113.333 51.1654 114.256 50.6816C114.806 50.3933 115.399 50.1511 115.975 49.9228C116.508 49.7108 117.096 49.7149 117.611 49.4779C117.709 49.4323 117.638 49.2649 117.536 49.3028C116.957 49.5188 116.326 49.5475 115.739 49.7804C115.156 50.0114 114.57 50.2684 114.014 50.5592C113.033 51.0722 112.19 51.8233 111.513 52.6942C110.208 54.3721 109.641 56.5394 109.717 58.6427C109.798 60.9472 110.742 63.0351 112.307 64.7083C113.889 66.4 116.412 68.0588 118.833 67.8689C118.922 67.8617 118.922 67.7373 118.833 67.7307Z" fill="#3D423E"/>
<path d="M112.92 58.9548C118.525 58.983 124.118 59.5062 129.722 59.4929C129.772 59.4929 129.771 59.4171 129.722 59.4151C124.128 59.1698 118.521 58.8309 112.92 58.8478C112.851 58.8483 112.851 58.9548 112.92 58.9548Z" fill="#3D423E"/>
<path d="M133.702 59.8458C135.495 60.0573 137.317 59.9969 139.118 59.9313C139.164 59.9298 139.164 59.8622 139.118 59.8607C137.309 59.8039 135.505 59.937 133.702 59.725C133.625 59.7163 133.626 59.8371 133.702 59.8458Z" fill="#3D423E"/>
<path d="M113.141 54.5329C114.982 54.5385 116.827 54.5723 118.668 54.5201C118.719 54.5191 118.719 54.4402 118.668 54.4387C116.827 54.3865 114.982 54.4208 113.141 54.4259C113.072 54.4264 113.072 54.5329 113.141 54.5329Z" fill="#3D423E"/>
<path d="M112.019 62.8303C114.238 63.2926 116.536 63.3095 118.779 63.0249C118.821 63.0192 118.823 62.9547 118.779 62.9578C116.537 63.1073 114.266 63.1493 112.053 62.71C111.974 62.6946 111.941 62.8139 112.019 62.8303Z" fill="#3D423E"/>
<path d="M110.145 58.4999C110.58 58.612 111.028 58.7426 111.483 58.7103C111.521 58.7073 111.521 58.654 111.483 58.6494C111.036 58.6013 110.603 58.5235 110.167 58.4185C110.114 58.4052 110.091 58.4861 110.145 58.4999Z" fill="#3D423E"/>
<path d="M143.927 92.9155C143.61 93.5263 143.351 94.0521 142.773 94.4628C142.216 94.8606 141.53 95.0454 140.864 95.1514C139.51 95.3675 138.071 95.1878 136.756 94.8401C133.3 93.9282 130.138 90.9945 130.022 87.2728C130.018 87.1233 129.79 87.1227 129.789 87.2728C129.772 91.1122 133.225 94.1208 136.691 95.0746C138.13 95.4699 139.694 95.6091 141.167 95.3434C142.381 95.1233 143.914 94.3358 144.044 92.9473C144.049 92.8848 143.955 92.8628 143.927 92.9155Z" fill="#3D423E"/>
<path d="M135.424 93.96C135.848 91.3099 136.989 88.948 138.16 86.557C138.183 86.5088 138.114 86.4668 138.086 86.5145C137.435 87.6741 136.832 88.861 136.324 90.0908C135.825 91.2986 135.351 92.6236 135.293 93.942C135.289 94.0158 135.412 94.0342 135.424 93.96Z" fill="#3D423E"/>
<path d="M139.268 93.6336C139.793 92.7002 140.206 91.7069 140.696 90.7546C140.718 90.7131 140.66 90.6798 140.633 90.7177C140.015 91.5958 139.682 92.6403 139.187 93.587C139.16 93.6397 139.238 93.6863 139.268 93.6336Z" fill="#3D423E"/>
<path d="M133.501 87.7721C134.198 86.9559 134.865 86.1224 135.703 85.4425C135.718 85.4307 135.698 85.4041 135.683 85.4153C134.809 86.0543 134.154 86.9134 133.46 87.7311C133.435 87.7593 133.476 87.8007 133.501 87.7721Z" fill="#3D423E"/>
<path d="M161.195 90.071C163.271 91.6126 166.326 91.969 168.807 91.4851C170.044 91.2435 171.231 90.7059 172.15 89.8344C172.609 89.3992 172.969 88.8678 173.238 88.299C173.632 87.467 173.691 86.5556 173.773 85.6519C173.787 85.508 173.561 85.5086 173.549 85.6519C173.466 86.5689 173.391 87.4552 172.995 88.2959C172.734 88.8499 172.355 89.3368 171.913 89.7566C170.989 90.6342 169.748 91.1042 168.515 91.3346C166.049 91.7934 163.393 91.2537 161.257 89.965C161.187 89.923 161.134 90.0249 161.195 90.071Z" fill="#3D423E"/>
<path d="M165.611 85.6728C166.718 87.5488 168.073 89.3214 169.713 90.7606C169.746 90.7898 169.792 90.7447 169.761 90.7135C168.214 89.1514 166.815 87.5232 165.684 85.6314C165.656 85.5858 165.585 85.6273 165.611 85.6728Z" fill="#3D423E"/>
<path d="M164.615 82.7051C165.256 83.4593 165.929 84.1899 166.613 84.9062C166.65 84.9441 166.7 84.8893 166.67 84.8499C166.059 84.0675 165.344 83.3753 164.689 82.6298C164.644 82.5771 164.569 82.6529 164.615 82.7051Z" fill="#3D423E"/>
<path d="M164.049 89.7717C164.375 90.1935 164.781 90.5269 165.185 90.8678C165.212 90.8914 165.25 90.8556 165.225 90.8274C164.886 90.4362 164.467 90.1249 164.15 89.7133C164.105 89.6549 164.005 89.7123 164.049 89.7717Z" fill="#3D423E"/>
<path d="M171.697 86.9185C171.893 87.0189 172.064 87.1551 172.269 87.237C172.312 87.2539 172.335 87.1888 172.3 87.1658C172.119 87.0486 171.949 86.9154 171.757 86.8166C171.69 86.7823 171.63 86.8832 171.697 86.9185Z" fill="#3D423E"/>
<path d="M184.199 54.4372C186.078 54.7782 187.862 55.4136 189.257 56.7653C190.661 58.1257 191.296 60.1102 191.47 62.0169C191.63 63.7787 191.257 65.587 190.226 67.0421C188.9 68.915 186.439 69.7947 184.218 69.8254C184.051 69.8279 184.051 70.087 184.218 70.0845C186.468 70.0532 188.812 69.1931 190.262 67.42C191.46 65.9577 191.857 64.0132 191.746 62.1633C191.626 60.168 190.934 58.1497 189.539 56.6921C188.171 55.2641 186.167 54.4526 184.218 54.2985C184.139 54.2918 184.12 54.4229 184.199 54.4372Z" fill="#3D423E"/>
<path d="M178.359 62.2643C180.987 62.3713 183.594 61.8952 186.207 61.6945C186.245 61.6914 186.246 61.6351 186.207 61.6356C183.58 61.676 180.993 62.2484 178.359 62.1711C178.3 62.1691 178.3 62.2618 178.359 62.2643Z" fill="#3D423E"/>
<path d="M188.418 61.9625C189.374 61.8744 190.339 61.922 191.292 61.8273C191.359 61.8207 191.359 61.73 191.292 61.7234C190.342 61.6292 189.364 61.6988 188.418 61.8089C188.322 61.8202 188.319 61.9717 188.418 61.9625Z" fill="#3D423E"/>
<path d="M163.754 62.1588C165.979 62.5914 168.257 62.6411 170.511 62.808C170.56 62.8111 170.557 62.7389 170.511 62.7338C168.269 62.4645 166.006 62.4849 163.783 62.0559C163.715 62.0426 163.687 62.146 163.754 62.1588Z" fill="#3D423E"/>
<path d="M182.322 67.0321C184.14 67.4919 186.126 67.8708 187.986 67.4473C188.024 67.4386 188.016 67.3726 187.976 67.3777C186.082 67.6081 184.201 67.3516 182.355 66.9103C182.277 66.8913 182.244 67.0116 182.322 67.0321Z" fill="#3D423E"/>
<path d="M186.558 58.0819C187.237 57.8664 187.932 57.7906 188.639 57.7225C188.688 57.7179 188.689 57.6503 188.639 57.6462C187.925 57.5935 187.2 57.7322 186.521 57.9503C186.438 57.977 186.473 58.1085 186.558 58.0819Z" fill="#3D423E"/>
<path d="M139.249 95.4274C125.821 120.84 121.018 149.697 121.069 178.202C121.103 196.914 123.051 215.66 126.1 234.11C126.115 234.199 126.248 234.16 126.235 234.072C122.08 205.199 119.334 175.925 123.402 146.869C125.906 128.987 131.157 111.599 139.417 95.5252C139.474 95.4146 139.308 95.3163 139.249 95.4274Z" fill="#3D423E"/>
<path d="M128.718 121.897C128.92 118.611 128.175 115.159 127.506 111.96C126.761 108.403 125.799 104.893 124.905 101.371C124.887 101.299 124.781 101.33 124.795 101.401C125.451 104.666 126.298 107.89 127.031 111.137C127.837 114.715 128.2 118.26 128.561 121.897C128.571 121.997 128.711 121.999 128.718 121.897Z" fill="#3D423E"/>
<path d="M128.38 118.582C127.152 113.511 124.683 108.838 123.226 103.833C122.481 101.274 121.745 98.7142 121.252 96.0922C120.968 94.5828 120.938 93.0873 120.938 91.558C120.938 90.9451 120.927 90.3338 120.902 89.7219C120.883 89.258 120.532 88.3999 121.133 89.0461C122.796 90.835 123.818 93.2045 125.084 95.27C126.503 97.5873 127.964 99.8355 128.679 102.488C129.354 104.996 129.383 107.65 129.166 110.221C128.937 112.918 128.082 115.551 128.191 118.272C128.197 118.425 128.433 118.426 128.429 118.272C128.35 115.419 129.229 112.623 129.459 109.786C129.683 107.034 129.463 104.249 128.668 101.602C127.929 99.1376 126.376 96.9688 125.041 94.803C123.667 92.5738 122.533 90.2201 120.734 88.2847C120.668 88.2131 120.515 88.2632 120.528 88.3702C120.823 90.8079 120.541 93.2691 120.933 95.699C121.382 98.4817 122.201 101.198 122.988 103.899C124.449 108.911 126.785 113.605 128.239 118.621C128.265 118.711 128.403 118.673 128.38 118.582Z" fill="#3D423E"/>
<path d="M121.291 176.264C121.449 171.105 122.468 166.221 124.133 161.342C125.784 156.504 127.929 151.853 129.842 147.117C129.864 147.063 129.771 147.025 129.748 147.077C127.707 151.772 125.602 156.444 123.919 161.284C122.269 166.032 120.914 171.194 121.161 176.264C121.165 176.347 121.288 176.348 121.291 176.264Z" fill="#3D423E"/>
<path d="M123.182 163.825C123.244 159.113 124.521 154.625 126.29 150.29C127.227 147.995 128.299 145.756 129.354 143.513C129.795 142.576 130.143 141.607 130.491 140.632C130.58 140.384 131.226 139.228 131.188 139.054C131.305 139.592 131.393 140.137 131.476 140.682C132.15 145.085 131.536 149.578 129.767 153.658C128.867 155.733 127.625 157.646 126.211 159.404C125.196 160.665 123.797 161.772 123.335 163.382C123.292 163.53 123.523 163.593 123.564 163.445C123.906 162.241 124.815 161.317 125.64 160.414C126.357 159.629 127.001 158.776 127.614 157.907C128.91 156.07 129.921 154.045 130.675 151.931C132.201 147.65 132.276 142.997 131.286 138.593C131.269 138.516 131.143 138.492 131.108 138.57C130.217 140.563 129.563 142.638 128.633 144.62C127.698 146.611 126.782 148.609 125.953 150.646C124.236 154.859 123.075 159.254 123.058 163.825C123.057 163.905 123.181 163.905 123.182 163.825Z" fill="#3D423E"/>
<path d="M125.938 232.684C125.434 230.635 125.787 228.381 125.774 226.294C125.759 223.74 125.943 221.186 126.214 218.649C126.776 213.392 127.954 208.25 128.864 203.051C128.878 202.974 128.763 202.939 128.744 203.019C127.559 208.003 126.634 213.083 126.033 218.172C125.714 220.868 125.549 223.579 125.551 226.294C125.552 228.419 125.276 230.636 125.904 232.694C125.91 232.716 125.943 232.706 125.938 232.684Z" fill="#3D423E"/>
<path d="M125.836 222.969C125.792 220.446 125.624 217.928 125.647 215.406C125.671 212.717 126.093 210.081 126.632 207.454C127.14 204.982 127.728 202.529 128.139 200.037C128.342 198.794 128.45 197.539 128.639 196.295C128.735 195.67 128.857 195.048 128.984 194.429C129.236 193.194 129.354 194.7 129.437 195.106C130.412 199.854 130.378 204.734 129.571 209.503C128.778 214.196 126.714 218.487 125.652 223.108C125.627 223.218 125.795 223.265 125.822 223.155C126.441 220.605 127.333 218.181 128.202 215.712C129.048 213.306 129.608 210.804 129.977 208.283C130.702 203.341 130.491 198.287 129.19 193.464C129.175 193.41 129.091 193.407 129.078 193.464C128.5 195.93 128.306 198.446 127.854 200.934C127.404 203.417 126.785 205.866 126.286 208.338C125.298 213.224 125.512 218.019 125.676 222.969C125.68 223.071 125.838 223.072 125.836 222.969Z" fill="#3D423E"/>
</g>
</svg>
