<svg width="110" height="220" viewBox="0 0 110 220" fill="none" xmlns="http://www.w3.org/2000/svg">
<path d="M46.4836 3.25221C36.042 11.9509 32.6532 28.0745 38.7102 40.24C39.6165 42.0605 40.728 43.8641 40.8948 45.8909C41.0951 48.3243 39.9044 50.623 39.2139 52.9648C36.783 61.2138 41.4105 70.926 49.3481 74.2346C52.1345 75.3962 55.4056 75.7988 58.1369 74.5125C60.0261 73.6227 61.4781 72.021 62.7499 70.3647C66.3129 65.7262 68.9521 60.2725 73.4308 56.5108C76.6078 53.8425 80.5653 52.1632 83.5049 49.2356C87.3328 45.4227 89.0136 39.4984 87.4825 34.3172C85.9514 29.1359 81.1471 25.0087 75.7636 24.5495C73.6341 24.3678 71.2848 24.6627 69.5529 23.4104C66.6333 21.2995 67.6918 16.8532 67.6307 13.2512C67.501 5.61552 57.114 -5.60369 46.4836 3.25221Z" fill="#9BB5A1"/>
<path d="M28.4028 96.2279C24.8648 95.2049 21.8231 92.9723 18.546 91.2915C15.2689 89.6101 11.3659 88.4715 7.93412 89.8079C5.93032 90.5885 4.30654 92.1452 3.07482 93.9081C-2.27417 101.561 -0.203767 112.692 5.89377 119.764C11.9913 126.835 21.1877 130.479 30.318 132.433C34.1268 133.248 38.0533 133.816 41.9122 133.288C45.7716 132.76 49.5924 131.021 51.9633 127.93C56.1907 122.418 54.5864 114.041 50.0596 108.772C45.5328 103.503 39.2925 99.3768 28.4028 96.2279Z" fill="#9BB5A1"/>
<path d="M66.3748 84.3698C64.8191 87.708 62.1447 90.3696 59.9792 93.3487C57.8132 96.3278 56.0871 100.009 56.879 103.605C57.3416 105.706 58.6297 107.55 60.1819 109.038C66.9195 115.502 78.2371 115.171 86.1633 110.235C94.0889 105.299 99.1059 96.7738 102.443 88.0535C103.835 84.4156 105.001 80.6234 105.073 76.7292C105.146 72.8345 104.016 68.7914 101.327 65.9729C96.5321 60.947 88.0078 61.2419 82.1046 64.9033C76.2014 68.5646 71.1632 74.0949 66.3748 84.3698Z" fill="#9BB5A1"/>
<path d="M109.971 100.945C109.861 99.9841 109.609 99.0503 109.312 98.1321C109.096 97.4902 108.924 96.8327 108.678 96.2019C108.608 96.0311 108.505 95.8664 108.35 95.7617C108.21 95.6601 108.034 95.6441 107.866 95.6331C107.419 95.6155 106.976 95.7127 106.531 95.7452C105.441 95.8579 104.349 95.9555 103.255 96.0096C100.351 96.1693 97.4464 95.9505 94.5414 95.963C93.5069 95.9695 92.472 95.986 91.4385 96.0261C92.5195 94.7899 93.5675 93.5251 94.5684 92.2218C95.8863 90.5309 96.8902 89.1124 98.0818 87.347C99.3316 85.4929 100.509 83.5882 101.504 81.5844C102.639 79.3202 103.686 76.9754 104.183 74.4799C104.452 73.3779 104.376 72.2248 104.175 71.1177C103.894 69.4649 102.938 67.7605 101.23 67.2854C101.214 67.2814 101.198 67.2789 101.181 67.2754C101.54 65.0372 101.514 62.7525 101.481 60.4889C101.454 59.0203 101.343 57.5537 101.186 56.0932C101.092 55.25 100.944 54.4139 100.729 53.5927C100.57 53.0329 100.407 52.4676 100.117 51.9599C99.8263 51.4848 99.4788 51.0321 98.9996 50.7352C97.839 49.9992 96.4365 49.8104 95.0996 49.6267C93.1614 49.3918 91.1897 49.3428 89.2525 49.6096C88.3101 49.7443 87.3919 49.9992 86.4806 50.2675C85.0716 50.6566 83.7042 51.1808 82.3834 51.8057C81.9993 51.9915 81.6168 52.1812 81.2357 52.3745C81.2608 52.1507 81.2843 51.9269 81.3048 51.7026C81.4761 49.7388 81.3774 47.7625 81.2753 45.7973C81.071 42.385 80.8212 38.9707 80.2829 35.5925C79.7412 32.1502 79.0006 27.5628 75.5718 25.8393C73.8624 25.0773 71.9708 25.7292 70.2904 26.2624C68.9235 26.7081 67.5601 27.1702 66.2287 27.714C64.3005 28.5271 62.4044 29.4209 60.5578 30.4062C60.4151 28.6813 60.1282 26.9679 59.7637 25.2766C59.1974 22.6859 58.4118 20.1319 57.2582 17.7395C56.0995 15.3412 54.654 13.1025 53.3031 10.8123C52.2216 8.93218 51.3274 6.95141 50.2739 5.05575C49.7977 4.2341 49.3806 3.32283 48.6321 2.71197C47.9737 2.21277 47.0614 2.28037 46.2968 2.45411C45.5363 2.63737 44.8758 3.07798 44.289 3.58219C43.7678 4.02932 43.2691 4.50598 42.8345 5.03873C40.9799 7.26084 39.621 9.8765 38.7147 12.6188C37.0259 17.8271 36.1907 23.2933 36.0199 28.7594C35.9148 31.8823 35.8627 35.0367 36.3469 38.1321C36.6849 40.3246 37.1921 42.5152 38.1609 44.522C38.9866 46.1979 40.0306 47.758 41.1011 49.2862C41.2833 49.5375 41.4711 49.7844 41.6623 50.0287C40.8767 52.4887 40.4066 55.0938 40.6945 57.6749C40.7015 57.7505 40.71 57.8251 40.7185 57.8997C39.9519 57.4511 39.1568 57.048 38.3532 56.6755C36.4415 55.7993 34.4808 55.0317 32.498 54.3317C30.4251 53.5777 28.3362 53.1516 26.4826 52.2839C23.8704 51.0622 21.454 49.4364 18.7498 48.4109C17.2306 47.8026 15.2223 47.5733 13.9696 48.8335C13.531 49.3443 13.2866 49.9847 13.0908 50.6205C12.9236 51.1803 12.7624 51.7421 12.6347 52.3119C12.3288 53.6528 12.3408 55.0347 12.475 56.3961C12.5511 57.3565 12.6803 58.3173 12.9542 59.2431C13.1219 59.7944 13.3737 60.3146 13.6116 60.8378C14.2705 62.3254 15.1843 63.6728 16.0214 65.0618C16.742 66.2319 17.4474 67.5743 17.9321 68.6408C19.0226 71.0181 20.0726 73.4225 21.417 75.6706C22.3193 77.0801 23.3908 78.3784 24.6545 79.4794C25.1672 79.9075 25.7045 80.3021 26.2548 80.6796C24.4678 80.62 22.6833 80.7858 20.9023 80.92C18.21 81.1252 15.8006 81.4682 13.2676 81.9579C12.4795 82.0966 11.6984 82.2703 10.9218 82.4621C10.1467 82.6469 9.37715 82.8687 8.66715 83.2372C7.83799 83.6117 7.06241 84.1144 6.4876 84.8309C6.11458 85.2846 5.88726 85.8353 5.64392 86.3651C5.25688 87.2754 5.09415 88.2753 5.22333 89.2591C5.22833 89.3142 5.23635 89.3693 5.24336 89.4239C5.13721 89.541 5.04858 89.6772 4.97198 89.8129C4.63701 90.4828 4.50132 91.2314 4.37614 91.9639C4.16885 93.3308 4.01013 94.7073 3.96257 96.0897C3.85892 98.2227 4.10427 100.347 4.47078 102.445C4.90539 104.927 5.89977 107.283 7.16354 109.452C8.26308 111.241 9.5579 112.9 10.8577 114.546C12.0609 116.072 13.3427 117.534 14.652 118.97C15.9719 120.385 17.3208 121.795 18.8774 122.953C20.1542 123.837 21.5277 124.575 22.9887 125.105C24.0196 125.482 25.0977 125.708 26.1646 125.958C27.0724 126.153 27.9932 126.268 28.9145 126.377C30.1562 126.52 31.4045 126.624 32.6552 126.562C34.5914 126.52 36.5111 126.171 38.3888 125.714C40.0466 125.277 41.6618 124.699 43.2936 124.178C44.1568 123.91 44.9179 123.718 45.6639 123.632C46.398 123.523 47.1751 123.55 47.873 123.279C48.3612 123.089 47.9036 122.645 47.0128 122.173C46.2558 121.771 45.4992 121.368 44.7757 120.907C43.179 119.918 41.8416 118.937 40.3901 117.874C40.3805 117.867 40.371 117.86 40.3615 117.853C41.424 118.525 42.5591 119.201 43.584 119.778C45.7501 120.971 47.8961 122.203 50.1047 123.317C50.4031 123.458 50.7045 123.593 51.0189 123.694C51.418 123.826 51.6598 123.885 51.7845 124.108C51.7945 124.132 51.807 124.163 51.8065 124.181C51.809 124.192 51.811 124.203 51.8136 124.214C51.8221 124.266 51.8281 124.318 51.8341 124.37C51.8691 124.691 51.8912 125.014 51.9007 125.337C51.9342 127.623 51.8646 129.909 51.8651 132.196C51.8441 134.285 51.9122 136.374 51.9187 138.463C51.8576 142.679 51.746 146.896 51.7119 151.114C51.6528 154.727 51.784 158.339 51.8386 161.951C51.8651 164.684 51.7865 167.417 51.6939 170.148C51.5547 174.552 51.3449 178.956 51.3489 183.363C51.3614 185.665 51.4225 187.966 51.4601 190.268C51.4951 193.203 51.5196 196.138 51.6458 199.071C51.8181 203.28 52.0694 207.487 52.5986 211.668C52.8605 213.932 53.1209 216.196 53.3727 218.461C53.4368 218.924 53.4448 219.399 53.5365 219.854C53.582 219.971 53.7272 220.029 53.8449 219.991C53.952 219.958 54.0286 219.847 54.0231 219.736C53.5269 214.714 52.7799 209.715 52.462 204.677C52.158 199.873 52.0248 195.06 51.9823 190.247C51.9307 187.357 51.8396 184.467 51.8601 181.577C51.9417 175.857 52.2462 170.143 52.3218 164.424C52.3613 160.907 52.1776 157.393 52.1776 153.876C52.1711 148.948 52.3047 144.022 52.3868 139.096C52.4084 137.131 52.3308 135.167 52.3313 133.202C52.3253 130.794 52.3818 128.387 52.3723 125.98C52.3718 125.508 52.3643 125.037 52.3183 124.568C52.2857 124.277 52.2872 123.945 52.0759 123.718C51.6588 123.309 51.0865 123.287 50.719 123.094C49.1018 122.348 47.5611 121.446 46.0004 120.591C43.6461 119.312 41.3023 118.003 39.0887 116.49C37.3763 115.349 35.7225 114.009 33.9576 112.713C31.3329 110.827 28.7388 108.899 26.1531 106.959C23.8309 105.191 21.5151 103.409 19.0757 101.803C17.0279 100.456 14.8643 99.2962 12.6723 98.2032C12.137 97.9303 11.6003 97.6599 11.0705 97.376C10.9073 97.2879 10.7471 97.1937 10.5823 97.1086C10.5067 97.0791 10.4176 97.043 10.341 97.0861C10.2619 97.1191 10.2173 97.2078 10.2163 97.2914C10.2268 97.409 10.321 97.4887 10.4126 97.5507C10.6274 97.705 10.8472 97.8522 11.0655 98.0014C11.5857 98.3579 12.103 98.7199 12.6217 99.0784C13.559 99.7173 14.4848 100.374 15.4406 100.985C16.5892 101.726 17.7609 102.433 18.8784 103.222C20.376 104.26 21.8611 105.317 23.3647 106.346C25.1207 107.517 26.8756 108.69 28.6301 109.864C29.9474 110.735 31.6884 111.764 32.7889 112.578C34.3596 113.682 35.7696 114.991 37.3022 116.144C40.2123 118.264 43.0718 120.483 46.2012 122.276C46.6423 122.508 46.9507 122.71 47.2812 122.929C47.3087 122.923 47.3082 122.924 47.2927 122.928C47.2892 122.928 47.2857 122.929 47.2822 122.93L47.2827 122.93C47.2632 122.935 47.2326 122.941 47.2051 122.944C46.2032 123.08 45.1838 123.091 44.2049 123.373C42.1625 123.918 40.1983 124.722 38.1494 125.247C35.5418 125.892 32.9221 126.24 30.1122 126.01C29.276 125.914 27.6597 125.777 26.5837 125.549C25.4356 125.309 24.285 125.056 23.174 124.677C22.9311 124.564 21.9012 124.201 21.45 123.947C20.7666 123.604 20.1112 123.211 19.4653 122.802C18.1414 121.926 16.7199 120.506 15.4952 119.224C14.2119 117.848 12.9547 116.439 11.8596 115.094C10.3105 113.147 8.74376 111.196 7.45746 109.061C7.0609 108.424 6.65333 107.524 6.47458 107.152C5.97839 106.089 5.54678 104.996 5.25037 103.861C4.94744 102.705 4.81576 101.822 4.65203 100.628C4.48229 99.4389 4.38165 98.2422 4.39968 97.041C4.40669 95.5249 4.50533 94.2136 4.7026 92.8026C4.80324 91.9073 5.02105 90.6831 5.36653 90.0232C5.46567 90.3877 5.60086 90.7432 5.74106 91.0952C6.23976 92.395 7.0574 93.6363 8.21702 94.4329C8.89847 94.865 9.60696 95.26 10.3535 95.569C11.2833 95.958 12.2552 96.2364 13.2145 96.5423C14.6971 97.0225 15.9483 97.4741 17.3783 98.2502C19.5664 99.4449 21.754 100.64 23.9806 101.763C26.2933 102.918 28.6631 104.005 31.1802 104.633C32.6612 105.003 34.1618 105.302 35.6775 105.49C37.4309 105.673 38.89 105.82 40.6995 105.965C42.6728 106.113 44.652 105.897 46.6133 105.692C46.6939 105.682 46.7755 105.671 46.8591 105.659C46.9447 105.924 47.0228 106.184 47.0889 106.431C47.6873 108.696 48.0538 110.734 48.3787 112.939C48.5625 114.262 48.7177 115.589 48.891 116.913C48.9901 117.723 49.1038 118.531 49.2865 119.326C49.3636 119.663 49.3937 120.015 49.5268 120.336C49.7151 120.773 50.1512 121.031 50.5343 121.281C51.9147 122.093 52.0954 119.708 52.1966 118.841C52.2827 118.092 52.2487 117.337 52.2231 116.585C52.1796 115.478 52.129 114.371 52.0804 113.263C52.0264 112.038 51.9848 110.811 51.9958 109.585C52.0008 108.866 52.1951 105.618 51.2107 105.038C50.8782 104.834 50.4652 104.827 50.0871 104.785C49.2364 104.735 48.3893 104.848 47.5501 104.979C47.4449 104.995 47.3393 105.011 47.2341 105.026C47.0013 104.337 46.7405 103.658 46.453 102.989C46.0915 102.127 45.71 101.27 45.2273 100.468C44.5669 99.4179 43.8404 98.4059 43.0478 97.4521C41.9953 96.2684 40.69 95.3517 39.3171 94.5756C38.0378 93.8481 36.6463 93.3499 35.2704 92.8391C33.4809 92.1962 31.6508 91.6365 29.7627 91.3746C28.5925 91.1918 27.4139 91.0782 26.2362 90.9585C25.4026 90.8759 24.5684 90.7833 23.7302 90.7597C21.409 90.7112 19.0892 90.8659 16.7775 91.0617C15.2774 91.1978 13.7723 91.3486 12.2642 91.2725C11.4866 91.2414 10.0831 90.931 9.40669 90.6461C8.37875 90.217 7.48499 89.506 6.419 89.1645C6.19519 89.1174 5.95836 89.0854 5.73455 89.131C5.60637 88.0524 5.85822 87.1131 6.26479 86.2499C6.49661 85.7743 6.65984 85.4158 6.92221 85.1268C7.42641 84.5345 7.85301 84.2421 8.58704 83.8646C9.04768 83.6503 9.55639 83.3774 10.2013 83.2137C11.6613 82.8081 13.1569 82.5292 14.4527 82.3144C16.6934 81.9078 18.9561 81.638 21.2257 81.4577C22.9071 81.3185 24.5919 81.1618 26.2813 81.2144C26.5632 81.2254 26.8401 81.2394 27.115 81.2564C27.5336 81.5263 27.9562 81.7902 28.3787 82.053C29.6861 82.8592 30.9769 83.6918 32.2537 84.546C36.2743 87.1872 38.7082 88.8616 43.6907 89.2226C44.957 90.2445 46.1601 91.3431 47.2411 92.5618C47.9717 93.3819 48.7983 94.5706 49.5028 95.6491C50.5768 97.3239 51.5632 98.8095 52.0394 100.668C52.2687 101.507 52.5115 102.471 52.3333 102.954C52.1806 103.328 51.3689 102.756 50.6059 102.163C50.1142 101.785 49.5909 101.452 49.0472 101.154C48.3487 100.767 47.6547 100.372 46.9773 99.9491C46.5196 99.6912 46.1096 99.3282 45.6169 99.1415C45.3315 99.0659 45.1392 99.3598 45.2689 99.6051C45.3896 99.853 45.6374 100.005 45.8567 100.157C47.0769 100.868 48.0688 101.78 49.247 102.732C50.0766 103.46 51.1056 104.185 51.6238 104.966C52.0253 105.555 51.9613 106.279 52.2121 107.133C52.3092 107.423 52.3618 107.761 52.5977 107.972C53.557 108.563 53.4954 105.769 53.4819 105.281C53.4634 104.354 53.4338 103.426 53.3777 102.5C53.3262 100.688 52.6532 98.9903 52.2281 97.2483C51.4906 94.2271 51.5897 91.8478 47.3148 87.1872C45.6274 85.3477 44.0447 83.3904 42.4815 81.2244C40.8517 78.9602 39.3201 76.6254 37.7694 74.3067C36.4761 72.3254 35.2328 70.3046 33.7838 68.4315C32.7884 67.1567 31.7349 65.9245 30.6159 64.7568C29.5814 63.7019 28.4619 62.735 27.3824 61.7266C25.8202 60.3346 24.2064 58.9898 22.7243 57.5127C22.4154 57.1617 22.109 56.8082 21.8096 56.4487C20.8157 55.3036 19.7632 53.7324 18.6912 52.4791C18.6286 52.414 18.529 52.3795 18.4463 52.4241C18.3727 52.4536 18.3322 52.5332 18.3332 52.6103C18.3677 52.7776 18.5164 52.8962 18.591 53.0474C18.8579 53.4755 19.1573 53.8826 19.4538 54.2907C20.3846 55.589 21.424 56.8047 22.5541 57.9338C22.5701 57.9498 22.5861 57.9653 22.6022 57.9818C23.4634 58.9622 24.3511 59.9191 25.2669 60.8489C26.05 61.6495 26.796 62.4862 27.5906 63.2758C28.5475 64.1795 29.4242 65.1604 30.3145 66.1283C30.8282 66.6805 31.382 67.1927 31.9027 67.7375C32.5341 68.3929 33.2661 69.2206 33.7688 69.8189C34.9965 71.2629 36.03 72.8552 37.101 74.4159C37.7393 75.3417 38.3968 76.2549 39.0036 77.2028C39.7762 78.4345 40.5548 79.6617 41.3704 80.8659C42.3298 82.2919 43.2205 83.7629 44.2074 85.1709C45.0851 86.4382 46.077 87.6248 46.9172 88.9182C46.9502 88.9717 46.9833 89.0248 47.0148 89.0789C47.0228 89.0924 47.0449 89.1345 47.0584 89.1595C47.0609 89.165 47.0629 89.171 47.0654 89.1765C46.8686 89.178 46.6668 89.1174 46.3769 89.0699C45.9699 88.9948 45.5598 88.9417 45.1482 88.8986C44.7236 88.8631 44.3095 88.8285 43.9005 88.7905C42.8615 87.9613 41.782 87.1807 40.6915 86.4227C38.6977 85.0077 36.6929 83.5707 34.4512 82.5693C33.3137 82.0561 32.1465 81.5999 30.9348 81.295C29.7081 80.9951 28.4513 80.8368 27.1926 80.7397C26.3058 80.1609 25.4511 79.548 24.6585 78.836C23.4999 77.757 22.7118 76.7621 21.8531 75.4353C20.7996 73.6538 20.0065 71.9834 19.2004 70.1974C18.4594 68.5637 17.7273 66.9214 16.8075 65.3782C16.1777 64.3002 15.4927 63.2552 14.8648 62.1762C14.4492 61.4282 14.1488 60.7913 13.8499 60.1274C13.2305 58.7589 13.0954 57.5843 12.9707 56.1488C12.8725 54.9396 12.8415 53.8661 13.0503 52.8021C13.1599 52.1937 13.3227 51.5969 13.4959 51.0041C13.6887 50.3752 13.7788 50.0452 14.1183 49.4754C14.5389 48.7039 15.7861 48.3469 16.6218 48.437C17.6693 48.5311 18.3282 48.782 19.253 49.1855C21.0079 49.9116 22.6152 50.9305 24.3025 51.7927C25.6354 52.5292 27.0078 53.1991 28.4679 53.6448C32.0854 54.7218 35.3084 55.8479 38.7057 57.4686C39.4703 57.8356 40.1697 58.2132 40.8142 58.6102C41.2793 61.4207 42.5841 63.6423 44.3796 65.9265C45.0436 66.8022 45.7516 67.6424 46.438 68.5001C47.0243 69.2401 47.5991 69.9897 48.1875 70.7282C48.8118 73.6162 48.9986 76.5614 48.585 79.4033C48.1264 82.2503 47.3538 84.3423 48.5785 87.1932C48.8113 87.7605 49.0452 88.3273 49.2835 88.8921C49.4487 89.2486 49.5634 89.6392 49.8007 89.9551C49.9159 90.1053 50.1537 90.1589 50.3054 90.0322C50.4206 89.9421 50.4807 89.8044 50.5217 89.6672C50.742 88.8626 50.7516 88.0219 50.8237 87.1957C50.8858 86.2044 50.9548 85.211 50.9804 84.2171C50.9974 84.5561 51.0089 84.895 51.0074 85.235C51.0074 86.8187 50.8502 88.4079 51.1086 89.9806C51.2302 90.7537 51.2513 91.5579 51.5392 92.2929C51.6043 92.4706 51.8221 92.6213 52.0023 92.4992C52.133 92.397 52.1485 92.2188 52.1756 92.0661C52.3518 90.1934 52.1776 88.3073 52.2617 86.4302C52.3949 83.463 52.7869 81.8262 52.8505 81.5659C52.835 82.6834 52.8475 83.803 52.7789 84.9176C52.7123 86.3536 52.5175 87.4972 52.4284 88.9958C52.3423 90.214 52.4079 91.4352 52.4449 92.6544C52.5055 93.9021 52.495 95.1569 52.6773 96.3951C52.8876 97.7916 53.2811 99.153 53.535 100.541C53.6226 100.982 53.7422 101.836 53.8179 102.499C53.8469 102.746 53.8674 102.993 53.882 103.24C53.883 103.306 53.9135 103.367 53.9591 103.412C53.9676 103.423 53.9766 103.434 53.9871 103.444C54.0592 103.513 54.1789 103.523 54.262 103.468C54.7372 103.22 54.9595 102.693 55.2403 102.264C55.6649 101.524 56.0745 100.774 56.5006 100.034C57.5501 98.1481 58.7608 96.3601 59.8799 94.5165C61.058 92.5087 62.2286 90.4954 63.5104 88.5511C63.9996 87.7971 64.5283 87.0676 64.995 86.2995C65.3245 85.7522 65.3545 85.0938 65.2659 84.4759C65.1582 83.5682 64.9845 82.6644 64.667 81.8052C64.2059 80.4944 63.4889 79.0173 63.3672 77.8416C63.2761 77.2518 63.2766 76.6895 63.3417 76.1433C64.7552 75.3001 66.1787 74.4719 67.5426 73.5486C68.5465 72.8762 69.5704 72.2298 70.5082 71.4657C71.765 70.4563 72.9361 69.3438 74.0362 68.1661C75.1873 66.9374 76.2643 65.6296 77.1585 64.2001C78.1614 62.6198 78.9816 60.925 79.6655 59.1845C80.3825 57.1782 80.8812 55.0958 81.1606 52.9839C82.472 52.2949 83.6646 51.7556 85.1152 51.2264C86.4515 50.7943 88.0563 50.3086 89.2224 50.1314C90.8096 49.8655 92.9041 49.907 94.2495 50.0277C95.8141 50.1644 97.7423 50.4583 98.7738 51.1483C99.5604 51.7096 99.8753 52.394 100.158 53.3469C100.534 54.6106 100.659 55.6571 100.776 57.0135C100.87 58.124 100.942 59.2371 100.958 60.3517C100.967 62.6153 101.026 64.8294 100.713 66.9028C100.694 67.0165 100.674 67.1312 100.654 67.2468C100.255 67.2734 99.8633 67.4105 99.4988 67.5838C98.934 67.8356 98.3888 68.1376 97.9101 68.5311C97.0839 69.193 96.3995 70.0067 95.6995 70.7958C94.5359 72.1211 93.4038 73.4735 92.2472 74.8049C90.5793 76.7546 88.9265 78.7214 87.3944 80.7803C86.1626 82.4146 85.1773 84.0018 84.0662 85.568C83.7863 85.9645 83.4839 86.3876 83.1685 86.8247C82.7854 86.9809 82.3929 87.1352 81.9863 87.2889C80.9999 87.6744 80.0035 88.0444 78.9691 88.2793C76.9608 88.7745 74.3381 88.7785 72.2927 88.5136C70.6379 88.3143 69.1809 87.5908 67.6247 87.753C67.2131 87.77 67.0379 87.751 66.9703 87.6649C66.9678 87.6539 66.9417 87.5863 66.9432 87.5482C66.9553 87.6544 66.9598 87.5718 66.9598 87.5312C66.9923 87.2999 67.0309 87.2373 67.1756 86.9684C67.3373 86.668 67.7419 86.2034 68.1109 85.8434C69.0902 84.8945 70.0275 84.169 71.1286 83.2132C72.1655 82.3174 73.176 81.3916 74.1709 80.4498C75.8292 78.8586 77.4289 77.2063 78.9836 75.5144C79.9219 74.4679 80.8307 73.3954 81.78 72.3585C83.943 69.8409 86.1842 67.3885 88.2586 64.7959C89.2234 63.5877 90.1367 62.2769 90.9308 61.1623C91.7179 60.0532 92.5376 58.9667 93.3136 57.8497C93.9841 56.8923 94.6685 55.9445 95.2874 54.9521C95.4481 54.6973 95.6044 54.4399 95.7561 54.1795C95.7886 54.1249 95.8167 54.0644 95.8137 53.9998C95.8107 53.8921 95.731 53.7945 95.6259 53.7689C95.4431 53.7319 95.3315 53.8896 95.2268 54.0123C94.9489 54.3332 94.668 54.6512 94.4032 54.9831C93.582 55.982 92.7929 57.0065 91.9512 57.9884C91.2197 58.8671 90.5723 59.8114 89.8668 60.7107C88.9706 61.8117 88.0623 62.9027 87.1976 64.0293C86.1491 65.3417 85.1207 66.671 84.0317 67.9498C83.3973 68.6853 82.7013 69.3633 82.0073 70.0412C80.674 71.3556 79.273 72.5993 77.9241 73.8976C77.0854 74.7128 76.3164 75.5955 75.4907 76.4237C74.7301 77.1972 73.9165 77.9163 73.1449 78.6788C72.2487 79.543 71.3875 80.4423 70.5147 81.33C69.4698 82.4065 68.3237 83.3799 67.2947 84.4719C66.5897 85.2255 65.8807 85.9846 65.2934 86.8352C64.7271 87.715 64.293 88.6728 63.7367 89.559C63.1594 90.5474 62.4875 91.4757 61.8972 92.4561C61.2528 93.4961 60.692 94.5841 60.0721 95.6381C59.2449 97.0796 58.4058 98.5136 57.6332 99.9856C57.0809 100.994 56.6218 102.05 56.0595 103.053C55.0416 104.917 53.8624 106.746 53.4308 108.855C53.2661 109.579 53.1955 110.319 53.0808 111.052C52.9181 112.036 52.7749 113.024 52.7514 114.023C52.7038 115.145 52.7704 116.266 52.8215 117.388C52.847 118.463 52.8145 123.133 52.9256 125.504C53.0253 127.621 53.0903 129.738 53.1374 131.856C53.2551 133.77 53.1109 135.682 52.9221 137.586C52.8815 138.098 52.7063 139.644 52.6823 140.446C52.6637 140.849 52.6292 141.252 52.6387 141.654C52.6512 141.781 52.6738 141.915 52.7724 142.005C52.8725 142.1 53.0217 142.08 53.1329 142.015C53.4373 141.79 53.5224 141.402 53.6691 141.072C53.8669 140.554 54.0327 140.026 54.1964 139.497C54.7432 137.703 55.1267 135.859 55.7996 134.104C56.3734 132.664 57.3573 130.631 58.219 129.051C58.237 129.02 58.2556 128.988 58.2736 128.956C59.7952 127.696 61.058 126.17 62.4079 124.736C64.4658 122.526 66.5297 120.319 68.6636 118.182C71.6323 115.345 74.6645 112.575 77.6127 109.716C79.1398 108.243 80.7185 106.824 82.2101 105.314C84.0892 103.53 86.0049 101.783 87.836 99.9486C88.891 98.8521 89.9279 97.737 90.9388 96.5994C91.9037 96.5483 92.875 96.5213 93.8489 96.5138C97.5311 96.4467 101.219 96.7902 104.894 96.4477C105.846 96.3826 106.792 96.2569 107.742 96.1813C107.802 96.1808 107.861 96.1853 107.92 96.1908C107.952 96.1958 107.994 96.2059 108.021 96.2119C108.03 96.2164 108.039 96.2214 108.048 96.2259C108.062 96.2389 108.079 96.2544 108.093 96.2694C108.098 96.28 108.132 96.3325 108.156 96.3776C108.164 96.4026 108.195 96.4822 108.208 96.5118C108.701 98.1881 109.263 99.7028 109.37 101.28C109.465 103.625 108.309 105.794 106.881 107.902C105.408 110.042 103.347 112.4 101.323 114.422C99.7557 115.953 98.3747 117.099 96.6458 118.415C95.9533 118.95 95.2213 119.43 94.5203 119.953C92.9206 121.176 91.3619 122.452 89.7847 123.703C88.3227 124.849 86.8421 125.979 85.2899 127C84.3251 127.636 83.3041 128.178 82.2797 128.709C80.682 129.536 78.92 130.329 76.9808 130.79C75.9263 131.042 75.1898 131.196 74.0597 131.121C72.8185 131.017 70.7571 130.468 69.2169 130.407C67.9271 130.358 66.6348 130.343 65.348 130.229C64.6996 130.183 63.6086 130.003 62.7238 130.017C62.2902 130.026 61.8561 130.04 61.423 130.068C61.5377 129.551 61.8641 129.135 62.2231 128.605C62.7679 127.804 63.6246 126.744 64.4387 125.89C66.1101 124.154 67.7343 122.793 69.5579 121.362C70.5287 120.586 71.4966 119.806 72.51 119.087C74.5389 117.63 76.6603 116.299 78.8649 115.125C81.1897 113.868 83.6116 112.805 85.9619 111.598C89.648 109.758 93.1479 107.582 96.758 105.602C98.9035 104.378 101.149 103.326 103.227 101.987C104.675 101.045 106.112 99.9947 107.012 98.4871C107.066 98.3769 107.08 98.2317 106.982 98.1421C106.872 98.0294 106.701 98.0565 106.57 98.117C105.76 98.5061 105.05 99.0749 104.332 99.6091C102.717 100.93 100.835 101.849 98.9836 102.787C96.789 103.894 94.5604 104.934 92.4009 106.109C90.4707 107.12 88.6031 108.243 86.7224 109.341C85.9033 109.83 85.0621 110.28 84.2319 110.75C83.6386 111.088 83.0688 111.468 82.467 111.792C81.0039 112.562 79.5173 113.288 78.0448 114.04C76.8576 114.691 75.6129 115.238 74.4532 115.939C72.1966 117.369 69.9489 118.823 67.872 120.507C67.4314 120.837 67.0504 121.234 66.6493 121.608C66.1732 122.049 65.687 122.477 65.2308 122.938C64.8107 123.337 64.4327 123.777 64.0317 124.196C63.5875 124.649 63.1169 125.075 62.6663 125.522C61.9217 126.248 61.2057 127.002 60.5242 127.788C60.1497 128.186 59.7632 128.574 59.4312 129.009C57.7799 131.3 56.761 133.97 55.8597 136.627C55.2313 138.476 54.616 140.334 54.1789 142.237C53.4498 145.412 53.1204 154.161 53.6461 161.971C53.8519 165.032 53.6346 168.094 53.4819 171.151C53.235 176.071 52.8976 180.991 52.8941 185.918C52.854 188.699 53.0513 191.474 53.1114 194.253C53.1649 196.475 53.2591 198.695 53.3001 200.917C53.3557 202.79 53.4704 204.659 53.4964 206.532C53.5154 207.499 53.4944 208.467 53.5049 209.435C53.5099 209.747 53.5114 210.059 53.5154 210.372C53.5174 210.499 53.6361 210.61 53.7638 210.601C53.9005 210.597 54.0091 210.466 53.9926 210.331C53.9966 210.046 53.9986 209.762 54.0061 209.478C54.0302 208.473 54.0377 207.467 54.0307 206.462C54.0186 204.565 53.9085 202.671 53.8504 200.776C53.8053 198.318 53.6952 195.861 53.6521 193.402C53.4358 188.633 53.3632 183.857 53.6326 179.088C53.7593 176.052 53.9365 173.018 54.0852 169.983C54.1583 168.362 54.2785 166.742 54.2805 165.119C54.2905 163.361 54.1854 161.605 54.0822 159.851C54.0236 158.378 53.9696 156.905 53.934 155.431C53.9005 152.932 53.9546 150.432 54.0697 147.935C54.1363 146.489 54.4257 143.636 54.6746 142.394C55.0481 140.93 55.4897 139.486 55.9473 138.047C56.9027 135.134 58.0863 131.816 59.8158 129.399C60.1522 128.957 60.5428 128.56 60.9198 128.153C61.6704 127.27 62.4735 126.434 63.2971 125.62C63.6737 125.231 64.0762 124.87 64.4482 124.478C64.9239 123.962 65.3986 123.444 65.9083 122.961C66.5477 122.359 67.1926 121.764 67.8295 121.161C68.1865 120.873 68.9596 120.26 69.4908 119.842C71.3113 118.522 73.195 117.285 75.1132 116.111C77.0233 115.091 78.9661 114.133 80.8938 113.147C81.5532 112.806 82.2251 112.491 82.874 112.131C83.4528 111.809 84.0066 111.444 84.5834 111.119C87.0599 109.774 89.4397 108.26 91.9187 106.92C94.1989 105.666 96.5442 104.541 98.8749 103.386C100.332 102.663 101.772 101.905 103.159 101.052C103.714 100.7 104.218 100.277 104.747 99.887C105.216 99.5445 105.773 99.1124 106.265 98.809C105.691 99.6136 104.835 100.32 103.917 100.966C102.146 102.242 100.181 103.203 98.2741 104.253C96.5141 105.219 94.7567 106.191 93.0167 107.195C91.3724 108.152 89.7281 109.109 88.0388 109.987C84.3641 111.983 80.4777 113.563 76.8541 115.656C74.5314 117.016 72.2837 118.509 70.1783 120.187C68.931 121.185 67.6597 122.155 66.4716 123.224C63.8093 125.617 61.1862 128.743 60.8998 130.013C60.7195 130.813 61.5882 130.581 61.7289 130.574C62.2326 130.535 63.3597 130.545 63.5915 130.583C64.5579 130.695 65.5243 130.807 66.4966 130.858C67.6102 130.937 69.0912 130.918 69.9454 131.022C71.0835 131.162 72.1986 131.444 73.3337 131.602C73.924 131.693 74.5208 131.74 75.1177 131.702C75.742 131.651 76.3574 131.525 76.9688 131.393C78.7533 130.993 80.4496 130.294 82.0829 129.481C83.4188 128.815 84.7456 128.123 85.9814 127.282C89.6826 124.774 92.9637 121.708 96.6318 119.156C100.811 116.116 104.52 112.414 107.479 108.172C108.923 106.047 110.209 103.581 109.971 100.945ZM19.5709 103.179C18.1464 102.16 16.6483 101.253 15.1733 100.313C14.3766 99.7954 13.592 99.2591 12.8104 98.7199C14.625 99.6542 16.4225 100.604 18.1569 101.704C20.8572 103.426 23.2981 105.322 25.9098 107.309C26.797 107.975 27.6853 108.639 28.575 109.302C25.5543 107.288 22.5331 105.276 19.5709 103.179ZM50.4662 105.416C50.9839 105.475 51.0665 105.678 51.1636 105.835C51.7134 106.726 51.4971 110.753 51.5547 112.237C51.6098 113.656 51.6834 115.075 51.7384 116.495C51.7805 117.455 51.7965 118.45 51.6739 119.228C51.5782 119.855 51.5116 120.406 51.2297 120.829C51.3118 120.732 51.2057 120.861 51.1496 120.919C51.1361 120.929 51.1221 120.939 51.1081 120.949C51.0975 120.953 51.0865 120.957 51.0755 120.959C51.064 120.96 51.0525 120.961 51.0415 120.961C51.0164 120.956 50.9859 120.95 50.9684 120.948C50.6474 120.813 50.5147 120.667 50.3235 120.536C49.9059 120.249 49.9074 119.863 49.7707 119.194C49.4552 117.776 49.3206 116.119 49.1123 114.499C48.8739 112.497 48.5825 110.5 48.1564 108.528C47.9677 107.53 47.7178 106.546 47.4139 105.578C48.4939 105.424 49.6831 105.267 50.4662 105.416ZM5.83118 89.558C6.31586 89.518 6.4866 89.6582 6.97628 89.87C7.61718 90.1964 8.22103 90.5925 8.87094 90.9019C11.3835 92.1036 14.2359 91.7722 16.9197 91.5388C19.1914 91.3561 21.4711 91.2154 23.7508 91.2715C25.6204 91.3736 27.6778 91.6099 29.7121 91.9048C31.3364 92.1392 32.9151 92.5988 34.4658 93.1276C35.7916 93.5987 36.8917 93.9993 38.2375 94.6297C39.8463 95.4603 41.1111 96.2389 42.3663 97.5372C42.8255 97.9703 43.2415 98.5942 43.7212 99.2321C44.3496 100.093 44.9389 100.986 45.3906 101.953C45.7566 102.762 46.2663 103.952 46.6703 105.101C45.733 105.224 44.7912 105.311 43.8479 105.377C42.7789 105.464 41.7059 105.502 40.6354 105.417C37.6137 105.172 34.8773 105.003 31.8761 104.279C29.1879 103.665 26.9332 102.665 24.4457 101.429C22.4209 100.417 20.4266 99.3448 18.4478 98.2462C17.7854 97.8872 17.1275 97.5182 16.4425 97.2038C15.5818 96.8172 14.6946 96.4923 13.8033 96.1848C11.8591 95.57 10.1873 95.1148 8.46437 93.9652C7.5616 93.3433 6.66485 92.0936 6.24927 90.95C6.06551 90.4488 5.87875 89.9982 5.79263 89.5696C5.80565 89.5646 5.81866 89.5606 5.83118 89.558ZM30.7856 66.0386C30.1192 65.3412 29.4833 64.6146 28.8109 63.9222C28.2686 63.3679 27.6993 62.8412 27.1701 62.2739C26.8496 61.9324 26.5272 61.5929 26.2047 61.2534C26.2623 61.3035 26.3199 61.3536 26.3774 61.4036C27.498 62.4156 28.6121 63.436 29.7086 64.4744C31.2828 66.0386 32.6267 67.6018 33.896 69.3317C32.9176 68.1801 31.8591 67.1016 30.7856 66.0386ZM45.8968 89.4384C46.3399 89.4844 46.781 89.6587 47.2276 89.6006C47.4885 89.546 47.6047 89.2631 47.479 89.0278C47.2146 88.4911 46.8221 88.0299 46.4816 87.5407C45.8011 86.6014 45.0826 85.6891 44.4292 84.7303C44.0922 84.2441 43.7673 83.7499 43.4453 83.2532C45.1152 85.3607 46.8095 87.2128 48.3242 89.1244C50.5863 91.9794 50.7115 93.0239 51.8621 97.6379C52.1956 98.9747 52.6893 100.322 52.817 101.527C52.9496 102.687 52.9637 103.858 52.9967 105.024C53.0313 105.871 53.0062 106.884 52.8109 107.429C52.7053 107.192 52.6192 106.855 52.5501 106.546C52.457 106.123 52.4164 105.426 52.12 104.883C51.7575 104.252 51.2042 103.763 50.6494 103.304C50.1873 102.909 49.7241 102.514 49.2515 102.131C48.8164 101.786 48.3938 101.425 47.9622 101.076C48.5675 101.426 49.1889 101.751 49.7727 102.137C50.0941 102.345 50.4612 102.646 50.8943 102.954C51.2172 103.185 51.5497 103.423 51.9417 103.516C52.851 103.683 52.9501 102.756 52.837 102.072C52.6893 101.019 52.3889 99.9881 51.9948 99.0023C51.5287 97.9413 50.9248 96.9479 50.3014 95.9735C49.3311 94.4694 48.3292 92.9698 47.0849 91.676C46.2783 90.8243 45.4151 90.0342 44.5153 89.2862C44.9549 89.3222 45.364 89.3608 45.8968 89.4384ZM31.1481 81.8693C32.8655 82.349 34.4633 83.0419 36.1256 83.9682C38.0873 85.0793 40.1252 86.6074 41.803 87.7756C42.2161 88.0765 42.6252 88.3834 43.0298 88.6963C41.9868 88.5762 40.9559 88.4039 39.8543 88.0855C36.8686 87.2303 34.0912 85.1148 31.3539 83.3614C30.2844 82.6344 29.1969 81.9935 28.1389 81.336C29.1203 81.4367 30.0957 81.5999 31.1481 81.8693ZM60.0371 34.5596C59.8163 37.7145 58.6446 41.4277 57.4299 44.3998C56.8271 45.9124 56.2042 47.4206 55.4692 48.8751C54.5804 50.566 53.5915 52.2033 52.6172 53.8461C52.1255 54.6532 51.6413 55.4658 51.1261 56.2589C50.7926 56.7331 50.6494 57.0425 50.2784 57.4186C50.2579 57.41 50.2338 57.4 50.2088 57.388C50.3054 57.4521 50.1783 57.3765 50.1472 57.3354C50.0401 57.2198 49.992 57.1582 49.8834 56.9294C49.2009 55.0242 49.1638 52.1767 49.1859 49.8049C49.2364 46.0912 49.6405 42.3925 49.7432 38.6808C49.8037 38.6258 49.8638 38.5702 49.9249 38.5151C51.6073 36.9669 53.1679 35.6501 55.0766 34.3042C56.6924 33.1796 58.3577 32.1542 60.0561 31.2159C60.1232 32.3535 60.1297 33.5041 60.0371 34.5596ZM49.653 71.7216C49.6325 71.5568 49.6135 71.3916 49.5954 71.2264C49.288 68.2107 49.2865 65.1624 48.7402 62.1727C48.3617 59.8094 47.512 57.5282 46.2858 55.4748C45.4822 54.1705 44.5734 52.9323 43.6416 51.7176C43.1689 51.1177 42.6753 50.5339 42.2016 49.9351C42.2221 49.8715 42.2411 49.8084 42.2622 49.7453C43.4333 46.0562 45.6584 42.759 48.4569 39.9191C48.3592 41.8858 48.2511 43.8521 48.0763 45.8138C47.9156 47.8692 47.9597 49.9366 48.0257 51.9955C48.0608 53.4395 48.3497 54.858 48.6747 56.2609C48.9746 57.5027 49.2114 58.4365 49.3075 59.6657C49.4042 61.8683 49.4557 64.0729 49.5018 66.277C49.5258 67.6744 49.6335 69.0679 49.7091 70.4628C49.7396 70.959 49.7782 71.4547 49.8223 71.9494C49.7657 71.8738 49.7096 71.7977 49.653 71.7216ZM49.9219 72.9974C49.9915 73.6748 50.0686 74.3513 50.1492 75.0272C50.0351 74.2927 49.9139 73.5592 49.8042 72.8236C49.8443 72.8817 49.8828 72.9398 49.9219 72.9974ZM48.895 54.4174C48.9636 54.7849 49.0201 55.3351 49.1233 55.8904C48.8299 54.554 48.564 53.2532 48.5455 51.8357C48.4844 49.8089 48.4388 47.7741 48.6006 45.7507C48.7878 43.6318 48.895 41.5073 48.9961 39.3828C49.0872 39.2947 49.1784 39.2066 49.2705 39.1194C49.255 39.5576 49.2374 39.9962 49.2149 40.4343C48.9891 45.0883 48.4163 49.7623 48.895 54.4174ZM49.0922 26.7616C49.0952 26.8327 49.0983 26.9038 49.1013 26.9749C49.0377 26.5263 48.9721 26.0782 48.9155 25.6291C48.7262 23.9066 48.5855 22.1787 48.4348 20.4523C48.2405 18.5266 48.1199 16.5949 47.9802 14.6647C47.9436 13.8731 47.9186 13.081 47.8986 12.2889C48.2616 14.2902 48.6396 16.2124 48.7708 18.3203C48.9546 21.1308 48.9561 23.9492 49.0922 26.7616ZM49.3211 34.158C49.3376 35.5905 49.3306 37.023 49.291 38.455C49.2029 38.5361 49.1158 38.6177 49.0287 38.6999C49.0377 38.5061 49.0472 38.3123 49.0562 38.119C49.1263 36.7972 49.2324 35.4783 49.3211 34.158ZM40.0416 46.8297C39.4808 45.9785 38.9731 45.0953 38.5285 44.178C37.6127 42.2353 37.0173 39.6146 36.7259 37.371C36.3724 34.4334 36.4165 31.4617 36.5257 28.5101C36.6353 25.4673 36.8972 22.7325 37.4605 19.7013C37.9256 17.1727 38.5255 14.6627 39.3711 12.2328C40.367 9.47144 41.9658 6.45672 44.2104 4.31121C44.6786 3.83104 45.3175 3.40194 45.7451 3.16611C46.5282 2.78858 47.4855 2.71898 48.0283 2.88371C48.5825 3.12355 48.7703 3.42948 49.1278 3.95371C49.4908 4.50348 49.8002 5.08579 50.1187 5.6621C51.0695 7.42156 51.8902 9.24862 52.876 10.9891C53.5765 12.2328 54.3461 13.4355 55.0591 14.6722C55.6825 15.7082 56.4666 17.2734 56.8987 18.1356C58.1099 20.7793 58.9075 23.5922 59.4482 26.4447C59.6796 27.6163 59.9034 29.129 60.0215 30.6972C58.2295 31.676 56.4861 32.7435 54.8107 33.9137C53.0297 35.1619 51.3624 36.5639 49.7577 38.0304C49.7592 37.9308 49.7622 37.8311 49.7632 37.7315C49.8989 32.4311 49.4808 27.1392 49.3626 21.8423C49.2975 19.8274 49.2209 17.8081 48.93 15.8108C48.6666 13.8901 48.225 12.0525 47.9687 10.2615C47.9156 9.98916 47.9191 9.70176 47.8565 9.43288C47.8565 9.43138 47.8565 9.42938 47.8565 9.42788L47.8555 9.42888C47.847 9.39333 47.838 9.35778 47.8265 9.32273C47.7454 9.19204 47.5245 9.19004 47.4549 9.33625C47.3964 9.52952 47.4349 9.74432 47.4169 9.9451C47.4184 11.4672 47.4239 12.9904 47.4655 14.512C47.5776 16.4802 47.7068 18.449 47.9061 20.4103C48.0628 22.1637 48.2065 23.9187 48.4028 25.6681C48.5234 26.6109 48.6862 27.5487 48.7783 28.4956C48.891 29.6362 48.9676 30.7828 48.9395 31.9294C48.8589 34.0233 48.6506 36.1102 48.54 38.2027C48.5234 38.5411 48.5069 38.8796 48.4904 39.2176C45.5573 42.1001 43.1324 45.5489 41.8441 49.4734C41.8105 49.4294 41.776 49.3863 41.743 49.3418C41.1341 48.5326 40.5823 47.6844 40.0416 46.8297ZM46.4596 67.6774C45.2549 66.2029 44.0382 64.7258 43.0453 63.0965C42.2386 61.8117 41.7069 60.4318 41.407 58.9863C44.0957 60.7958 45.7325 63.0399 46.9588 66.4938C47.3178 67.4781 47.6317 68.48 47.8946 69.4915C47.4219 68.8831 46.9487 68.2738 46.4596 67.6774ZM48.0958 68.114C47.2401 65.2871 46.074 62.4456 43.9465 60.3306C43.1389 59.5265 42.2336 58.8405 41.2733 58.2367C41.2277 57.9343 41.1907 57.6299 41.1641 57.3224C40.9574 54.9581 41.3409 52.7696 42.0279 50.4909C42.4189 50.977 42.8175 51.4582 43.2045 51.9474C44.0031 52.9803 44.7682 54.0398 45.4867 55.1299C46.6113 56.8943 47.3448 58.5607 47.8805 60.617C48.539 63.2813 48.7017 66.338 48.885 69.2721C48.9135 69.8254 48.9626 70.3762 49.0247 70.925C49.0006 70.8959 48.9771 70.8664 48.953 70.8373C48.8764 70.7422 48.8018 70.6456 48.7257 70.5499C48.5485 69.7293 48.3372 68.9157 48.0958 68.114ZM50.4381 85.5695C50.351 86.9033 50.329 88.4891 50.0736 89.494C50.0591 89.4664 50.0441 89.4399 50.0306 89.4118C50.0165 89.3798 49.8323 88.9747 49.7452 88.7559C49.3571 87.763 48.896 86.7917 48.6301 85.7562C48.3252 84.5851 48.4228 83.2307 48.6456 81.9664C48.7433 81.3636 48.8965 80.7718 49.0026 80.1704C49.1183 79.4935 49.2029 78.8105 49.2675 78.1265C49.4497 75.97 49.3156 73.794 48.941 71.6605C49.0116 71.7496 49.0812 71.8387 49.1503 71.9284C49.3601 73.4515 49.637 74.9666 49.8253 76.4923C49.9685 77.6549 50.4582 81.7862 50.4942 82.4997C50.5488 83.5226 50.4897 84.547 50.4381 85.5695ZM50.4762 77.737C50.7015 78.6903 50.7175 79.9661 50.7215 80.0152C50.6439 79.6016 50.4927 78.078 50.4762 77.737ZM52.4089 80.5004C52.4109 80.7292 52.3208 81.4963 52.2827 81.7416C52.1711 82.4586 52.0654 83.1761 51.9828 83.8971C51.7995 85.4568 51.7655 87.0295 51.782 88.5987C51.773 89.503 51.8251 90.5429 51.772 91.4157C51.747 91.2659 51.7254 91.1117 51.7034 90.96C51.6043 90.1739 51.4881 89.3883 51.44 88.5972C51.4025 87.7946 51.4415 86.9915 51.4601 86.1893C51.5016 85.0698 51.4355 83.9507 51.3539 82.8346C51.2998 81.8953 51.2673 80.9545 51.1872 80.0167C50.9959 77.9733 50.72 75.939 50.4917 73.8996C50.9769 74.7223 51.385 75.574 51.7004 76.4722C52.1766 77.8752 52.4069 79.0218 52.4089 80.5004ZM64.1809 81.9739C64.5724 83.0845 64.7156 83.9317 64.7947 85.0442C64.8508 85.7412 64.3381 86.3831 63.8113 87.1682C62.2121 89.545 60.7661 92.019 59.3181 94.4895C58.3627 96.0627 57.3263 97.5858 56.4245 99.1915C55.7636 100.318 55.1848 101.491 54.4918 102.598C54.4568 102.651 54.4227 102.704 54.3862 102.757C54.3791 102.767 54.3706 102.776 54.3631 102.786C54.3411 102.548 54.314 102.312 54.2845 102.075C54.1153 100.403 53.539 98.2157 53.2706 96.8272C53.1219 95.9961 53.0573 95.1534 53.0338 94.3102C52.9882 93.112 52.9361 91.9138 52.9091 90.7152C52.8485 88.7484 53.1649 87.1201 53.2826 85.1299C53.4208 83.2132 53.2901 81.2865 53.4549 79.3718C53.5214 78.6052 53.7608 77.1377 54.0387 76.1508C54.3992 74.8159 54.8839 73.5206 55.3535 72.2213C56.029 70.1884 56.5927 68.3884 57.3833 66.5018C58.2581 64.1996 59.1153 61.8868 59.8293 59.529C60.2704 57.9363 60.5157 56.291 61.1146 54.7433C61.6663 53.1736 62.5616 51.2925 63.3202 49.5746C64.5168 46.6224 65.7661 43.6923 67.0594 40.7813C67.2196 40.4258 67.3748 40.0673 67.5241 39.7068C67.0769 41.2489 66.5557 42.7706 66.049 44.2937C65.4381 46.1002 64.8708 47.9213 64.2435 49.7223C63.4574 51.9654 62.5721 54.6827 61.8151 56.69C60.5728 59.9151 59.1658 63.072 57.8094 66.2494C56.4185 69.6752 55.0901 73.1406 54.1583 76.7231C53.939 77.5633 53.7533 78.4114 53.6261 79.2707C53.5249 79.9326 53.3607 81.0607 54.4402 80.6806C55.7796 80.2445 57.0354 79.6006 58.2841 78.9572C59.7101 78.2527 61.1111 77.4997 62.4645 76.664C62.5731 76.5979 62.6828 76.5323 62.7919 76.4667C62.7519 77.039 62.7809 77.6248 62.9051 78.2277C63.1339 79.534 63.7558 80.7262 64.1809 81.9739ZM79.0577 59.2897C78.1194 61.5914 76.9277 63.8476 75.5002 65.6626C73.9731 67.6309 72.0123 69.5866 70.2469 71.0156C68.8444 72.1292 67.3173 73.077 65.8162 74.0503C65.0371 74.54 64.2445 75.0082 63.4528 75.4768C63.6832 74.4078 64.1378 73.3854 64.632 72.3234C65.338 70.8078 66.04 69.2897 66.7359 67.7696C67.8014 65.3412 69.0422 62.8832 70.5968 60.956C73.2861 57.6784 76.7114 55.3752 80.4887 53.3368C80.5192 53.3198 80.5498 53.3038 80.5803 53.2873C80.2749 55.3692 79.7136 57.5853 79.0577 59.2897ZM80.708 52.3009C80.695 52.4226 80.68 52.5457 80.6644 52.6689C78.6051 53.7429 76.6093 54.9426 74.7562 56.3441C72.6602 57.9032 70.729 59.7268 69.2725 61.9073C68.0558 63.6518 67.1515 65.588 66.2843 67.5232C65.7405 68.7174 65.1823 69.905 64.636 71.0977C63.913 72.6409 63.1289 74.183 62.867 75.8248C62.8365 75.8429 62.8054 75.8614 62.7749 75.8794C61.2938 76.8022 59.7762 77.6644 58.21 78.4345C57.2567 78.9056 56.438 79.3663 55.5748 79.7098C55.1497 79.8825 54.7251 80.0583 54.2885 80.2005C54.1188 80.241 54.1989 80.241 54.0727 80.25C54.0692 80.2355 54.0662 80.2215 54.0632 80.2105C54.0377 79.7989 54.0647 79.7298 54.1148 79.3538C54.2875 78.1716 54.5779 77.0115 54.8989 75.8619C56.1982 71.2835 57.9126 67.1256 59.8328 62.7365C60.6664 60.7823 61.4951 58.825 62.2572 56.8418C63.2195 54.2611 64.0652 51.6385 64.976 49.0393C65.5508 47.352 66.083 45.6506 66.6593 43.9632C67.3022 42.0365 67.9546 40.1088 68.4333 38.1331C68.6316 37.2719 68.8304 36.4056 68.921 35.5254C68.9185 35.4027 68.8048 35.2956 68.6812 35.3041C68.3887 35.3391 68.4098 35.7272 68.3232 35.9435C67.7724 38.1446 66.8366 40.0252 65.8958 42.1652C64.8568 44.4809 63.8784 46.8232 62.9226 49.1745C61.9958 51.301 60.9583 53.3879 60.2729 55.61C59.8838 56.8478 59.6931 58.1361 59.3386 59.3828C58.8013 61.1768 58.1815 62.9468 57.526 64.7008C57.1095 65.8594 56.5787 67.1402 56.09 68.452C55.6554 69.6432 55.2984 70.8604 54.8838 72.0581C54.1573 74.0473 53.4138 76.0476 53.1013 78.1521C52.9882 78.8255 52.9271 79.5025 52.8926 80.1814C52.7879 77.4131 51.8651 74.9887 50.3685 72.733C50.323 72.2789 50.2799 71.8242 50.2434 71.3686C50.0536 68.8225 49.9469 66.2725 49.9199 63.7194C49.8864 62.7205 49.8468 61.7216 49.8213 60.7222C49.8057 59.9776 49.7742 59.2331 49.656 58.4966C49.5384 57.7921 49.3942 57.1196 49.249 56.4607C49.4192 57.1066 49.6851 57.6709 50.1482 57.8457C50.5082 57.9788 50.7386 57.5763 50.9283 57.3349C51.1827 56.9804 51.4175 56.6124 51.6578 56.2489C52.4855 54.9591 53.2841 53.6503 54.0627 52.3304C54.7346 51.1828 55.4341 50.0497 56.0335 48.8621C56.776 47.381 57.4119 45.8489 58.0222 44.3092C59.5554 40.4999 60.7556 36.4622 60.6534 32.3189C60.6464 31.8523 60.6264 31.3856 60.5958 30.9205C62.521 29.882 64.4863 28.9537 66.4671 28.122C67.823 27.5723 69.2099 27.1011 70.6019 26.651C72.3839 26.0802 74.1418 25.5329 75.6479 26.4096C76.4605 26.8628 77.0038 27.4917 77.5521 28.2843C78.4929 29.6687 78.922 31.289 79.305 33.0289C79.643 34.6667 79.9399 36.8498 80.1833 38.9006C80.4236 41.0551 80.5653 43.2187 80.7095 45.3812C80.8472 47.6599 80.9589 50.2701 80.708 52.3009ZM85.4542 84.4093C87.5341 81.2054 89.9454 78.2577 92.5275 75.2736C94.2434 73.3408 95.8557 71.31 97.6687 69.4659C98.2916 68.8441 98.9991 68.4104 99.6881 68.0965C100.029 67.9318 100.323 67.8437 100.552 67.8066C100.305 69.0974 99.9685 70.4253 99.5263 71.4352C98.6927 73.44 97.5085 75.1889 96.3108 76.7957C95.1823 78.2793 94.0302 79.7638 92.6823 81.0567C91.1376 82.4721 89.2379 83.8646 87.2366 84.9441C86.1641 85.4899 85.1387 85.979 84.0577 86.4447C84.5173 85.7893 84.9785 85.1188 85.4542 84.4093ZM55.5383 133.374C54.9374 134.825 54.5279 136.344 54.1323 137.862C53.8404 138.928 53.529 140.037 53.1649 140.964C53.226 138.802 53.5705 136.826 53.6636 134.574C53.7307 133.494 53.6611 132.415 53.6336 131.335C53.6011 129.57 53.5465 127.806 53.4518 126.042C53.3547 124.221 53.3822 120.26 53.3612 118.557C53.3402 116.828 53.1614 115.1 53.2871 113.371C53.3091 112.674 53.4909 111.737 53.6126 110.863C53.7413 109.912 53.8654 108.953 54.1573 108.034C54.651 106.371 55.7726 104.636 56.6688 102.946C57.2517 101.845 57.7624 100.709 58.3752 99.6236C59.0156 98.3799 59.7497 97.1882 60.4391 95.972C61.0355 94.9661 61.5767 93.9292 62.1811 92.9283C62.7013 92.037 63.3001 91.1958 63.8424 90.3186C64.2605 89.6447 64.655 88.9572 65.0286 88.2572C65.4557 87.4606 65.7611 86.9239 66.3028 86.297C67.504 84.8264 68.906 83.5446 70.2739 82.2348C71.5992 80.9185 72.8755 79.553 74.24 78.2758C75.5047 77.1272 76.6693 75.8789 77.8435 74.6397C78.7868 73.6883 79.7897 72.7981 80.7636 71.8788C81.9052 70.7933 83.0628 69.7198 84.1243 68.5546C85.3605 67.1507 86.4911 65.6571 87.6592 64.1975C88.7247 62.7796 89.9144 61.4602 90.9579 60.0257C91.5527 59.198 92.1991 58.4115 92.855 57.6329C91.9462 58.9046 90.9969 60.203 90.0245 61.5689C87.8495 64.7714 84.8528 68.0149 82.1921 71.1137C80.6915 72.7946 79.2289 74.51 77.6908 76.1568C75.2008 78.821 72.2982 81.6134 69.665 83.7895C69.0312 84.3237 68.3953 84.8565 67.8074 85.4418C67.3623 85.8944 66.9247 86.3726 66.6468 86.9489C66.453 87.3289 66.3519 87.9368 66.8371 88.1331C67.3188 88.3243 67.8565 88.1681 68.3607 88.2037C68.7993 88.2152 69.4623 88.3649 70.0541 88.5336C71.2493 88.8846 72.4765 89.0954 73.7207 89.1615C75.4436 89.3167 77.1861 89.2226 78.8799 88.8711C80.0796 88.6237 81.2307 88.1966 82.3688 87.7525C82.4249 87.7305 82.4815 87.7085 82.5391 87.6864C81.9733 88.465 81.3865 89.2636 80.8272 90.0212C79.7206 91.4697 78.6211 92.9258 77.6407 94.4644C76.5867 96.1152 75.707 97.8687 74.8037 99.6046C74.7316 99.7528 74.662 99.902 74.5909 100.051C74.1528 100.268 73.7202 100.495 73.2976 100.742C70.4391 102.385 67.9987 104.656 65.8026 107.096C64.5799 108.395 63.4574 109.785 62.2251 111.076C61.6138 111.716 61.0044 112.358 60.383 112.988C59.8598 113.518 59.3361 114.05 58.9065 114.66C57.4274 116.688 56.7244 119.157 56.41 121.62C56.1852 123.326 56.1486 124.762 55.8868 126.382C55.7586 127.217 55.5918 128.045 55.4752 128.883C55.4216 129.421 55.1052 130.694 55.9584 130.573C56.2423 130.513 56.4666 130.3 56.7114 130.154C56.8927 130.036 57.0689 129.909 57.2427 129.78C56.6378 130.959 56.06 132.155 55.5383 133.374ZM57.8455 128.656C57.1991 129.209 56.1681 129.947 55.8948 130.076C55.8747 130.007 55.8863 129.969 55.8817 129.793C55.8983 129.217 56.057 128.415 56.1787 127.665C56.5587 125.776 56.6573 123.917 56.8521 122.172C57.0744 120.313 57.4965 118.392 58.215 116.863C58.6697 115.961 59.1058 115.206 59.6595 114.537C60.5152 113.54 61.4886 112.65 62.3773 111.683C64.1193 109.86 65.7 107.89 67.466 106.09C69.4513 104.007 71.7174 102.197 74.2094 100.853C73.6221 102.105 73.0533 103.366 72.4535 104.613C71.9803 105.607 71.5206 106.607 71.0094 107.582C70.2889 108.892 69.5223 110.176 68.7047 111.428C67.1701 113.719 65.6229 115.674 64.0832 118.109C63.186 119.512 62.2917 120.919 61.4841 122.377C60.8427 123.523 60.1497 124.639 59.5048 125.783C58.9611 126.746 58.3857 127.691 57.8455 128.656ZM87.4319 99.5265C85.5788 101.414 83.6276 103.2 81.7149 105.026C80.5142 106.244 79.252 107.399 78.0117 108.577C76.6764 109.846 75.365 111.142 74.0116 112.393C71.8751 114.458 69.6455 116.427 67.5536 118.538C65.672 120.477 63.8154 122.441 61.9828 124.427C61.0144 125.452 60.1022 126.534 59.0952 127.521C59.7642 126.361 60.4366 125.201 61.1196 124.049C61.7024 123.063 62.2487 122.057 62.8365 121.074C63.7142 119.637 64.619 118.215 65.5633 116.82C66.8481 114.947 68.4088 112.944 69.7276 110.861C70.4592 109.676 71.1812 108.483 71.811 107.24C72.9116 104.989 73.9525 102.709 75.0165 100.44C75.5343 100.187 76.06 99.9521 76.5957 99.7413C77.9516 99.1855 79.3261 98.6668 80.7305 98.2467C81.8175 97.9523 82.9176 97.7035 84.0211 97.4786C85.9694 97.0465 88.0107 96.7842 90.0921 96.642C89.2209 97.6188 88.3347 98.5807 87.4319 99.5265ZM90.6029 96.0642C89.7171 96.1107 88.8324 96.1768 87.9496 96.274C86.44 96.4312 84.9474 96.7181 83.4614 97.022C82.4655 97.2423 81.4681 97.4606 80.4867 97.7405C79.6285 97.9954 78.7878 98.3033 77.9496 98.6162C77.0909 98.9452 76.2357 99.2887 75.3981 99.6687C76.3369 97.8301 77.2972 95.9966 78.4393 94.2752C79.3691 92.8667 80.4456 91.4522 81.3164 90.2711C82.0539 89.2526 82.7439 88.3008 83.4268 87.3394C83.929 87.1407 84.4072 86.9424 84.7497 86.7717C85.8592 86.2444 86.9788 85.7317 88.0473 85.1248C89.0121 84.5716 89.9209 83.9257 90.8132 83.2637C92.0604 82.3359 93.2396 81.309 94.262 80.1354C95.5538 78.6618 96.767 77.1176 97.8705 75.4979C99.3446 73.3614 100.493 70.981 100.962 68.4145C101.006 68.2187 101.046 68.0224 101.084 67.8256C101.566 67.9333 101.88 68.1536 102.317 68.5366C103.003 69.1415 103.308 69.865 103.578 70.8413C103.812 71.8598 103.926 73.1956 103.662 74.2696C103.189 76.5854 102.354 78.4986 101.295 80.6656C99.5859 84.1485 97.3548 87.4065 95.2078 90.3557C93.7598 92.3279 92.2151 94.2256 90.6029 96.0642Z" fill="black"/>
<path d="M47.2541 122.934C47.2636 122.932 47.2726 122.93 47.2821 122.928L47.2811 122.928C47.2741 122.929 47.2656 122.931 47.2541 122.934Z" fill="black"/>
</svg>
