<svg width="340" height="79" viewBox="0 0 340 79" fill="none" xmlns="http://www.w3.org/2000/svg">
<g filter="url(#filter0_b_3841_33021)">
<path d="M68 79L75.7942 60.25H60.2058L68 79Z" fill="#3D423E" fill-opacity="0.8"/>
</g>
<g filter="url(#filter1_b_3841_33021)">
<rect width="340" height="62" rx="12" fill="#3D423E" fill-opacity="0.8"/>
<path d="M15.5273 27V15.022H20.1011C20.8703 15.022 21.5399 15.1714 22.1099 15.4702C22.6854 15.7635 23.1309 16.1758 23.4463 16.707C23.7617 17.2383 23.9194 17.8636 23.9194 18.583V18.5996C23.9194 19.4297 23.7064 20.1491 23.2803 20.7578C22.8542 21.3665 22.2648 21.7899 21.5122 22.0278L24.2847 27H22.5332L19.9683 22.2603C19.9572 22.2603 19.9434 22.2603 19.9268 22.2603C19.9102 22.2603 19.8963 22.2603 19.8853 22.2603H17.0215V27H15.5273ZM17.0215 20.9321H19.9683C20.7375 20.9321 21.3296 20.7357 21.7446 20.3428C22.1652 19.9443 22.3755 19.3799 22.3755 18.6494V18.6328C22.3755 17.9189 22.1569 17.36 21.7197 16.9561C21.2826 16.5521 20.6766 16.3501 19.9019 16.3501H17.0215V20.9321ZM29.8545 27.1577C29.0023 27.1577 28.269 26.9696 27.6548 26.5933C27.0461 26.217 26.5757 25.6857 26.2437 24.9995C25.9172 24.3078 25.7539 23.4943 25.7539 22.5591V22.5508C25.7539 21.6266 25.9172 20.8159 26.2437 20.1187C26.5757 19.4214 27.0433 18.8763 27.6465 18.4834C28.2497 18.0905 28.9552 17.894 29.7632 17.894C30.5767 17.894 31.2739 18.0822 31.855 18.4585C32.4416 18.8348 32.8898 19.3605 33.1997 20.0356C33.5151 20.7052 33.6729 21.4855 33.6729 22.3765V22.9409H26.501V21.7871H32.9341L32.2202 22.8413V22.2686C32.2202 21.5658 32.1151 20.9875 31.9048 20.5337C31.6945 20.0799 31.404 19.7424 31.0332 19.521C30.6624 19.2941 30.2363 19.1807 29.7549 19.1807C29.2734 19.1807 28.8418 19.2996 28.46 19.5376C28.0837 19.77 27.7848 20.1159 27.5635 20.5752C27.3421 21.0345 27.2314 21.599 27.2314 22.2686V22.8413C27.2314 23.4777 27.3394 24.0228 27.5552 24.4766C27.771 24.9248 28.0781 25.2707 28.4766 25.5142C28.875 25.7521 29.3454 25.8711 29.8877 25.8711C30.2917 25.8711 30.6431 25.8158 30.9419 25.7051C31.2407 25.5944 31.487 25.4533 31.6807 25.2817C31.8743 25.1102 32.0099 24.9359 32.0874 24.7588L32.1206 24.6841H33.5649L33.5483 24.7505C33.4709 25.0549 33.3325 25.3509 33.1333 25.6387C32.9396 25.9209 32.6878 26.1782 32.3779 26.4106C32.068 26.6375 31.7 26.8201 31.2739 26.9585C30.8534 27.0913 30.3802 27.1577 29.8545 27.1577ZM35.9141 29.9883V18.0518H37.3584V19.4795H37.4912C37.6738 19.1475 37.9035 18.8652 38.1802 18.6328C38.4569 18.3949 38.7723 18.2122 39.1265 18.085C39.4806 17.9577 39.8652 17.894 40.2803 17.894C41.0384 17.894 41.6969 18.0877 42.2559 18.4751C42.8203 18.8569 43.2575 19.3937 43.5674 20.0854C43.8773 20.7772 44.0322 21.5879 44.0322 22.5176V22.5342C44.0322 23.4694 43.8773 24.2829 43.5674 24.9746C43.2575 25.6663 42.8203 26.2031 42.2559 26.585C41.6969 26.9668 41.0384 27.1577 40.2803 27.1577C39.8708 27.1577 39.4834 27.0941 39.1182 26.9668C38.7585 26.834 38.4375 26.6514 38.1553 26.4189C37.8786 26.1865 37.6572 25.9098 37.4912 25.5889H37.3584V29.9883H35.9141ZM39.9482 25.8794C40.4961 25.8794 40.9637 25.7466 41.3511 25.481C41.7384 25.2098 42.0345 24.8252 42.2393 24.3271C42.4495 23.8236 42.5547 23.2259 42.5547 22.5342V22.5176C42.5547 21.8203 42.4495 21.2227 42.2393 20.7246C42.0345 20.2266 41.7384 19.8447 41.3511 19.5791C40.9637 19.3079 40.4961 19.1724 39.9482 19.1724C39.4059 19.1724 38.9383 19.3079 38.5454 19.5791C38.1525 19.8503 37.8509 20.2349 37.6406 20.7329C37.4303 21.231 37.3252 21.8258 37.3252 22.5176V22.5342C37.3252 23.2204 37.4303 23.8153 37.6406 24.3188C37.8509 24.8169 38.1525 25.2015 38.5454 25.4727C38.9383 25.7438 39.4059 25.8794 39.9482 25.8794ZM49.9424 27.1577C49.0902 27.1577 48.3569 26.9696 47.7427 26.5933C47.134 26.217 46.6636 25.6857 46.3315 24.9995C46.005 24.3078 45.8418 23.4943 45.8418 22.5591V22.5508C45.8418 21.6266 46.005 20.8159 46.3315 20.1187C46.6636 19.4214 47.1312 18.8763 47.7344 18.4834C48.3376 18.0905 49.0431 17.894 49.8511 17.894C50.6646 17.894 51.3618 18.0822 51.9429 18.4585C52.5295 18.8348 52.9777 19.3605 53.2876 20.0356C53.603 20.7052 53.7607 21.4855 53.7607 22.3765V22.9409H46.5889V21.7871H53.022L52.3081 22.8413V22.2686C52.3081 21.5658 52.203 20.9875 51.9927 20.5337C51.7824 20.0799 51.4919 19.7424 51.1211 19.521C50.7503 19.2941 50.3242 19.1807 49.8428 19.1807C49.3613 19.1807 48.9297 19.2996 48.5479 19.5376C48.1715 19.77 47.8727 20.1159 47.6514 20.5752C47.43 21.0345 47.3193 21.599 47.3193 22.2686V22.8413C47.3193 23.4777 47.4272 24.0228 47.6431 24.4766C47.8589 24.9248 48.166 25.2707 48.5645 25.5142C48.9629 25.7521 49.4333 25.8711 49.9756 25.8711C50.3796 25.8711 50.731 25.8158 51.0298 25.7051C51.3286 25.5944 51.5749 25.4533 51.7686 25.2817C51.9622 25.1102 52.0978 24.9359 52.1753 24.7588L52.2085 24.6841H53.6528L53.6362 24.7505C53.5588 25.0549 53.4204 25.3509 53.2212 25.6387C53.0275 25.9209 52.7757 26.1782 52.4658 26.4106C52.1559 26.6375 51.7879 26.8201 51.3618 26.9585C50.9412 27.0913 50.4681 27.1577 49.9424 27.1577ZM58.459 27.1577C57.8945 27.1577 57.3854 27.0498 56.9316 26.834C56.4834 26.6182 56.1265 26.311 55.8608 25.9126C55.6007 25.5142 55.4707 25.0438 55.4707 24.5015V24.4849C55.4707 23.9536 55.598 23.4998 55.8525 23.1235C56.1071 22.7417 56.4779 22.4429 56.9648 22.2271C57.4518 22.0112 58.0412 21.884 58.7329 21.8452L62.02 21.646V22.7998L58.9072 22.999C58.2266 23.0378 57.7285 23.1789 57.4131 23.4224C57.1032 23.6659 56.9482 24.009 56.9482 24.4517V24.4683C56.9482 24.922 57.1198 25.2762 57.4629 25.5308C57.806 25.7798 58.2376 25.9043 58.7578 25.9043C59.2503 25.9043 59.6875 25.8075 60.0693 25.6138C60.4512 25.4146 60.75 25.1462 60.9658 24.8086C61.1872 24.471 61.2979 24.0892 61.2979 23.6631V20.874C61.2979 20.3206 61.1291 19.9001 60.7915 19.6123C60.4595 19.319 59.9587 19.1724 59.2891 19.1724C58.7523 19.1724 58.3123 19.2692 57.9692 19.4629C57.6261 19.651 57.3965 19.9194 57.2803 20.2681L57.272 20.293H55.8276L55.8359 20.2432C55.9134 19.7728 56.1071 19.3633 56.417 19.0146C56.7324 18.6605 57.1392 18.3866 57.6372 18.1929C58.1353 17.9937 58.7025 17.894 59.3389 17.894C60.0693 17.894 60.6864 18.013 61.1899 18.251C61.6991 18.4889 62.0837 18.832 62.3438 19.2803C62.6094 19.723 62.7422 20.2542 62.7422 20.874V27H61.2979V25.6802H61.165C60.9769 25.9956 60.7472 26.264 60.4761 26.4854C60.2104 26.7067 59.9089 26.8755 59.5713 26.9917C59.2337 27.1024 58.863 27.1577 58.459 27.1577ZM68.561 27.0664C67.6424 27.0664 66.9756 26.881 66.5605 26.5103C66.151 26.1395 65.9463 25.528 65.9463 24.6758V19.2471H64.5352V18.0518H65.9463V15.7358H67.4404V18.0518H69.3994V19.2471H67.4404V24.3105C67.4404 24.8363 67.54 25.2153 67.7393 25.4478C67.9385 25.6746 68.2705 25.7881 68.7354 25.7881C68.8626 25.7881 68.9705 25.7853 69.0591 25.7798C69.1532 25.7743 69.2666 25.766 69.3994 25.7549V26.9834C69.2611 27.0055 69.1227 27.0249 68.9844 27.0415C68.846 27.0581 68.7049 27.0664 68.561 27.0664ZM76.3721 27V18.0518H77.8164V27H76.3721ZM77.1025 16.3252C76.8314 16.3252 76.5962 16.2284 76.397 16.0347C76.2033 15.8354 76.1064 15.6003 76.1064 15.3291C76.1064 15.0524 76.2033 14.8172 76.397 14.6235C76.5962 14.4299 76.8314 14.333 77.1025 14.333C77.3792 14.333 77.6144 14.4299 77.8081 14.6235C78.0018 14.8172 78.0986 15.0524 78.0986 15.3291C78.0986 15.6003 78.0018 15.8354 77.8081 16.0347C77.6144 16.2284 77.3792 16.3252 77.1025 16.3252ZM80.5391 27V18.0518H81.9834V19.3965H82.1162C82.3431 18.9206 82.6696 18.5526 83.0957 18.2925C83.5218 18.0269 84.0641 17.894 84.7227 17.894C85.7298 17.894 86.5018 18.1818 87.0386 18.7573C87.5809 19.3273 87.8521 20.1436 87.8521 21.2061V27H86.4077V21.5547C86.4077 20.7467 86.2362 20.1491 85.8931 19.7617C85.5555 19.3688 85.0298 19.1724 84.3159 19.1724C83.84 19.1724 83.4277 19.2747 83.0791 19.4795C82.7305 19.6842 82.4593 19.9748 82.2656 20.3511C82.0775 20.7274 81.9834 21.1784 81.9834 21.7041V27H80.5391ZM93.7705 27.1577C93.0179 27.1577 92.3594 26.9668 91.7949 26.585C91.2305 26.2031 90.7933 25.6663 90.4834 24.9746C90.1735 24.2773 90.0186 23.4639 90.0186 22.5342V22.5176C90.0186 21.5824 90.1735 20.7689 90.4834 20.0771C90.7933 19.3854 91.2277 18.8486 91.7866 18.4668C92.3511 18.085 93.0124 17.894 93.7705 17.894C94.18 17.894 94.5646 17.9604 94.9243 18.0933C95.2896 18.2205 95.6133 18.4004 95.8955 18.6328C96.1777 18.8652 96.3991 19.1419 96.5596 19.4629H96.6924V14.499H98.1367V27H96.6924V25.5723H96.5596C96.377 25.9043 96.1473 26.1893 95.8706 26.4272C95.5939 26.6597 95.2785 26.8395 94.9243 26.9668C94.5701 27.0941 94.1855 27.1577 93.7705 27.1577ZM94.1025 25.8794C94.6449 25.8794 95.1125 25.7438 95.5054 25.4727C95.8983 25.2015 96.1999 24.8169 96.4102 24.3188C96.6204 23.8153 96.7256 23.2204 96.7256 22.5342V22.5176C96.7256 21.8258 96.6204 21.231 96.4102 20.7329C96.1999 20.2349 95.8983 19.8503 95.5054 19.5791C95.1125 19.3079 94.6449 19.1724 94.1025 19.1724C93.5602 19.1724 93.0926 19.3079 92.6997 19.5791C92.3123 19.8447 92.0135 20.2266 91.8032 20.7246C91.5985 21.2227 91.4961 21.8203 91.4961 22.5176V22.5342C91.4961 23.2259 91.5985 23.8236 91.8032 24.3271C92.0135 24.8252 92.3123 25.2098 92.6997 25.481C93.0926 25.7466 93.5602 25.8794 94.1025 25.8794ZM100.942 27V18.0518H102.387V27H100.942ZM101.673 16.3252C101.402 16.3252 101.167 16.2284 100.967 16.0347C100.774 15.8354 100.677 15.6003 100.677 15.3291C100.677 15.0524 100.774 14.8172 100.967 14.6235C101.167 14.4299 101.402 14.333 101.673 14.333C101.95 14.333 102.185 14.4299 102.378 14.6235C102.572 14.8172 102.669 15.0524 102.669 15.3291C102.669 15.6003 102.572 15.8354 102.378 16.0347C102.185 16.2284 101.95 16.3252 101.673 16.3252ZM108.77 27.1577C107.934 27.1577 107.209 26.9668 106.595 26.585C105.981 26.2031 105.505 25.6636 105.167 24.9663C104.83 24.269 104.661 23.4473 104.661 22.501V22.4844C104.661 21.5547 104.827 20.7467 105.159 20.0605C105.497 19.3743 105.973 18.8431 106.587 18.4668C107.201 18.085 107.926 17.894 108.762 17.894C109.487 17.894 110.112 18.0213 110.638 18.2759C111.163 18.5304 111.584 18.8735 111.899 19.3052C112.215 19.7313 112.417 20.21 112.505 20.7412L112.514 20.791H111.078L111.069 20.7661C110.959 20.3234 110.707 19.9471 110.314 19.6372C109.921 19.3273 109.404 19.1724 108.762 19.1724C108.225 19.1724 107.76 19.3079 107.367 19.5791C106.974 19.8503 106.67 20.2349 106.454 20.7329C106.244 21.2254 106.139 21.8092 106.139 22.4844V22.501C106.139 23.1872 106.247 23.7848 106.462 24.2939C106.678 24.7975 106.983 25.1877 107.375 25.4644C107.768 25.741 108.23 25.8794 108.762 25.8794C109.365 25.8794 109.857 25.7493 110.239 25.4893C110.621 25.2292 110.895 24.8501 111.061 24.3521L111.078 24.3022L112.505 24.2939L112.489 24.3853C112.367 24.922 112.151 25.4007 111.841 25.8213C111.531 26.2363 111.122 26.5628 110.613 26.8008C110.104 27.0387 109.489 27.1577 108.77 27.1577ZM117.079 27.1577C116.515 27.1577 116.006 27.0498 115.552 26.834C115.104 26.6182 114.747 26.311 114.481 25.9126C114.221 25.5142 114.091 25.0438 114.091 24.5015V24.4849C114.091 23.9536 114.218 23.4998 114.473 23.1235C114.727 22.7417 115.098 22.4429 115.585 22.2271C116.072 22.0112 116.661 21.884 117.353 21.8452L120.64 21.646V22.7998L117.527 22.999C116.847 23.0378 116.349 23.1789 116.033 23.4224C115.723 23.6659 115.568 24.009 115.568 24.4517V24.4683C115.568 24.922 115.74 25.2762 116.083 25.5308C116.426 25.7798 116.858 25.9043 117.378 25.9043C117.87 25.9043 118.308 25.8075 118.689 25.6138C119.071 25.4146 119.37 25.1462 119.586 24.8086C119.807 24.471 119.918 24.0892 119.918 23.6631V20.874C119.918 20.3206 119.749 19.9001 119.412 19.6123C119.08 19.319 118.579 19.1724 117.909 19.1724C117.372 19.1724 116.932 19.2692 116.589 19.4629C116.246 19.651 116.017 19.9194 115.9 20.2681L115.892 20.293H114.448L114.456 20.2432C114.534 19.7728 114.727 19.3633 115.037 19.0146C115.353 18.6605 115.759 18.3866 116.257 18.1929C116.755 17.9937 117.323 17.894 117.959 17.894C118.689 17.894 119.306 18.013 119.81 18.251C120.319 18.4889 120.704 18.832 120.964 19.2803C121.229 19.723 121.362 20.2542 121.362 20.874V27H119.918V25.6802H119.785C119.597 25.9956 119.367 26.264 119.096 26.4854C118.831 26.7067 118.529 26.8755 118.191 26.9917C117.854 27.1024 117.483 27.1577 117.079 27.1577ZM127.181 27.0664C126.263 27.0664 125.596 26.881 125.181 26.5103C124.771 26.1395 124.566 25.528 124.566 24.6758V19.2471H123.155V18.0518H124.566V15.7358H126.061V18.0518H128.02V19.2471H126.061V24.3105C126.061 24.8363 126.16 25.2153 126.359 25.4478C126.559 25.6746 126.891 25.7881 127.355 25.7881C127.483 25.7881 127.591 25.7853 127.679 25.7798C127.773 25.7743 127.887 25.766 128.02 25.7549V26.9834C127.881 27.0055 127.743 27.0249 127.604 27.0415C127.466 27.0581 127.325 27.0664 127.181 27.0664ZM133.714 27.1577C132.862 27.1577 132.128 26.9696 131.514 26.5933C130.905 26.217 130.435 25.6857 130.103 24.9995C129.777 24.3078 129.613 23.4943 129.613 22.5591V22.5508C129.613 21.6266 129.777 20.8159 130.103 20.1187C130.435 19.4214 130.903 18.8763 131.506 18.4834C132.109 18.0905 132.815 17.894 133.623 17.894C134.436 17.894 135.133 18.0822 135.714 18.4585C136.301 18.8348 136.749 19.3605 137.059 20.0356C137.375 20.7052 137.532 21.4855 137.532 22.3765V22.9409H130.36V21.7871H136.793L136.08 22.8413V22.2686C136.08 21.5658 135.974 20.9875 135.764 20.5337C135.554 20.0799 135.263 19.7424 134.893 19.521C134.522 19.2941 134.096 19.1807 133.614 19.1807C133.133 19.1807 132.701 19.2996 132.319 19.5376C131.943 19.77 131.644 20.1159 131.423 20.5752C131.201 21.0345 131.091 21.599 131.091 22.2686V22.8413C131.091 23.4777 131.199 24.0228 131.415 24.4766C131.63 24.9248 131.938 25.2707 132.336 25.5142C132.734 25.7521 133.205 25.8711 133.747 25.8711C134.151 25.8711 134.502 25.8158 134.801 25.7051C135.1 25.5944 135.346 25.4533 135.54 25.2817C135.734 25.1102 135.869 24.9359 135.947 24.7588L135.98 24.6841H137.424L137.408 24.7505C137.33 25.0549 137.192 25.3509 136.993 25.6387C136.799 25.9209 136.547 26.1782 136.237 26.4106C135.927 26.6375 135.559 26.8201 135.133 26.9585C134.713 27.0913 134.24 27.1577 133.714 27.1577ZM142.845 27.1577C142.181 27.1577 141.594 27.0581 141.085 26.8589C140.576 26.6541 140.166 26.3691 139.856 26.0039C139.552 25.6387 139.372 25.2098 139.317 24.7173H140.794C140.916 25.0881 141.154 25.3869 141.508 25.6138C141.862 25.8407 142.325 25.9541 142.895 25.9541C143.299 25.9541 143.653 25.896 143.957 25.7798C144.267 25.658 144.51 25.4948 144.688 25.29C144.865 25.0798 144.953 24.839 144.953 24.5679V24.5513C144.953 24.2469 144.831 23.9896 144.588 23.7793C144.344 23.5635 143.946 23.3892 143.393 23.2563L142.006 22.9243C141.447 22.7915 140.988 22.62 140.628 22.4097C140.269 22.1938 140.003 21.931 139.832 21.6211C139.66 21.3057 139.574 20.9349 139.574 20.5088V20.5005C139.574 20.0024 139.718 19.557 140.006 19.1641C140.299 18.7712 140.698 18.4613 141.201 18.2344C141.705 18.0075 142.272 17.894 142.903 17.894C143.528 17.894 144.082 17.9937 144.563 18.1929C145.05 18.3866 145.44 18.6632 145.733 19.0229C146.032 19.3826 146.215 19.806 146.281 20.293H144.862C144.768 19.9388 144.552 19.651 144.214 19.4297C143.877 19.2083 143.437 19.0977 142.895 19.0977C142.54 19.0977 142.225 19.1558 141.948 19.272C141.672 19.3826 141.453 19.5376 141.292 19.7368C141.132 19.936 141.052 20.1685 141.052 20.4341V20.4507C141.052 20.6499 141.104 20.827 141.209 20.9819C141.315 21.1369 141.478 21.2725 141.699 21.3887C141.921 21.5049 142.206 21.6073 142.554 21.6958L143.932 22.0278C144.773 22.2326 145.399 22.5259 145.808 22.9077C146.223 23.2896 146.431 23.8014 146.431 24.4434V24.46C146.431 24.9912 146.273 25.4616 145.958 25.8711C145.642 26.2751 145.213 26.5905 144.671 26.8174C144.134 27.0443 143.525 27.1577 142.845 27.1577ZM156.632 27.0664C155.714 27.0664 155.047 26.881 154.632 26.5103C154.222 26.1395 154.018 25.528 154.018 24.6758V19.2471H152.606V18.0518H154.018V15.7358H155.512V18.0518H157.471V19.2471H155.512V24.3105C155.512 24.8363 155.611 25.2153 155.811 25.4478C156.01 25.6746 156.342 25.7881 156.807 25.7881C156.934 25.7881 157.042 25.7853 157.13 25.7798C157.224 25.7743 157.338 25.766 157.471 25.7549V26.9834C157.332 27.0055 157.194 27.0249 157.056 27.0415C156.917 27.0581 156.776 27.0664 156.632 27.0664ZM159.712 27V14.499H161.156V19.3965H161.289C161.516 18.9206 161.842 18.5526 162.269 18.2925C162.695 18.0269 163.237 17.894 163.896 17.894C164.565 17.894 165.132 18.0241 165.597 18.2842C166.062 18.5387 166.416 18.9123 166.66 19.4048C166.903 19.8973 167.025 20.4977 167.025 21.2061V27H165.581V21.5547C165.581 20.7467 165.409 20.1491 165.066 19.7617C164.728 19.3688 164.203 19.1724 163.489 19.1724C163.013 19.1724 162.601 19.2747 162.252 19.4795C161.903 19.6842 161.632 19.9748 161.438 20.3511C161.25 20.7274 161.156 21.1784 161.156 21.7041V27H159.712ZM173.292 27.1577C172.44 27.1577 171.707 26.9696 171.092 26.5933C170.484 26.217 170.013 25.6857 169.681 24.9995C169.355 24.3078 169.191 23.4943 169.191 22.5591V22.5508C169.191 21.6266 169.355 20.8159 169.681 20.1187C170.013 19.4214 170.481 18.8763 171.084 18.4834C171.687 18.0905 172.393 17.894 173.201 17.894C174.014 17.894 174.711 18.0822 175.292 18.4585C175.879 18.8348 176.327 19.3605 176.637 20.0356C176.953 20.7052 177.11 21.4855 177.11 22.3765V22.9409H169.938V21.7871H176.372L175.658 22.8413V22.2686C175.658 21.5658 175.553 20.9875 175.342 20.5337C175.132 20.0799 174.841 19.7424 174.471 19.521C174.1 19.2941 173.674 19.1807 173.192 19.1807C172.711 19.1807 172.279 19.2996 171.897 19.5376C171.521 19.77 171.222 20.1159 171.001 20.5752C170.78 21.0345 170.669 21.599 170.669 22.2686V22.8413C170.669 23.4777 170.777 24.0228 170.993 24.4766C171.208 24.9248 171.516 25.2707 171.914 25.5142C172.312 25.7521 172.783 25.8711 173.325 25.8711C173.729 25.8711 174.081 25.8158 174.379 25.7051C174.678 25.5944 174.924 25.4533 175.118 25.2817C175.312 25.1102 175.447 24.9359 175.525 24.7588L175.558 24.6841H177.002L176.986 24.7505C176.908 25.0549 176.77 25.3509 176.571 25.6387C176.377 25.9209 176.125 26.1782 175.815 26.4106C175.506 26.6375 175.138 26.8201 174.711 26.9585C174.291 27.0913 173.818 27.1577 173.292 27.1577ZM187.437 27.1577C186.684 27.1577 186.025 26.9668 185.461 26.585C184.896 26.2031 184.459 25.6663 184.149 24.9746C183.84 24.2773 183.685 23.4639 183.685 22.5342V22.5176C183.685 21.5824 183.84 20.7689 184.149 20.0771C184.459 19.3854 184.894 18.8486 185.453 18.4668C186.017 18.085 186.678 17.894 187.437 17.894C187.846 17.894 188.231 17.9604 188.59 18.0933C188.956 18.2205 189.279 18.4004 189.562 18.6328C189.844 18.8652 190.065 19.1419 190.226 19.4629H190.358V14.499H191.803V27H190.358V25.5723H190.226C190.043 25.9043 189.813 26.1893 189.537 26.4272C189.26 26.6597 188.944 26.8395 188.59 26.9668C188.236 27.0941 187.852 27.1577 187.437 27.1577ZM187.769 25.8794C188.311 25.8794 188.778 25.7438 189.171 25.4727C189.564 25.2015 189.866 24.8169 190.076 24.3188C190.286 23.8153 190.392 23.2204 190.392 22.5342V22.5176C190.392 21.8258 190.286 21.231 190.076 20.7329C189.866 20.2349 189.564 19.8503 189.171 19.5791C188.778 19.3079 188.311 19.1724 187.769 19.1724C187.226 19.1724 186.759 19.3079 186.366 19.5791C185.978 19.8447 185.68 20.2266 185.469 20.7246C185.264 21.2227 185.162 21.8203 185.162 22.5176V22.5342C185.162 23.2259 185.264 23.8236 185.469 24.3271C185.68 24.8252 185.978 25.2098 186.366 25.481C186.759 25.7466 187.226 25.8794 187.769 25.8794ZM197.032 27.1577C196.468 27.1577 195.959 27.0498 195.505 26.834C195.057 26.6182 194.7 26.311 194.434 25.9126C194.174 25.5142 194.044 25.0438 194.044 24.5015V24.4849C194.044 23.9536 194.171 23.4998 194.426 23.1235C194.68 22.7417 195.051 22.4429 195.538 22.2271C196.025 22.0112 196.614 21.884 197.306 21.8452L200.593 21.646V22.7998L197.48 22.999C196.8 23.0378 196.302 23.1789 195.986 23.4224C195.676 23.6659 195.521 24.009 195.521 24.4517V24.4683C195.521 24.922 195.693 25.2762 196.036 25.5308C196.379 25.7798 196.811 25.9043 197.331 25.9043C197.824 25.9043 198.261 25.8075 198.643 25.6138C199.024 25.4146 199.323 25.1462 199.539 24.8086C199.76 24.471 199.871 24.0892 199.871 23.6631V20.874C199.871 20.3206 199.702 19.9001 199.365 19.6123C199.033 19.319 198.532 19.1724 197.862 19.1724C197.326 19.1724 196.886 19.2692 196.542 19.4629C196.199 19.651 195.97 19.9194 195.854 20.2681L195.845 20.293H194.401L194.409 20.2432C194.487 19.7728 194.68 19.3633 194.99 19.0146C195.306 18.6605 195.712 18.3866 196.21 18.1929C196.708 17.9937 197.276 17.894 197.912 17.894C198.643 17.894 199.26 18.013 199.763 18.251C200.272 18.4889 200.657 18.832 200.917 19.2803C201.183 19.723 201.315 20.2542 201.315 20.874V27H199.871V25.6802H199.738C199.55 25.9956 199.32 26.264 199.049 26.4854C198.784 26.7067 198.482 26.8755 198.145 26.9917C197.807 27.1024 197.436 27.1577 197.032 27.1577ZM204.387 30.1377C204.293 30.1377 204.188 30.1322 204.071 30.1211C203.955 30.1156 203.847 30.1045 203.748 30.0879V28.9009C203.836 28.9175 203.933 28.9285 204.038 28.9341C204.143 28.9396 204.246 28.9424 204.345 28.9424C204.755 28.9424 205.09 28.8372 205.35 28.627C205.615 28.4167 205.828 28.0542 205.989 27.5396L206.155 27.0083L202.843 18.0518H204.387L207.143 26.3193L206.57 25.4146H207.25L206.678 26.3193L209.425 18.0518H210.944L207.45 27.5479C207.206 28.2174 206.949 28.7404 206.678 29.1167C206.407 29.493 206.088 29.7559 205.723 29.9053C205.363 30.0602 204.918 30.1377 204.387 30.1377ZM215.676 27.1577C215.012 27.1577 214.425 27.0581 213.916 26.8589C213.407 26.6541 212.997 26.3691 212.688 26.0039C212.383 25.6387 212.203 25.2098 212.148 24.7173H213.625C213.747 25.0881 213.985 25.3869 214.339 25.6138C214.694 25.8407 215.156 25.9541 215.726 25.9541C216.13 25.9541 216.484 25.896 216.788 25.7798C217.098 25.658 217.341 25.4948 217.519 25.29C217.696 25.0798 217.784 24.839 217.784 24.5679V24.5513C217.784 24.2469 217.662 23.9896 217.419 23.7793C217.175 23.5635 216.777 23.3892 216.224 23.2563L214.837 22.9243C214.278 22.7915 213.819 22.62 213.459 22.4097C213.1 22.1938 212.834 21.931 212.663 21.6211C212.491 21.3057 212.405 20.9349 212.405 20.5088V20.5005C212.405 20.0024 212.549 19.557 212.837 19.1641C213.13 18.7712 213.529 18.4613 214.032 18.2344C214.536 18.0075 215.103 17.894 215.734 17.894C216.359 17.894 216.913 17.9937 217.394 18.1929C217.881 18.3866 218.271 18.6632 218.564 19.0229C218.863 19.3826 219.046 19.806 219.112 20.293H217.693C217.599 19.9388 217.383 19.651 217.045 19.4297C216.708 19.2083 216.268 19.0977 215.726 19.0977C215.371 19.0977 215.056 19.1558 214.779 19.272C214.503 19.3826 214.284 19.5376 214.124 19.7368C213.963 19.936 213.883 20.1685 213.883 20.4341V20.4507C213.883 20.6499 213.935 20.827 214.041 20.9819C214.146 21.1369 214.309 21.2725 214.53 21.3887C214.752 21.5049 215.037 21.6073 215.385 21.6958L216.763 22.0278C217.604 22.2326 218.23 22.5259 218.639 22.9077C219.054 23.2896 219.262 23.8014 219.262 24.4434V24.46C219.262 24.9912 219.104 25.4616 218.789 25.8711C218.473 26.2751 218.044 26.5905 217.502 26.8174C216.965 27.0443 216.356 27.1577 215.676 27.1577ZM227.048 30.1377C226.954 30.1377 226.849 30.1322 226.732 30.1211C226.616 30.1156 226.508 30.1045 226.409 30.0879V28.9009C226.497 28.9175 226.594 28.9285 226.699 28.9341C226.804 28.9396 226.907 28.9424 227.006 28.9424C227.416 28.9424 227.751 28.8372 228.011 28.627C228.276 28.4167 228.489 28.0542 228.65 27.5396L228.816 27.0083L225.504 18.0518H227.048L229.804 26.3193L229.231 25.4146H229.912L229.339 26.3193L232.086 18.0518H233.605L230.111 27.5479C229.867 28.2174 229.61 28.7404 229.339 29.1167C229.068 29.493 228.75 29.7559 228.384 29.9053C228.025 30.0602 227.579 30.1377 227.048 30.1377ZM238.86 27.1577C238.013 27.1577 237.28 26.9723 236.66 26.6016C236.046 26.2253 235.57 25.6912 235.232 24.9995C234.9 24.3078 234.734 23.486 234.734 22.5342V22.5176C234.734 21.5602 234.9 20.7357 235.232 20.0439C235.57 19.3522 236.046 18.821 236.66 18.4502C237.28 18.0794 238.013 17.894 238.86 17.894C239.712 17.894 240.445 18.0794 241.06 18.4502C241.674 18.821 242.147 19.3522 242.479 20.0439C242.817 20.7357 242.985 21.5602 242.985 22.5176V22.5342C242.985 23.486 242.817 24.3078 242.479 24.9995C242.147 25.6912 241.674 26.2253 241.06 26.6016C240.445 26.9723 239.712 27.1577 238.86 27.1577ZM238.86 25.8794C239.424 25.8794 239.903 25.7466 240.296 25.481C240.689 25.2153 240.988 24.8335 241.192 24.3354C241.403 23.8374 241.508 23.237 241.508 22.5342V22.5176C241.508 21.8092 241.403 21.2061 241.192 20.708C240.988 20.21 240.689 19.8309 240.296 19.5708C239.903 19.3052 239.424 19.1724 238.86 19.1724C238.295 19.1724 237.817 19.3052 237.424 19.5708C237.031 19.8309 236.729 20.21 236.519 20.708C236.314 21.2061 236.212 21.8092 236.212 22.5176V22.5342C236.212 23.237 236.314 23.8374 236.519 24.3354C236.729 24.8335 237.031 25.2153 237.424 25.481C237.817 25.7466 238.295 25.8794 238.86 25.8794ZM248.223 27.1577C247.548 27.1577 246.981 27.0304 246.521 26.7759C246.062 26.5158 245.716 26.1395 245.484 25.647C245.257 25.1489 245.144 24.5485 245.144 23.8457V18.0518H246.588V23.4971C246.588 24.2995 246.743 24.8971 247.053 25.29C247.368 25.6829 247.883 25.8794 248.597 25.8794C248.99 25.8794 249.335 25.8213 249.634 25.7051C249.939 25.5889 250.193 25.4229 250.398 25.207C250.603 24.9857 250.755 24.7201 250.854 24.4102C250.96 24.0947 251.012 23.7406 251.012 23.3477V18.0518H252.457V27H251.012V25.6636H250.879C250.736 25.979 250.539 26.2502 250.29 26.4771C250.041 26.6984 249.742 26.8672 249.394 26.9834C249.05 27.0996 248.66 27.1577 248.223 27.1577ZM261.662 27L259.155 18.0518H260.6L262.359 25.207H262.492L264.493 18.0518H265.862L267.863 25.207H267.996L269.755 18.0518H271.191L268.685 27H267.232L265.231 20.0771H265.099L263.106 27H261.662ZM275.309 27.1577C274.744 27.1577 274.235 27.0498 273.781 26.834C273.333 26.6182 272.976 26.311 272.71 25.9126C272.45 25.5142 272.32 25.0438 272.32 24.5015V24.4849C272.32 23.9536 272.448 23.4998 272.702 23.1235C272.957 22.7417 273.327 22.4429 273.814 22.2271C274.301 22.0112 274.891 21.884 275.583 21.8452L278.87 21.646V22.7998L275.757 22.999C275.076 23.0378 274.578 23.1789 274.263 23.4224C273.953 23.6659 273.798 24.009 273.798 24.4517V24.4683C273.798 24.922 273.969 25.2762 274.312 25.5308C274.656 25.7798 275.087 25.9043 275.607 25.9043C276.1 25.9043 276.537 25.8075 276.919 25.6138C277.301 25.4146 277.6 25.1462 277.815 24.8086C278.037 24.471 278.147 24.0892 278.147 23.6631V20.874C278.147 20.3206 277.979 19.9001 277.641 19.6123C277.309 19.319 276.808 19.1724 276.139 19.1724C275.602 19.1724 275.162 19.2692 274.819 19.4629C274.476 19.651 274.246 19.9194 274.13 20.2681L274.122 20.293H272.677L272.686 20.2432C272.763 19.7728 272.957 19.3633 273.267 19.0146C273.582 18.6605 273.989 18.3866 274.487 18.1929C274.985 17.9937 275.552 17.894 276.188 17.894C276.919 17.894 277.536 18.013 278.04 18.251C278.549 18.4889 278.933 18.832 279.193 19.2803C279.459 19.723 279.592 20.2542 279.592 20.874V27H278.147V25.6802H278.015C277.826 25.9956 277.597 26.264 277.326 26.4854C277.06 26.7067 276.758 26.8755 276.421 26.9917C276.083 27.1024 275.713 27.1577 275.309 27.1577ZM282.231 27V18.0518H283.676V19.3965H283.809C284.035 18.9206 284.362 18.5526 284.788 18.2925C285.214 18.0269 285.757 17.894 286.415 17.894C287.422 17.894 288.194 18.1818 288.731 18.7573C289.273 19.3273 289.544 20.1436 289.544 21.2061V27H288.1V21.5547C288.1 20.7467 287.929 20.1491 287.585 19.7617C287.248 19.3688 286.722 19.1724 286.008 19.1724C285.532 19.1724 285.12 19.2747 284.771 19.4795C284.423 19.6842 284.152 19.9748 283.958 20.3511C283.77 20.7274 283.676 21.1784 283.676 21.7041V27H282.231ZM295.338 27.0664C294.42 27.0664 293.753 26.881 293.338 26.5103C292.928 26.1395 292.724 25.528 292.724 24.6758V19.2471H291.312V18.0518H292.724V15.7358H294.218V18.0518H296.177V19.2471H294.218V24.3105C294.218 24.8363 294.317 25.2153 294.517 25.4478C294.716 25.6746 295.048 25.7881 295.513 25.7881C295.64 25.7881 295.748 25.7853 295.836 25.7798C295.931 25.7743 296.044 25.766 296.177 25.7549V26.9834C296.038 27.0055 295.9 27.0249 295.762 27.0415C295.623 27.0581 295.482 27.0664 295.338 27.0664ZM306.295 27.0664C305.377 27.0664 304.71 26.881 304.295 26.5103C303.885 26.1395 303.681 25.528 303.681 24.6758V19.2471H302.27V18.0518H303.681V15.7358H305.175V18.0518H307.134V19.2471H305.175V24.3105C305.175 24.8363 305.274 25.2153 305.474 25.4478C305.673 25.6746 306.005 25.7881 306.47 25.7881C306.597 25.7881 306.705 25.7853 306.793 25.7798C306.888 25.7743 307.001 25.766 307.134 25.7549V26.9834C306.995 27.0055 306.857 27.0249 306.719 27.0415C306.58 27.0581 306.439 27.0664 306.295 27.0664ZM312.853 27.1577C312.006 27.1577 311.273 26.9723 310.653 26.6016C310.039 26.2253 309.563 25.6912 309.226 24.9995C308.894 24.3078 308.728 23.486 308.728 22.5342V22.5176C308.728 21.5602 308.894 20.7357 309.226 20.0439C309.563 19.3522 310.039 18.821 310.653 18.4502C311.273 18.0794 312.006 17.894 312.853 17.894C313.705 17.894 314.438 18.0794 315.053 18.4502C315.667 18.821 316.14 19.3522 316.472 20.0439C316.81 20.7357 316.979 21.5602 316.979 22.5176V22.5342C316.979 23.486 316.81 24.3078 316.472 24.9995C316.14 25.6912 315.667 26.2253 315.053 26.6016C314.438 26.9723 313.705 27.1577 312.853 27.1577ZM312.853 25.8794C313.417 25.8794 313.896 25.7466 314.289 25.481C314.682 25.2153 314.981 24.8335 315.186 24.3354C315.396 23.8374 315.501 23.237 315.501 22.5342V22.5176C315.501 21.8092 315.396 21.2061 315.186 20.708C314.981 20.21 314.682 19.8309 314.289 19.5708C313.896 19.3052 313.417 19.1724 312.853 19.1724C312.289 19.1724 311.81 19.3052 311.417 19.5708C311.024 19.8309 310.722 20.21 310.512 20.708C310.307 21.2061 310.205 21.8092 310.205 22.5176V22.5342C310.205 23.237 310.307 23.8374 310.512 24.3354C310.722 24.8335 311.024 25.2153 311.417 25.481C311.81 25.7466 312.289 25.8794 312.853 25.8794ZM15.3447 49.9883V38.0518H16.7891V39.4795H16.9219C17.1045 39.1475 17.3341 38.8652 17.6108 38.6328C17.8875 38.3949 18.203 38.2122 18.5571 38.085C18.9113 37.9577 19.2959 37.894 19.7109 37.894C20.4691 37.894 21.1276 38.0877 21.6865 38.4751C22.251 38.8569 22.6882 39.3937 22.998 40.0854C23.3079 40.7772 23.4629 41.5879 23.4629 42.5176V42.5342C23.4629 43.4694 23.3079 44.2829 22.998 44.9746C22.6882 45.6663 22.251 46.2031 21.6865 46.585C21.1276 46.9668 20.4691 47.1577 19.7109 47.1577C19.3014 47.1577 18.9141 47.0941 18.5488 46.9668C18.1891 46.834 17.8682 46.6514 17.5859 46.4189C17.3092 46.1865 17.0879 45.9098 16.9219 45.5889H16.7891V49.9883H15.3447ZM19.3789 45.8794C19.9268 45.8794 20.3944 45.7466 20.7817 45.481C21.1691 45.2098 21.4652 44.8252 21.6699 44.3271C21.8802 43.8236 21.9854 43.2259 21.9854 42.5342V42.5176C21.9854 41.8203 21.8802 41.2227 21.6699 40.7246C21.4652 40.2266 21.1691 39.8447 20.7817 39.5791C20.3944 39.3079 19.9268 39.1724 19.3789 39.1724C18.8366 39.1724 18.369 39.3079 17.9761 39.5791C17.5832 39.8503 17.2816 40.2349 17.0713 40.7329C16.861 41.231 16.7559 41.8258 16.7559 42.5176V42.5342C16.7559 43.2204 16.861 43.8153 17.0713 44.3188C17.2816 44.8169 17.5832 45.2015 17.9761 45.4727C18.369 45.7438 18.8366 45.8794 19.3789 45.8794ZM29.373 47.1577C28.5208 47.1577 27.7876 46.9696 27.1733 46.5933C26.5646 46.217 26.0942 45.6857 25.7622 44.9995C25.4357 44.3078 25.2725 43.4943 25.2725 42.5591V42.5508C25.2725 41.6266 25.4357 40.8159 25.7622 40.1187C26.0942 39.4214 26.5618 38.8763 27.165 38.4834C27.7682 38.0905 28.4738 37.894 29.2817 37.894C30.0952 37.894 30.7925 38.0822 31.3735 38.4585C31.9601 38.8348 32.4084 39.3605 32.7183 40.0356C33.0337 40.7052 33.1914 41.4855 33.1914 42.3765V42.9409H26.0195V41.7871H32.4526L31.7388 42.8413V42.2686C31.7388 41.5658 31.6336 40.9875 31.4233 40.5337C31.2131 40.0799 30.9225 39.7424 30.5518 39.521C30.181 39.2941 29.7549 39.1807 29.2734 39.1807C28.792 39.1807 28.3604 39.2996 27.9785 39.5376C27.6022 39.77 27.3034 40.1159 27.082 40.5752C26.8607 41.0345 26.75 41.599 26.75 42.2686V42.8413C26.75 43.4777 26.8579 44.0228 27.0737 44.4766C27.2896 44.9248 27.5967 45.2707 27.9951 45.5142C28.3936 45.7521 28.8639 45.8711 29.4062 45.8711C29.8102 45.8711 30.1616 45.8158 30.4604 45.7051C30.7593 45.5944 31.0055 45.4533 31.1992 45.2817C31.3929 45.1102 31.5285 44.9359 31.606 44.7588L31.6392 44.6841H33.0835L33.0669 44.7505C32.9894 45.0549 32.8511 45.3509 32.6519 45.6387C32.4582 45.9209 32.2064 46.1782 31.8965 46.4106C31.5866 46.6375 31.2186 46.8201 30.7925 46.9585C30.3719 47.0913 29.8988 47.1577 29.373 47.1577ZM35.4326 47V38.0518H36.877V39.3799H37.0098C37.1813 38.9095 37.4718 38.5443 37.8813 38.2842C38.2909 38.0241 38.7972 37.894 39.4004 37.894C39.5387 37.894 39.6743 37.9023 39.8071 37.9189C39.9455 37.93 40.0506 37.9411 40.1226 37.9521V39.355C39.9731 39.3273 39.8265 39.3079 39.6826 39.2969C39.5443 39.2803 39.3949 39.272 39.2344 39.272C38.7751 39.272 38.3683 39.3633 38.0142 39.5459C37.66 39.7285 37.3805 39.9831 37.1758 40.3096C36.9766 40.6361 36.877 41.0179 36.877 41.4551V47H35.4326ZM43.0029 47V39.2471H41.5171V38.0518H43.0029V37.0557C43.0029 36.458 43.0998 35.9655 43.2935 35.5781C43.4927 35.1852 43.786 34.8947 44.1733 34.7065C44.5607 34.5129 45.0366 34.416 45.6011 34.416C45.7782 34.416 45.9442 34.4243 46.0991 34.4409C46.2596 34.452 46.4146 34.4714 46.564 34.499V35.6528C46.4754 35.6362 46.373 35.6252 46.2568 35.6196C46.1406 35.6141 46.0189 35.6113 45.8916 35.6113C45.377 35.6113 45.0062 35.7358 44.7793 35.9849C44.5579 36.2339 44.4473 36.6047 44.4473 37.0972V38.0518H46.481V39.2471H44.4473V47H43.0029ZM51.8765 47.1577C51.0298 47.1577 50.2965 46.9723 49.6768 46.6016C49.0625 46.2253 48.5866 45.6912 48.249 44.9995C47.917 44.3078 47.751 43.486 47.751 42.5342V42.5176C47.751 41.5602 47.917 40.7357 48.249 40.0439C48.5866 39.3522 49.0625 38.821 49.6768 38.4502C50.2965 38.0794 51.0298 37.894 51.8765 37.894C52.7287 37.894 53.4619 38.0794 54.0762 38.4502C54.6904 38.821 55.1636 39.3522 55.4956 40.0439C55.8332 40.7357 56.002 41.5602 56.002 42.5176V42.5342C56.002 43.486 55.8332 44.3078 55.4956 44.9995C55.1636 45.6912 54.6904 46.2253 54.0762 46.6016C53.4619 46.9723 52.7287 47.1577 51.8765 47.1577ZM51.8765 45.8794C52.4409 45.8794 52.9196 45.7466 53.3125 45.481C53.7054 45.2153 54.0042 44.8335 54.209 44.3354C54.4193 43.8374 54.5244 43.237 54.5244 42.5342V42.5176C54.5244 41.8092 54.4193 41.2061 54.209 40.708C54.0042 40.21 53.7054 39.8309 53.3125 39.5708C52.9196 39.3052 52.4409 39.1724 51.8765 39.1724C51.312 39.1724 50.8333 39.3052 50.4404 39.5708C50.0475 39.8309 49.7459 40.21 49.5356 40.708C49.3309 41.2061 49.2285 41.8092 49.2285 42.5176V42.5342C49.2285 43.237 49.3309 43.8374 49.5356 44.3354C49.7459 44.8335 50.0475 45.2153 50.4404 45.481C50.8333 45.7466 51.312 45.8794 51.8765 45.8794ZM58.2432 47V38.0518H59.6875V39.3799H59.8203C59.9919 38.9095 60.2824 38.5443 60.6919 38.2842C61.1014 38.0241 61.6077 37.894 62.2109 37.894C62.3493 37.894 62.4849 37.9023 62.6177 37.9189C62.756 37.93 62.8612 37.9411 62.9331 37.9521V39.355C62.7837 39.3273 62.637 39.3079 62.4932 39.2969C62.3548 39.2803 62.2054 39.272 62.0449 39.272C61.5856 39.272 61.1789 39.3633 60.8247 39.5459C60.4705 39.7285 60.1911 39.9831 59.9863 40.3096C59.7871 40.6361 59.6875 41.0179 59.6875 41.4551V47H58.2432ZM64.8838 47V38.0518H66.3281V39.4131H66.4609C66.6602 38.9316 66.9645 38.5581 67.374 38.2925C67.7891 38.0269 68.2899 37.894 68.8765 37.894C69.2804 37.894 69.6429 37.9604 69.9639 38.0933C70.2848 38.2261 70.5615 38.4115 70.7939 38.6494C71.0264 38.8818 71.2118 39.153 71.3501 39.4629H71.4829C71.6434 39.1475 71.8592 38.8735 72.1304 38.6411C72.4015 38.4032 72.7142 38.2205 73.0684 38.0933C73.4281 37.9604 73.8127 37.894 74.2222 37.894C74.8309 37.894 75.3455 38.0075 75.7661 38.2344C76.1922 38.4613 76.516 38.7933 76.7373 39.2305C76.9587 39.6621 77.0693 40.1906 77.0693 40.8159V47H75.625V41.1479C75.625 40.7052 75.5558 40.34 75.4175 40.0522C75.2847 39.759 75.0799 39.5404 74.8032 39.3965C74.5265 39.2471 74.1779 39.1724 73.7573 39.1724C73.3423 39.1724 72.9798 39.2664 72.6699 39.4546C72.36 39.6427 72.1193 39.8945 71.9478 40.21C71.7762 40.5199 71.6904 40.8657 71.6904 41.2476V47H70.2461V40.9238C70.2461 40.5697 70.1686 40.2625 70.0137 40.0024C69.8643 39.7368 69.6484 39.5321 69.3662 39.3882C69.0895 39.2443 68.763 39.1724 68.3867 39.1724C67.9993 39.1724 67.6479 39.2747 67.3325 39.4795C67.0226 39.6842 66.7764 39.9609 66.5938 40.3096C66.4167 40.6527 66.3281 41.0345 66.3281 41.4551V47H64.8838ZM85.2207 50.1377C85.1266 50.1377 85.0215 50.1322 84.9053 50.1211C84.7891 50.1156 84.6812 50.1045 84.5815 50.0879V48.9009C84.6701 48.9175 84.7669 48.9285 84.8721 48.9341C84.9772 48.9396 85.0796 48.9424 85.1792 48.9424C85.5887 48.9424 85.9235 48.8372 86.1836 48.627C86.4492 48.4167 86.6623 48.0542 86.8228 47.5396L86.9888 47.0083L83.6768 38.0518H85.2207L87.9766 46.3193L87.4038 45.4146H88.0845L87.5117 46.3193L90.2593 38.0518H91.7783L88.2837 47.5479C88.0402 48.2174 87.7829 48.7404 87.5117 49.1167C87.2406 49.493 86.9224 49.7559 86.5571 49.9053C86.1974 50.0602 85.752 50.1377 85.2207 50.1377ZM97.0327 47.1577C96.186 47.1577 95.4528 46.9723 94.833 46.6016C94.2188 46.2253 93.7428 45.6912 93.4053 44.9995C93.0732 44.3078 92.9072 43.486 92.9072 42.5342V42.5176C92.9072 41.5602 93.0732 40.7357 93.4053 40.0439C93.7428 39.3522 94.2188 38.821 94.833 38.4502C95.4528 38.0794 96.186 37.894 97.0327 37.894C97.8849 37.894 98.6182 38.0794 99.2324 38.4502C99.8467 38.821 100.32 39.3522 100.652 40.0439C100.989 40.7357 101.158 41.5602 101.158 42.5176V42.5342C101.158 43.486 100.989 44.3078 100.652 44.9995C100.32 45.6912 99.8467 46.2253 99.2324 46.6016C98.6182 46.9723 97.8849 47.1577 97.0327 47.1577ZM97.0327 45.8794C97.5972 45.8794 98.0758 45.7466 98.4688 45.481C98.8617 45.2153 99.1605 44.8335 99.3652 44.3354C99.5755 43.8374 99.6807 43.237 99.6807 42.5342V42.5176C99.6807 41.8092 99.5755 41.2061 99.3652 40.708C99.1605 40.21 98.8617 39.8309 98.4688 39.5708C98.0758 39.3052 97.5972 39.1724 97.0327 39.1724C96.4683 39.1724 95.9896 39.3052 95.5967 39.5708C95.2038 39.8309 94.9022 40.21 94.6919 40.708C94.4871 41.2061 94.3848 41.8092 94.3848 42.5176V42.5342C94.3848 43.237 94.4871 43.8374 94.6919 44.3354C94.9022 44.8335 95.2038 45.2153 95.5967 45.481C95.9896 45.7466 96.4683 45.8794 97.0327 45.8794ZM106.396 47.1577C105.721 47.1577 105.154 47.0304 104.694 46.7759C104.235 46.5158 103.889 46.1395 103.657 45.647C103.43 45.1489 103.316 44.5485 103.316 43.8457V38.0518H104.761V43.4971C104.761 44.2995 104.916 44.8971 105.226 45.29C105.541 45.6829 106.056 45.8794 106.77 45.8794C107.162 45.8794 107.508 45.8213 107.807 45.7051C108.111 45.5889 108.366 45.4229 108.571 45.207C108.776 44.9857 108.928 44.7201 109.027 44.4102C109.132 44.0947 109.185 43.7406 109.185 43.3477V38.0518H110.629V47H109.185V45.6636H109.052C108.908 45.979 108.712 46.2502 108.463 46.4771C108.214 46.6984 107.915 46.8672 107.566 46.9834C107.223 47.0996 106.833 47.1577 106.396 47.1577ZM113.327 47V38.0518H114.771V39.3799H114.904C115.076 38.9095 115.366 38.5443 115.776 38.2842C116.185 38.0241 116.692 37.894 117.295 37.894C117.433 37.894 117.569 37.9023 117.702 37.9189C117.84 37.93 117.945 37.9411 118.017 37.9521V39.355C117.868 39.3273 117.721 39.3079 117.577 39.2969C117.439 39.2803 117.289 39.272 117.129 39.272C116.67 39.272 116.263 39.3633 115.909 39.5459C115.555 39.7285 115.275 39.9831 115.07 40.3096C114.871 40.6361 114.771 41.0179 114.771 41.4551V47H113.327ZM124.666 47V34.499H126.11V39.3965H126.243C126.47 38.9206 126.797 38.5526 127.223 38.2925C127.649 38.0269 128.191 37.894 128.85 37.894C129.519 37.894 130.086 38.0241 130.551 38.2842C131.016 38.5387 131.37 38.9123 131.614 39.4048C131.857 39.8973 131.979 40.4977 131.979 41.2061V47H130.535V41.5547C130.535 40.7467 130.363 40.1491 130.02 39.7617C129.682 39.3688 129.157 39.1724 128.443 39.1724C127.967 39.1724 127.555 39.2747 127.206 39.4795C126.857 39.6842 126.586 39.9748 126.393 40.3511C126.204 40.7274 126.11 41.1784 126.11 41.7041V47H124.666ZM137.051 47.1577C136.486 47.1577 135.977 47.0498 135.523 46.834C135.075 46.6182 134.718 46.311 134.453 45.9126C134.193 45.5142 134.062 45.0438 134.062 44.5015V44.4849C134.062 43.9536 134.19 43.4998 134.444 43.1235C134.699 42.7417 135.07 42.4429 135.557 42.2271C136.044 42.0112 136.633 41.884 137.325 41.8452L140.612 41.646V42.7998L137.499 42.999C136.818 43.0378 136.32 43.1789 136.005 43.4224C135.695 43.6659 135.54 44.009 135.54 44.4517V44.4683C135.54 44.922 135.712 45.2762 136.055 45.5308C136.398 45.7798 136.829 45.9043 137.35 45.9043C137.842 45.9043 138.279 45.8075 138.661 45.6138C139.043 45.4146 139.342 45.1462 139.558 44.8086C139.779 44.471 139.89 44.0892 139.89 43.6631V40.874C139.89 40.3206 139.721 39.9001 139.383 39.6123C139.051 39.319 138.55 39.1724 137.881 39.1724C137.344 39.1724 136.904 39.2692 136.561 39.4629C136.218 39.651 135.988 39.9194 135.872 40.2681L135.864 40.293H134.419L134.428 40.2432C134.505 39.7728 134.699 39.3633 135.009 39.0146C135.324 38.6605 135.731 38.3866 136.229 38.1929C136.727 37.9937 137.294 37.894 137.931 37.894C138.661 37.894 139.278 38.013 139.782 38.251C140.291 38.4889 140.675 38.832 140.936 39.2803C141.201 39.723 141.334 40.2542 141.334 40.874V47H139.89V45.6802H139.757C139.569 45.9956 139.339 46.264 139.068 46.4854C138.802 46.7067 138.501 46.8755 138.163 46.9917C137.826 47.1024 137.455 47.1577 137.051 47.1577ZM148.423 47.1577C148.008 47.1577 147.623 47.0941 147.269 46.9668C146.915 46.8395 146.599 46.6597 146.323 46.4272C146.046 46.1893 145.816 45.9043 145.634 45.5723H145.501V47H144.057V34.499H145.501V39.4629H145.634C145.8 39.1419 146.021 38.8652 146.298 38.6328C146.58 38.4004 146.901 38.2205 147.261 38.0933C147.626 37.9604 148.013 37.894 148.423 37.894C149.181 37.894 149.84 38.085 150.398 38.4668C150.963 38.8486 151.4 39.3854 151.71 40.0771C152.02 40.7689 152.175 41.5824 152.175 42.5176V42.5342C152.175 43.4639 152.02 44.2773 151.71 44.9746C151.4 45.6663 150.963 46.2031 150.398 46.585C149.84 46.9668 149.181 47.1577 148.423 47.1577ZM148.091 45.8794C148.639 45.8794 149.106 45.7466 149.494 45.481C149.881 45.2098 150.177 44.8252 150.382 44.3271C150.592 43.8236 150.697 43.2259 150.697 42.5342V42.5176C150.697 41.8203 150.592 41.2227 150.382 40.7246C150.177 40.2266 149.881 39.8447 149.494 39.5791C149.106 39.3079 148.639 39.1724 148.091 39.1724C147.549 39.1724 147.081 39.3079 146.688 39.5791C146.295 39.8503 145.993 40.2349 145.783 40.7329C145.573 41.231 145.468 41.8258 145.468 42.5176V42.5342C145.468 43.2204 145.573 43.8153 145.783 44.3188C145.993 44.8169 146.295 45.2015 146.688 45.4727C147.081 45.7438 147.549 45.8794 148.091 45.8794ZM154.449 47V38.0518H155.894V47H154.449ZM155.18 36.3252C154.909 36.3252 154.673 36.2284 154.474 36.0347C154.28 35.8354 154.184 35.6003 154.184 35.3291C154.184 35.0524 154.28 34.8172 154.474 34.6235C154.673 34.4299 154.909 34.333 155.18 34.333C155.456 34.333 155.692 34.4299 155.885 34.6235C156.079 34.8172 156.176 35.0524 156.176 35.3291C156.176 35.6003 156.079 35.8354 155.885 36.0347C155.692 36.2284 155.456 36.3252 155.18 36.3252ZM161.795 47.0664C160.877 47.0664 160.21 46.881 159.795 46.5103C159.385 46.1395 159.181 45.528 159.181 44.6758V39.2471H157.77V38.0518H159.181V35.7358H160.675V38.0518H162.634V39.2471H160.675V44.3105C160.675 44.8363 160.774 45.2153 160.974 45.4478C161.173 45.6746 161.505 45.7881 161.97 45.7881C162.097 45.7881 162.205 45.7853 162.293 45.7798C162.388 45.7743 162.501 45.766 162.634 45.7549V46.9834C162.495 47.0055 162.357 47.0249 162.219 47.0415C162.08 47.0581 161.939 47.0664 161.795 47.0664ZM167.697 47.1577C167.033 47.1577 166.447 47.0581 165.938 46.8589C165.428 46.6541 165.019 46.3691 164.709 46.0039C164.405 45.6387 164.225 45.2098 164.169 44.7173H165.647C165.769 45.0881 166.007 45.3869 166.361 45.6138C166.715 45.8407 167.177 45.9541 167.747 45.9541C168.151 45.9541 168.505 45.896 168.81 45.7798C169.119 45.658 169.363 45.4948 169.54 45.29C169.717 45.0798 169.806 44.839 169.806 44.5679V44.5513C169.806 44.2469 169.684 43.9896 169.44 43.7793C169.197 43.5635 168.799 43.3892 168.245 43.2563L166.859 42.9243C166.3 42.7915 165.841 42.62 165.481 42.4097C165.121 42.1938 164.856 41.931 164.684 41.6211C164.513 41.3057 164.427 40.9349 164.427 40.5088V40.5005C164.427 40.0024 164.571 39.557 164.858 39.1641C165.152 38.7712 165.55 38.4613 166.054 38.2344C166.557 38.0075 167.125 37.894 167.755 37.894C168.381 37.894 168.934 37.9937 169.416 38.1929C169.903 38.3866 170.293 38.6632 170.586 39.0229C170.885 39.3826 171.067 39.806 171.134 40.293H169.714C169.62 39.9388 169.404 39.651 169.067 39.4297C168.729 39.2083 168.289 39.0977 167.747 39.0977C167.393 39.0977 167.077 39.1558 166.801 39.272C166.524 39.3826 166.306 39.5376 166.145 39.7368C165.985 39.936 165.904 40.1685 165.904 40.4341V40.4507C165.904 40.6499 165.957 40.827 166.062 40.9819C166.167 41.1369 166.33 41.2725 166.552 41.3887C166.773 41.5049 167.058 41.6073 167.407 41.6958L168.785 42.0278C169.626 42.2326 170.251 42.5259 170.661 42.9077C171.076 43.2896 171.283 43.8014 171.283 44.4434V44.46C171.283 44.9912 171.125 45.4616 170.81 45.8711C170.495 46.2751 170.066 46.5905 169.523 46.8174C168.987 47.0443 168.378 47.1577 167.697 47.1577ZM174.703 47.083C174.41 47.083 174.155 46.9779 173.939 46.7676C173.729 46.5518 173.624 46.2972 173.624 46.0039C173.624 45.7051 173.729 45.4505 173.939 45.2402C174.155 45.0299 174.41 44.9248 174.703 44.9248C175.002 44.9248 175.257 45.0299 175.467 45.2402C175.677 45.4505 175.782 45.7051 175.782 46.0039C175.782 46.2972 175.677 46.5518 175.467 46.7676C175.257 46.9779 175.002 47.083 174.703 47.083Z" fill="#FDFCFB"/>
</g>
<defs>
<filter id="filter0_b_3841_33021" x="38.2058" y="38.25" width="59.5884" height="62.75" filterUnits="userSpaceOnUse" color-interpolation-filters="sRGB">
<feFlood flood-opacity="0" result="BackgroundImageFix"/>
<feGaussianBlur in="BackgroundImageFix" stdDeviation="11"/>
<feComposite in2="SourceAlpha" operator="in" result="effect1_backgroundBlur_3841_33021"/>
<feBlend mode="normal" in="SourceGraphic" in2="effect1_backgroundBlur_3841_33021" result="shape"/>
</filter>
<filter id="filter1_b_3841_33021" x="-22" y="-22" width="384" height="106" filterUnits="userSpaceOnUse" color-interpolation-filters="sRGB">
<feFlood flood-opacity="0" result="BackgroundImageFix"/>
<feGaussianBlur in="BackgroundImageFix" stdDeviation="11"/>
<feComposite in2="SourceAlpha" operator="in" result="effect1_backgroundBlur_3841_33021"/>
<feBlend mode="normal" in="SourceGraphic" in2="effect1_backgroundBlur_3841_33021" result="shape"/>
</filter>
</defs>
</svg>
